<?xml version="1.0" encoding="utf-8"?>
<!-- Generator: Adobe Illustrator 19.0.0, SVG Export Plug-In . SVG Version: 6.00 Build 0)  -->
<svg version="1.1" id="Camada_1" xmlns="http://www.w3.org/2000/svg" xmlns:xlink="http://www.w3.org/1999/xlink" x="0px" y="0px"
	 viewBox="0 0 297.6 425.2" style="enable-background:new 0 0 297.6 425.2;" xml:space="preserve">
<style type="text/css">
	.st0{fill:#FFED9E;}
	.st1{fill:#FEE777;}
	.st2{fill:#F2D65B;}
</style>
<g id="XMLID_1202_">
	<path id="XMLID_1218_" class="st0" d="M121,181.3c0,0-0.4-12.1,6.8-14.6s0.8,11.8,0.8,11.8l-1.8,3.8
		C126.8,182.3,124.9,183.3,121,181.3z"/>
	<path id="XMLID_1220_" class="st0" d="M160.9,165.8c0,0,3.2-0.6,7.4,0.5s6.7,3.5,9,12.5c0,0-3.2,6.2-12.4,7.1l-1.6-4.4
		C163.3,181.6,157.5,168.2,160.9,165.8z"/>
	<path id="XMLID_1204_" class="st1" d="M123.8,259.6c0,0-4.5-29.9,2.2-54.6c0,0-3-26.2,1.5-37.9c0,0,2.6-2.5,11.1-3.9
		c0,0-1.6,4.5,4.6,4.9s14-4.1,15.5-5.2c0,0,4.8,0.5,9.5,3.5c0,0-4.9,4.1-4.9,15.6c0,0-4.8,11.9-4.9,20.6c0,0-0.4,1.1,0.4,2.6
		s5.6,16.5,7.6,25.5c3,12.1,4.1,24.4,5.8,28c0,0,0.4,1-0.8,1s-6.9-2.2-16.6-1.2S135.6,264,123.8,259.6z"/>
	<g id="XMLID_1205_">
		<g id="XMLID_1207_">
			<path id="XMLID_1227_" class="st2" d="M139.9,207.4c-4.1,0-7.5-0.5-9.7-1c-2.6-0.6-2.9-1.3-2.9-1.3s10.2,3.3,23.6,0.1
				c2.2-0.5,7.1-1.8,7.1-1.8c0.7-0.2-1.7,1.5-5.3,2.4C148,206.9,143.6,207.4,139.9,207.4z"/>
		</g>
		<g id="XMLID_1213_">
			<path id="XMLID_1226_" class="st2" d="M127.8,226c0-0.6-0.1-15.5,3-20.2l0.8,0.5c-1.1,1.7-1.8,4.7-2.4,8
				C128.4,219.5,127.8,226,127.8,226z"/>
		</g>
		<g id="XMLID_1215_">
			<path id="XMLID_1225_" class="st2" d="M133.2,235.3c-0.3-3.4-0.6-16,2-28.4l1,0.2c-2.6,12.3-2.4,23.2-2.2,26.6
				c0.2,5.2,0.3,17.3,0.3,17.3S133.6,239.4,133.2,235.3z"/>
		</g>
		<g id="XMLID_1216_">
			<path id="XMLID_1224_" class="st2" d="M143.5,232.6l0-0.2c0.3-5.2,1-18.8-0.5-25.8l1-0.2c1.5,7.1,0.6,21.7,0.3,26.8l0,0.2
				c-0.3,4.9,1.3,17.8,1.8,20.6C146.1,254,143.2,242.9,143.5,232.6z"/>
		</g>
		<g id="XMLID_1217_">
			<path id="XMLID_1223_" class="st2" d="M153.3,235c0-0.1,0.2-6.2-0.8-14.2c-0.6-4.7-1.7-10-3.5-15.1l0.9-0.3
				c2,5.6,2.7,9.8,3.3,14.8C154.1,227.7,153.3,235,153.3,235z"/>
		</g>
		<g id="XMLID_1219_">
			<path id="XMLID_1222_" class="st2" d="M161.5,229.7c-1.7-11.9-7.2-24.9-7.2-25l0.9-0.4c0.1,0.1,5.5,13.2,7.3,25.2
				c1.1,7.7,1.8,13.7,2.3,17.3c0.2,2,0.4,3.4,0.5,3.8C165.2,250.7,162.6,237.4,161.5,229.7z"/>
		</g>
		<g id="XMLID_1221_">
			<path id="XMLID_1228_" class="st2" d="M129.9,257.3c0.1,0,8.5,2,14.5,0.2c3.6-1.1,9.4-2.5,15.1-2.6c5.8-0.1,9.1,2,9.1,2
				c-2.6-1-5.5-1.3-8.4-1.3c-5.8,0.1-11.6,1.6-15.4,2.4C136.1,259.9,129.9,257.3,129.9,257.3z"/>
		</g>
	</g>
</g>
</svg>
