<?xml version="1.0" encoding="utf-8"?>
<!-- Generator: Adobe Illustrator 19.0.0, SVG Export Plug-In . SVG Version: 6.00 Build 0)  -->
<svg version="1.1" id="Camada_1" xmlns="http://www.w3.org/2000/svg" xmlns:xlink="http://www.w3.org/1999/xlink" x="0px" y="0px"
	 viewBox="0 0 297.6 425.2" style="enable-background:new 0 0 297.6 425.2;" xml:space="preserve">
<style type="text/css">
	.st0{fill:#E6EAEE;}
	.st1{fill:#956AAE;}
	.st2{fill:#C1CBD3;}
</style>
<g id="XMLID_1198_">
	<g id="XMLID_1199_">
		<path id="XMLID_1203_" class="st0" d="M166.9,188.8c0.1,0,0.2,0,0.2,0c-3-1.2-7.1-2.4-9.4-3c-4.6,4.7-15.7,9.4-15.7,9.4
			c-3.5-2.5-5-6.8-5.6-9.1c-2.6,0.8-5.9,1.8-8.5,2.9c-2.3,3.5-2.9,17.2-2.9,17.2c-0.2,8.8-2.7,29.2-2.7,29.2s8.3,5.9,21,4.1
			c10.2-1.5,14.9-4.5,19.2-4.9c-0.8-3-3.5-10.4-3.7-17.2c-0.1-4.4,2-10.3,2.7-12.6C161.5,204.8,159.3,190.1,166.9,188.8z"/>
		<g id="XMLID_1200_">
			<path id="XMLID_1206_" class="st1" d="M123.8,191.1c-2.7,2.5-2.3,3.3-3.1,7.8c-0.8,4.4-1.8,5.1-1.8,5.1c2.2,2.6,6.1,2.2,6.1,2.2
				s0.6-13.7,2.9-17.2C126,189.7,124.5,190.5,123.8,191.1z"/>
			<path id="XMLID_1208_" class="st1" d="M163.9,209.3c10.2,0.1,13.8-6.1,13.8-6.1c-1.9-2-4.5-10.3-7.2-12.8
				c-0.7-0.6-1.9-1.2-3.3-1.8c-0.1,0-0.2,0-0.2,0c-7.6,1.4-5.4,16.1-5.4,16.1C164,208.2,163.9,209.3,163.9,209.3z"/>
			<path id="XMLID_1214_" class="st1" d="M142,195.2c0,0,11.1-4.7,15.7-9.4c-1.1-0.3-1.8-0.4-1.8-0.4c-7.3,5.2-13.6,7.9-13.6,7.9
				s-3-2.3-4.2-7.7c-0.5,0.1-1.1,0.3-1.7,0.5C137,188.4,138.5,192.7,142,195.2z"/>
		</g>
	</g>
	<g id="XMLID_1201_">
		<g id="XMLID_1211_">
			<path id="XMLID_1212_" class="st2" d="M139.2,230.4c-7.6-1.9-12.3-7.3-12.2-7.4c0.1-0.1,3.4,3.5,8.6,5.7c2.5,1,5.4,1.8,8.8,1.8
				c0.2,0,0.4,0,0.5,0c0,0,0,0,0,0C145.1,230.5,143.3,231.3,139.2,230.4z"/>
		</g>
		<g id="XMLID_1209_">
			<path id="XMLID_1210_" class="st2" d="M141.4,234.2c-8-0.4-13.1-3.2-13-3.3c0.1-0.1,4.4,2,11.2,2.7c3.5,0.3,11.7-0.3,11.7-0.2
				C151.3,233.5,144.2,234.3,141.4,234.2z"/>
		</g>
	</g>
</g>
</svg>
