<?xml version="1.0" encoding="utf-8"?>
<!-- Generator: Adobe Illustrator 19.0.0, SVG Export Plug-In . SVG Version: 6.00 Build 0)  -->
<svg version="1.1" id="Camada_1" xmlns="http://www.w3.org/2000/svg" xmlns:xlink="http://www.w3.org/1999/xlink" x="0px" y="0px"
	 viewBox="0 0 297.6 425.2" style="enable-background:new 0 0 297.6 425.2;" xml:space="preserve">
<style type="text/css">
	.st0{fill:#C54B4C;}
	.st1{fill:#842F34;}
</style>
<g id="XMLID_1035_">
	<path id="XMLID_1037_" class="st0" d="M169.5,192c-2.8-2.4-14.9-6.9-14.9-6.9c-2.8,2-6.3,3.7-10.7,4c-4.3,0.3-4.7-3.2-4.7-3.2
		s-13.9,3.7-16.6,6.2s-2.6,9-3.4,13.4c-0.8,4.4-1.8,5.6-1.8,5.6c2.2,2.6,6.1,2.7,6.1,2.7c-0.2,8.8-3.4,21.6-3.4,21.6
		s9.8,5.2,22.5,4.1c12.8-1.1,16.3-3.1,16.3-3.1c-4.4-10.1-0.1-25,1.5-30.1c2.5,3.4,3,6.4,3,6.4c10.2,0.1,15.3-4.7,15.3-4.7
		C176.9,206.1,172.2,194.4,169.5,192z"/>
	<g id="XMLID_1036_">
		<g id="XMLID_1038_">
			<path id="XMLID_1040_" class="st1" d="M139.6,229.4c-8.8-2.2-14.2-8.5-14.1-8.6c0.1-0.1,4,4,10,6.6c2.9,1.2,6.3,2.1,10.1,2.1
				c0.2,0,0.4,0,0.6,0c0,0,0,0,0,0C146.4,229.5,144.4,230.4,139.6,229.4z"/>
		</g>
		<g id="XMLID_1039_">
			<path id="XMLID_1041_" class="st1" d="M143.2,233.7c-9.8,0-16.2-2.9-16.2-3c0.1-0.2,5.5,2,13.9,2.4c4.3,0.2,14.4-1.1,14.4-0.9
				C155.3,232.2,146.7,233.7,143.2,233.7z"/>
		</g>
		<g id="XMLID_1043_">
			<path id="XMLID_1044_" class="st1" d="M123.7,214C123.7,214,123.7,214,123.7,214c-0.2,0-0.3-0.2-0.3-0.3c0-0.1,0.6-7.5,0.8-12.5
				c0.1-3-0.3-5.1-0.1-5.1c0.2,0,0.6,4.2,0.6,6.6c-0.1,5.1-0.6,10.7-0.6,11C124,213.9,123.9,214,123.7,214z"/>
		</g>
		<g id="XMLID_1045_">
			<path id="XMLID_1048_" class="st1" d="M143.5,191.7c-6.2,0-7.2-4.9-7.2-4.9l0.5-0.1c0,0.2,1,4.9,7.3,4.6
				c6.5-0.3,12.5-5.3,12.5-5.4l0.6,0.2c-0.1,0.1-6.4,5.3-13,5.6C143.9,191.7,143.7,191.7,143.5,191.7z"/>
		</g>
		<g id="XMLID_1046_">
			<path id="XMLID_1047_" class="st1" d="M123.3,212.4c-3.9,0-5.3-2.1-5.3-2.2l0.2-0.4c0,0,1.6,2.2,5.5,2.1l0,0.5
				C123.5,212.4,123.4,212.4,123.3,212.4z"/>
		</g>
		<g id="XMLID_1049_">
			<path id="XMLID_1050_" class="st1" d="M163.2,211.4l-0.2-0.5c0.1,0,9.3-0.2,14.3-5.1l0.3,0.4
				C172.4,211.3,163.3,211.4,163.2,211.4z"/>
		</g>
	</g>
</g>
</svg>
