<?xml version="1.0" encoding="utf-8"?>
<!-- Generator: Adobe Illustrator 19.0.0, SVG Export Plug-In . SVG Version: 6.00 Build 0)  -->
<svg version="1.1" id="Camada_1" xmlns="http://www.w3.org/2000/svg" xmlns:xlink="http://www.w3.org/1999/xlink" x="0px" y="0px"
	 viewBox="0 0 297.6 425.2" style="enable-background:new 0 0 297.6 425.2;" xml:space="preserve">
<style type="text/css">
	.st0{fill:#F2BCD6;}
	.st1{fill:#F399C1;}
	.st2{fill:#DC7CAA;}
</style>
<g id="XMLID_1158_">
	<path id="XMLID_1159_" class="st0" d="M125.1,252.9c-0.2,1.2-0.5,7.2,0.5,9.2s3,0.1,3.7-0.1c0.7-0.2,0.7-0.2,0.7-0.2
		s0.6,3.2,2.8,2.8s4.7-3.2,10.2-2.2c5.6,1,4.6,2.4,8.5,3.2c3.9,0.8,7.8-1.5,11.1-2.5s6.2-0.2,10.7,0.2s8.4-0.2,9.7-3.5
		c0,0,3.2-0.6,4.5-2.5s0.9-5.4-0.8-7.7l-6.9,3.5l-5.5-0.5l-10.1,3.5l-9.8-2.5l-13.1,2.9l-7.1-3.7L125.1,252.9z"/>
	<path id="XMLID_1162_" class="st1" d="M136.7,215.5c0,0-11.6,18-13.6,26.4c-2,8.4-1.3,13.5-0.1,14.6c1.2,1.1,4.7-0.8,4.7-0.8
		s-0.1,1.8,0.7,2.4c0.8,0.6,2.4,0,4.2-0.8c1.8-0.8,3.3-0.9,4.8,0.4c1.4,1.3,2.9,3,6.8,2.3c3.9-0.7,7.4-3.2,10.7-3.2s5.2,2.6,7.1,3.3
		c1.8,0.8,3.8-0.4,6.1-2.1s5.5-2.8,8.8-2.2c3.3,0.7,5,0.9,7.1-0.6c0,0,0.4-0.7,0.6-1c0.2-0.3,1.4,0.2,3.3-1.6s0.8-8.8-1.8-13.1
		c-1.8-3.2-17.5-26-17.5-26s-7,4.3-17.4,4.2C140.8,217.9,136.7,215.5,136.7,215.5z"/>
	<g id="XMLID_1163_">
		<path id="XMLID_1196_" class="st2" d="M127.8,251.1c0,0,0-17.7,6.9-32.4c0.2-0.4,1.8-2.4,1.8-2.4
			C130.7,226.8,127.8,251.1,127.8,251.1z"/>
	</g>
	<g id="XMLID_1184_">
		<path id="XMLID_1197_" class="st2" d="M134.9,233.7c0.3-2,0.8-4.8,1.5-7.7c1.7-6.9,3.8-9.2,3.8-9.2c-2.8,5.7-4.5,15.1-5.1,20.9
			c-0.6,6.2-0.3,12.8-0.3,12.8S133.7,241.9,134.9,233.7z"/>
	</g>
	<g id="XMLID_1185_">
		<path id="XMLID_1195_" class="st2" d="M141.5,240.9c0,0-0.3-6.8,0.7-13.7c0.5-3.7,1-7.5,1.9-9.7c0-0.1,0.8,0.1,0.8,0.1
			c-1.1,2.4-1.9,7.2-2.3,11.7C142.2,234,141.5,240.9,141.5,240.9z"/>
	</g>
	<g id="XMLID_1187_">
		<path id="XMLID_1194_" class="st2" d="M152.3,252.8c0,0-0.5-10.4-0.7-19.9c-0.2-6.1,0-14.6,0-14.6c0.6,3.1,0.6,10.4,0.7,17.8
			C152.5,244.2,152.3,252.8,152.3,252.8z"/>
	</g>
	<g id="XMLID_1188_">
		<path id="XMLID_1193_" class="st2" d="M159.5,231.2c0,0-0.2-3.8-0.9-8.3c-0.2-1.7-0.6-3.5-1.1-5.3l0.6-0.1c0.6,2,0.9,3.1,1.1,5
			C159.8,226.6,159.5,231.2,159.5,231.2z"/>
	</g>
	<g id="XMLID_1189_">
		<path id="XMLID_1192_" class="st2" d="M166.1,240.4c0,0-0.6-14.4-4.1-23.7l0.9-0.3C166.5,225.8,166.1,240.2,166.1,240.4z"/>
	</g>
	<g id="XMLID_1190_">
		<path id="XMLID_1191_" class="st2" d="M173.6,251.3c0.1-8-3.5-19.6-3.6-19.7c0,0,1.2,3.3,2.7,8.1
			C174.5,245.3,173.6,251.3,173.6,251.3z"/>
	</g>
</g>
</svg>
