<?xml version="1.0" encoding="utf-8"?>
<!-- Generator: Adobe Illustrator 19.0.0, SVG Export Plug-In . SVG Version: 6.00 Build 0)  -->
<svg version="1.1" id="Camada_1" xmlns="http://www.w3.org/2000/svg" xmlns:xlink="http://www.w3.org/1999/xlink" x="0px" y="0px"
	 viewBox="0 0 297.6 425.2" style="enable-background:new 0 0 297.6 425.2;" xml:space="preserve">
<style type="text/css">
	.st0{fill:#9DCDEC;}
	.st1{fill:#4C93B7;}
	.st2{fill:#C1DCEA;}
</style>
<g id="XMLID_1143_">
	<path id="XMLID_1144_" class="st0" d="M128.2,250.1c0,0-0.4-8.9-1.6-14.9s-2.1-10.1-2.9-13.1s-2.9-18.9-3.2-24.5s0.5-22.9,3-30.6
		c0,0,15.6,2.8,33.6-0.5c0,0,3.8,4.6,6,19.6s5.2,37,5.8,39.8s4.8,20.9,4.8,20.9l0.8,2.1l-4.4,3.8l-7.1-1c0,0-3.1-11.1-3.8-13.4
		s-3.4-9.9-4.1-11.1s-1.4-2.9-1.1-4.1c0,0-4.8-8.5-6-11.9s-4.2-10-5.2-11.2c0,0-2.6,14.2-2.5,20.9s-0.9,6.8-0.9,6.8s0.9,1,0.4,5.1
		s-0.6,17.2-0.4,19.2l-4.2,2.4l-5.4-0.8L128.2,250.1z"/>
	<g id="XMLID_1147_">
		<g id="XMLID_1182_">
			<path id="XMLID_1183_" class="st1" d="M132.4,189.5c1.5,0.4,3,0.9,4.5,1.5c5.8,2.1,6.1,3.3,6.1,3.3c-0.1,0-5.3-2.6-10.2-4
				c-0.9-0.3-5.2-1.5-5.2-1.5S129.9,188.8,132.4,189.5z"/>
		</g>
		<g id="XMLID_1180_">
			<path id="XMLID_1181_" class="st1" d="M142.5,200.3c-1.3-2.9-3.5-6.9-3.8-7.5c-1.7-2.2,0.4-0.7,0.4-0.6c0,0.1,2,3.9,3.6,7.6
				L142.5,200.3z"/>
		</g>
		<g id="XMLID_1178_">
			<path id="XMLID_1179_" class="st1" d="M135.1,181.6c-0.3-4.3-0.5-9.4,0.3-13.8l0.5,0.1c-1.6,9.2,0.8,22.1,0.8,22.2
				C136.7,190.2,135.5,186.5,135.1,181.6z"/>
		</g>
		<g id="XMLID_1176_">
			<path id="XMLID_1177_" class="st1" d="M131.5,175.5c0-2.5,0-5.2,0.7-7.7l0.3,0c-1.4,5.3-0.4,12.7-0.4,12.8
				C132.1,180.5,131.5,178.3,131.5,175.5z"/>
		</g>
		<g id="XMLID_1174_">
			<path id="XMLID_1175_" class="st1" d="M136.4,170.8c-2.6,0-4.7,0-6.5-0.1c-6.1-0.3-6.9-1.3-6.9-1.3c0,0,3.4,0.9,13.3,0.8
				c10-0.1,18.1-2.6,18.2-2.7c0,0-4,2.2-12.8,3C139.7,170.7,138.7,170.8,136.4,170.8z"/>
		</g>
		<g id="XMLID_1172_">
			<path id="XMLID_1173_" class="st1" d="M157.1,181.4c-4.3-1.6-8.2-9.4-8.7-12l0.8-0.1c0,0.1,1.6,6,6.7,10.5c1,0.8,3,1.7,4.2,1.5
				C160.1,181.3,159.1,182.1,157.1,181.4z"/>
		</g>
		<g id="XMLID_1170_">
			<path id="XMLID_1171_" class="st1" d="M122.2,180.2L122.2,180.2c0.1,0,4.7-3.7,5.5-9.8l0.6,0.2
				C127.4,177.3,122.2,180.2,122.2,180.2z"/>
		</g>
		<g id="XMLID_1168_">
			<path id="XMLID_1169_" class="st1" d="M149.8,182.3C149.8,182.3,149.9,182.3,149.8,182.3c0.1,0.1-3.2,2.9-6.7,4.5
				c-1.5,0.7-4.7,1.1-4.7,1c0-0.1,2.6-0.5,3.8-1C145.9,185.4,149.7,182.3,149.8,182.3z"/>
		</g>
		<g id="XMLID_1166_">
			<path id="XMLID_1167_" class="st1" d="M136.1,189.1c0,0.2-1.9-0.5-3.8-2.2c-0.9-0.8-3.2-3.7-3.2-3.8c0.1-0.1,1.6,1.9,3.5,3.5
				C134.4,188.1,136.1,189,136.1,189.1z"/>
		</g>
		<g id="XMLID_1164_">
			<path id="XMLID_1165_" class="st1" d="M137.1,226.6c-0.1,0,0.8-23.2,3.8-29.4c0.1-0.1,0.2-0.1,0.3-0.1c0.1,0.1,0.3,0.5,0.2,0.6
				c-2.2,4.6-3.2,17.4-3.5,23.2C137.7,224.4,137.1,226.6,137.1,226.6z"/>
		</g>
		<g id="XMLID_1148_">
			<path id="XMLID_1186_" class="st1" d="M137.9,230.7c-0.4,0.1-0.6,0.9-0.6,1.2c-0.4,7.1,0.8,17.1,0.8,17.1c0,0,0.3-1.8,0.1-4.3
				C138,241.5,137.4,235.2,137.9,230.7z"/>
		</g>
		<g id="XMLID_1160_">
			<path id="XMLID_1161_" class="st1" d="M163.5,230.1c0-0.1,1.1-5.1,1.4-8.5c0.1-0.6,0.2-2.3,0.4-2.3c0.1,0,0.1,0.5,0.1,0.6
				c0,1.3-0.2,3.2-0.5,5C164.4,227.7,163.4,230.3,163.5,230.1z"/>
		</g>
		<g id="XMLID_1152_">
			<path id="XMLID_1153_" class="st1" d="M148,189.2c-0.1,0-4.3,0.6-7.1,0.5c-0.5,0-1.9,0-1.9,0.1c0,0.1,0.4,0.2,0.5,0.2
				c1,0.2,2.6,0.1,4.1,0C145.8,190,148.1,189.2,148,189.2z"/>
		</g>
	</g>
	<path id="XMLID_1154_" class="st2" d="M128.2,250.1c-0.5-0.6-1.1,0.9-1.1,1.4s0.8,1.6,0.8,1.6s-0.8,1.8-0.8,2.3s0.9,2.2,1.6,2.7
		s6.8,1.1,10.2-0.3s1.1-4.1,1-4.4s0.4-1.3,0.4-1.9s-0.7-1.7-1.1-1.8c0,0,0.3,1.8-3.8,2.1S129.2,251.2,128.2,250.1z"/>
	<path id="XMLID_1156_" class="st2" d="M162.3,249.8c0,0-0.9,0.5-0.8,1.6s0.7,2.1,1.7,2.8c0,0-0.9,0.9-0.6,2.9s3.6,2.1,5.2,1.9
		s5.9-1.1,8.1-2.6s1.3-2.9,1.2-3.4c0,0-0.6-2.1-1.5-2c0,0,0.6-0.9,0.3-1.8s-0.8-2.6-2.2-2.5c0,0-0.2,2-5.4,3.5
		S162.3,249.8,162.3,249.8z"/>
</g>
</svg>
