<?xml version="1.0" encoding="utf-8"?>
<!-- Generator: Adobe Illustrator 19.0.0, SVG Export Plug-In . SVG Version: 6.00 Build 0)  -->
<svg version="1.1" id="Camada_1" xmlns="http://www.w3.org/2000/svg" xmlns:xlink="http://www.w3.org/1999/xlink" x="0px" y="0px"
	 viewBox="0 0 297.6 425.2" style="enable-background:new 0 0 297.6 425.2;" xml:space="preserve">
<style type="text/css">
	.st0{fill:#9CCCEB;}
	.st1{fill:#4B92B7;}
	.st2{fill:#C0DBEA;}
</style>
<g id="XMLID_1143_">
	<path id="XMLID_1144_" class="st0" d="M140.4,298.3c0,0-0.4-8.9-1.6-14.9s-2.1-10.1-2.9-13.1s-2.9-18.9-3.2-24.5s0.5-22.9,3-30.6
		c0,0,15.6,2.8,33.6-0.5c0,0,3.8,4.6,6,19.6s5.2,37,5.8,39.8s4.8,20.9,4.8,20.9l0.8,2.1l-4.4,3.8l-7.1-1c0,0-3.1-11.1-3.8-13.4
		s-3.4-9.9-4.1-11.1s-1.4-2.9-1.1-4.1c0,0-4.8-8.5-6-11.9c-1.2-3.4-4.2-10-5.2-11.3c0,0-2.6,14.3-2.5,20.9s-0.9,6.8-0.9,6.8
		s0.9,1,0.4,5.1s-0.6,17.2-0.4,19.2l-4.2,2.4l-5.4-0.8L140.4,298.3z"/>
	<g id="XMLID_1147_">
		<g id="XMLID_1182_">
			<path id="XMLID_1183_" class="st1" d="M144.5,237.6c1.5,0.4,3,0.9,4.5,1.5c5.8,2.1,6.1,3.3,6.1,3.3c-0.1,0-5.3-2.6-10.2-4
				c-0.9-0.3-5.2-1.5-5.2-1.5S142.1,236.9,144.5,237.6z"/>
		</g>
		<g id="XMLID_1180_">
			<path id="XMLID_1181_" class="st1" d="M154.7,248.5c-1.3-2.9-3.5-6.9-3.8-7.5c-1.7-2.2,0.4-0.7,0.4-0.6c0,0.1,2,3.9,3.6,7.6
				L154.7,248.5z"/>
		</g>
		<g id="XMLID_1178_">
			<path id="XMLID_1179_" class="st1" d="M147.3,229.8c-0.3-4.3-0.5-9.4,0.3-13.8l0.5,0.1c-1.6,9.2,0.8,22.1,0.8,22.2
				C148.9,238.4,147.7,234.7,147.3,229.8z"/>
		</g>
		<g id="XMLID_1176_">
			<path id="XMLID_1177_" class="st1" d="M143.6,223.6c0-2.5,0-5.2,0.7-7.7l0.3,0c-1.4,5.3-0.4,12.7-0.4,12.8
				C144.3,228.7,143.7,226.5,143.6,223.6z"/>
		</g>
		<g id="XMLID_1174_">
			<path id="XMLID_1175_" class="st1" d="M148.5,219c-2.6,0-4.7,0-6.5-0.1c-6.1-0.3-6.9-1.3-6.9-1.3c0,0,3.4,0.9,13.3,0.8
				c10-0.1,18.1-2.6,18.2-2.7c0,0-4,2.2-12.8,3C151.8,218.9,150.8,218.9,148.5,219z"/>
		</g>
		<g id="XMLID_1172_">
			<path id="XMLID_1173_" class="st1" d="M169.2,229.5c-4.3-1.6-8.2-9.4-8.7-12l0.8-0.1c0,0.1,1.6,6,6.7,10.5c1,0.8,3,1.7,4.2,1.5
				C172.2,229.4,171.3,230.3,169.2,229.5z"/>
		</g>
		<g id="XMLID_1170_">
			<path id="XMLID_1171_" class="st1" d="M134.3,228.3L134.3,228.3c0.1,0,4.7-3.7,5.5-9.8l0.6,0.2
				C139.5,225.4,134.3,228.3,134.3,228.3z"/>
		</g>
		<g id="XMLID_1168_">
			<path id="XMLID_1169_" class="st1" d="M161.9,230.5C162,230.5,162,230.5,161.9,230.5c0.1,0.1-3.2,2.9-6.7,4.5
				c-1.5,0.7-4.7,1.1-4.7,1c0-0.1,2.6-0.5,3.8-1C158.1,233.5,161.9,230.4,161.9,230.5z"/>
		</g>
		<g id="XMLID_1166_">
			<path id="XMLID_1167_" class="st1" d="M148.2,237.2c0,0.2-1.9-0.5-3.8-2.2c-0.9-0.8-3.2-3.7-3.2-3.8c0.1-0.1,1.6,1.9,3.5,3.5
				C146.6,236.3,148.2,237.1,148.2,237.2z"/>
		</g>
		<g id="XMLID_1164_">
			<path id="XMLID_1165_" class="st1" d="M149.3,274.8c-0.1,0,0.8-23.2,3.8-29.4c0.1-0.1,0.2-0.1,0.3-0.1s0.3,0.5,0.2,0.6
				c-2.2,4.6-3.2,17.4-3.5,23.2C149.9,272.5,149.3,274.8,149.3,274.8z"/>
		</g>
		<g id="XMLID_1148_">
			<path id="XMLID_1186_" class="st1" d="M150,278.8c-0.4,0.1-0.6,0.9-0.6,1.2c-0.4,7.1,0.8,17.1,0.8,17.1c0,0,0.3-1.8,0.1-4.3
				C150.1,289.6,149.6,283.3,150,278.8z"/>
		</g>
		<g id="XMLID_1160_">
			<path id="XMLID_1161_" class="st1" d="M175.6,278.2c0-0.1,1.1-5.1,1.4-8.5c0.1-0.6,0.2-2.3,0.4-2.3c0.1,0,0.1,0.5,0.1,0.6
				c0,1.3-0.2,3.2-0.5,5C176.6,275.8,175.6,278.4,175.6,278.2z"/>
		</g>
		<g id="XMLID_1152_">
			<path id="XMLID_1153_" class="st1" d="M160.1,237.4c-0.1,0-4.3,0.6-7.1,0.5c-0.5,0-1.9,0-1.9,0.1c0,0.1,0.4,0.2,0.5,0.2
				c1,0.2,2.6,0.1,4.1,0C158,238.1,160.3,237.4,160.1,237.4z"/>
		</g>
	</g>
	<path id="XMLID_1154_" class="st2" d="M140.4,298.3c-0.5-0.6-1.1,0.9-1.1,1.4s0.8,1.6,0.8,1.6s-0.8,1.8-0.8,2.3s0.9,2.2,1.6,2.7
		s6.8,1.1,10.2-0.3s1.1-4.1,1-4.4s0.4-1.3,0.4-1.9s-0.7-1.7-1.1-1.8c0,0,0.3,1.8-3.8,2.1S141.3,299.4,140.4,298.3z"/>
	<path id="XMLID_1156_" class="st2" d="M174.4,297.9c0,0-0.9,0.5-0.8,1.6s0.7,2.1,1.7,2.8c0,0-0.9,0.9-0.6,2.9s3.6,2.1,5.2,1.9
		s5.9-1.1,8.1-2.6s1.3-2.9,1.2-3.4c0,0-0.6-2.1-1.5-2c0,0,0.6-0.9,0.3-1.8s-0.8-2.6-2.2-2.5c0,0-0.2,2-5.4,3.5
		C175.3,299.8,174.4,297.9,174.4,297.9z"/>
</g>
</svg>
