<?xml version="1.0" encoding="utf-8"?>
<!-- Generator: Adobe Illustrator 19.0.0, SVG Export Plug-In . SVG Version: 6.00 Build 0)  -->
<svg version="1.1" id="Camada_1" xmlns="http://www.w3.org/2000/svg" xmlns:xlink="http://www.w3.org/1999/xlink" x="0px" y="0px"
	 viewBox="0 0 297.6 425.2" style="enable-background:new 0 0 297.6 425.2;" xml:space="preserve">
<style type="text/css">
	.st0{fill:#F2BDD7;}
	.st1{fill:#F49BC2;}
	.st2{fill:#DD7CAB;}
</style>
<g id="XMLID_1158_">
	<path id="XMLID_1159_" class="st0" d="M118.7,225.9c-0.2,1.2-0.5,7.2,0.5,9.2c1,2.1,3,0.1,3.7-0.1c0.7-0.2,0.7-0.2,0.7-0.2
		s0.6,3.2,2.8,2.8c2.2-0.4,4.7-3.2,10.2-2.2c5.6,1,4.6,2.4,8.5,3.2c3.9,0.8,7.8-1.5,11.1-2.5c3.3-1,6.2-0.2,10.7,0.2
		s8.4-0.2,9.7-3.5c0,0,3.2-0.6,4.5-2.5c1.2-1.9,0.9-5.4-0.8-7.7l-6.9,3.5l-5.5-0.5l-10.1,3.5l-9.8-2.5l-13.1,2.9l-7.1-3.7
		L118.7,225.9z"/>
	<path id="XMLID_1162_" class="st1" d="M130.3,188.5c0,0-11.6,18-13.6,26.4c-2,8.4-1.3,13.5-0.1,14.6s4.7-0.8,4.7-0.8
		s-0.1,1.8,0.8,2.4c0.8,0.6,2.4,0,4.2-0.8c1.8-0.8,3.3-0.9,4.8,0.4c1.4,1.3,2.9,3,6.8,2.3c3.9-0.7,7.4-3.2,10.7-3.2
		c3.2,0.1,5.2,2.6,7.1,3.3s3.8-0.4,6.1-2.1c2.2-1.7,5.5-2.8,8.8-2.2c3.3,0.7,5,0.9,7.1-0.6c0,0,0.4-0.7,0.6-1
		c0.2-0.3,1.4,0.2,3.3-1.6c1.9-1.8,0.8-8.8-1.8-13.1c-1.8-3.2-17.5-26-17.5-26s-7,4.3-17.4,4.2S130.3,188.5,130.3,188.5z"/>
	<g id="XMLID_1163_">
		<path id="XMLID_1196_" class="st2" d="M121.4,224.1c0,0,0-17.7,6.9-32.4c0.2-0.4,1.8-2.4,1.8-2.4
			C124.2,199.8,121.4,224.1,121.4,224.1z"/>
	</g>
	<g id="XMLID_1184_">
		<path id="XMLID_1197_" class="st2" d="M128.4,206.7c0.3-2,0.8-4.8,1.5-7.7c1.7-6.9,3.8-9.2,3.8-9.2c-2.8,5.7-4.5,15.1-5.1,20.9
			c-0.6,6.2-0.3,12.8-0.3,12.8S127.3,214.9,128.4,206.7z"/>
	</g>
	<g id="XMLID_1185_">
		<path id="XMLID_1195_" class="st2" d="M135,213.9c0,0-0.3-6.8,0.7-13.7c0.5-3.7,1-7.5,1.9-9.7c0-0.1,0.8,0.1,0.8,0.1
			c-1.1,2.4-1.9,7.2-2.3,11.7C135.7,207,135,213.9,135,213.9z"/>
	</g>
	<g id="XMLID_1187_">
		<path id="XMLID_1194_" class="st2" d="M145.8,225.8c0,0-0.5-10.4-0.7-19.9c-0.2-6.1,0-14.6,0-14.6c0.6,3.1,0.6,10.4,0.7,17.8
			C146,217.2,145.8,225.8,145.8,225.8z"/>
	</g>
	<g id="XMLID_1188_">
		<path id="XMLID_1193_" class="st2" d="M153.1,204.2c0,0-0.2-3.8-0.9-8.3c-0.2-1.7-0.6-3.5-1.1-5.3l0.6-0.1c0.6,2,0.9,3.1,1.1,5
			C153.4,199.6,153.1,204.2,153.1,204.2z"/>
	</g>
	<g id="XMLID_1189_">
		<path id="XMLID_1192_" class="st2" d="M159.7,213.3c0,0-0.6-14.4-4.1-23.7l0.9-0.3C160,198.8,159.7,213.2,159.7,213.3z"/>
	</g>
	<g id="XMLID_1190_">
		<path id="XMLID_1191_" class="st2" d="M167.2,224.2c0.1-8-3.5-19.6-3.6-19.7c0,0,1.2,3.3,2.7,8.1
			C168,218.3,167.2,224.2,167.2,224.2z"/>
	</g>
</g>
</svg>
