<?xml version="1.0" encoding="utf-8"?>
<!-- Generator: Adobe Illustrator 19.0.0, SVG Export Plug-In . SVG Version: 6.00 Build 0)  -->
<svg version="1.1" id="Camada_1" xmlns="http://www.w3.org/2000/svg" xmlns:xlink="http://www.w3.org/1999/xlink" x="0px" y="0px"
	 viewBox="0 0 297.6 425.2" style="enable-background:new 0 0 297.6 425.2;" xml:space="preserve">
<style type="text/css">
	.st0{fill:#8EC2E9;}
	.st1{fill:#494789;}
</style>
<g id="XMLID_1082_">
	<path id="XMLID_1083_" class="st0" d="M136.5,214.8c0,0-4.6,16.2-4.4,24s1.9,19.4,2.1,20.6s0.6,9.6,2,14.8s2.6,16.2,2.9,17.9
		s1.2,6.4,1,7.5s-0.6,2.4,0.9,3c0,0-1.1,2.2-1,3.4s3.1,2.9,6.9,2.5s5-1.8,5.4-2.8s0.5-2.6,0.2-3.4s-1.2-0.9-1.2-0.9s1.4-1.6,1.2-3.2
		s-0.9-6.5-0.2-9.2s1.6-7.6,1.1-9.9s-1.2-4.8-1.2-4.8s2.1-1.9-0.5-4.7c0,0,1.3-1.3,1.5-2.1s-0.8-12,2.1-17.6c0,0,6.9,14.1,7.6,16.1
		s0.4,4.2,1.6,5.8s2.4,1.4,2.9,6.5s3,11.8,4.6,14.6s3.4,7.6,3.5,10.4s1.9,3.1,1.9,3.1s-1.2,1.1-0.2,2.2s5.4,1.5,9.6-0.6
		s3.2-4.6,1.9-5.8c0,0,0.2-1.9-0.4-2.9s-3.2-4-3.6-5.4s-1.5-10.6-2.2-13.6s-2.1-5.6-2.1-5.6s0.6-3.4-0.2-6.1s-1.5-7.9-1.9-11.4
		c-0.4-3.5-2.6-17.6-2.6-20s-1.2-11.2-2.4-14.8s-5.1-9.6-5.1-9.6S157.2,217.1,136.5,214.8z"/>
	<g id="XMLID_1084_">
		<g id="XMLID_1103_">
			<path id="XMLID_1104_" class="st1" d="M150.5,241.4c-1.5-0.3-3.1-0.7-4.6-1.1c-5.9-1.7-6.3-2.8-6.3-2.8c0.1,0,5.4,2.2,10.4,3.2
				c0.9,0.2,5.3,1.1,5.3,1.1S153,241.9,150.5,241.4z"/>
		</g>
		<g id="XMLID_1101_">
			<path id="XMLID_1102_" class="st1" d="M155,250.2c-1.4-3.9-3.5-7.6-3.8-8.2c-1.7,1.6-2.6,2.1-4.3,2.8c-3.4,1.3-5.2,1.1-5.2,1.1
				c0.1,0,5.5-0.7,9.4-4.7c0.1-0.1,0.2-0.1,0.3-0.1c0.1,0,0.2,0.1,0.2,0.2c0,0.1,2.5,4.8,3.6,8.5L155,250.2z"/>
		</g>
		<g id="XMLID_1099_">
			<path id="XMLID_1100_" class="st1" d="M149.1,230.1c-0.4-4.3-0.5-9.4,0.4-13.8l0.6,0.1c-2,9.2,0.9,22.1,0.9,22.2
				C151,238.7,149.6,235,149.1,230.1z"/>
		</g>
		<g id="XMLID_1085_">
			<path id="XMLID_1086_" class="st1" d="M146.3,229.1c-0.4-3.3-0.7-6.9,0.3-10.3l0.5,0c-2,7.1,1.1,16.9,1.1,17
				C148.3,235.7,146.8,232.9,146.3,229.1z"/>
		</g>
		<g id="XMLID_1095_">
			<path id="XMLID_1096_" class="st1" d="M150,219.2c-2.6,0-4.7,0-6.5-0.1c-6.1-0.3-6.9-1.3-6.9-1.3c0,0,3.4,0.9,13.3,0.8
				c10-0.1,18.1-2.6,18.2-2.7c0,0-4,2.2-12.8,3C153.3,219.1,152.3,219.2,150,219.2z"/>
		</g>
		<g id="XMLID_1093_">
			<path id="XMLID_1094_" class="st1" d="M169.1,226.5c-4.6-1.3-7.4-8.3-7.5-8.6l0.6-0.2c0,0.1,2.5,5.5,6.1,7.7
				c1.1,0.6,2.2,1,3.5,0.8C171.7,226.2,171.2,227.1,169.1,226.5z"/>
		</g>
		<g id="XMLID_1091_">
			<path id="XMLID_1092_" class="st1" d="M134.5,224l0.1,0.3L134.5,224c0.1,0,3.1-1.5,3.9-5.6l0.6,0.1
				C138.1,223,134.5,224,134.5,224z"/>
		</g>
		<g id="XMLID_1087_">
			<path id="XMLID_1113_" class="st1" d="M153.8,238c0,0-0.1,0-0.1,0c-0.1,0,2.2-3.7,5-6.4c1.2-1.2,4.1-2.5,4.2-2.4
				c0,0.1-2.3,1.3-3.3,2.1C156.5,233.9,153.8,238,153.8,238z"/>
		</g>
		<g id="XMLID_1088_">
			<path id="XMLID_1112_" class="st1" d="M155,240.1c-0.1-0.1,0.8-1.2,2.2-1.9c0.7-0.3,2.7-0.6,2.7-0.4c0,0.1-1.4,0.3-2.6,0.9
				C156,239.3,155.1,240.1,155,240.1z"/>
		</g>
		<g id="XMLID_1089_">
			<path id="XMLID_1111_" class="st1" d="M151.7,268.3c-0.1,0-0.5-15.2,2.4-20.7c0.1-0.1,0.2-0.1,0.3-0.1s0.1,0.2,0.1,0.3
				C151.5,253.2,151.8,268.3,151.7,268.3C151.7,268.3,151.7,268.3,151.7,268.3z"/>
		</g>
		<g id="XMLID_1090_">
			<path id="XMLID_1110_" class="st1" d="M141.6,277.3c0,0,1.7,0.2,3.7-1.6c1.4-1.3,2.4-3.1,2.5-3c0.1,0.1-1,2-1.6,2.6
				c-0.7,0.8-1.4,1.3-2,1.7C142.5,277.9,141.5,277.2,141.6,277.3z"/>
		</g>
		<g id="XMLID_1097_">
			<path id="XMLID_1109_" class="st1" d="M176.2,281.7c0,0,2-3.1,3-5.2c0.2-0.4,0.7-1.4,0.8-1.4c0.1,0,0,0.3,0,0.4
				c-0.2,0.8-0.8,2-1.4,3.1C177.6,280.3,176.1,281.8,176.2,281.7z"/>
		</g>
		<g id="XMLID_1098_">
			<path id="XMLID_1108_" class="st1" d="M147.5,300.8c-1.2-0.8-2.1-2.2-2.9-3.4c-0.9-1.5-1.5-3.2-1.4-3.3c0.1,0,0.8,1.3,1.5,2.7
				c0.6,1,1.3,2.1,2.1,2.9c0.5,0.5,1,0.9,1.5,1.2c0.3,0.2,0.7,0.3,1,0.3c0,0,0,0,0,0C149.4,301.3,148.3,301.4,147.5,300.8z"/>
		</g>
		<g id="XMLID_1105_">
			<path id="XMLID_1107_" class="st1" d="M176.8,296.2c-1.4-1.8-2.7-3.7-2.6-3.8c0.1-0.1,1.6,2,3.2,3.9c1.2,1.4,2.6,2.7,3.7,3.2
				C181.2,299.6,179,299.1,176.8,296.2z"/>
		</g>
		<g id="XMLID_1106_">
			<path id="XMLID_1114_" class="st1" d="M179.6,305.3c2.7-1.1,3.9-3.8,4.4-5.8c0.4-1.6,0.5-3.2,0.6-3.2s0.2,2.8-1,5.3
				c-0.5,1-1.1,2.1-2.1,2.9C180.4,305.4,179.5,305.3,179.6,305.3z"/>
		</g>
	</g>
</g>
</svg>
