<?xml version="1.0" encoding="utf-8"?>
<!-- Generator: Adobe Illustrator 19.0.0, SVG Export Plug-In . SVG Version: 6.00 Build 0)  -->
<svg version="1.1" id="Camada_1" xmlns="http://www.w3.org/2000/svg" xmlns:xlink="http://www.w3.org/1999/xlink" x="0px" y="0px"
	 viewBox="0 0 297.6 425.2" style="enable-background:new 0 0 297.6 425.2;" xml:space="preserve">
<style type="text/css">
	.st0{fill:#9DCDEC;}
	.st1{fill:#4C93B7;}
	.st2{fill:#C1DCEA;}
</style>
<g id="XMLID_1814_">
	<path id="XMLID_1798_" class="st0" d="M179.6,173c0,0,2.6,3.6,3.4,7.1s0.9,12.1-3.1,17.8s-13.4,9.1-18.2,10.9
		c-4.5,1.6-11.4,3.1-12.5,4.3c-0.5,0.5,0.9,0.4,0.5,1.7c-0.2,1-0.9,0.9-0.4,1.8s0.7,4.6,0.8,5.9c0.2,2.5-1.4,5.8-1.4,6.8
		s0.2,4.8,0.3,6.8c0.1,2.2-1.2,4.6-2.1,6.2l1.6,3.9l-11,0.6c0,0-2.6-4.5-3.1-6.1c0.5-13.5-2.3-31.9-2.3-33.8c0,0-0.9,0.6-1.5,0.8
		c0,0,0.5,0.8-0.2,2.3c0.4,2.8,1,5,1,7c-0.1,2.5-0.9,4.1-1.4,6s0.3,5.1,0.2,6.7c-0.1,1.3-0.5,4.8-2.7,8.3c0,0-11.2,0.6-11.5-4.1
		c0.3-9.1-1.3-20.8-1.9-27.5s-0.1-8.3,2.9-10.5s17.6-11,23.2-13.5s7.1-3.6,7.2-4.6s0.5-3.8,0.5-3.8s6.2,2.1,12.8,2.2
		S174.8,175.6,179.6,173z"/>
	<g id="XMLID_1811_">
		<g id="XMLID_1886_">
			<g id="XMLID_1853_">
				<path id="XMLID_1810_" class="st1" d="M150.8,191c-3.3,1.4-6.7,3-8.8,4.4c-3.1,2.1-8.6,5.9-9.9,8.7c-0.5,1-0.4,1.7-0.4,3.1
					c0.2-0.6,0.2-1.7,0.7-2.7c0.9-1.9,4.7-5.1,10-8.5c2.5-1.7,6.9-3.6,10.8-5.2c2.5-1,6.6-2.4,6.5-2.6
					C159.7,188.1,154.1,189.7,150.8,191z"/>
			</g>
			<g id="XMLID_1855_">
				<path id="XMLID_1882_" class="st1" d="M153.7,207.2c2.1-0.9,5-1.9,7.8-2.9c3.6-1.2,6.9-2.4,8.6-3.4c2.1-1.3,7.2-5,8.6-11.5
					c1.3-5.9-0.8-11.8-0.8-11.8c0-0.1,0-0.3,0.2-0.3c0.1,0,0.3,0,0.3,0.2c0,0.1,2.1,6.1,0.8,12.1c-1.5,6.6-6.7,10.4-8.9,11.8
					c-1.7,1-5.1,2.2-8.7,3.5c-2.8,1-5.6,2.1-7.7,2.9c-3.1,1.2-7.1,3.7-6.7,3.2C147.4,210.6,150.2,208.6,153.7,207.2z"/>
			</g>
			<g id="XMLID_1857_">
				<path id="XMLID_1812_" class="st1" d="M133.5,202.7c-1.6,0.2-3.3,1-4.2,2.1c-0.1,0.1,1.6-1.2,3.7-1.6
					C133.4,203.2,133.7,202.7,133.5,202.7z"/>
			</g>
			<g id="XMLID_1865_">
				<g id="XMLID_1859_">
					<path id="XMLID_1878_" class="st1" d="M151.1,191.4c-0.1,0-0.2,0.1-0.2,0c-0.9-0.7-1.4-1.7-1.7-2.6c-0.4-1-0.5-2.2-0.3-2.2
						c0.1,0,0.7,3,2.4,4.3c0.1,0.1,0.1,0.2,0.1,0.3C151.3,191.3,151.2,191.4,151.1,191.4z"/>
				</g>
				<g id="XMLID_1885_">
					<path id="XMLID_1891_" class="st1" d="M148.8,192.3c-0.4-0.9-0.6-1.7-0.6-1.7c-0.1,0-0.1,0.9,0.2,1.8
						C148.4,192.5,148.9,192.7,148.8,192.3z"/>
				</g>
			</g>
			<g id="XMLID_1860_">
				<path id="XMLID_1877_" class="st1" d="M138.2,238.2c0-0.1,4.1-1.9,7.5-6c0.6-0.8,2-2.8,2.1-2.7c0.1,0.1-1.2,2.4-1.9,3.2
					c-0.6,0.8-1.3,1.5-2,2.1C141.1,237.3,138.2,238.3,138.2,238.2z"/>
			</g>
			<g id="XMLID_1807_">
				<path id="XMLID_1875_" class="st1" d="M164.3,180.6c-8.8,0-15.4-2.9-15.5-2.9c-0.1-0.1-0.2-0.2-0.1-0.3c0.1-0.1,0.2-0.2,0.3-0.1
					c0.1,0,7.3,3.2,16.7,2.8c9.4-0.3,14.1-2.9,14.2-2.9c0.1-0.1,0.3,0,0.3,0.1c0.1,0.1,0,0.3-0.1,0.3c-0.2,0.1-4.9,2.6-14.4,2.9
					C165.3,180.6,164.8,180.6,164.3,180.6z"/>
			</g>
			<g id="XMLID_1863_">
				<path id="XMLID_1874_" class="st1" d="M158.7,186.6C158.7,186.6,158.7,186.6,158.7,186.6c-0.1,0-0.2-5.7,1.3-10.1
					c0-0.1,0.2-0.2,0.3-0.2c0.1,0,0.2,0.2,0.2,0.3C159,181,158.8,186.6,158.7,186.6z"/>
			</g>
			<g id="XMLID_1864_">
				<path id="XMLID_1873_" class="st1" d="M154.6,188.7c-0.1,0-0.5-3.4-0.3-4.4c0-0.2,0.1-0.5,0.3-0.8c0.3-1,0.8-2.5,0.6-3.9
					c-0.4-1.9,0.2-3.3,0.3-3.4c0.1-0.1,0.2-0.2,0.3-0.1c0.1,0.1,0.2,0.2,0.1,0.3c0,0-0.6,1.3-0.2,3.1c0.3,1.5-0.3,3.1-0.6,4.1
					c-0.1,0.3-0.2,0.6-0.2,0.8C154.4,186,154.8,188.6,154.6,188.7C154.6,188.7,154.6,188.7,154.6,188.7z"/>
			</g>
			<g id="XMLID_1862_">
				<path id="XMLID_1872_" class="st1" d="M147.7,183.8c-0.3,0-0.9-0.2-1.2-0.4c-2.8-1.1-5.1-0.6-5.2-0.7s1.7-0.6,3.7-0.2
					c0.6,0.1,1.3,0.3,2,0.6c0.5,0.2,0.9,0.2,1.3,0c1.7-0.9,2.5-4.8,2.5-4.8c0-0.1,0.1-0.2,0.3-0.2c0.1,0,0.2,0.2,0.2,0.3
					c0,0.2-0.8,4.1-2.7,5.2C148.3,183.7,148,183.8,147.7,183.8z"/>
			</g>
			<g id="XMLID_1866_">
				<path id="XMLID_1871_" class="st1" d="M178.6,189.5C178.5,189.5,178.5,189.5,178.6,189.5c-9.8-3.3-9.2-9.2-9.1-9.5
					c0-0.1,0.1-0.2,0.3-0.2c0.1,0,0.2,0.1,0.2,0.3c0,0-0.2,1.5,0.8,3.3c0.9,1.7,3,4,7.9,5.7c0.1,0,0.2,0.2,0.2,0.3
					C178.8,189.5,178.7,189.5,178.6,189.5z"/>
			</g>
			<g id="XMLID_1867_">
				<path id="XMLID_1870_" class="st1" d="M178.3,196.6c-0.1,0-0.4-0.9-1.4-2.1c-1.5-2-3.7-3-3.7-3.1c0.1-0.1,2.9,1.2,4.1,3
					C178,195.1,178.3,196.6,178.3,196.6z"/>
			</g>
			<g id="XMLID_1868_">
				<path id="XMLID_1869_" class="st1" d="M179.8,193c-0.1,0-0.8-0.7-1.2-0.9c-1.1-0.6-2.4-0.9-2.4-1c0-0.1,1.2-0.1,2.2,0.3
					C179.5,191.9,179.9,193,179.8,193z"/>
			</g>
		</g>
		<g id="XMLID_1805_">
			<path id="XMLID_1806_" class="st1" d="M143.4,244.2c-0.1-0.9,0.5-2.4,1.4-4.5c0.2-0.4,0.4-0.9,0.5-1.3c0.9-2.2,0.6-3.9,0.2-5.8
				c-0.1-0.4-0.2-0.9-0.2-1.3c-0.4-2.7,0.4-5.1,1-6.6c0.7-1.7,0.8-6.1-0.1-8.2c-0.5-1.1-0.6-1.9-0.6-2.5c0.1-1.4,0.8-1.9,0.8-1.9
				c-0.3,0.7-0.9,1.7,0,3.8c1.4,3,1.1,7.1,0.4,9c-0.6,1.5-1.4,3.7-1,6.3c0.1,0.4,0.1,0.9,0.2,1.3c0.3,1.9,0.7,3.8-0.2,6.1
				c-0.2,0.5-0.4,0.9-0.5,1.3c-0.8,2-1.4,3.6-1.4,4.3L143.4,244.2z"/>
		</g>
		<g id="XMLID_1799_">
			<path id="XMLID_1809_" class="st1" d="M125,239.2c-0.1,0-0.2-0.1-0.2-0.2c-0.1-2.3,0.4-3.3,1.2-5.1c0.2-0.5,0.5-1,0.7-1.7
				c1.1-2.6,0.7-4.5,0.2-6.7l-0.1-0.6c-0.5-2.5,0.1-4.4,1.1-6.9c0.3-0.9,0.5-2.5,0.5-3.8c-0.1-2.5-0.3-3.4-0.3-3.7
				c0-0.1,0.6,2,0.7,3.6c0.1,1.4,0,3-0.4,4c-1,2.4-1.6,4.3-1.1,6.6l0.1,0.6c0.5,2.2,0.9,4.2-0.2,7c-0.3,0.7-0.5,1.2-0.7,1.7
				c-0.8,1.7-1.2,2.7-1.1,4.8C125.3,239.1,125.2,239.2,125,239.2C125,239.2,125,239.2,125,239.2z"/>
		</g>
	</g>
	<path id="XMLID_1808_" class="st2" d="M134.3,239.8c-0.5-0.1-1.6,0.4-1.4,2.9s-0.6,4-0.9,4.7s-0.5,1.4,2.8,3.1s7.2,1.9,9.6,1.8
		s5.1-1.4,5-3.9s-0.8-1.7-0.8-4.1s0.5-3.1-0.7-3.8c0,0-0.2,3.3-6.7,2.3S134.3,239.8,134.3,239.8z"/>
	<path id="XMLID_1813_" class="st2" d="M115.9,233.8c0,0-1.2-0.1-1.1,2.8s-0.9,3.5-1.1,5s3.1,4.1,9,4.7s7.9-2,8.2-3.3
		s-0.8-2.9-0.9-3.8s1.3-3.3-0.7-4.8c0,0,0,3.2-6,2.5S115.9,233.8,115.9,233.8z"/>
</g>
</svg>
