<?xml version="1.0" encoding="utf-8"?>
<!-- Generator: Adobe Illustrator 19.0.0, SVG Export Plug-In . SVG Version: 6.00 Build 0)  -->
<svg version="1.1" id="Camada_1" xmlns="http://www.w3.org/2000/svg" xmlns:xlink="http://www.w3.org/1999/xlink" x="0px" y="0px"
	 viewBox="0 0 297.6 425.2" style="enable-background:new 0 0 297.6 425.2;" xml:space="preserve">
<style type="text/css">
	.st0{fill:#C5954D;}
	.st1{fill:#997034;}
	.st2{fill:#A57A39;}
</style>
<g id="XMLID_1081_">
	<path id="XMLID_1052_" class="st0" d="M123.6,237.1c0,0,0-19.8,0-25.6s1.9-14.1,2.4-15.8s2.2-7.6,2.2-7.8s7.8,1,13.2,0.8
		s13.2-1.6,18.5-3.6c0,0,2,3.3,3,6.8c1,3.4,4.2,13.8,5.2,18.8c1.1,4.9,6.2,21.6,6.3,22.8c0,0-12,6.7-24.8,5.5c0,0-1.9-10.1-3.2-13.4
		c0,0-0.8,9.8-0.1,12.4C146.4,237.9,134.6,241.2,123.6,237.1z"/>
	<g id="XMLID_1053_">
		<g id="XMLID_1062_">
			<path id="XMLID_1077_" class="st1" d="M142.1,214.7c-1.5-0.3-3.1-0.7-4.6-1.1c-5.9-1.7-6.3-2.8-6.3-2.8c0.1,0,5.4,2.2,10.4,3.2
				c0.9,0.2,5.3,1.1,5.3,1.1S144.6,215.2,142.1,214.7z"/>
		</g>
		<g id="XMLID_1063_">
			<path id="XMLID_1076_" class="st1" d="M146.4,226.2c-1.7-5-3.1-9.2-3.6-11c-1.7,1.6-2.6,2.1-4.3,2.8c-3.4,1.3-5.2,1.1-5.2,1.1
				c0.1,0,5.5-0.7,9.4-4.7c0.1-0.1,0.2-0.1,0.3-0.1c0.1,0,0.2,0.1,0.2,0.2c0,0.1,2.2,7.2,3.3,10.9L146.4,226.2z"/>
		</g>
		<g id="XMLID_1064_">
			<path id="XMLID_1075_" class="st1" d="M139.6,203.5c-0.4-4.3-0.5-9.4,0.4-13.8l0.6,0.1c-2,9.2,0.9,22.1,0.9,22.2
				C141.5,212.1,140.1,208.4,139.6,203.5z"/>
		</g>
		<g id="XMLID_1065_">
			<path id="XMLID_1074_" class="st1" d="M132.8,206.5c0.1,0,3.4,0.1,9-1.5c2.9-0.9,6.4-2.2,10.4-4.2c0,0-1.9,2.4-9.7,4.6
				C135,207.5,132.8,206.5,132.8,206.5z"/>
		</g>
		<g id="XMLID_1066_">
			<path id="XMLID_1073_" class="st1" d="M141.5,192.5c-2.6,0-4.7,0-6.5-0.1c-6.1-0.3-6.9-1.3-6.9-1.3c0,0,3.4,0.9,13.3,0.8
				c10-0.1,18.1-2.6,18.2-2.7c0,0-4,2.2-12.8,3C144.8,192.4,143.8,192.5,141.5,192.5z"/>
		</g>
		<g id="XMLID_1067_">
			<path id="XMLID_1072_" class="st1" d="M160.6,199.8c-4.6-1.3-7.4-8.3-7.5-8.6l0.6-0.2c0,0.1,2.5,5.5,6.1,7.7
				c1.1,0.6,2.2,1,3.5,0.8C163.3,199.5,162.8,200.4,160.6,199.8z"/>
		</g>
		<g id="XMLID_1068_">
			<path id="XMLID_1071_" class="st1" d="M126,197.3l0.1,0.3L126,197.3c0.1,0,3.1-1.5,3.9-5.6l0.6,0.1
				C129.6,196.3,126,197.3,126,197.3z"/>
		</g>
		<g id="XMLID_1069_">
			<path id="XMLID_1070_" class="st1" d="M163.3,226.5c-3.1-0.2-4.3-1.4-4.3-1.4s2.4,0.7,4,0.8c1.4,0,3.4-0.2,5.6-1.2
				c1.4-0.6,2.5-1.5,2.5-1.5s-0.4,1.2-2.3,2.1C166.6,226.2,164.7,226.5,163.3,226.5z"/>
		</g>
		<path id="XMLID_1078_" class="st2" d="M157,216.6c0,0-0.2-2.4-0.9-3.7c0,0,8.1-0.9,12.5-2.6c0,0,0.6,0.5,1,3.2
			c0,0-3.1,2.8-3.7,4.4C165.9,217.9,161.9,216.3,157,216.6z"/>
		<g id="XMLID_1079_">
			<path id="XMLID_1080_" class="st1" d="M144.3,238.2c0-0.1-0.7-9.2,0.1-17.9l0.4,0c-0.8,8.6-0.1,17.7-0.1,17.8L144.3,238.2z"/>
		</g>
	</g>
</g>
</svg>
