<?xml version="1.0" encoding="utf-8"?>
<!-- Generator: Adobe Illustrator 19.0.0, SVG Export Plug-In . SVG Version: 6.00 Build 0)  -->
<svg version="1.1" id="Camada_1" xmlns="http://www.w3.org/2000/svg" xmlns:xlink="http://www.w3.org/1999/xlink" x="0px" y="0px"
	 viewBox="0 0 297.6 425.2" style="enable-background:new 0 0 297.6 425.2;" xml:space="preserve">
<style type="text/css">
	.st0{fill:#8FC3E9;}
	.st1{fill:#4A4789;}
</style>
<g id="XMLID_1082_">
	<path id="XMLID_1083_" class="st0" d="M123.3,166.1c0,0-4.6,16.2-4.4,24s1.9,19.4,2.1,20.6s0.6,9.6,2,14.8s2.6,16.2,2.9,17.9
		s1.2,6.4,1,7.5s-0.6,2.4,0.9,3c0,0-1.1,2.2-1,3.4s3.1,2.9,6.9,2.5s5-1.8,5.4-2.8s0.5-2.6,0.2-3.4s-1.2-0.9-1.2-0.9s1.4-1.6,1.2-3.2
		s-0.9-6.5-0.2-9.2s1.6-7.6,1.1-9.9s-1.2-4.8-1.2-4.8s2.1-1.9-0.5-4.7c0,0,1.3-1.3,1.5-2.1s-0.8-12,2.1-17.6c0,0,6.9,14.1,7.6,16.1
		s0.4,4.2,1.6,5.8s2.4,1.4,2.9,6.5s3,11.8,4.6,14.6s3.4,7.6,3.5,10.4s1.9,3.1,1.9,3.1s-1.2,1.1-0.2,2.2s5.4,1.5,9.6-0.6
		s3.2-4.6,1.9-5.8c0,0,0.2-1.9-0.4-2.9s-3.2-4-3.6-5.4s-1.5-10.6-2.2-13.6S167,226,167,226s0.6-3.4-0.2-6.1s-1.5-7.9-1.9-11.4
		s-2.6-17.6-2.6-20s-1.2-11.2-2.4-14.8s-5.1-9.6-5.1-9.6S144,168.4,123.3,166.1z"/>
	<g id="XMLID_1084_">
		<g id="XMLID_1103_">
			<path id="XMLID_1104_" class="st1" d="M137.4,192.7c-1.5-0.3-3.1-0.7-4.6-1.1c-5.9-1.7-6.3-2.8-6.3-2.8c0.1,0,5.4,2.2,10.4,3.2
				c0.9,0.2,5.3,1.1,5.3,1.1S139.9,193.2,137.4,192.7z"/>
		</g>
		<g id="XMLID_1101_">
			<path id="XMLID_1102_" class="st1" d="M141.8,201.5c-1.4-3.9-3.5-7.6-3.8-8.2c-1.7,1.6-2.6,2.1-4.3,2.8c-3.4,1.3-5.2,1.1-5.2,1.1
				c0.1,0,5.5-0.7,9.4-4.7c0.1-0.1,0.2-0.1,0.3-0.1c0.1,0,0.2,0.1,0.2,0.2c0,0.1,2.5,4.8,3.6,8.5L141.8,201.5z"/>
		</g>
		<g id="XMLID_1099_">
			<path id="XMLID_1100_" class="st1" d="M135.9,181.4c-0.4-4.3-0.5-9.4,0.4-13.8l0.6,0.1c-2,9.2,0.9,22.1,0.9,22.2
				C137.8,190,136.4,186.3,135.9,181.4z"/>
		</g>
		<g id="XMLID_1085_">
			<path id="XMLID_1086_" class="st1" d="M133.2,180.4c-0.4-3.3-0.7-6.9,0.3-10.3l0.5,0c-2,7.1,1.1,16.9,1.1,17
				C135.1,187,133.7,184.2,133.2,180.4z"/>
		</g>
		<g id="XMLID_1095_">
			<path id="XMLID_1096_" class="st1" d="M136.8,170.5c-2.6,0-4.7,0-6.5-0.1c-6.1-0.3-6.9-1.3-6.9-1.3c0,0,3.4,0.9,13.3,0.8
				c10-0.1,18.1-2.6,18.2-2.7c0,0-4,2.2-12.8,3C140.1,170.4,139.1,170.5,136.8,170.5z"/>
		</g>
		<g id="XMLID_1093_">
			<path id="XMLID_1094_" class="st1" d="M155.9,177.8c-4.6-1.3-7.4-8.3-7.5-8.6l0.6-0.2c0,0.1,2.5,5.5,6.1,7.7
				c1.1,0.6,2.2,1,3.5,0.8C158.6,177.5,158.1,178.4,155.9,177.8z"/>
		</g>
		<g id="XMLID_1091_">
			<path id="XMLID_1092_" class="st1" d="M121.3,175.3l0.1,0.3L121.3,175.3c0.1,0,3.1-1.5,3.9-5.6l0.6,0.1
				C124.9,174.3,121.3,175.3,121.3,175.3z"/>
		</g>
		<g id="XMLID_1087_">
			<path id="XMLID_1113_" class="st1" d="M140.6,189.3c0,0-0.1,0-0.1,0c-0.1,0,2.2-3.7,5-6.4c1.2-1.2,4.1-2.5,4.2-2.4
				c0,0.1-2.3,1.3-3.3,2.1C143.3,185.2,140.7,189.3,140.6,189.3z"/>
		</g>
		<g id="XMLID_1088_">
			<path id="XMLID_1112_" class="st1" d="M141.9,191.4c-0.1-0.1,0.8-1.2,2.2-1.9c0.7-0.3,2.7-0.6,2.7-0.4c0,0.1-1.4,0.3-2.6,0.9
				C142.8,190.6,141.9,191.4,141.9,191.4z"/>
		</g>
		<g id="XMLID_1089_">
			<path id="XMLID_1111_" class="st1" d="M138.5,219.6c-0.1,0-0.5-15.2,2.4-20.7c0.1-0.1,0.2-0.1,0.3-0.1s0.1,0.2,0.1,0.3
				C138.4,204.5,138.6,219.6,138.5,219.6C138.5,219.6,138.5,219.6,138.5,219.6z"/>
		</g>
		<g id="XMLID_1090_">
			<path id="XMLID_1110_" class="st1" d="M128.4,228.6c0,0,1.7,0.2,3.7-1.6c1.4-1.3,2.4-3.1,2.5-3c0.1,0.1-1,2-1.6,2.6
				c-0.7,0.8-1.4,1.3-2,1.7C129.3,229.2,128.3,228.5,128.4,228.6z"/>
		</g>
		<g id="XMLID_1097_">
			<path id="XMLID_1109_" class="st1" d="M163,233c0,0,2-3.1,3-5.2c0.2-0.4,0.7-1.4,0.8-1.4c0.1,0,0,0.3,0,0.4
				c-0.2,0.8-0.8,2-1.4,3.1C164.4,231.6,162.9,233.1,163,233z"/>
		</g>
		<g id="XMLID_1098_">
			<path id="XMLID_1108_" class="st1" d="M134.3,252.1c-1.2-0.8-2.1-2.2-2.9-3.4c-0.9-1.5-1.5-3.2-1.4-3.3c0.1,0,0.8,1.3,1.5,2.7
				c0.6,1,1.3,2.1,2.1,2.9c0.5,0.5,1,0.9,1.5,1.2c0.3,0.2,0.7,0.3,1,0.3c0,0,0,0,0,0C136.3,252.6,135.1,252.7,134.3,252.1z"/>
		</g>
		<g id="XMLID_1105_">
			<path id="XMLID_1107_" class="st1" d="M163.6,247.5c-1.4-1.8-2.7-3.7-2.6-3.8c0.1-0.1,1.6,2,3.2,3.9c1.2,1.4,2.6,2.7,3.7,3.2
				C168.1,250.9,165.9,250.4,163.6,247.5z"/>
		</g>
		<g id="XMLID_1106_">
			<path id="XMLID_1114_" class="st1" d="M166.4,256.6c2.7-1.1,3.9-3.8,4.4-5.8c0.4-1.6,0.5-3.2,0.6-3.2s0.2,2.8-1,5.3
				c-0.5,1-1.1,2.1-2.1,2.9C167.3,256.7,166.3,256.6,166.4,256.6z"/>
		</g>
	</g>
</g>
</svg>
