<?xml version="1.0" encoding="utf-8"?>
<!-- Generator: Adobe Illustrator 19.0.0, SVG Export Plug-In . SVG Version: 6.00 Build 0)  -->
<svg version="1.1" id="Camada_1" xmlns="http://www.w3.org/2000/svg" xmlns:xlink="http://www.w3.org/1999/xlink" x="0px" y="0px"
	 viewBox="0 0 297.6 425.2" style="enable-background:new 0 0 297.6 425.2;" xml:space="preserve">
<style type="text/css">
	.st0{fill:#8FC3E9;}
	.st1{fill:#4A4789;}
	.st2{fill:#9DCDEC;}
</style>
<g id="XMLID_2395_">
	<path id="XMLID_2434_" class="st0" d="M180.2,172c0,0,2.6,3.6,3.4,7.1s0.9,12.1-3.1,17.8s-13.9,9.4-18.2,11.2s-8.2,3.2-9.2,4.6
		s-1.4,3-2.4,3s-1.4,1.1-0.9,2s1.5,2.9,1.6,4.2s-2,5.4-2,6.4s0.5,5,1,7s0.6,5.1-0.2,6.8l-1,3.2l-11,0.6l-3.9-3.6c0,0-1.1-4.6-1.1-6
		s1.8-7.4,1.8-9.1s-1.2-13.9-1.5-14.9c0,0-1.6,0.5-1.9,0.9c0,0,1.1,3.1,1.4,5.6s-1.2,5.6-1.8,7.5s0.4,4.9,0.8,6.1s-0.6,4.4-1.8,6.6
		l-7.9,1.6l-6.4-2.5c0,0-1.9-5.2-2-7.2s1.2-6.6,1.4-8.1s0.4-10.2-0.2-17s0-9,3-11.1s17.2-10.8,22.9-13.2s7.1-3.6,7.2-4.6
		s0.5-3.8,0.5-3.8s6.2,2.1,12.8,2.2S175.5,174.6,180.2,172z"/>
	<g id="XMLID_2398_">
		<g id="XMLID_2432_">
			<path id="XMLID_2433_" class="st1" d="M133.2,212.2c-0.2,0-0.3-0.1-0.3-0.3c0-0.3-0.1-0.7-0.1-1.1c-0.3-2.1-0.8-5.7,0.1-7.7
				c1.3-2.8,6.7-6.6,9.9-8.7c2.1-1.4,5.5-3,8.8-4.4c3.3-1.4,8.9-3,8.9-2.8c0,0.2-4.1,1.6-6.5,2.6c-3.9,1.5-8.2,3.5-10.8,5.2
				c-5.2,3.4-8.8,6.5-9.6,8.4c-0.8,1.8-0.3,5.4-0.1,7.4c0.1,0.5,0.1,0.9,0.1,1.1C133.6,212.1,133.4,212.2,133.2,212.2
				C133.2,212.2,133.2,212.2,133.2,212.2z"/>
		</g>
		<g id="XMLID_2430_">
			<path id="XMLID_2431_" class="st1" d="M143.8,218.4c-0.1-0.1,0.6-1.7,2.5-2.5c0.9-0.3,2-0.5,3.4-0.4c0.1,0,0.2,0.1,0.2,0.3
				c0,0.1-0.1,0.3-0.3,0.2c-1.3-0.1-2.3,0.1-3.1,0.4C144.8,217.1,143.8,218.4,143.8,218.4z"/>
		</g>
		<g id="XMLID_2428_">
			<path id="XMLID_2429_" class="st1" d="M146.4,214.7c-0.1,0-0.2-0.1-0.2-0.2c0-0.1,0.1-0.3,0.2-0.3c0,0,1.6-0.2,2.1-1.5
				c0-0.1,0.1-0.3,0.1-0.4c0.5-1.5,1.4-4.1,5.8-6.1c2.1-0.9,5-1.9,7.8-2.9c3.6-1.2,6.9-2.4,8.6-3.4c2.1-1.3,7.2-5,8.6-11.5
				c1.3-5.9-0.8-11.8-0.8-11.8c0-0.1,0-0.3,0.2-0.3c0.1,0,0.3,0,0.3,0.2c0,0.1,2.1,6.1,0.8,12.1c-1.5,6.6-6.7,10.4-8.9,11.8
				c-1.7,1-5.1,2.2-8.7,3.5c-2.8,1-5.6,2-7.7,2.9c-4.2,1.9-5,4.2-5.5,5.8c-0.1,0.2-0.1,0.3-0.1,0.4
				C148.3,214.4,146.5,214.7,146.4,214.7C146.4,214.7,146.4,214.7,146.4,214.7z"/>
		</g>
		<g id="XMLID_2426_">
			<path id="XMLID_2427_" class="st1" d="M146.8,243.7c0,0-0.1,0-0.1,0c-0.1-0.1-0.2-0.2-0.1-0.3c1.4-2.6,1.4-6.2,0.1-10.4
				c-1.2-3.9-0.7-6.5,0.5-9.3c0.4-0.9,0.6-2.3,0.4-3.4c-0.2-1.5-0.9-2.8-0.8-2.8c0.1-0.1,1,1.9,1.1,2.6c0.3,1.4,0.2,2.7-0.3,3.8
				c-1.2,2.7-1.7,5.1-0.5,8.9c1.3,4.3,1.3,8-0.2,10.7C146.9,243.7,146.8,243.7,146.8,243.7z"/>
		</g>
		<g id="XMLID_2424_">
			<path id="XMLID_2425_" class="st1" d="M128.5,213.9c-0.1-1.5,0.5-3.1,1.4-3.9c1-0.8,2.2-1.9,2.5-2.4c0.1-0.1,0.2-0.2,0.3-0.1
				c0.1,0.1,0.2,0.2,0.1,0.3c-0.3,0.7-1.9,2.1-2.6,2.6C128.8,211.3,128.5,214,128.5,213.9z"/>
		</g>
		<g id="XMLID_2422_">
			<path id="XMLID_2423_" class="st1" d="M126.7,238.8c-0.1,0-0.1,0-0.2-0.1c-0.1-0.1-0.1-0.2,0-0.4c2.4-3.1,1.6-5.3,0.9-7.5
				c-0.3-1-0.7-1.9-0.7-2.9c0-2.1,0.5-2.9,1.2-3.9c0.4-0.5,0.8-1.1,1.1-2c0.3-0.8,0.5-1.8,0.5-2.5c0-1.5-0.7-2.8-0.5-2.8
				c0.1-0.1,0.9,1.4,0.9,2.9c0,0.8-0.1,1.7-0.5,2.7c-0.4,0.9-0.8,1.5-1.2,2.1c-0.7,1-1.2,1.7-1.1,3.6c0,0.9,0.3,1.8,0.7,2.8
				c0.8,2.2,1.6,4.6-1,7.9C126.8,238.7,126.7,238.8,126.7,238.8z"/>
		</g>
		<g id="XMLID_2417_">
			<g id="XMLID_2420_">
				<path id="XMLID_2421_" class="st1" d="M151.8,190.4c-0.1,0-0.2,0.1-0.2,0c-0.9-0.7-1.4-1.7-1.7-2.6c-0.4-1-0.5-2.2-0.3-2.2
					c0.1,0,0.7,3,2.4,4.3c0.1,0.1,0.1,0.2,0.1,0.3C152,190.3,151.9,190.4,151.8,190.4z"/>
			</g>
			<g id="XMLID_2418_">
				<path id="XMLID_2419_" class="st1" d="M149.4,191.3c-0.4-0.9-0.6-1.7-0.6-1.7c-0.1,0-0.1,0.9,0.2,1.8
					C149,191.5,149.6,191.7,149.4,191.3z"/>
			</g>
		</g>
		<g id="XMLID_2415_">
			<path id="XMLID_2416_" class="st1" d="M138.8,237.2c0-0.1,4.1-1.9,7.5-6c0.6-0.8,2-2.8,2.1-2.7c0.1,0.1-1.2,2.4-1.9,3.2
				c-0.6,0.8-1.3,1.5-2,2.1C141.8,236.3,138.9,237.3,138.8,237.2z"/>
		</g>
		<g id="XMLID_2413_">
			<path id="XMLID_2414_" class="st1" d="M127.5,217.7c-0.1,0,0-1.4,0.9-2.6c0.6-0.8,1.5-1.7,2.9-2.3c0.1-0.1,0.3,0,0.3,0.1
				c0.1,0.1,0,0.3-0.1,0.3c-1.2,0.5-2,1.3-2.6,1.9C127.7,216.6,127.5,217.7,127.5,217.7z"/>
		</g>
		<g id="XMLID_2411_">
			<path id="XMLID_2412_" class="st1" d="M165,179.6c-8.8,0-15.4-2.9-15.5-2.9c-0.1-0.1-0.2-0.2-0.1-0.3c0.1-0.1,0.2-0.2,0.3-0.1
				c0.1,0,7.3,3.2,16.7,2.8c9.4-0.3,14.1-2.9,14.2-2.9c0.1-0.1,0.3,0,0.3,0.1c0.1,0.1,0,0.3-0.1,0.3c-0.2,0.1-4.9,2.6-14.4,2.9
				C166,179.6,165.5,179.6,165,179.6z"/>
		</g>
		<g id="XMLID_2409_">
			<path id="XMLID_2410_" class="st1" d="M159.4,185.6C159.4,185.6,159.4,185.6,159.4,185.6c-0.1,0-0.2-5.7,1.3-10.1
				c0-0.1,0.2-0.2,0.3-0.2c0.1,0,0.2,0.2,0.2,0.3C159.7,180,159.5,185.6,159.4,185.6z"/>
		</g>
		<g id="XMLID_2407_">
			<path id="XMLID_2408_" class="st1" d="M155.3,187.7c-0.1,0-0.5-3.4-0.3-4.4c0-0.2,0.1-0.5,0.3-0.8c0.3-1,0.8-2.5,0.6-3.9
				c-0.4-1.9,0.2-3.3,0.3-3.4c0.1-0.1,0.2-0.2,0.3-0.1c0.1,0.1,0.2,0.2,0.1,0.3c0,0-0.6,1.3-0.2,3.1c0.3,1.5-0.3,3.1-0.6,4.1
				c-0.1,0.3-0.2,0.6-0.2,0.8C155,185,155.4,187.6,155.3,187.7C155.3,187.7,155.3,187.7,155.3,187.7z"/>
		</g>
		<g id="XMLID_2405_">
			<path id="XMLID_2406_" class="st1" d="M148.3,182.8c-0.3,0-0.9-0.2-1.2-0.4c-2.8-1.1-5.1-0.6-5.2-0.7s1.7-0.6,3.7-0.2
				c0.6,0.1,1.3,0.3,2,0.6c0.5,0.2,0.9,0.2,1.3,0c1.7-0.9,2.5-4.8,2.5-4.8c0-0.1,0.1-0.2,0.3-0.2c0.1,0,0.2,0.2,0.2,0.3
				c0,0.2-0.8,4.1-2.7,5.2C148.9,182.7,148.6,182.8,148.3,182.8z"/>
		</g>
		<g id="XMLID_2403_">
			<path id="XMLID_2404_" class="st1" d="M179.2,188.5C179.2,188.5,179.2,188.5,179.2,188.5c-9.8-3.3-9.2-9.2-9.1-9.5
				c0-0.1,0.1-0.2,0.3-0.2c0.1,0,0.2,0.1,0.2,0.3c0,0-0.2,1.5,0.8,3.3c0.9,1.7,3,4,7.9,5.7c0.1,0,0.2,0.2,0.2,0.3
				C179.4,188.5,179.3,188.5,179.2,188.5z"/>
		</g>
		<g id="XMLID_2401_">
			<path id="XMLID_2402_" class="st1" d="M179,195.6c-0.1,0-0.4-0.9-1.4-2.1c-1.5-2-3.7-3-3.7-3.1c0.1-0.1,2.9,1.2,4.1,3
				C178.6,194.1,179,195.6,179,195.6z"/>
		</g>
		<g id="XMLID_2399_">
			<path id="XMLID_2400_" class="st1" d="M180.5,192c-0.1,0-0.8-0.7-1.2-0.9c-1.1-0.6-2.4-0.9-2.4-1c0-0.1,1.2-0.1,2.2,0.3
				C180.1,190.9,180.6,192,180.5,192z"/>
		</g>
	</g>
	<path id="XMLID_2397_" class="st2" d="M112.8,244.6c-0.2-1,0.6-2.5,1-3.6c0.4-1.1-0.2-2.8,0-3.8c0.2-0.9,1.2-1.1,1.2-1.1
		s0.8,1.6,6.5,2.2c5.8,0.7,9.2-1.1,9.7-1.3s1.2,1,0.9,3.2c-0.3,2.2,0.6,3.2,0.2,4.4c-0.3,1.2-0.6,3.5-10.4,3.2
		C113.8,247.8,112.8,244.6,112.8,244.6z"/>
	<path id="XMLID_2396_" class="st2" d="M131.2,249.2c-0.2-1,0.6-2.5,1-3.6c0.4-1.1-0.2-2.8,0-3.8c0.2-0.9,1.2-1.1,1.2-1.1
		s0.8,1.6,6.5,2.2c5.8,0.7,10.1-1,10.5-1.2s1.2,1,0.9,3.2c-0.3,2.2,0.8,3.6,0.5,4.8c-0.3,1.2-1.9,3.3-11.5,2.8
		C132.2,252.2,131.2,249.2,131.2,249.2z"/>
</g>
</svg>
