<?xml version="1.0" encoding="utf-8"?>
<!-- Generator: Adobe Illustrator 19.0.0, SVG Export Plug-In . SVG Version: 6.00 Build 0)  -->
<svg version="1.1" id="Camada_1" xmlns="http://www.w3.org/2000/svg" xmlns:xlink="http://www.w3.org/1999/xlink" x="0px" y="0px"
	 viewBox="0 0 297.6 425.2" style="enable-background:new 0 0 297.6 425.2;" xml:space="preserve">
<style type="text/css">
	.st0{fill:#C5944D;}
	.st1{fill:#997034;}
	.st2{fill:#A47A39;}
</style>
<g id="XMLID_1081_">
	<path id="XMLID_1052_" class="st0" d="M132.1,265.3c0,0,0-19.8,0-25.6s1.9-14.1,2.4-15.8s2.2-7.6,2.2-7.8s7.8,1,13.2,0.8
		s13.2-1.6,18.5-3.6c0,0,2,3.3,3,6.8c1,3.4,4.2,13.8,5.2,18.8c1.1,4.9,6.2,21.6,6.3,22.7c0,0-12,6.7-24.8,5.5c0,0-1.9-10.1-3.2-13.4
		c0,0-0.8,9.8-0.1,12.4C154.9,266.2,143.1,269.4,132.1,265.3z"/>
	<g id="XMLID_1053_">
		<g id="XMLID_1062_">
			<path id="XMLID_1077_" class="st1" d="M150.6,243c-1.5-0.3-3.1-0.7-4.6-1.1c-5.9-1.7-6.3-2.8-6.3-2.8c0.1,0,5.4,2.2,10.4,3.2
				c0.9,0.2,5.3,1.1,5.3,1.1S153.1,243.5,150.6,243z"/>
		</g>
		<g id="XMLID_1063_">
			<path id="XMLID_1076_" class="st1" d="M154.9,254.5c-1.7-5-3.1-9.2-3.6-11c-1.7,1.6-2.6,2.1-4.3,2.8c-3.4,1.3-5.2,1.1-5.2,1.1
				c0.1,0,5.5-0.7,9.4-4.7c0.1-0.1,0.2-0.1,0.3-0.1c0.1,0,0.2,0.1,0.2,0.2c0,0.1,2.2,7.2,3.3,10.9L154.9,254.5z"/>
		</g>
		<g id="XMLID_1064_">
			<path id="XMLID_1075_" class="st1" d="M148.1,231.8c-0.4-4.3-0.5-9.4,0.4-13.8l0.6,0.1c-2,9.2,0.9,22.1,0.9,22.2
				C150,240.4,148.6,236.7,148.1,231.8z"/>
		</g>
		<g id="XMLID_1065_">
			<path id="XMLID_1074_" class="st1" d="M141.3,234.8c0.1,0,3.4,0.1,9-1.5c2.9-0.9,6.4-2.2,10.4-4.2c0,0-1.9,2.4-9.7,4.6
				C143.5,235.8,141.3,234.8,141.3,234.8z"/>
		</g>
		<g id="XMLID_1066_">
			<path id="XMLID_1073_" class="st1" d="M150,220.8c-2.6,0-4.7,0-6.5-0.1c-6.1-0.3-6.9-1.3-6.9-1.3c0,0,3.4,0.9,13.3,0.8
				c10-0.1,18.1-2.6,18.2-2.7c0,0-4,2.2-12.8,3C153.3,220.7,152.3,220.7,150,220.8z"/>
		</g>
		<g id="XMLID_1067_">
			<path id="XMLID_1072_" class="st1" d="M169.1,228c-4.6-1.3-7.4-8.3-7.5-8.6l0.6-0.2c0,0.1,2.5,5.5,6.1,7.7c1.1,0.6,2.2,1,3.5,0.8
				C171.8,227.8,171.3,228.7,169.1,228z"/>
		</g>
		<g id="XMLID_1068_">
			<path id="XMLID_1071_" class="st1" d="M134.5,225.5l0.1,0.3L134.5,225.5c0.1,0,3.1-1.5,3.9-5.6l0.6,0.1
				C138.1,224.5,134.5,225.5,134.5,225.5z"/>
		</g>
		<g id="XMLID_1069_">
			<path id="XMLID_1070_" class="st1" d="M171.8,254.7c-3.1-0.2-4.3-1.4-4.3-1.4s2.4,0.7,4,0.8c1.4,0,3.4-0.2,5.6-1.2
				c1.4-0.6,2.5-1.5,2.5-1.5s-0.4,1.2-2.3,2.1C175.1,254.4,173.2,254.7,171.8,254.7z"/>
		</g>
		<path id="XMLID_1078_" class="st2" d="M165.5,244.8c0,0-0.2-2.4-0.9-3.7c0,0,8.1-0.9,12.5-2.6c0,0,0.6,0.5,1,3.2
			c0,0-3.1,2.8-3.7,4.4C174.4,246.1,170.4,244.6,165.5,244.8z"/>
		<g id="XMLID_1079_">
			<path id="XMLID_1080_" class="st1" d="M152.8,266.5c0-0.1-0.7-9.2,0.1-17.9l0.4,0c-0.8,8.6-0.1,17.7-0.1,17.8L152.8,266.5z"/>
		</g>
	</g>
</g>
</svg>
