<?xml version="1.0" encoding="utf-8"?>
<!-- Generator: Adobe Illustrator 19.0.0, SVG Export Plug-In . SVG Version: 6.00 Build 0)  -->
<svg version="1.1" id="Camada_1" xmlns="http://www.w3.org/2000/svg" xmlns:xlink="http://www.w3.org/1999/xlink" x="0px" y="0px"
	 viewBox="0 0 297.6 425.2" style="enable-background:new 0 0 297.6 425.2;" xml:space="preserve">
<style type="text/css">
	.st0{fill:#DCB79D;}
	.st1{fill:#B18D7F;}
	.st2{fill:#A28174;}
	.st3{fill:#765D54;}
</style>
<g id="XMLID_169_">
	<path id="XMLID_183_" class="st0" d="M191.2,202.4c-0.5-0.8-2.5-2-5.8-3.6s-7.4-0.8-9-0.4c-1.3,0.3-5.3,0.7-7.1,0.8
		c0.1-2,0-5-0.9-6c-1.1-1.2-2.6-3.4-2.9-5.5s0.1-4.6-0.8-5.4s-2.5-0.8-3.6,0.6s-0.7,3.8,0.1,5.4s0.6,3.2,0.6,3.2
		c-2,0.9-4.8,0.6-7.6,0.1s-3.4,0.4-4.2,1.3s-1.1,1.9-0.9,2.6s1.5,1.4,1.5,1.4c-1.2,1.5,0.1,3.5,0.1,3.5c-1.2,2.1,0.5,4.1,0.5,4.1
		c-0.2,1.6,1.7,3.5,3.1,3.9s3,0.6,6.6,0.2s6-2.1,6-2.1c10.3,1.6,18.2,0.9,21.4,0.7s3.6-1.5,3.8-1.9S191.7,203.1,191.2,202.4z"/>
	<g id="XMLID_181_">
		<path id="XMLID_182_" class="st1" d="M185.4,199c-2.4-1.1-5.2-1.2-7.2-0.9c-0.1,0-0.4,0-0.3-0.1c0.1-0.1,0.2-0.1,0.3-0.1
			c2.1-0.3,4.9-0.6,7.4,0.6c0.9,0.5,1.7,1.5,1.7,1.5C187.1,200,185.4,199,185.4,199z"/>
	</g>
	<g id="XMLID_170_">
		<g id="XMLID_179_">
			<path id="XMLID_180_" class="st1" d="M157.8,209.1c-1.5,0-2.6-0.2-3.6-0.4c-1.4-0.4-3.4-2.3-3.3-4c-0.3-0.4-1.6-2.3-0.5-4.3
				c0.1-0.1,0.2-0.2,0.3-0.1c0.1,0.1,0.2,0.2,0.1,0.3c-1.1,1.9,0.5,3.8,0.5,3.8l0.1,0.1l0,0.1c-0.2,1.5,1.6,3.2,2.9,3.6
				c1.2,0.3,2.8,0.6,6.5,0.2c3.5-0.4,5.9-2.1,5.9-2.1c0.1,0,0.1-0.1,0.2-0.1c0,0,1.5,0.2,1.5,0.3c0,0.1-1.4,0-1.6,0
				c-0.1,0.1-2.3,2-5.9,2.3C159.7,209,158.7,209.1,157.8,209.1z"/>
		</g>
		<g id="XMLID_177_">
			<path id="XMLID_178_" class="st1" d="M168.9,199.4c0,0,0-0.2,0-0.3c0.1-2.2,0.2-4.8-0.6-5.7c-1.3-1.4-2.7-3.6-2.9-5.6
				c-0.1-0.7-0.1-1.4-0.1-2.1c0-1.4-0.1-2.7-0.6-3.2c-0.4-0.4-1-0.5-1.5-0.5c-0.4,0-1.1,0.3-1.7,1.1c-1,1.3-0.7,3.5,0.1,5.1
				c0.8,1.7,0.7,3.3,0.6,3.4l0,0.1l-0.1,0.1c-2,0.9-4.7,0.6-7.8,0.1c-2.6-0.4-3.2,0.3-4,1.2l-0.1,0.1c-0.7,0.8-1.1,1.7-0.9,2.4
				c0.1,0.4,1.7,1.5,3.2,2.1c0.1,0.1,0.2,0,0.2,0.2c-0.1,0.1-0.1,0.1-0.2,0.1c-0.8-0.3-3.4-1.4-3.6-2.3c-0.2-0.9,0.1-1.9,1-2.8
				l0.1-0.1c0.8-0.9,1.5-1.8,4.4-1.3c2.9,0.5,5.5,0.8,7.3,0c0-0.4,0-1.7-0.6-3c-0.7-1.6-1.2-4.1,0-5.6c0.5-0.7,1.3-1.2,2.1-1.3
				c0.7-0.1,1.4,0,1.9,0.4c0.7,0.6,0.6,2.3,0.7,3.8c0,0.7,0,1.4,0.1,2c0.2,1.9,1.6,4,2.8,5.4c1.1,1.2,0.6,4.4,0.5,5.6
				C169.2,198.8,169.1,199.4,168.9,199.4z"/>
		</g>
		<g id="XMLID_175_">
			<path id="XMLID_176_" class="st1" d="M154.4,207.4c-0.1,0-0.2,0-0.2-0.1c-0.3-0.4-0.2-0.7-0.2-1c0.1-0.2,0.1-0.5,0-0.9
				c-0.1-0.6-0.3-2.4-0.4-4c-0.1-1-0.2-2.1-0.2-2.3c0-0.1-0.1-0.2-0.2-0.3c-0.3-0.3-0.6-0.7-0.8-1.4c-0.2-1.1,1.1-2.6,1.3-2.8
				c0.1-0.1,0.2-0.2,0.3-0.2c0.1,0,0,0.2-0.1,0.3c-0.3,0.5-1.1,1.9-0.9,2.6c0.1,0.6,0.4,0.9,0.6,1.2c0.2,0.2,0.3,0.3,0.4,0.5
				c0.1,0.2,0.1,0.8,0.3,2.4c0.1,1.5,0.3,3.3,0.4,3.9c0.1,0.6,0.1,0.9,0,1.2c-0.1,0.2-0.3,0.5-0.1,0.8
				C154.5,207.3,154.5,207.4,154.4,207.4z"/>
		</g>
		<g id="XMLID_173_">
			<path id="XMLID_174_" class="st1" d="M153.3,202.3c0,0-0.9-0.2-2.3-1.3c-1.8-1.5-0.8-4-0.7-4.1c0.1-0.1,0.2-0.2,0.3-0.1
				c0.1,0.1,0.2,0.2,0.1,0.3c0,0.1-1,2.2,0.6,3.5c1.4,1.2,2,1.5,2,1.5c0.1,0.1,0.2,0.1,0.2,0.2C153.5,202.4,153.3,202.3,153.3,202.3
				z"/>
		</g>
		<g id="XMLID_171_">
			<path id="XMLID_172_" class="st1" d="M153.7,205.9C153.7,205.9,153.7,205.9,153.7,205.9c-1.7-0.1-2.6-1.1-2.8-1.4
				c-0.1-0.1-0.1-0.3,0-0.4c0.1-0.1,0.2-0.1,0.3,0c0.2,0.3,0.8,1.2,2.6,1.5c0.1,0,0.2,0,0.1,0.1
				C153.9,205.9,153.8,205.9,153.7,205.9z"/>
		</g>
	</g>
</g>
<g id="XMLID_246_">
	<path id="XMLID_260_" class="st2" d="M705.6,202.4c-0.5-0.8-2.5-2-5.8-3.6s-7.4-0.8-9-0.4c-1.3,0.3-5.3,0.7-7.1,0.8
		c0.1-2,0-5-0.9-6c-1.1-1.2-2.6-3.4-2.9-5.5s0.1-4.6-0.8-5.4s-2.5-0.8-3.6,0.6s-0.7,3.8,0.1,5.4s0.6,3.2,0.6,3.2
		c-2,0.9-4.8,0.6-7.6,0.1s-3.4,0.4-4.2,1.3s-1.1,1.9-0.9,2.6s1.5,1.4,1.5,1.4c-1.2,1.5,0.1,3.5,0.1,3.5c-1.2,2.1,0.5,4.1,0.5,4.1
		c-0.2,1.6,1.7,3.5,3.1,3.9s3,0.6,6.6,0.2s6-2.1,6-2.1c10.3,1.6,18.2,0.9,21.4,0.7s3.6-1.5,3.8-1.9S706.1,203.1,705.6,202.4z"/>
	<g id="XMLID_258_">
		<path id="XMLID_259_" class="st3" d="M699.7,199c-2.4-1.1-5.2-1.2-7.2-0.9c-0.1,0-0.4,0-0.3-0.1c0.1-0.1,0.2-0.1,0.3-0.1
			c2.1-0.3,4.9-0.6,7.4,0.6c0.9,0.5,1.7,1.5,1.7,1.5C701.5,200,699.8,199,699.7,199z"/>
	</g>
	<g id="XMLID_247_">
		<g id="XMLID_256_">
			<path id="XMLID_257_" class="st3" d="M672.2,209.1c-1.5,0-2.6-0.2-3.6-0.4c-1.4-0.4-3.4-2.3-3.3-4c-0.3-0.4-1.6-2.3-0.5-4.3
				c0.1-0.1,0.2-0.2,0.3-0.1c0.1,0.1,0.2,0.2,0.1,0.3c-1.1,1.9,0.5,3.8,0.5,3.8l0.1,0.1l0,0.1c-0.2,1.5,1.6,3.2,2.9,3.6
				c1.2,0.3,2.8,0.6,6.5,0.2c3.5-0.4,5.9-2.1,5.9-2.1c0.1,0,0.1-0.1,0.2-0.1c0,0,1.5,0.2,1.5,0.3c0,0.1-1.4,0-1.6,0
				c-0.1,0.1-2.3,2-5.9,2.3C674.1,209,673,209.1,672.2,209.1z"/>
		</g>
		<g id="XMLID_254_">
			<path id="XMLID_255_" class="st3" d="M683.2,199.4c0,0,0-0.2,0-0.3c0.1-2.2,0.2-4.8-0.6-5.7c-1.3-1.4-2.7-3.6-2.9-5.6
				c-0.1-0.7-0.1-1.4-0.1-2.1c0-1.4-0.1-2.7-0.6-3.2c-0.4-0.4-1-0.5-1.5-0.5c-0.4,0-1.1,0.3-1.7,1.1c-1,1.3-0.7,3.5,0.1,5.1
				c0.8,1.7,0.7,3.3,0.6,3.4l0,0.1l-0.1,0.1c-2,0.9-4.7,0.6-7.8,0.1c-2.6-0.4-3.2,0.3-4,1.2l-0.1,0.1c-0.7,0.8-1.1,1.7-0.9,2.4
				c0.1,0.4,1.7,1.5,3.2,2.1c0.1,0.1,0.2,0,0.2,0.2c-0.1,0.1-0.1,0.1-0.2,0.1c-0.8-0.3-3.4-1.4-3.6-2.3c-0.2-0.9,0.1-1.9,1-2.8
				l0.1-0.1c0.8-0.9,1.5-1.8,4.4-1.3c2.9,0.5,5.5,0.8,7.3,0c0-0.4,0-1.7-0.6-3c-0.7-1.6-1.2-4.1,0-5.6c0.5-0.7,1.3-1.2,2.1-1.3
				c0.7-0.1,1.4,0,1.9,0.4c0.7,0.6,0.6,2.3,0.7,3.8c0,0.7,0,1.4,0.1,2c0.2,1.9,1.6,4,2.8,5.4c1.1,1.2,0.6,4.4,0.5,5.6
				C683.6,198.8,683.4,199.4,683.2,199.4z"/>
		</g>
		<g id="XMLID_252_">
			<path id="XMLID_253_" class="st3" d="M668.8,207.4c-0.1,0-0.2,0-0.2-0.1c-0.3-0.4-0.2-0.7-0.2-1c0.1-0.2,0.1-0.5,0-0.9
				c-0.1-0.6-0.3-2.4-0.4-4c-0.1-1-0.2-2.1-0.2-2.3c0-0.1-0.1-0.2-0.2-0.3c-0.3-0.3-0.6-0.7-0.8-1.4c-0.2-1.1,1.1-2.6,1.3-2.8
				c0.1-0.1,0.2-0.2,0.3-0.2c0.1,0,0,0.2-0.1,0.3c-0.3,0.5-1.1,1.9-0.9,2.6c0.1,0.6,0.4,0.9,0.6,1.2c0.2,0.2,0.3,0.3,0.4,0.5
				c0.1,0.2,0.1,0.8,0.3,2.4c0.1,1.5,0.3,3.3,0.4,3.9c0.1,0.6,0.1,0.9,0,1.2c-0.1,0.2-0.3,0.5-0.1,0.8
				C668.8,207.3,668.8,207.4,668.8,207.4z"/>
		</g>
		<g id="XMLID_250_">
			<path id="XMLID_251_" class="st3" d="M667.7,202.3c0,0-0.9-0.2-2.3-1.3c-1.8-1.5-0.8-4-0.7-4.1c0.1-0.1,0.2-0.2,0.3-0.1
				c0.1,0.1,0.2,0.2,0.1,0.3c0,0.1-1,2.2,0.6,3.5c1.4,1.2,2,1.5,2,1.5c0.1,0.1,0.2,0.1,0.2,0.2C667.8,202.4,667.7,202.3,667.7,202.3
				z"/>
		</g>
		<g id="XMLID_248_">
			<path id="XMLID_249_" class="st3" d="M668.1,205.9C668.1,205.9,668.1,205.9,668.1,205.9c-1.7-0.1-2.6-1.1-2.8-1.4
				c-0.1-0.1-0.1-0.3,0-0.4c0.1-0.1,0.2-0.1,0.3,0c0.2,0.3,0.8,1.2,2.6,1.5c0.1,0,0.2,0,0.1,0.1
				C668.3,205.9,668.2,205.9,668.1,205.9z"/>
		</g>
	</g>
</g>
</svg>
