<?xml version="1.0" encoding="utf-8"?>
<!-- Generator: Adobe Illustrator 19.0.0, SVG Export Plug-In . SVG Version: 6.00 Build 0)  -->
<svg version="1.1" id="Camada_1" xmlns="http://www.w3.org/2000/svg" xmlns:xlink="http://www.w3.org/1999/xlink" x="0px" y="0px"
	 viewBox="0 0 297.6 425.2" style="enable-background:new 0 0 297.6 425.2;" xml:space="preserve">
<style type="text/css">
	.st0{fill:#FED7B6;}
	.st1{fill:#CEAB8F;}
</style>
<g id="XMLID_38_">
	<path id="XMLID_106_" class="st0" d="M169.5,220.4c-0.5-0.8-2.5-2-5.8-3.6s-7.4-0.8-9-0.4c-1.3,0.3-5.3,0.7-7.1,0.8
		c0.1-2,0-5-0.9-6c-1.1-1.2-2.6-3.4-2.9-5.5s0.1-4.6-0.8-5.4s-2.5-0.8-3.6,0.6s-0.7,3.8,0.1,5.4s0.6,3.2,0.6,3.2
		c-2,0.9-4.8,0.6-7.6,0.1s-3.4,0.4-4.2,1.3s-1.1,1.9-0.9,2.6s1.5,1.4,1.5,1.4c-1.2,1.5,0.1,3.5,0.1,3.5c-1.2,2.1,0.5,4.1,0.5,4.1
		c-0.2,1.6,1.7,3.5,3.1,3.9s3,0.6,6.6,0.2s6-2.1,6-2.1c10.3,1.6,18.2,0.9,21.4,0.7s3.6-1.5,3.8-1.9S170,221.2,169.5,220.4z"/>
	<g id="XMLID_104_">
		<path id="XMLID_105_" class="st1" d="M163.6,217.1c-2.4-1.1-5.2-1.2-7.2-0.9c-0.1,0-0.4,0-0.3-0.1c0.1-0.1,0.2-0.1,0.3-0.1
			c2.1-0.3,4.9-0.6,7.4,0.6c0.9,0.5,1.7,1.5,1.7,1.5C165.4,218.1,163.6,217.1,163.6,217.1z"/>
	</g>
	<g id="XMLID_39_">
		<g id="XMLID_102_">
			<path id="XMLID_103_" class="st1" d="M136,227.2c-1.5,0-2.6-0.2-3.6-0.4c-1.4-0.4-3.4-2.3-3.3-4c-0.3-0.4-1.6-2.3-0.5-4.3
				c0.1-0.1,0.2-0.2,0.3-0.1c0.1,0.1,0.2,0.2,0.1,0.3c-1.1,1.9,0.5,3.8,0.5,3.8l0.1,0.1l0,0.1c-0.2,1.5,1.6,3.2,2.9,3.6
				c1.2,0.3,2.8,0.6,6.5,0.2c3.5-0.4,5.9-2.1,5.9-2.1c0.1,0,0.1-0.1,0.2-0.1c0,0,1.5,0.2,1.5,0.3c0,0.1-1.4,0-1.6,0
				c-0.1,0.1-2.3,2-5.9,2.3C137.9,227.1,136.9,227.2,136,227.2z"/>
		</g>
		<g id="XMLID_100_">
			<path id="XMLID_101_" class="st1" d="M147.1,217.5c0,0,0-0.2,0-0.3c0.1-2.2,0.2-4.8-0.6-5.7c-1.3-1.4-2.7-3.6-2.9-5.6
				c-0.1-0.7-0.1-1.4-0.1-2.1c0-1.4-0.1-2.7-0.6-3.2c-0.4-0.4-1-0.5-1.5-0.5c-0.4,0-1.1,0.3-1.7,1.1c-1,1.3-0.7,3.5,0.1,5.1
				c0.8,1.7,0.7,3.3,0.6,3.4l0,0.1l-0.1,0.1c-2,0.9-4.7,0.6-7.8,0.1c-2.6-0.4-3.2,0.3-4,1.2l-0.1,0.1c-0.7,0.8-1.1,1.7-0.9,2.4
				c0.1,0.4,1.7,1.5,3.2,2.1c0.1,0.1,0.2,0,0.2,0.2c-0.1,0.1-0.1,0.1-0.2,0.1c-0.8-0.3-3.4-1.4-3.6-2.3c-0.2-0.9,0.1-1.9,1-2.8
				l0.1-0.1c0.8-0.9,1.5-1.8,4.4-1.3c2.9,0.5,5.5,0.8,7.3,0c0-0.4,0-1.7-0.6-3c-0.7-1.6-1.2-4.1,0-5.6c0.5-0.7,1.3-1.2,2.1-1.3
				c0.7-0.1,1.4,0,1.9,0.4c0.7,0.6,0.6,2.3,0.7,3.8c0,0.7,0,1.4,0.1,2c0.2,1.9,1.6,4,2.8,5.4c1.1,1.2,0.6,4.4,0.5,5.6
				C147.4,216.9,147.3,217.5,147.1,217.5z"/>
		</g>
		<g id="XMLID_98_">
			<path id="XMLID_99_" class="st1" d="M132.6,225.4c-0.1,0-0.2,0-0.2-0.1c-0.3-0.4-0.2-0.7-0.2-1c0.1-0.2,0.1-0.5,0-0.9
				c-0.1-0.6-0.3-2.4-0.4-4c-0.1-1-0.2-2.1-0.2-2.3c0-0.1-0.1-0.2-0.2-0.3c-0.3-0.3-0.6-0.7-0.8-1.4c-0.2-1.1,1.1-2.6,1.3-2.8
				c0.1-0.1,0.2-0.2,0.3-0.2c0.1,0,0,0.2-0.1,0.3c-0.3,0.5-1.1,1.9-0.9,2.6c0.1,0.6,0.4,0.9,0.6,1.2c0.2,0.2,0.3,0.3,0.4,0.5
				c0.1,0.2,0.1,0.8,0.3,2.4c0.1,1.5,0.3,3.3,0.4,3.9c0.1,0.6,0.1,0.9,0,1.2c-0.1,0.2-0.3,0.5-0.1,0.8
				C132.7,225.4,132.7,225.4,132.6,225.4z"/>
		</g>
		<g id="XMLID_42_">
			<path id="XMLID_43_" class="st1" d="M131.5,220.4c0,0-0.9-0.2-2.3-1.3c-1.8-1.5-0.8-4-0.7-4.1c0.1-0.1,0.2-0.2,0.3-0.1
				c0.1,0.1,0.2,0.2,0.1,0.3c0,0.1-1,2.2,0.6,3.5c1.4,1.2,2,1.5,2,1.5c0.1,0.1,0.2,0.1,0.2,0.2C131.7,220.5,131.6,220.4,131.5,220.4
				z"/>
		</g>
		<g id="XMLID_40_">
			<path id="XMLID_41_" class="st1" d="M131.9,224C131.9,224,131.9,224,131.9,224c-1.7-0.1-2.6-1.1-2.8-1.4c-0.1-0.1-0.1-0.3,0-0.4
				c0.1-0.1,0.2-0.1,0.3,0c0.2,0.3,0.8,1.2,2.6,1.5c0.1,0,0.2,0,0.1,0.1C132.1,224,132.1,224,131.9,224z"/>
		</g>
	</g>
</g>
</svg>
