<?xml version="1.0" encoding="utf-8"?>
<!-- Generator: Adobe Illustrator 19.0.0, SVG Export Plug-In . SVG Version: 6.00 Build 0)  -->
<svg version="1.1" id="Camada_1" xmlns="http://www.w3.org/2000/svg" xmlns:xlink="http://www.w3.org/1999/xlink" x="0px" y="0px"
	 viewBox="0 0 297.6 425.2" style="enable-background:new 0 0 297.6 425.2;" xml:space="preserve">
<style type="text/css">
	.st0{fill:#FDE9DB;}
	.st1{fill:#D6B9A3;}
	.st2{fill:#FDD6B6;}
	.st3{fill:#CEAA8E;}
	.st4{fill:#DCB79D;}
	.st5{fill:#B18D7F;}
	.st6{fill:#A28174;}
	.st7{fill:#765D54;}
</style>
<g id="XMLID_3745_">
	<path id="XMLID_3753_" class="st0" d="M197.3,240.2c-0.3-1.5-1.4-5.9-3.5-8.4c0,0-0.1-14.8-0.3-18s-0.4-5.9-0.7-6.8
		s-1.5-4.8-1.5-4.8s-0.3-1.2-0.9-2.9c-1.7-0.1-3.3,0-4.9,0.3c-1.7,1.2-3.4,2.5-4.9,3.8c1.3,2.8,2.5,5.2,3.1,6.4c0,0,0,7.9,1.5,13.7
		s1.5,8.6,1.5,8.6s-4.3,3.1-5.2,4.2s-0.8,3.3-0.8,4s-0.7,3.7-1.6,4.4s-0.5,2.7,1,3s3.4-1.1,3.9-2.2c0.8-1.8-0.2-4,0.9-4.4
		c0,0,0.7,0.3,0.9,2.5c0.4,3.2-0.4,5.9-1.9,8.1c-1.1,1.7-2,2.9-2.3,4.4c-0.5,2.2,1.1,2.9,1.8,2.8c1.3-0.1,2.2-1.2,2.2-1.2
		s0.6,1.2,2.2,0.9s2.9-2.6,2.9-2.6s1.1,0.1,2.8-2.2c0,0,1.9-1.2,2.8-3.3S197.6,241.7,197.3,240.2z"/>
	<g id="XMLID_3746_">
		<g id="XMLID_3751_">
			<path id="XMLID_3752_" class="st1" d="M185.9,257.5c1.2-1.2,2.9-4,3.4-5.9c0.6-2.1,1.1-4.6,1.1-4.6c0-0.1,0-0.2,0.2-0.2l-0.1,0
				c0.1,0,0.2,0.3,0.2,0.4c0,0.1-0.1,2.4-0.8,4.6C188.5,255.9,185.8,257.6,185.9,257.5z"/>
		</g>
		<g id="XMLID_3749_">
			<path id="XMLID_3750_" class="st1" d="M193.2,247.8c0-0.1,0-0.3,0.1-0.3c0.1,0,0.2,0.2,0.2,0.3c-0.1,5.2-2.5,8-2.6,8.1
				C190.8,256,192.8,252.4,193.2,247.8z"/>
		</g>
		<g id="XMLID_3747_">
			<path id="XMLID_3748_" class="st1" d="M193.8,253.5c0,0,0-0.1,0.1-0.2c1.2-2,1.5-5.1,1.5-5.1c0-0.1,0-0.2,0-0.2
				c0.1,0,0.1,0.1,0.1,0.2c0,0.1,0.3,2.5-1.6,5.2C193.9,253.4,193.8,253.5,193.8,253.5z"/>
		</g>
	</g>
</g>
<g id="XMLID_3772_">
	<path id="XMLID_3780_" class="st2" d="M438.7,240.2c-0.3-1.5-1.4-5.9-3.5-8.4c0,0-0.1-14.8-0.3-18s-0.4-5.9-0.7-6.8
		s-1.5-4.8-1.5-4.8s-0.3-1.2-0.9-2.9c-1.7-0.1-3.3,0-4.9,0.3c-1.7,1.2-3.4,2.5-4.9,3.8c1.3,2.8,2.5,5.2,3.1,6.4c0,0,0,7.9,1.5,13.7
		s1.5,8.6,1.5,8.6s-4.3,3.1-5.2,4.2s-0.8,3.3-0.8,4s-0.7,3.7-1.6,4.4s-0.5,2.7,1,3s3.4-1.1,3.9-2.2c0.8-1.8-0.2-4,0.9-4.4
		c0,0,0.7,0.3,0.9,2.5c0.4,3.2-0.4,5.9-1.9,8.1c-1.1,1.7-2,2.9-2.3,4.4c-0.5,2.2,1.1,2.9,1.8,2.8c1.3-0.1,2.2-1.2,2.2-1.2
		s0.6,1.2,2.2,0.9s2.9-2.6,2.9-2.6s1.1,0.1,2.8-2.2c0,0,1.9-1.2,2.8-3.3S439,241.7,438.7,240.2z"/>
	<g id="XMLID_3773_">
		<g id="XMLID_3778_">
			<path id="XMLID_3779_" class="st3" d="M427.4,257.5c1.2-1.2,2.9-4,3.4-5.9c0.6-2.1,1.1-4.6,1.1-4.6c0-0.1,0-0.2,0.2-0.2l-0.1,0
				c0.1,0,0.2,0.3,0.2,0.4c0,0.1-0.1,2.4-0.8,4.6C429.9,255.9,427.3,257.6,427.4,257.5z"/>
		</g>
		<g id="XMLID_3776_">
			<path id="XMLID_3777_" class="st3" d="M434.7,247.8c0-0.1,0-0.3,0.1-0.3c0.1,0,0.2,0.2,0.2,0.3c-0.1,5.2-2.5,8-2.6,8.1
				C432.3,256,434.3,252.4,434.7,247.8z"/>
		</g>
		<g id="XMLID_3774_">
			<path id="XMLID_3775_" class="st3" d="M435.2,253.5c0,0,0-0.1,0.1-0.2c1.2-2,1.5-5.1,1.5-5.1c0-0.1,0-0.2,0-0.2
				c0.1,0,0.1,0.1,0.1,0.2c0,0.1,0.3,2.5-1.6,5.2C435.3,253.4,435.3,253.5,435.2,253.5z"/>
		</g>
	</g>
</g>
<g id="XMLID_3763_">
	<path id="XMLID_3771_" class="st4" d="M576.8,240.2c-0.3-1.5-1.4-5.9-3.5-8.4c0,0-0.1-14.8-0.3-18s-0.4-5.9-0.7-6.8
		s-1.5-4.8-1.5-4.8s-0.3-1.2-0.9-2.9c-1.7-0.1-3.3,0-4.9,0.3c-1.7,1.2-3.4,2.5-4.9,3.8c1.3,2.8,2.5,5.2,3.1,6.4c0,0,0,7.9,1.5,13.7
		s1.5,8.6,1.5,8.6s-4.3,3.1-5.2,4.2s-0.8,3.3-0.8,4s-0.7,3.7-1.6,4.4s-0.5,2.7,1,3s3.4-1.1,3.9-2.2c0.8-1.8-0.2-4,0.9-4.4
		c0,0,0.7,0.3,0.9,2.5c0.4,3.2-0.4,5.9-1.9,8.1c-1.1,1.7-2,2.9-2.3,4.4c-0.5,2.2,1.1,2.9,1.8,2.8c1.3-0.1,2.2-1.2,2.2-1.2
		s0.6,1.2,2.2,0.9s2.9-2.6,2.9-2.6s1.1,0.1,2.8-2.2c0,0,1.9-1.2,2.8-3.3S577.1,241.7,576.8,240.2z"/>
	<g id="XMLID_3764_">
		<g id="XMLID_3769_">
			<path id="XMLID_3770_" class="st5" d="M565.5,257.5c1.2-1.2,2.9-4,3.4-5.9c0.6-2.1,1.1-4.6,1.1-4.6c0-0.1,0-0.2,0.2-0.2l-0.1,0
				c0.1,0,0.2,0.3,0.2,0.4c0,0.1-0.1,2.4-0.8,4.6C568.1,255.9,565.4,257.6,565.5,257.5z"/>
		</g>
		<g id="XMLID_3767_">
			<path id="XMLID_3768_" class="st5" d="M572.8,247.8c0-0.1,0-0.3,0.1-0.3c0.1,0,0.2,0.2,0.2,0.3c-0.1,5.2-2.5,8-2.6,8.1
				C570.4,256,572.4,252.4,572.8,247.8z"/>
		</g>
		<g id="XMLID_3765_">
			<path id="XMLID_3766_" class="st5" d="M573.3,253.5c0,0,0-0.1,0.1-0.2c1.2-2,1.5-5.1,1.5-5.1c0-0.1,0-0.2,0-0.2
				c0.1,0,0.1,0.1,0.1,0.2c0,0.1,0.3,2.5-1.6,5.2C573.5,253.4,573.4,253.5,573.3,253.5z"/>
		</g>
	</g>
</g>
<g id="XMLID_3754_">
	<path id="XMLID_3762_" class="st6" d="M715,240.2c-0.3-1.5-1.4-5.9-3.5-8.4c0,0-0.1-14.8-0.3-18s-0.4-5.9-0.7-6.8s-1.5-4.8-1.5-4.8
		s-0.3-1.2-0.9-2.9c-1.7-0.1-3.3,0-4.9,0.3c-1.7,1.2-3.4,2.5-4.9,3.8c1.3,2.8,2.5,5.2,3.1,6.4c0,0,0,7.9,1.5,13.7s1.5,8.6,1.5,8.6
		s-4.3,3.1-5.2,4.2s-0.8,3.3-0.8,4s-0.7,3.7-1.6,4.4s-0.5,2.7,1,3s3.4-1.1,3.9-2.2c0.8-1.8-0.2-4,0.9-4.4c0,0,0.7,0.3,0.9,2.5
		c0.4,3.2-0.4,5.9-1.9,8.1c-1.1,1.7-2,2.9-2.3,4.4c-0.5,2.2,1.1,2.9,1.8,2.8c1.3-0.1,2.2-1.2,2.2-1.2s0.6,1.2,2.2,0.9
		s2.9-2.6,2.9-2.6s1.1,0.1,2.8-2.2c0,0,1.9-1.2,2.8-3.3S715.3,241.7,715,240.2z"/>
	<g id="XMLID_3755_">
		<g id="XMLID_3760_">
			<path id="XMLID_3761_" class="st7" d="M703.6,257.5c1.2-1.2,2.9-4,3.4-5.9c0.6-2.1,1.1-4.6,1.1-4.6c0-0.1,0-0.2,0.2-0.2l-0.1,0
				c0.1,0,0.2,0.3,0.2,0.4c0,0.1-0.1,2.4-0.8,4.6C706.2,255.9,703.5,257.6,703.6,257.5z"/>
		</g>
		<g id="XMLID_3758_">
			<path id="XMLID_3759_" class="st7" d="M710.9,247.8c0-0.1,0-0.3,0.1-0.3c0.1,0,0.2,0.2,0.2,0.3c-0.1,5.2-2.5,8-2.6,8.1
				C708.6,256,710.5,252.4,710.9,247.8z"/>
		</g>
		<g id="XMLID_3756_">
			<path id="XMLID_3757_" class="st7" d="M711.5,253.5c0,0,0-0.1,0.1-0.2c1.2-2,1.5-5.1,1.5-5.1c0-0.1,0-0.2,0-0.2
				c0.1,0,0.1,0.1,0.1,0.2c0,0.1,0.3,2.5-1.6,5.2C711.6,253.4,711.5,253.5,711.5,253.5z"/>
		</g>
	</g>
</g>
</svg>
