<?xml version="1.0" encoding="utf-8"?>
<!-- Generator: Adobe Illustrator 19.0.0, SVG Export Plug-In . SVG Version: 6.00 Build 0)  -->
<svg version="1.1" id="Camada_1" xmlns="http://www.w3.org/2000/svg" xmlns:xlink="http://www.w3.org/1999/xlink" x="0px" y="0px"
	 viewBox="0 0 297.6 425.2" style="enable-background:new 0 0 297.6 425.2;" xml:space="preserve">
<style type="text/css">
	.st0{fill:#DDB79E;}
	.st1{fill:#B28E7F;}
</style>
<g id="XMLID_198_">
	<path id="XMLID_206_" class="st0" d="M158.1,224.6c-0.3-1.5-1.4-5.9-3.5-8.4c0,0-0.1-14.8-0.3-18s-0.4-5.9-0.7-6.8
		s-1.5-4.8-1.5-4.8s-0.3-1.2-0.9-2.9c-1.7-0.1-3.3,0-4.9,0.3c-1.7,1.2-3.4,2.5-4.9,3.8c1.3,2.8,2.5,5.2,3.1,6.4c0,0,0,7.9,1.5,13.7
		s1.5,8.6,1.5,8.6s-4.3,3.1-5.2,4.2s-0.8,3.3-0.8,4s-0.7,3.7-1.6,4.4s-0.5,2.7,1,3s3.4-1.1,3.9-2.2c0.8-1.8-0.2-4,0.9-4.4
		c0,0,0.7,0.3,0.9,2.5c0.4,3.2-0.4,5.9-1.9,8.1c-1.1,1.7-2,2.9-2.3,4.4c-0.5,2.2,1.1,2.9,1.8,2.8c1.3-0.1,2.2-1.2,2.2-1.2
		s0.6,1.2,2.2,0.9s2.9-2.6,2.9-2.6s1.1,0.1,2.8-2.2c0,0,1.9-1.2,2.8-3.3S158.4,226.1,158.1,224.6z"/>
	<g id="XMLID_199_">
		<g id="XMLID_204_">
			<path id="XMLID_205_" class="st1" d="M146.7,241.8c1.2-1.2,2.9-4,3.4-5.9c0.6-2.1,1.1-4.6,1.1-4.6c0-0.1,0-0.2,0.2-0.2l-0.1,0
				c0.1,0,0.2,0.3,0.2,0.4c0,0.1-0.1,2.4-0.8,4.6C149.3,240.2,146.6,241.9,146.7,241.8z"/>
		</g>
		<g id="XMLID_202_">
			<path id="XMLID_203_" class="st1" d="M154,232.1c0-0.1,0-0.3,0.1-0.3c0.1,0,0.2,0.2,0.2,0.3c-0.1,5.2-2.5,8-2.6,8.1
				C151.7,240.3,153.6,236.7,154,232.1z"/>
		</g>
		<g id="XMLID_200_">
			<path id="XMLID_201_" class="st1" d="M154.6,237.9c0,0,0-0.1,0.1-0.2c1.2-2,1.5-5.1,1.5-5.1c0-0.1,0-0.2,0-0.2
				c0.1,0,0.1,0.1,0.1,0.2c0,0.1,0.3,2.5-1.6,5.2C154.7,237.8,154.7,237.9,154.6,237.9z"/>
		</g>
	</g>
</g>
</svg>
