<?xml version="1.0" encoding="utf-8"?>
<!-- Generator: Adobe Illustrator 19.0.0, SVG Export Plug-In . SVG Version: 6.00 Build 0)  -->
<svg version="1.1" id="Camada_1" xmlns="http://www.w3.org/2000/svg" xmlns:xlink="http://www.w3.org/1999/xlink" x="0px" y="0px"
	 viewBox="0 0 297.6 425.2" style="enable-background:new 0 0 297.6 425.2;" xml:space="preserve">
<style type="text/css">
	.st0{fill:#FED7B6;}
	.st1{fill:#CEAB8F;}
</style>
<g id="XMLID_107_">
	<path id="XMLID_120_" class="st0" d="M147.2,212.9c0,0,5.6-5.5,6.4-6.5s2.7-4.4,6.4-4.4s6.4-0.4,6.8,0.1s1.1,3.7,1,4.1
		s-5.2,6.5-16.1,12.7c0,0,0.7,2.8-1.9,4.8s-4.7-0.8-5.8-2.3c0,0-2.1,2.3-3.6,2.9s-2.3-0.2-2.6-1.1c0,0-2.2,0.9-3.1,0.3
		s-1.1-1.9-1.1-1.9s-0.8,0.9-2.5,0.4s-1.8-3.4-0.6-5.4c0,0-1.1-1.1-0.9-2.6s1.3-4.1,3.7-6.2s5.7-2,7.1-1.1S145.1,210.3,147.2,212.9z
		"/>
	<g id="XMLID_118_">
		<path id="XMLID_119_" class="st1" d="M139.6,224.7c-0.1,0-0.1,0-0.2,0c-0.7,0-1.2-0.5-1.4-1.2c-0.5-1.8,0.9-5.3,3.5-7.1
			c3.2-2.2,4.2-1.1,4.4-0.9c0.1,0.1,0.1,0.2,0.1,0.3c0,0.1-0.1-0.1-0.2-0.2c0,0-0.9-0.9-4,1.2c-2.4,1.7-3.8,5-3.3,6.6
			c0.1,0.5,0.5,0.8,1,0.8c2.4,0.1,4.5-3.2,4.5-3.2l0.3-0.4l0.2,0.4c1.2,2.6,3.5,3.1,3.9,3.2c0.1,0,0.3,0,0.5,0c0.1,0-0.6,0.3-1.5,0
			c-0.9-0.2-2.3-0.9-3.2-2.6C143.5,222.5,141.7,224.7,139.6,224.7z"/>
	</g>
	<g id="XMLID_116_">
		<path id="XMLID_117_" class="st1" d="M136.3,223.7c-0.3,0-0.5,0-0.7-0.1c-0.3-0.1-1.1-0.3-1.6-1.2c-0.5-1.1-0.3-2.9,0.8-5.2
			c2.5-5.4,7.2-5.6,7.2-5.6c0.1,0,0.6,0,0.8,0.2c0.1,0.1-0.5,0.1-0.6,0.1c0,0-4.6,0.4-7,5.5c-1,2.2-1.3,3.8-0.8,4.8
			c0.3,0.7,1,0.9,1.2,1c0.4,0.1,1.6,0.1,2.2-0.3c0.1-0.1,0.3,0,0.3,0.1c0.1,0.1,0,0.3-0.1,0.3C137.7,223.6,136.9,223.7,136.3,223.7z
			"/>
	</g>
	<g id="XMLID_114_">
		<path id="XMLID_115_" class="st1" d="M132,222.3c-0.8,0-1.5-0.4-1.9-1.1c-1.1-2.1,0.2-4.9,1.8-7.5c1.4-2.3,3.2-3.8,5.4-4.7
			c0.7-0.3,2.3-0.5,3-0.2c0.2,0.1-0.6,0.1-0.7,0.1c-3,0.4-5.5,2.1-7.2,5c-2.1,3.5-2.6,5.5-1.8,7c0.4,0.8,1.2,0.9,1.7,0.9
			c0.8-0.1,1.4-0.5,1.5-0.8c0-0.1,0.2-0.2,0.3-0.2c0.1,0,0.2,0.2,0.2,0.3c-0.1,0.5-1,1-1.9,1.1C132.2,222.3,132.1,222.3,132,222.3z"
			/>
	</g>
	<g id="XMLID_112_">
		<path id="XMLID_113_" class="st1" d="M130.6,217c-0.1,0-0.1,0-0.2-0.1c-1.1-1.4-0.4-4.7,0.3-6c0.7-1.4,3.9-5.3,7.4-5.2
			c3.5,0.1,6,3.7,6.2,3.8c0.1,0.1,0.2,0.2,0.2,0.3c0,0.1-0.2,0-0.3-0.1c0,0-2.9-3.4-6.1-3.5c-3.3-0.1-6.3,3.7-6.9,4.9
			c-0.7,1.4-1.2,4.4-0.3,5.5c0.1,0.1,0.1,0.3,0,0.4C130.7,216.9,130.7,217,130.6,217z"/>
	</g>
	<g id="XMLID_110_">
		<path id="XMLID_111_" class="st1" d="M150,216.3c-0.8-1.6-2.4-3-2.5-3.1c-0.1-0.1-0.2-0.2-0.3-0.3c-0.1-0.1,0.2,0,0.3,0.1
			c0.2,0.1,1.1,0.7,1.9,1.6c1,1.3,1.2,2.8,1.2,2.7C150.5,217.3,150,216.3,150,216.3z"/>
	</g>
	<g id="XMLID_108_">
		<path id="XMLID_109_" class="st1" d="M156.5,203.1c0.1-0.1,1.4-2.1,4.6-1.6c0.9,0.2,1.2,0.6,1.4,0.8c0,0-1.2-0.3-1.3-0.3
			c-2.9-0.5-4.6,1.1-4.6,1.1C156.6,203.2,156.4,203.2,156.5,203.1z"/>
	</g>
</g>
</svg>
