<?xml version="1.0" encoding="utf-8"?>
<!-- Generator: Adobe Illustrator 19.0.0, SVG Export Plug-In . SVG Version: 6.00 Build 0)  -->
<svg version="1.1" id="Camada_1" xmlns="http://www.w3.org/2000/svg" xmlns:xlink="http://www.w3.org/1999/xlink" x="0px" y="0px"
	 viewBox="0 0 297.6 425.2" style="enable-background:new 0 0 297.6 425.2;" xml:space="preserve">
<style type="text/css">
	.st0{fill:#FDD6B6;}
	.st1{fill:#CEAA8E;}
	.st2{fill:#DCB79D;}
	.st3{fill:#B18D7F;}
	.st4{fill:#A28174;}
	.st5{fill:#765D54;}
	.st6{fill:#FDE9DB;}
	.st7{fill:#D6B9A3;}
</style>
<g id="XMLID_38_">
	<path id="XMLID_106_" class="st0" d="M679.1,461.5c-0.5-0.8-2.5-2-5.8-3.6s-7.4-0.8-9-0.4c-1.3,0.3-5.3,0.7-7.1,0.8
		c0.1-2,0-5-0.9-6c-1.1-1.2-2.6-3.4-2.9-5.5s0.1-4.6-0.8-5.4s-2.5-0.8-3.6,0.6s-0.7,3.8,0.1,5.4s0.6,3.2,0.6,3.2
		c-2,0.9-4.8,0.6-7.6,0.1s-3.4,0.4-4.2,1.3s-1.1,1.9-0.9,2.6s1.5,1.4,1.5,1.4c-1.2,1.5,0.1,3.5,0.1,3.5c-1.2,2.1,0.5,4.1,0.5,4.1
		c-0.2,1.6,1.7,3.5,3.1,3.9s3,0.6,6.6,0.2s6-2.1,6-2.1c10.3,1.6,18.2,0.9,21.4,0.7s3.6-1.5,3.8-1.9S679.6,462.2,679.1,461.5z"/>
	<g id="XMLID_104_">
		<path id="XMLID_105_" class="st1" d="M673.2,458.1c-2.4-1.1-5.2-1.2-7.2-0.9c-0.1,0-0.4,0-0.3-0.1c0.1-0.1,0.2-0.1,0.3-0.1
			c2.1-0.3,4.9-0.6,7.4,0.6c0.9,0.5,1.7,1.5,1.7,1.5C675,459.1,673.3,458.1,673.2,458.1z"/>
	</g>
	<g id="XMLID_39_">
		<g id="XMLID_102_">
			<path id="XMLID_103_" class="st1" d="M645.7,468.2c-1.5,0-2.6-0.2-3.6-0.4c-1.4-0.4-3.4-2.3-3.3-4c-0.3-0.4-1.6-2.3-0.5-4.3
				c0.1-0.1,0.2-0.2,0.3-0.1c0.1,0.1,0.2,0.2,0.1,0.3c-1.1,1.9,0.5,3.8,0.5,3.8l0.1,0.1l0,0.1c-0.2,1.5,1.6,3.2,2.9,3.6
				c1.2,0.3,2.8,0.6,6.5,0.2c3.5-0.4,5.9-2.1,5.9-2.1c0.1,0,0.1-0.1,0.2-0.1s1.5,0.2,1.5,0.3c0,0.1-1.4,0-1.6,0
				c-0.1,0.1-2.3,2-5.9,2.3C647.6,468.1,646.5,468.2,645.7,468.2z"/>
		</g>
		<g id="XMLID_100_">
			<path id="XMLID_101_" class="st1" d="M656.7,458.5c0,0,0-0.2,0-0.3c0.1-2.2,0.2-4.8-0.6-5.7c-1.3-1.4-2.7-3.6-2.9-5.6
				c-0.1-0.7-0.1-1.4-0.1-2.1c0-1.4-0.1-2.7-0.6-3.2c-0.4-0.4-1-0.5-1.5-0.5c-0.4,0-1.1,0.3-1.7,1.1c-1,1.3-0.7,3.5,0.1,5.1
				c0.8,1.7,0.7,3.3,0.6,3.4l0,0.1l-0.1,0.1c-2,0.9-4.7,0.6-7.8,0.1c-2.6-0.4-3.2,0.3-4,1.2l-0.1,0.1c-0.7,0.8-1.1,1.7-0.9,2.4
				c0.1,0.4,1.7,1.5,3.2,2.1c0.1,0.1,0.2,0,0.2,0.2c-0.1,0.1-0.1,0.1-0.2,0.1c-0.8-0.3-3.4-1.4-3.6-2.3c-0.2-0.9,0.1-1.9,1-2.8
				l0.1-0.1c0.8-0.9,1.5-1.8,4.4-1.3c2.9,0.5,5.5,0.8,7.3,0c0-0.4,0-1.7-0.6-3c-0.7-1.6-1.2-4.1,0-5.6c0.5-0.7,1.3-1.2,2.1-1.3
				c0.7-0.1,1.4,0,1.9,0.4c0.7,0.6,0.6,2.3,0.7,3.8c0,0.7,0,1.4,0.1,2c0.2,1.9,1.6,4,2.8,5.4c1.1,1.2,0.6,4.4,0.5,5.6
				C657.1,457.9,656.9,458.5,656.7,458.5z"/>
		</g>
		<g id="XMLID_98_">
			<path id="XMLID_99_" class="st1" d="M642.3,466.5c-0.1,0-0.2,0-0.2-0.1c-0.3-0.4-0.2-0.7-0.2-1c0.1-0.2,0.1-0.5,0-0.9
				c-0.1-0.6-0.3-2.4-0.4-4c-0.1-1-0.2-2.1-0.2-2.3c0-0.1-0.1-0.2-0.2-0.3c-0.3-0.3-0.6-0.7-0.8-1.4c-0.2-1.1,1.1-2.6,1.3-2.8
				c0.1-0.1,0.2-0.2,0.3-0.2c0.1,0,0,0.2-0.1,0.3c-0.3,0.5-1.1,1.9-0.9,2.6c0.1,0.6,0.4,0.9,0.6,1.2c0.2,0.2,0.3,0.3,0.4,0.5
				c0.1,0.2,0.1,0.8,0.3,2.4c0.1,1.5,0.3,3.3,0.4,3.9c0.1,0.6,0.1,0.9,0,1.2c-0.1,0.2-0.3,0.5-0.1,0.8
				C642.4,466.4,642.3,466.5,642.3,466.5z"/>
		</g>
		<g id="XMLID_42_">
			<path id="XMLID_43_" class="st1" d="M641.2,461.4c0,0-0.9-0.2-2.3-1.3c-1.8-1.5-0.8-4-0.7-4.1c0.1-0.1,0.2-0.2,0.3-0.1
				c0.1,0.1,0.2,0.2,0.1,0.3c0,0.1-1,2.2,0.6,3.5c1.4,1.2,2,1.5,2,1.5c0.1,0.1,0.2,0.1,0.2,0.2C641.4,461.5,641.2,461.4,641.2,461.4
				z"/>
		</g>
		<g id="XMLID_40_">
			<path id="XMLID_41_" class="st1" d="M641.6,465C641.6,465,641.6,465,641.6,465c-1.7-0.1-2.6-1.1-2.8-1.4c-0.1-0.1-0.1-0.3,0-0.4
				c0.1-0.1,0.2-0.1,0.3,0c0.2,0.3,0.8,1.2,2.6,1.5c0.1,0,0.2,0,0.1,0.1C641.8,465,641.7,465,641.6,465z"/>
		</g>
	</g>
</g>
<g id="XMLID_169_">
	<path id="XMLID_183_" class="st2" d="M817.2,461.5c-0.5-0.8-2.5-2-5.8-3.6s-7.4-0.8-9-0.4c-1.3,0.3-5.3,0.7-7.1,0.8
		c0.1-2,0-5-0.9-6c-1.1-1.2-2.6-3.4-2.9-5.5s0.1-4.6-0.8-5.4s-2.5-0.8-3.6,0.6s-0.7,3.8,0.1,5.4s0.6,3.2,0.6,3.2
		c-2,0.9-4.8,0.6-7.6,0.1s-3.4,0.4-4.2,1.3s-1.1,1.9-0.9,2.6s1.5,1.4,1.5,1.4c-1.2,1.5,0.1,3.5,0.1,3.5c-1.2,2.1,0.5,4.1,0.5,4.1
		c-0.2,1.6,1.7,3.5,3.1,3.9s3,0.6,6.6,0.2s6-2.1,6-2.1c10.3,1.6,18.2,0.9,21.4,0.7s3.6-1.5,3.8-1.9S817.7,462.2,817.2,461.5z"/>
	<g id="XMLID_181_">
		<path id="XMLID_182_" class="st3" d="M811.4,458.1c-2.4-1.1-5.2-1.2-7.2-0.9c-0.1,0-0.4,0-0.3-0.1c0.1-0.1,0.2-0.1,0.3-0.1
			c2.1-0.3,4.9-0.6,7.4,0.6c0.9,0.5,1.7,1.5,1.7,1.5C813.2,459.1,811.4,458.1,811.4,458.1z"/>
	</g>
	<g id="XMLID_170_">
		<g id="XMLID_179_">
			<path id="XMLID_180_" class="st3" d="M783.8,468.2c-1.5,0-2.6-0.2-3.6-0.4c-1.4-0.4-3.4-2.3-3.3-4c-0.3-0.4-1.6-2.3-0.5-4.3
				c0.1-0.1,0.2-0.2,0.3-0.1c0.1,0.1,0.2,0.2,0.1,0.3c-1.1,1.9,0.5,3.8,0.5,3.8l0.1,0.1l0,0.1c-0.2,1.5,1.6,3.2,2.9,3.6
				c1.2,0.3,2.8,0.6,6.5,0.2c3.5-0.4,5.9-2.1,5.9-2.1c0.1,0,0.1-0.1,0.2-0.1c0,0,1.5,0.2,1.5,0.3c0,0.1-1.4,0-1.6,0
				c-0.1,0.1-2.3,2-5.9,2.3C785.7,468.1,784.7,468.2,783.8,468.2z"/>
		</g>
		<g id="XMLID_177_">
			<path id="XMLID_178_" class="st3" d="M794.9,458.5c0,0,0-0.2,0-0.3c0.1-2.2,0.2-4.8-0.6-5.7c-1.3-1.4-2.7-3.6-2.9-5.6
				c-0.1-0.7-0.1-1.4-0.1-2.1c0-1.4-0.1-2.7-0.6-3.2c-0.4-0.4-1-0.5-1.5-0.5c-0.4,0-1.1,0.3-1.7,1.1c-1,1.3-0.7,3.5,0.1,5.1
				c0.8,1.7,0.7,3.3,0.6,3.4l0,0.1l-0.1,0.1c-2,0.9-4.7,0.6-7.8,0.1c-2.6-0.4-3.2,0.3-4,1.2l-0.1,0.1c-0.7,0.8-1.1,1.7-0.9,2.4
				c0.1,0.4,1.7,1.5,3.2,2.1c0.1,0.1,0.2,0,0.2,0.2c-0.1,0.1-0.1,0.1-0.2,0.1c-0.8-0.3-3.4-1.4-3.6-2.3c-0.2-0.9,0.1-1.9,1-2.8
				l0.1-0.1c0.8-0.9,1.5-1.8,4.4-1.3c2.9,0.5,5.5,0.8,7.3,0c0-0.4,0-1.7-0.6-3c-0.7-1.6-1.2-4.1,0-5.6c0.5-0.7,1.3-1.2,2.1-1.3
				c0.7-0.1,1.4,0,1.9,0.4c0.7,0.6,0.6,2.3,0.7,3.8c0,0.7,0,1.4,0.1,2c0.2,1.9,1.6,4,2.8,5.4c1.1,1.2,0.6,4.4,0.5,5.6
				C795.2,457.9,795.1,458.5,794.9,458.5z"/>
		</g>
		<g id="XMLID_175_">
			<path id="XMLID_176_" class="st3" d="M780.4,466.5c-0.1,0-0.2,0-0.2-0.1c-0.3-0.4-0.2-0.7-0.2-1c0.1-0.2,0.1-0.5,0-0.9
				c-0.1-0.6-0.3-2.4-0.4-4c-0.1-1-0.2-2.1-0.2-2.3c0-0.1-0.1-0.2-0.2-0.3c-0.3-0.3-0.6-0.7-0.8-1.4c-0.2-1.1,1.1-2.6,1.3-2.8
				c0.1-0.1,0.2-0.2,0.3-0.2c0.1,0,0,0.2-0.1,0.3c-0.3,0.5-1.1,1.9-0.9,2.6c0.1,0.6,0.4,0.9,0.6,1.2c0.2,0.2,0.3,0.3,0.4,0.5
				c0.1,0.2,0.1,0.8,0.3,2.4c0.1,1.5,0.3,3.3,0.4,3.9c0.1,0.6,0.1,0.9,0,1.2c-0.1,0.2-0.3,0.5-0.1,0.8
				C780.5,466.4,780.5,466.5,780.4,466.5z"/>
		</g>
		<g id="XMLID_173_">
			<path id="XMLID_174_" class="st3" d="M779.3,461.4c0,0-0.9-0.2-2.3-1.3c-1.8-1.5-0.8-4-0.7-4.1c0.1-0.1,0.2-0.2,0.3-0.1
				c0.1,0.1,0.2,0.2,0.1,0.3c0,0.1-1,2.2,0.6,3.5c1.4,1.2,2,1.5,2,1.5c0.1,0.1,0.2,0.1,0.2,0.2C779.5,461.5,779.4,461.4,779.3,461.4
				z"/>
		</g>
		<g id="XMLID_171_">
			<path id="XMLID_172_" class="st3" d="M779.7,465C779.7,465,779.7,465,779.7,465c-1.7-0.1-2.6-1.1-2.8-1.4c-0.1-0.1-0.1-0.3,0-0.4
				c0.1-0.1,0.2-0.1,0.3,0c0.2,0.3,0.8,1.2,2.6,1.5c0.1,0,0.2,0,0.1,0.1C779.9,465,779.8,465,779.7,465z"/>
		</g>
	</g>
</g>
<g id="XMLID_246_">
	<path id="XMLID_260_" class="st4" d="M955.4,461.5c-0.5-0.8-2.5-2-5.8-3.6s-7.4-0.8-9-0.4c-1.3,0.3-5.3,0.7-7.1,0.8
		c0.1-2,0-5-0.9-6c-1.1-1.2-2.6-3.4-2.9-5.5s0.1-4.6-0.8-5.4s-2.5-0.8-3.6,0.6s-0.7,3.8,0.1,5.4s0.6,3.2,0.6,3.2
		c-2,0.9-4.8,0.6-7.6,0.1s-3.4,0.4-4.2,1.3s-1.1,1.9-0.9,2.6s1.5,1.4,1.5,1.4c-1.2,1.5,0.1,3.5,0.1,3.5c-1.2,2.1,0.5,4.1,0.5,4.1
		c-0.2,1.6,1.7,3.5,3.1,3.9s3,0.6,6.6,0.2s6-2.1,6-2.1c10.3,1.6,18.2,0.9,21.4,0.7s3.6-1.5,3.8-1.9S955.9,462.2,955.4,461.5z"/>
	<g id="XMLID_258_">
		<path id="XMLID_259_" class="st5" d="M949.5,458.1c-2.4-1.1-5.2-1.2-7.2-0.9c-0.1,0-0.4,0-0.3-0.1c0.1-0.1,0.2-0.1,0.3-0.1
			c2.1-0.3,4.9-0.6,7.4,0.6c0.9,0.5,1.7,1.5,1.7,1.5C951.3,459.1,949.5,458.1,949.5,458.1z"/>
	</g>
	<g id="XMLID_247_">
		<g id="XMLID_256_">
			<path id="XMLID_257_" class="st5" d="M921.9,468.2c-1.5,0-2.6-0.2-3.6-0.4c-1.4-0.4-3.4-2.3-3.3-4c-0.3-0.4-1.6-2.3-0.5-4.3
				c0.1-0.1,0.2-0.2,0.3-0.1c0.1,0.1,0.2,0.2,0.1,0.3c-1.1,1.9,0.5,3.8,0.5,3.8l0.1,0.1l0,0.1c-0.2,1.5,1.6,3.2,2.9,3.6
				c1.2,0.3,2.8,0.6,6.5,0.2c3.5-0.4,5.9-2.1,5.9-2.1c0.1,0,0.1-0.1,0.2-0.1c0,0,1.5,0.2,1.5,0.3c0,0.1-1.4,0-1.6,0
				c-0.1,0.1-2.3,2-5.9,2.3C923.8,468.1,922.8,468.2,921.9,468.2z"/>
		</g>
		<g id="XMLID_254_">
			<path id="XMLID_255_" class="st5" d="M933,458.5c0,0,0-0.2,0-0.3c0.1-2.2,0.2-4.8-0.6-5.7c-1.3-1.4-2.7-3.6-2.9-5.6
				c-0.1-0.7-0.1-1.4-0.1-2.1c0-1.4-0.1-2.7-0.6-3.2c-0.4-0.4-1-0.5-1.5-0.5c-0.4,0-1.1,0.3-1.7,1.1c-1,1.3-0.7,3.5,0.1,5.1
				c0.8,1.7,0.7,3.3,0.6,3.4l0,0.1l-0.1,0.1c-2,0.9-4.7,0.6-7.8,0.1c-2.6-0.4-3.2,0.3-4,1.2l-0.1,0.1c-0.7,0.8-1.1,1.7-0.9,2.4
				c0.1,0.4,1.7,1.5,3.2,2.1c0.1,0.1,0.2,0,0.2,0.2c-0.1,0.1-0.1,0.1-0.2,0.1c-0.8-0.3-3.4-1.4-3.6-2.3c-0.2-0.9,0.1-1.9,1-2.8
				l0.1-0.1c0.8-0.9,1.5-1.8,4.4-1.3c2.9,0.5,5.5,0.8,7.3,0c0-0.4,0-1.7-0.6-3c-0.7-1.6-1.2-4.1,0-5.6c0.5-0.7,1.3-1.2,2.1-1.3
				c0.7-0.1,1.4,0,1.9,0.4c0.7,0.6,0.6,2.3,0.7,3.8c0,0.7,0,1.4,0.1,2c0.2,1.9,1.6,4,2.8,5.4c1.1,1.2,0.6,4.4,0.5,5.6
				C933.3,457.9,933.2,458.5,933,458.5z"/>
		</g>
		<g id="XMLID_252_">
			<path id="XMLID_253_" class="st5" d="M918.5,466.5c-0.1,0-0.2,0-0.2-0.1c-0.3-0.4-0.2-0.7-0.2-1c0.1-0.2,0.1-0.5,0-0.9
				c-0.1-0.6-0.3-2.4-0.4-4c-0.1-1-0.2-2.1-0.2-2.3c0-0.1-0.1-0.2-0.2-0.3c-0.3-0.3-0.6-0.7-0.8-1.4c-0.2-1.1,1.1-2.6,1.3-2.8
				c0.1-0.1,0.2-0.2,0.3-0.2c0.1,0,0,0.2-0.1,0.3c-0.3,0.5-1.1,1.9-0.9,2.6c0.1,0.6,0.4,0.9,0.6,1.2c0.2,0.2,0.3,0.3,0.4,0.5
				c0.1,0.2,0.1,0.8,0.3,2.4c0.1,1.5,0.3,3.3,0.4,3.9c0.1,0.6,0.1,0.9,0,1.2c-0.1,0.2-0.3,0.5-0.1,0.8
				C918.6,466.4,918.6,466.5,918.5,466.5z"/>
		</g>
		<g id="XMLID_250_">
			<path id="XMLID_251_" class="st5" d="M917.5,461.4c0,0-0.9-0.2-2.3-1.3c-1.8-1.5-0.8-4-0.7-4.1c0.1-0.1,0.2-0.2,0.3-0.1
				c0.1,0.1,0.2,0.2,0.1,0.3c0,0.1-1,2.2,0.6,3.5c1.4,1.2,2,1.5,2,1.5c0.1,0.1,0.2,0.1,0.2,0.2C917.6,461.5,917.5,461.4,917.5,461.4
				z"/>
		</g>
		<g id="XMLID_248_">
			<path id="XMLID_249_" class="st5" d="M917.8,465C917.8,465,917.8,465,917.8,465c-1.7-0.1-2.6-1.1-2.8-1.4c-0.1-0.1-0.1-0.3,0-0.4
				c0.1-0.1,0.2-0.1,0.3,0c0.2,0.3,0.8,1.2,2.6,1.5c0.1,0,0.2,0,0.1,0.1C918.1,465,918,465,917.8,465z"/>
		</g>
	</g>
</g>
<g id="XMLID_69_">
	<path id="XMLID_71_" class="st6" d="M541,461.5c-0.5-0.8-2.5-2-5.8-3.6s-7.4-0.8-9-0.4c-1.3,0.3-5.3,0.7-7.1,0.8c0.1-2,0-5-0.9-6
		c-1.1-1.2-2.6-3.4-2.9-5.5s0.1-4.6-0.8-5.4s-2.5-0.8-3.6,0.6c-1.1,1.4-0.7,3.8,0.1,5.4s0.6,3.2,0.6,3.2c-2,0.9-4.8,0.6-7.6,0.1
		s-3.4,0.4-4.2,1.3s-1.1,1.9-0.9,2.6s1.5,1.4,1.5,1.4c-1.2,1.5,0.1,3.5,0.1,3.5c-1.2,2.1,0.5,4.1,0.5,4.1c-0.2,1.6,1.7,3.5,3.1,3.9
		s3,0.6,6.6,0.2c3.6-0.4,6-2.1,6-2.1c10.3,1.6,18.2,0.9,21.4,0.7s3.6-1.5,3.8-1.9S541.5,462.2,541,461.5z"/>
	<g id="XMLID_68_">
		<path id="XMLID_83_" class="st7" d="M535.1,458.1c-2.4-1.1-5.2-1.2-7.2-0.9c-0.1,0-0.4,0-0.3-0.1c0.1-0.1,0.2-0.1,0.3-0.1
			c2.1-0.3,4.9-0.6,7.4,0.6c0.9,0.5,1.7,1.5,1.7,1.5C536.9,459.1,535.2,458.1,535.1,458.1z"/>
	</g>
	<g id="XMLID_75_">
		<g id="XMLID_73_">
			<path id="XMLID_81_" class="st7" d="M507.5,468.2c-1.5,0-2.6-0.2-3.6-0.4c-1.4-0.4-3.4-2.3-3.3-4c-0.3-0.4-1.6-2.3-0.5-4.3
				c0.1-0.1,0.2-0.2,0.3-0.1c0.1,0.1,0.2,0.2,0.1,0.3c-1.1,1.9,0.5,3.8,0.5,3.8l0.1,0.1l0,0.1c-0.2,1.5,1.6,3.2,2.9,3.6
				c1.2,0.3,2.8,0.6,6.5,0.2c3.5-0.4,5.9-2.1,5.9-2.1c0.1,0,0.1-0.1,0.2-0.1c0,0,1.5,0.2,1.5,0.3c0,0.1-1.4,0-1.6,0
				c-0.1,0.1-2.3,2-5.9,2.3C509.4,468.1,508.4,468.2,507.5,468.2z"/>
		</g>
		<g id="XMLID_70_">
			<path id="XMLID_77_" class="st7" d="M518.6,458.5c0,0,0-0.2,0-0.3c0.1-2.2,0.2-4.8-0.6-5.7c-1.3-1.4-2.7-3.6-2.9-5.6
				c-0.1-0.7-0.1-1.4-0.1-2.1c0-1.4-0.1-2.7-0.6-3.2c-0.4-0.4-1-0.5-1.5-0.5c-0.4,0-1.1,0.3-1.7,1.1c-1,1.3-0.7,3.5,0.1,5.1
				c0.8,1.7,0.7,3.3,0.6,3.4l0,0.1l-0.1,0.1c-2,0.9-4.7,0.6-7.8,0.1c-2.6-0.4-3.2,0.3-4,1.2l-0.1,0.1c-0.7,0.8-1.1,1.7-0.9,2.4
				c0.1,0.4,1.7,1.5,3.2,2.1c0.1,0.1,0.2,0,0.2,0.2c-0.1,0.1-0.1,0.1-0.2,0.1c-0.8-0.3-3.4-1.4-3.6-2.3c-0.2-0.9,0.1-1.9,1-2.8
				l0.1-0.1c0.8-0.9,1.5-1.8,4.4-1.3c2.9,0.5,5.5,0.8,7.3,0c0-0.4,0-1.7-0.6-3c-0.7-1.6-1.2-4.1,0-5.6c0.5-0.7,1.3-1.2,2.1-1.3
				c0.7-0.1,1.4,0,1.9,0.4c0.7,0.6,0.6,2.3,0.7,3.8c0,0.7,0,1.4,0.1,2c0.2,1.9,1.6,4,2.8,5.4c1.1,1.2,0.6,4.4,0.5,5.6
				C518.9,457.9,518.8,458.5,518.6,458.5z"/>
		</g>
		<g id="XMLID_72_">
			<path id="XMLID_78_" class="st7" d="M504.2,466.5c-0.1,0-0.2,0-0.2-0.1c-0.3-0.4-0.2-0.7-0.2-1c0.1-0.2,0.1-0.5,0-0.9
				c-0.1-0.6-0.3-2.4-0.4-4c-0.1-1-0.2-2.1-0.2-2.3c0-0.1-0.1-0.2-0.2-0.3c-0.3-0.3-0.6-0.7-0.8-1.4c-0.2-1.1,1.1-2.6,1.3-2.8
				c0.1-0.1,0.2-0.2,0.3-0.2c0.1,0,0,0.2-0.1,0.3c-0.3,0.5-1.1,1.9-0.9,2.6c0.1,0.6,0.4,0.9,0.6,1.2c0.2,0.2,0.3,0.3,0.4,0.5
				c0.1,0.2,0.1,0.8,0.3,2.4c0.1,1.5,0.3,3.3,0.4,3.9c0.1,0.6,0.1,0.9,0,1.2c-0.1,0.2-0.3,0.5-0.1,0.8
				C504.2,466.4,504.2,466.5,504.2,466.5z"/>
		</g>
		<g id="XMLID_74_">
			<path id="XMLID_80_" class="st7" d="M503.1,461.4c0,0-0.9-0.2-2.3-1.3c-1.8-1.5-0.8-4-0.7-4.1c0.1-0.1,0.2-0.2,0.3-0.1
				c0.1,0.1,0.2,0.2,0.1,0.3c0,0.1-1,2.2,0.6,3.5c1.4,1.2,2,1.5,2,1.5c0.1,0.1,0.2,0.1,0.2,0.2C503.2,461.5,503.1,461.4,503.1,461.4
				z"/>
		</g>
		<g id="XMLID_76_">
			<path id="XMLID_79_" class="st7" d="M503.5,465C503.5,465,503.4,465,503.5,465c-1.7-0.1-2.6-1.1-2.8-1.4c-0.1-0.1-0.1-0.3,0-0.4
				c0.1-0.1,0.2-0.1,0.3,0c0.2,0.3,0.8,1.2,2.6,1.5c0.1,0,0.2,0,0.1,0.1C503.7,465,503.6,465,503.5,465z"/>
		</g>
	</g>
</g>
<g id="XMLID_3717_">
	<path id="XMLID_3730_" class="st2" d="M171.9,213.3c0,0,5.6-5.5,6.4-6.5s2.7-4.4,6.4-4.4s6.4-0.4,6.8,0.1s1.1,3.7,1,4.1
		s-5.2,6.5-16.1,12.7c0,0,0.7,2.8-1.9,4.8s-4.7-0.8-5.8-2.3c0,0-2.1,2.3-3.6,2.9s-2.3-0.2-2.6-1.1c0,0-2.2,0.9-3.1,0.3
		s-1.1-1.9-1.1-1.9s-0.8,0.9-2.5,0.4s-1.8-3.4-0.6-5.4c0,0-1.1-1.1-0.9-2.6s1.3-4.1,3.7-6.2s5.7-2,7.1-1.1S169.7,210.7,171.9,213.3z
		"/>
	<g id="XMLID_3728_">
		<path id="XMLID_3729_" class="st3" d="M164.2,225.2c-0.1,0-0.1,0-0.2,0c-0.7,0-1.2-0.5-1.4-1.2c-0.5-1.8,0.9-5.3,3.5-7.1
			c3.2-2.2,4.2-1.1,4.4-0.9c0.1,0.1,0.1,0.2,0.1,0.3c0,0.1-0.1-0.1-0.2-0.2c0,0-0.9-0.9-4,1.2c-2.4,1.7-3.8,5-3.3,6.6
			c0.1,0.5,0.5,0.8,1,0.8c2.4,0.1,4.5-3.2,4.5-3.2l0.3-0.4l0.2,0.4c1.2,2.6,3.5,3.1,3.9,3.2c0.1,0,0.3,0,0.5,0c0.1,0-0.6,0.3-1.5,0
			c-0.9-0.2-2.3-0.9-3.2-2.6C168.1,223,166.3,225.2,164.2,225.2z"/>
	</g>
	<g id="XMLID_3726_">
		<path id="XMLID_3727_" class="st3" d="M160.9,224.2c-0.3,0-0.5,0-0.7-0.1c-0.3-0.1-1.1-0.3-1.6-1.2c-0.5-1.1-0.3-2.9,0.8-5.2
			c2.5-5.4,7.2-5.6,7.2-5.6c0.1,0,0.6,0,0.8,0.2c0.1,0.1-0.5,0.1-0.6,0.1c0,0-4.6,0.4-7,5.5c-1,2.2-1.3,3.8-0.8,4.8
			c0.3,0.7,1,0.9,1.2,1c0.4,0.1,1.6,0.1,2.2-0.3c0.1-0.1,0.3,0,0.3,0.1c0.1,0.1,0,0.3-0.1,0.3C162.3,224.1,161.5,224.2,160.9,224.2z
			"/>
	</g>
	<g id="XMLID_3724_">
		<path id="XMLID_3725_" class="st3" d="M156.6,222.8c-0.8,0-1.5-0.4-1.9-1.1c-1.1-2.1,0.2-4.9,1.8-7.5c1.4-2.3,3.2-3.8,5.4-4.7
			c0.7-0.3,2.3-0.5,3-0.2c0.2,0.1-0.6,0.1-0.7,0.1c-3,0.4-5.5,2.1-7.2,5c-2.1,3.5-2.6,5.5-1.8,7c0.4,0.8,1.2,0.9,1.7,0.9
			c0.8-0.1,1.4-0.5,1.5-0.8c0-0.1,0.2-0.2,0.3-0.2c0.1,0,0.2,0.2,0.2,0.3c-0.1,0.5-1,1-1.9,1.1C156.8,222.8,156.7,222.8,156.6,222.8
			z"/>
	</g>
	<g id="XMLID_3722_">
		<path id="XMLID_3723_" class="st3" d="M155.2,217.4c-0.1,0-0.1,0-0.2-0.1c-1.1-1.4-0.4-4.7,0.3-6c0.7-1.4,3.9-5.3,7.4-5.2
			c3.5,0.1,6,3.7,6.2,3.8c0.1,0.1,0.2,0.2,0.2,0.3c0,0.1-0.2,0-0.3-0.1c0,0-2.9-3.4-6.1-3.5c-3.3-0.1-6.3,3.7-6.9,4.9
			c-0.7,1.4-1.2,4.4-0.3,5.5c0.1,0.1,0.1,0.3,0,0.4C155.3,217.4,155.3,217.4,155.2,217.4z"/>
	</g>
	<g id="XMLID_3720_">
		<path id="XMLID_3721_" class="st3" d="M174.6,216.7c-0.8-1.6-2.4-3-2.5-3.1c-0.1-0.1-0.2-0.2-0.3-0.3c-0.1-0.1,0.2,0,0.3,0.1
			c0.2,0.1,1.1,0.7,1.9,1.6c1,1.3,1.2,2.8,1.2,2.7C175.1,217.7,174.6,216.8,174.6,216.7z"/>
	</g>
	<g id="XMLID_3718_">
		<path id="XMLID_3719_" class="st3" d="M181.1,203.6c0.1-0.1,1.4-2.1,4.6-1.6c0.9,0.2,1.2,0.6,1.4,0.8c0,0-1.2-0.3-1.3-0.3
			c-2.9-0.5-4.6,1.1-4.6,1.1C181.2,203.7,181,203.7,181.1,203.6z"/>
	</g>
</g>
<g id="XMLID_3703_">
	<path id="XMLID_3716_" class="st4" d="M702.2,213.3c0,0,5.6-5.5,6.4-6.5s2.7-4.4,6.4-4.4s6.4-0.4,6.8,0.1s1.1,3.7,1,4.1
		s-5.2,6.5-16.1,12.7c0,0,0.7,2.8-1.9,4.8s-4.7-0.8-5.8-2.3c0,0-2.1,2.3-3.6,2.9s-2.3-0.2-2.6-1.1c0,0-2.2,0.9-3.1,0.3
		s-1.1-1.9-1.1-1.9s-0.8,0.9-2.5,0.4s-1.8-3.4-0.6-5.4c0,0-1.1-1.1-0.9-2.6s1.3-4.1,3.7-6.2s5.7-2,7.1-1.1S700,210.7,702.2,213.3z"
		/>
	<g id="XMLID_3714_">
		<path id="XMLID_3715_" class="st5" d="M694.6,225.2c-0.1,0-0.1,0-0.2,0c-0.7,0-1.2-0.5-1.4-1.2c-0.5-1.8,0.9-5.3,3.5-7.1
			c3.2-2.2,4.2-1.1,4.4-0.9c0.1,0.1,0.1,0.2,0.1,0.3c0,0.1-0.1-0.1-0.2-0.2c0,0-0.9-0.9-4,1.2c-2.4,1.7-3.8,5-3.3,6.6
			c0.1,0.5,0.5,0.8,1,0.8c2.4,0.1,4.5-3.2,4.5-3.2l0.3-0.4l0.2,0.4c1.2,2.6,3.5,3.1,3.9,3.2c0.1,0,0.3,0,0.5,0c0.1,0-0.6,0.3-1.5,0
			c-0.9-0.2-2.3-0.9-3.2-2.6C698.5,223,696.7,225.2,694.6,225.2z"/>
	</g>
	<g id="XMLID_3712_">
		<path id="XMLID_3713_" class="st5" d="M691.2,224.2c-0.3,0-0.5,0-0.7-0.1c-0.3-0.1-1.1-0.3-1.6-1.2c-0.5-1.1-0.3-2.9,0.8-5.2
			c2.5-5.4,7.2-5.6,7.2-5.6c0.1,0,0.6,0,0.8,0.2c0.1,0.1-0.5,0.1-0.6,0.1c0,0-4.6,0.4-7,5.5c-1,2.2-1.3,3.8-0.8,4.8
			c0.3,0.7,1,0.9,1.2,1c0.4,0.1,1.6,0.1,2.2-0.3c0.1-0.1,0.3,0,0.3,0.1c0.1,0.1,0,0.3-0.1,0.3C692.7,224.1,691.9,224.2,691.2,224.2z
			"/>
	</g>
	<g id="XMLID_3710_">
		<path id="XMLID_3711_" class="st5" d="M687,222.8c-0.8,0-1.5-0.4-1.9-1.1c-1.1-2.1,0.2-4.9,1.8-7.5c1.4-2.3,3.2-3.8,5.4-4.7
			c0.7-0.3,2.3-0.5,3-0.2c0.2,0.1-0.6,0.1-0.7,0.1c-3,0.4-5.5,2.1-7.2,5c-2.1,3.5-2.6,5.5-1.8,7c0.4,0.8,1.2,0.9,1.7,0.9
			c0.8-0.1,1.4-0.5,1.5-0.8c0-0.1,0.2-0.2,0.3-0.2c0.1,0,0.2,0.2,0.2,0.3c-0.1,0.5-1,1-1.9,1.1C687.2,222.8,687.1,222.8,687,222.8z"
			/>
	</g>
	<g id="XMLID_3708_">
		<path id="XMLID_3709_" class="st5" d="M685.6,217.4c-0.1,0-0.1,0-0.2-0.1c-1.1-1.4-0.4-4.7,0.3-6c0.7-1.4,3.9-5.3,7.4-5.2
			c3.5,0.1,6,3.7,6.2,3.8c0.1,0.1,0.2,0.2,0.2,0.3c0,0.1-0.2,0-0.3-0.1c0,0-2.9-3.4-6.1-3.5c-3.3-0.1-6.3,3.7-6.9,4.9
			c-0.7,1.4-1.2,4.4-0.3,5.5c0.1,0.1,0.1,0.3,0,0.4C685.7,217.4,685.7,217.4,685.6,217.4z"/>
	</g>
	<g id="XMLID_3706_">
		<path id="XMLID_3707_" class="st5" d="M705,216.7c-0.8-1.6-2.4-3-2.5-3.1c-0.1-0.1-0.2-0.2-0.3-0.3c-0.1-0.1,0.2,0,0.3,0.1
			c0.2,0.1,1.1,0.7,1.9,1.6c1,1.3,1.2,2.8,1.2,2.7C705.5,217.7,705,216.8,705,216.7z"/>
	</g>
	<g id="XMLID_3704_">
		<path id="XMLID_3705_" class="st5" d="M711.5,203.6c0.1-0.1,1.4-2.1,4.6-1.6c0.9,0.2,1.2,0.6,1.4,0.8c0,0-1.2-0.3-1.3-0.3
			c-2.9-0.5-4.6,1.1-4.6,1.1C711.6,203.7,711.4,203.7,711.5,203.6z"/>
	</g>
</g>
</svg>
