<?xml version="1.0" encoding="utf-8"?>
<!-- Generator: Adobe Illustrator 19.0.0, SVG Export Plug-In . SVG Version: 6.00 Build 0)  -->
<svg version="1.1" id="Camada_1" xmlns="http://www.w3.org/2000/svg" xmlns:xlink="http://www.w3.org/1999/xlink" x="0px" y="0px"
	 viewBox="0 0 297.6 425.2" style="enable-background:new 0 0 297.6 425.2;" xml:space="preserve">
<style type="text/css">
	.st0{fill:#6B6661;}
	.st1{fill:#3F3B37;}
	.st2{fill:#2B2927;}
	.st3{fill:#56514C;}
</style>
<g id="XMLID_1696_">
	<g id="XMLID_1764_">
		<path id="XMLID_1765_" class="st0" d="M181.2,182.7c-0.8,0-1.6-0.5-1.9-1.4c-0.4-1,0.2-2.2,1.2-2.5l9-3.1c1-0.4,2.2,0.2,2.5,1.2
			c0.4,1-0.2,2.2-1.2,2.5l-9,3.1C181.6,182.6,181.4,182.7,181.2,182.7z"/>
	</g>
	<g id="XMLID_1729_">
		<g id="XMLID_1736_">
			<path id="XMLID_1737_" class="st1" d="M182.4,177.2c1.1,0.9,2,2.5,2,4.2c0,1.9-0.8,3.5-2,4.5c-0.7,0.6-19.2,7.9-19.2,7.9l-1.6-11
				l15.8-6C177.4,176.8,180.5,175.6,182.4,177.2z"/>
			<ellipse id="XMLID_1735_" class="st2" cx="162.7" cy="188.2" rx="4.6" ry="5.6"/>
		</g>
		<g id="XMLID_1730_">
			<path id="XMLID_1731_" class="st0" d="M154.5,278.3c-1.4,0-2.5-1.1-2.5-2.5v-64.7c0-0.7,0-1.4,0-2.2c-0.1-7.4-0.2-16.7,8.8-22.9
				c1.1-0.8,2.7-0.5,3.5,0.6c0.8,1.1,0.5,2.7-0.6,3.5c-6.8,4.7-6.7,11.5-6.6,18.7c0,0.8,0,1.5,0,2.2v64.7
				C157,277.2,155.9,278.3,154.5,278.3z"/>
		</g>
		<g id="XMLID_1732_">
			<g id="XMLID_1733_">
				<ellipse id="XMLID_1734_" class="st3" cx="156.8" cy="285.7" rx="9.1" ry="12.6"/>
				<ellipse id="XMLID_1738_" class="st1" cx="159.1" cy="285.7" rx="6.8" ry="10.3"/>
			</g>
			<ellipse id="XMLID_1761_" class="st0" cx="159.5" cy="285.7" rx="3.7" ry="5.5"/>
		</g>
	</g>
</g>
</svg>
