<?xml version="1.0" encoding="utf-8"?>
<!-- Generator: Adobe Illustrator 19.0.0, SVG Export Plug-In . SVG Version: 6.00 Build 0)  -->
<svg version="1.1" id="Camada_1" xmlns="http://www.w3.org/2000/svg" xmlns:xlink="http://www.w3.org/1999/xlink" x="0px" y="0px"
	 viewBox="0 0 297.6 425.2" style="enable-background:new 0 0 297.6 425.2;" xml:space="preserve">
<style type="text/css">
	.st0{fill:#3F3B37;}
	.st1{fill:#5F5A57;}
	.st2{fill:#56514C;}
	.st3{fill:#2D2B29;}
	.st4{fill:#2B2927;}
	.st5{fill:#6B6661;}
	.st6{fill:#232120;}
	.st7{fill:#494541;}
</style>
<g id="XMLID_1796_">
	<g id="XMLID_1766_">
		<g id="XMLID_1767_">
			<path id="XMLID_1768_" class="st0" d="M199.5,142c-0.9,0-1.6-0.2-2.3-0.7c-4.6-3.1-7.7-4.4-7.7-4.4c-2.1-0.7-3.2-3-2.5-5.1
				c0.7-2.1,3-3.2,5.1-2.5c0.2,0.1,5.4,1.9,10.9,6.1c1.4,1.1,1.3,3.7-0.2,5.2C201.8,141.4,200.7,142,199.5,142z"/>
		</g>
		<g id="XMLID_1759_">
			<path id="XMLID_1762_" class="st1" d="M184.7,202.2c-0.1,0-0.1,0-0.2,0c-1.9-0.1-3.4-1.8-3.3-3.7l3-56.5
				c-0.1-1.8-0.1-8.6,3.9-11.6c1.5-1.2,3.7-0.9,4.9,0.7c1.2,1.5,0.9,3.7-0.7,4.9c-0.6,0.5-1.2,3.3-1.1,5.9l0,0.2l0,0.2l-3,56.7
				C188.1,200.7,186.6,202.2,184.7,202.2z"/>
		</g>
	</g>
	<g id="XMLID_1791_">
		<g id="XMLID_1774_">
			<path id="XMLID_1804_" class="st2" d="M93.5,192.8c-7.4,6.2-12.7,19.5-12.9,34.9c-0.3,21.4,9.3,38.9,21.3,38.9
				c0.4,0,6.1,0.2,8.6-1.3c-0.1-0.5-2.3-2.5-2.2-3l-0.7,0.5c-1-0.3-4.2,0.3-4.1-0.4c-0.1-0.3-0.1-0.7-0.2-1
				c-9.4-0.3-16.9-15.4-16.6-33.9c0.3-18.7,8.2-33.8,17.8-33.8c0.3,0,1.1-0.1,1.1-0.2c0.4-1.3,4-2.9,4.7-4.1
				C103,186.7,97,190,93.5,192.8z"/>
			<polygon id="XMLID_1803_" class="st3" points="108.1,191.4 112.1,192 118.5,197.1 123.2,203.2 127.1,216.6 126.5,230.1 
				125.8,238.2 122.9,249.9 118.5,255.7 113.3,261.3 108.7,263 101,261.9 97.3,258.7 93.5,253.3 90.9,247.5 88.5,239.3 88,231.2 
				87.4,219.1 89.2,212.4 92.7,203.4 95.4,199.1 99.2,194.9 			"/>
			<path id="XMLID_1800_" class="st0" d="M106.4,188.8C94.3,188.7,84.3,206,84,227.5c-0.3,21.4,9.3,38.9,21.3,38.9
				c12.1,0.1,22.1-17.3,22.4-38.7S118.5,188.8,106.4,188.8z M124.8,227.4c-0.3,18.7-8.2,33.8-17.8,33.8S89.9,246,90.2,227.3
				c0.3-18.7,8.2-33.8,17.8-33.8C117.5,193.6,125.1,208.7,124.8,227.4z"/>
		</g>
		<g id="XMLID_1775_">
			<g id="XMLID_1786_">
				<g id="XMLID_1789_">
					<path id="XMLID_1790_" class="st0" d="M140.3,141.8c-0.9,0-9.9-4.6-9.9-4.6c-2.1-0.7-3.2-3-2.5-5.1c0.7-2.1,3-3.2,5.1-2.5
						c0.2,0.1,5.3,1.4,10.7,5.6c1.4,1.1,1.3,3.7-0.2,5.2C142.6,141.3,141.5,141.8,140.3,141.8z"/>
				</g>
				<g id="XMLID_1787_">
					<path id="XMLID_1788_" class="st1" d="M126.8,195.2c-0.1,0-0.1,0-0.2,0c-1.9-0.1-3.4-1.8-3.3-3.7l1.8-49.2
						c-0.1-1.8-0.1-8.6,3.9-11.6c1.5-1.2,3.7-0.9,4.9,0.7c1.2,1.5,0.9,3.7-0.7,4.9c-0.6,0.5-1.2,3.3-1.1,5.9l0,0.2l0,0.2l-1.8,49.3
						C130.2,193.7,128.7,195.2,126.8,195.2z"/>
				</g>
			</g>
			<g id="XMLID_1773_">
				<g id="XMLID_1783_">
					<path id="XMLID_1785_" class="st0" d="M118.1,177.1c1.1,0.9,2,2.5,2,4.2c0,1.9-0.8,3.5-2,4.5c-0.7,0.6-19.5,6-19.5,6l-1.6-11
						l16.1-4C113.2,176.8,116.3,175.5,118.1,177.1z"/>
					<ellipse id="XMLID_1784_" class="st4" cx="98.2" cy="186.2" rx="4.6" ry="5.6"/>
				</g>
				<g id="XMLID_1781_">
					<path id="XMLID_1782_" class="st5" d="M90,269.5c-1.4,0-2.5-1.1-2.5-2.5v-57.8c0-0.7,0-1.4,0-2.2c-0.1-7.4-0.2-16.7,8.8-22.9
						c1.1-0.8,2.7-0.5,3.5,0.6c0.8,1.1,0.5,2.7-0.6,3.5c-6.8,4.7-6.7,11.5-6.6,18.7c0,0.8,0,1.5,0,2.2V267
						C92.5,268.4,91.4,269.5,90,269.5z"/>
				</g>
				<g id="XMLID_1776_">
					<g id="XMLID_1778_">
						<ellipse id="XMLID_1780_" class="st2" cx="87" cy="270.3" rx="8.6" ry="10.2"/>
						<ellipse id="XMLID_1779_" class="st0" cx="89.2" cy="270.3" rx="6.4" ry="8.4"/>
					</g>
					<ellipse id="XMLID_1777_" class="st5" cx="89.5" cy="270.3" rx="3.5" ry="4.5"/>
				</g>
			</g>
		</g>
	</g>
	<g id="XMLID_1760_">
		<path id="XMLID_1763_" class="st1" d="M154.3,271.2c-0.5,0-1-0.3-1.3-0.8c-0.4-0.7-0.2-1.6,0.6-2l17.4-10l-1.5-7.1l-41-6.5
			c-0.8-0.1-1.4-0.9-1.2-1.7c0.1-0.8,0.9-1.4,1.7-1.2l43,6.8l2.5,11.2l-19.3,11C154.8,271.1,154.6,271.2,154.3,271.2z"/>
	</g>
	<g id="XMLID_1794_">
		<path id="XMLID_1792_" class="st6" d="M123.3,175.7c0,0,0.3-27.7,1-30.5c0.7-2.8,1.7-4,5.7-4c4,0,48-0.8,54.2,0
			c6.2,0.8,8,2.3,8.3,3.8c0.3,1.5-3.5,29.2-3.7,32.7l-3.3,1.8C185.5,179.5,144.8,179,123.3,175.7z"/>
		<path id="XMLID_1795_" class="st3" d="M174.3,211l-22.8,9.5c0,0-33.6,0.2-60.4-7.4l0.1-3.9l38.7-6.8c0,0,37.8,3,49.5,0.8
			C179.3,203.2,181.7,206.8,174.3,211z"/>
		<path id="XMLID_1793_" class="st6" d="M175.3,207l-22.8,9.5c0,0-34.5,0.2-61.3-7.5c0,0,6.7-1.5,13.2-3.8
			c6.5-2.3,26.5-6.8,26.5-6.8s37.3,5.5,49,3.3C179.8,201.7,182.7,202.8,175.3,207z"/>
	</g>
	<g id="XMLID_1757_">
		<path id="XMLID_1741_" class="st2" d="M184.3,194c-8.5,6.6-15.2,21.5-16.6,39.3c-1.9,24.7,7.2,45.5,20.3,46.5
			c0.4,0,6.6,0.7,9.5-0.8c-0.1-0.6-2.3-3-2.2-3.7l-0.8,0.5c-1-0.4-4.5,0.1-4.4-0.8c0-0.4-0.1-0.8-0.1-1.2
			c-10.3-1.1-17.2-19.1-15.5-40.4c1.7-21.5,11.4-38.3,21.8-37.5c0.4,0,1.2,0,1.2-0.1c0.6-1.5,4.6-3,5.4-4.4
			C195.1,187.8,188.3,191.1,184.3,194z"/>
		<polygon id="XMLID_1755_" class="st6" points="200.3,193.5 204.5,194.5 211.2,200.9 215.8,208.4 219,224.1 217.4,239.6 216,248.9 
			212,262.1 206.8,268.5 200.8,274.5 195.7,276.1 187.3,274.2 183.5,270.2 179.8,263.8 177.4,256.9 175.4,247.2 175.4,237.9 
			175.7,223.9 178.2,216.2 182.7,206.1 185.9,201.4 190.3,196.9 		"/>
		<path id="XMLID_1747_" class="st0" d="M198.6,190.4c-13.1-1-25.3,18.2-27.2,42.9c-1.9,24.7,7.2,45.5,20.3,46.5
			c13.1,1,25.3-18.2,27.2-42.9C220.9,212.2,211.8,191.4,198.6,190.4z M215.8,236.4c-1.7,21.5-11.4,38.3-21.8,37.5
			c-10.4-0.8-17.5-18.9-15.8-40.4c1.7-21.5,11.4-38.3,21.8-37.5S217.4,214.9,215.8,236.4z"/>
		<g id="XMLID_1739_">
			<g id="XMLID_1740_">
				<path id="XMLID_1752_" class="st2" d="M186,238.1h-4.2c-1.1,0-2-0.9-2-2s0.9-2,2-2h4.2c1.1,0,2,0.9,2,2S187.1,238.1,186,238.1z"
					/>
			</g>
			<g id="XMLID_1753_">
				<path id="XMLID_1754_" class="st2" d="M218.8,236.6h-4.2c-1.1,0-2-0.9-2-2s0.9-2,2-2h4.2c1.1,0,2,0.9,2,2
					S219.9,236.6,218.8,236.6z"/>
			</g>
			<g id="XMLID_1748_">
				<path id="XMLID_1751_" class="st2" d="M202.8,201.4h-6.9c-1.1,0-2-0.9-2-2s0.9-2,2-2h6.9c1.1,0,2,0.9,2,2
					S203.9,201.4,202.8,201.4z"/>
			</g>
			<g id="XMLID_1749_">
				<path id="XMLID_1750_" class="st2" d="M199.5,272.5h-6.4c-1.1,0-2-0.9-2-2s0.9-2,2-2h6.4c1.1,0,2,0.9,2,2
					S200.6,272.5,199.5,272.5z"/>
			</g>
		</g>
		<path id="XMLID_1745_" class="st5" d="M206.2,196.7c-9.9-0.8-19.3,15.7-20.9,36.8c-1.6,21.1,5.1,38.8,15,39.6
			c9.9,0.8,19.3-15.7,20.9-36.8C222.9,215.2,216.2,197.5,206.2,196.7z M217.7,235.7c-1.3,18.6-8.6,33.2-16.3,32.6
			c-7.7-0.5-12.9-16-11.6-34.6c1.3-18.6,8.6-33.2,16.3-32.6C213.8,201.7,219,217.1,217.7,235.7z"/>
		<path id="XMLID_1758_" class="st2" d="M203.6,234.8c-0.3,3.7,0,9.5-2.2,9.9c-3.1,0.6-4.3-0.2-4.8-0.6c-1.8-1.5-2.9-5.4-2.6-9.9
			c0.3-4.8,2.1-8.7,4.3-9.7c0.4-0.2,1.9-0.8,4.1-0.2C204.6,224.8,203.8,231.1,203.6,234.8z"/>
		
			<ellipse id="XMLID_1756_" transform="matrix(0.9977 6.804553e-02 -6.804553e-02 0.9977 16.4227 -13.1867)" class="st5" cx="201.8" cy="234.5" rx="4.8" ry="10.3"/>
	</g>
	<g id="XMLID_1770_">
		<polygon id="XMLID_1771_" class="st3" points="139.3,270.7 137.7,281.4 74.2,266.8 74.2,262.5 		"/>
		<polygon id="XMLID_1772_" class="st0" points="152.8,272.4 137.7,281.4 137.7,277.2 147.4,268.6 152.8,268.2 		"/>
		<polygon id="XMLID_1769_" class="st7" points="152.8,268.2 137.7,277.2 74.2,262.5 93,255 		"/>
	</g>
</g>
<g id="XMLID_1696_">
	<g id="XMLID_1764_">
		<path id="XMLID_1765_" class="st5" d="M181.2,182.7c-0.8,0-1.6-0.5-1.9-1.4c-0.4-1,0.2-2.2,1.2-2.5l9-3.1c1-0.4,2.2,0.2,2.5,1.2
			c0.4,1-0.2,2.2-1.2,2.5l-9,3.1C181.6,182.6,181.4,182.7,181.2,182.7z"/>
	</g>
	<g id="XMLID_1729_">
		<g id="XMLID_1736_">
			<path id="XMLID_1737_" class="st0" d="M182.4,177.2c1.1,0.9,2,2.5,2,4.2c0,1.9-0.8,3.5-2,4.5c-0.7,0.6-19.2,7.9-19.2,7.9l-1.6-11
				l15.8-6C177.4,176.8,180.5,175.6,182.4,177.2z"/>
			<ellipse id="XMLID_1735_" class="st4" cx="162.7" cy="188.2" rx="4.6" ry="5.6"/>
		</g>
		<g id="XMLID_1730_">
			<path id="XMLID_1731_" class="st5" d="M154.5,278.3c-1.4,0-2.5-1.1-2.5-2.5v-64.7c0-0.7,0-1.4,0-2.2c-0.1-7.4-0.2-16.7,8.8-22.9
				c1.1-0.8,2.7-0.5,3.5,0.6c0.8,1.1,0.5,2.7-0.6,3.5c-6.8,4.7-6.7,11.5-6.6,18.7c0,0.8,0,1.5,0,2.2v64.7
				C157,277.2,155.9,278.3,154.5,278.3z"/>
		</g>
		<g id="XMLID_1732_">
			<g id="XMLID_1733_">
				<ellipse id="XMLID_1734_" class="st2" cx="156.8" cy="285.7" rx="9.1" ry="12.6"/>
				<ellipse id="XMLID_1738_" class="st0" cx="159.1" cy="285.7" rx="6.8" ry="10.3"/>
			</g>
			<ellipse id="XMLID_1761_" class="st5" cx="159.5" cy="285.7" rx="3.7" ry="5.5"/>
		</g>
	</g>
</g>
</svg>
