<?xml version="1.0" encoding="utf-8"?>
<!-- Generator: Adobe Illustrator 19.0.0, SVG Export Plug-In . SVG Version: 6.00 Build 0)  -->
<svg version="1.1" id="Camada_1" xmlns="http://www.w3.org/2000/svg" xmlns:xlink="http://www.w3.org/1999/xlink" x="0px" y="0px"
	 viewBox="0 0 297.6 425.2" style="enable-background:new 0 0 297.6 425.2;" xml:space="preserve">
<style type="text/css">
	.st0{fill:#FFFFFF;}
	.st1{fill:#302727;}
	.st2{fill:#211B1B;}
</style>
<g id="XMLID_363_">
	<ellipse id="XMLID_786_" class="st0" cx="134.4" cy="213.7" rx="6.8" ry="7.5"/>
	<path id="XMLID_785_" class="st0" d="M170.3,213.2c0,4.4-3.5,7.6-7.9,7.6s-8.1-3.2-8.1-7.6s3.6-7.9,8-7.9
		C166.7,205.3,170.3,208.9,170.3,213.2z"/>
	<g id="XMLID_681_">
		<path id="XMLID_783_" class="st1" d="M135.8,208.2c-3,0-5.5,2.7-5.5,6.1c0,3.4,2.5,6.1,5.5,6.1s5.5-2.7,5.5-6.1
			C141.3,210.9,138.8,208.2,135.8,208.2z"/>
		<path id="XMLID_682_" class="st1" d="M168.5,210.2c0.1,0,0.3-0.6,0.4-0.6c0.1,0-0.7-0.8-0.6-0.8c-1.1-1.1-2.8-1.9-5.2-1.9
			c-3-0.1-6.2,3.1-6.2,6.6c0,3.5,2.5,6.5,6.8,6.6c3,0,6.3-3.3,6.3-6.8c0-1.1-0.2-2.2-0.7-3.1c0,0.1-0.1,0.1-0.1,0.2
			c0.1,0.4,0.1,0.9,0,1.4"/>
	</g>
	<g id="XMLID_678_">
		<path id="XMLID_680_" class="st2" d="M140.6,213.5c0.2,0,0.4-0.1,0.7-0.1c-0.4-3-2.7-5.3-5.4-5.3c-3,0-5.5,2.7-5.5,6.1
			c0,1.5,0.5,2.9,1.3,3.9C134,215.6,137,214,140.6,213.5z"/>
		<path id="XMLID_679_" class="st2" d="M168.8,212.4c0.4-0.1,0.8-0.2,1.2-0.3c-0.1-0.7-0.3-1.4-0.6-2c0,0.1-0.1,0.1-0.1,0.2
			c0.1,0.4,0.1,0.9,0,1.4l-0.7-1.5c0.1,0,0.3-0.6,0.4-0.6c0.1,0-0.7-0.8-0.6-0.8c-1.1-1.1-2.8-1.9-5.2-1.9c-3-0.1-6.2,3.1-6.2,6.6
			c0,1.4,0.4,2.8,1.2,3.9C161.3,214.4,164.9,213.4,168.8,212.4z"/>
	</g>
	<g id="XMLID_675_">
		<path id="XMLID_677_" d="M136.8,211.4c0.5,0.1,2.6-0.3,2.6,0.1c0.2-0.1,0.4-0.1,0.6,0c0.3,0.1,0.5,0.1,0.7,0.2
			c-0.9-2.1-2.8-3.6-5-3.6c-2.9,0-5.3,2.6-5.5,5.8c1.2-1.6,2.8-2.9,4.7-3.4C135.6,210.4,136.3,211.3,136.8,211.4z"/>
		<path id="XMLID_676_" d="M166.2,209.3C166.2,209.3,166.2,209.3,166.2,209.3C166.2,209.3,166.2,209.3,166.2,209.3
			c0.1,0,0.2,0,0.3,0c1.4,0.2,1,2.4-0.3,2.4c-0.4,0-0.7,0-1.1,0.1c0.1,0.2,0.2,0.4,0.2,0.6c0.6-0.1,1.2-0.2,1.8-0.4c0,0,0,0,0,0
			c-0.1-0.5,0.1-1.2,0.7-1.4c0.2-0.3,0.5-0.4,0.8-0.5c0.1-0.2,0.3-0.5,0.3-0.5c0.1,0-0.7-0.8-0.6-0.8c-1.1-1.1-2.8-1.9-5.2-1.9
			c-2.8-0.1-5.8,2.7-6.2,5.8C159.3,210.1,162.6,208.9,166.2,209.3z"/>
	</g>
	<g id="Ydekt1.tif_7_">
		<g id="XMLID_672_">
			<path id="XMLID_674_" d="M170.9,211.1c-0.1-0.9-0.4-1.7-0.8-2.5c-0.1-0.3-0.3-0.6-0.5-0.8c-0.3-0.4-1.6-2-4-3
				c-0.4-0.2-0.8-0.2-1.2-0.3c-0.1,0-1.6-0.5-3.7,0c-0.2,0.1-0.5,0.1-0.7,0.2c-0.3,0.1-0.6,0.2-0.9,0.3c-0.2,0.1-0.4,0.2-0.5,0.3
				c-0.4,0.2-0.7,0.4-1,0.6c-0.3,0.2-0.5,0.4-0.8,0.6c-0.6,0.5-2.5,2.7-2.7,5.2c-0.1,0.8-0.1,1.6,0.1,2.3c0,0.1,0.1,0.1,0.2,0.2
				c0.1-0.1,0.2-0.1,0.2-0.2c0.1-0.6,0.3-1.3,0.5-1.9c0.2-0.6,0.6-2.7,3.1-4.7c0.4-0.3,0.9-0.6,1.4-0.8c0.6-0.3,1.3-0.5,2-0.6
				c1.1-0.2,2.2-0.1,3.2,0.2c0.1,0,0.3,0.1,0.4,0.1c2.9,1.3,4.2,2.9,4.8,5.9c0.5,1.4,0.2,2.4,0.1,3.6c0,0,0-0.1,0.1-0.1
				c0.1-0.4,0.6-0.6,0.7-1C171.1,213.5,171.1,212.3,170.9,211.1z"/>
			<path id="XMLID_673_" d="M140.9,209.7c-0.3-0.8-0.9-1.6-1.5-2.2c-0.8-0.8-1.7-1.5-2.8-1.8c-0.6-0.2-1.3-0.4-1.9-0.4
				c-0.6,0-1.1,0-1.7,0.1c-0.6,0.1-1.2,0.3-1.8,0.6c-0.7,0.3-1.3,0.8-1.9,1.3c-0.7,0.6-1.2,1.4-1.5,2.3c-0.4,1-0.7,2-0.7,3
				c0,0.5,0.1,0.9,0.1,1.4c0,0.4,0.1,0.7,0.3,1c0,0,0.1,0.1,0.1,0.1c0,0,0.1-0.4,0.1-0.5c0-0.8,0.2-1.4,0.3-2.2
				c0-0.2,0.1-0.4,0.2-0.6c0-0.1,0-0.2,0.1-0.2c0.1-0.4,0.3-0.9,0.6-1.2c0.1-0.2,0.2-0.3,0.3-0.5c0.5-0.7,1.1-1.4,1.8-1.9
				c1-0.7,2.1-1.1,3.4-1c0.7,0,1.4,0.1,2,0.4c0.5,0.2,1.1,0.5,1.5,0.9c2.3,2.4,3.1,5.3,3.3,8c0-0.1,0.1-0.2,0.1-0.3
				C141.3,215.7,141.9,212.3,140.9,209.7z"/>
		</g>
	</g>
	<ellipse id="XMLID_671_" cx="136.2" cy="214.2" rx="3.3" ry="3.8"/>
	<ellipse id="XMLID_670_" class="st0" cx="138.4" cy="212.6" rx="2.3" ry="2.2"/>
	<circle id="XMLID_669_" cx="163.9" cy="213" r="4.1"/>
	<ellipse id="XMLID_668_" class="st0" cx="166.8" cy="211" rx="2.7" ry="2.5"/>
</g>
</svg>
