<?xml version="1.0" encoding="utf-8"?>
<!-- Generator: Adobe Illustrator 19.0.0, SVG Export Plug-In . SVG Version: 6.00 Build 0)  -->
<svg version="1.1" id="Camada_1" xmlns="http://www.w3.org/2000/svg" xmlns:xlink="http://www.w3.org/1999/xlink" x="0px" y="0px"
	 viewBox="0 0 297.6 425.2" style="enable-background:new 0 0 297.6 425.2;" xml:space="preserve">
<style type="text/css">
	.st0{fill:#FFFFFF;}
	.st1{fill:#71993F;}
	.st2{fill:#557D3A;}
	.st3{fill:#386534;}
</style>
<g id="XMLID_635_">
	<g id="XMLID_592_">
		<g id="XMLID_621_">
			<path id="XMLID_623_" class="st0" d="M126.9,219c-0.5-0.8-2.6-7.2,0.1-9.8c2.7-2.6,4.8-3,7.6-1.8s4.2,4.6,4.6,6.8
				s0.8,6.9-2.8,7.8S128.6,222,126.9,219z"/>
			<path id="XMLID_622_" class="st0" d="M170.3,216.7c0.4-0.9,2.1-7.1-3.6-10.2c-3.3-1.8-5.9-1.4-8.7,0c-4.6,2.3-5.2,5.7-5.9,7.8
				c-0.9,2.9-1.3,6.9,2.3,7.9S167.1,223.3,170.3,216.7z"/>
		</g>
		<g id="XMLID_618_">
			<path id="XMLID_620_" class="st1" d="M139.2,213.6c0.9,4.1,0,7.8-2.4,8.3s-5.4-3-6.3-7.1s0.4-7.3,2.8-7.8
				C135.7,206.5,138.3,209.4,139.2,213.6z"/>
			<path id="XMLID_619_" class="st1" d="M164.7,205.9c0,0,4.6-0.1,4.5,7.1c0,7.2-4.5,8.2-6.5,8.4c-2.1,0.2-6.5-2.5-5.2-9.2
				S164.7,205.9,164.7,205.9z"/>
		</g>
		<g id="XMLID_615_">
			<path id="XMLID_617_" class="st2" d="M139.4,214.5c0-0.3-0.1-0.6-0.2-0.9c-0.9-4.1-3.6-7.1-5.9-6.6c-2.4,0.5-3.6,3.6-2.8,7.8
				c0.3,1.6,1,3.1,1.8,4.3C133.9,216.6,136.6,215.2,139.4,214.5z"/>
			<path id="XMLID_616_" class="st2" d="M163.3,214.9c1.6-0.7,3.3-1.1,4.9-1.4c0.3-0.1,0.6-0.2,0.9-0.2c0-0.1,0-0.1,0-0.2
				c0-7.2-4.5-7.1-4.5-7.1s-5.8-0.5-7.2,6.2c-0.5,2.6-0.2,4.5,0.5,6C159.6,216.8,161.4,215.7,163.3,214.9z"/>
		</g>
		<g id="XMLID_612_">
			<path id="XMLID_614_" class="st3" d="M136.3,210.9c1.6,0.1,1.5,2.3,0,2.4c0,0,0,0,0,0c0.3,0.3,0.3,0.7,0.1,1.1
				c0.8-0.6,1.7-1,2.7-1.4c-1-3.9-3.5-6.6-5.8-6.1c-2.2,0.5-3.4,3.1-2.9,6.6C131.7,211.7,133.8,210.7,136.3,210.9z"/>
			<path id="XMLID_613_" class="st3" d="M163.9,209.4c0.7-0.1,1.1,0.4,1.2,0.9c0.4-0.2,0.8-0.3,1.3-0.3c0.4-0.4,0.9-0.6,1.5-0.3
				c0.5,0.3,0.9,0.6,1.2,1c-0.8-4.9-4.4-4.8-4.4-4.8s-5.6-0.5-7.1,5.9C159.3,210.3,161.5,209.6,163.9,209.4z"/>
		</g>
		
			<ellipse id="XMLID_611_" transform="matrix(0.978 -0.2087 0.2087 0.978 -41.8412 33.1257)" cx="136" cy="214.8" rx="2.4" ry="4.2"/>
		
			<ellipse id="XMLID_610_" transform="matrix(0.9992 4.013759e-02 -4.013759e-02 0.9992 8.7014 -6.3953)" cx="163.6" cy="213.5" rx="2.7" ry="4.5"/>
		<g id="XMLID_596_">
			
				<ellipse id="XMLID_609_" transform="matrix(0.9869 -0.1616 0.1616 0.9869 -31.9431 29.772)" class="st0" cx="167.1" cy="211.3" rx="2.1" ry="3.7"/>
			
				<ellipse id="XMLID_608_" transform="matrix(0.9742 -0.2257 0.2257 0.9742 -44.5164 36.5536)" class="st0" cx="137.6" cy="213" rx="1.4" ry="3.2"/>
		</g>
		<g id="XMLID_593_">
			<path id="XMLID_595_" d="M126.4,218.8c-0.3-0.5-1.9-3.6-1.5-7c0.4-3.4,3.3-5.5,6.6-5.9c3.2-0.3,6.7,2.3,7.8,6.8s0.3,4.4,0.3,4.4
				s-0.5-4.3-2.4-7.2c-2-3-6.4-3.4-9-1c-2.5,2.4-2.1,6.2-1.7,7.8c0.4,1.6,1.1,3.1,0.9,3.3C127.3,220.1,126.4,218.8,126.4,218.8z"/>
			<path id="XMLID_594_" d="M151.4,214.7c0.1-1,1.3-5.8,5.8-8.7c1.9-1.2,3.8-1.7,5.5-1.7c2.3,0,4.1,0.3,5.9,1.3
				c3.5,2,4.2,6.7,1.9,11.5c0,0-0.5,1-0.1-1s0.7-6.1-2.7-8.5s-9.1-1.3-12.2,1.5c-3.1,2.8-3.8,7.2-3.8,7.2S151.3,216.2,151.4,214.7z"
				/>
		</g>
	</g>
	<g id="XMLID_21_">
		<path id="XMLID_29_" d="M126.6,218.9c0.4,1.3-2.5-3.9-3.1-8.8c0,0-0.1-1.8,0.5-0.8c0.7,1,1.4,1.5,1.4,1.5s-1.1-2.4-1.1-4
			c-0.1-1.6,0.5-0.9,0.7-0.7c0.2,0.2,2,1.2,4.2,0.5c0,0,1.2-0.2,0.5,0.8C129.7,207.3,123.7,209.1,126.6,218.9z"/>
		<path id="XMLID_31_" d="M170.5,217.1c0,0,2.6-5.8,2.7-9.7c0,0,0.1-1.3-0.6-0.7c-0.7,0.6-1.7,0.8-1.9,0.7c0,0,1.3-1.6,1.2-3.2
			c-0.1-1.6-0.2-0.7-1.4-0.2s-1.8,1.1-5.5,0.4c0,0-0.7,0.1,2.6,2C170.3,208.1,172.2,210.7,170.5,217.1z"/>
	</g>
</g>
</svg>
