<?xml version="1.0" encoding="utf-8"?>
<!-- Generator: Adobe Illustrator 19.0.0, SVG Export Plug-In . SVG Version: 6.00 Build 0)  -->
<svg version="1.1" id="Camada_1" xmlns="http://www.w3.org/2000/svg" xmlns:xlink="http://www.w3.org/1999/xlink" x="0px" y="0px"
	 viewBox="0 0 297.6 425.2" style="enable-background:new 0 0 297.6 425.2;" xml:space="preserve">
<style type="text/css">
	.st0{fill:#FFFFFF;}
	.st1{fill:#302727;}
	.st2{fill:#211B1B;}
</style>
<g id="XMLID_429_">
	<g id="XMLID_605_">
		<path id="XMLID_607_" class="st0" d="M127,217.8c-0.5-0.8-2.6-7.2,0.1-9.8c2.7-2.6,4.7-3,7.6-1.8s4.2,4.6,4.6,6.8s0.8,6.9-2.8,7.8
			C132.9,221.8,128.8,220.7,127,217.8z"/>
		<path id="XMLID_606_" class="st0" d="M170.4,215.4c0.4-0.9,2.1-7.1-3.6-10.2c-3.3-1.8-5.9-1.4-8.7,0c-4.6,2.3-5.2,5.7-5.9,7.8
			c-0.9,2.9-1.3,6.9,2.3,7.9C158.2,221.8,167.3,222.1,170.4,215.4z"/>
	</g>
	<g id="XMLID_602_">
		<path id="XMLID_604_" class="st1" d="M139.3,212.4c0.9,4.1,0,7.8-2.4,8.3c-2.4,0.5-5.4-3-6.3-7.1s0.4-7.3,2.8-7.8
			C135.8,205.2,138.5,208.2,139.3,212.4z"/>
		<path id="XMLID_603_" class="st1" d="M164.8,204.7c0,0,4.6-0.1,4.5,7.1s-4.5,8.2-6.5,8.4c-2.1,0.2-6.5-2.5-5.2-9.2
			C159,204.2,164.8,204.7,164.8,204.7z"/>
	</g>
	<g id="XMLID_599_">
		<path id="XMLID_601_" class="st2" d="M139.5,213.3c0-0.3-0.1-0.6-0.2-0.9c-0.9-4.1-3.6-7.1-5.9-6.6c-2.4,0.5-3.6,3.6-2.8,7.8
			c0.3,1.6,1,3.1,1.8,4.3C134,215.4,136.7,214,139.5,213.3z"/>
		<path id="XMLID_600_" class="st2" d="M163.5,213.7c1.6-0.7,3.3-1.1,4.9-1.4c0.3-0.1,0.6-0.2,0.9-0.2c0-0.1,0-0.1,0-0.2
			c0-7.2-4.5-7.1-4.5-7.1s-5.8-0.5-7.2,6.2c-0.5,2.6-0.2,4.5,0.5,6C159.8,215.6,161.5,214.5,163.5,213.7z"/>
	</g>
	<g id="XMLID_485_">
		<path id="XMLID_598_" d="M136.4,209.7c1.6,0.1,1.5,2.3,0,2.4c0,0,0,0,0,0c0.3,0.3,0.3,0.7,0.1,1.1c0.8-0.6,1.7-1,2.7-1.4
			c-1-3.9-3.5-6.6-5.8-6.1c-2.2,0.5-3.4,3.1-2.9,6.6C131.8,210.5,133.9,209.5,136.4,209.7z"/>
		<path id="XMLID_597_" d="M164,208.1c0.7-0.1,1.1,0.4,1.2,0.9c0.4-0.2,0.8-0.3,1.3-0.3c0.4-0.4,0.9-0.6,1.5-0.3
			c0.5,0.3,0.9,0.6,1.2,1c-0.8-4.9-4.4-4.8-4.4-4.8s-5.6-0.5-7.1,5.9C159.4,209.1,161.6,208.4,164,208.1z"/>
	</g>
	
		<ellipse id="XMLID_484_" transform="matrix(0.978 -0.2087 0.2087 0.978 -41.5815 33.1262)" cx="136.2" cy="213.6" rx="2.4" ry="4.2"/>
	
		<ellipse id="XMLID_483_" transform="matrix(0.9992 4.013759e-02 -4.013759e-02 0.9992 8.6521 -6.4017)" cx="163.8" cy="212.3" rx="2.7" ry="4.5"/>
	<g id="XMLID_480_">
		
			<ellipse id="XMLID_482_" transform="matrix(0.9869 -0.1616 0.1616 0.9869 -31.7426 29.7773)" class="st0" cx="167.2" cy="210.1" rx="2.1" ry="3.7"/>
		
			<ellipse id="XMLID_481_" transform="matrix(0.9742 -0.2257 0.2257 0.9742 -44.2353 36.5518)" class="st0" cx="137.7" cy="211.7" rx="1.4" ry="3.2"/>
	</g>
	<g id="XMLID_477_">
		<path id="XMLID_479_" d="M126.6,217.5c-0.3-0.5-1.9-3.6-1.5-7c0.4-3.4,3.3-5.5,6.6-5.9c3.2-0.3,6.7,2.3,7.8,6.8
			c1.1,4.5,0.3,4.4,0.3,4.4s-0.5-4.3-2.4-7.2c-2-3-6.4-3.4-9-1c-2.5,2.4-2.1,6.2-1.7,7.8c0.4,1.6,1.1,3.1,0.9,3.3
			S126.6,217.5,126.6,217.5z"/>
		<path id="XMLID_478_" d="M151.6,213.5c0.1-1,1.3-5.8,5.8-8.7c1.9-1.2,3.8-1.7,5.5-1.7c2.3,0,4.1,0.3,5.9,1.3
			c3.5,2,4.2,6.7,1.9,11.5c0,0-0.5,1-0.1-1s0.7-6.1-2.7-8.5s-9.1-1.3-12.2,1.5s-3.8,7.2-3.8,7.2S151.4,215,151.6,213.5z"/>
	</g>
</g>
</svg>
