<?xml version="1.0" encoding="utf-8"?>
<!-- Generator: Adobe Illustrator 19.0.0, SVG Export Plug-In . SVG Version: 6.00 Build 0)  -->
<svg version="1.1" id="Camada_1" xmlns="http://www.w3.org/2000/svg" xmlns:xlink="http://www.w3.org/1999/xlink" x="0px" y="0px"
	 viewBox="0 0 297.6 425.2" style="enable-background:new 0 0 297.6 425.2;" xml:space="preserve">
<style type="text/css">
	.st0{fill:#FFFFFF;}
	.st1{fill:#71993F;}
	.st2{fill:#557E3A;}
	.st3{fill:#386534;}
	.st4{fill:#58A0B6;}
	.st5{fill:#3B8192;}
	.st6{fill:#1B6875;}
	.st7{fill:#6B3F26;}
	.st8{fill:#593421;}
	.st9{fill:#422419;}
	.st10{fill:#302727;}
	.st11{fill:#201A1A;}
	.st12{fill:#231F20;}
</style>
<g id="XMLID_550_">
	<g id="XMLID_645_">
		<path id="XMLID_647_" class="st0" d="M563.8,43.7c-0.6-1.1-1.7-3.8-1.1-4.4c0.6-0.6,5.2-1.6,8.3-0.2c3.1,1.5,5.3,4.9,6.2,8
			c0,0-2.6,1.5-5.3,1.3C571.9,48.5,566.3,48.2,563.8,43.7z"/>
		<path id="XMLID_646_" class="st0" d="M589.9,46.7c0.2-0.6,2-5.2,6.2-6.9s8.1-1.7,12.3-0.4c0,0-0.3,2-2.5,4.2c0,0-2.3,3.4-7.4,4.3
			c0,0-3.9,0.9-8.8-0.7L589.9,46.7z"/>
	</g>
	<g id="XMLID_642_">
		<path id="XMLID_644_" class="st1" d="M576,43.6c0.1,2.8-2.2,5-4.6,5s-4.3-2.7-4.3-5.5c0-2.1,1.1-3.7,2.6-4.3
			C570.2,38.5,575.9,41.7,576,43.6z"/>
		<path id="XMLID_643_" class="st1" d="M605,42.4c0,2.9-2.5,5.2-5.6,5.2s-5.6-2.3-5.6-5.2s4.7-4.2,7.8-4.2S605,39.5,605,42.4z"/>
	</g>
	<g id="XMLID_639_">
		<path id="XMLID_641_" class="st2" d="M570.9,44.6c0.6-0.1,1,0.3,1,0.8c0.4-0.3,0.8-0.5,1.2-0.7c0.3-0.1,0.5-0.1,0.7,0
			c0.4-0.3,1-0.2,1.3,0.2c0.2,0.3,0.4,0.6,0.4,0.9c0.3-0.7,0.5-1.4,0.5-2.2c-0.1-1.9-5.8-5.1-6.3-4.8c-1.5,0.7-2.6,2.2-2.6,4.3
			c0,0.9,0.2,1.8,0.6,2.7C568.7,45.2,569.7,44.8,570.9,44.6z"/>
		<path id="XMLID_640_" class="st2" d="M598.3,44.8c0.3-0.3,0.8-0.3,1.2,0c0.2-0.1,0.5-0.1,0.7,0c1.2-1.7,2.7-3.1,4.9-3.1
			c-0.1-2.3-0.6-3.4-3.4-3.4c-3.1,0-7.8,1.3-7.8,4.2c0,1.9,1.1,3.6,2.7,4.5C597.1,46,597.6,45.4,598.3,44.8z"/>
	</g>
	<g id="XMLID_565_">
		<path id="XMLID_638_" class="st3" d="M570.3,42.2c0.2,0.1,0.4,0.2,0.5,0.3c0.1,0,0.2-0.1,0.3-0.1c0.7-0.7,1.5-1.3,2.3-1.8
			c-1.6-1.1-3.5-2-3.7-1.9c-1.4,0.6-2.4,2-2.5,3.8C568.1,42.1,569.1,41.9,570.3,42.2z"/>
		<path id="XMLID_637_" class="st3" d="M602.4,40.2C602.5,40.2,602.5,40.2,602.4,40.2c0-0.7,0.2-1.6,1-1.8c-0.4-0.1-1-0.2-1.7-0.2
			c-3.1,0-7.8,1.3-7.8,4.2c0,0.6,0.1,1.3,0.4,1.8C596.2,41.8,599.3,39.7,602.4,40.2z"/>
	</g>
	<ellipse id="XMLID_564_" cx="571.6" cy="43.5" rx="2.3" ry="3"/>
	
		<ellipse id="XMLID_563_" transform="matrix(-0.217 -0.9762 0.9762 -0.217 656.0429 613.6104)" class="st0" cx="574.1" cy="43.7" rx="2.1" ry="1.3"/>
	<g id="XMLID_558_">
		<g id="XMLID_561_">
			<path id="XMLID_562_" d="M576.7,46.8c-0.2-0.5-1-4.1-4.7-6.1c-5-2.7-9.4-0.9-9.6-0.8c-0.2,0.1-0.5,0.2-0.7,0.2
				c-0.3-0.1,0.2-0.6,0.7-1c0.4-0.3,4.3-2.6,9.9,0.3c4.5,2.3,4.9,7.4,4.9,7.6C577.4,47.2,577.2,48.2,576.7,46.8z"/>
		</g>
		<g id="XMLID_559_">
			<path id="XMLID_560_" d="M573.2,48.5c0.1,0,0.2-0.1,0.4-0.1h-0.1c-7.6,0.2-10-5.5-10.1-5.8c-0.1-0.1-0.2-0.5-0.4-0.5
				c-0.1,0,0.2,0.8,0.2,0.9c0,0.1,1.5,4.6,7.5,5.5C571.3,48.6,572.3,48.8,573.2,48.5z"/>
		</g>
	</g>
	<ellipse id="XMLID_557_" cx="599.9" cy="42.5" rx="2.8" ry="2.9"/>
	
		<ellipse id="XMLID_556_" transform="matrix(-0.3674 -0.9301 0.9301 -0.3674 786.8516 617.1783)" class="st0" cx="603.3" cy="41" rx="2.3" ry="1.6"/>
	<g id="XMLID_551_">
		<g id="XMLID_554_">
			<path id="XMLID_555_" d="M590.4,46.8c0.2-0.5,1.9-4.5,6.5-6.5c5.9-2.5,11-0.7,11.3-0.6c0.3,0.1,0.6,0.2,0.9,0.2
				c0.3-0.1-0.2-0.6-0.9-1c-0.5-0.3-5.3-2.6-12.2,0.3c-5.5,2.3-6.2,7.6-6.3,7.8C589.6,47.2,589.8,48.2,590.4,46.8z"/>
		</g>
		<g id="XMLID_552_">
			<path id="XMLID_553_" d="M594.7,48.2c-0.4-0.2,0.6-0.2,0.7-0.2c0,0,4.1,0,7-1.5s4.5-4.1,4.6-4.2c0.2-0.2,0.3-0.5,0.5-0.5
				c0.1,0.1-0.1,0.3-0.2,0.5c-0.1,0.1-1.7,3.2-4.7,4.8C599.8,48.6,594.9,48.2,594.7,48.2z"/>
		</g>
	</g>
</g>
<g id="XMLID_509_">
	<g id="XMLID_547_">
		<path id="XMLID_549_" class="st0" d="M563.8,72.8c-0.6-1.1-1.7-3.8-1.1-4.4c0.6-0.6,5.2-1.6,8.3-0.2c3.1,1.5,5.3,4.9,6.2,8
			c0,0-2.6,1.5-5.3,1.3C571.9,77.5,566.3,77.2,563.8,72.8z"/>
		<path id="XMLID_548_" class="st0" d="M589.9,75.7c0.2-0.6,2-5.2,6.2-6.9c4.2-1.7,8.1-1.7,12.3-0.4c0,0-0.3,2-2.5,4.2
			c0,0-2.3,3.4-7.4,4.3c0,0-3.9,0.9-8.8-0.7L589.9,75.7z"/>
	</g>
	<g id="XMLID_544_">
		<path id="XMLID_546_" class="st4" d="M576,72.6c0.1,2.8-2.2,5-4.6,5s-4.3-2.7-4.3-5.5c0-2.1,1.1-3.7,2.6-4.3
			C570.2,67.5,575.9,70.7,576,72.6z"/>
		<path id="XMLID_545_" class="st4" d="M605,71.4c0,2.9-2.5,5.2-5.6,5.2s-5.6-2.3-5.6-5.2c0-2.9,4.7-4.2,7.8-4.2S605,68.5,605,71.4z
			"/>
	</g>
	<g id="XMLID_541_">
		<path id="XMLID_543_" class="st5" d="M570.9,73.6c0.6-0.1,1,0.3,1,0.8c0.4-0.3,0.8-0.5,1.2-0.7c0.3-0.1,0.5-0.1,0.7,0
			c0.4-0.3,1-0.2,1.3,0.2c0.2,0.3,0.4,0.6,0.4,0.9c0.3-0.7,0.5-1.4,0.5-2.2c-0.1-1.9-5.8-5.1-6.3-4.8c-1.5,0.7-2.6,2.2-2.6,4.3
			c0,0.9,0.2,1.8,0.6,2.7C568.7,74.2,569.7,73.8,570.9,73.6z"/>
		<path id="XMLID_542_" class="st5" d="M598.3,73.8c0.3-0.3,0.8-0.3,1.2,0c0.2-0.1,0.5-0.1,0.7,0c1.2-1.7,2.7-3.1,4.9-3.1
			c-0.1-2.3-0.6-3.4-3.4-3.4c-3.1,0-7.8,1.3-7.8,4.2c0,1.9,1.1,3.6,2.7,4.5C597.1,75,597.6,74.4,598.3,73.8z"/>
	</g>
	<g id="XMLID_538_">
		<path id="XMLID_540_" class="st6" d="M570.3,71.2c0.2,0.1,0.4,0.2,0.5,0.3c0.1,0,0.2-0.1,0.3-0.1c0.7-0.7,1.5-1.3,2.3-1.8
			c-1.6-1.1-3.5-2-3.7-1.9c-1.4,0.6-2.4,2-2.5,3.8C568.1,71.1,569.1,70.9,570.3,71.2z"/>
		<path id="XMLID_539_" class="st6" d="M602.4,69.3C602.5,69.3,602.5,69.3,602.4,69.3c0-0.7,0.2-1.6,1-1.8c-0.4-0.1-1-0.2-1.7-0.2
			c-3.1,0-7.8,1.3-7.8,4.2c0,0.6,0.1,1.3,0.4,1.8C596.2,70.8,599.3,68.7,602.4,69.3z"/>
	</g>
	<ellipse id="XMLID_537_" cx="571.6" cy="72.5" rx="2.3" ry="3"/>
	
		<ellipse id="XMLID_536_" transform="matrix(-0.217 -0.9762 0.9762 -0.217 627.7302 648.9022)" class="st0" cx="574.1" cy="72.7" rx="2.1" ry="1.3"/>
	<g id="XMLID_517_">
		<g id="XMLID_520_">
			<path id="XMLID_535_" d="M576.7,75.8c-0.2-0.5-1-4.1-4.7-6.1c-5-2.7-9.4-0.9-9.6-0.8c-0.2,0.1-0.5,0.2-0.7,0.2
				c-0.3-0.1,0.2-0.6,0.7-1c0.4-0.3,4.3-2.6,9.9,0.3c4.5,2.3,4.9,7.4,4.9,7.6C577.4,76.2,577.2,77.2,576.7,75.8z"/>
		</g>
		<g id="XMLID_518_">
			<path id="XMLID_519_" d="M573.2,77.5c0.1,0,0.2-0.1,0.4-0.1h-0.1c-7.6,0.2-10-5.5-10.1-5.8c-0.1-0.1-0.2-0.5-0.4-0.5
				c-0.1,0,0.2,0.8,0.2,0.9s1.5,4.6,7.5,5.5C571.3,77.6,572.3,77.8,573.2,77.5z"/>
		</g>
	</g>
	<ellipse id="XMLID_516_" cx="599.9" cy="71.5" rx="2.8" ry="2.9"/>
	
		<ellipse id="XMLID_515_" transform="matrix(-0.3674 -0.9301 0.9301 -0.3674 759.871 656.8308)" class="st0" cx="603.3" cy="70" rx="2.3" ry="1.6"/>
	<g id="XMLID_510_">
		<g id="XMLID_513_">
			<path id="XMLID_514_" d="M590.4,75.8c0.2-0.5,1.9-4.5,6.5-6.5c5.9-2.5,11-0.7,11.3-0.6s0.6,0.2,0.9,0.2c0.3-0.1-0.2-0.6-0.9-1
				c-0.5-0.3-5.3-2.6-12.2,0.3c-5.5,2.3-6.2,7.6-6.3,7.8C589.6,76.2,589.8,77.2,590.4,75.8z"/>
		</g>
		<g id="XMLID_511_">
			<path id="XMLID_512_" d="M594.7,77.2c-0.4-0.2,0.6-0.2,0.7-0.2c0,0,4.1,0,7-1.5s4.5-4.1,4.6-4.2c0.2-0.2,0.3-0.5,0.5-0.5
				c0.1,0.1-0.1,0.3-0.2,0.5c-0.1,0.1-1.7,3.2-4.7,4.8C599.8,77.6,594.9,77.2,594.7,77.2z"/>
		</g>
	</g>
</g>
<g id="XMLID_354_">
	<g id="XMLID_506_">
		<path id="XMLID_508_" class="st0" d="M563.8,99c-0.6-1.1-1.7-3.8-1.1-4.4c0.6-0.6,5.2-1.6,8.3-0.2c3.1,1.5,5.3,4.9,6.2,8
			c0,0-2.6,1.5-5.3,1.3C571.9,103.8,566.3,103.5,563.8,99z"/>
		<path id="XMLID_507_" class="st0" d="M589.9,102c0.2-0.6,2-5.2,6.2-6.9s8.1-1.7,12.3-0.4c0,0-0.3,2-2.5,4.2c0,0-2.3,3.4-7.4,4.3
			c0,0-3.9,0.9-8.8-0.7L589.9,102z"/>
	</g>
	<g id="XMLID_503_">
		<path id="XMLID_505_" class="st7" d="M576,98.8c0.1,2.8-2.2,5-4.6,5s-4.3-2.7-4.3-5.5c0-2.1,1.1-3.7,2.6-4.3
			C570.2,93.8,575.9,97,576,98.8z"/>
		<path id="XMLID_504_" class="st7" d="M605,97.7c0,2.9-2.5,5.2-5.6,5.2s-5.6-2.3-5.6-5.2c0-2.9,4.7-4.2,7.8-4.2S605,94.8,605,97.7z
			"/>
	</g>
	<g id="XMLID_500_">
		<path id="XMLID_502_" class="st8" d="M570.9,99.8c0.6-0.1,1,0.3,1,0.8c0.4-0.3,0.8-0.5,1.2-0.7c0.3-0.1,0.5-0.1,0.7,0
			c0.4-0.3,1-0.2,1.3,0.2c0.2,0.3,0.4,0.6,0.4,0.9c0.3-0.7,0.5-1.4,0.5-2.2c-0.1-1.9-5.8-5.1-6.3-4.8c-1.5,0.7-2.6,2.2-2.6,4.3
			c0,0.9,0.2,1.8,0.6,2.7C568.7,100.5,569.7,100.1,570.9,99.8z"/>
		<path id="XMLID_501_" class="st8" d="M598.3,100c0.3-0.3,0.8-0.3,1.2,0c0.2-0.1,0.5-0.1,0.7,0c1.2-1.7,2.7-3.1,4.9-3.1
			c-0.1-2.3-0.6-3.4-3.4-3.4c-3.1,0-7.8,1.3-7.8,4.2c0,1.9,1.1,3.6,2.7,4.5C597.1,101.3,597.6,100.6,598.3,100z"/>
	</g>
	<g id="XMLID_387_">
		<path id="XMLID_499_" class="st9" d="M570.3,97.5c0.2,0.1,0.4,0.2,0.5,0.3c0.1,0,0.2-0.1,0.3-0.1c0.7-0.7,1.5-1.3,2.3-1.8
			c-1.6-1.1-3.5-2-3.7-1.9c-1.4,0.6-2.4,2-2.5,3.8C568.1,97.4,569.1,97.2,570.3,97.5z"/>
		<path id="XMLID_498_" class="st9" d="M602.4,95.5C602.5,95.5,602.5,95.5,602.4,95.5c0-0.7,0.2-1.6,1-1.8c-0.4-0.1-1-0.2-1.7-0.2
			c-3.1,0-7.8,1.3-7.8,4.2c0,0.6,0.1,1.3,0.4,1.8C596.2,97.1,599.3,95,602.4,95.5z"/>
	</g>
	<ellipse id="XMLID_386_" cx="571.6" cy="98.8" rx="2.3" ry="3"/>
	
		<ellipse id="XMLID_385_" transform="matrix(-0.217 -0.9762 0.9762 -0.217 602.0682 680.9178)" class="st0" cx="574.1" cy="99" rx="2.1" ry="1.3"/>
	<g id="XMLID_380_">
		<g id="XMLID_383_">
			<path id="XMLID_384_" d="M576.7,102.1c-0.2-0.5-1-4.1-4.7-6.1c-5-2.7-9.4-0.9-9.6-0.8c-0.2,0.1-0.5,0.2-0.7,0.2
				c-0.3-0.1,0.2-0.6,0.7-1c0.4-0.3,4.3-2.6,9.9,0.3c4.5,2.3,4.9,7.4,4.9,7.6C577.4,102.5,577.2,103.5,576.7,102.1z"/>
		</g>
		<g id="XMLID_381_">
			<path id="XMLID_382_" d="M573.2,103.8c0.1,0,0.2-0.1,0.4-0.1h-0.1c-7.6,0.2-10-5.5-10.1-5.8c-0.1-0.1-0.2-0.5-0.4-0.5
				c-0.1,0,0.2,0.8,0.2,0.9s1.5,4.6,7.5,5.5C571.3,103.9,572.3,104,573.2,103.8z"/>
		</g>
	</g>
	<ellipse id="XMLID_379_" cx="599.9" cy="97.7" rx="2.8" ry="2.9"/>
	
		<ellipse id="XMLID_378_" transform="matrix(-0.3674 -0.9301 0.9301 -0.3674 735.4324 692.8044)" class="st0" cx="603.3" cy="96.3" rx="2.3" ry="1.6"/>
	<g id="XMLID_355_">
		<g id="XMLID_358_">
			<path id="XMLID_359_" d="M590.4,102c0.2-0.5,1.9-4.5,6.5-6.5c5.9-2.5,11-0.7,11.3-0.6s0.6,0.2,0.9,0.2c0.3-0.1-0.2-0.6-0.9-1
				c-0.5-0.3-5.3-2.6-12.2,0.3c-5.5,2.3-6.2,7.6-6.3,7.8C589.6,102.4,589.8,103.5,590.4,102z"/>
		</g>
		<g id="XMLID_356_">
			<path id="XMLID_357_" d="M594.7,103.4c-0.4-0.2,0.6-0.2,0.7-0.2c0,0,4.1,0,7-1.5s4.5-4.1,4.6-4.2c0.2-0.2,0.3-0.5,0.5-0.5
				c0.1,0.1-0.1,0.3-0.2,0.5c-0.1,0.1-1.7,3.2-4.7,4.8C599.8,103.8,594.9,103.5,594.7,103.4z"/>
		</g>
	</g>
</g>
<g id="XMLID_277_">
	<g id="XMLID_351_">
		<path id="XMLID_353_" class="st0" d="M563.8,130.2c-0.6-1.1-1.7-3.8-1.1-4.4c0.6-0.6,5.2-1.6,8.3-0.2c3.1,1.5,5.3,4.9,6.2,8
			c0,0-2.6,1.5-5.3,1.3C571.9,134.9,566.3,134.7,563.8,130.2z"/>
		<path id="XMLID_352_" class="st0" d="M589.9,133.2c0.2-0.6,2-5.2,6.2-6.9s8.1-1.7,12.3-0.4c0,0-0.3,2-2.5,4.2c0,0-2.3,3.4-7.4,4.3
			c0,0-3.9,0.9-8.8-0.7L589.9,133.2z"/>
	</g>
	<g id="XMLID_348_">
		<path id="XMLID_350_" class="st10" d="M576,130c0.1,2.8-2.2,5-4.6,5s-4.3-2.7-4.3-5.5c0-2.1,1.1-3.7,2.6-4.3
			C570.2,124.9,575.9,128.1,576,130z"/>
		<path id="XMLID_349_" class="st10" d="M605,128.8c0,2.9-2.5,5.2-5.6,5.2s-5.6-2.3-5.6-5.2s4.7-4.2,7.8-4.2S605,126,605,128.8z"/>
	</g>
	<g id="XMLID_345_">
		<path id="XMLID_347_" class="st11" d="M570.9,131c0.6-0.1,1,0.3,1,0.8c0.4-0.3,0.8-0.5,1.2-0.7c0.3-0.1,0.5-0.1,0.7,0
			c0.4-0.3,1-0.2,1.3,0.2c0.2,0.3,0.4,0.6,0.4,0.9c0.3-0.7,0.5-1.4,0.5-2.2c-0.1-1.9-5.8-5.1-6.3-4.8c-1.5,0.7-2.6,2.2-2.6,4.3
			c0,0.9,0.2,1.8,0.6,2.7C568.7,131.6,569.7,131.2,570.9,131z"/>
		<path id="XMLID_346_" class="st11" d="M598.3,131.2c0.3-0.3,0.8-0.3,1.2,0c0.2-0.1,0.5-0.1,0.7,0c1.2-1.7,2.7-3.1,4.9-3.1
			c-0.1-2.3-0.6-3.4-3.4-3.4c-3.1,0-7.8,1.3-7.8,4.2c0,1.9,1.1,3.6,2.7,4.5C597.1,132.5,597.6,131.8,598.3,131.2z"/>
	</g>
	<g id="XMLID_342_">
		<path id="XMLID_344_" d="M570.3,128.6c0.2,0.1,0.4,0.2,0.5,0.3c0.1,0,0.2-0.1,0.3-0.1c0.7-0.7,1.5-1.3,2.3-1.8
			c-1.6-1.1-3.5-2-3.7-1.9c-1.4,0.6-2.4,2-2.5,3.8C568.1,128.5,569.1,128.4,570.3,128.6z"/>
		<path id="XMLID_343_" d="M602.4,126.7C602.5,126.7,602.5,126.7,602.4,126.7c0-0.7,0.2-1.6,1-1.8c-0.4-0.1-1-0.2-1.7-0.2
			c-3.1,0-7.8,1.3-7.8,4.2c0,0.6,0.1,1.3,0.4,1.8C596.2,128.3,599.3,126.1,602.4,126.7z"/>
	</g>
	<ellipse id="XMLID_341_" cx="571.6" cy="129.9" rx="2.3" ry="3"/>
	
		<ellipse id="XMLID_340_" transform="matrix(-0.217 -0.9762 0.9762 -0.217 571.6904 718.7559)" class="st0" cx="574.1" cy="130.1" rx="2.1" ry="1.3"/>
	<g id="XMLID_325_">
		<g id="XMLID_333_">
			<path id="XMLID_339_" d="M576.7,133.2c-0.2-0.5-1-4.1-4.7-6.1c-5-2.7-9.4-0.9-9.6-0.8c-0.2,0.1-0.5,0.2-0.7,0.2
				c-0.3-0.1,0.2-0.6,0.7-1c0.4-0.3,4.3-2.6,9.9,0.3c4.5,2.3,4.9,7.4,4.9,7.6C577.4,133.6,577.2,134.7,576.7,133.2z"/>
		</g>
		<g id="XMLID_326_">
			<path id="XMLID_328_" d="M573.2,135c0.1,0,0.2-0.1,0.4-0.1h-0.1c-7.6,0.2-10-5.5-10.1-5.8c-0.1-0.1-0.2-0.5-0.4-0.5
				c-0.1,0,0.2,0.8,0.2,0.9c0,0.1,1.5,4.6,7.5,5.5C571.3,135.1,572.3,135.2,573.2,135z"/>
		</g>
	</g>
	<ellipse id="XMLID_323_" cx="599.9" cy="128.9" rx="2.8" ry="2.9"/>
	
		<ellipse id="XMLID_283_" transform="matrix(-0.3674 -0.9301 0.9301 -0.3674 706.4695 735.3159)" class="st0" cx="603.3" cy="127.4" rx="2.3" ry="1.6"/>
	<g id="XMLID_278_">
		<g id="XMLID_281_">
			<path id="XMLID_282_" d="M590.4,133.2c0.2-0.5,1.9-4.5,6.5-6.5c5.9-2.5,11-0.7,11.3-0.6s0.6,0.2,0.9,0.2c0.3-0.1-0.2-0.6-0.9-1
				c-0.5-0.3-5.3-2.6-12.2,0.3c-5.5,2.3-6.2,7.6-6.3,7.8C589.6,133.6,589.8,134.6,590.4,133.2z"/>
		</g>
		<g id="XMLID_279_">
			<path id="XMLID_280_" d="M594.7,134.6c-0.4-0.2,0.6-0.2,0.7-0.2c0,0,4.1,0,7-1.5s4.5-4.1,4.6-4.2c0.2-0.2,0.3-0.5,0.5-0.5
				c0.1,0.1-0.1,0.3-0.2,0.5c-0.1,0.1-1.7,3.2-4.7,4.8C599.8,135,594.9,134.6,594.7,134.6z"/>
		</g>
	</g>
</g>
<g id="XMLID_257_">
	<ellipse id="XMLID_276_" class="st0" cx="506.1" cy="44.1" rx="6.8" ry="7.5"/>
	<path id="XMLID_275_" class="st0" d="M542,43.7c0,4.4-3.5,7.6-7.9,7.6s-8.1-3.2-8.1-7.6s3.6-7.9,8-7.9S542,39.3,542,43.7z"/>
	<g id="XMLID_271_">
		<path id="XMLID_273_" class="st1" d="M507.5,38.6c-3,0-5.5,2.7-5.5,6.1c0,3.4,2.5,6.1,5.5,6.1s5.5-2.7,5.5-6.1
			S510.6,38.6,507.5,38.6z"/>
		<path id="XMLID_272_" class="st1" d="M540.3,40.6c0.1,0,0.3-0.6,0.4-0.6c0.1,0-0.7-0.8-0.6-0.8c-1.1-1.1-2.8-1.9-5.2-1.9
			c-3-0.1-6.2,3.1-6.2,6.6s2.5,6.5,6.8,6.6c3,0,6.3-3.3,6.3-6.8c0-1.1-0.2-2.2-0.7-3.1c0,0.1-0.1,0.1-0.1,0.2c0.1,0.4,0.1,0.9,0,1.4
			"/>
	</g>
	<g id="XMLID_268_">
		<path id="XMLID_270_" class="st2" d="M512.3,44c0.2,0,0.4-0.1,0.7-0.1c-0.4-3-2.7-5.3-5.4-5.3c-3,0-5.5,2.7-5.5,6.1
			c0,1.5,0.5,2.9,1.3,3.9C505.8,46,508.8,44.4,512.3,44z"/>
		<path id="XMLID_269_" class="st2" d="M540.5,42.9c0.4-0.1,0.8-0.2,1.2-0.3c-0.1-0.7-0.3-1.4-0.6-2c0,0.1-0.1,0.1-0.1,0.2
			c0.1,0.4,0.1,0.9,0,1.4l-0.7-1.5c0.1,0,0.3-0.6,0.4-0.6c0.1,0-0.7-0.8-0.6-0.8c-1.1-1.1-2.8-1.9-5.2-1.9c-3-0.1-6.2,3.1-6.2,6.6
			c0,1.4,0.4,2.8,1.2,3.9C533,44.8,536.6,43.8,540.5,42.9z"/>
	</g>
	<g id="XMLID_265_">
		<path id="XMLID_267_" class="st3" d="M508.5,41.9c0.5,0.1,2.6-0.3,2.6,0.1c0.2-0.1,0.4-0.1,0.6,0c0.3,0.1,0.5,0.1,0.7,0.2
			c-0.9-2.1-2.8-3.6-5-3.6c-2.9,0-5.3,2.6-5.5,5.8c1.2-1.6,2.8-2.9,4.7-3.4C507.4,40.8,508,41.7,508.5,41.9z"/>
		<path id="XMLID_266_" class="st3" d="M537.9,39.8L537.9,39.8L537.9,39.8c0.1,0,0.2,0,0.3,0c1.4,0.2,1,2.4-0.3,2.4
			c-0.4,0-0.7,0-1.1,0.1c0.1,0.2,0.2,0.4,0.2,0.6c0.6-0.1,1.2-0.2,1.8-0.4l0,0c-0.1-0.5,0.1-1.2,0.7-1.4c0.2-0.3,0.5-0.4,0.8-0.5
			c0.1-0.2,0.3-0.5,0.3-0.5c0.1,0-0.7-0.8-0.6-0.8c-1.1-1.1-2.8-1.9-5.2-1.9c-2.8-0.1-5.8,2.7-6.2,5.8
			C531,40.5,534.4,39.3,537.9,39.8z"/>
	</g>
	<g id="Ydekt1.tif_8_">
		<g id="XMLID_262_">
			<path id="XMLID_264_" d="M542.6,41.5c-0.1-0.9-0.4-1.7-0.8-2.5c-0.1-0.3-0.3-0.6-0.5-0.8c-0.3-0.4-1.6-2-4-3
				c-0.4-0.2-0.8-0.2-1.2-0.3c-0.1,0-1.6-0.5-3.7,0c-0.2,0.1-0.5,0.1-0.7,0.2c-0.3,0.1-0.6,0.2-0.9,0.3c-0.2,0.1-0.4,0.2-0.5,0.3
				c-0.4,0.2-0.7,0.4-1,0.6c-0.3,0.2-0.5,0.4-0.8,0.6c-0.6,0.5-2.5,2.7-2.7,5.2c-0.1,0.8-0.1,1.6,0.1,2.3c0,0.1,0.1,0.1,0.2,0.2
				c0.1-0.1,0.2-0.1,0.2-0.2c0.1-0.6,0.3-1.3,0.5-1.9c0.2-0.6,0.6-2.7,3.1-4.7c0.4-0.3,0.9-0.6,1.4-0.8c0.6-0.3,1.3-0.5,2-0.6
				c1.1-0.2,2.2-0.1,3.2,0.2c0.1,0,0.3,0.1,0.4,0.1c2.9,1.3,4.2,2.9,4.8,5.9c0.5,1.4,0.2,2.4,0.1,3.6c0,0,0-0.1,0.1-0.1
				c0.1-0.4,0.6-0.6,0.7-1C542.8,43.9,542.8,42.7,542.6,41.5z"/>
			<path id="XMLID_263_" d="M512.6,40.1c-0.3-0.8-0.9-1.6-1.5-2.2c-0.8-0.8-1.7-1.5-2.8-1.8c-0.6-0.2-1.3-0.4-1.9-0.4
				s-1.1,0-1.7,0.1s-1.2,0.3-1.8,0.6c-0.7,0.3-1.3,0.8-1.9,1.3c-0.7,0.6-1.2,1.4-1.5,2.3c-0.4,1-0.7,2-0.7,3c0,0.5,0.1,0.9,0.1,1.4
				c0,0.4,0.1,0.7,0.3,1l0.1,0.1c0,0,0.1-0.4,0.1-0.5c0-0.8,0.2-1.4,0.3-2.2c0-0.2,0.1-0.4,0.2-0.6c0-0.1,0-0.2,0.1-0.2
				c0.1-0.4,0.3-0.9,0.6-1.2c0.1-0.2,0.2-0.3,0.3-0.5c0.5-0.7,1.1-1.4,1.8-1.9c1-0.7,2.1-1.1,3.4-1c0.7,0,1.4,0.1,2,0.4
				c0.5,0.2,1.1,0.5,1.5,0.9c2.3,2.4,3.1,5.3,3.3,8c0-0.1,0.1-0.2,0.1-0.3C513,46.1,513.7,42.7,512.6,40.1z"/>
		</g>
	</g>
	<ellipse id="XMLID_261_" cx="507.9" cy="44.6" rx="3.3" ry="3.8"/>
	<ellipse id="XMLID_260_" class="st0" cx="510.1" cy="43" rx="2.3" ry="2.2"/>
	<circle id="XMLID_259_" cx="535.7" cy="43.5" r="4.1"/>
	<ellipse id="XMLID_258_" class="st0" cx="538.5" cy="41.4" rx="2.7" ry="2.5"/>
</g>
<g id="XMLID_237_">
	<ellipse id="XMLID_256_" class="st0" cx="506.1" cy="73.2" rx="6.8" ry="7.5"/>
	<path id="XMLID_255_" class="st0" d="M542,72.7c0,4.4-3.5,7.6-7.9,7.6s-8.1-3.2-8.1-7.6s3.6-7.9,8-7.9
		C538.4,64.8,542,68.3,542,72.7z"/>
	<g id="XMLID_251_">
		<path id="XMLID_253_" class="st4" d="M507.5,67.6c-3,0-5.5,2.7-5.5,6.1s2.5,6.1,5.5,6.1s5.5-2.7,5.5-6.1
			C513,70.3,510.6,67.6,507.5,67.6z"/>
		<path id="XMLID_252_" class="st4" d="M540.3,69.6c0.1,0,0.3-0.6,0.4-0.6c0.1,0-0.7-0.8-0.6-0.8c-1.1-1.1-2.8-1.9-5.2-1.9
			c-3-0.1-6.2,3.1-6.2,6.6s2.5,6.5,6.8,6.6c3,0,6.3-3.3,6.3-6.8c0-1.1-0.2-2.2-0.7-3.1c0,0.1-0.1,0.1-0.1,0.2c0.1,0.4,0.1,0.9,0,1.4
			"/>
	</g>
	<g id="XMLID_248_">
		<path id="XMLID_250_" class="st5" d="M512.3,73c0.2,0,0.4-0.1,0.7-0.1c-0.4-3-2.7-5.3-5.4-5.3c-3,0-5.5,2.7-5.5,6.1
			c0,1.5,0.5,2.9,1.3,3.9C505.8,75,508.8,73.4,512.3,73z"/>
		<path id="XMLID_249_" class="st5" d="M540.5,71.9c0.4-0.1,0.8-0.2,1.2-0.3c-0.1-0.7-0.3-1.4-0.6-2c0,0.1-0.1,0.1-0.1,0.2
			c0.1,0.4,0.1,0.9,0,1.4l-0.7-1.5c0.1,0,0.3-0.6,0.4-0.6c0.1,0-0.7-0.8-0.6-0.8c-1.1-1.1-2.8-1.9-5.2-1.9c-3-0.1-6.2,3.1-6.2,6.6
			c0,1.4,0.4,2.8,1.2,3.9C533,73.8,536.6,72.8,540.5,71.9z"/>
	</g>
	<g id="XMLID_245_">
		<path id="XMLID_247_" class="st6" d="M508.5,70.9c0.5,0.1,2.6-0.3,2.6,0.1c0.2-0.1,0.4-0.1,0.6,0c0.3,0.1,0.5,0.1,0.7,0.2
			c-0.9-2.1-2.8-3.6-5-3.6c-2.9,0-5.3,2.6-5.5,5.8c1.2-1.6,2.8-2.9,4.7-3.4C507.4,69.8,508,70.8,508.5,70.9z"/>
		<path id="XMLID_246_" class="st6" d="M537.9,68.8L537.9,68.8L537.9,68.8c0.1,0,0.2,0,0.3,0c1.4,0.2,1,2.4-0.3,2.4
			c-0.4,0-0.7,0-1.1,0.1c0.1,0.2,0.2,0.4,0.2,0.6c0.6-0.1,1.2-0.2,1.8-0.4l0,0c-0.1-0.5,0.1-1.2,0.7-1.4c0.2-0.3,0.5-0.4,0.8-0.5
			c0.1-0.2,0.3-0.5,0.3-0.5c0.1,0-0.7-0.8-0.6-0.8c-1.1-1.1-2.8-1.9-5.2-1.9c-2.8-0.1-5.8,2.7-6.2,5.8
			C531,69.6,534.4,68.3,537.9,68.8z"/>
	</g>
	<g id="Ydekt1.tif_3_">
		<g id="XMLID_242_">
			<path id="XMLID_244_" d="M542.6,70.5c-0.1-0.9-0.4-1.7-0.8-2.5c-0.1-0.3-0.3-0.6-0.5-0.8c-0.3-0.4-1.6-2-4-3
				c-0.4-0.2-0.8-0.2-1.2-0.3c-0.1,0-1.6-0.5-3.7,0c-0.2,0.1-0.5,0.1-0.7,0.2c-0.3,0.1-0.6,0.2-0.9,0.3c-0.2,0.1-0.4,0.2-0.5,0.3
				c-0.4,0.2-0.7,0.4-1,0.6s-0.5,0.4-0.8,0.6c-0.6,0.5-2.5,2.7-2.7,5.2c-0.1,0.8-0.1,1.6,0.1,2.3c0,0.1,0.1,0.1,0.2,0.2
				c0.1-0.1,0.2-0.1,0.2-0.2c0.1-0.6,0.3-1.3,0.5-1.9s0.6-2.7,3.1-4.7c0.4-0.3,0.9-0.6,1.4-0.8c0.6-0.3,1.3-0.5,2-0.6
				c1.1-0.2,2.2-0.1,3.2,0.2c0.1,0,0.3,0.1,0.4,0.1c2.9,1.3,4.2,2.9,4.8,5.9c0.5,1.4,0.2,2.4,0.1,3.6c0,0,0-0.1,0.1-0.1
				c0.1-0.4,0.6-0.6,0.7-1C542.8,72.9,542.8,71.7,542.6,70.5z"/>
			<path id="XMLID_243_" d="M512.6,69.1c-0.3-0.8-0.9-1.6-1.5-2.2c-0.8-0.8-1.7-1.5-2.8-1.8c-0.6-0.2-1.3-0.4-1.9-0.4
				s-1.1,0-1.7,0.1s-1.2,0.3-1.8,0.6c-0.7,0.3-1.3,0.8-1.9,1.3c-0.7,0.6-1.2,1.4-1.5,2.3c-0.4,1-0.7,2-0.7,3c0,0.5,0.1,0.9,0.1,1.4
				c0,0.4,0.1,0.7,0.3,1l0.1,0.1c0,0,0.1-0.4,0.1-0.5c0-0.8,0.2-1.4,0.3-2.2c0-0.2,0.1-0.4,0.2-0.6c0-0.1,0-0.2,0.1-0.2
				c0.1-0.4,0.3-0.9,0.6-1.2c0.1-0.2,0.2-0.3,0.3-0.5c0.5-0.7,1.1-1.4,1.8-1.9c1-0.7,2.1-1.1,3.4-1c0.7,0,1.4,0.1,2,0.4
				c0.5,0.2,1.1,0.5,1.5,0.9c2.3,2.4,3.1,5.3,3.3,8c0-0.1,0.1-0.2,0.1-0.3C513,75.2,513.7,71.7,512.6,69.1z"/>
		</g>
	</g>
	<ellipse id="XMLID_241_" cx="507.9" cy="73.7" rx="3.3" ry="3.8"/>
	<ellipse id="XMLID_240_" class="st0" cx="510.1" cy="72" rx="2.3" ry="2.2"/>
	<circle id="XMLID_239_" cx="535.7" cy="72.5" r="4.1"/>
	<ellipse id="XMLID_238_" class="st0" cx="538.5" cy="70.4" rx="2.7" ry="2.5"/>
</g>
<g id="XMLID_217_">
	<ellipse id="XMLID_236_" class="st0" cx="506.1" cy="99.4" rx="6.8" ry="7.5"/>
	<path id="XMLID_235_" class="st0" d="M542,99c0,4.4-3.5,7.6-7.9,7.6s-8.1-3.2-8.1-7.6s3.6-7.9,8-7.9S542,94.6,542,99z"/>
	<g id="XMLID_231_">
		<path id="XMLID_233_" class="st7" d="M507.5,93.9c-3,0-5.5,2.7-5.5,6.1s2.5,6.1,5.5,6.1s5.5-2.7,5.5-6.1S510.6,93.9,507.5,93.9z"
			/>
		<path id="XMLID_232_" class="st7" d="M540.3,95.9c0.1,0,0.3-0.6,0.4-0.6c0.1,0-0.7-0.8-0.6-0.8c-1.1-1.1-2.8-1.9-5.2-1.9
			c-3-0.1-6.2,3.1-6.2,6.6s2.5,6.5,6.8,6.6c3,0,6.3-3.3,6.3-6.8c0-1.1-0.2-2.2-0.7-3.1c0,0.1-0.1,0.1-0.1,0.2c0.1,0.4,0.1,0.9,0,1.4
			"/>
	</g>
	<g id="XMLID_228_">
		<path id="XMLID_230_" class="st8" d="M512.3,99.2c0.2,0,0.4-0.1,0.7-0.1c-0.4-3-2.7-5.3-5.4-5.3c-3,0-5.5,2.7-5.5,6.1
			c0,1.5,0.5,2.9,1.3,3.9C505.8,101.3,508.8,99.7,512.3,99.2z"/>
		<path id="XMLID_229_" class="st8" d="M540.5,98.1c0.4-0.1,0.8-0.2,1.2-0.3c-0.1-0.7-0.3-1.4-0.6-2c0,0.1-0.1,0.1-0.1,0.2
			c0.1,0.4,0.1,0.9,0,1.4l-0.7-1.5c0.1,0,0.3-0.6,0.4-0.6c0.1,0-0.7-0.8-0.6-0.8c-1.1-1.1-2.8-1.9-5.2-1.9c-3-0.1-6.2,3.1-6.2,6.6
			c0,1.4,0.4,2.8,1.2,3.9C533,100.1,536.6,99.1,540.5,98.1z"/>
	</g>
	<g id="XMLID_225_">
		<path id="XMLID_227_" class="st9" d="M508.5,97.1c0.5,0.1,2.6-0.3,2.6,0.1c0.2-0.1,0.4-0.1,0.6,0c0.3,0.1,0.5,0.1,0.7,0.2
			c-0.9-2.1-2.8-3.6-5-3.6c-2.9,0-5.3,2.6-5.5,5.8c1.2-1.6,2.8-2.9,4.7-3.4C507.4,96.1,508,97,508.5,97.1z"/>
		<path id="XMLID_226_" class="st9" d="M537.9,95L537.9,95L537.9,95c0.1,0,0.2,0,0.3,0c1.4,0.2,1,2.4-0.3,2.4c-0.4,0-0.7,0-1.1,0.1
			c0.1,0.2,0.2,0.4,0.2,0.6c0.6-0.1,1.2-0.2,1.8-0.4l0,0c-0.1-0.5,0.1-1.2,0.7-1.4c0.2-0.3,0.5-0.4,0.8-0.5c0.1-0.2,0.3-0.5,0.3-0.5
			c0.1,0-0.7-0.8-0.6-0.8c-1.1-1.1-2.8-1.9-5.2-1.9c-2.8-0.1-5.8,2.7-6.2,5.8C531,95.8,534.4,94.6,537.9,95z"/>
	</g>
	<g id="Ydekt1.tif_2_">
		<g id="XMLID_222_">
			<path id="XMLID_224_" d="M542.6,96.8c-0.1-0.9-0.4-1.7-0.8-2.5c-0.1-0.3-0.3-0.6-0.5-0.8c-0.3-0.4-1.6-2-4-3
				c-0.4-0.2-0.8-0.2-1.2-0.3c-0.1,0-1.6-0.5-3.7,0c-0.2,0.1-0.5,0.1-0.7,0.2c-0.3,0.1-0.6,0.2-0.9,0.3c-0.2,0.1-0.4,0.2-0.5,0.3
				c-0.4,0.2-0.7,0.4-1,0.6s-0.5,0.4-0.8,0.6c-0.6,0.5-2.5,2.7-2.7,5.2c-0.1,0.8-0.1,1.6,0.1,2.3c0,0.1,0.1,0.1,0.2,0.2
				c0.1-0.1,0.2-0.1,0.2-0.2c0.1-0.6,0.3-1.3,0.5-1.9s0.6-2.7,3.1-4.7c0.4-0.3,0.9-0.6,1.4-0.8c0.6-0.3,1.3-0.5,2-0.6
				c1.1-0.2,2.2-0.1,3.2,0.2c0.1,0,0.3,0.1,0.4,0.1c2.9,1.3,4.2,2.9,4.8,5.9c0.5,1.4,0.2,2.4,0.1,3.6c0,0,0-0.1,0.1-0.1
				c0.1-0.4,0.6-0.6,0.7-1C542.8,99.2,542.8,98,542.6,96.8z"/>
			<path id="XMLID_223_" d="M512.6,95.4c-0.3-0.8-0.9-1.6-1.5-2.2c-0.8-0.8-1.7-1.5-2.8-1.8c-0.6-0.2-1.3-0.4-1.9-0.4
				s-1.1,0-1.7,0.1s-1.2,0.3-1.8,0.6c-0.7,0.3-1.3,0.8-1.9,1.3c-0.7,0.6-1.2,1.4-1.5,2.3c-0.4,1-0.7,2-0.7,3c0,0.5,0.1,0.9,0.1,1.4
				c0,0.4,0.1,0.7,0.3,1l0.1,0.1c0,0,0.1-0.4,0.1-0.5c0-0.8,0.2-1.4,0.3-2.2c0-0.2,0.1-0.4,0.2-0.6c0-0.1,0-0.2,0.1-0.2
				c0.1-0.4,0.3-0.9,0.6-1.2c0.1-0.2,0.2-0.3,0.3-0.5c0.5-0.7,1.1-1.4,1.8-1.9c1-0.7,2.1-1.1,3.4-1c0.7,0,1.4,0.1,2,0.4
				c0.5,0.2,1.1,0.5,1.5,0.9c2.3,2.4,3.1,5.3,3.3,8c0-0.1,0.1-0.2,0.1-0.3C513,101.4,513.7,98,512.6,95.4z"/>
		</g>
	</g>
	<ellipse id="XMLID_221_" cx="507.9" cy="99.9" rx="3.3" ry="3.8"/>
	<ellipse id="XMLID_220_" class="st0" cx="510.1" cy="98.3" rx="2.3" ry="2.2"/>
	<circle id="XMLID_219_" cx="535.7" cy="98.7" r="4.1"/>
	<ellipse id="XMLID_218_" class="st0" cx="538.5" cy="96.7" rx="2.7" ry="2.5"/>
</g>
<g id="XMLID_196_">
	<ellipse id="XMLID_216_" class="st0" cx="506.1" cy="130.9" rx="6.8" ry="7.5"/>
	<path id="XMLID_215_" class="st0" d="M542,130.4c0,4.4-3.5,7.6-7.9,7.6s-8.1-3.2-8.1-7.6s3.6-7.9,8-7.9
		C538.4,122.5,542,126.1,542,130.4z"/>
	<g id="XMLID_211_">
		<path id="XMLID_213_" class="st10" d="M507.5,125.3c-3,0-5.5,2.7-5.5,6.1c0,3.4,2.5,6.1,5.5,6.1s5.5-2.7,5.5-6.1
			C513,128.1,510.6,125.3,507.5,125.3z"/>
		<path id="XMLID_212_" class="st10" d="M540.3,127.4c0.1,0,0.3-0.6,0.4-0.6c0.1,0-0.7-0.8-0.6-0.8c-1.1-1.1-2.8-1.9-5.2-1.9
			c-3-0.1-6.2,3.1-6.2,6.6s2.5,6.5,6.8,6.6c3,0,6.3-3.3,6.3-6.8c0-1.1-0.2-2.2-0.7-3.1c0,0.1-0.1,0.1-0.1,0.2c0.1,0.4,0.1,0.9,0,1.4
			"/>
	</g>
	<g id="XMLID_208_">
		<path id="XMLID_210_" class="st11" d="M512.3,130.7c0.2,0,0.4-0.1,0.7-0.1c-0.4-3-2.7-5.3-5.4-5.3c-3,0-5.5,2.7-5.5,6.1
			c0,1.5,0.5,2.9,1.3,3.9C505.8,132.8,508.8,131.2,512.3,130.7z"/>
		<path id="XMLID_209_" class="st11" d="M540.5,129.6c0.4-0.1,0.8-0.2,1.2-0.3c-0.1-0.7-0.3-1.4-0.6-2c0,0.1-0.1,0.1-0.1,0.2
			c0.1,0.4,0.1,0.9,0,1.4l-0.7-1.5c0.1,0,0.3-0.6,0.4-0.6c0.1,0-0.7-0.8-0.6-0.8c-1.1-1.1-2.8-1.9-5.2-1.9c-3-0.1-6.2,3.1-6.2,6.6
			c0,1.4,0.4,2.8,1.2,3.9C533,131.6,536.6,130.5,540.5,129.6z"/>
	</g>
	<g id="XMLID_204_">
		<path id="XMLID_206_" d="M508.5,128.6c0.5,0.1,2.6-0.3,2.6,0.1c0.2-0.1,0.4-0.1,0.6,0c0.3,0.1,0.5,0.1,0.7,0.2
			c-0.9-2.1-2.8-3.6-5-3.6c-2.9,0-5.3,2.6-5.5,5.8c1.2-1.6,2.8-2.9,4.7-3.4C507.4,127.6,508,128.5,508.5,128.6z"/>
		<path id="XMLID_205_" d="M537.9,126.5L537.9,126.5L537.9,126.5c0.1,0,0.2,0,0.3,0c1.4,0.2,1,2.4-0.3,2.4c-0.4,0-0.7,0-1.1,0.1
			c0.1,0.2,0.2,0.4,0.2,0.6c0.6-0.1,1.2-0.2,1.8-0.4l0,0c-0.1-0.5,0.1-1.2,0.7-1.4c0.2-0.3,0.5-0.4,0.8-0.5c0.1-0.2,0.3-0.5,0.3-0.5
			c0.1,0-0.7-0.8-0.6-0.8c-1.1-1.1-2.8-1.9-5.2-1.9c-2.8-0.1-5.8,2.7-6.2,5.8C531,127.3,534.4,126.1,537.9,126.5z"/>
	</g>
	<g id="Ydekt1.tif_1_">
		<g id="XMLID_201_">
			<path id="XMLID_203_" d="M542.6,128.3c-0.1-0.9-0.4-1.7-0.8-2.5c-0.1-0.3-0.3-0.6-0.5-0.8c-0.3-0.4-1.6-2-4-3
				c-0.4-0.2-0.8-0.2-1.2-0.3c-0.1,0-1.6-0.5-3.7,0c-0.2,0.1-0.5,0.1-0.7,0.2c-0.3,0.1-0.6,0.2-0.9,0.3c-0.2,0.1-0.4,0.2-0.5,0.3
				c-0.4,0.2-0.7,0.4-1,0.6s-0.5,0.4-0.8,0.6c-0.6,0.5-2.5,2.7-2.7,5.2c-0.1,0.8-0.1,1.6,0.1,2.3c0,0.1,0.1,0.1,0.2,0.2
				c0.1-0.1,0.2-0.1,0.2-0.2c0.1-0.6,0.3-1.3,0.5-1.9c0.2-0.6,0.6-2.7,3.1-4.7c0.4-0.3,0.9-0.6,1.4-0.8c0.6-0.3,1.3-0.5,2-0.6
				c1.1-0.2,2.2-0.1,3.2,0.2c0.1,0,0.3,0.1,0.4,0.1c2.9,1.3,4.2,2.9,4.8,5.9c0.5,1.4,0.2,2.4,0.1,3.6c0,0,0-0.1,0.1-0.1
				c0.1-0.4,0.6-0.6,0.7-1C542.8,130.7,542.8,129.5,542.6,128.3z"/>
			<path id="XMLID_202_" d="M512.6,126.9c-0.3-0.8-0.9-1.6-1.5-2.2c-0.8-0.8-1.7-1.5-2.8-1.8c-0.6-0.2-1.3-0.4-1.9-0.4
				s-1.1,0-1.7,0.1s-1.2,0.3-1.8,0.6c-0.7,0.3-1.3,0.8-1.9,1.3c-0.7,0.6-1.2,1.4-1.5,2.3c-0.4,1-0.7,2-0.7,3c0,0.5,0.1,0.9,0.1,1.4
				c0,0.4,0.1,0.7,0.3,1l0.1,0.1c0,0,0.1-0.4,0.1-0.5c0-0.8,0.2-1.4,0.3-2.2c0-0.2,0.1-0.4,0.2-0.6c0-0.1,0-0.2,0.1-0.2
				c0.1-0.4,0.3-0.9,0.6-1.2c0.1-0.2,0.2-0.3,0.3-0.5c0.5-0.7,1.1-1.4,1.8-1.9c1-0.7,2.1-1.1,3.4-1c0.7,0,1.4,0.1,2,0.4
				c0.5,0.2,1.1,0.5,1.5,0.9c2.3,2.4,3.1,5.3,3.3,8c0-0.1,0.1-0.2,0.1-0.3C513,132.9,513.7,129.5,512.6,126.9z"/>
		</g>
	</g>
	<ellipse id="XMLID_200_" cx="507.9" cy="131.4" rx="3.3" ry="3.8"/>
	<ellipse id="XMLID_199_" class="st0" cx="510.1" cy="129.7" rx="2.3" ry="2.2"/>
	<circle id="XMLID_198_" cx="535.7" cy="130.2" r="4.1"/>
	<ellipse id="XMLID_197_" class="st0" cx="538.5" cy="128.2" rx="2.7" ry="2.5"/>
</g>
<g id="XMLID_175_">
	<g id="XMLID_193_">
		<path id="XMLID_195_" class="st0" d="M434.7,48.7c-0.5-0.8-2.6-7.2,0.1-9.8s4.8-3,7.6-1.8s4.2,4.6,4.6,6.8s0.8,6.9-2.8,7.8
			C440.7,52.7,436.5,51.7,434.7,48.7z"/>
		<path id="XMLID_194_" class="st0" d="M478.2,46.3c0.4-0.9,2.1-7.1-3.6-10.2c-3.3-1.8-5.9-1.4-8.7,0c-4.6,2.3-5.2,5.7-5.9,7.8
			c-0.9,2.9-1.3,6.9,2.3,7.9C466,52.7,475,53,478.2,46.3z"/>
	</g>
	<g id="XMLID_190_">
		<path id="XMLID_192_" class="st1" d="M447.1,43.3c0.9,4.1,0,7.8-2.4,8.3s-5.4-3-6.3-7.1s0.4-7.3,2.8-7.8
			C443.5,36.2,446.2,39.1,447.1,43.3z"/>
		<path id="XMLID_191_" class="st1" d="M472.5,35.6c0,0,4.6-0.1,4.5,7.1c0,7.2-4.5,8.2-6.5,8.4c-2.1,0.2-6.5-2.5-5.2-9.2
			S472.5,35.6,472.5,35.6z"/>
	</g>
	<g id="XMLID_187_">
		<path id="XMLID_189_" class="st2" d="M447.2,44.2c0-0.3-0.1-0.6-0.2-0.9c-0.9-4.1-3.6-7.1-5.9-6.6c-2.4,0.5-3.6,3.6-2.8,7.8
			c0.3,1.6,1,3.1,1.8,4.3C441.8,46.3,444.5,44.9,447.2,44.2z"/>
		<path id="XMLID_188_" class="st2" d="M471.2,44.6c1.6-0.7,3.3-1.1,4.9-1.4c0.3-0.1,0.6-0.2,0.9-0.2c0-0.1,0-0.1,0-0.2
			c0-7.2-4.5-7.1-4.5-7.1s-5.8-0.5-7.2,6.2c-0.5,2.6-0.2,4.5,0.5,6C467.5,46.5,469.3,45.4,471.2,44.6z"/>
	</g>
	<g id="XMLID_184_">
		<path id="XMLID_186_" class="st3" d="M444.1,40.6c1.6,0.1,1.5,2.3,0,2.4l0,0c0.3,0.3,0.3,0.7,0.1,1.1c0.8-0.6,1.7-1,2.7-1.4
			c-1-3.9-3.5-6.6-5.8-6.1c-2.2,0.5-3.4,3.1-2.9,6.6C439.5,41.4,441.7,40.4,444.1,40.6z"/>
		<path id="XMLID_185_" class="st3" d="M471.8,39.1c0.7-0.1,1.1,0.4,1.2,0.9c0.4-0.2,0.8-0.3,1.3-0.3c0.4-0.4,0.9-0.6,1.5-0.3
			c0.5,0.3,0.9,0.6,1.2,1c-0.8-4.9-4.4-4.8-4.4-4.8s-5.6-0.5-7.1,5.9C467.2,40,469.4,39.3,471.8,39.1z"/>
	</g>
	
		<ellipse id="XMLID_183_" transform="matrix(-0.2087 -0.978 0.978 -0.2087 493.0179 487.9444)" class="st12" cx="443.9" cy="44.5" rx="4.2" ry="2.4"/>
	
		<ellipse id="XMLID_182_" transform="matrix(4.013735e-02 -0.9992 0.9992 4.013735e-02 409.4118 512.5892)" class="st12" cx="471.5" cy="43.2" rx="4.5" ry="2.7"/>
	<g id="XMLID_179_">
		
			<ellipse id="XMLID_181_" transform="matrix(-0.1616 -0.9869 0.9869 -0.1616 511.3416 516.3727)" class="st0" cx="475" cy="41" rx="3.7" ry="2.1"/>
		
			<ellipse id="XMLID_180_" transform="matrix(-0.2257 -0.9742 0.9742 -0.2257 504.4688 486.3432)" class="st0" cx="445.5" cy="42.7" rx="3.2" ry="1.4"/>
	</g>
	<g id="XMLID_176_">
		<path id="XMLID_178_" class="st12" d="M434.3,48.5c-0.3-0.5-1.9-3.6-1.5-7s3.3-5.5,6.6-5.9c3.2-0.3,6.7,2.3,7.8,6.8
			s0.3,4.4,0.3,4.4s-0.5-4.3-2.4-7.2c-2-3-6.4-3.4-9-1c-2.5,2.4-2.1,6.2-1.7,7.8s1.1,3.1,0.9,3.3C435.1,49.7,434.3,48.5,434.3,48.5z
			"/>
		<path id="XMLID_177_" class="st12" d="M459.3,44.4c0.1-1,1.3-5.8,5.8-8.7c1.9-1.2,3.8-1.7,5.5-1.7c2.3,0,4.1,0.3,5.9,1.3
			c3.5,2,4.2,6.7,1.9,11.5c0,0-0.5,1-0.1-1s0.7-6.1-2.7-8.5s-9.1-1.3-12.2,1.5s-3.8,7.2-3.8,7.2S459.2,45.9,459.3,44.4z"/>
	</g>
</g>
<g id="XMLID_154_">
	<g id="XMLID_172_">
		<path id="XMLID_174_" class="st0" d="M434.7,77.7c-0.5-0.8-2.6-7.2,0.1-9.8s4.8-3,7.6-1.8s4.2,4.6,4.6,6.8s0.8,6.9-2.8,7.8
			C440.7,81.7,436.5,80.7,434.7,77.7z"/>
		<path id="XMLID_173_" class="st0" d="M478.2,75.4c0.4-0.9,2.1-7.1-3.6-10.2c-3.3-1.8-5.9-1.4-8.7,0c-4.6,2.3-5.2,5.7-5.9,7.8
			c-0.9,2.9-1.3,6.9,2.3,7.9C466,81.7,475,82,478.2,75.4z"/>
	</g>
	<g id="XMLID_169_">
		<path id="XMLID_171_" class="st4" d="M447.1,72.3c0.9,4.1,0,7.8-2.4,8.3s-5.4-3-6.3-7.1s0.4-7.3,2.8-7.8S446.2,68.2,447.1,72.3z"
			/>
		<path id="XMLID_170_" class="st4" d="M472.5,64.6c0,0,4.6-0.1,4.5,7.1c0,7.2-4.5,8.2-6.5,8.4c-2.1,0.2-6.5-2.5-5.2-9.2
			S472.5,64.6,472.5,64.6z"/>
	</g>
	<g id="XMLID_166_">
		<path id="XMLID_168_" class="st5" d="M447.2,73.2c0-0.3-0.1-0.6-0.2-0.9c-0.9-4.1-3.6-7.1-5.9-6.6c-2.4,0.5-3.6,3.6-2.8,7.8
			c0.3,1.6,1,3.1,1.8,4.3C441.8,75.3,444.5,73.9,447.2,73.2z"/>
		<path id="XMLID_167_" class="st5" d="M471.2,73.6c1.6-0.7,3.3-1.1,4.9-1.4c0.3-0.1,0.6-0.2,0.9-0.2c0-0.1,0-0.1,0-0.2
			c0-7.2-4.5-7.1-4.5-7.1s-5.8-0.5-7.2,6.2c-0.5,2.6-0.2,4.5,0.5,6C467.5,75.5,469.3,74.4,471.2,73.6z"/>
	</g>
	<g id="XMLID_163_">
		<path id="XMLID_165_" class="st6" d="M444.1,69.6c1.6,0.1,1.5,2.3,0,2.4l0,0c0.3,0.3,0.3,0.7,0.1,1.1c0.8-0.6,1.7-1,2.7-1.4
			c-1-3.9-3.5-6.6-5.8-6.1c-2.2,0.5-3.4,3.1-2.9,6.6C439.5,70.4,441.7,69.4,444.1,69.6z"/>
		<path id="XMLID_164_" class="st6" d="M471.8,68.1c0.7-0.1,1.1,0.4,1.2,0.9c0.4-0.2,0.8-0.3,1.3-0.3c0.4-0.4,0.9-0.6,1.5-0.3
			c0.5,0.3,0.9,0.6,1.2,1c-0.8-4.9-4.4-4.8-4.4-4.8s-5.6-0.5-7.1,5.9C467.2,69,469.4,68.3,471.8,68.1z"/>
	</g>
	
		<ellipse id="XMLID_162_" transform="matrix(-0.2087 -0.978 0.978 -0.2087 464.651 522.9944)" class="st12" cx="443.9" cy="73.5" rx="4.2" ry="2.4"/>
	
		<ellipse id="XMLID_161_" transform="matrix(4.013735e-02 -0.9992 0.9992 4.013735e-02 380.4355 540.4258)" class="st12" cx="471.5" cy="72.2" rx="4.5" ry="2.7"/>
	<g id="XMLID_158_">
		
			<ellipse id="XMLID_160_" transform="matrix(-0.1616 -0.9869 0.9869 -0.1616 482.7206 550.0595)" class="st0" cx="475" cy="70" rx="3.7" ry="2.1"/>
		
			<ellipse id="XMLID_159_" transform="matrix(-0.2257 -0.9742 0.9742 -0.2257 476.2134 521.8863)" class="st0" cx="445.5" cy="71.7" rx="3.2" ry="1.4"/>
	</g>
	<g id="XMLID_155_">
		<path id="XMLID_157_" class="st12" d="M434.3,77.5c-0.3-0.5-1.9-3.6-1.5-7s3.3-5.5,6.6-5.9s6.7,2.3,7.8,6.8
			c1.1,4.5,0.3,4.4,0.3,4.4s-0.5-4.3-2.4-7.2c-2-3-6.4-3.4-9-1c-2.5,2.4-2.1,6.2-1.7,7.8c0.4,1.6,1.1,3.1,0.9,3.3
			C435.1,78.8,434.3,77.5,434.3,77.5z"/>
		<path id="XMLID_156_" class="st12" d="M459.3,73.4c0.1-1,1.3-5.8,5.8-8.7c1.9-1.2,3.8-1.7,5.5-1.7c2.3,0,4.1,0.3,5.9,1.3
			c3.5,2,4.2,6.7,1.9,11.5c0,0-0.5,1-0.1-1s0.7-6.1-2.7-8.5c-3.4-2.4-9.1-1.3-12.2,1.5s-3.8,7.2-3.8,7.2S459.2,74.9,459.3,73.4z"/>
	</g>
</g>
<g id="XMLID_133_">
	<g id="XMLID_151_">
		<path id="XMLID_153_" class="st0" d="M434.7,104c-0.5-0.8-2.6-7.2,0.1-9.8s4.8-3,7.6-1.8s4.2,4.6,4.6,6.8s0.8,6.9-2.8,7.8
			C440.7,108,436.5,106.9,434.7,104z"/>
		<path id="XMLID_152_" class="st0" d="M478.2,101.6c0.4-0.9,2.1-7.1-3.6-10.2c-3.3-1.8-5.9-1.4-8.7,0c-4.6,2.3-5.2,5.7-5.9,7.8
			c-0.9,2.9-1.3,6.9,2.3,7.9C466,108,475,108.3,478.2,101.6z"/>
	</g>
	<g id="XMLID_148_">
		<path id="XMLID_150_" class="st7" d="M447.1,98.6c0.9,4.1,0,7.8-2.4,8.3s-5.4-3-6.3-7.1s0.4-7.3,2.8-7.8
			C443.5,91.4,446.2,94.4,447.1,98.6z"/>
		<path id="XMLID_149_" class="st7" d="M472.5,90.9c0,0,4.6-0.1,4.5,7.1c0,7.2-4.5,8.2-6.5,8.4c-2.1,0.2-6.5-2.5-5.2-9.2
			S472.5,90.9,472.5,90.9z"/>
	</g>
	<g id="XMLID_145_">
		<path id="XMLID_147_" class="st8" d="M447.2,99.5c0-0.3-0.1-0.6-0.2-0.9c-0.9-4.1-3.6-7.1-5.9-6.6c-2.4,0.5-3.6,3.6-2.8,7.8
			c0.3,1.6,1,3.1,1.8,4.3C441.8,101.6,444.5,100.2,447.2,99.5z"/>
		<path id="XMLID_146_" class="st8" d="M471.2,99.8c1.6-0.7,3.3-1.1,4.9-1.4c0.3-0.1,0.6-0.2,0.9-0.2c0-0.1,0-0.1,0-0.2
			c0-7.2-4.5-7.1-4.5-7.1s-5.8-0.5-7.2,6.2c-0.5,2.6-0.2,4.5,0.5,6C467.5,101.8,469.3,100.7,471.2,99.8z"/>
	</g>
	<g id="XMLID_142_">
		<path id="XMLID_144_" class="st9" d="M444.1,95.9c1.6,0.1,1.5,2.3,0,2.4l0,0c0.3,0.3,0.3,0.7,0.1,1.1c0.8-0.6,1.7-1,2.7-1.4
			c-1-3.9-3.5-6.6-5.8-6.1c-2.2,0.5-3.4,3.1-2.9,6.6C439.5,96.7,441.7,95.7,444.1,95.9z"/>
		<path id="XMLID_143_" class="st9" d="M471.8,94.3c0.7-0.1,1.1,0.4,1.2,0.9c0.4-0.2,0.8-0.3,1.3-0.3c0.4-0.4,0.9-0.6,1.5-0.3
			c0.5,0.3,0.9,0.6,1.2,1c-0.8-4.9-4.4-4.8-4.4-4.8s-5.6-0.5-7.1,5.9C467.2,95.3,469.4,94.6,471.8,94.3z"/>
	</g>
	
		<ellipse id="XMLID_141_" transform="matrix(-0.2087 -0.978 0.978 -0.2087 438.9395 554.7903)" class="st12" cx="443.9" cy="99.8" rx="4.2" ry="2.4"/>
	
		<ellipse id="XMLID_140_" transform="matrix(4.013735e-02 -0.9992 0.9992 4.013735e-02 354.155 565.6687)" class="st12" cx="471.5" cy="98.5" rx="4.5" ry="2.7"/>
	<g id="XMLID_137_">
		
			<ellipse id="XMLID_139_" transform="matrix(-0.1616 -0.9869 0.9869 -0.1616 456.7749 580.6177)" class="st0" cx="475" cy="96.3" rx="3.7" ry="2.1"/>
		
			<ellipse id="XMLID_138_" transform="matrix(-0.2257 -0.9742 0.9742 -0.2257 450.6717 553.9888)" class="st0" cx="445.5" cy="97.9" rx="3.2" ry="1.4"/>
	</g>
	<g id="XMLID_134_">
		<path id="XMLID_136_" class="st12" d="M434.3,103.7c-0.3-0.5-1.9-3.6-1.5-7s3.3-5.5,6.6-5.9c3.2-0.3,6.7,2.3,7.8,6.8
			c1.1,4.5,0.3,4.4,0.3,4.4s-0.5-4.3-2.4-7.2c-2-3-6.4-3.4-9-1c-2.5,2.4-2.1,6.2-1.7,7.8c0.4,1.6,1.1,3.1,0.9,3.3
			C435.1,105,434.3,103.7,434.3,103.7z"/>
		<path id="XMLID_135_" class="st12" d="M459.3,99.7c0.1-1,1.3-5.8,5.8-8.7c1.9-1.2,3.8-1.7,5.5-1.7c2.3,0,4.1,0.3,5.9,1.3
			c3.5,2,4.2,6.7,1.9,11.5c0,0-0.5,1-0.1-1s0.7-6.1-2.7-8.5s-9.1-1.3-12.2,1.5s-3.8,7.2-3.8,7.2S459.2,101.2,459.3,99.7z"/>
	</g>
</g>
<g id="XMLID_112_">
	<g id="XMLID_130_">
		<path id="XMLID_132_" class="st0" d="M434.7,136c-0.5-0.8-2.6-7.2,0.1-9.8c2.7-2.6,4.8-3,7.6-1.8s4.2,4.6,4.6,6.8s0.8,6.9-2.8,7.8
			C440.7,140,436.5,138.9,434.7,136z"/>
		<path id="XMLID_131_" class="st0" d="M478.2,133.6c0.4-0.9,2.1-7.1-3.6-10.3c-3.3-1.8-5.9-1.4-8.7,0c-4.6,2.3-5.2,5.7-5.9,7.8
			c-0.9,2.9-1.3,6.9,2.3,7.9C466,140,475,140.3,478.2,133.6z"/>
	</g>
	<g id="XMLID_127_">
		<path id="XMLID_129_" class="st10" d="M447.1,130.6c0.9,4.1,0,7.8-2.4,8.3s-5.4-3-6.3-7.1c-0.9-4.1,0.4-7.3,2.8-7.8
			S446.2,126.4,447.1,130.6z"/>
		<path id="XMLID_128_" class="st10" d="M472.5,122.9c0,0,4.6-0.1,4.5,7.1c0,7.2-4.5,8.2-6.5,8.4c-2.1,0.2-6.5-2.5-5.2-9.2
			S472.5,122.9,472.5,122.9z"/>
	</g>
	<g id="XMLID_124_">
		<path id="XMLID_126_" class="st11" d="M447.2,131.4c0-0.3-0.1-0.6-0.2-0.9c-0.9-4.1-3.6-7.1-5.9-6.6c-2.4,0.5-3.6,3.6-2.8,7.8
			c0.3,1.6,1,3.1,1.8,4.3C441.8,133.6,444.5,132.2,447.2,131.4z"/>
		<path id="XMLID_125_" class="st11" d="M471.2,131.8c1.6-0.7,3.3-1.1,4.9-1.4c0.3-0.1,0.6-0.2,0.9-0.2c0-0.1,0-0.1,0-0.2
			c0-7.2-4.5-7.1-4.5-7.1s-5.8-0.5-7.2,6.3c-0.5,2.6-0.2,4.5,0.5,6C467.5,133.8,469.3,132.7,471.2,131.8z"/>
	</g>
	<g id="XMLID_121_">
		<path id="XMLID_123_" class="st12" d="M444.1,127.9c1.6,0.1,1.5,2.3,0,2.4l0,0c0.3,0.3,0.3,0.7,0.1,1.1c0.8-0.6,1.7-1,2.7-1.4
			c-1-3.9-3.5-6.6-5.8-6.1c-2.2,0.5-3.4,3.1-2.9,6.6C439.5,128.7,441.7,127.7,444.1,127.9z"/>
		<path id="XMLID_122_" class="st12" d="M471.8,126.3c0.7-0.1,1.1,0.4,1.2,0.9c0.4-0.2,0.8-0.3,1.3-0.3c0.4-0.4,0.9-0.6,1.5-0.3
			c0.5,0.3,0.9,0.6,1.2,1c-0.8-4.9-4.4-4.8-4.4-4.8s-5.6-0.5-7.1,5.9C467.2,127.3,469.4,126.6,471.8,126.3z"/>
	</g>
	
		<ellipse id="XMLID_120_" transform="matrix(-0.2087 -0.978 0.978 -0.2087 407.6428 593.469)" class="st12" cx="443.9" cy="131.8" rx="4.2" ry="2.4"/>
	
		<ellipse id="XMLID_119_" transform="matrix(4.013735e-02 -0.9992 0.9992 4.013735e-02 322.1804 596.3843)" class="st12" cx="471.5" cy="130.5" rx="4.5" ry="2.7"/>
	<g id="XMLID_116_">
		
			<ellipse id="XMLID_118_" transform="matrix(-0.1616 -0.9869 0.9869 -0.1616 425.1967 617.7919)" class="st0" cx="475" cy="128.3" rx="3.7" ry="2.1"/>
		
			<ellipse id="XMLID_117_" transform="matrix(-0.2257 -0.9742 0.9742 -0.2257 419.4984 593.212)" class="st0" cx="445.5" cy="129.9" rx="3.2" ry="1.4"/>
	</g>
	<g id="XMLID_113_">
		<path id="XMLID_115_" class="st12" d="M434.3,135.7c-0.3-0.5-1.9-3.6-1.5-7c0.4-3.4,3.3-5.5,6.6-5.9c3.2-0.3,6.7,2.3,7.8,6.8
			c1.1,4.5,0.3,4.4,0.3,4.4s-0.5-4.3-2.4-7.2c-2-3-6.4-3.4-9-1c-2.5,2.4-2.1,6.2-1.7,7.8s1.1,3.1,0.9,3.3
			C435.1,137,434.3,135.7,434.3,135.7z"/>
		<path id="XMLID_114_" class="st12" d="M459.3,131.7c0.1-1,1.3-5.8,5.8-8.7c1.9-1.2,3.8-1.7,5.5-1.7c2.3,0,4.1,0.3,5.9,1.3
			c3.5,2,4.2,6.7,1.9,11.5c0,0-0.5,1-0.1-1s0.7-6.1-2.7-8.5s-9.1-1.3-12.2,1.5s-3.8,7.2-3.8,7.2S459.2,133.1,459.3,131.7z"/>
	</g>
</g>
<g id="XMLID_87_">
	<g id="XMLID_91_">
		<g id="XMLID_109_">
			<path id="XMLID_111_" class="st0" d="M628.6,49.2c-0.5-0.8-2.6-7.2,0.1-9.8s4.8-3,7.6-1.8s4.2,4.6,4.6,6.8s0.8,6.9-2.8,7.8
				S630.4,52.2,628.6,49.2z"/>
			<path id="XMLID_110_" class="st0" d="M672.1,46.8c0.4-0.9,2.1-7.1-3.6-10.2c-3.3-1.8-5.9-1.4-8.7,0c-4.6,2.3-5.2,5.7-5.9,7.8
				c-0.9,2.9-1.3,6.9,2.3,7.9S668.9,53.5,672.1,46.8z"/>
		</g>
		<g id="XMLID_106_">
			<path id="XMLID_108_" class="st1" d="M641,43.8c0.9,4.1,0,7.8-2.4,8.3s-5.4-3-6.3-7.1s0.4-7.3,2.8-7.8S640.1,39.6,641,43.8z"/>
			<path id="XMLID_107_" class="st1" d="M666.4,36.1c0,0,4.6-0.1,4.5,7.1c0,7.2-4.5,8.2-6.5,8.4s-6.5-2.5-5.2-9.2
				C660.6,35.6,666.4,36.1,666.4,36.1z"/>
		</g>
		<g id="XMLID_103_">
			<path id="XMLID_105_" class="st2" d="M641.1,44.7c0-0.3-0.1-0.6-0.2-0.9c-0.9-4.1-3.6-7.1-5.9-6.6c-2.4,0.5-3.6,3.6-2.8,7.8
				c0.3,1.6,1,3.1,1.8,4.3C635.6,46.8,638.3,45.4,641.1,44.7z"/>
			<path id="XMLID_104_" class="st2" d="M665.1,45.1c1.6-0.7,3.3-1.1,4.9-1.4c0.3-0.1,0.6-0.2,0.9-0.2c0-0.1,0-0.1,0-0.2
				c0-7.2-4.5-7.1-4.5-7.1s-5.8-0.5-7.2,6.2c-0.5,2.6-0.2,4.5,0.5,6C661.4,47,663.1,45.9,665.1,45.1z"/>
		</g>
		<g id="XMLID_100_">
			<path id="XMLID_102_" class="st3" d="M638,41.1c1.6,0.1,1.5,2.3,0,2.4l0,0c0.3,0.3,0.3,0.7,0.1,1.1c0.8-0.6,1.7-1,2.7-1.4
				c-1-3.9-3.5-6.6-5.8-6.1c-2.2,0.5-3.4,3.1-2.9,6.6C633.4,41.9,635.5,40.9,638,41.1z"/>
			<path id="XMLID_101_" class="st3" d="M665.6,39.6c0.7-0.1,1.1,0.4,1.2,0.9c0.4-0.2,0.8-0.3,1.3-0.3c0.4-0.4,0.9-0.6,1.5-0.3
				c0.5,0.3,0.9,0.6,1.2,1c-0.8-4.9-4.4-4.8-4.4-4.8s-5.6-0.5-7.1,5.9C661.1,40.5,663.3,39.8,665.6,39.6z"/>
		</g>
		
			<ellipse id="XMLID_99_" transform="matrix(-0.2087 -0.978 0.978 -0.2087 726.9008 678.1844)" class="st12" cx="637.8" cy="45" rx="4.2" ry="2.4"/>
		
			<ellipse id="XMLID_98_" transform="matrix(4.013735e-02 -0.9992 0.9992 4.013735e-02 595.0293 706.8151)" class="st12" cx="665.4" cy="43.7" rx="4.5" ry="2.7"/>
		<g id="XMLID_95_">
			
				<ellipse id="XMLID_97_" transform="matrix(-0.1616 -0.9869 0.9869 -0.1616 735.9721 708.2172)" class="st0" cx="668.8" cy="41.5" rx="3.7" ry="2.1"/>
			
				<ellipse id="XMLID_96_" transform="matrix(-0.2257 -0.9742 0.9742 -0.2257 741.511 675.776)" class="st0" cx="639.3" cy="43.2" rx="3.2" ry="1.4"/>
		</g>
		<g id="XMLID_92_">
			<path id="XMLID_94_" class="st12" d="M628.2,49c-0.3-0.5-1.9-3.6-1.5-7s3.3-5.5,6.6-5.9c3.2-0.3,6.7,2.3,7.8,6.8s0.3,4.4,0.3,4.4
				s-0.5-4.3-2.4-7.2c-2-3-6.4-3.4-9-1c-2.5,2.4-2.1,6.2-1.7,7.8s1.1,3.1,0.9,3.3C629,50.2,628.2,49,628.2,49z"/>
			<path id="XMLID_93_" class="st12" d="M653.2,44.9c0.1-1,1.3-5.8,5.8-8.7c1.9-1.2,3.8-1.7,5.5-1.7c2.3,0,4.1,0.3,5.9,1.3
				c3.5,2,4.2,6.7,1.9,11.5c0,0-0.5,1-0.1-1s0.7-6.1-2.7-8.5s-9.1-1.3-12.2,1.5s-3.8,7.2-3.8,7.2S653,46.4,653.2,44.9z"/>
		</g>
	</g>
	<g id="XMLID_88_">
		<path id="XMLID_90_" class="st12" d="M628.4,49.1c0.4,1.3-2.5-3.9-3.1-8.8c0,0-0.1-1.8,0.5-0.8s1.4,1.5,1.4,1.5s-1.1-2.4-1.1-4
			c-0.1-1.6,0.5-0.9,0.7-0.7s2,1.2,4.2,0.5c0,0,1.2-0.2,0.5,0.8C631.4,37.5,625.4,39.2,628.4,49.1z"/>
		<path id="XMLID_89_" class="st12" d="M672.2,47.3c0,0,2.6-5.8,2.7-9.7c0,0,0.1-1.3-0.6-0.7c-0.7,0.6-1.7,0.8-1.9,0.7
			c0,0,1.3-1.6,1.2-3.2s-0.2-0.7-1.4-0.2c-1.1,0.5-1.8,1.1-5.5,0.4c0,0-0.7,0.1,2.6,2C672.1,38.3,673.9,40.9,672.2,47.3z"/>
	</g>
</g>
<g id="XMLID_293_">
	<g id="XMLID_297_">
		<g id="XMLID_315_">
			<path id="XMLID_317_" class="st0" d="M133.1,135.9c-0.5-0.8-2.6-7.2,0.1-9.8c2.7-2.6,4.8-3,7.6-1.8c2.8,1.2,4.2,4.6,4.6,6.8
				s0.8,6.9-2.8,7.8C139,139.8,134.9,138.9,133.1,135.9z"/>
			<path id="XMLID_316_" class="st0" d="M176.6,133.5c0.4-0.9,2.1-7.1-3.6-10.2c-3.3-1.8-5.9-1.4-8.7,0c-4.6,2.3-5.2,5.7-5.9,7.8
				c-0.9,2.9-1.3,6.9,2.3,7.9S173.4,140.2,176.6,133.5z"/>
		</g>
		<g id="XMLID_312_">
			<path id="XMLID_314_" class="st1" d="M145.5,130.5c0.9,4.1,0,7.8-2.4,8.3s-5.4-3-6.3-7.1c-0.9-4.1,0.4-7.3,2.8-7.8
				S144.6,126.3,145.5,130.5z"/>
			<path id="XMLID_313_" class="st1" d="M170.9,122.8c0,0,4.6-0.1,4.5,7.1c0,7.2-4.5,8.2-6.5,8.4s-6.5-2.5-5.2-9.2
				C165.1,122.3,170.9,122.8,170.9,122.8z"/>
		</g>
		<g id="XMLID_309_">
			<path id="XMLID_311_" class="st2" d="M145.6,131.4c0-0.3-0.1-0.6-0.2-0.9c-0.9-4.1-3.6-7.1-5.9-6.6c-2.4,0.5-3.6,3.6-2.8,7.8
				c0.3,1.6,1,3.1,1.8,4.3C140.1,133.5,142.8,132.1,145.6,131.4z"/>
			<path id="XMLID_310_" class="st2" d="M169.6,131.8c1.6-0.7,3.3-1.1,4.9-1.4c0.3-0.1,0.6-0.2,0.9-0.2c0-0.1,0-0.1,0-0.2
				c0-7.2-4.5-7.1-4.5-7.1s-5.8-0.5-7.2,6.2c-0.5,2.6-0.2,4.5,0.5,6C165.9,133.7,167.6,132.6,169.6,131.8z"/>
		</g>
		<g id="XMLID_306_">
			<path id="XMLID_308_" class="st3" d="M142.5,127.8c1.6,0.1,1.5,2.3,0,2.4l0,0c0.3,0.3,0.3,0.7,0.1,1.1c0.8-0.6,1.7-1,2.7-1.4
				c-1-3.9-3.5-6.6-5.8-6.1c-2.2,0.5-3.4,3.1-2.9,6.6C137.9,128.6,140,127.6,142.5,127.8z"/>
			<path id="XMLID_307_" class="st3" d="M170.1,126.3c0.7-0.1,1.1,0.4,1.2,0.9c0.4-0.2,0.8-0.3,1.3-0.3c0.4-0.4,0.9-0.6,1.5-0.3
				c0.5,0.3,0.9,0.6,1.2,1c-0.8-4.9-4.4-4.8-4.4-4.8s-5.6-0.5-7.1,5.9C165.6,127.2,167.8,126.5,170.1,126.3z"/>
		</g>
		
			<ellipse id="XMLID_305_" transform="matrix(-0.2087 -0.978 0.978 -0.2087 43.1463 298.3874)" class="st12" cx="142.3" cy="131.7" rx="4.2" ry="2.4"/>
		
			<ellipse id="XMLID_304_" transform="matrix(4.013735e-02 -0.9992 0.9992 4.013735e-02 32.7389 294.927)" class="st12" cx="169.9" cy="130.4" rx="4.5" ry="2.7"/>
		<g id="XMLID_301_">
			
				<ellipse id="XMLID_303_" transform="matrix(-0.1616 -0.9869 0.9869 -0.1616 74.7885 319.9366)" class="st0" cx="173.3" cy="128.2" rx="3.7" ry="2.1"/>
			
				<ellipse id="XMLID_302_" transform="matrix(-0.2257 -0.9742 0.9742 -0.2257 49.6589 299.3284)" class="st0" cx="143.8" cy="129.9" rx="3.2" ry="1.4"/>
		</g>
		<g id="XMLID_298_">
			<path id="XMLID_300_" class="st12" d="M132.7,135.7c-0.3-0.5-1.9-3.6-1.5-7c0.4-3.4,3.3-5.5,6.6-5.9c3.2-0.3,6.7,2.3,7.8,6.8
				c1.1,4.5,0.3,4.4,0.3,4.4s-0.5-4.3-2.4-7.2c-2-3-6.4-3.4-9-1c-2.5,2.4-2.1,6.2-1.7,7.8c0.4,1.6,1.1,3.1,0.9,3.3
				C133.5,136.9,132.7,135.7,132.7,135.7z"/>
			<path id="XMLID_299_" class="st12" d="M157.7,131.6c0.1-1,1.3-5.8,5.8-8.7c1.9-1.2,3.8-1.7,5.5-1.7c2.3,0,4.1,0.3,5.9,1.3
				c3.5,2,4.2,6.7,1.9,11.5c0,0-0.5,1-0.1-1s0.7-6.1-2.7-8.5s-9.1-1.3-12.2,1.5c-3.1,2.8-3.8,7.2-3.8,7.2S157.5,133.1,157.7,131.6z"
				/>
		</g>
	</g>
	<g id="XMLID_294_">
		<path id="XMLID_296_" class="st12" d="M132.9,135.8c0.4,1.3-2.5-3.9-3.1-8.8c0,0-0.1-1.8,0.5-0.8s1.4,1.5,1.4,1.5s-1.1-2.4-1.1-4
			c-0.1-1.6,0.5-0.9,0.7-0.7c0.2,0.2,2,1.2,4.2,0.5c0,0,1.2-0.2,0.5,0.8C135.9,124.2,129.9,125.9,132.9,135.8z"/>
		<path id="XMLID_295_" class="st12" d="M176.7,134c0,0,2.6-5.8,2.7-9.7c0,0,0.1-1.3-0.6-0.7c-0.7,0.6-1.7,0.8-1.9,0.7
			c0,0,1.3-1.6,1.2-3.2c-0.1-1.6-0.2-0.7-1.4-0.2c-1.1,0.5-1.8,1.1-5.5,0.4c0,0-0.7,0.1,2.6,2C176.6,125,178.4,127.6,176.7,134z"/>
	</g>
</g>
<g id="XMLID_62_">
	<g id="XMLID_66_">
		<g id="XMLID_84_">
			<path id="XMLID_86_" class="st0" d="M628.6,78.2c-0.5-0.8-2.6-7.2,0.1-9.8s4.8-3,7.6-1.8s4.2,4.6,4.6,6.8s0.8,6.9-2.8,7.8
				C634.6,82.2,630.4,81.2,628.6,78.2z"/>
			<path id="XMLID_85_" class="st0" d="M672.1,75.9c0.4-0.9,2.1-7.1-3.6-10.2c-3.3-1.8-5.9-1.4-8.7,0c-4.6,2.3-5.2,5.7-5.9,7.8
				c-0.9,2.9-1.3,6.9,2.3,7.9C659.9,82.2,668.9,82.5,672.1,75.9z"/>
		</g>
		<g id="XMLID_81_">
			<path id="XMLID_83_" class="st4" d="M641,72.8c0.9,4.1,0,7.8-2.4,8.3s-5.4-3-6.3-7.1c-0.9-4.1,0.4-7.3,2.8-7.8
				C637.4,65.7,640.1,68.6,641,72.8z"/>
			<path id="XMLID_82_" class="st4" d="M666.4,65.1c0,0,4.6-0.1,4.5,7.1c0,7.2-4.5,8.2-6.5,8.4c-2.1,0.2-6.5-2.5-5.2-9.2
				C660.6,64.6,666.4,65.1,666.4,65.1z"/>
		</g>
		<g id="XMLID_78_">
			<path id="XMLID_80_" class="st5" d="M641.1,73.7c0-0.3-0.1-0.6-0.2-0.9c-0.9-4.1-3.6-7.1-5.9-6.6c-2.4,0.5-3.6,3.6-2.8,7.8
				c0.3,1.6,1,3.1,1.8,4.3C635.6,75.8,638.3,74.4,641.1,73.7z"/>
			<path id="XMLID_79_" class="st5" d="M665.1,74.1c1.6-0.7,3.3-1.1,4.9-1.4c0.3-0.1,0.6-0.2,0.9-0.2c0-0.1,0-0.1,0-0.2
				c0-7.2-4.5-7.1-4.5-7.1s-5.8-0.5-7.2,6.2c-0.5,2.6-0.2,4.5,0.5,6C661.4,76,663.1,74.9,665.1,74.1z"/>
		</g>
		<g id="XMLID_75_">
			<path id="XMLID_77_" class="st6" d="M638,70.1c1.6,0.1,1.5,2.3,0,2.4l0,0c0.3,0.3,0.3,0.7,0.1,1.1c0.8-0.6,1.7-1,2.7-1.4
				c-1-3.9-3.5-6.6-5.8-6.1c-2.2,0.5-3.4,3.1-2.9,6.6C633.4,70.9,635.5,69.9,638,70.1z"/>
			<path id="XMLID_76_" class="st6" d="M665.6,68.6c0.7-0.1,1.1,0.4,1.2,0.9c0.4-0.2,0.8-0.3,1.3-0.3c0.4-0.4,0.9-0.6,1.5-0.3
				c0.5,0.3,0.9,0.6,1.2,1c-0.8-4.9-4.4-4.8-4.4-4.8s-5.6-0.5-7.1,5.9C661.1,69.5,663.3,68.8,665.6,68.6z"/>
		</g>
		
			<ellipse id="XMLID_74_" transform="matrix(-0.2087 -0.978 0.978 -0.2087 698.534 713.2344)" class="st12" cx="637.8" cy="74" rx="4.2" ry="2.4"/>
		
			<ellipse id="XMLID_73_" transform="matrix(4.013735e-02 -0.9992 0.9992 4.013735e-02 566.0529 734.6518)" class="st12" cx="665.4" cy="72.7" rx="4.5" ry="2.7"/>
		<g id="XMLID_70_">
			
				<ellipse id="XMLID_72_" transform="matrix(-0.1616 -0.9869 0.9869 -0.1616 707.3511 741.904)" class="st0" cx="668.8" cy="70.5" rx="3.7" ry="2.1"/>
			
				<ellipse id="XMLID_71_" transform="matrix(-0.2257 -0.9742 0.9742 -0.2257 713.2556 711.3192)" class="st0" cx="639.3" cy="72.2" rx="3.2" ry="1.4"/>
		</g>
		<g id="XMLID_67_">
			<path id="XMLID_69_" class="st12" d="M628.2,78c-0.3-0.5-1.9-3.6-1.5-7s3.3-5.5,6.6-5.9c3.2-0.3,6.7,2.3,7.8,6.8s0.3,4.4,0.3,4.4
				s-0.5-4.3-2.4-7.2c-2-3-6.4-3.4-9-1c-2.5,2.4-2.1,6.2-1.7,7.8c0.4,1.6,1.1,3.1,0.9,3.3S628.2,78,628.2,78z"/>
			<path id="XMLID_68_" class="st12" d="M653.2,73.9c0.1-1,1.3-5.8,5.8-8.7c1.9-1.2,3.8-1.7,5.5-1.7c2.3,0,4.1,0.3,5.9,1.3
				c3.5,2,4.2,6.7,1.9,11.5c0,0-0.5,1-0.1-1s0.7-6.1-2.7-8.5s-9.1-1.3-12.2,1.5s-3.8,7.2-3.8,7.2S653,75.4,653.2,73.9z"/>
		</g>
	</g>
	<g id="XMLID_63_">
		<path id="XMLID_65_" class="st12" d="M628.4,78.1c0.4,1.3-2.5-3.9-3.1-8.8c0,0-0.1-1.8,0.5-0.8s1.4,1.5,1.4,1.5s-1.1-2.4-1.1-4
			c-0.1-1.6,0.5-0.9,0.7-0.7c0.2,0.2,2,1.2,4.2,0.5c0,0,1.2-0.2,0.5,0.8C631.4,66.5,625.4,68.3,628.4,78.1z"/>
		<path id="XMLID_64_" class="st12" d="M672.2,76.3c0,0,2.6-5.8,2.7-9.7c0,0,0.1-1.3-0.6-0.7c-0.7,0.6-1.7,0.8-1.9,0.7
			c0,0,1.3-1.6,1.2-3.2c-0.1-1.6-0.2-0.7-1.4-0.2c-1.1,0.5-1.8,1.1-5.5,0.4c0,0-0.7,0.1,2.6,2C672.1,67.3,673.9,69.9,672.2,76.3z"/>
	</g>
</g>
<g id="XMLID_36_">
	<g id="XMLID_41_">
		<g id="XMLID_59_">
			<path id="XMLID_61_" class="st0" d="M628.6,104.5c-0.5-0.8-2.6-7.2,0.1-9.8s4.8-3,7.6-1.8s4.2,4.6,4.6,6.8s0.8,6.9-2.8,7.8
				C634.6,108.5,630.4,107.4,628.6,104.5z"/>
			<path id="XMLID_60_" class="st0" d="M672.1,102.1c0.4-0.9,2.1-7.1-3.6-10.2c-3.3-1.8-5.9-1.4-8.7,0c-4.6,2.3-5.2,5.7-5.9,7.8
				c-0.9,2.9-1.3,6.9,2.3,7.9C659.9,108.5,668.9,108.8,672.1,102.1z"/>
		</g>
		<g id="XMLID_56_">
			<path id="XMLID_58_" class="st7" d="M641,99.1c0.9,4.1,0,7.8-2.4,8.3s-5.4-3-6.3-7.1s0.4-7.3,2.8-7.8
				C637.4,91.9,640.1,94.9,641,99.1z"/>
			<path id="XMLID_57_" class="st7" d="M666.4,91.4c0,0,4.6-0.1,4.5,7.1c0,7.2-4.5,8.2-6.5,8.4s-6.5-2.5-5.2-9.2
				C660.6,90.9,666.4,91.4,666.4,91.4z"/>
		</g>
		<g id="XMLID_53_">
			<path id="XMLID_55_" class="st8" d="M641.1,100c0-0.3-0.1-0.6-0.2-0.9c-0.9-4.1-3.6-7.1-5.9-6.6c-2.4,0.5-3.6,3.6-2.8,7.8
				c0.3,1.6,1,3.1,1.8,4.3C635.6,102.1,638.3,100.7,641.1,100z"/>
			<path id="XMLID_54_" class="st8" d="M665.1,100.3c1.6-0.7,3.3-1.1,4.9-1.4c0.3-0.1,0.6-0.2,0.9-0.2c0-0.1,0-0.1,0-0.2
				c0-7.2-4.5-7.1-4.5-7.1s-5.8-0.5-7.2,6.2c-0.5,2.6-0.2,4.5,0.5,6C661.4,102.3,663.1,101.2,665.1,100.3z"/>
		</g>
		<g id="XMLID_50_">
			<path id="XMLID_52_" class="st9" d="M638,96.4c1.6,0.1,1.5,2.3,0,2.4l0,0c0.3,0.3,0.3,0.7,0.1,1.1c0.8-0.6,1.7-1,2.7-1.4
				c-1-3.9-3.5-6.6-5.8-6.1c-2.2,0.5-3.4,3.1-2.9,6.6C633.4,97.2,635.5,96.2,638,96.4z"/>
			<path id="XMLID_51_" class="st9" d="M665.6,94.8c0.7-0.1,1.1,0.4,1.2,0.9c0.4-0.2,0.8-0.3,1.3-0.3c0.4-0.4,0.9-0.6,1.5-0.3
				c0.5,0.3,0.9,0.6,1.2,1c-0.8-4.9-4.4-4.8-4.4-4.8s-5.6-0.5-7.1,5.9C661.1,95.8,663.3,95.1,665.6,94.8z"/>
		</g>
		
			<ellipse id="XMLID_49_" transform="matrix(-0.2087 -0.978 0.978 -0.2087 672.8224 745.0303)" class="st12" cx="637.8" cy="100.3" rx="4.2" ry="2.4"/>
		
			<ellipse id="XMLID_48_" transform="matrix(4.013735e-02 -0.9992 0.9992 4.013735e-02 539.7725 759.8947)" class="st12" cx="665.4" cy="99" rx="4.5" ry="2.7"/>
		<g id="XMLID_45_">
			
				<ellipse id="XMLID_47_" transform="matrix(-0.1616 -0.9869 0.9869 -0.1616 681.4056 772.4621)" class="st0" cx="668.8" cy="96.8" rx="3.7" ry="2.1"/>
			
				<ellipse id="XMLID_46_" transform="matrix(-0.2257 -0.9742 0.9742 -0.2257 687.7141 743.4215)" class="st0" cx="639.3" cy="98.4" rx="3.2" ry="1.4"/>
		</g>
		<g id="XMLID_42_">
			<path id="XMLID_44_" class="st12" d="M628.2,104.2c-0.3-0.5-1.9-3.6-1.5-7s3.3-5.5,6.6-5.9c3.2-0.3,6.7,2.3,7.8,6.8
				s0.3,4.4,0.3,4.4s-0.5-4.3-2.4-7.2c-2-3-6.4-3.4-9-1c-2.5,2.4-2.1,6.2-1.7,7.8s1.1,3.1,0.9,3.3S628.2,104.2,628.2,104.2z"/>
			<path id="XMLID_43_" class="st12" d="M653.2,100.2c0.1-1,1.3-5.8,5.8-8.7c1.9-1.2,3.8-1.7,5.5-1.7c2.3,0,4.1,0.3,5.9,1.3
				c3.5,2,4.2,6.7,1.9,11.5c0,0-0.5,1-0.1-1s0.7-6.1-2.7-8.5s-9.1-1.3-12.2,1.5s-3.8,7.2-3.8,7.2S653,101.6,653.2,100.2z"/>
		</g>
	</g>
	<g id="XMLID_38_">
		<path id="XMLID_40_" class="st12" d="M628.4,104.3c0.4,1.3-2.5-3.9-3.1-8.8c0,0-0.1-1.8,0.5-0.8s1.4,1.5,1.4,1.5s-1.1-2.4-1.1-4
			c-0.1-1.6,0.5-0.9,0.7-0.7c0.2,0.2,2,1.2,4.2,0.5c0,0,1.2-0.2,0.5,0.8C631.4,92.8,625.4,94.5,628.4,104.3z"/>
		<path id="XMLID_39_" class="st12" d="M672.2,102.6c0,0,2.6-5.8,2.7-9.7c0,0,0.1-1.3-0.6-0.7c-0.7,0.6-1.7,0.8-1.9,0.7
			c0,0,1.3-1.6,1.2-3.2s-0.2-0.7-1.4-0.2c-1.1,0.5-1.8,1.1-5.5,0.4c0,0-0.7,0.1,2.6,2C672.1,93.5,673.9,96.1,672.2,102.6z"/>
	</g>
</g>
<g id="XMLID_1_">
	<g id="XMLID_5_">
		<g id="XMLID_27_">
			<path id="XMLID_35_" class="st0" d="M628.6,136c-0.5-0.8-2.6-7.2,0.1-9.8c2.7-2.6,4.8-3,7.6-1.8s4.2,4.6,4.6,6.8s0.8,6.9-2.8,7.8
				C634.6,140,630.4,138.9,628.6,136z"/>
			<path id="XMLID_34_" class="st0" d="M672.1,133.6c0.4-0.9,2.1-7.1-3.6-10.3c-3.3-1.8-5.9-1.4-8.7,0c-4.6,2.3-5.2,5.7-5.9,7.8
				c-0.9,2.9-1.3,6.9,2.3,7.9S668.9,140.3,672.1,133.6z"/>
		</g>
		<g id="XMLID_20_">
			<path id="XMLID_25_" class="st10" d="M641,130.6c0.9,4.1,0,7.8-2.4,8.3s-5.4-3-6.3-7.1c-0.9-4.1,0.4-7.3,2.8-7.8
				C637.4,123.4,640.1,126.4,641,130.6z"/>
			<path id="XMLID_22_" class="st10" d="M666.4,122.9c0,0,4.6-0.1,4.5,7.1c0,7.2-4.5,8.2-6.5,8.4s-6.5-2.5-5.2-9.2
				C660.6,122.4,666.4,122.9,666.4,122.9z"/>
		</g>
		<g id="XMLID_17_">
			<path id="XMLID_19_" class="st11" d="M641.1,131.4c0-0.3-0.1-0.6-0.2-0.9c-0.9-4.1-3.6-7.1-5.9-6.6c-2.4,0.5-3.6,3.6-2.8,7.8
				c0.3,1.6,1,3.1,1.8,4.3C635.6,133.6,638.3,132.2,641.1,131.4z"/>
			<path id="XMLID_18_" class="st11" d="M665.1,131.8c1.6-0.7,3.3-1.1,4.9-1.4c0.3-0.1,0.6-0.2,0.9-0.2c0-0.1,0-0.1,0-0.2
				c0-7.2-4.5-7.1-4.5-7.1s-5.8-0.5-7.2,6.3c-0.5,2.6-0.2,4.5,0.5,6C661.4,133.8,663.1,132.7,665.1,131.8z"/>
		</g>
		<g id="XMLID_14_">
			<path id="XMLID_16_" class="st12" d="M638,127.9c1.6,0.1,1.5,2.3,0,2.4l0,0c0.3,0.3,0.3,0.7,0.1,1.1c0.8-0.6,1.7-1,2.7-1.4
				c-1-3.9-3.5-6.6-5.8-6.1c-2.2,0.5-3.4,3.1-2.9,6.6C633.4,128.7,635.5,127.7,638,127.9z"/>
			<path id="XMLID_15_" class="st12" d="M665.6,126.3c0.7-0.1,1.1,0.4,1.2,0.9c0.4-0.2,0.8-0.3,1.3-0.3c0.4-0.4,0.9-0.6,1.5-0.3
				c0.5,0.3,0.9,0.6,1.2,1c-0.8-4.9-4.4-4.8-4.4-4.8s-5.6-0.5-7.1,5.9C661.1,127.3,663.3,126.6,665.6,126.3z"/>
		</g>
		
			<ellipse id="XMLID_13_" transform="matrix(-0.2087 -0.978 0.978 -0.2087 642.0142 783.1045)" class="st12" cx="637.8" cy="131.8" rx="4.2" ry="2.4"/>
		
			<ellipse id="XMLID_12_" transform="matrix(4.013735e-02 -0.9992 0.9992 4.013735e-02 508.2977 790.1304)" class="st12" cx="665.4" cy="130.5" rx="4.5" ry="2.7"/>
		<g id="XMLID_9_">
			
				<ellipse id="XMLID_11_" transform="matrix(-0.1616 -0.9869 0.9869 -0.1616 650.3204 809.0553)" class="st0" cx="668.8" cy="128.3" rx="3.7" ry="2.1"/>
			
				<ellipse id="XMLID_10_" transform="matrix(-0.2257 -0.9742 0.9742 -0.2257 657.0272 782.0315)" class="st0" cx="639.3" cy="129.9" rx="3.2" ry="1.4"/>
		</g>
		<g id="XMLID_6_">
			<path id="XMLID_8_" class="st12" d="M628.2,135.7c-0.3-0.5-1.9-3.6-1.5-7c0.4-3.4,3.3-5.5,6.6-5.9c3.2-0.3,6.7,2.3,7.8,6.8
				c1.1,4.5,0.3,4.4,0.3,4.4s-0.5-4.3-2.4-7.2c-2-3-6.4-3.4-9-1c-2.5,2.4-2.1,6.2-1.7,7.8s1.1,3.1,0.9,3.3S628.2,135.7,628.2,135.7z
				"/>
			<path id="XMLID_7_" class="st12" d="M653.2,131.7c0.1-1,1.3-5.8,5.8-8.7c1.9-1.2,3.8-1.7,5.5-1.7c2.3,0,4.1,0.3,5.9,1.3
				c3.5,2,4.2,6.7,1.9,11.5c0,0-0.5,1-0.1-1s0.7-6.1-2.7-8.5s-9.1-1.3-12.2,1.5c-3.1,2.8-3.8,7.2-3.8,7.2S653,133.1,653.2,131.7z"/>
		</g>
	</g>
	<g id="XMLID_2_">
		<path id="XMLID_4_" class="st12" d="M628.4,135.8c0.4,1.3-2.5-3.9-3.1-8.8c0,0-0.1-1.8,0.5-0.8s1.4,1.5,1.4,1.5s-1.1-2.4-1.1-4
			s0.5-0.9,0.7-0.7c0.2,0.2,2,1.2,4.2,0.5c0,0,1.2-0.2,0.5,0.8C631.4,124.3,625.4,126,628.4,135.8z"/>
		<path id="XMLID_3_" class="st12" d="M672.2,134.1c0,0,2.6-5.8,2.7-9.7c0,0,0.1-1.3-0.6-0.7c-0.7,0.6-1.7,0.8-1.9,0.7
			c0,0,1.3-1.6,1.2-3.2s-0.2-0.7-1.4-0.2c-1.1,0.5-1.8,1.1-5.5,0.4c0,0-0.7,0.1,2.6,2C672.1,125,673.9,127.6,672.2,134.1z"/>
	</g>
</g>
</svg>
