<?xml version="1.0" encoding="utf-8"?>
<!-- Generator: Adobe Illustrator 19.0.0, SVG Export Plug-In . SVG Version: 6.00 Build 0)  -->
<svg version="1.1" id="Camada_1" xmlns="http://www.w3.org/2000/svg" xmlns:xlink="http://www.w3.org/1999/xlink" x="0px" y="0px"
	 viewBox="0 0 297.6 425.2" style="enable-background:new 0 0 297.6 425.2;" xml:space="preserve">
<style type="text/css">
	.st0{fill:#FFFFFF;}
	.st1{fill:#71993F;}
	.st2{fill:#557D3A;}
	.st3{fill:#386534;}
</style>
<g id="XMLID_423_">
	<g id="XMLID_424_">
		<path id="XMLID_426_" class="st0" d="M127,218.5c-0.5-0.8-2.6-7.2,0.1-9.8c2.7-2.6,4.8-3,7.6-1.8s4.2,4.6,4.6,6.8s0.8,6.9-2.8,7.8
			S128.8,221.5,127,218.5z"/>
		<path id="XMLID_425_" class="st0" d="M170.4,216.2c0.4-0.9,2.1-7.1-3.6-10.2c-3.3-1.8-5.9-1.4-8.7,0c-4.6,2.3-5.2,5.7-5.9,7.8
			c-0.9,2.9-1.3,6.9,2.3,7.9S167.3,222.8,170.4,216.2z"/>
	</g>
	<g id="XMLID_336_">
		<path id="XMLID_332_" class="st1" d="M139.3,213.1c0.9,4.1,0,7.8-2.4,8.3s-5.4-3-6.3-7.1s0.4-7.3,2.8-7.8
			C135.8,206,138.5,209,139.3,213.1z"/>
		<path id="XMLID_330_" class="st1" d="M164.8,205.4c0,0,4.6-0.1,4.5,7.1c0,7.2-4.5,8.2-6.5,8.4c-2.1,0.2-6.5-2.5-5.2-9.2
			S164.8,205.4,164.8,205.4z"/>
	</g>
	<g id="XMLID_427_">
		<path id="XMLID_434_" class="st2" d="M139.5,214c0-0.3-0.1-0.6-0.2-0.9c-0.9-4.1-3.6-7.1-5.9-6.6c-2.4,0.5-3.6,3.6-2.8,7.8
			c0.3,1.6,1,3.1,1.8,4.3C134,216.1,136.7,214.7,139.5,214z"/>
		<path id="XMLID_433_" class="st2" d="M163.5,214.4c1.6-0.7,3.3-1.1,4.9-1.4c0.3-0.1,0.6-0.2,0.9-0.2c0-0.1,0-0.1,0-0.2
			c0-7.2-4.5-7.1-4.5-7.1s-5.8-0.5-7.2,6.2c-0.5,2.6-0.2,4.5,0.5,6C159.8,216.3,161.5,215.2,163.5,214.4z"/>
	</g>
	<g id="XMLID_428_">
		<path id="XMLID_437_" class="st3" d="M136.4,210.4c1.6,0.1,1.5,2.3,0,2.4c0,0,0,0,0,0c0.3,0.3,0.3,0.7,0.1,1.1
			c0.8-0.6,1.7-1,2.7-1.4c-1-3.9-3.5-6.6-5.8-6.1c-2.2,0.5-3.4,3.1-2.9,6.6C131.8,211.2,133.9,210.2,136.4,210.4z"/>
		<path id="XMLID_442_" class="st3" d="M164,208.9c0.7-0.1,1.1,0.4,1.2,0.9c0.4-0.2,0.8-0.3,1.3-0.3c0.4-0.4,0.9-0.6,1.5-0.3
			c0.5,0.3,0.9,0.6,1.2,1c-0.8-4.9-4.4-4.8-4.4-4.8s-5.6-0.5-7.1,5.9C159.4,209.8,161.6,209.1,164,208.9z"/>
	</g>
	
		<ellipse id="XMLID_329_" transform="matrix(0.978 -0.2087 0.2087 0.978 -41.7343 33.1424)" cx="136.2" cy="214.3" rx="2.4" ry="4.2"/>
	
		<ellipse id="XMLID_331_" transform="matrix(0.9992 4.013759e-02 -4.013759e-02 0.9992 8.6815 -6.4011)" cx="163.8" cy="213" rx="2.7" ry="4.5"/>
	<g id="XMLID_421_">
		
			<ellipse id="XMLID_420_" transform="matrix(0.9869 -0.1616 0.1616 0.9869 -31.8608 29.7869)" class="st0" cx="167.2" cy="210.8" rx="2.1" ry="3.7"/>
		
			<ellipse id="XMLID_422_" transform="matrix(0.9742 -0.2257 0.2257 0.9742 -44.4005 36.5707)" class="st0" cx="137.7" cy="212.5" rx="1.4" ry="3.2"/>
	</g>
	<g id="XMLID_28_">
		<path id="XMLID_30_" d="M126.6,218.3c-0.3-0.5-1.9-3.6-1.5-7s3.3-5.5,6.6-5.9c3.2-0.3,6.7,2.3,7.8,6.8c1.1,4.5,0.3,4.4,0.3,4.4
			s-0.5-4.3-2.4-7.2c-2-3-6.4-3.4-9-1c-2.5,2.4-2.1,6.2-1.7,7.8c0.4,1.6,1.1,3.1,0.9,3.3C127.4,219.6,126.6,218.3,126.6,218.3z"/>
		<path id="XMLID_207_" d="M151.6,214.2c0.1-1,1.3-5.8,5.8-8.7c1.9-1.2,3.8-1.7,5.5-1.7c2.3,0,4.1,0.3,5.9,1.3
			c3.5,2,4.2,6.7,1.9,11.5c0,0-0.5,1-0.1-1s0.7-6.1-2.7-8.5s-9.1-1.3-12.2,1.5c-3.1,2.8-3.8,7.2-3.8,7.2S151.4,215.7,151.6,214.2z"
			/>
	</g>
</g>
</svg>
