<?xml version="1.0" encoding="utf-8"?>
<!-- Generator: Adobe Illustrator 19.0.0, SVG Export Plug-In . SVG Version: 6.00 Build 0)  -->
<svg version="1.1" id="Camada_1" xmlns="http://www.w3.org/2000/svg" xmlns:xlink="http://www.w3.org/1999/xlink" x="0px" y="0px"
	 viewBox="0 0 297.6 425.2" style="enable-background:new 0 0 297.6 425.2;" xml:space="preserve">
<style type="text/css">
	.st0{fill:#FFFFFF;}
	.st1{fill:#58A0B7;}
	.st2{fill:#3B8193;}
	.st3{fill:#1D6875;}
</style>
<g id="XMLID_634_">
	<g id="XMLID_571_">
		<g id="XMLID_589_">
			<path id="XMLID_591_" class="st0" d="M126.9,219c-0.5-0.8-2.6-7.2,0.1-9.8s4.8-3,7.6-1.8s4.2,4.6,4.6,6.8s0.8,6.9-2.8,7.8
				C132.8,223,128.6,222,126.9,219z"/>
			<path id="XMLID_590_" class="st0" d="M170.3,216.7c0.4-0.9,2.1-7.1-3.6-10.2c-3.3-1.8-5.9-1.4-8.7,0c-4.6,2.3-5.2,5.7-5.9,7.8
				c-0.9,2.9-1.3,6.9,2.3,7.9C158.1,223,167.1,223.4,170.3,216.7z"/>
		</g>
		<g id="XMLID_586_">
			<path id="XMLID_588_" class="st1" d="M139.2,213.6c0.9,4.1,0,7.8-2.4,8.3c-2.4,0.5-5.4-3-6.3-7.1s0.4-7.3,2.8-7.8
				S138.3,209.5,139.2,213.6z"/>
			<path id="XMLID_587_" class="st1" d="M164.7,205.9c0,0,4.6-0.1,4.5,7.1c0,7.2-4.5,8.2-6.5,8.4c-2.1,0.2-6.5-2.5-5.2-9.2
				C158.8,205.4,164.7,205.9,164.7,205.9z"/>
		</g>
		<g id="XMLID_583_">
			<path id="XMLID_585_" class="st2" d="M139.4,214.5c0-0.3-0.1-0.6-0.2-0.9c-0.9-4.1-3.6-7.1-5.9-6.6c-2.4,0.5-3.6,3.6-2.8,7.8
				c0.3,1.6,1,3.1,1.8,4.3C133.9,216.6,136.6,215.2,139.4,214.5z"/>
			<path id="XMLID_584_" class="st2" d="M163.3,214.9c1.6-0.7,3.3-1.1,4.9-1.4c0.3-0.1,0.6-0.2,0.9-0.2c0-0.1,0-0.1,0-0.2
				c0-7.2-4.5-7.1-4.5-7.1s-5.8-0.5-7.2,6.2c-0.5,2.6-0.2,4.5,0.5,6C159.6,216.8,161.4,215.8,163.3,214.9z"/>
		</g>
		<g id="XMLID_580_">
			<path id="XMLID_582_" class="st3" d="M136.3,211c1.6,0.1,1.5,2.3,0,2.4c0,0,0,0,0,0c0.3,0.3,0.3,0.7,0.1,1.1
				c0.8-0.6,1.7-1,2.7-1.4c-1-3.9-3.5-6.6-5.8-6.1c-2.2,0.5-3.4,3.1-2.9,6.6C131.7,211.7,133.8,210.7,136.3,211z"/>
			<path id="XMLID_581_" class="st3" d="M163.9,209.4c0.7-0.1,1.1,0.4,1.2,0.9c0.4-0.2,0.8-0.3,1.3-0.3c0.4-0.4,0.9-0.6,1.5-0.3
				c0.5,0.3,0.9,0.6,1.2,1c-0.8-4.9-4.4-4.8-4.4-4.8s-5.6-0.5-7.1,5.9C159.3,210.3,161.5,209.6,163.9,209.4z"/>
		</g>
		
			<ellipse id="XMLID_579_" transform="matrix(0.978 -0.2087 0.2087 0.978 -41.8438 33.1259)" cx="136" cy="214.8" rx="2.4" ry="4.2"/>
		
			<ellipse id="XMLID_578_" transform="matrix(0.9992 4.013759e-02 -4.013759e-02 0.9992 8.7019 -6.3953)" cx="163.6" cy="213.5" rx="2.7" ry="4.5"/>
		<g id="XMLID_575_">
			
				<ellipse id="XMLID_577_" transform="matrix(0.9869 -0.1616 0.1616 0.9869 -31.9451 29.7722)" class="st0" cx="167.1" cy="211.3" rx="2.1" ry="3.7"/>
			
				<ellipse id="XMLID_576_" transform="matrix(0.9742 -0.2257 0.2257 0.9742 -44.5192 36.5539)" class="st0" cx="137.6" cy="213" rx="1.4" ry="3.2"/>
		</g>
		<g id="XMLID_572_">
			<path id="XMLID_574_" d="M126.4,218.8c-0.3-0.5-1.9-3.6-1.5-7c0.4-3.4,3.3-5.5,6.6-5.9c3.2-0.3,6.7,2.3,7.8,6.8
				c1.1,4.5,0.3,4.4,0.3,4.4s-0.5-4.3-2.4-7.2s-6.4-3.4-9-1c-2.5,2.4-2.1,6.2-1.7,7.8c0.4,1.6,1.1,3.1,0.9,3.3
				S126.4,218.8,126.4,218.8z"/>
			<path id="XMLID_573_" d="M151.4,214.7c0.1-1,1.3-5.8,5.8-8.7c1.9-1.2,3.8-1.7,5.5-1.7c2.3,0,4.1,0.3,5.9,1.3
				c3.5,2,4.2,6.7,1.9,11.5c0,0-0.5,1-0.1-1s0.7-6.1-2.7-8.5s-9.1-1.3-12.2,1.5s-3.8,7.2-3.8,7.2S151.3,216.2,151.4,214.7z"/>
		</g>
	</g>
	<g id="XMLID_625_">
		<path id="XMLID_627_" d="M126.6,218.9c0.4,1.3-2.5-3.9-3.1-8.8c0,0-0.1-1.8,0.5-0.8c0.7,1,1.4,1.5,1.4,1.5s-1.1-2.4-1.1-4
			s0.5-0.9,0.7-0.7c0.2,0.2,2,1.2,4.2,0.5c0,0,1.2-0.2,0.5,0.8C129.7,207.3,123.7,209.1,126.6,218.9z"/>
		<path id="XMLID_626_" d="M170.5,217.1c0,0,2.6-5.8,2.7-9.7c0,0,0.1-1.3-0.6-0.7c-0.7,0.6-1.7,0.8-1.9,0.7c0,0,1.3-1.6,1.2-3.2
			s-0.2-0.7-1.4-0.2c-1.1,0.5-1.8,1.1-5.5,0.4c0,0-0.7,0.1,2.6,2C170.3,208.1,172.2,210.7,170.5,217.1z"/>
	</g>
</g>
</svg>
