<?xml version="1.0" encoding="utf-8"?>
<!-- Generator: Adobe Illustrator 19.0.0, SVG Export Plug-In . SVG Version: 6.00 Build 0)  -->
<svg version="1.1" id="Camada_1" xmlns="http://www.w3.org/2000/svg" xmlns:xlink="http://www.w3.org/1999/xlink" x="0px" y="0px"
	 viewBox="0 0 297.6 425.2" style="enable-background:new 0 0 297.6 425.2;" xml:space="preserve">
<style type="text/css">
	.st0{fill:#FFFFFF;}
	.st1{fill:#6B4027;}
	.st2{fill:#593422;}
	.st3{fill:#422419;}
</style>
<g id="XMLID_861_">
	<g id="XMLID_885_">
		<path id="XMLID_887_" class="st0" d="M127.1,213.8c-0.6-1.1-1.7-3.8-1.1-4.4c0.6-0.6,5.2-1.6,8.3-0.2c3.1,1.5,5.3,4.9,6.2,8
			c0,0-2.6,1.5-5.3,1.3C135.1,218.6,129.6,218.3,127.1,213.8z"/>
		<path id="XMLID_886_" class="st0" d="M153.2,216.8c0.2-0.6,2-5.2,6.2-6.9c4.2-1.7,8.1-1.7,12.3-0.4c0,0-0.3,2-2.5,4.2
			c0,0-2.3,3.4-7.4,4.3c0,0-3.9,0.9-8.8-0.7L153.2,216.8z"/>
	</g>
	<g id="XMLID_882_">
		<path id="XMLID_884_" class="st1" d="M139.2,213.7c0.1,2.8-2.2,5-4.6,5c-2.4,0-4.3-2.7-4.3-5.5c0-2.1,1.1-3.7,2.6-4.3
			C133.4,208.6,139.2,211.8,139.2,213.7z"/>
		<path id="XMLID_883_" class="st1" d="M168.3,212.5c0,2.9-2.5,5.2-5.6,5.2c-3.1,0-5.6-2.3-5.6-5.2s4.7-4.2,7.8-4.2
			C168,208.3,168.3,209.6,168.3,212.5z"/>
	</g>
	<g id="XMLID_879_">
		<path id="XMLID_881_" class="st2" d="M134.1,214.6c0.6-0.1,1,0.3,1,0.8c0.4-0.3,0.8-0.5,1.2-0.7c0.3-0.1,0.5-0.1,0.7,0
			c0.4-0.3,1-0.2,1.3,0.2c0.2,0.3,0.4,0.6,0.4,0.9c0.3-0.7,0.5-1.4,0.5-2.2c-0.1-1.9-5.8-5.1-6.3-4.8c-1.5,0.7-2.6,2.2-2.6,4.3
			c0,0.9,0.2,1.8,0.6,2.7C131.9,215.3,133,214.9,134.1,214.6z"/>
		<path id="XMLID_880_" class="st2" d="M161.6,214.8c0.3-0.3,0.8-0.3,1.2,0c0.2-0.1,0.5-0.1,0.7,0c1.2-1.7,2.7-3.1,4.9-3.1
			c-0.1-2.3-0.6-3.4-3.4-3.4c-3.1,0-7.8,1.3-7.8,4.2c0,1.9,1.1,3.6,2.7,4.5C160.3,216.1,160.8,215.4,161.6,214.8z"/>
	</g>
	<g id="XMLID_876_">
		<path id="XMLID_878_" class="st3" d="M133.5,212.3c0.2,0.1,0.4,0.2,0.5,0.3c0.1,0,0.2-0.1,0.3-0.1c0.7-0.7,1.5-1.3,2.3-1.8
			c-1.6-1.1-3.5-2-3.7-1.9c-1.4,0.6-2.4,2-2.5,3.8C131.3,212.2,132.4,212,133.5,212.3z"/>
		<path id="XMLID_877_" class="st3" d="M165.6,210.3c0.1,0,0.1,0,0.1,0.1c-0.1-0.8,0.1-1.7,0.9-1.9c-0.4-0.1-1-0.2-1.7-0.2
			c-3.1,0-7.8,1.3-7.8,4.2c0,0.6,0.1,1.3,0.4,1.8C159.4,211.9,162.6,209.8,165.6,210.3z"/>
	</g>
	<ellipse id="XMLID_875_" cx="134.9" cy="213.6" rx="2.3" ry="3"/>
	
		<ellipse id="XMLID_874_" transform="matrix(0.9762 -0.217 0.217 0.9762 -43.1155 34.8984)" class="st0" cx="137.4" cy="213.8" rx="1.3" ry="2.1"/>
	<g id="XMLID_869_">
		<g id="XMLID_872_">
			<path id="XMLID_873_" d="M140,216.9c-0.2-0.5-1-4.1-4.7-6.1c-5-2.7-9.4-0.9-9.6-0.8c-0.2,0.1-0.5,0.2-0.7,0.2
				c-0.3-0.1,0.2-0.6,0.7-1c0.4-0.3,4.3-2.6,9.9,0.3c4.5,2.3,4.9,7.4,4.9,7.6C140.6,217.3,140.5,218.3,140,216.9z"/>
		</g>
		<g id="XMLID_870_">
			<path id="XMLID_871_" d="M136.5,218.6c0.1,0,0.2-0.1,0.4-0.1c0,0-0.1,0-0.1,0c-7.6,0.2-10-5.5-10.1-5.8c-0.1-0.1-0.2-0.5-0.4-0.5
				c-0.1,0,0.2,0.8,0.2,0.9c0,0.1,1.5,4.6,7.5,5.5C134.5,218.7,135.5,218.8,136.5,218.6z"/>
		</g>
	</g>
	<ellipse id="XMLID_868_" cx="163.2" cy="212.5" rx="2.8" ry="2.9"/>
	
		<ellipse id="XMLID_867_" transform="matrix(0.9301 -0.3674 0.3674 0.9301 -65.9067 75.9422)" class="st0" cx="166.5" cy="211.1" rx="1.6" ry="2.3"/>
	<g id="XMLID_862_">
		<g id="XMLID_865_">
			<path id="XMLID_866_" d="M153.7,216.8c0.2-0.5,1.9-4.5,6.5-6.5c5.9-2.5,11-0.7,11.3-0.6c0.3,0.1,0.6,0.2,0.9,0.2
				c0.3-0.1-0.2-0.6-0.9-1c-0.5-0.3-5.3-2.6-12.2,0.3c-5.5,2.3-6.2,7.6-6.3,7.8C152.9,217.3,153.1,218.3,153.7,216.8z"/>
		</g>
		<g id="XMLID_863_">
			<path id="XMLID_864_" d="M158,218.2c-0.4-0.2,0.6-0.2,0.7-0.2c0,0,4.1,0,7-1.5c2.9-1.5,4.5-4.1,4.6-4.2c0.2-0.2,0.3-0.5,0.5-0.5
				c0.1,0.1-0.1,0.3-0.2,0.5c-0.1,0.1-1.7,3.2-4.7,4.8C163,218.6,158.1,218.3,158,218.2z"/>
		</g>
	</g>
</g>
</svg>
