<?xml version="1.0" encoding="utf-8"?>
<!-- Generator: Adobe Illustrator 19.0.0, SVG Export Plug-In . SVG Version: 6.00 Build 0)  -->
<svg version="1.1" id="Camada_1" xmlns="http://www.w3.org/2000/svg" xmlns:xlink="http://www.w3.org/1999/xlink" x="0px" y="0px"
	 viewBox="0 0 297.6 425.2" style="enable-background:new 0 0 297.6 425.2;" xml:space="preserve">
<style type="text/css">
	.st0{fill:#FFFFFF;}
	.st1{fill:#58A0B7;}
	.st2{fill:#3B8193;}
	.st3{fill:#1D6875;}
</style>
<g id="XMLID_23_">
	<g id="XMLID_858_">
		<path id="XMLID_860_" class="st0" d="M127.1,214.6c-0.6-1.1-1.7-3.8-1.1-4.4c0.6-0.6,5.2-1.6,8.3-0.2c3.1,1.5,5.3,4.9,6.2,8
			c0,0-2.6,1.5-5.3,1.3C135.1,219.3,129.6,219.1,127.1,214.6z"/>
		<path id="XMLID_859_" class="st0" d="M153.2,217.5c0.2-0.6,2-5.2,6.2-6.9c4.2-1.7,8.1-1.7,12.3-0.4c0,0-0.3,2-2.5,4.2
			c0,0-2.3,3.4-7.4,4.3c0,0-3.9,0.9-8.8-0.7L153.2,217.5z"/>
	</g>
	<g id="XMLID_855_">
		<path id="XMLID_857_" class="st1" d="M139.2,214.4c0.1,2.8-2.2,5-4.6,5c-2.4,0-4.3-2.7-4.3-5.5c0-2.1,1.1-3.7,2.6-4.3
			C133.4,209.3,139.2,212.5,139.2,214.4z"/>
		<path id="XMLID_856_" class="st1" d="M168.3,213.2c0,2.9-2.5,5.2-5.6,5.2c-3.1,0-5.6-2.3-5.6-5.2c0-2.9,4.7-4.2,7.8-4.2
			C168,209,168.3,210.4,168.3,213.2z"/>
	</g>
	<g id="XMLID_852_">
		<path id="XMLID_854_" class="st2" d="M134.1,215.4c0.6-0.1,1,0.3,1,0.8c0.4-0.3,0.8-0.5,1.2-0.7c0.3-0.1,0.5-0.1,0.7,0
			c0.4-0.3,1-0.2,1.3,0.2c0.2,0.3,0.4,0.6,0.4,0.9c0.3-0.7,0.5-1.4,0.5-2.2c-0.1-1.9-5.8-5.1-6.3-4.8c-1.5,0.7-2.6,2.2-2.6,4.3
			c0,0.9,0.2,1.8,0.6,2.7C131.9,216,133,215.6,134.1,215.4z"/>
		<path id="XMLID_853_" class="st2" d="M161.6,215.6c0.3-0.3,0.8-0.3,1.2,0c0.2-0.1,0.5-0.1,0.7,0c1.2-1.7,2.7-3.1,4.9-3.1
			c-0.1-2.3-0.6-3.4-3.4-3.4c-3.1,0-7.8,1.3-7.8,4.2c0,1.9,1.1,3.6,2.7,4.5C160.3,216.8,160.8,216.2,161.6,215.6z"/>
	</g>
	<g id="XMLID_849_">
		<path id="XMLID_851_" class="st3" d="M133.5,213c0.2,0.1,0.4,0.2,0.5,0.3c0.1,0,0.2-0.1,0.3-0.1c0.7-0.7,1.5-1.3,2.3-1.8
			c-1.6-1.1-3.5-2-3.7-1.9c-1.4,0.6-2.4,2-2.5,3.8C131.3,212.9,132.4,212.8,133.5,213z"/>
		<path id="XMLID_850_" class="st3" d="M165.6,211.1c0.1,0,0.1,0,0.1,0.1c-0.1-0.8,0.1-1.7,0.9-1.9c-0.4-0.1-1-0.2-1.7-0.2
			c-3.1,0-7.8,1.3-7.8,4.2c0,0.6,0.1,1.3,0.4,1.8C159.4,212.7,162.6,210.5,165.6,211.1z"/>
	</g>
	<ellipse id="XMLID_848_" cx="134.9" cy="214.3" rx="2.3" ry="3"/>
	
		<ellipse id="XMLID_847_" transform="matrix(0.9762 -0.217 0.217 0.9762 -43.2764 34.9161)" class="st0" cx="137.4" cy="214.5" rx="1.3" ry="2.1"/>
	<g id="XMLID_842_">
		<g id="XMLID_845_">
			<path id="XMLID_846_" d="M140,217.6c-0.2-0.5-1-4.1-4.7-6.1c-5-2.7-9.4-0.9-9.6-0.8c-0.2,0.1-0.5,0.2-0.7,0.2
				c-0.3-0.1,0.2-0.6,0.7-1c0.4-0.3,4.3-2.6,9.9,0.3c4.5,2.3,4.9,7.4,4.9,7.6C140.6,218,140.5,219.1,140,217.6z"/>
		</g>
		<g id="XMLID_843_">
			<path id="XMLID_844_" d="M136.5,219.4c0.1,0,0.2-0.1,0.4-0.1c0,0-0.1,0-0.1,0c-7.6,0.2-10-5.5-10.1-5.8c-0.1-0.1-0.2-0.5-0.4-0.5
				c-0.1,0,0.2,0.8,0.2,0.9c0,0.1,1.5,4.6,7.5,5.5C134.5,219.4,135.5,219.6,136.5,219.4z"/>
		</g>
	</g>
	<ellipse id="XMLID_841_" cx="163.2" cy="213.3" rx="2.8" ry="2.9"/>
	
		<ellipse id="XMLID_840_" transform="matrix(0.9301 -0.3674 0.3674 0.9301 -66.1791 75.9941)" class="st0" cx="166.5" cy="211.8" rx="1.6" ry="2.3"/>
	<g id="XMLID_834_">
		<g id="XMLID_837_">
			<path id="XMLID_839_" d="M153.7,217.6c0.2-0.5,1.9-4.5,6.5-6.5c5.9-2.5,11-0.7,11.3-0.6c0.3,0.1,0.6,0.2,0.9,0.2
				c0.3-0.1-0.2-0.6-0.9-1c-0.5-0.3-5.3-2.6-12.2,0.3c-5.5,2.3-6.2,7.6-6.3,7.8C152.9,218,153.1,219,153.7,217.6z"/>
		</g>
		<g id="XMLID_835_">
			<path id="XMLID_836_" d="M158,219c-0.4-0.2,0.6-0.2,0.7-0.2c0,0,4.1,0,7-1.5c2.9-1.5,4.5-4.1,4.6-4.2c0.2-0.2,0.3-0.5,0.5-0.5
				c0.1,0.1-0.1,0.3-0.2,0.5c-0.1,0.1-1.7,3.2-4.7,4.8C163,219.4,158.1,219,158,219z"/>
		</g>
	</g>
</g>
</svg>
