<?xml version="1.0" encoding="utf-8"?>
<!-- Generator: Adobe Illustrator 19.0.0, SVG Export Plug-In . SVG Version: 6.00 Build 0)  -->
<svg version="1.1" id="Camada_1" xmlns="http://www.w3.org/2000/svg" xmlns:xlink="http://www.w3.org/1999/xlink" x="0px" y="0px"
	 viewBox="0 0 297.6 425.2" style="enable-background:new 0 0 297.6 425.2;" xml:space="preserve">
<style type="text/css">
	.st0{fill:#FFFFFF;}
	.st1{fill:#71993F;}
	.st2{fill:#557D3A;}
	.st3{fill:#386534;}
</style>
<g id="XMLID_338_">
	<ellipse id="XMLID_521_" class="st0" cx="134.4" cy="214" rx="6.8" ry="7.5"/>
	<path id="XMLID_497_" class="st0" d="M170.3,213.5c0,4.4-3.5,7.6-7.9,7.6s-8.1-3.2-8.1-7.6s3.6-7.9,8-7.9
		C166.7,205.6,170.3,209.1,170.3,213.5z"/>
	<g id="XMLID_492_">
		<path id="XMLID_494_" class="st1" d="M135.8,208.4c-3,0-5.5,2.7-5.5,6.1c0,3.4,2.5,6.1,5.5,6.1s5.5-2.7,5.5-6.1
			C141.3,211.1,138.8,208.4,135.8,208.4z"/>
		<path id="XMLID_335_" class="st1" d="M168.5,210.4c0.1,0,0.3-0.6,0.4-0.6c0.1,0-0.7-0.8-0.6-0.8c-1.1-1.1-2.8-1.9-5.2-1.9
			c-3-0.1-6.2,3.1-6.2,6.6c0,3.5,2.5,6.5,6.8,6.6c3,0,6.3-3.3,6.3-6.8c0-1.1-0.2-2.2-0.7-3.1c0,0.1-0.1,0.1-0.1,0.2
			c0.1,0.4,0.1,0.9,0,1.4"/>
	</g>
	<g id="XMLID_360_">
		<path id="XMLID_370_" class="st2" d="M140.6,213.8c0.2,0,0.4-0.1,0.7-0.1c-0.4-3-2.7-5.3-5.4-5.3c-3,0-5.5,2.7-5.5,6.1
			c0,1.5,0.5,2.9,1.3,3.9C134,215.8,137,214.2,140.6,213.8z"/>
		<path id="XMLID_367_" class="st2" d="M168.8,212.7c0.4-0.1,0.8-0.2,1.2-0.3c-0.1-0.7-0.3-1.4-0.6-2c0,0.1-0.1,0.1-0.1,0.2
			c0.1,0.4,0.1,0.9,0,1.4l-0.7-1.5c0.1,0,0.3-0.6,0.4-0.6c0.1,0-0.7-0.8-0.6-0.8c-1.1-1.1-2.8-1.9-5.2-1.9c-3-0.1-6.2,3.1-6.2,6.6
			c0,1.4,0.4,2.8,1.2,3.9C161.3,214.6,164.9,213.6,168.8,212.7z"/>
	</g>
	<g id="XMLID_362_">
		<path id="XMLID_376_" class="st3" d="M136.8,211.7c0.5,0.1,2.6-0.3,2.6,0.1c0.2-0.1,0.4-0.1,0.6,0c0.3,0.1,0.5,0.1,0.7,0.2
			c-0.9-2.1-2.8-3.6-5-3.6c-2.9,0-5.3,2.6-5.5,5.8c1.2-1.6,2.8-2.9,4.7-3.4C135.6,210.6,136.3,211.6,136.8,211.7z"/>
		<path id="XMLID_371_" class="st3" d="M166.2,209.6C166.2,209.6,166.2,209.6,166.2,209.6C166.2,209.6,166.2,209.6,166.2,209.6
			c0.1,0,0.2,0,0.3,0c1.4,0.2,1,2.4-0.3,2.4c-0.4,0-0.7,0-1.1,0.1c0.1,0.2,0.2,0.4,0.2,0.6c0.6-0.1,1.2-0.2,1.8-0.4c0,0,0,0,0,0
			c-0.1-0.5,0.1-1.2,0.7-1.4c0.2-0.3,0.5-0.4,0.8-0.5c0.1-0.2,0.3-0.5,0.3-0.5c0.1,0-0.7-0.8-0.6-0.8c-1.1-1.1-2.8-1.9-5.2-1.9
			c-2.8-0.1-5.8,2.7-6.2,5.8C159.3,210.4,162.6,209.1,166.2,209.6z"/>
	</g>
	<g id="Ydekt1.tif_4_">
		<g id="XMLID_37_">
			<path id="XMLID_524_" d="M170.9,211.3c-0.1-0.9-0.4-1.7-0.8-2.5c-0.1-0.3-0.3-0.6-0.5-0.8c-0.3-0.4-1.6-2-4-3
				c-0.4-0.2-0.8-0.2-1.2-0.3c-0.1,0-1.6-0.5-3.7,0c-0.2,0.1-0.5,0.1-0.7,0.2c-0.3,0.1-0.6,0.2-0.9,0.3c-0.2,0.1-0.4,0.2-0.5,0.3
				c-0.4,0.2-0.7,0.4-1,0.6c-0.3,0.2-0.5,0.4-0.8,0.6c-0.6,0.5-2.5,2.7-2.7,5.2c-0.1,0.8-0.1,1.6,0.1,2.3c0,0.1,0.1,0.1,0.2,0.2
				c0.1-0.1,0.2-0.1,0.2-0.2c0.1-0.6,0.3-1.3,0.5-1.9c0.2-0.6,0.6-2.7,3.1-4.7c0.4-0.3,0.9-0.6,1.4-0.8c0.6-0.3,1.3-0.5,2-0.6
				c1.1-0.2,2.2-0.1,3.2,0.2c0.1,0,0.3,0.1,0.4,0.1c2.9,1.3,4.2,2.9,4.8,5.9c0.5,1.4,0.2,2.4,0.1,3.6c0,0,0-0.1,0.1-0.1
				c0.1-0.4,0.6-0.6,0.7-1C171.1,213.7,171.1,212.5,170.9,211.3z"/>
			<path id="XMLID_361_" d="M140.9,209.9c-0.3-0.8-0.9-1.6-1.5-2.2c-0.8-0.8-1.7-1.5-2.8-1.8c-0.6-0.2-1.3-0.4-1.9-0.4
				c-0.6,0-1.1,0-1.7,0.1c-0.6,0.1-1.2,0.3-1.8,0.6c-0.7,0.3-1.3,0.8-1.9,1.3c-0.7,0.6-1.2,1.4-1.5,2.3c-0.4,1-0.7,2-0.7,3
				c0,0.5,0.1,0.9,0.1,1.4c0,0.4,0.1,0.7,0.3,1c0,0,0.1,0.1,0.1,0.1c0,0,0.1-0.4,0.1-0.5c0-0.8,0.2-1.4,0.3-2.2
				c0-0.2,0.1-0.4,0.2-0.6c0-0.1,0-0.2,0.1-0.2c0.1-0.4,0.3-0.9,0.6-1.2c0.1-0.2,0.2-0.3,0.3-0.5c0.5-0.7,1.1-1.4,1.8-1.9
				c1-0.7,2.1-1.1,3.4-1c0.7,0,1.4,0.1,2,0.4c0.5,0.2,1.1,0.5,1.5,0.9c2.3,2.4,3.1,5.3,3.3,8c0-0.1,0.1-0.2,0.1-0.3
				C141.3,216,141.9,212.5,140.9,209.9z"/>
		</g>
	</g>
	<ellipse id="XMLID_24_" cx="136.2" cy="214.5" rx="3.3" ry="3.8"/>
	<ellipse id="XMLID_26_" class="st0" cx="138.4" cy="212.8" rx="2.3" ry="2.2"/>
	<circle id="XMLID_327_" cx="163.9" cy="213.3" r="4.1"/>
	<ellipse id="XMLID_337_" class="st0" cx="166.8" cy="211.2" rx="2.7" ry="2.5"/>
</g>
</svg>
