<?xml version="1.0" encoding="utf-8"?>
<!-- Generator: Adobe Illustrator 19.0.0, SVG Export Plug-In . SVG Version: 6.00 Build 0)  -->
<svg version="1.1" id="Camada_1" xmlns="http://www.w3.org/2000/svg" xmlns:xlink="http://www.w3.org/1999/xlink" x="0px" y="0px"
	 viewBox="0 0 297.6 425.2" style="enable-background:new 0 0 297.6 425.2;" xml:space="preserve">
<style type="text/css">
	.st0{fill:#FFFFFF;}
	.st1{fill:#302727;}
	.st2{fill:#211B1B;}
</style>
<g id="XMLID_636_">
	<g id="XMLID_32_">
		<g id="XMLID_402_">
			<path id="XMLID_404_" class="st0" d="M126.9,218.8c-0.5-0.8-2.6-7.2,0.1-9.8c2.7-2.6,4.7-3,7.6-1.8s4.2,4.6,4.6,6.8
				s0.8,6.9-2.8,7.8C132.8,222.8,128.6,221.7,126.9,218.8z"/>
			<path id="XMLID_403_" class="st0" d="M170.3,216.4c0.4-0.9,2.1-7.1-3.6-10.2c-3.3-1.8-5.9-1.4-8.7,0c-4.6,2.3-5.2,5.7-5.9,7.8
				c-0.9,2.9-1.3,6.9,2.3,7.9C158.1,222.8,167.1,223.1,170.3,216.4z"/>
		</g>
		<g id="XMLID_398_">
			<path id="XMLID_401_" class="st1" d="M139.2,213.4c0.9,4.1,0,7.8-2.4,8.3c-2.4,0.5-5.4-3-6.3-7.1s0.4-7.3,2.8-7.8
				C135.7,206.2,138.3,209.2,139.2,213.4z"/>
			<path id="XMLID_400_" class="st1" d="M164.7,205.7c0,0,4.6-0.1,4.5,7.1s-4.5,8.2-6.5,8.4c-2.1,0.2-6.5-2.5-5.2-9.2
				C158.8,205.2,164.7,205.7,164.7,205.7z"/>
		</g>
		<g id="XMLID_395_">
			<path id="XMLID_397_" class="st2" d="M139.4,214.3c0-0.3-0.1-0.6-0.2-0.9c-0.9-4.1-3.6-7.1-5.9-6.6c-2.4,0.5-3.6,3.6-2.8,7.8
				c0.3,1.6,1,3.1,1.8,4.3C133.9,216.4,136.6,215,139.4,214.3z"/>
			<path id="XMLID_396_" class="st2" d="M163.3,214.7c1.6-0.7,3.3-1.1,4.9-1.4c0.3-0.1,0.6-0.2,0.9-0.2c0-0.1,0-0.1,0-0.2
				c0-7.2-4.5-7.1-4.5-7.1s-5.8-0.5-7.2,6.2c-0.5,2.6-0.2,4.5,0.5,6C159.6,216.6,161.4,215.5,163.3,214.7z"/>
		</g>
		<g id="XMLID_392_">
			<path id="XMLID_394_" d="M136.3,210.7c1.6,0.1,1.5,2.3,0,2.4c0,0,0,0,0,0c0.3,0.3,0.3,0.7,0.1,1.1c0.8-0.6,1.7-1,2.7-1.4
				c-1-3.9-3.5-6.6-5.8-6.1c-2.2,0.5-3.4,3.1-2.9,6.6C131.7,211.5,133.8,210.5,136.3,210.7z"/>
			<path id="XMLID_393_" d="M163.9,209.1c0.7-0.1,1.1,0.4,1.2,0.9c0.4-0.2,0.8-0.3,1.3-0.3c0.4-0.4,0.9-0.6,1.5-0.3
				c0.5,0.3,0.9,0.6,1.2,1c-0.8-4.9-4.4-4.8-4.4-4.8s-5.6-0.5-7.1,5.9C159.3,210.1,161.5,209.4,163.9,209.1z"/>
		</g>
		
			<ellipse id="XMLID_391_" transform="matrix(0.978 -0.2087 0.2087 0.978 -41.7932 33.1206)" cx="136" cy="214.6" rx="2.4" ry="4.2"/>
		
			<ellipse id="XMLID_390_" transform="matrix(0.9992 4.013759e-02 -4.013759e-02 0.9992 8.6921 -6.3955)" cx="163.6" cy="213.3" rx="2.7" ry="4.5"/>
		<g id="XMLID_334_">
			
				<ellipse id="XMLID_389_" transform="matrix(0.9869 -0.1616 0.1616 0.9869 -31.9059 29.769)" class="st0" cx="167.1" cy="211.1" rx="2.1" ry="3.7"/>
			
				<ellipse id="XMLID_388_" transform="matrix(0.9742 -0.2257 0.2257 0.9742 -44.4645 36.5477)" class="st0" cx="137.6" cy="212.7" rx="1.4" ry="3.2"/>
		</g>
		<g id="XMLID_33_">
			<path id="XMLID_324_" d="M126.4,218.5c-0.3-0.5-1.9-3.6-1.5-7c0.4-3.4,3.3-5.5,6.6-5.9c3.2-0.3,6.7,2.3,7.8,6.8
				c1.1,4.5,0.3,4.4,0.3,4.4s-0.5-4.3-2.4-7.2c-2-3-6.4-3.4-9-1c-2.5,2.4-2.1,6.2-1.7,7.8c0.4,1.6,1.1,3.1,0.9,3.3
				S126.4,218.5,126.4,218.5z"/>
			<path id="XMLID_284_" d="M151.4,214.5c0.1-1,1.3-5.8,5.8-8.7c1.9-1.2,3.8-1.7,5.5-1.7c2.3,0,4.1,0.3,5.9,1.3
				c3.5,2,4.2,6.7,1.9,11.5c0,0-0.5,1-0.1-1s0.7-6.1-2.7-8.5s-9.1-1.3-12.2,1.5s-3.8,7.2-3.8,7.2S151.3,216,151.4,214.5z"/>
		</g>
	</g>
	<g id="XMLID_631_">
		<path id="XMLID_633_" d="M126.6,218.6c0.4,1.3-2.5-3.9-3.1-8.8c0,0-0.1-1.8,0.5-0.8c0.7,1,1.4,1.5,1.4,1.5s-1.1-2.4-1.1-4
			c-0.1-1.6,0.5-0.9,0.7-0.7c0.2,0.2,2,1.2,4.2,0.5c0,0,1.2-0.2,0.5,0.8C129.7,207.1,123.7,208.8,126.6,218.6z"/>
		<path id="XMLID_632_" d="M170.5,216.9c0,0,2.6-5.8,2.7-9.7c0,0,0.1-1.3-0.6-0.7c-0.7,0.6-1.7,0.8-1.9,0.7c0,0,1.3-1.6,1.2-3.2
			s-0.2-0.7-1.4-0.2c-1.1,0.5-1.8,1.1-5.5,0.4c0,0-0.7,0.1,2.6,2C170.3,207.9,172.2,210.4,170.5,216.9z"/>
	</g>
</g>
</svg>
