<?xml version="1.0" encoding="utf-8"?>
<!-- Generator: Adobe Illustrator 19.0.0, SVG Export Plug-In . SVG Version: 6.00 Build 0)  -->
<svg version="1.1" id="Camada_1" xmlns="http://www.w3.org/2000/svg" xmlns:xlink="http://www.w3.org/1999/xlink" x="0px" y="0px"
	 viewBox="0 0 297.6 425.2" style="enable-background:new 0 0 297.6 425.2;" xml:space="preserve">
<style type="text/css">
	.st0{fill:#C95F64;}
	.st1{fill:#B65051;}
	.st2{fill:#824145;}
</style>
<g id="XMLID_1229_">
	<path id="XMLID_1238_" class="st0" d="M148.6,214.3c-0.7,0.3-1.4,0.3-1.9,0.1c-2.8,0.3-5.5-0.2-8.1-1.3c0.1,0.1,2.2,4.3,6.5,4.7
		c4.3,0.3,8.2-1.5,12.3-7.8C154.9,212,151.2,213.3,148.6,214.3z"/>
	<path id="XMLID_1237_" class="st1" d="M147.3,214.4c6.5-1.4,7.2-3.1,10.6-5.4l0.2-0.2c0,0-3.5,2.2-6.1,2.4
		c-2.6,0.1-4.4,0.2-4.8,0.3s-1.3,1.1-1.6,1.2c-0.3,0-1.1-1-1.9-0.9c-0.8,0.2-2.4,1.5-5.2,1.1c0,0,0,0,0.1,0.1
		C141.4,213.9,144.4,214.8,147.3,214.4z"/>
	<g id="bI0XvN.tif_1_">
		<g id="XMLID_1231_">
			<path id="XMLID_1232_" class="st2" d="M137.2,212.1c3.7,2.3,7.7,2.7,11.8,1.7c3.3-0.8,6.3-2.4,8.8-4.8c-0.3-0.4-1.1-0.7-1.3-0.8
				c0-0.1,1.2-0.3,1.8,0c1,0.5,1.1,1.8,1,1.9c-0.2-0.3-1.1-0.7-1.3-0.8c-4.9,4.7-10.8,6.3-15.4,5.3
				C140.9,214.1,138.6,213.7,137.2,212.1z"/>
		</g>
	</g>
</g>
</svg>
