<?xml version="1.0" encoding="utf-8"?>
<!-- Generator: Adobe Illustrator 19.0.0, SVG Export Plug-In . SVG Version: 6.00 Build 0)  -->
<svg version="1.1" id="Camada_1" xmlns="http://www.w3.org/2000/svg" xmlns:xlink="http://www.w3.org/1999/xlink" x="0px" y="0px"
	 viewBox="0 0 297.6 425.2" style="enable-background:new 0 0 297.6 425.2;" xml:space="preserve">
<style type="text/css">
	.st0{fill:#765D54;}
</style>
<g id="bI0XvN.tif">
	<g id="XMLID_328_">
		<path id="XMLID_357_" class="st0" d="M137.4,211.1c3.7,2.3,7.7,2.4,11.8,1.4c3.3-0.8,6.2-2.3,8.7-4.8c-0.3-0.4-1-0.5-1.1-0.6
			c0-0.1,1.2-0.3,1.8,0c1,0.5,1.1,1.8,1,1.9c-0.2-0.3-0.6-0.7-0.8-0.8c-4.9,4.7-10.5,6.7-17.2,5.4
			C139.8,213.3,138.3,212.6,137.4,211.1z"/>
		<path id="XMLID_356_" class="st0" d="M150.2,217.1c-1.7,1.8-5.4,1.7-6.6,0.5C146.3,218,148.6,217.3,150.2,217.1z"/>
	</g>
</g>
</svg>
