<?xml version="1.0" encoding="utf-8"?>
<!-- Generator: Adobe Illustrator 19.0.0, SVG Export Plug-In . SVG Version: 6.00 Build 0)  -->
<svg version="1.1" id="Camada_1" xmlns="http://www.w3.org/2000/svg" xmlns:xlink="http://www.w3.org/1999/xlink" x="0px" y="0px"
	 viewBox="0 0 297.6 425.2" style="enable-background:new 0 0 297.6 425.2;" xml:space="preserve">
<style type="text/css">
	.st0{fill:#FFFFFF;}
	.st1{fill:#765D54;}
</style>
<g id="XMLID_36_">
	<path id="XMLID_333_" class="st0" d="M139.1,214.2c0,0,4.8-1.9,8.1-2.1c3.3-0.2,8.6-1,9.2-1.5c0,0,0,0.5-1.2,1.8s-4.9,4.3-9.1,4.8
		C141.9,217.6,139.2,214.3,139.1,214.2z"/>
	<path id="XMLID_343_" class="st1" d="M159.5,206.9c-0.6-0.3-1.8-0.2-1.8,0c0.2,0.1,0.8,0.2,1.1,0.6c-0.1,0.1-0.2,0.3-0.3,0.4
		c0,0,0,0,0,0c-1.6,1.9-3.6,3-6.1,3.2c-1.2,0.1-2.5,0.3-3.7,0.4c-2.9,0.2-5.6,0.8-8.3,1.7c-0.7,0.2-1.6-0.1-2.5-0.2
		c-0.2,0-0.4-0.2-0.8-0.3c3.2,4.7,8.3,6.1,13.2,3.7c3.7-1.8,7-4.9,9.3-8.4c0,0,0,0,0,0c0.2,0.1,0.6,0.5,0.8,0.8
		C160.6,208.6,160.5,207.4,159.5,206.9z M144.8,216.6c-2-0.1-3.5-1-5.2-2.3c5.2-2.5,10.8-1.4,16-3
		C152.6,214.1,149.4,216.8,144.8,216.6z"/>
</g>
</svg>
