<?xml version="1.0" encoding="utf-8"?>
<!-- Generator: Adobe Illustrator 19.0.0, SVG Export Plug-In . SVG Version: 6.00 Build 0)  -->
<svg version="1.1" id="Camada_1" xmlns="http://www.w3.org/2000/svg" xmlns:xlink="http://www.w3.org/1999/xlink" x="0px" y="0px"
	 viewBox="0 0 297.6 425.2" style="enable-background:new 0 0 297.6 425.2;" xml:space="preserve">
<style type="text/css">
	.st0{fill:#C95F64;}
	.st1{fill:#B55050;}
	.st2{fill:#824145;}
	.st3{fill:#FFFFFF;}
</style>
<g id="XMLID_1229_">
	<path id="XMLID_1238_" class="st0" d="M156,151.4c-0.7,0.3-1.4,0.3-1.9,0.1c-2.8,0.3-5.5-0.2-8.1-1.3c0.1,0.1,2.2,4.3,6.5,4.7
		c4.3,0.3,8.2-1.5,12.3-7.8C162.4,149.1,158.6,150.4,156,151.4z"/>
	<path id="XMLID_1237_" class="st1" d="M154.7,151.5c6.5-1.4,7.2-3.1,10.6-5.4l0.2-0.2c0,0-3.5,2.2-6.1,2.4
		c-2.6,0.1-4.4,0.2-4.8,0.3s-1.3,1.1-1.6,1.2c-0.3,0-1.1-1-1.9-0.9c-0.8,0.2-2.4,1.5-5.2,1.1c0,0,0,0,0.1,0.1
		C148.8,151,151.8,151.9,154.7,151.5z"/>
	<g id="bI0XvN.tif_1_">
		<g id="XMLID_1231_">
			<path id="XMLID_1232_" class="st2" d="M144.6,149.2c3.7,2.3,7.7,2.7,11.8,1.7c3.3-0.8,6.3-2.4,8.8-4.8c-0.3-0.4-1.1-0.7-1.3-0.8
				c0-0.1,1.2-0.3,1.8,0c1,0.5,1.1,1.8,1,1.9c-0.2-0.3-1.1-0.7-1.3-0.8c-4.9,4.7-10.8,6.3-15.4,5.3
				C148.3,151.2,146,150.8,144.6,149.2z"/>
		</g>
	</g>
</g>
<g id="XMLID_1230_">
	<path id="XMLID_1233_" class="st0" d="M464.7,150.4c0.5,0.4,2,2.5,3.2,4.4s3.2,4.2,6.8,3.9s6.2-3.5,7.3-5.7s2.5-5.2,3.3-6.1
		l-5.4,4.8l-6.7,2.1l-4.3-0.8l-2.5-1.8L464.7,150.4z"/>
	<path id="XMLID_1234_" class="st3" d="M466.4,151.1c0,0,2.5,2.4,4,3.6s5.3,1.1,7.2-0.2s4.4-3.7,6-6.2l-3.4,1.3l-3.2,0.3l-4.3,0
		L466.4,151.1z"/>
	<path id="XMLID_1235_" class="st1" d="M464.5,150c0.7,0.4,2.7,0.9,4.1-0.1s2-1.3,2.3-1.2s0.8,0.6,1.1,0.6s0.7-0.8,1.2-0.9
		s1.6,0,3.8,0.2s4.8,0.7,7-1l-2.6,2.3l-4,0.9l-2.7-0.1l-2.4,0.1l-1.8,0.7l-2.1,0.4l-2.4-0.6L464.5,150z"/>
	<path id="XMLID_1239_" class="st2" d="M486.2,145.6c-1.1-0.7-2-0.1-2-0.1c0.4,0.1,0.8,0.2,1.1,0.4c-0.6,0.9-1.5,1.9-2.1,2.4
		c-2.6,2-5.9,2-8.1,1.9l-0.7,0c-1.4,0-2.5,0.3-3.4,0.6c-0.8,0.3-1.6,0.5-2.6,0.5c-0.7,0-1.8-0.3-2.4-0.6c-1-0.5-1.7-1.3-1.9-1.5
		c0.4-0.3,0.8-0.5,0.8-0.5s-0.7-0.5-1.3,0.2c-0.7,0.7-0.5,1.8-0.5,1.8c0.1-0.4,0.3-0.8,0.5-1c0.4,0.3,2.5,2.2,4.7,2.3
		c0.1,0,0.2,0,0.2,0c1,0,1.8-0.2,2.6-0.5c0.9-0.3,1.7-0.5,3-0.5c0,0,0.1,0,0.1,0l0.6,0c2.4,0.1,6.1,0.2,9-2.4c0.5-0.5,1.4-1.4,2-2.2
		c0.6,0.4,0.8,0.9,0.8,0.9S487,146.2,486.2,145.6z"/>
</g>
</svg>
