<?xml version="1.0" encoding="utf-8"?>
<!-- Generator: Adobe Illustrator 19.0.0, SVG Export Plug-In . SVG Version: 6.00 Build 0)  -->
<svg version="1.1" id="Camada_1" xmlns="http://www.w3.org/2000/svg" xmlns:xlink="http://www.w3.org/1999/xlink" x="0px" y="0px"
	 viewBox="0 0 297.6 425.2" style="enable-background:new 0 0 297.6 425.2;" xml:space="preserve">
<style type="text/css">
	.st0{fill:#C95F64;}
	.st1{fill:#FFFFFF;}
	.st2{fill:#B65051;}
	.st3{fill:#824145;}
</style>
<g id="XMLID_1230_">
	<path id="XMLID_1233_" class="st0" d="M137.9,211.3c0.5,0.4,2,2.5,3.2,4.4s3.2,4.2,6.8,3.9s6.2-3.5,7.3-5.7s2.5-5.2,3.3-6.1
		l-5.4,4.8l-6.7,2.1l-4.3-0.8l-2.5-1.8L137.9,211.3z"/>
	<path id="XMLID_1234_" class="st1" d="M139.6,212c0,0,2.5,2.4,4,3.6s5.3,1.1,7.2-0.2s4.4-3.7,6-6.2l-3.4,1.3l-3.2,0.3l-4.3,0
		L139.6,212z"/>
	<path id="XMLID_1235_" class="st2" d="M137.8,210.9c0.7,0.4,2.7,0.9,4.1-0.1s2-1.3,2.3-1.2s0.8,0.6,1.1,0.6s0.7-0.8,1.2-0.9
		s1.6,0,3.8,0.2s4.8,0.7,7-1l-2.6,2.3l-4,0.9l-2.7-0.1l-2.4,0.1l-1.8,0.7l-2.1,0.4l-2.4-0.6L137.8,210.9z"/>
	<path id="XMLID_1239_" class="st3" d="M159.4,206.5c-1.1-0.7-2-0.1-2-0.1c0.4,0.1,0.8,0.2,1.1,0.4c-0.6,0.9-1.5,1.9-2.1,2.4
		c-2.6,2-5.9,2-8.1,1.9l-0.7,0c-1.4,0-2.5,0.3-3.4,0.6c-0.8,0.3-1.6,0.5-2.6,0.5c-0.7,0-1.8-0.3-2.4-0.6c-1-0.5-1.7-1.3-1.9-1.5
		c0.4-0.3,0.8-0.5,0.8-0.5s-0.7-0.5-1.3,0.2c-0.7,0.7-0.5,1.8-0.5,1.8c0.1-0.4,0.3-0.8,0.5-1c0.4,0.3,2.5,2.2,4.7,2.3
		c0.1,0,0.2,0,0.2,0c1,0,1.8-0.2,2.6-0.5c0.9-0.3,1.7-0.5,3-0.5c0,0,0.1,0,0.1,0l0.6,0c2.4,0.1,6.1,0.2,9-2.4c0.5-0.5,1.4-1.4,2-2.2
		c0.6,0.4,0.8,0.9,0.8,0.9S160.3,207.1,159.4,206.5z"/>
</g>
</svg>
