<?xml version="1.0" encoding="utf-8"?>
<!-- Generator: Adobe Illustrator 19.0.0, SVG Export Plug-In . SVG Version: 6.00 Build 0)  -->
<svg version="1.1" id="Camada_1" xmlns="http://www.w3.org/2000/svg" xmlns:xlink="http://www.w3.org/1999/xlink" x="0px" y="0px"
	 viewBox="0 0 297.6 425.2" style="enable-background:new 0 0 297.6 425.2;" xml:space="preserve">
<style type="text/css">
	.st0{fill:#E4C388;}
	.st1{fill:#BB9B6A;}
	.st2{fill:#836C4D;}
	.st3{fill:#CB804D;}
	.st4{fill:#A96537;}
	.st5{fill:#875632;}
	.st6{fill:#8B684E;}
	.st7{fill:#714F38;}
	.st8{fill:#593421;}
	.st9{fill:#42200E;}
	.st10{fill:#302727;}
	.st11{fill:#231F20;}
</style>
<g id="XMLID_283_">
	<g id="XMLID_286_">
		<path id="XMLID_307_" class="st0" d="M997.3,124.6c0,0,2.1-8.9,2-11.8c-0.1-2.8-2.8-6.3-4.6-8.4c-1.8-2.1-3.1-3.2-3.8-3.5
			c-0.7-0.2-1.9,0.1-1.9,0.1s0.5-3.2,0.2-4.6c-0.3-1.3-9.6-10.6-13.4-13.5s-12-7.2-14.5-8.3c0,0,7.2,5.9,8.2,10.5
			c0,0-2.9-3.9-5.7-5.2c-2.8-1.3-9.2-3.9-11.1-4.8c-1.8-0.9-7.2-4.3-8.2-5.3c0,0,0.5,5.2,4.9,9.6c0,0-4.9-1.8-7.7-2.8
			s-8.4-3.1-12.2-6.4c0,0,1.7,8.4,8.3,13.8c0,0-5.8-1.4-10.4-4.2c-4.7-2.8-8.9-8.2-8.9-8.2s-0.1,5.4,3.8,11.2
			c3.9,5.8,6.8,8.3,6.8,8.3s-6.4-2-13.1-11.5c0,0-0.5,7.4,8.3,16.8c0,0-8.8-6.2-10-8.2c0,0,3.8,9.2,11.2,14c0,0-5.8-1.6-7-2.4
			c0,0,2.2,3.9,7.1,5.5c0,0-3.2,2.2-3.5,5.2s1.4,11,2.7,14.4c0,0,0.4-11.4,5.8-18c1.2,0.2,2.9,0.2,4.5-0.2c0,0,5.8,1.6,11.6,0.8
			c0,0,8.6,2.3,14.8-0.1c0,0-2,2-7.9,4.5c0,0,5.4,0.4,11.4-2.2s8.2-3.9,10.3-4c0,0-3.6,2.7-4.4,5.9c0,0,4.4-4.4,10.1-5.4
			c0,0-1.3,5.1-0.9,7.1c0,0,7.9,6.6,7.2,20.2C987.4,133.3,990,124.1,997.3,124.6z"/>
		<g id="XMLID_287_">
			<g id="XMLID_305_">
				<path id="XMLID_306_" class="st1" d="M935.9,96.7c-3.6-2.2-6.1-5.2-6-5.4c0.2-0.1,2.8,2.5,6.3,4.6c1.7,1,6.4,3.2,6.4,3.4
					C942.6,99.6,937.6,97.7,935.9,96.7z"/>
			</g>
			<g id="XMLID_303_">
				<path id="XMLID_304_" class="st1" d="M952.3,99.2c-6.8-2.7-9.9-5.8-9.8-5.9c0.1-0.2,4.3,2.8,10,5.2c2.9,1.2,10.3,3,10.3,3.2
					C962.8,101.9,955.3,100.4,952.3,99.2z"/>
			</g>
			<g id="XMLID_301_">
				<path id="XMLID_302_" class="st1" d="M938.4,104.9c-5.7-3-8.1-6.4-8-6.6c0.2-0.1,5,5.9,16.2,8.5c0.2,0,0.4,0.3,0.3,0.5
					C946.9,107.4,940.9,106.2,938.4,104.9z"/>
			</g>
			<g id="XMLID_299_">
				<path id="XMLID_300_" class="st1" d="M961.8,106.9c0.4-0.3,1.1-0.9,1.9-1.7c0.9-0.9,2-1.9,3.1-2.9c1.3-1,2.1-1.5,3.4-2.1
					c0.8-0.4,2.4-0.7,2.5-0.5c0.1,0.2-1.9,0.6-4.7,2.7c-1.4,1-2.2,1.5-3.3,2.5C963.9,105.8,961.7,107,961.8,106.9z"/>
			</g>
			<g id="XMLID_297_">
				<path id="XMLID_298_" class="st1" d="M984.8,102c-0.8,0.1-0.3-0.2-0.1-0.3c0.1,0,3.2-1.1,6-0.9c0.2,0,0.6,0.1,0.6,0.3
					s-1.6,0.2-2.1,0.3C987,101.5,984.9,102,984.8,102z"/>
			</g>
			<g id="XMLID_295_">
				<path id="XMLID_296_" class="st1" d="M993.2,125.6c0.3-0.2,0.6-0.4,0.9-0.5c0.4-2.3,0.2-4.4-0.2-6.1c-0.7-3.1-2.6-5.4-2.8-5.2
					c-0.2,0.1,1.6,1.7,2.4,6C993.7,121.5,993.6,123.5,993.2,125.6z"/>
			</g>
			<g id="XMLID_293_">
				<path id="XMLID_294_" class="st1" d="M974.3,106.5c-0.2,0.1,1.8-2.1,3.8-3c1.4-0.6,4.2-0.8,4-0.7c-0.4,0.2-2.5,0.7-3.4,1.1
					C975.9,105,974.4,106.4,974.3,106.5z"/>
			</g>
			<g id="XMLID_291_">
				<path id="XMLID_292_" class="st1" d="M924.6,101.1c0.1-0.1,3.5,2.3,6.5,3.5c2.6,1.1,4.2,1.7,4.1,1.7c-1.5,0-2.3,0-5.8-1.9
					C928.1,103.8,924.5,101.3,924.6,101.1z"/>
			</g>
			<g id="XMLID_289_">
				<path id="XMLID_290_" class="st1" d="M930.6,106.4C930.6,106.4,930.6,106.4,930.6,106.4c-0.4,0.2-1.9,0-2.6-0.2
					c-2-0.6-2.2-1.2-2.2-1.2c-0.2-0.1,1,0.5,2.4,0.8C928.8,106,930.8,106.4,930.6,106.4z"/>
			</g>
			<path id="XMLID_288_" class="st1" d="M935.2,106.6"/>
		</g>
	</g>
	<path id="XMLID_285_" class="st2" d="M929.4,120c0,0,0.8-3.6,4.8-5.1s6.6-0.1,8.2,1.1l0.9,3.6c0,0-2.6-3-5.8-3
		S931.8,117.1,929.4,120z"/>
	<path id="XMLID_284_" class="st2" d="M956.8,119.6l1.8-4.2c0,0,9.4-6.8,20.6,4.2C979.1,119.5,966.6,112.7,956.8,119.6z"/>
</g>
<g id="XMLID_258_">
	<g id="XMLID_261_">
		<path id="XMLID_282_" class="st3" d="M997.3,49.1c0,0,2.1-8.9,2-11.8s-2.8-6.3-4.6-8.4c-1.8-2.1-3.1-3.2-3.8-3.5
			c-0.7-0.2-1.9,0.1-1.9,0.1s0.5-3.2,0.2-4.6c-0.3-1.3-9.6-10.6-13.4-13.5s-12-7.2-14.5-8.3c0,0,7.2,5.9,8.2,10.5
			c0,0-2.9-3.9-5.7-5.3s-9.2-3.9-11.1-4.8s-7.2-4.3-8.2-5.3c0,0,0.5,5.2,4.9,9.6c0,0-4.9-1.8-7.7-2.8s-8.4-3.1-12.2-6.4
			c0,0,1.7,8.4,8.3,13.8c0,0-5.8-1.4-10.4-4.3s-8.9-8.2-8.9-8.2s-0.1,5.4,3.8,11.2c3.9,5.7,6.8,8.3,6.8,8.3s-6.4-2-13.1-11.5
			c0,0-0.5,7.4,8.3,16.8c0,0-8.8-6.2-10-8.2c0,0,3.8,9.3,11.2,14c0,0-5.8-1.6-7-2.4c0,0,2.2,3.9,7.1,5.5c0,0-3.2,2.2-3.5,5.2
			s1.4,11,2.7,14.4c0,0,0.4-11.4,5.8-18c1.2,0.2,2.9,0.2,4.5-0.2c0,0,5.8,1.6,11.6,0.8c0,0,8.6,2.3,14.8-0.1c0,0-2,2-7.9,4.5
			c0,0,5.4,0.4,11.4-2.2s8.2-3.9,10.3-4c0,0-3.6,2.7-4.4,5.9c0,0,4.4-4.4,10.1-5.4c0,0-1.3,5.1-0.9,7.1c0,0,7.9,6.6,7.2,20.2
			C987.4,57.8,990,48.6,997.3,49.1z"/>
		<g id="XMLID_262_">
			<g id="XMLID_280_">
				<path id="XMLID_281_" class="st4" d="M935.9,21.2c-3.6-2.2-6.1-5.2-6-5.4c0.2-0.1,2.8,2.5,6.3,4.6c1.7,1,6.4,3.2,6.4,3.4
					C942.6,24.1,937.6,22.2,935.9,21.2z"/>
			</g>
			<g id="XMLID_278_">
				<path id="XMLID_279_" class="st4" d="M952.3,23.7c-6.8-2.7-9.9-5.8-9.8-5.9c0.1-0.2,4.3,2.8,10,5.2c2.9,1.2,10.3,3,10.3,3.2
					C962.8,26.4,955.3,24.9,952.3,23.7z"/>
			</g>
			<g id="XMLID_276_">
				<path id="XMLID_277_" class="st4" d="M938.4,29.4c-5.7-3-8.1-6.4-8-6.6c0.2-0.1,5,5.9,16.2,8.5c0.2,0,0.4,0.3,0.3,0.5
					C946.9,31.9,940.9,30.7,938.4,29.4z"/>
			</g>
			<g id="XMLID_274_">
				<path id="XMLID_275_" class="st4" d="M961.8,31.4c0.4-0.3,1.1-0.9,1.9-1.7c0.9-0.9,2-1.9,3.1-2.9c1.3-1,2.1-1.5,3.4-2.1
					c0.8-0.4,2.4-0.7,2.5-0.5c0.1,0.2-1.9,0.6-4.7,2.7c-1.4,1-2.2,1.5-3.3,2.5C963.9,30.3,961.7,31.5,961.8,31.4z"/>
			</g>
			<g id="XMLID_272_">
				<path id="XMLID_273_" class="st4" d="M984.8,26.5c-0.8,0.1-0.3-0.2-0.1-0.3c0.1,0,3.2-1.1,6-0.9c0.2,0,0.6,0.1,0.6,0.3
					s-1.6,0.2-2.1,0.3C987,26,984.9,26.5,984.8,26.5z"/>
			</g>
			<g id="XMLID_270_">
				<path id="XMLID_271_" class="st4" d="M993.2,50.1c0.3-0.2,0.6-0.4,0.9-0.5c0.4-2.3,0.2-4.4-0.2-6.1c-0.7-3.1-2.6-5.4-2.8-5.2
					c-0.2,0.1,1.6,1.7,2.4,6C993.7,46,993.6,48,993.2,50.1z"/>
			</g>
			<g id="XMLID_268_">
				<path id="XMLID_269_" class="st4" d="M974.3,31c-0.2,0.1,1.8-2.1,3.8-3c1.4-0.6,4.2-0.8,4-0.7c-0.4,0.2-2.5,0.7-3.4,1.1
					C975.9,29.5,974.4,30.9,974.3,31z"/>
			</g>
			<g id="XMLID_266_">
				<path id="XMLID_267_" class="st4" d="M924.6,25.6c0.1-0.1,3.5,2.3,6.5,3.5c2.6,1.1,4.2,1.7,4.1,1.7c-1.5,0-2.3,0-5.8-1.9
					C928.1,28.3,924.5,25.8,924.6,25.6z"/>
			</g>
			<g id="XMLID_264_">
				<path id="XMLID_265_" class="st4" d="M930.6,30.9C930.6,30.9,930.6,30.9,930.6,30.9c-0.4,0.2-1.9,0-2.6-0.2
					c-2-0.6-2.2-1.2-2.2-1.2c-0.2-0.1,1,0.5,2.4,0.8C928.8,30.5,930.8,30.9,930.6,30.9z"/>
			</g>
			<path id="XMLID_263_" class="st4" d="M935.2,31.1"/>
		</g>
	</g>
	<path id="XMLID_260_" class="st5" d="M929.4,44.5c0,0,0.8-3.6,4.8-5.1s6.6-0.1,8.2,1.1l0.9,3.6c0,0-2.6-3-5.8-3
		S931.8,41.6,929.4,44.5z"/>
	<path id="XMLID_259_" class="st5" d="M956.8,44.1l1.8-4.2c0,0,9.4-6.8,20.6,4.2C979.1,44,966.6,37.2,956.8,44.1z"/>
</g>
<g id="XMLID_233_">
	<g id="XMLID_236_">
		<path id="XMLID_257_" class="st6" d="M997.3-26.4c0,0,2.1-8.9,2-11.8c-0.1-2.8-2.8-6.3-4.6-8.4c-1.8-2.1-3.1-3.2-3.8-3.5
			c-0.7-0.2-1.9,0.1-1.9,0.1s0.5-3.2,0.2-4.6c-0.3-1.3-9.6-10.6-13.4-13.5s-12-7.2-14.5-8.3c0,0,7.2,5.9,8.2,10.5
			c0,0-2.9-3.9-5.7-5.2c-2.8-1.3-9.2-3.9-11.1-4.8c-1.8-0.9-7.2-4.3-8.2-5.3c0,0,0.5,5.2,4.9,9.6c0,0-4.9-1.8-7.7-2.8
			s-8.4-3.1-12.2-6.4c0,0,1.7,8.4,8.3,13.8c0,0-5.8-1.4-10.4-4.2c-4.7-2.8-8.9-8.2-8.9-8.2s-0.1,5.4,3.8,11.2
			c3.9,5.7,6.8,8.3,6.8,8.3s-6.4-2-13.1-11.5c0,0-0.5,7.4,8.3,16.8c0,0-8.8-6.2-10-8.2c0,0,3.8,9.2,11.2,14c0,0-5.8-1.6-7-2.4
			c0,0,2.2,3.9,7.1,5.5c0,0-3.2,2.2-3.5,5.2s1.4,11,2.7,14.4c0,0,0.4-11.4,5.8-18c1.2,0.2,2.9,0.2,4.5-0.2c0,0,5.8,1.6,11.6,0.8
			c0,0,8.6,2.3,14.8-0.1c0,0-2,2-7.9,4.5c0,0,5.4,0.4,11.4-2.2s8.2-3.9,10.3-4c0,0-3.6,2.7-4.4,5.9c0,0,4.4-4.4,10.1-5.4
			c0,0-1.3,5.1-0.9,7.1c0,0,7.9,6.6,7.2,20.2C987.4-17.7,990-26.9,997.3-26.4z"/>
		<g id="XMLID_237_">
			<g id="XMLID_255_">
				<path id="XMLID_256_" class="st7" d="M935.9-54.3c-3.6-2.2-6.1-5.2-6-5.4c0.2-0.1,2.8,2.5,6.3,4.6c1.7,1,6.4,3.2,6.4,3.4
					C942.6-51.4,937.6-53.3,935.9-54.3z"/>
			</g>
			<g id="XMLID_253_">
				<path id="XMLID_254_" class="st7" d="M952.3-51.8c-6.8-2.7-9.9-5.8-9.8-5.9c0.1-0.2,4.3,2.8,10,5.2c2.9,1.2,10.3,3,10.3,3.2
					C962.8-49.1,955.3-50.6,952.3-51.8z"/>
			</g>
			<g id="XMLID_251_">
				<path id="XMLID_252_" class="st7" d="M938.4-46.1c-5.7-3-8.1-6.4-8-6.6c0.2-0.1,5,5.9,16.2,8.5c0.2,0,0.4,0.3,0.3,0.5
					C946.9-43.6,940.9-44.8,938.4-46.1z"/>
			</g>
			<g id="XMLID_249_">
				<path id="XMLID_250_" class="st7" d="M961.8-44.1c0.4-0.3,1.1-0.9,1.9-1.7c0.9-0.9,2-1.9,3.1-2.9c1.3-1,2.1-1.5,3.4-2.1
					c0.8-0.4,2.4-0.7,2.5-0.5c0.1,0.2-1.9,0.6-4.7,2.7c-1.4,1-2.2,1.5-3.3,2.5C963.9-45.2,961.7-44,961.8-44.1z"/>
			</g>
			<g id="XMLID_247_">
				<path id="XMLID_248_" class="st7" d="M984.8-49c-0.8,0.1-0.3-0.2-0.1-0.3c0.1,0,3.2-1.1,6-0.9c0.2,0,0.6,0.1,0.6,0.3
					s-1.6,0.2-2.1,0.3C987-49.5,984.9-49,984.8-49z"/>
			</g>
			<g id="XMLID_245_">
				<path id="XMLID_246_" class="st7" d="M993.2-25.4c0.3-0.2,0.6-0.4,0.9-0.5c0.4-2.3,0.2-4.4-0.2-6.1c-0.7-3.1-2.6-5.4-2.8-5.2
					c-0.2,0.1,1.6,1.7,2.4,6C993.7-29.5,993.6-27.5,993.2-25.4z"/>
			</g>
			<g id="XMLID_243_">
				<path id="XMLID_244_" class="st7" d="M974.3-44.5c-0.2,0.1,1.8-2.1,3.8-3c1.4-0.6,4.2-0.8,4-0.7c-0.4,0.2-2.5,0.7-3.4,1.1
					C975.9-46,974.4-44.6,974.3-44.5z"/>
			</g>
			<g id="XMLID_241_">
				<path id="XMLID_242_" class="st7" d="M924.6-49.9c0.1-0.1,3.5,2.3,6.5,3.5c2.6,1.1,4.2,1.7,4.1,1.7c-1.5,0-2.3,0-5.8-1.9
					C928.1-47.2,924.5-49.7,924.6-49.9z"/>
			</g>
			<g id="XMLID_239_">
				<path id="XMLID_240_" class="st7" d="M930.6-44.6C930.6-44.6,930.6-44.6,930.6-44.6c-0.4,0.2-1.9,0-2.6-0.2
					c-2-0.6-2.2-1.2-2.2-1.2c-0.2-0.1,1,0.5,2.4,0.8C928.8-45,930.8-44.6,930.6-44.6z"/>
			</g>
			<path id="XMLID_238_" class="st7" d="M935.2-44.4"/>
		</g>
	</g>
	<path id="XMLID_235_" class="st7" d="M929.4-31c0,0,0.8-3.6,4.8-5.1s6.6-0.1,8.2,1.1l0.9,3.6c0,0-2.6-3-5.8-3S931.8-33.9,929.4-31z
		"/>
	<path id="XMLID_234_" class="st7" d="M956.8-31.4l1.8-4.2c0,0,9.4-6.8,20.6,4.2C979.1-31.5,966.6-38.3,956.8-31.4z"/>
</g>
<g id="XMLID_208_">
	<g id="XMLID_211_">
		<path id="XMLID_232_" class="st8" d="M997.3-101.9c0,0,2.1-8.9,2-11.8c-0.1-2.8-2.8-6.3-4.6-8.4c-1.8-2.1-3.1-3.2-3.8-3.5
			c-0.7-0.2-1.9,0.1-1.9,0.1s0.5-3.3,0.2-4.6c-0.3-1.3-9.6-10.6-13.4-13.5s-12-7.2-14.5-8.3c0,0,7.2,5.9,8.2,10.5
			c0,0-2.9-3.9-5.7-5.2c-2.8-1.3-9.2-3.9-11.1-4.8c-1.8-0.9-7.2-4.3-8.2-5.3c0,0,0.5,5.2,4.9,9.6c0,0-4.9-1.8-7.7-2.8
			s-8.4-3.1-12.2-6.4c0,0,1.7,8.4,8.3,13.8c0,0-5.8-1.4-10.4-4.2c-4.7-2.8-8.9-8.2-8.9-8.2s-0.1,5.4,3.8,11.2
			c3.9,5.8,6.8,8.3,6.8,8.3s-6.4-2-13.1-11.5c0,0-0.5,7.4,8.3,16.8c0,0-8.8-6.2-10-8.2c0,0,3.8,9.2,11.2,14c0,0-5.8-1.6-7-2.4
			c0,0,2.2,3.9,7.1,5.5c0,0-3.2,2.2-3.5,5.2s1.4,11,2.7,14.4c0,0,0.4-11.4,5.8-18c1.2,0.2,2.9,0.2,4.5-0.2c0,0,5.8,1.6,11.6,0.8
			c0,0,8.6,2.3,14.8-0.1c0,0-2,2-7.9,4.5c0,0,5.4,0.4,11.4-2.2s8.2-3.9,10.3-4c0,0-3.6,2.7-4.4,5.9c0,0,4.4-4.4,10.1-5.4
			c0,0-1.3,5.1-0.9,7.1c0,0,7.9,6.6,7.2,20.2C987.4-93.2,990-102.4,997.3-101.9z"/>
		<g id="XMLID_212_">
			<g id="XMLID_230_">
				<path id="XMLID_231_" class="st9" d="M935.9-129.8c-3.6-2.2-6.1-5.2-6-5.4c0.2-0.1,2.8,2.5,6.3,4.6c1.7,1,6.4,3.2,6.4,3.4
					C942.6-126.9,937.6-128.8,935.9-129.8z"/>
			</g>
			<g id="XMLID_228_">
				<path id="XMLID_229_" class="st9" d="M952.3-127.3c-6.8-2.7-9.9-5.8-9.8-5.9c0.1-0.2,4.3,2.8,10,5.2c2.9,1.2,10.3,3,10.3,3.2
					C962.8-124.6,955.3-126.1,952.3-127.3z"/>
			</g>
			<g id="XMLID_226_">
				<path id="XMLID_227_" class="st9" d="M938.4-121.6c-5.7-3-8.1-6.4-8-6.6c0.2-0.1,5,5.9,16.2,8.5c0.2,0,0.4,0.3,0.3,0.5
					C946.9-119.1,940.9-120.3,938.4-121.6z"/>
			</g>
			<g id="XMLID_224_">
				<path id="XMLID_225_" class="st9" d="M961.8-119.6c0.4-0.3,1.1-0.9,1.9-1.7c0.9-0.9,2-1.9,3.1-2.9c1.3-1,2.1-1.5,3.4-2.1
					c0.8-0.4,2.4-0.7,2.5-0.5c0.1,0.2-1.9,0.6-4.7,2.7c-1.4,1-2.2,1.5-3.3,2.5C963.9-120.7,961.7-119.5,961.8-119.6z"/>
			</g>
			<g id="XMLID_222_">
				<path id="XMLID_223_" class="st9" d="M984.8-124.5c-0.8,0.1-0.3-0.2-0.1-0.3c0.1,0,3.2-1.1,6-0.9c0.2,0,0.6,0.1,0.6,0.3
					s-1.6,0.2-2.1,0.3C987-125,984.9-124.5,984.8-124.5z"/>
			</g>
			<g id="XMLID_220_">
				<path id="XMLID_221_" class="st9" d="M993.2-100.9c0.3-0.2,0.6-0.4,0.9-0.5c0.4-2.3,0.2-4.4-0.2-6.1c-0.7-3.1-2.6-5.4-2.8-5.2
					c-0.2,0.1,1.6,1.7,2.4,6C993.7-105,993.6-103,993.2-100.9z"/>
			</g>
			<g id="XMLID_218_">
				<path id="XMLID_219_" class="st9" d="M974.3-120c-0.2,0.1,1.8-2.1,3.8-3c1.4-0.6,4.2-0.8,4-0.7c-0.4,0.2-2.5,0.7-3.4,1.1
					C975.9-121.5,974.4-120.1,974.3-120z"/>
			</g>
			<g id="XMLID_216_">
				<path id="XMLID_217_" class="st9" d="M924.6-125.4c0.1-0.1,3.5,2.3,6.5,3.5c2.6,1.1,4.2,1.7,4.1,1.7c-1.5,0-2.3,0-5.8-1.9
					C928.1-122.7,924.5-125.2,924.6-125.4z"/>
			</g>
			<g id="XMLID_214_">
				<path id="XMLID_215_" class="st9" d="M930.6-120.1C930.6-120.1,930.6-120.1,930.6-120.1c-0.4,0.2-1.9,0-2.6-0.2
					c-2-0.6-2.2-1.2-2.2-1.2c-0.2-0.1,1,0.5,2.4,0.8C928.8-120.5,930.8-120.1,930.6-120.1z"/>
			</g>
			<path id="XMLID_213_" class="st9" d="M935.2-119.9"/>
		</g>
	</g>
	<path id="XMLID_210_" class="st9" d="M929.4-106.5c0,0,0.8-3.6,4.8-5.1s6.6-0.1,8.2,1.1l0.9,3.6c0,0-2.6-3-5.8-3
		S931.8-109.4,929.4-106.5z"/>
	<path id="XMLID_209_" class="st9" d="M956.8-106.9l1.8-4.2c0,0,9.4-6.8,20.6,4.2C979.1-107,966.6-113.8,956.8-106.9z"/>
</g>
<g id="XMLID_183_">
	<g id="XMLID_186_">
		<path id="XMLID_207_" class="st10" d="M997.3-177.4c0,0,2.1-8.9,2-11.8c-0.1-2.8-2.8-6.3-4.6-8.4c-1.8-2.1-3.1-3.2-3.8-3.5
			c-0.7-0.2-1.9,0.1-1.9,0.1s0.5-3.2,0.2-4.6c-0.3-1.3-9.6-10.6-13.4-13.5c-3.8-2.9-12-7.2-14.5-8.3c0,0,7.2,5.9,8.2,10.5
			c0,0-2.9-3.9-5.7-5.2c-2.8-1.3-9.2-3.9-11.1-4.8s-7.2-4.3-8.2-5.3c0,0,0.5,5.2,4.9,9.6c0,0-4.9-1.8-7.7-2.8s-8.4-3.1-12.2-6.4
			c0,0,1.7,8.4,8.3,13.8c0,0-5.8-1.4-10.4-4.2c-4.7-2.8-8.9-8.2-8.9-8.2s-0.1,5.4,3.8,11.2c3.9,5.8,6.8,8.3,6.8,8.3
			s-6.4-2-13.1-11.5c0,0-0.5,7.4,8.3,16.8c0,0-8.8-6.2-10-8.2c0,0,3.8,9.2,11.2,14c0,0-5.8-1.6-7-2.4c0,0,2.2,3.9,7.1,5.5
			c0,0-3.2,2.2-3.5,5.2c-0.3,2.9,1.4,11,2.7,14.4c0,0,0.4-11.4,5.8-18c1.2,0.2,2.9,0.2,4.5-0.2c0,0,5.8,1.6,11.6,0.8
			c0,0,8.6,2.3,14.8-0.1c0,0-2,2-7.9,4.5c0,0,5.4,0.4,11.4-2.2s8.2-3.9,10.3-4c0,0-3.6,2.7-4.4,5.9c0,0,4.4-4.4,10.1-5.4
			c0,0-1.3,5.1-0.9,7.1c0,0,7.9,6.6,7.2,20.2C987.4-168.7,990-177.9,997.3-177.4z"/>
		<g id="XMLID_187_">
			<g id="XMLID_205_">
				<path id="XMLID_206_" d="M935.9-205.3c-3.6-2.2-6.1-5.2-6-5.4c0.2-0.1,2.8,2.5,6.3,4.6c1.7,1,6.4,3.2,6.4,3.4
					C942.6-202.4,937.6-204.3,935.9-205.3z"/>
			</g>
			<g id="XMLID_203_">
				<path id="XMLID_204_" d="M952.3-202.8c-6.8-2.7-9.9-5.8-9.8-5.9c0.1-0.2,4.3,2.8,10,5.2c2.9,1.2,10.3,3,10.3,3.2
					C962.8-200.1,955.3-201.6,952.3-202.8z"/>
			</g>
			<g id="XMLID_201_">
				<path id="XMLID_202_" d="M938.4-197.1c-5.7-3-8.1-6.4-8-6.6c0.2-0.1,5,5.9,16.2,8.5c0.2,0,0.4,0.3,0.3,0.5
					C946.9-194.6,940.9-195.8,938.4-197.1z"/>
			</g>
			<g id="XMLID_199_">
				<path id="XMLID_200_" d="M961.8-195.1c0.4-0.3,1.1-0.9,1.9-1.7c0.9-0.9,2-1.9,3.1-2.9c1.3-1,2.1-1.5,3.4-2.1
					c0.8-0.4,2.4-0.7,2.5-0.5c0.1,0.2-1.9,0.6-4.7,2.7c-1.4,1-2.2,1.5-3.3,2.5C963.9-196.2,961.7-195,961.8-195.1z"/>
			</g>
			<g id="XMLID_197_">
				<path id="XMLID_198_" d="M984.8-200c-0.8,0.1-0.3-0.2-0.1-0.3c0.1,0,3.2-1.1,6-0.9c0.2,0,0.6,0.1,0.6,0.3s-1.6,0.2-2.1,0.3
					C987-200.5,984.9-200,984.8-200z"/>
			</g>
			<g id="XMLID_195_">
				<path id="XMLID_196_" d="M993.2-176.4c0.3-0.2,0.6-0.4,0.9-0.5c0.4-2.3,0.2-4.4-0.2-6.1c-0.7-3.1-2.6-5.4-2.8-5.2
					c-0.2,0.1,1.6,1.7,2.4,6C993.7-180.5,993.6-178.5,993.2-176.4z"/>
			</g>
			<g id="XMLID_193_">
				<path id="XMLID_194_" d="M974.3-195.5c-0.2,0.1,1.8-2.1,3.8-3c1.4-0.6,4.2-0.8,4-0.7c-0.4,0.2-2.5,0.7-3.4,1.1
					C975.9-197,974.4-195.6,974.3-195.5z"/>
			</g>
			<g id="XMLID_191_">
				<path id="XMLID_192_" d="M924.6-200.9c0.1-0.1,3.5,2.3,6.5,3.5c2.6,1.1,4.2,1.7,4.1,1.7c-1.5,0-2.3,0-5.8-1.9
					C928.1-198.2,924.5-200.7,924.6-200.9z"/>
			</g>
			<g id="XMLID_189_">
				<path id="XMLID_190_" d="M930.6-195.6C930.6-195.6,930.6-195.6,930.6-195.6c-0.4,0.2-1.9,0-2.6-0.2c-2-0.6-2.2-1.2-2.2-1.2
					c-0.2-0.1,1,0.5,2.4,0.8C928.8-196,930.8-195.6,930.6-195.6z"/>
			</g>
			<path id="XMLID_188_" d="M935.2-195.4"/>
		</g>
	</g>
	<path id="XMLID_185_" d="M929.4-182c0,0,0.8-3.6,4.8-5.1s6.6-0.1,8.2,1.1l0.9,3.6c0,0-2.6-3-5.8-3S931.8-184.9,929.4-182z"/>
	<path id="XMLID_184_" d="M956.8-182.4l1.8-4.2c0,0,9.4-6.8,20.6,4.2C979.1-182.5,966.6-189.3,956.8-182.4z"/>
</g>
<g id="XMLID_178_">
	<path id="XMLID_182_" class="st0" d="M869.6,133.1c0,0,1.6-5.2,5.2-7.7c4.2-2.9,6.8,0.8,7.1,1.8c0,0,3.5-2.8,0.5-6.4
		c0,0,1.6-1.2,1.8-2.8c0.2-1.6-0.8-2.6-1.4-3.1c0,0,1.2-0.9,1-3s-1.8-2.5-1.8-2.5s1.5-1.3,1-3s-1.6-2.2-2.3-2.6c0,0,1.5-1.2,0.6-3.6
		c-0.9-2.3-2-3-3.5-2.8c0,0,0.4-2.5-1-4c-1.4-1.5-4-0.7-4-0.7s1.2-1.5,0-3.1c-1.3-1.6-4.1-1.5-4.1-1.5s0-2.5-2.2-3.8
		c-2.3-1.3-4.2,0-4.2,0s-0.8-3.3-4-4s-5.1,1.5-5.1,1.5s-1.7-3-4.8-3.1c-3.1-0.1-4.9,2-4.9,2s-2.4-2.8-5.7-1.9s-4.1,3.5-4.1,3.5
		s-2.5-2-6.1-0.7c-3.6,1.3-3.2,4.4-3.2,4.4s-2.2-2-5-0.5s-3.1,4-3.1,4s-3.4-1.5-5,0.8c-1.7,2.2-1.1,5.2-1.1,5.2s-2.4-0.2-3.5,2.3
		c-1.1,2.5-0.4,5.5-0.4,5.5s-3.3,1-3.6,4.3s1.1,5,1.1,5s-2.4,2-0.1,5.1c0,0-1,0.3,0,2.4c0,0-2.4,2.8,1.1,5.6c0,0-1.6,3.5,2.5,4.6
		c0,0-1.4-15,5.4-23.7l0.8-0.4c0,0-0.6,1.8,1.9,2.2c2.5,0.4,4.3-1.2,4.3-1.2s0.5,1.5,2.3,2s3.3-0.9,3.3-0.9s1,1.5,2.8,1.3
		c1.7-0.2,2.4-1.4,2.5-1.8c0,0,1.2,2.2,3.8,2.3c2.6,0.1,3.4-2.8,3.4-2.8s1.1,2,3.2,1.9c2.2,0,2.5-2,2.5-2s1.2,1.6,2.8,1.6
		c1.5,0,2.5-1.7,2.5-1.7s0.6,1.5,2,1.4c1.4-0.1,2.1-1.9,2.1-1.9s0.9,1.7,2.3,1.6s2.8-2.5,2.8-2.5s-0.2,1.9,1.6,2.9
		c1.8,1,3.9-0.4,3.9-0.4s-1.8,2.3-0.4,4.4c1.4,2.1,3.4,1.4,3.4,1.4s-2.5,2.6,1.5,4.8c0,0-1.2,1.6-0.9,3.6c0.3,2,1.9,2.4,1.9,2.4
		s-1.3,0.9-1.1,2.3s1.1,1.8,1.1,1.8S867.5,131,869.6,133.1z"/>
	<g id="XMLID_179_">
		<path id="XMLID_181_" class="st2" d="M811.7,120.2c0,0,0.8-3.6,4.8-5.1s6.6-0.1,8.2,1.1l0.9,3.6c0,0-2.6-3-5.8-3
			S814.2,117.3,811.7,120.2z"/>
		<path id="XMLID_180_" class="st2" d="M839.1,119.8l1.8-4.2c0,0,9.4-6.8,20.6,4.2C861.4,119.7,849,112.9,839.1,119.8z"/>
	</g>
</g>
<g id="XMLID_173_">
	<path id="XMLID_177_" class="st3" d="M869.6,57.6c0,0,1.6-5.2,5.2-7.7c4.2-2.9,6.8,0.8,7.1,1.8c0,0,3.5-2.8,0.5-6.4
		c0,0,1.6-1.2,1.8-2.8c0.2-1.6-0.8-2.6-1.4-3.1c0,0,1.2-0.9,1-3s-1.8-2.5-1.8-2.5s1.5-1.3,1-3c-0.5-1.7-1.6-2.2-2.3-2.6
		c0,0,1.5-1.2,0.6-3.6s-2-3-3.5-2.8c0,0,0.4-2.5-1-4c-1.4-1.5-4-0.7-4-0.7s1.2-1.5,0-3.1c-1.3-1.6-4.1-1.5-4.1-1.5s0-2.5-2.2-3.8
		s-4.2,0-4.2,0s-0.8-3.3-4-4s-5.1,1.5-5.1,1.5s-1.7-3-4.8-3.1c-3.1-0.1-4.9,2-4.9,2s-2.4-2.8-5.7-1.9c-3.3,0.8-4.1,3.5-4.1,3.5
		s-2.5-2-6.1-0.7c-3.6,1.3-3.2,4.4-3.2,4.4s-2.2-2-5-0.5s-3.1,4-3.1,4s-3.4-1.5-5,0.8c-1.7,2.3-1.1,5.3-1.1,5.3s-2.4-0.2-3.5,2.3
		c-1.1,2.5-0.4,5.5-0.4,5.5s-3.3,1-3.6,4.3c-0.3,3.4,1.1,5,1.1,5s-2.4,2-0.1,5.1c0,0-1,0.3,0,2.4c0,0-2.4,2.8,1.1,5.6
		c0,0-1.6,3.5,2.5,4.6c0,0-1.4-15,5.4-23.7l0.8-0.4c0,0-0.6,1.8,1.9,2.2c2.5,0.4,4.3-1.2,4.3-1.2s0.5,1.5,2.3,2s3.3-0.9,3.3-0.9
		s1,1.5,2.8,1.3c1.7-0.2,2.4-1.4,2.5-1.8c0,0,1.2,2.2,3.8,2.3c2.6,0.1,3.4-2.8,3.4-2.8s1.1,2,3.2,1.9c2.2,0,2.5-2,2.5-2
		s1.2,1.6,2.8,1.6s2.5-1.7,2.5-1.7s0.6,1.5,2,1.4c1.4-0.1,2.1-1.9,2.1-1.9s0.9,1.7,2.3,1.6c1.5-0.1,2.8-2.5,2.8-2.5
		s-0.2,1.9,1.6,2.9c1.8,1,3.9-0.4,3.9-0.4s-1.8,2.3-0.4,4.4c1.4,2.1,3.4,1.4,3.4,1.4s-2.5,2.6,1.5,4.8c0,0-1.2,1.6-0.9,3.6
		s1.9,2.4,1.9,2.4s-1.3,0.9-1.1,2.3s1.1,1.8,1.1,1.8S867.5,55.5,869.6,57.6z"/>
	<g id="XMLID_174_">
		<path id="XMLID_176_" class="st5" d="M811.7,44.7c0,0,0.8-3.6,4.8-5.1s6.6-0.1,8.2,1.1l0.9,3.6c0,0-2.6-3-5.8-3
			S814.2,41.8,811.7,44.7z"/>
		<path id="XMLID_175_" class="st5" d="M839.1,44.3l1.8-4.2c0,0,9.4-6.8,20.6,4.2C861.4,44.2,849,37.4,839.1,44.3z"/>
	</g>
</g>
<g id="XMLID_168_">
	<path id="XMLID_172_" class="st6" d="M869.6-17.9c0,0,1.6-5.2,5.2-7.7c4.2-2.9,6.8,0.8,7.1,1.8c0,0,3.5-2.8,0.5-6.4
		c0,0,1.6-1.2,1.8-2.8c0.2-1.6-0.8-2.6-1.4-3.1c0,0,1.2-0.9,1-3s-1.8-2.5-1.8-2.5s1.5-1.3,1-3s-1.6-2.2-2.3-2.6c0,0,1.5-1.2,0.6-3.6
		c-0.9-2.3-2-3-3.5-2.8c0,0,0.4-2.5-1-4s-4-0.7-4-0.7s1.2-1.5,0-3.1c-1.3-1.6-4.1-1.5-4.1-1.5s0-2.5-2.2-3.8c-2.3-1.3-4.2,0-4.2,0
		s-0.8-3.3-4-4s-5.1,1.5-5.1,1.5s-1.7-3-4.8-3.1c-3.1-0.1-4.9,2-4.9,2s-2.4-2.8-5.7-1.9c-3.3,0.8-4.1,3.5-4.1,3.5s-2.5-2-6.1-0.7
		c-3.6,1.3-3.2,4.4-3.2,4.4s-2.2-2-5-0.5c-2.9,1.5-3.1,4-3.1,4s-3.4-1.5-5,0.8c-1.7,2.2-1.1,5.2-1.1,5.2s-2.4-0.2-3.5,2.3
		c-1.1,2.5-0.4,5.5-0.4,5.5s-3.3,1-3.6,4.3c-0.3,3.4,1.1,5,1.1,5s-2.4,2-0.1,5.1c0,0-1,0.3,0,2.4c0,0-2.4,2.8,1.1,5.6
		c0,0-1.6,3.5,2.5,4.6c0,0-1.4-15,5.4-23.7l0.8-0.4c0,0-0.6,1.8,1.9,2.2c2.5,0.4,4.3-1.2,4.3-1.2s0.5,1.5,2.3,2s3.3-0.9,3.3-0.9
		s1,1.5,2.8,1.3c1.7-0.2,2.4-1.4,2.5-1.8c0,0,1.2,2.2,3.8,2.3c2.6,0.1,3.4-2.8,3.4-2.8s1.1,2,3.2,1.9c2.2,0,2.5-2,2.5-2
		s1.2,1.6,2.8,1.6s2.5-1.7,2.5-1.7s0.6,1.5,2,1.4c1.4-0.1,2.1-1.9,2.1-1.9s0.9,1.7,2.3,1.6c1.5-0.1,2.8-2.5,2.8-2.5
		s-0.2,1.9,1.6,2.9c1.8,1,3.9-0.4,3.9-0.4s-1.8,2.3-0.4,4.4c1.4,2.1,3.4,1.4,3.4,1.4s-2.5,2.6,1.5,4.8c0,0-1.2,1.6-0.9,3.6
		s1.9,2.4,1.9,2.4s-1.3,0.9-1.1,2.3s1.1,1.8,1.1,1.8S867.5-20,869.6-17.9z"/>
	<g id="XMLID_169_">
		<path id="XMLID_171_" class="st7" d="M811.7-30.8c0,0,0.8-3.6,4.8-5.1s6.6-0.1,8.2,1.1l0.9,3.6c0,0-2.6-3-5.8-3
			S814.2-33.7,811.7-30.8z"/>
		<path id="XMLID_170_" class="st7" d="M839.1-31.2l1.8-4.2c0,0,9.4-6.8,20.6,4.2C861.4-31.3,849-38.1,839.1-31.2z"/>
	</g>
</g>
<g id="XMLID_163_">
	<path id="XMLID_167_" class="st8" d="M869.6-93.4c0,0,1.6-5.2,5.2-7.7c4.2-2.9,6.8,0.8,7.1,1.8c0,0,3.5-2.8,0.5-6.4
		c0,0,1.6-1.2,1.8-2.8c0.2-1.6-0.8-2.6-1.4-3.1c0,0,1.2-0.9,1-3s-1.8-2.5-1.8-2.5s1.5-1.3,1-3s-1.6-2.2-2.3-2.6c0,0,1.5-1.2,0.6-3.6
		s-2-3-3.5-2.8c0,0,0.4-2.5-1-4c-1.4-1.5-4-0.7-4-0.7s1.2-1.5,0-3.1c-1.3-1.6-4.1-1.5-4.1-1.5s0-2.5-2.2-3.8s-4.2,0-4.2,0
		s-0.8-3.3-4-4s-5.1,1.5-5.1,1.5s-1.7-3-4.8-3.1c-3.1-0.1-4.9,2-4.9,2s-2.4-2.8-5.7-1.9c-3.3,0.8-4.1,3.5-4.1,3.5s-2.5-2-6.1-0.7
		c-3.6,1.3-3.2,4.4-3.2,4.4s-2.2-2-5-0.5c-2.9,1.5-3.1,4-3.1,4s-3.4-1.5-5,0.8c-1.7,2.2-1.1,5.2-1.1,5.2s-2.4-0.2-3.5,2.3
		c-1.1,2.5-0.4,5.5-0.4,5.5s-3.3,1-3.6,4.3c-0.3,3.4,1.1,5,1.1,5s-2.4,2-0.1,5.1c0,0-1,0.3,0,2.4c0,0-2.4,2.8,1.1,5.6
		c0,0-1.6,3.5,2.5,4.6c0,0-1.4-15,5.4-23.7l0.8-0.4c0,0-0.6,1.8,1.9,2.2c2.5,0.4,4.3-1.2,4.3-1.2s0.5,1.5,2.3,2s3.3-0.9,3.3-0.9
		s1,1.5,2.8,1.3c1.7-0.2,2.4-1.4,2.5-1.8c0,0,1.2,2.2,3.8,2.3c2.6,0.1,3.4-2.8,3.4-2.8s1.1,2,3.2,1.9c2.2,0,2.5-2,2.5-2
		s1.2,1.6,2.8,1.6s2.5-1.7,2.5-1.7s0.6,1.5,2,1.4c1.4-0.1,2.1-1.9,2.1-1.9s0.9,1.7,2.3,1.6c1.5-0.1,2.8-2.5,2.8-2.5
		s-0.2,1.9,1.6,2.9c1.8,1,3.9-0.4,3.9-0.4s-1.8,2.3-0.4,4.4c1.4,2.1,3.4,1.4,3.4,1.4s-2.5,2.6,1.5,4.8c0,0-1.2,1.6-0.9,3.6
		s1.9,2.4,1.9,2.4s-1.3,0.9-1.1,2.3s1.1,1.8,1.1,1.8S867.5-95.5,869.6-93.4z"/>
	<g id="XMLID_164_">
		<path id="XMLID_166_" class="st9" d="M811.7-106.3c0,0,0.8-3.6,4.8-5.1s6.6-0.1,8.2,1.1l0.9,3.6c0,0-2.6-3-5.8-3
			S814.2-109.2,811.7-106.3z"/>
		<path id="XMLID_165_" class="st9" d="M839.1-106.7l1.8-4.2c0,0,9.4-6.8,20.6,4.2C861.4-106.8,849-113.6,839.1-106.7z"/>
	</g>
</g>
<g id="XMLID_158_">
	<path id="XMLID_162_" class="st10" d="M869.6-168.9c0,0,1.6-5.2,5.2-7.7c4.2-2.9,6.8,0.8,7.1,1.8c0,0,3.5-2.8,0.5-6.4
		c0,0,1.6-1.2,1.8-2.8c0.2-1.6-0.8-2.6-1.4-3.1c0,0,1.2-0.9,1-3s-1.8-2.5-1.8-2.5s1.5-1.3,1-3c-0.5-1.7-1.6-2.2-2.3-2.6
		c0,0,1.5-1.2,0.6-3.6s-2-3-3.5-2.8c0,0,0.4-2.5-1-4c-1.4-1.5-4-0.7-4-0.7s1.2-1.5,0-3.1s-4.1-1.5-4.1-1.5s0-2.5-2.2-3.8
		c-2.3-1.3-4.2,0-4.2,0s-0.8-3.3-4-4s-5.1,1.5-5.1,1.5s-1.7-3-4.8-3.1c-3.1-0.1-4.9,2-4.9,2s-2.4-2.8-5.7-1.9
		c-3.3,0.8-4.1,3.5-4.1,3.5s-2.5-2-6.1-0.7c-3.6,1.3-3.2,4.4-3.2,4.4s-2.2-2-5-0.5c-2.9,1.5-3.1,4-3.1,4s-3.4-1.5-5,0.8
		c-1.7,2.2-1.1,5.2-1.1,5.2s-2.4-0.2-3.5,2.3s-0.4,5.5-0.4,5.5s-3.3,1-3.6,4.3s1.1,5,1.1,5s-2.4,2-0.1,5.1c0,0-1,0.3,0,2.4
		c0,0-2.4,2.8,1.1,5.6c0,0-1.6,3.5,2.5,4.6c0,0-1.4-15,5.4-23.7l0.8-0.4c0,0-0.6,1.8,1.9,2.2c2.5,0.4,4.3-1.2,4.3-1.2s0.5,1.5,2.3,2
		c1.9,0.4,3.3-0.9,3.3-0.9s1,1.5,2.8,1.3c1.7-0.2,2.4-1.4,2.5-1.8c0,0,1.2,2.2,3.8,2.3c2.6,0.1,3.4-2.8,3.4-2.8s1.1,2,3.2,1.9
		c2.2,0,2.5-2,2.5-2s1.2,1.6,2.8,1.6c1.5,0,2.5-1.7,2.5-1.7s0.6,1.5,2,1.4c1.4-0.1,2.1-1.9,2.1-1.9s0.9,1.7,2.3,1.6
		c1.5-0.1,2.8-2.5,2.8-2.5s-0.2,1.9,1.6,2.9c1.8,1,3.9-0.4,3.9-0.4s-1.8,2.3-0.4,4.4c1.4,2.1,3.4,1.4,3.4,1.4s-2.5,2.6,1.5,4.8
		c0,0-1.2,1.6-0.9,3.6c0.3,2,1.9,2.4,1.9,2.4s-1.3,0.9-1.1,2.3s1.1,1.8,1.1,1.8S867.5-171,869.6-168.9z"/>
	<g id="XMLID_159_">
		<path id="XMLID_161_" d="M811.7-181.8c0,0,0.8-3.6,4.8-5.1s6.6-0.1,8.2,1.1l0.9,3.6c0,0-2.6-3-5.8-3S814.2-184.7,811.7-181.8z"/>
		<path id="XMLID_160_" d="M839.1-182.2l1.8-4.2c0,0,9.4-6.8,20.6,4.2C861.4-182.3,849-189.1,839.1-182.2z"/>
	</g>
</g>
<g id="XMLID_139_">
	<g id="XMLID_155_">
		<path id="XMLID_157_" class="st9" d="M1041.2-106.6c0,0,0.8-3.6,4.8-5.1s6.6-0.1,8.2,1.1l0.9,3.6c0,0-2.6-3-5.8-3
			S1043.6-109.5,1041.2-106.6z"/>
		<path id="XMLID_156_" class="st9" d="M1068.6-107l1.8-4.2c0,0,9.4-6.8,20.6,4.2C1090.9-107,1078.4-113.9,1068.6-107z"/>
	</g>
	<g id="XMLID_140_">
		<path id="XMLID_154_" class="st8" d="M1095.8-128.1c0,0,3.4-0.5,7.5,4.3s6.6,11.2,5.1,21.8c0,0-6.2-1.6-10,9.1
			c0,0,1.9-9.5-0.8-16.1c0,0,0.5,5.9-0.7,8.2c0,0-8.6-7.1-5.5-19.5c0,0-9.3,11.6-29.6,12.7c0,0,11.2-4.6,15.6-8.4
			c0,0-2.4,1.7-13.2,2.7s-18.2,2.9-24.2,9.8c0,0,1.8-6.8,8.1-11.9s11.2-7.1,16.9-8.2c0,0-25.8,2-29,20.7c0,0-5.5-6.5-3.6-13.8
			s10.1-18.1,27.8-22.5S1095.6-137.4,1095.8-128.1z"/>
		<g id="XMLID_141_">
			<g id="XMLID_152_">
				<path id="XMLID_153_" class="st9" d="M1037-116c0,0-0.1,0-0.1,0c-0.1,0,1.5-9,12.4-15c4.1-2.3,12-3.9,12.1-3.7
					s-8.7,2.2-14.1,5.7C1039-123.5,1037.1-116,1037-116z"/>
			</g>
			<g id="XMLID_150_">
				<path id="XMLID_151_" class="st9" d="M1091.9-123.5c-0.2,0-0.1-2.6-3-5.3c-2.9-2.8-8-3.9-7.9-4.1c0-0.2,5.4,0.9,8.6,3.6
					C1092-127.2,1092.1-123.5,1091.9-123.5C1091.9-123.5,1091.9-123.5,1091.9-123.5z"/>
			</g>
			<g id="XMLID_148_">
				<path id="XMLID_149_" class="st9" d="M1092.2-121.9c0.3-0.5,1.7-2,2.5-3.7c1-2,0.8-2.8,1.1-2.8c0.2,0-0.1,2.1-0.6,3.3
					C1094-122.7,1092.1-121.8,1092.2-121.9z"/>
			</g>
			<g id="XMLID_146_">
				<path id="XMLID_147_" class="st9" d="M1100.5-118.5c-3.1-5.2-6.2-5.4-6.2-5.4c-0.2,0,0.3-0.2,0.3-0.4c0-0.2,0-0.3,0.2-0.3
					C1094.8-124.5,1099.2-123.3,1100.5-118.5C1100.5-118.5,1100.5-118.5,1100.5-118.5z"/>
			</g>
			<g id="XMLID_144_">
				<path id="XMLID_145_" class="st9" d="M1103.3-100.5c0.7-1.8,1-3.8,0.8-5.5c-0.3-4.2-1.3-5.4-1.1-5.5c0.2-0.1,1.4,2.4,1.7,5
					c0.2,1.8,0.2,3.3-0.5,5.3C1104.1-101.1,1103.8-100.9,1103.3-100.5z"/>
			</g>
			<g id="XMLID_142_">
				<path id="XMLID_143_" class="st9" d="M1076.8-115.6c-0.1-0.2,1.4-1,3.8-3c2.1-1.8,4.2-4.5,4.4-4.4c0.2,0.1-2.4,3.5-4.2,5.1
					C1078.6-116,1076.9-115.4,1076.8-115.6z"/>
			</g>
		</g>
	</g>
</g>
<g id="XMLID_120_">
	<g id="XMLID_136_">
		<path id="XMLID_138_" class="st7" d="M1041.2-31.1c0,0,0.8-3.6,4.8-5.1s6.6-0.1,8.2,1.1l0.9,3.6c0,0-2.6-3-5.8-3
			S1043.6-34,1041.2-31.1z"/>
		<path id="XMLID_137_" class="st7" d="M1068.6-31.5l1.8-4.2c0,0,9.4-6.8,20.6,4.2C1090.9-31.5,1078.4-38.4,1068.6-31.5z"/>
	</g>
	<g id="XMLID_121_">
		<path id="XMLID_135_" class="st6" d="M1095.8-52.6c0,0,3.4-0.5,7.5,4.3s6.6,11.2,5.1,21.8c0,0-6.2-1.6-10,9.1
			c0,0,1.9-9.5-0.8-16.1c0,0,0.5,5.9-0.7,8.2c0,0-8.6-7.1-5.5-19.5c0,0-9.3,11.6-29.6,12.7c0,0,11.2-4.6,15.6-8.4
			c0,0-2.4,1.7-13.2,2.7s-18.2,2.9-24.2,9.8c0,0,1.8-6.8,8.1-11.9s11.2-7.1,16.9-8.2c0,0-25.8,2-29,20.7c0,0-5.5-6.5-3.6-13.8
			s10.1-18.1,27.8-22.5S1095.6-61.9,1095.8-52.6z"/>
		<g id="XMLID_122_">
			<g id="XMLID_133_">
				<path id="XMLID_134_" class="st7" d="M1037-40.5c0,0-0.1,0-0.1,0c-0.1,0,1.5-9,12.4-15c4.1-2.3,12-3.9,12.1-3.7
					s-8.7,2.2-14.1,5.7C1039-48,1037.1-40.5,1037-40.5z"/>
			</g>
			<g id="XMLID_131_">
				<path id="XMLID_132_" class="st7" d="M1091.9-48c-0.2,0-0.1-2.6-3-5.3c-2.9-2.8-8-3.9-7.9-4.1c0-0.2,5.4,0.9,8.6,3.6
					C1092-51.7,1092.1-48,1091.9-48C1091.9-48,1091.9-48,1091.9-48z"/>
			</g>
			<g id="XMLID_129_">
				<path id="XMLID_130_" class="st7" d="M1092.2-46.4c0.3-0.5,1.7-2,2.5-3.7c1-2,0.8-2.8,1.1-2.8c0.2,0-0.1,2.1-0.6,3.3
					C1094-47.2,1092.1-46.3,1092.2-46.4z"/>
			</g>
			<g id="XMLID_127_">
				<path id="XMLID_128_" class="st7" d="M1100.5-43c-3.1-5.2-6.2-5.4-6.2-5.4c-0.2,0,0.3-0.2,0.3-0.4c0-0.2,0-0.3,0.2-0.3
					C1094.8-49,1099.2-47.8,1100.5-43C1100.5-43,1100.5-43,1100.5-43z"/>
			</g>
			<g id="XMLID_125_">
				<path id="XMLID_126_" class="st7" d="M1103.3-25c0.7-1.8,1-3.8,0.8-5.5c-0.3-4.2-1.3-5.4-1.1-5.5c0.2-0.1,1.4,2.4,1.7,5
					c0.2,1.8,0.2,3.3-0.5,5.3C1104.1-25.6,1103.8-25.4,1103.3-25z"/>
			</g>
			<g id="XMLID_123_">
				<path id="XMLID_124_" class="st7" d="M1076.8-40.1c-0.1-0.2,1.4-1,3.8-3c2.1-1.8,4.2-4.5,4.4-4.4c0.2,0.1-2.4,3.5-4.2,5.1
					C1078.6-40.5,1076.9-39.9,1076.8-40.1z"/>
			</g>
		</g>
	</g>
</g>
<g id="XMLID_101_">
	<g id="XMLID_117_">
		<path id="XMLID_119_" class="st5" d="M1041.2,44.4c0,0,0.8-3.6,4.8-5.1s6.6-0.1,8.2,1.1l0.9,3.6c0,0-2.6-3-5.8-3
			S1043.6,41.5,1041.2,44.4z"/>
		<path id="XMLID_118_" class="st5" d="M1068.6,44l1.8-4.2c0,0,9.4-6.8,20.6,4.2C1090.9,44,1078.4,37.1,1068.6,44z"/>
	</g>
	<g id="XMLID_102_">
		<path id="XMLID_116_" class="st3" d="M1095.8,22.9c0,0,3.4-0.5,7.5,4.3s6.6,11.2,5.1,21.8c0,0-6.2-1.6-10,9.1
			c0,0,1.9-9.5-0.8-16.1c0,0,0.5,5.9-0.7,8.2c0,0-8.6-7.1-5.5-19.5c0,0-9.3,11.6-29.6,12.7c0,0,11.2-4.6,15.6-8.4
			c0,0-2.4,1.7-13.2,2.7s-18.2,2.9-24.2,9.8c0,0,1.8-6.8,8.1-11.9s11.2-7.1,16.9-8.2c0,0-25.8,2-29,20.7c0,0-5.5-6.5-3.6-13.8
			s10.1-18.1,27.8-22.5S1095.6,13.6,1095.8,22.9z"/>
		<g id="XMLID_103_">
			<g id="XMLID_114_">
				<path id="XMLID_115_" class="st4" d="M1037,35c0,0-0.1,0-0.1,0c-0.1,0,1.5-9,12.4-15c4.1-2.3,12-3.9,12.1-3.7s-8.7,2.2-14.1,5.7
					C1039,27.5,1037.1,35,1037,35z"/>
			</g>
			<g id="XMLID_112_">
				<path id="XMLID_113_" class="st4" d="M1091.9,27.5c-0.2,0-0.1-2.6-3-5.3c-2.9-2.8-8-3.9-7.9-4.1c0-0.2,5.4,0.9,8.6,3.6
					C1092,23.8,1092.1,27.5,1091.9,27.5C1091.9,27.5,1091.9,27.5,1091.9,27.5z"/>
			</g>
			<g id="XMLID_110_">
				<path id="XMLID_111_" class="st4" d="M1092.2,29.1c0.3-0.5,1.7-2,2.5-3.7c1-2,0.8-2.8,1.1-2.8c0.2,0-0.1,2.1-0.6,3.3
					C1094,28.3,1092.1,29.2,1092.2,29.1z"/>
			</g>
			<g id="XMLID_108_">
				<path id="XMLID_109_" class="st4" d="M1100.5,32.5c-3.1-5.2-6.2-5.4-6.2-5.4c-0.2,0,0.3-0.2,0.3-0.4c0-0.2,0-0.3,0.2-0.3
					C1094.8,26.5,1099.2,27.7,1100.5,32.5C1100.5,32.5,1100.5,32.5,1100.5,32.5z"/>
			</g>
			<g id="XMLID_106_">
				<path id="XMLID_107_" class="st4" d="M1103.3,50.5c0.7-1.8,1-3.8,0.8-5.5c-0.3-4.2-1.3-5.4-1.1-5.5c0.2-0.1,1.4,2.4,1.7,5
					c0.2,1.8,0.2,3.3-0.5,5.3C1104.1,49.9,1103.8,50.1,1103.3,50.5z"/>
			</g>
			<g id="XMLID_104_">
				<path id="XMLID_105_" class="st4" d="M1076.8,35.4c-0.1-0.2,1.4-1,3.8-3c2.1-1.8,4.2-4.5,4.4-4.4c0.2,0.1-2.4,3.5-4.2,5.1
					C1078.6,35,1076.9,35.6,1076.8,35.4z"/>
			</g>
		</g>
	</g>
</g>
<g id="XMLID_81_">
	<g id="XMLID_98_">
		<path id="XMLID_100_" class="st2" d="M1041.2,119.9c0,0,0.8-3.6,4.8-5.1s6.6-0.1,8.2,1.1l0.9,3.6c0,0-2.6-3-5.8-3
			S1043.6,117,1041.2,119.9z"/>
		<path id="XMLID_99_" class="st2" d="M1068.6,119.5l1.8-4.2c0,0,9.4-6.8,20.6,4.2C1090.9,119.5,1078.4,112.6,1068.6,119.5z"/>
	</g>
	<g id="XMLID_82_">
		<path id="XMLID_97_" class="st0" d="M1095.8,98.4c0,0,3.4-0.5,7.5,4.3s6.6,11.2,5.1,21.8c0,0-6.2-1.6-10,9.1c0,0,1.9-9.5-0.8-16.1
			c0,0,0.5,5.9-0.7,8.2c0,0-8.6-7.1-5.5-19.5c0,0-9.3,11.6-29.6,12.7c0,0,11.2-4.6,15.6-8.4c0,0-2.4,1.7-13.2,2.7
			s-18.2,2.9-24.2,9.8c0,0,1.8-6.8,8.1-11.9s11.2-7.1,16.9-8.2c0,0-25.8,2-29,20.7c0,0-5.5-6.5-3.6-13.8s10.1-18.1,27.8-22.5
			S1095.6,89.1,1095.8,98.4z"/>
		<g id="XMLID_83_">
			<g id="XMLID_95_">
				<path id="XMLID_96_" class="st1" d="M1037,110.5c0,0-0.1,0-0.1,0c-0.1,0,1.5-9,12.4-15c4.1-2.3,12-3.9,12.1-3.7
					s-8.7,2.2-14.1,5.7C1039,103,1037.1,110.5,1037,110.5z"/>
			</g>
			<g id="XMLID_93_">
				<path id="XMLID_94_" class="st1" d="M1091.9,103c-0.2,0-0.1-2.6-3-5.3c-2.9-2.8-8-3.9-7.9-4.1c0-0.2,5.4,0.9,8.6,3.6
					C1092,99.3,1092.1,103,1091.9,103C1091.9,103,1091.9,103,1091.9,103z"/>
			</g>
			<g id="XMLID_91_">
				<path id="XMLID_92_" class="st1" d="M1092.2,104.6c0.3-0.5,1.7-2,2.5-3.7c1-2,0.8-2.8,1.1-2.8c0.2,0-0.1,2.1-0.6,3.3
					C1094,103.8,1092.1,104.7,1092.2,104.6z"/>
			</g>
			<g id="XMLID_89_">
				<path id="XMLID_90_" class="st1" d="M1100.5,108c-3.1-5.2-6.2-5.4-6.2-5.4c-0.2,0,0.3-0.2,0.3-0.4c0-0.2,0-0.3,0.2-0.3
					C1094.8,102,1099.2,103.2,1100.5,108C1100.5,108,1100.5,108,1100.5,108z"/>
			</g>
			<g id="XMLID_86_">
				<path id="XMLID_87_" class="st1" d="M1103.3,126c0.7-1.8,1-3.8,0.8-5.5c-0.3-4.2-1.3-5.4-1.1-5.5c0.2-0.1,1.4,2.4,1.7,5
					c0.2,1.8,0.2,3.3-0.5,5.3C1104.1,125.4,1103.8,125.6,1103.3,126z"/>
			</g>
			<g id="XMLID_84_">
				<path id="XMLID_85_" class="st1" d="M1076.8,110.9c-0.1-0.2,1.4-1,3.8-3c2.1-1.8,4.2-4.5,4.4-4.4c0.2,0.1-2.4,3.5-4.2,5.1
					C1078.6,110.5,1076.9,111.1,1076.8,110.9z"/>
			</g>
		</g>
	</g>
</g>
<g id="XMLID_57_">
	<g id="XMLID_78_">
		<path id="XMLID_80_" d="M1041.2-182.1c0,0,0.8-3.6,4.8-5.1s6.6-0.1,8.2,1.1l0.9,3.6c0,0-2.6-3-5.8-3S1043.6-185,1041.2-182.1z"/>
		<path id="XMLID_79_" d="M1068.6-182.5l1.8-4.2c0,0,9.4-6.8,20.6,4.2C1090.9-182.5,1078.4-189.4,1068.6-182.5z"/>
	</g>
	<g id="XMLID_60_">
		<path id="XMLID_77_" class="st10" d="M1095.8-203.6c0,0,3.4-0.5,7.5,4.3s6.6,11.2,5.1,21.8c0,0-6.2-1.6-10,9.1
			c0,0,1.9-9.5-0.8-16.1c0,0,0.5,5.9-0.7,8.2c0,0-8.6-7.1-5.5-19.5c0,0-9.3,11.6-29.6,12.7c0,0,11.2-4.6,15.6-8.4
			c0,0-2.4,1.7-13.2,2.7s-18.2,2.9-24.2,9.8c0,0,1.8-6.8,8.1-11.9s11.2-7.1,16.9-8.2c0,0-25.8,2-29,20.7c0,0-5.5-6.5-3.6-13.8
			s10.1-18.1,27.8-22.5S1095.6-212.9,1095.8-203.6z"/>
		<g id="XMLID_61_">
			<g id="XMLID_75_">
				<path id="XMLID_76_" class="st11" d="M1037-191.5c0,0-0.1,0-0.1,0c-0.1,0,1.5-9,12.4-15c4.1-2.3,12-3.9,12.1-3.7
					s-8.7,2.2-14.1,5.7C1039-199,1037.1-191.5,1037-191.5z"/>
			</g>
			<g id="XMLID_73_">
				<path id="XMLID_74_" class="st11" d="M1091.9-199c-0.2,0-0.1-2.6-3-5.3c-2.9-2.8-8-3.9-7.9-4.1c0-0.2,5.4,0.9,8.6,3.6
					C1092-202.7,1092.1-199,1091.9-199C1091.9-199,1091.9-199,1091.9-199z"/>
			</g>
			<g id="XMLID_71_">
				<path id="XMLID_72_" class="st11" d="M1092.2-197.4c0.3-0.5,1.7-2,2.5-3.7c1-2,0.8-2.8,1.1-2.8c0.2,0-0.1,2.1-0.6,3.3
					C1094-198.2,1092.1-197.3,1092.2-197.4z"/>
			</g>
			<g id="XMLID_69_">
				<path id="XMLID_70_" class="st11" d="M1100.5-194c-3.1-5.2-6.2-5.4-6.2-5.4c-0.2,0,0.3-0.2,0.3-0.4c0-0.2,0-0.3,0.2-0.3
					C1094.8-200,1099.2-198.8,1100.5-194C1100.5-194,1100.5-194,1100.5-194z"/>
			</g>
			<g id="XMLID_67_">
				<path id="XMLID_68_" class="st11" d="M1103.3-176c0.7-1.8,1-3.8,0.8-5.5c-0.3-4.2-1.3-5.4-1.1-5.5c0.2-0.1,1.4,2.4,1.7,5
					c0.2,1.8,0.2,3.3-0.5,5.3C1104.1-176.6,1103.8-176.4,1103.3-176z"/>
			</g>
			<g id="XMLID_62_">
				<path id="XMLID_66_" class="st11" d="M1076.8-191.1c-0.1-0.2,1.4-1,3.8-3c2.1-1.8,4.2-4.5,4.4-4.4c0.2,0.1-2.4,3.5-4.2,5.1
					C1078.6-191.5,1076.9-190.9,1076.8-191.1z"/>
			</g>
		</g>
	</g>
</g>
<g id="XMLID_40_">
	<path id="XMLID_56_" class="st10" d="M754.1-168.9c2.4-15.4-5.9-26.4-7.2-28.4c-7.1,1.8-33.5,4.5-49.5,1.2
		c5.6-8.2,17.1-15.2,32.1-15.3s36,13.9,33.9,33.8C763.4-177.6,757.8-178.2,754.1-168.9z"/>
	<g id="XMLID_41_">
		<path id="XMLID_43_" d="M696.2-181.8c0,0,0.8-3.6,4.8-5.1s6.6-0.1,8.2,1.1l0.9,3.6c0,0-2.6-3-5.8-3S698.7-184.7,696.2-181.8z"/>
		<path id="XMLID_42_" d="M723.6-182.2l1.8-4.2c0,0,9.4-6.8,20.6,4.2C745.9-182.2,733.5-189.1,723.6-182.2z"/>
	</g>
</g>
<g id="XMLID_35_">
	<path id="XMLID_39_" class="st8" d="M754.1-93.4c2.4-15.4-5.9-26.4-7.2-28.4c-7.1,1.8-33.5,4.5-49.5,1.2
		c5.6-8.2,17.1-15.2,32.1-15.3s36,13.9,33.9,33.8C763.4-102.1,757.8-102.7,754.1-93.4z"/>
	<g id="XMLID_36_">
		<path id="XMLID_38_" class="st9" d="M696.2-106.3c0,0,0.8-3.6,4.8-5.1s6.6-0.1,8.2,1.1l0.9,3.6c0,0-2.6-3-5.8-3
			S698.7-109.2,696.2-106.3z"/>
		<path id="XMLID_37_" class="st9" d="M723.6-106.7l1.8-4.2c0,0,9.4-6.8,20.6,4.2C745.9-106.7,733.5-113.6,723.6-106.7z"/>
	</g>
</g>
<g id="XMLID_3_">
	<path id="XMLID_7_" class="st8" d="M187.6,133.1c2.4-15.4-5.9-26.4-7.2-28.4c-7.1,1.8-33.5,4.5-49.5,1.2
		c5.6-8.2,17.1-15.2,32.1-15.3c15-0.1,36,13.9,33.9,33.8C196.8,124.4,191.2,123.8,187.6,133.1z"/>
	<g id="XMLID_4_">
		<path id="XMLID_6_" class="st9" d="M129.6,120.2c0,0,0.8-3.6,4.8-5.1s6.6-0.1,8.2,1.1l0.9,3.6c0,0-2.6-3-5.8-3
			S132.1,117.3,129.6,120.2z"/>
		<path id="XMLID_5_" class="st9" d="M157,119.8l1.8-4.2c0,0,9.4-6.8,20.6,4.2C179.3,119.8,166.9,112.9,157,119.8z"/>
	</g>
</g>
<g id="XMLID_30_">
	<path id="XMLID_34_" class="st6" d="M754.1-17.9c2.4-15.4-5.9-26.4-7.2-28.4c-7.1,1.8-33.5,4.5-49.5,1.2
		c5.6-8.2,17.1-15.2,32.1-15.3c15-0.1,36,13.9,33.9,33.8C763.4-26.6,757.8-27.2,754.1-17.9z"/>
	<g id="XMLID_31_">
		<path id="XMLID_33_" class="st7" d="M696.2-30.8c0,0,0.8-3.6,4.8-5.1s6.6-0.1,8.2,1.1l0.9,3.6c0,0-2.6-3-5.8-3
			S698.7-33.7,696.2-30.8z"/>
		<path id="XMLID_32_" class="st7" d="M723.6-31.2l1.8-4.2c0,0,9.4-6.8,20.6,4.2C745.9-31.2,733.5-38.1,723.6-31.2z"/>
	</g>
</g>
<g id="XMLID_23_">
	<path id="XMLID_29_" class="st3" d="M754.1,57.6c2.4-15.4-5.9-26.4-7.2-28.4c-7.1,1.8-33.5,4.5-49.5,1.2
		c5.6-8.2,17.1-15.2,32.1-15.3c15-0.1,36,13.9,33.9,33.8C763.4,48.9,757.8,48.3,754.1,57.6z"/>
	<g id="XMLID_24_">
		<path id="XMLID_28_" class="st5" d="M696.2,44.7c0,0,0.8-3.6,4.8-5.1s6.6-0.1,8.2,1.1l0.9,3.6c0,0-2.6-3-5.8-3
			S698.7,41.8,696.2,44.7z"/>
		<path id="XMLID_26_" class="st5" d="M723.6,44.3l1.8-4.2c0,0,9.4-6.8,20.6,4.2C745.9,44.3,733.5,37.4,723.6,44.3z"/>
	</g>
</g>
<g id="XMLID_1_">
	<path id="XMLID_22_" class="st0" d="M754.1,133.1c2.4-15.4-5.9-26.4-7.2-28.4c-7.1,1.8-33.5,4.5-49.5,1.2
		c5.6-8.2,17.1-15.2,32.1-15.3s36,13.9,33.9,33.8C763.4,124.4,757.8,123.8,754.1,133.1z"/>
	<g id="XMLID_2_">
		<path id="XMLID_21_" class="st2" d="M696.2,120.2c0,0,0.8-3.6,4.8-5.1s6.6-0.1,8.2,1.1l0.9,3.6c0,0-2.6-3-5.8-3
			S698.7,117.3,696.2,120.2z"/>
		<path id="XMLID_20_" class="st2" d="M723.6,119.8l1.8-4.2c0,0,9.4-6.8,20.6,4.2C745.9,119.8,733.5,112.9,723.6,119.8z"/>
	</g>
</g>
</svg>
