<?xml version="1.0" encoding="utf-8"?>
<!-- Generator: Adobe Illustrator 19.0.0, SVG Export Plug-In . SVG Version: 6.00 Build 0)  -->
<svg version="1.1" id="Camada_1" xmlns="http://www.w3.org/2000/svg" xmlns:xlink="http://www.w3.org/1999/xlink" x="0px" y="0px"
	 viewBox="0 0 297.6 425.2" style="enable-background:new 0 0 297.6 425.2;" xml:space="preserve">
<style type="text/css">
	.st0{fill:#885632;}
	.st1{fill:#CC814D;}
	.st2{fill:#A96537;}
</style>
<g id="XMLID_1558_">
	<g id="XMLID_1491_">
		<g id="XMLID_1492_">
			<path id="XMLID_1494_" class="st0" d="M116.7,191.9c0,0,0.8-3.6,4.8-5.1s6.6,0.2,8.2,1.4l0.9,3.3c0,0-2.6-3-5.8-3
				S119.1,189,116.7,191.9z"/>
			<path id="XMLID_1493_" class="st0" d="M144,191.5l1.4-3.2c0,0,9.8-7.8,20.9,3.1C166.3,191.4,153.9,184.6,144,191.5z"/>
		</g>
	</g>
	<g id="XMLID_1485_">
		<g id="XMLID_1489_">
			<path id="XMLID_1490_" class="st1" d="M132,243.4c3.2-0.9,8.5-2.5,8.5-2.5l0.3-4.7c-2-0.1-3.6-0.9-5.7-1.9
				c-3.3-1.6-9.1-5.2-13.1-8.7s-8.5-9-8.8-12.7c-0.2-2.4-1.2-13.8-1.2-16.8c0.1-2.9,0.3-10.4,5.9-18.7l-0.8-1.5
				c-1.4,0.4-5.1,2.4-7.1,9.9c-2.1,8-1.8,13-1.1,21.8s0.9,31,0.7,33.9s0.1,6,3.1,4c0,0-0.6,5.8,0.5,6.5s2.6-0.1,3.6-1.1
				c0,0,0.4,2.5,1.8,3c0.4,0.1,0.9,0.1,1.4-0.1c0.4-3,1-4.6,1.4-5.1C122.3,247.5,128.8,244.3,132,243.4z"/>
		</g>
		<g id="XMLID_1486_">
			<path id="XMLID_1488_" class="st1" d="M155.4,276.6c0.5,0.9,1.1,1.7,2.1,1.7c2.4,0,2.6-4.4,2.6-6.8c0,0,1.2,2.9,2.5,2.8
				s1.6-3,1.6-3s0.6,1.4,2.1,1.2c0.1,0,0.2,0,0.3-0.1c-2.9-6.2-6.1-12.9-6.1-12.9C157.5,266.1,156.1,272.2,155.4,276.6z"/>
			<path id="XMLID_1487_" class="st1" d="M169.8,224c-3.7,2.8-10.5,6.1-16.2,8.5l0.2,8.9c0,0,8.7,2.6,12.6,4.1
				c3.9,1.5,4.8,3.8,5.6,6.2c0.3,0.7,1.1,3.3,2,6.5c0.5,0.3,1.1,0.5,2,0.5c1.9-0.1,0-9.4,0-13.3s2.2-1.1,2.2-1.1l-1.1-11.8
				l-1.4-15.6l-0.4,0C174.6,218.7,173.2,221.4,169.8,224z"/>
		</g>
	</g>
	<path id="XMLID_1484_" class="st1" d="M167.5,176.6c0,0-0.1,0-0.1,0.1c-0.8,0.3-4.5,1.8-5.9,2.7c-1.6,1-5.2,2-5.1-1
		c0,0-2,1.9-3.4,2.1s-4.5,0.2-4.5-1.1c0,0-1.8,1.9-3.8,1.7c-1.9-0.2-2.4-1.6-2.4-2.2c0,0-1.2,2.4-3.2,2.4s-2.4-1.4-2.3-2.3
		c0,0-1.4,2-2.5,2c-1.1,0-1.6-1.7-1.6-1.7s-1.2,2-2.2,1.7c-1-0.3-1.7-1.4-1.7-1.7c0,0-0.7,1.8-2.1,1.7s-2.1-1.6-2.1-1.6
		s-0.4,1.6-1.6,1.8s-2.4-0.8-2.6-1.5c0,0-0.6,1.4-1.4,1.5s-2.5-0.6-3.2-4.2s1.5-5.3,2.3-5.6c0.3-0.1,0.7-0.1,1.1-0.1
		c0,0,0.4-2.1,2-3.1s3.4-0.3,3.4-0.3s1.3-3.1,4-3.5c2.2-0.4,3,0.6,3,0.6s0.9-2.3,3.7-3s3.7,1.4,3.7,1.4s1.4-2.3,4.6-3.1
		s4.1,1.3,4.1,1.6c0,0,2.9-1.9,5.8-1.6s3.2,2.6,3.2,2.6s1-0.9,2.7-1s3.7,1,4.3,3.6c0,0,1.8-0.8,4,0s2.7,2.7,2.5,3.7
		c0,0,1.7-0.4,3.4,1s0.8,3.3,0.8,3.3S173.9,174,167.5,176.6"/>
	<path id="XMLID_1483_" class="st1" d="M153.7,161.5c0,0-0.7-1.7,1.4-2.9c0,0-1.9-1.9,1.7-3.9c0,0,1.8-4.4,4.6-5.4
		c2.8-1,3.6-0.1,4,0.4c0,0,1.3-1.3,2.9-1.2c1.6,0.1,2,1.3,2.1,1.7c0,0,1.2-0.8,2.9-0.4c1.7,0.5,2.5,2,2.5,2.7c0,0,1.2-0.5,2.2,0.3
		c1,0.8,1.5,2.2,1.5,3.1c0,0,1.1-0.2,1.7,0.8c0.6,0.9,2.2,3.7,1.1,7.8c-1.1,4-2,3.5-2,3.5s0.9,1.9-1.3,3.2c0,0,0,2.5-1.3,3.3
		L174,175l-2.8-3l-6.8-2L153.7,161.5z"/>
	<path id="XMLID_1482_" class="st1" d="M188.2,239.8c-0.6-3.1-0.8-19.4-1-41.1s-5.1-24.4-7.8-25.6s-4.1,0.5-4.1,0.5s-1-0.8-3.4-0.5
		c-1.1,0.1-1.9,0.6-2.4,1.2c-0.7-0.2-1.4-0.3-2.1-0.2c-2.6,0.5-2.4,2.9-2.4,2.9c6.1,2.9,7.4,19,7.8,25.1s1.2,24.6,1.1,27.1
		s0.9,18,2.4,19.1c0.1,0.1,0.3,0.2,0.5,0.3c0,0.1,0,0.2,0,0.3c0.1,3,1.6,6.8,3.4,5.8s1.1-3.8,1.1-3.8c1.5,0.5,3.1,0.1,3.6-0.8
		s-0.2-4.2-0.2-4.2C187.8,248,188.8,242.9,188.2,239.8z"/>
	<g id="XMLID_1432_">
		<g id="XMLID_1471_">
			<path id="XMLID_1481_" class="st2" d="M113,245c0,0,1.8-2,2.7-9.2c0.6-4.3,0.8-9.4,0.3-16.6c-0.4-0.6-0.8-1.2-1.1-1.8
				c0.7,7.6,0.8,12.8,0.3,17C114.3,241.1,113,245,113,245z"/>
			<path id="XMLID_1480_" class="st2" d="M117.1,250.6c0.8-1.4,4.4-11.5,3.7-26c-0.4-0.3-0.7-0.7-1.1-1c0.5,6.9,0.2,12.4-0.5,16.9
				C118.4,246.1,117.1,250.6,117.1,250.6z"/>
			<path id="XMLID_1479_" class="st2" d="M125.6,228.6c-0.3-0.3-0.7-0.5-1-0.8c0.4,11.7-1.3,17.8-2,20c0.4-0.2,0.8-0.5,1.3-0.8
				C124.7,244.1,125.9,238.3,125.6,228.6z"/>
			<path id="XMLID_1478_" class="st2" d="M128.1,244.9c0.4-0.2,0.8-0.3,1.1-0.5c0.5-2.5,1.2-7.3,1.1-12.7c-0.3-0.2-0.7-0.4-1-0.6
				C129.5,237.2,128.6,242.7,128.1,244.9z"/>
			<path id="XMLID_1477_" class="st2" d="M133.5,243c0.4-0.1,0.7-0.2,1.1-0.3c0.6-3.3,0.6-6.4,0.6-8.2c-0.1,0-0.1,0-0.2-0.1
				c-0.3-0.1-0.6-0.3-0.9-0.4C134.2,235.7,134.2,239.3,133.5,243z"/>
			<path id="XMLID_1476_" class="st2" d="M156.2,231.3c-0.3,0.2-0.7,0.3-1,0.5c-0.2,3.6,0.1,7.6,0.4,10.2c0.3,0.1,0.7,0.2,1,0.3
				C156.3,239.6,155.9,235.2,156.2,231.3z"/>
			<path id="XMLID_1475_" class="st2" d="M160.3,260.1c0,2.2,0.1,2.9,0,4.9c-0.1,2-0.2,6.6-0.2,6.6s0.8-2.9,1-5.5
				c0.1-1.9,0.1-2.7,0.2-4.9c-0.5-1-0.7-1.6-0.7-1.6C160.4,259.8,160.4,259.9,160.3,260.1z"/>
			<path id="XMLID_1474_" class="st2" d="M160.4,229.4c-0.3,0.2-0.7,0.3-1,0.5c-0.1,2.7-0.1,7.8,0.2,13.4c0.3,0.1,0.7,0.2,1,0.3
				C160.2,237.5,160.3,232,160.4,229.4z"/>
			<path id="XMLID_1473_" class="st2" d="M165.1,245.1c0.4,0.1,0.7,0.3,1,0.4c-0.7-7.6-0.6-15.3-0.6-18.7c-0.3,0.2-0.7,0.4-1,0.6
				C164.5,230.9,164.5,238,165.1,245.1z"/>
			<path id="XMLID_1472_" class="st2" d="M169.7,224.1c0,4.6,0,14.2,0.9,24.8c0.6,0.9,0.9,1.8,1.2,2.8c0,0,0,0.1,0,0.1
				c-1.3-12.5-1.3-24.1-1.2-28.5C170.4,223.5,170.1,223.8,169.7,224.1C169.7,224,169.7,224,169.7,224.1z"/>
		</g>
		<g id="XMLID_1433_">
			<g id="XMLID_1469_">
				<path id="XMLID_1470_" class="st2" d="M174.6,173.5l-0.3-0.2c0-0.1,0.3-1.8-1-2.9c-1.5-1.2-2.9-0.9-3-0.9l-0.7,0.2l0.1-0.7
					c0.1-0.9-0.3-2.4-2.2-3.1c-1.9-0.7-3.6,0-3.6,0l-0.5,0.2l-0.1-0.6c-0.5-2.2-2.3-3.2-3.7-3.2c0,0-0.1,0-0.1,0c-1.4,0.1-2.9,1-3,1
					l-0.2-0.5c0-0.1-0.3-1.9-2.7-2.2c-2.7-0.3-5.5,1.5-5.5,1.5l-0.5-0.8c0.1-0.1,3.1-2,6.2-1.7c2,0.2,3,1.4,3.4,2.3
					c0.5-0.3,1.3-0.6,2.3-0.7c1.7-0.1,3.8,1,4.7,3.4c0.8-0.2,2.2-0.5,3.8,0.1c2,0.8,2.8,2.4,2.8,3.6c0.7,0,1.9,0.2,3.1,1.3
					C175.1,170.9,175,172.7,174.6,173.5z"/>
			</g>
			<g id="XMLID_1467_">
				<path id="XMLID_1468_" class="st2" d="M118.3,174.4c-0.1-1-0.1-2,0.1-2.9l0.8-0.1c-0.5,3.6,1.1,8.3,1.1,8.3
					C120.3,179.7,118.5,177.3,118.3,174.4z"/>
			</g>
			<g id="XMLID_1465_">
				<path id="XMLID_1466_" class="st2" d="M123,173.4c-0.2-2,0-3.5,1-5.6l0.7,0.1c-2.2,4.6-0.1,11.4-0.1,11.5
					C124.6,179.4,123.3,177.1,123,173.4z"/>
			</g>
			<g id="XMLID_1463_">
				<path id="XMLID_1464_" class="st2" d="M128.4,170.6c0.3-2.3,1.6-5.2,2.5-6c0.2,0,0.8,0.4,0.8,0.4c-1.7,2.4-2.7,5.3-2.9,8
					c-0.3,3.4,0,6.4,0,6.4S127.8,174.7,128.4,170.6z"/>
			</g>
			<g id="XMLID_1461_">
				<path id="XMLID_1462_" class="st2" d="M138.5,162.8l0.5,0.7c-6,6.2-6.4,15.8-6.4,15.8l0,0.1C132.6,179.3,131,170.9,138.5,162.8z
					"/>
			</g>
			<g id="XMLID_1459_">
				<path id="XMLID_1460_" class="st2" d="M136.7,179c0,0,0.3-3.9,2.4-8.1c1.7-3.3,4.1-6.8,8.3-9.5l0.5,0.8
					c-3.2,2.1-5.5,4.7-7.1,7.3C137.9,174.4,136.7,179,136.7,179z"/>
			</g>
			<g id="XMLID_1457_">
				<path id="XMLID_1458_" class="st2" d="M142.3,178.8c0,0,0.5-9.2,13.8-16.4l0.4,0.9C145.1,169.1,142.3,178.7,142.3,178.8z"/>
			</g>
			<g id="XMLID_1455_">
				<path id="XMLID_1456_" class="st2" d="M148.6,179.1c0,0,2-7.9,14.9-14.2l0.4,0.9C153.1,170.5,148.7,179,148.6,179.1z"/>
			</g>
			<g id="XMLID_1453_">
				<path id="XMLID_1454_" class="st2" d="M156.5,178.3c0,0,4.1-7.2,13.5-9.7l0.3,1C161.3,171.9,156.6,178.2,156.5,178.3z"/>
			</g>
			<g id="XMLID_1451_">
				<path id="XMLID_1452_" class="st2" d="M178.6,171.3c0,0-1.7-3.3-9.1-8.5c-8.4-5.6-14.3-4.1-14.3-4.1c0,0,1.6-0.9,4.5-0.6
					c2.6,0.3,6.1,1.4,10.2,4.1c3.4,2.4,4.9,3.8,6.3,5.3C177.9,169.4,178.6,171.3,178.6,171.3z"/>
			</g>
			<g id="XMLID_1449_">
				<path id="XMLID_1450_" class="st2" d="M180,168c0,0-1-4.6-8-9.4c-7.1-4.8-15.1-3.8-15.1-3.8c0,0,2.4-0.7,5.7-0.3
					c2.9,0.3,6.4,1.3,9.8,3.6c2.9,2,4.1,3.2,5.3,4.8C180,165.7,180,168,180,168z"/>
			</g>
			<g id="XMLID_1447_">
				<path id="XMLID_1448_" class="st2" d="M162.8,154.8l-0.7-0.2c0.7-2.8,2.8-5,2.9-5.1l0.2,0.3
					C165.3,149.9,163.3,152.3,162.8,154.8z"/>
			</g>
			<g id="XMLID_1445_">
				<path id="XMLID_1446_" class="st2" d="M168.3,156.1h-0.7c0-3,2.1-5.9,2.5-6.2l0.1,0.3C170.2,150.3,168.3,153.4,168.3,156.1z"/>
			</g>
			<g id="XMLID_1443_">
				<path id="XMLID_1444_" class="st2" d="M173.4,159.1l-0.6-0.4c1.8-2.4,2.8-6,2.8-6l0.2-0.1C175.9,152.7,175.8,156,173.4,159.1z"
					/>
			</g>
			<g id="XMLID_1441_">
				<path id="XMLID_1442_" class="st2" d="M177.7,163.1l-0.5-0.4c2-2.5,2.2-6.5,2.2-6.6l0.2-0.1
					C179.6,156.2,179.9,160.4,177.7,163.1z"/>
			</g>
			<g id="XMLID_1436_">
				<g id="XMLID_1439_">
					<path id="XMLID_1440_" class="st2" d="M178,249.1c-0.7,0-1.2-0.3-1.2-0.3l0.1-0.2c0.1,0,1.5,0.1,2.8-1c0.8-0.7-0.3-6.4-1-10.2
						l-0.1-0.7c-0.6-3-1.1-13.6-1.6-24.8c-0.4-8.2-0.8-16.6-1.2-22c-0.7-9.2-4-13.2-5.6-14.6c-0.5-0.5-1.7-1.6-4.2-0.5
						c0,0,2-2.1,4.6-0.5c1.9,1.1,5.4,5.5,6.2,15.5c0.4,5.4,0.8,13.8,1.2,22c0.5,10.7,1,21.8,1.6,24.7l0.1,0.7
						c1.2,6.3,1.9,10.2,0.7,11.2C179.5,249.1,178.7,249.1,178,249.1z"/>
				</g>
				<g id="XMLID_1437_">
					<path id="XMLID_1438_" class="st2" d="M179.6,250.4c-0.7-0.8-0.9-1.7-0.9-1.8l1-0.2c0,0.1,0.1,1.9,1.5,2.4
						C181.2,250.9,180.3,251.2,179.6,250.4z"/>
				</g>
			</g>
			<g id="XMLID_1434_">
				<path id="XMLID_1435_" class="st2" d="M183.1,239.2c-0.2-2.4-0.3-4.9-0.4-7.2l-0.1-1.2c-0.2-3.3-0.6-14.6-1.1-25.6
					c-0.3-6.2-0.5-12.2-0.7-16.5c-0.4-9.4-4-13.3-5.4-14.4c-2.5-2-5.4-1-5.4-1c0,0,1.3-0.8,2.1-0.8c2.4-0.2,3.6,0.7,3.9,1
					c1.5,1.3,5.3,5.3,5.7,15.1c0.2,4.3,0.4,10.3,0.7,16.5c0.4,11,0.9,22.4,1.1,25.6l0.1,1.2c0.2,4.8,0.4,10.9,0.9,13.6
					C184.6,245.6,183.3,242,183.1,239.2z"/>
			</g>
		</g>
	</g>
</g>
</svg>
