<?xml version="1.0" encoding="utf-8"?>
<!-- Generator: Adobe Illustrator 19.0.0, SVG Export Plug-In . SVG Version: 6.00 Build 0)  -->
<svg version="1.1" id="Camada_1" xmlns="http://www.w3.org/2000/svg" xmlns:xlink="http://www.w3.org/1999/xlink" x="0px" y="0px"
	 viewBox="0 0 297.6 425.2" style="enable-background:new 0 0 297.6 425.2;" xml:space="preserve">
<style type="text/css">
	.st0{fill:#836C4D;}
	.st1{fill:#E4C388;}
	.st2{fill:#BB9B6A;}
</style>
<g id="XMLID_90_">
	<g id="XMLID_112_">
		<g id="XMLID_113_">
			<path id="XMLID_115_" class="st0" d="M130.8,120.5c0,0,0.8-3.6,4.8-5.1s6.6,0.2,8.2,1.4l0.9,3.3c0,0-2.6-3-5.8-3
				S133.3,117.6,130.8,120.5z"/>
			<path id="XMLID_114_" class="st0" d="M158.2,120.1l1.4-3.2c0,0,9.8-7.8,20.9,3.1C180.5,120.1,168.1,113.2,158.2,120.1z"/>
		</g>
	</g>
	<g id="XMLID_108_">
		<path id="XMLID_111_" class="st1" d="M202.1,157.3c-2.3-9-1.2-16,0.2-26.2c1.3-10.2-0.2-23.7-8-32c-6.5-6.9-11.2-7.5-12.7-7.5
			c-2.6-3-7.5-7.2-14.6-8.7c-11.5-2.4-30.2,2.1-38.4,16s-2.3,25.1-2.3,25.1c2.6-11.3,19.9-12.5,30.9-14.1s12.1-9.2,12.1-9.2
			s0.9,3.6,5.1,7.9s11.4,15.9,12.5,25.9c0.6,5.2-3.7,17.1-4.6,19.3c-3.9,2.5-9.6,5.3-14.6,7.4l0.2,8.9c0,0,8.7,2.6,12.6,4.1
			c3.9,1.5,4.8,3.8,5.6,6.2c0.4,1.2,2.3,7.4,4,13C206.5,184.9,204.2,165.7,202.1,157.3z"/>
		<path id="XMLID_110_" class="st1" d="M170.9,199c2.6-0.5,5.2-1.1,8-1.8c-2.3-4.8-4.2-8.9-4.2-8.9C173,192.1,171.7,195.7,170.9,199
			z"/>
		<path id="XMLID_109_" class="st1" d="M136.1,154.3c-3.3-2.9-7-7.2-8.3-10.6c-1.4,10.2-6,18.4-6.6,23.8c-0.6,6,1,18.5,12.5,25.7
			c-0.2-10.4,1.1-14.9,1.9-15.9c0.8-1.2,7.3-4.3,10.5-5.2c3.2-0.9,8.5-2.5,8.5-2.5l0.3-4.7c-2-0.1-3.6-0.9-5.7-1.9
			C145.9,161.4,140.1,157.8,136.1,154.3z"/>
	</g>
	<g id="XMLID_97_">
		<g id="XMLID_106_">
			<path id="XMLID_107_" class="st2" d="M170.6,94.5c-0.2,0.2,1.2-2.1,4.4-3.1c1.1-0.4,2.1-0.5,3.7-0.5c2,0.1,2.6,0.8,2.4,0.8
				C175.2,90.9,171.3,93.7,170.6,94.5z"/>
		</g>
		<g id="XMLID_104_">
			<path id="XMLID_105_" class="st2" d="M127.9,112.2C127.9,112.2,127.8,112.2,127.9,112.2c-0.3,0,1-9.7,11.8-16.2
				c3.5-2.1,6.1-3.3,8.7-4c5.8-1.7,9.8-1,9.7-0.7c0,0.3-7.6-0.9-18,5.4c-3.9,2.4-6.5,5.1-8.3,7.5
				C128.5,108.8,128.1,112.2,127.9,112.2z"/>
		</g>
		<g id="XMLID_102_">
			<path id="XMLID_103_" class="st2" d="M190.5,113.9c-1.6-3.8-3.9-8.1-7.1-11.3c-2-2-3.8-3.2-5.2-3.9c-2.6-1.2-5-0.9-4.7-1
				c1-0.3,5-1.8,10.6,4.2c7.8,8.4,9.7,20.5,9.4,20.6C193.5,122.5,192.2,118,190.5,113.9z"/>
		</g>
		<g id="XMLID_100_">
			<path id="XMLID_101_" class="st2" d="M188.6,176.9c-0.2,0.1,1.2-2,1.9-3.6c1.4-3.2,1.5-7.5,0.9-12.2c-0.8-5.9,0.1-13.3,0.2-13.5
				c0.2-0.8-0.6,4.5,0.5,12.4c0.7,5.2,0.8,9.9-0.6,13C190.5,174.9,188.7,176.9,188.6,176.9z"/>
		</g>
		<g id="XMLID_98_">
			<path id="XMLID_99_" class="st2" d="M131.4,177c-0.3,0-0.8-12.4,3.8-21.1c1-1.8-1.1,4.6-1.7,6.7C131.3,170.1,131.6,177,131.4,177
				C131.4,177,131.4,177,131.4,177z"/>
		</g>
	</g>
	<path id="XMLID_96_" class="st1" d="M188.6,148.3c-0.6-4.5,1-4.5-2.6-6.2c-1.8,4.8-6.3,7.9-12.9,12.9c-9.6,7.1-16.6,20-9.9,37.1
		c0,0-0.5-9.9,4.5-14s10.5-2.6,16.2-10.4c3-4,0-10.1,2.5-15.4C186.4,151.9,188.6,148.7,188.6,148.3z"/>
	<g id="XMLID_91_">
		<g id="XMLID_94_">
			<path id="XMLID_95_" class="st2" d="M168.4,177.5c-0.3,0.1,1-1,3.6-2.2c2-0.9,4.8-2.2,6.7-3.6c2.4-1.8,4.5-3.8,5.3-6.9
				c1-3.7,0.8-4.2,0.8-4.8c0,0,0,0,0,0c0.3,0,0.1,4.5-0.4,6c-1,2.9-2.8,4.8-5.2,6.5c-2,1.5-4.1,2.1-6.1,2.9
				C170.6,176.3,169.1,177.1,168.4,177.5z"/>
		</g>
		<g id="XMLID_92_">
			<path id="XMLID_93_" class="st2" d="M160.6,181.1c0.4-1.7,1-3.7,2.4-5.7c0.5-0.8,2.2-2.7,2.8-3.2c0.2-0.2-0.7,1-0.9,1.2
				c-4.5,5.7-3.8,11.2-3.8,11.2C161.1,185,160.8,183.6,160.6,181.1z"/>
		</g>
	</g>
</g>
</svg>
