<?xml version="1.0" encoding="utf-8"?>
<!-- Generator: Adobe Illustrator 19.0.0, SVG Export Plug-In . SVG Version: 6.00 Build 0)  -->
<svg version="1.1" id="Camada_1" xmlns="http://www.w3.org/2000/svg" xmlns:xlink="http://www.w3.org/1999/xlink" x="0px" y="0px"
	 viewBox="0 0 297.6 425.2" style="enable-background:new 0 0 297.6 425.2;" xml:space="preserve">
<style type="text/css">
	.st0{fill:#714F38;}
	.st1{fill:#8B684E;}
	.st2{fill:#875632;}
	.st3{fill:#CB804D;}
	.st4{fill:#A96537;}
	.st5{fill:#836C4D;}
	.st6{fill:#E4C388;}
	.st7{fill:#BB9B6A;}
	.st8{fill:#42200E;}
	.st9{fill:#593421;}
	.st10{fill:#302727;}
</style>
<g id="XMLID_142_">
	<g id="XMLID_164_">
		<g id="XMLID_165_">
			<path id="XMLID_167_" class="st0" d="M130.8-279.6c0,0,0.8-3.6,4.8-5.1s6.6,0.2,8.2,1.4l0.9,3.3c0,0-2.6-3-5.8-3
				S133.3-282.5,130.8-279.6z"/>
			<path id="XMLID_166_" class="st0" d="M158.2-280l1.4-3.2c0,0,9.8-7.8,20.9,3.1C180.5-280,168.1-286.9,158.2-280z"/>
		</g>
	</g>
	<g id="XMLID_160_">
		<path id="XMLID_163_" class="st1" d="M202.1-242.8c-2.3-9-1.2-16,0.2-26.2c1.3-10.2-0.2-23.7-8-32c-6.5-6.9-11.2-7.5-12.7-7.5
			c-2.6-3-7.5-7.2-14.6-8.7c-11.5-2.4-30.2,2.1-38.4,16s-2.3,25.1-2.3,25.1c2.6-11.3,19.9-12.5,30.9-14.1s12.1-9.2,12.1-9.2
			s0.9,3.6,5.1,7.9s11.4,15.9,12.5,25.9c0.6,5.2-3.7,17.1-4.6,19.3c-3.9,2.5-9.6,5.3-14.6,7.4l0.2,8.9c0,0,8.7,2.6,12.6,4.1
			c3.9,1.5,4.8,3.8,5.6,6.2c0.4,1.2,2.3,7.4,4,13C206.5-215.2,204.2-234.5,202.1-242.8z"/>
		<path id="XMLID_162_" class="st1" d="M170.9-201.1c2.6-0.5,5.2-1.1,8-1.8c-2.3-4.8-4.2-8.9-4.2-8.9
			C173-208.1,171.7-204.4,170.9-201.1z"/>
		<path id="XMLID_161_" class="st1" d="M136.1-245.8c-3.3-2.9-7-7.2-8.3-10.6c-1.4,10.2-6,18.4-6.6,23.8c-0.6,6,1,18.5,12.5,25.7
			c-0.2-10.4,1.1-14.9,1.9-15.9c0.8-1.2,7.3-4.3,10.5-5.2c3.2-0.9,8.5-2.5,8.5-2.5l0.3-4.7c-2-0.1-3.6-0.9-5.7-1.9
			C145.9-238.7,140.1-242.3,136.1-245.8z"/>
	</g>
	<g id="XMLID_149_">
		<g id="XMLID_158_">
			<path id="XMLID_159_" class="st0" d="M170.6-305.6c-0.2,0.2,1.2-2.1,4.4-3.1c1.1-0.4,2.1-0.5,3.7-0.5c2,0.1,2.6,0.8,2.4,0.8
				C175.2-309.2,171.3-306.4,170.6-305.6z"/>
		</g>
		<g id="XMLID_156_">
			<path id="XMLID_157_" class="st0" d="M127.9-287.9C127.9-287.9,127.8-287.9,127.9-287.9c-0.3,0,1-9.7,11.8-16.2
				c3.5-2.1,6.1-3.3,8.7-4c5.8-1.7,9.8-1,9.7-0.7c0,0.3-7.6-0.9-18,5.4c-3.9,2.4-6.5,5.1-8.3,7.5
				C128.5-291.4,128.1-287.9,127.9-287.9z"/>
		</g>
		<g id="XMLID_154_">
			<path id="XMLID_155_" class="st0" d="M190.5-286.3c-1.6-3.8-3.9-8.1-7.1-11.3c-2-2-3.8-3.2-5.2-3.9c-2.6-1.2-5-0.9-4.7-1
				c1-0.3,5-1.8,10.6,4.2c7.8,8.4,9.7,20.5,9.4,20.6C193.5-277.7,192.2-282.1,190.5-286.3z"/>
		</g>
		<g id="XMLID_152_">
			<path id="XMLID_153_" class="st0" d="M188.6-223.2c-0.2,0.1,1.2-2,1.9-3.6c1.4-3.2,1.5-7.5,0.9-12.2c-0.8-5.9,0.1-13.3,0.2-13.5
				c0.2-0.8-0.6,4.5,0.5,12.4c0.7,5.2,0.8,9.9-0.6,13C190.5-225.2,188.7-223.3,188.6-223.2z"/>
		</g>
		<g id="XMLID_150_">
			<path id="XMLID_151_" class="st0" d="M131.4-223.1c-0.3,0-0.8-12.4,3.8-21.1c1-1.8-1.1,4.6-1.7,6.7
				C131.3-230,131.6-223.1,131.4-223.1C131.4-223.1,131.4-223.1,131.4-223.1z"/>
		</g>
	</g>
	<path id="XMLID_148_" class="st1" d="M188.6-251.8c-0.6-4.5,1-4.5-2.6-6.2c-1.8,4.8-6.3,7.9-12.9,12.9c-9.6,7.1-16.6,20-9.9,37.1
		c0,0-0.5-9.9,4.5-14s10.5-2.6,16.2-10.4c3-4,0-10.1,2.5-15.4C186.4-248.3,188.6-251.4,188.6-251.8z"/>
	<g id="XMLID_143_">
		<g id="XMLID_146_">
			<path id="XMLID_147_" class="st0" d="M168.4-222.7c-0.3,0.1,1-1,3.6-2.2c2-0.9,4.8-2.2,6.7-3.6c2.4-1.8,4.5-3.8,5.3-6.9
				c1-3.7,0.8-4.2,0.8-4.8c0,0,0,0,0,0c0.3,0,0.1,4.5-0.4,6c-1,2.9-2.8,4.8-5.2,6.5c-2,1.5-4.1,2.1-6.1,2.9
				C170.6-223.9,169.1-223,168.4-222.7z"/>
		</g>
		<g id="XMLID_144_">
			<path id="XMLID_145_" class="st0" d="M160.6-219.1c0.4-1.7,1-3.7,2.4-5.7c0.5-0.8,2.2-2.7,2.8-3.2c0.2-0.2-0.7,1-0.9,1.2
				c-4.5,5.7-3.8,11.2-3.8,11.2C161.1-215.1,160.8-216.5,160.6-219.1z"/>
		</g>
	</g>
</g>
<g id="XMLID_116_">
	<g id="XMLID_138_">
		<g id="XMLID_139_">
			<path id="XMLID_141_" class="st2" d="M130.8-438.9c0,0,0.8-3.6,4.8-5.1s6.6,0.2,8.2,1.4l0.9,3.3c0,0-2.6-3-5.8-3
				S133.3-441.8,130.8-438.9z"/>
			<path id="XMLID_140_" class="st2" d="M158.2-439.3l1.4-3.2c0,0,9.8-7.8,20.9,3.1C180.5-439.4,168.1-446.2,158.2-439.3z"/>
		</g>
	</g>
	<g id="XMLID_134_">
		<path id="XMLID_137_" class="st3" d="M202.1-402.1c-2.3-9-1.2-16,0.2-26.2c1.3-10.2-0.2-23.7-8-32c-6.5-6.9-11.2-7.5-12.7-7.5
			c-2.6-3-7.5-7.2-14.6-8.7c-11.5-2.4-30.2,2.1-38.4,16s-2.3,25.1-2.3,25.1c2.6-11.3,19.9-12.5,30.9-14.1s12.1-9.2,12.1-9.2
			s0.9,3.6,5.1,7.9s11.4,15.9,12.5,25.9c0.6,5.2-3.7,17.1-4.6,19.3c-3.9,2.5-9.6,5.3-14.6,7.4l0.2,8.9c0,0,8.7,2.6,12.6,4.1
			c3.9,1.5,4.8,3.8,5.6,6.2c0.4,1.2,2.3,7.4,4,13C206.5-374.5,204.2-393.8,202.1-402.1z"/>
		<path id="XMLID_136_" class="st3" d="M170.9-360.5c2.6-0.5,5.2-1.1,8-1.8c-2.3-4.8-4.2-8.9-4.2-8.9
			C173-367.4,171.7-363.7,170.9-360.5z"/>
		<path id="XMLID_135_" class="st3" d="M136.1-405.2c-3.3-2.9-7-7.2-8.3-10.6c-1.4,10.2-6,18.4-6.6,23.8c-0.6,6,1,18.5,12.5,25.7
			c-0.2-10.4,1.1-14.9,1.9-15.9c0.8-1.2,7.3-4.3,10.5-5.2c3.2-0.9,8.5-2.5,8.5-2.5l0.3-4.7c-2-0.1-3.6-0.9-5.7-1.9
			C145.9-398.1,140.1-401.7,136.1-405.2z"/>
	</g>
	<g id="XMLID_123_">
		<g id="XMLID_132_">
			<path id="XMLID_133_" class="st4" d="M170.6-465c-0.2,0.2,1.2-2.1,4.4-3.1c1.1-0.4,2.1-0.5,3.7-0.5c2,0.1,2.6,0.8,2.4,0.8
				C175.2-468.6,171.3-465.7,170.6-465z"/>
		</g>
		<g id="XMLID_130_">
			<path id="XMLID_131_" class="st4" d="M127.9-447.3C127.9-447.3,127.8-447.3,127.9-447.3c-0.3,0,1-9.7,11.8-16.2
				c3.5-2.1,6.1-3.3,8.7-4c5.8-1.7,9.8-1,9.7-0.7c0,0.3-7.6-0.9-18,5.4c-3.9,2.4-6.5,5.1-8.3,7.5
				C128.5-450.7,128.1-447.3,127.9-447.3z"/>
		</g>
		<g id="XMLID_128_">
			<path id="XMLID_129_" class="st4" d="M190.5-445.6c-1.6-3.8-3.9-8.1-7.1-11.3c-2-2-3.8-3.2-5.2-3.9c-2.6-1.2-5-0.9-4.7-1
				c1-0.3,5-1.8,10.6,4.2c7.8,8.4,9.7,20.5,9.4,20.6C193.5-437,192.2-441.5,190.5-445.6z"/>
		</g>
		<g id="XMLID_126_">
			<path id="XMLID_127_" class="st4" d="M188.6-382.5c-0.2,0.1,1.2-2,1.9-3.6c1.4-3.2,1.5-7.5,0.9-12.2c-0.8-5.9,0.1-13.3,0.2-13.5
				c0.2-0.8-0.6,4.5,0.5,12.4c0.7,5.2,0.8,9.9-0.6,13C190.5-384.6,188.7-382.6,188.6-382.5z"/>
		</g>
		<g id="XMLID_124_">
			<path id="XMLID_125_" class="st4" d="M131.4-382.4c-0.3,0-0.8-12.4,3.8-21.1c1-1.8-1.1,4.6-1.7,6.7
				C131.3-389.3,131.6-382.5,131.4-382.4C131.4-382.4,131.4-382.4,131.4-382.4z"/>
		</g>
	</g>
	<path id="XMLID_122_" class="st3" d="M188.6-411.2c-0.6-4.5,1-4.5-2.6-6.2c-1.8,4.8-6.3,7.9-12.9,12.9c-9.6,7.1-16.6,20-9.9,37.1
		c0,0-0.5-9.9,4.5-14s10.5-2.6,16.2-10.4c3-4,0-10.1,2.5-15.4C186.4-407.6,188.6-410.8,188.6-411.2z"/>
	<g id="XMLID_117_">
		<g id="XMLID_120_">
			<path id="XMLID_121_" class="st4" d="M168.4-382c-0.3,0.1,1-1,3.6-2.2c2-0.9,4.8-2.2,6.7-3.6c2.4-1.8,4.5-3.8,5.3-6.9
				c1-3.7,0.8-4.2,0.8-4.8c0,0,0,0,0,0c0.3,0,0.1,4.5-0.4,6c-1,2.9-2.8,4.8-5.2,6.5c-2,1.5-4.1,2.1-6.1,2.9
				C170.6-383.2,169.1-382.3,168.4-382z"/>
		</g>
		<g id="XMLID_118_">
			<path id="XMLID_119_" class="st4" d="M160.6-378.4c0.4-1.7,1-3.7,2.4-5.7c0.5-0.8,2.2-2.7,2.8-3.2c0.2-0.2-0.7,1-0.9,1.2
				c-4.5,5.7-3.8,11.2-3.8,11.2C161.1-374.4,160.8-375.8,160.6-378.4z"/>
		</g>
	</g>
</g>
<g id="XMLID_90_">
	<g id="XMLID_112_">
		<g id="XMLID_113_">
			<path id="XMLID_115_" class="st5" d="M130.8-589.3c0,0,0.8-3.6,4.8-5.1s6.6,0.2,8.2,1.4l0.9,3.3c0,0-2.6-3-5.8-3
				S133.3-592.1,130.8-589.3z"/>
			<path id="XMLID_114_" class="st5" d="M158.2-589.6l1.4-3.2c0,0,9.8-7.8,20.9,3.1C180.5-589.7,168.1-596.6,158.2-589.6z"/>
		</g>
	</g>
	<g id="XMLID_108_">
		<path id="XMLID_111_" class="st6" d="M202.1-552.4c-2.3-9-1.2-16,0.2-26.2c1.3-10.2-0.2-23.7-8-32c-6.5-6.9-11.2-7.5-12.7-7.5
			c-2.6-3-7.5-7.2-14.6-8.7c-11.5-2.4-30.2,2.1-38.4,16s-2.3,25.1-2.3,25.1c2.6-11.3,19.9-12.5,30.9-14.1s12.1-9.2,12.1-9.2
			s0.9,3.6,5.1,7.9s11.4,15.9,12.5,25.9c0.6,5.2-3.7,17.1-4.6,19.3c-3.9,2.5-9.6,5.3-14.6,7.4l0.2,8.9c0,0,8.7,2.6,12.6,4.1
			c3.9,1.5,4.8,3.8,5.6,6.2c0.4,1.2,2.3,7.4,4,13C206.5-524.9,204.2-544.1,202.1-552.4z"/>
		<path id="XMLID_110_" class="st6" d="M170.9-510.8c2.6-0.5,5.2-1.1,8-1.8c-2.3-4.8-4.2-8.9-4.2-8.9
			C173-517.7,171.7-514.1,170.9-510.8z"/>
		<path id="XMLID_109_" class="st6" d="M136.1-555.5c-3.3-2.9-7-7.2-8.3-10.6c-1.4,10.2-6,18.4-6.6,23.8c-0.6,6,1,18.5,12.5,25.7
			c-0.2-10.4,1.1-14.9,1.9-15.9c0.8-1.2,7.3-4.3,10.5-5.2c3.2-0.9,8.5-2.5,8.5-2.5l0.3-4.7c-2-0.1-3.6-0.9-5.7-1.9
			C145.9-548.4,140.1-552,136.1-555.5z"/>
	</g>
	<g id="XMLID_97_">
		<g id="XMLID_106_">
			<path id="XMLID_107_" class="st7" d="M170.6-615.3c-0.2,0.2,1.2-2.1,4.4-3.1c1.1-0.4,2.1-0.5,3.7-0.5c2,0.1,2.6,0.8,2.4,0.8
				C175.2-618.9,171.3-616,170.6-615.3z"/>
		</g>
		<g id="XMLID_104_">
			<path id="XMLID_105_" class="st7" d="M127.9-597.6C127.9-597.6,127.8-597.6,127.9-597.6c-0.3,0,1-9.7,11.8-16.2
				c3.5-2.1,6.1-3.3,8.7-4c5.8-1.7,9.8-1,9.7-0.7c0,0.3-7.6-0.9-18,5.4c-3.9,2.4-6.5,5.1-8.3,7.5C128.5-601,128.1-597.6,127.9-597.6
				z"/>
		</g>
		<g id="XMLID_102_">
			<path id="XMLID_103_" class="st7" d="M190.5-595.9c-1.6-3.8-3.9-8.1-7.1-11.3c-2-2-3.8-3.2-5.2-3.9c-2.6-1.2-5-0.9-4.7-1
				c1-0.3,5-1.8,10.6,4.2c7.8,8.4,9.7,20.5,9.4,20.6C193.5-587.3,192.2-591.8,190.5-595.9z"/>
		</g>
		<g id="XMLID_100_">
			<path id="XMLID_101_" class="st7" d="M188.6-532.9c-0.2,0.1,1.2-2,1.9-3.6c1.4-3.2,1.5-7.5,0.9-12.2c-0.8-5.9,0.1-13.3,0.2-13.5
				c0.2-0.8-0.6,4.5,0.5,12.4c0.7,5.2,0.8,9.9-0.6,13C190.5-534.9,188.7-532.9,188.6-532.9z"/>
		</g>
		<g id="XMLID_98_">
			<path id="XMLID_99_" class="st7" d="M131.4-532.8c-0.3,0-0.8-12.4,3.8-21.1c1-1.8-1.1,4.6-1.7,6.7
				C131.3-539.7,131.6-532.8,131.4-532.8C131.4-532.8,131.4-532.8,131.4-532.8z"/>
		</g>
	</g>
	<path id="XMLID_96_" class="st6" d="M188.6-561.5c-0.6-4.5,1-4.5-2.6-6.2c-1.8,4.8-6.3,7.9-12.9,12.9c-9.6,7.1-16.6,20-9.9,37.1
		c0,0-0.5-9.9,4.5-14s10.5-2.6,16.2-10.4c3-4,0-10.1,2.5-15.4C186.4-557.9,188.6-561.1,188.6-561.5z"/>
	<g id="XMLID_91_">
		<g id="XMLID_94_">
			<path id="XMLID_95_" class="st7" d="M168.4-532.3c-0.3,0.1,1-1,3.6-2.2c2-0.9,4.8-2.2,6.7-3.6c2.4-1.8,4.5-3.8,5.3-6.9
				c1-3.7,0.8-4.2,0.8-4.8c0,0,0,0,0,0c0.3,0,0.1,4.5-0.4,6c-1,2.9-2.8,4.8-5.2,6.5c-2,1.5-4.1,2.1-6.1,2.9
				C170.6-533.5,169.1-532.6,168.4-532.3z"/>
		</g>
		<g id="XMLID_92_">
			<path id="XMLID_93_" class="st7" d="M160.6-528.7c0.4-1.7,1-3.7,2.4-5.7c0.5-0.8,2.2-2.7,2.8-3.2c0.2-0.2-0.7,1-0.9,1.2
				c-4.5,5.7-3.8,11.2-3.8,11.2C161.1-524.8,160.8-526.2,160.6-528.7z"/>
		</g>
	</g>
</g>
<g id="XMLID_60_">
	<g id="XMLID_85_">
		<g id="XMLID_86_">
			<path id="XMLID_89_" class="st8" d="M130.8-124.3c0,0,0.8-3.6,4.8-5.1s6.6,0.2,8.2,1.4l0.9,3.3c0,0-2.6-3-5.8-3
				S133.3-127.1,130.8-124.3z"/>
			<path id="XMLID_87_" class="st8" d="M158.2-124.6l1.4-3.2c0,0,9.8-7.8,20.9,3.1C180.5-124.7,168.1-131.6,158.2-124.6z"/>
		</g>
	</g>
	<g id="XMLID_81_">
		<path id="XMLID_84_" class="st9" d="M202.1-87.4c-2.3-9-1.2-16,0.2-26.2c1.3-10.2-0.2-23.7-8-32c-6.5-6.9-11.2-7.5-12.7-7.5
			c-2.6-3-7.5-7.2-14.6-8.7c-11.5-2.4-30.2,2.1-38.4,16s-2.3,25.1-2.3,25.1c2.6-11.3,19.9-12.5,30.9-14.1s12.1-9.2,12.1-9.2
			s0.9,3.6,5.1,7.9s11.4,15.9,12.5,25.9c0.6,5.2-3.7,17.1-4.6,19.3c-3.9,2.5-9.6,5.3-14.6,7.4l0.2,8.9c0,0,8.7,2.6,12.6,4.1
			c3.9,1.5,4.8,3.8,5.6,6.2c0.4,1.2,2.3,7.4,4,13C206.5-59.9,204.2-79.1,202.1-87.4z"/>
		<path id="XMLID_83_" class="st9" d="M170.9-45.8c2.6-0.5,5.2-1.1,8-1.8c-2.3-4.8-4.2-8.9-4.2-8.9C173-52.7,171.7-49.1,170.9-45.8z
			"/>
		<path id="XMLID_82_" class="st9" d="M136.1-90.5c-3.3-2.9-7-7.2-8.3-10.6c-1.4,10.2-6,18.4-6.6,23.8c-0.6,6,1,18.5,12.5,25.7
			c-0.2-10.4,1.1-14.9,1.9-15.9c0.8-1.2,7.3-4.3,10.5-5.2c3.2-0.9,8.5-2.5,8.5-2.5l0.3-4.7c-2-0.1-3.6-0.9-5.7-1.9
			C145.9-83.4,140.1-87,136.1-90.5z"/>
	</g>
	<g id="XMLID_70_">
		<g id="XMLID_79_">
			<path id="XMLID_80_" class="st8" d="M170.6-150.3c-0.2,0.2,1.2-2.1,4.4-3.1c1.1-0.4,2.1-0.5,3.7-0.5c2,0.1,2.6,0.8,2.4,0.8
				C175.2-153.9,171.3-151.1,170.6-150.3z"/>
		</g>
		<g id="XMLID_77_">
			<path id="XMLID_78_" class="st8" d="M127.9-132.6C127.9-132.6,127.8-132.6,127.9-132.6c-0.3,0,1-9.7,11.8-16.2
				c3.5-2.1,6.1-3.3,8.7-4c5.8-1.7,9.8-1,9.7-0.7c0,0.3-7.6-0.9-18,5.4c-3.9,2.4-6.5,5.1-8.3,7.5C128.5-136,128.1-132.6,127.9-132.6
				z"/>
		</g>
		<g id="XMLID_75_">
			<path id="XMLID_76_" class="st8" d="M190.5-130.9c-1.6-3.8-3.9-8.1-7.1-11.3c-2-2-3.8-3.2-5.2-3.9c-2.6-1.2-5-0.9-4.7-1
				c1-0.3,5-1.8,10.6,4.2c7.8,8.4,9.7,20.5,9.4,20.6C193.5-122.3,192.2-126.8,190.5-130.9z"/>
		</g>
		<g id="XMLID_73_">
			<path id="XMLID_74_" class="st8" d="M188.6-67.9c-0.2,0.1,1.2-2,1.9-3.6c1.4-3.2,1.5-7.5,0.9-12.2c-0.8-5.9,0.1-13.3,0.2-13.5
				c0.2-0.8-0.6,4.5,0.5,12.4c0.7,5.2,0.8,9.9-0.6,13C190.5-69.9,188.7-67.9,188.6-67.9z"/>
		</g>
		<g id="XMLID_71_">
			<path id="XMLID_72_" class="st8" d="M131.4-67.8c-0.3,0-0.8-12.4,3.8-21.1c1-1.8-1.1,4.6-1.7,6.7
				C131.3-74.7,131.6-67.8,131.4-67.8C131.4-67.8,131.4-67.8,131.4-67.8z"/>
		</g>
	</g>
	<path id="XMLID_69_" class="st9" d="M191.6-98.6c-0.6-4.5-2-2.4-5.6-4.1c-1.8,4.8-6.3,7.9-12.9,12.9c-9.6,7.1-16.6,20-9.9,37.1
		c0,0-0.5-9.9,4.5-14s10.5-2.6,16.2-10.4c3-4,1.7-11.1,4.2-16.5C188-94,191.6-98.2,191.6-98.6z"/>
	<g id="XMLID_61_">
		<g id="XMLID_67_">
			<path id="XMLID_68_" class="st8" d="M168.4-67.3c-0.3,0.1,1-1,3.6-2.2c2-0.9,4.8-2.2,6.7-3.6c2.4-1.8,4.5-3.8,5.3-6.9
				c1-3.7,0.8-4.2,0.8-4.8c0,0,0,0,0,0c0.3,0,0.1,4.5-0.4,6c-1,2.9-2.8,4.8-5.2,6.5c-2,1.5-4.1,2.1-6.1,2.9
				C170.6-68.5,169.1-67.6,168.4-67.3z"/>
		</g>
		<g id="XMLID_62_">
			<path id="XMLID_66_" class="st8" d="M160.6-63.7c0.4-1.7,1-3.7,2.4-5.7c0.5-0.8,2.2-2.7,2.8-3.2c0.2-0.2-0.7,1-0.9,1.2
				c-4.5,5.7-3.8,11.2-3.8,11.2C161.1-59.8,160.8-61.2,160.6-63.7z"/>
		</g>
	</g>
</g>
<g id="XMLID_1_">
	<g id="XMLID_42_">
		<g id="XMLID_43_">
			<path id="XMLID_57_" d="M129.5,120.5c0,0,0.8-3.6,4.8-5.1s6.6,0.2,8.2,1.4l0.9,3.3c0,0-2.6-3-5.8-3S131.9,117.6,129.5,120.5z"/>
			<path id="XMLID_56_" d="M156.9,120.1l1.4-3.2c0,0,9.8-7.8,20.9,3.1C179.2,120.1,166.7,113.2,156.9,120.1z"/>
		</g>
	</g>
	<g id="XMLID_38_">
		<path id="XMLID_41_" class="st10" d="M200.7,157.3c-2.3-9-1.2-16,0.2-26.2c1.3-10.2-0.2-23.7-8-32c-6.5-6.9-11.2-7.5-12.7-7.5
			c-2.6-3-7.5-7.2-14.6-8.7c-11.5-2.4-30.2,2.1-38.4,16s-2.3,25.1-2.3,25.1c2.6-11.3,19.9-12.5,30.9-14.1s12.1-9.2,12.1-9.2
			s0.9,3.6,5.1,7.9s11.4,15.9,12.5,25.9c0.6,5.2-3.7,17.1-4.6,19.3c-3.9,2.5-9.6,5.3-14.6,7.4l0.2,8.9c0,0,8.7,2.6,12.6,4.1
			c3.9,1.5,4.8,3.8,5.6,6.2c0.4,1.2,2.3,7.4,4,13C205.2,184.9,202.9,165.7,200.7,157.3z"/>
		<path id="XMLID_40_" class="st10" d="M169.5,199c2.6-0.5,5.2-1.1,8-1.8c-2.3-4.8-4.2-8.9-4.2-8.9
			C171.6,192.1,170.4,195.7,169.5,199z"/>
		<path id="XMLID_39_" class="st10" d="M134.8,154.3c-3.3-2.9-7-7.2-8.3-10.6c-1.4,10.2-6,18.4-6.6,23.8c-0.6,6,1,18.5,12.5,25.7
			c-0.2-10.4,1.1-14.9,1.9-15.9c0.8-1.2,7.3-4.3,10.5-5.2c3.2-0.9,8.5-2.5,8.5-2.5l0.3-4.7c-2-0.1-3.6-0.9-5.7-1.9
			C144.5,161.4,138.8,157.8,134.8,154.3z"/>
	</g>
	<g id="XMLID_26_">
		<g id="XMLID_36_">
			<path id="XMLID_37_" d="M169.2,94.5c-0.2,0.2,1.2-2.1,4.4-3.1c1.1-0.4,2.1-0.5,3.7-0.5c2,0.1,2.6,0.8,2.4,0.8
				C173.9,90.9,169.9,93.7,169.2,94.5z"/>
		</g>
		<g id="XMLID_34_">
			<path id="XMLID_35_" d="M126.5,112.2C126.5,112.2,126.5,112.2,126.5,112.2c-0.3,0,1-9.7,11.8-16.2c3.5-2.1,6.1-3.3,8.7-4
				c5.8-1.7,9.8-1,9.7-0.7c0,0.3-7.6-0.9-18,5.4c-3.9,2.4-6.5,5.1-8.3,7.5C127.1,108.8,126.7,112.2,126.5,112.2z"/>
		</g>
		<g id="XMLID_32_">
			<path id="XMLID_33_" d="M189.1,113.9c-1.6-3.8-3.9-8.1-7.1-11.3c-2-2-3.8-3.2-5.2-3.9c-2.6-1.2-5-0.9-4.7-1c1-0.3,5-1.8,10.6,4.2
				c7.8,8.4,9.7,20.5,9.4,20.6C192.1,122.5,190.9,118,189.1,113.9z"/>
		</g>
		<g id="XMLID_30_">
			<path id="XMLID_31_" d="M187.3,176.9c-0.2,0.1,1.2-2,1.9-3.6c1.4-3.2,1.5-7.5,0.9-12.2c-0.8-5.9,0.1-13.3,0.2-13.5
				c0.2-0.8-0.6,4.5,0.5,12.4c0.7,5.2,0.8,9.9-0.6,13C189.2,174.9,187.4,176.9,187.3,176.9z"/>
		</g>
		<g id="XMLID_28_">
			<path id="XMLID_29_" d="M130.1,177c-0.3,0-0.8-12.4,3.8-21.1c1-1.8-1.1,4.6-1.7,6.7C129.9,170.1,130.3,177,130.1,177
				C130.1,177,130.1,177,130.1,177z"/>
		</g>
	</g>
	<path id="XMLID_24_" class="st10" d="M185,150.5c-0.6-4.5,3.2-6.8-0.3-8.5c-1.8,4.8-6.3,7.9-12.9,12.9c-9.6,7.1-16.6,20-9.9,37.1
		c0,0-0.5-9.9,4.5-14s10.5-2.6,16.2-10.4c3-4,0-10.5,2.5-15.9C185,151.4,185,151,185,150.5z"/>
	<g id="XMLID_2_">
		<g id="XMLID_22_">
			<path id="XMLID_23_" d="M167.1,177.5c-0.3,0.1,1-1,3.6-2.2c2-0.9,4.8-2.2,6.7-3.6c2.4-1.8,4.5-3.8,5.3-6.9c1-3.7,0.8-4.2,0.8-4.8
				c0,0,0,0,0,0c0.3,0,0.1,4.5-0.4,6c-1,2.9-2.8,4.8-5.2,6.5c-2,1.5-4.1,2.1-6.1,2.9C169.3,176.3,167.8,177.1,167.1,177.5z"/>
		</g>
		<g id="XMLID_20_">
			<path id="XMLID_21_" d="M159.2,181.1c0.4-1.7,1-3.7,2.4-5.7c0.5-0.8,2.2-2.7,2.8-3.2c0.2-0.2-0.7,1-0.9,1.2
				c-4.5,5.7-3.8,11.2-3.8,11.2C159.7,185,159.4,183.6,159.2,181.1z"/>
		</g>
	</g>
</g>
</svg>
