<?xml version="1.0" encoding="utf-8"?>
<!-- Generator: Adobe Illustrator 19.0.0, SVG Export Plug-In . SVG Version: 6.00 Build 0)  -->
<svg version="1.1" id="Camada_1" xmlns="http://www.w3.org/2000/svg" xmlns:xlink="http://www.w3.org/1999/xlink" x="0px" y="0px"
	 viewBox="0 0 297.6 425.2" style="enable-background:new 0 0 297.6 425.2;" xml:space="preserve">
<style type="text/css">
	.st0{fill:#885632;}
	.st1{fill:#CC814D;}
	.st2{fill:#A96537;}
</style>
<g id="XMLID_1662_">
	<g id="XMLID_1690_">
		<g id="XMLID_1691_">
			<path id="XMLID_1693_" class="st0" d="M124.6,196.7c0,0,0.8-3.6,4.8-5.1c4-1.6,6.6,0.2,8.2,1.4l0.9,3.3c0,0-2.6-3-5.8-3
				S127,193.9,124.6,196.7z"/>
			<path id="XMLID_1692_" class="st0" d="M152,196.4l1.4-3.2c0,0,9.8-7.8,20.9,3.1C174.3,196.3,161.8,189.4,152,196.4z"/>
		</g>
	</g>
	<g id="XMLID_1687_">
		<path id="XMLID_1689_" class="st1" d="M163.3,281.7c0.5-0.1,1,0.1,1.5,0.5c1.5,1,2.8,0.7,3.8-0.8c0.2-0.3,1.1-0.6,1.3-0.4
			c1,0.8,1.5,0.2,2.1-0.4c0.3-0.3,0.5-0.7,0.7-1.1c0,0.1,0.1,0.2,0.1,0.4c0.7,0.1,1.4,0.4,2,0.2c0.4-0.1,0.6-0.3,0.7-0.6
			c-3.2-6.6-7.1-15-7.1-15C165.4,271.1,164,277.3,163.3,281.7z"/>
		<path id="XMLID_1688_" class="st1" d="M205.9,225.4c-0.1-0.3-0.7-0.5-1.1-0.7c-0.9-0.3-1.8-0.4-2.6-0.8c-1.6-0.7-1.7-2.6-0.4-3.7
			c0.5-0.4,1.1-0.8,1.6-1.3c1.3-1.3,1.5-3.1,0.4-4.6c-0.5-0.7-1.2-1.2-1.9-1.8c-0.2-0.2-0.5-0.4-0.8-0.7c1-0.3,1.9-0.5,2.6-0.9
			c0.5-0.3,1-1,1-1.5c0-0.3-0.8-0.7-1.3-1.1c-0.2-0.1-0.4-0.1-0.6-0.2c-1-0.4-1-0.9-0.3-1.8c0.5-0.6,0.9-1.4,0.9-2.1
			c0-0.9-0.6-1.8-0.9-2.8c-0.1,0.1-0.1,0,0,0c1-0.8,1.6-1.7,1.1-2.9c-0.5-1.3-1.6-0.9-2.6-0.7c-1.4,0.2-2.4-0.5-3.2-1.5
			c-0.7-1-0.2-1.9,0.3-2.9c0.4-0.7,0.7-1.5,0.6-2.2c-0.1-0.6-0.9-1-1.5-1.6c1-1.1,1.4-2.4,0.4-3.7c-0.5-0.7-1.5-1.1-2.3-1.6
			c-0.3-0.2-0.6-0.5-0.9-0.7c0.2-0.3,0.4-0.7,0.7-0.8c1.4-0.6,1.7-1.7,1.5-3.1c-0.1-1-0.6-1.1-1.5-0.9c-0.7,0.2-1.5,0.3-2.2,0.2
			c-1.9-0.6-2.7-2.4-2.2-4.3c0.4-1.5,0.1-2.1-1.4-2.5c-0.6-0.2-1.3,0-2,0c-0.5-2.2-1.2-2.6-3.3-1.6c0-0.6,0.2-1.2,0.1-1.7
			c-0.2-0.6-0.4-1.3-0.8-1.7c-1.5-1.3-1.5-1.3-0.6-3.1c0.5-1,0.6-1.9-0.3-2.7c-0.3-0.3-0.6-0.9-0.5-1.3c0.1-1.7,0-3.3-1.5-4.5
			c-0.2-0.2-0.3-0.6-0.4-0.8c-0.3-0.6-0.6-1.3-1.3-0.9c-0.3,0.2-0.6,1.2-0.4,1.5c1.2,1.8,0.9,3.4-0.3,5c-0.1,0.2-0.2,0.5-0.3,0.7
			c-0.1,0-0.3,0-0.4,0c0-0.6-0.1-1.2,0-1.8c0.3-1.3,0.6-2.7-0.4-3.6c-1.2-1-1.5-2.2-1.8-3.6c-0.3-1.4-1.3-1.8-2.6-1.3
			c-0.9,0.3-1.4,0-1.4-1c0-0.4,0.1-0.8,0.2-1.2c0.1-0.8-0.2-1.4-0.9-1.6c-0.8-0.2-1.3,0.2-1.6,0.9c-0.4,1-1.1,1.3-1.9,0.6
			c-0.7-0.7-1.2-1.6-1.8-2.4c-0.5-0.7-0.9-1.5-1.5-2.1c-0.9-0.9-2.4-1-2.8-0.4c-0.6,1,0,1.8,0.7,2.5c0.9,0.8,1.2,1.7,1.1,2.9
			c0,0.5,0.4,1.1,0.7,1.6c0.1,0.3,0.4,0.5,0.6,0.7c-2.1,0.8-3.5,0.1-4.5-1.8c-0.3-0.6-0.7-1.3-1.1-1.8c-0.5-0.6-1-1.2-1.6-1.7
			c-0.7-0.6-1.5-0.7-2.3,0c-0.9,0.7-1.7,0.7-2.4-0.3c-0.2-0.3-0.4-0.6-0.7-0.7c-0.7-0.3-1.4-0.7-2-0.6c-0.8,0.2-1.1,1.1-0.8,1.9
			c0.2,0.6,0.9,1,1.5,1.5c0.5,0.4,1.3,0.5,1.5,1c0.7,1.2,1.7,1.4,2.9,1.4c0.7,0,1.4,0.2,2,0.5c0.2,0.1,0.3,0.7,0.3,1
			c-0.1,0.6-0.4,1.2-0.5,1.5c-0.8,0-1.7,0.1-2.6,0c-0.5,0-1-0.3-1.4-0.5c-0.4-0.3-0.7-0.8-1-1.2c-1.1-1.3-2-1.5-3.4-0.6
			c-0.9,0.5-1.7,0.3-2.4-0.4c-0.3-0.3-0.5-0.8-0.8-1.2c-1.4-2-4-2.8-6-1.6c-0.4,0.2-0.6,0.8-0.9,1.1c0.5,0.3,0.9,0.9,1.4,0.9
			c2,0.2,2.1,0.3,1.8,2c-1-0.2-2.3-0.8-3-0.4c-1.4,0.7-2.3,0.3-3.4-0.4c-1.2-0.8-2.3-0.8-3.5,0.1c-0.8,0.6-1.5,0.5-2.3,0
			c-0.6-0.4-1.2-0.9-1.9-1.2c-0.4-0.2-0.9,0.1-1.4,0.1c-0.4,0.1-0.9,0.4-1.3,0.3c-1.5-0.1-3.1-0.3-4.1,1c-0.4,0.5-0.4,1.5-0.1,2
			c0.4,0.7,1.3,0.4,1.9-0.1c0.2-0.1,0.3-0.4,0.4-0.4c0.7,0,1.7-0.1,1.9,0.3c0.7,1.4,1.5,1.4,2.5,0.4c0.2-0.2,1.9,0,1.7,1.6
			c-0.9,0.7-1.8,1-2.9,0.5c-1.7-0.7-3.2-0.4-4.4,1c-0.4,0.4-0.9,0.8-1.3,1.3c-0.9,1-1.8,1.4-3.2,0.8c-1.5-0.6-3.2-0.6-4.3,0.7
			c-1.4,1.8-2.9,2.6-5.1,1.9c-0.4-0.1-1.3,0.5-1.5,1c-0.1,0.4,0.3,1.2,0.7,1.5c2.1,1.6,4.1,1.1,5.6-1c0.3-0.5,1.1-0.8,1.7-0.9
			c0.6-0.2,1.3-0.1,1.9-0.1c0-0.1,0.9,0.1,1.3,0.2c-0.5,0.7-0.9,1.2-1.2,1.8c-0.4,0.8-0.9,1.2-1.8,1.1c-1.1-0.1-1.9,0.4-2.6,1.3
			c-0.5,0.7-1,1.5-1.3,2.3c-0.5,1-1.2,1.5-2.3,1.6c-0.5,0-1,0-1.6-0.1c-1.1-0.1-2.9,0.9-3.1,2c-0.3,1.8-1.1,3-3,3.3
			c-0.8,0.2-1.4,0.9-1.1,1.8c0.2,0.8,0.9,1.3,1.8,1.2c0.6-0.1,1.1-0.3,1.6-0.5c0.1,0.1,0.2,0.1,0.2,0.2c-0.7,0.8-1.4,1.5-2.1,2.3
			c-0.6,0.7-1.5,1.3-1.6,2.1c-0.3,1.3-0.8,2.4-1.8,3.2c-0.5,0.4-0.9,1.1-1.1,1.7c-0.6,1.6-0.3,2.5,1.1,3.4c-0.1,0.6-0.3,1.1-0.3,1.6
			c0,1.1-0.6,3.4-1.1,4.5c-0.5,0.9-1,1.8-0.1,2.7c1.1,1.2,1.1,1.6-0.1,2.7c-0.9,0.8-1.3,1.7-0.7,2.9c0.5,1.1,0.2,2-0.8,2.7
			c-0.7,0.5-1.5,1.2-1.1,2c0.3,0.6,1.1,1,1.8,1.6c-0.9,1.2-1.1,2.7,0.1,4.3c0.2,0.2,0.1,0.8,0,1.1c-0.3,0.6-0.8,1-1,1.6
			c-0.3,0.8-0.8,1.9-0.4,2.4c1,1.5,0.7,2.6-0.2,3.9c-0.4,0.5-0.7,1.5-0.5,1.9c0.7,1.3,0.3,2.1-0.6,3.1c-0.3,0.4-0.4,1.2-0.2,1.7
			c0.1,0.4,0.8,0.6,1.3,0.8c0.2,0.1,0.5,0.1,0.8,0.1c-0.6,1.5-0.9,2.9,0.7,4c0.6,0.4,0.7,1.2,0.4,1.9c-0.4,0.8-0.8,1.6-1,2.4
			c-0.6,1.8-0.3,2.5,1.2,3.1c2,0.8,2.1,1.2,1.3,3.2c-0.3,0.8-0.3,1.2,0.7,1.4c1.1,0.2,1.7,1,1.4,2.1c-0.3,0.9-0.8,1.7-1.3,2.5
			c-0.5,0.7-0.4,1.1,0.2,1.6c0.9,0.7,1.6,0.5,2.7-0.5c0.3-0.3,1.2-0.5,1.3-0.4c0.3,0.5,0.8,1.3,0.6,1.7c-0.6,1.4-0.7,1.4,0.8,2.2
			c1.6,0.8,1.7,2,0.5,3.2c-0.6,0.6-1.3,1.1-1.8,1.7c-0.9,1.1-0.6,2.7,0.6,3.9c1.1,1.1,1.8,0.2,2.6-0.4c0.4-0.3,1.1-0.3,1.6-0.3
			c0.1,0,0.3,0.8,0.2,1.2c-0.1,1.1,0.3,1.5,1.4,1.2c0.3-0.1,0.5-0.2,0.8-0.2c2.4-0.5,3.9,1.1,3.2,3.4c-0.2,0.7-0.3,1.4-0.3,2.1
			c0,0.9,1.3,2.6,2.1,2.5c0.5,0,1.1-0.5,1.6-1c0.5-0.6,0.9-1.3,1.8-0.8c0.9,0.4,1.3,1,0.9,2.1c-0.4,0.9,0.1,1.4,1.1,1.3
			c0.2,0,0.5-0.1,0.7-0.1c1.7-0.1,2.5,0.6,3.4,2.6c0.8,1.9,3.2,2.8,4.6,2c0.1,0,0.1-0.1,0.2-0.1c0-2.5,0-5.7-0.2-9.7
			c-0.5-12.3,1-17.5,1.8-18.7c0.8-1.2,7.3-4.3,10.5-5.2c3.2-0.9,8.5-2.5,8.5-2.5l0.3-4.7c-2-0.1-3.6-0.9-5.7-1.9
			c-3.3-1.6-9.1-5.2-13.1-8.7c-3.2-2.8-6.8-6.9-8.1-10.3c0-0.6,0.3-1.2,0.9-1.8c1.5-1.2,2.9-1.9,3.2-3.5s-0.5-3.8-1.1-5.4
			s-1.6-2.5,0-3.5s2.8-0.9,4.6-2.2s2.1-3.2,1.8-4.1s-0.9-2.6,0.8-3.6s3-1.5,3.2-2.5c0,0,0.4,3.1,1.8,3s1.6-2.1,1.8-3.1s2.2-1,3-1.9
			s-1.6-3.5,0.5-4.5s4.1,0.5,5.4-0.5s-1.9-3.5,0.2-4.6s4.2,1,6.1,1.1s1.1-2.6,2.8-4s4.5,0.5,5.1,2s1.5,2.8,2.8,2.8s0.2-3.1,4.9-2.9
			s4.6,4,3.5,6.2s-1.6,3.9-0.2,4.4s4.6,0.4,4.9,3s-2.6,4.4-1,7.4s6.2-2,6.4,6.6c0,0,2.6-6.1,7-7.6c0.5-0.2,1.8-0.1,1.8,0
			c0,0,3.9,0.5,3.6,6.1s-3.8,10.2-6.4,12.4c-2.6,2.2-5.1,1.1-5.2,0.2c0,0,0.1,4.7-5.9,9.2c-3.7,2.8-10.5,6.1-16.2,8.5l0.2,8.9
			c0,0,8.7,2.6,12.6,4.1c3.9,1.5,4.8,3.8,5.6,6.2c0.5,1.3,2.6,8.5,4.4,14.4c0.1,0,0.3-0.1,0.4-0.1c1.5-0.1,2.2-1,2.6-2.2
			c0.5-1.5,1.2-2.8,2.4-3.8c1.2,0.5,1.7,0.2,2-1.2c0.1-0.3,0.2-0.6,0.4-0.8c1.5-0.8,1.6-1.2,0.6-2.5c-0.5-0.7-0.5-1.2,0.4-1.6
			c1.7-0.8,1.9-1.6,1.1-3.3c-0.2-0.4-0.3-1.1-0.1-1.6c0.2-0.4,0.9-0.8,1.2-0.7c0.4,0.2,0.5,0.9,0.9,1.3c0.4,0.4,0.8,0.9,1.3,0.9
			c0.4,0,1.1-0.4,1.2-0.8c0.1-0.3-0.4-0.9-0.6-1.3c-0.3-0.6-1-1.3-0.9-1.8c0.5-1.5,0.7-2.7-0.8-3.9c0.5-0.2,0.9-0.3,1.2-0.4
			c1.9-0.6,2.6-2.3,1.9-4.1c-0.2-0.4-0.4-0.7-0.5-1.1c-0.4-0.9-0.1-1.2,0.8-1.1c0.6,0.1,1.2,0.2,1.8,0.1c0.5-0.1,1.2-0.5,1.2-0.9
			c0.1-0.4-0.2-1.2-0.5-1.5c-1.2-1.2-1.3-2.1-0.4-3.5c1.7-2.5,1.7-3.1-0.4-5.2c-0.6-0.6-1.1-1.3-0.6-2.2c0.5-1,1.3-0.3,1.9-0.2
			c1.2,0.3,2.3,0.1,3-0.9C205.9,226.4,206,225.8,205.9,225.4z"/>
	</g>
	<g id="XMLID_1663_">
		<g id="XMLID_1685_">
			<path id="XMLID_1686_" class="st2" d="M189.6,240.9c-0.1,0-1.2-2.3,0.4-4c0.2-0.2,0.9-0.8,1.1-1c0.9-0.7,1.1-1,0.8-1.5
				c-0.1-0.2-0.2-0.3-0.3-0.4c-0.8-1-1.3-1.9,0.9-3.8c0.9-0.8,1.3-1.5,1.2-2c-0.1-0.5-0.7-0.8-1.3-0.9c-0.7-0.1-2-0.6-2.4-1.6
				c-0.3-0.7-0.1-1.4,0.6-2.2c0.9-1.1,1-2,0.9-2.6c-0.1-0.5-0.6-1.3-0.8-1.4c-0.1-0.1,0.9,0.2,1.3,1c0.3,0.7,0.3,1.9-0.9,3.4
				c-0.5,0.6-0.7,1.2-0.5,1.6c0.3,0.7,1.4,1.1,2,1.3c0.7,0.1,1.5,0.5,1.7,1.3c0.2,0.8-0.2,1.7-1.3,2.7c-1.9,1.7-1.4,2.2-0.8,3
				c0.1,0.2,0.3,0.3,0.4,0.5c0.6,1-0.3,1.7-1,2.3c-0.2,0.2-0.5,0.4-0.6,0.6c-1.8,1.8-0.9,3.9-1,3.9
				C189.7,240.9,189.7,240.9,189.6,240.9z"/>
		</g>
		<g id="XMLID_1683_">
			<path id="XMLID_1684_" class="st2" d="M186.4,202.4c0-1.1-0.2-1.9-1.2-2.2c-1.1-0.3-1.7-0.7-2-1.3c-0.4-0.8,0-1.8,0.7-3.4
				c0.8-1.8,0.3-3.1-0.6-4c-0.9-0.9-1.5-1.4-1.5-1.5c0,0,1.4,0.6,2.3,1.6c0.8,1,1.2,2.2,0.3,4.2c-0.6,1.4-1,2.3-0.7,2.9
				c0.2,0.4,0.7,0.7,1.6,1c0.8,0.2,1.1,0.5,1.3,1.3C187.1,202.4,186.4,203.5,186.4,202.4z"/>
		</g>
		<g id="XMLID_1681_">
			<path id="XMLID_1682_" class="st2" d="M189.4,188.5C189.4,188.5,189.4,188.5,189.4,188.5c-0.2,0-0.3-1.9-0.8-3.3
				c-0.3-0.9-0.9-1.8-1.8-2.1c-2.3-0.8-2.3-1.7-2.1-2.8c0-0.1,0-0.2,0.1-0.3c0-0.3,0.2-0.6,0.4-0.9c0.2-0.5,0.5-0.9,0.4-1.4
				c-0.1-0.4-0.6-0.8-1.3-1.2c-3-1.6-5.3-0.5-5.3-0.7s1.7-1,3.7-0.5c0.6,0.1,1.2,0.3,1.9,0.7c0.9,0.5,1.5,1,1.6,1.5
				c0.2,0.7-0.1,1.3-0.4,1.8c-0.1,0.3-0.3,0.5-0.3,0.7c0,0.1,0,0.3-0.1,0.4c-0.2,0.8-0.3,1.4,1.7,2.1c1.4,0.5,2,1.9,2.4,3.1
				C189.7,186.9,189.5,188.5,189.4,188.5z"/>
		</g>
		<g id="XMLID_1679_">
			<path id="XMLID_1680_" class="st2" d="M174.7,174c-0.1-0.1,2.1-2.1,2.1-3.9c0-1.2-0.8-1.5-1.7-1.7c-0.3-0.1-0.6-0.2-0.9-0.3
				c-0.7-0.4-0.7-0.9-0.7-1.4c0-0.4,0-0.7-0.2-1.1c-0.9-1.5-3.1-1.5-3-1.6s1.8,0,2.7,0.6c0.4,0.2,0.7,0.5,0.8,0.8
				c0.3,0.5,0.3,1,0.3,1.4c0,0.5,0,0.7,0.3,0.9c0.2,0.1,0.5,0.2,0.8,0.3c0.9,0.3,2.1,0.7,2.1,2.3C177.4,172.2,174.7,174.1,174.7,174
				z"/>
		</g>
		<g id="XMLID_1677_">
			<path id="XMLID_1678_" class="st2" d="M166.5,178.3c-0.1,0,1.4-1.8,2.3-3.3c0.3-0.5,0.5-1,0.5-1.5c0-0.5-0.1-1-0.5-1.4
				c-1.3-1.3-2.2-1.1-3.4-0.8c-0.7,0.2-1.6,0.4-2.6,0.3c-1.3-0.2-2-1.1-2.6-2c-0.7-1-1.3-1.9-2.7-1.8c-1,0.1-2,0.4-2.9,0.7
				c-1.6,0.7-3.2,1.6-3.3,1.5c-0.1-0.1,1.7-1.4,3.5-2.1c0.8-0.4,1.7-0.6,2.6-0.7c1.8-0.1,2.5,1,3.2,2.1c0.6,0.8,1.1,1.6,2.2,1.8
				c0.9,0.1,1.6-0.1,2.3-0.3c1.2-0.3,2.4-0.6,3.9,0.9c0.5,0.5,0.7,1.1,0.7,1.9C169.8,175.8,166.6,178.3,166.5,178.3z"/>
		</g>
		<g id="XMLID_1675_">
			<path id="XMLID_1676_" class="st2" d="M135.3,193.2c0-0.5,0.2-1,0.4-1.5c0.5-1,1.2-1.4,1.8-1.7c0.4-0.2,0.7-0.4,0.8-0.6
				c0.1-0.3,0.2-0.8,0.2-1.4c0.1-1.1,0.1-2.5,0.8-3.6c0.9-1.4,2-1.2,2.8-1c0.5,0.1,1,0.2,1.3-0.1c0.3-0.4,0.3-1.3,0.1-2.5
				c-0.2-1,0.2-1.4,1.1-1.9c0.6-0.3,2.4-0.4,2.3-0.4c-2.2,0.6-3,1.2-2.8,2.2c0.2,0.8,0.3,2.3-0.2,3c-0.2,0.3-0.5,0.4-0.9,0.4
				c-0.3,0-0.7-0.1-1-0.1c-0.8-0.2-1.5-0.3-2.2,0.7c-0.6,1-0.7,2.3-0.7,3.3c0,0.7-0.1,1.3-0.2,1.7c-0.2,0.4-0.6,0.7-1,0.9
				c-0.5,0.3-1.4,0.7-1.9,1.5C135.1,193.4,135.2,194.4,135.3,193.2z"/>
		</g>
		<g id="XMLID_1673_">
			<path id="XMLID_1674_" class="st2" d="M173.4,157.6c-0.1,0-0.1-0.6-0.9-1.7c-0.7-0.9-1.4-0.9-2.2-0.8c-0.4,0-0.7,0.1-1.1,0.1
				c-1,0.2-1.9,0.3-2.5-0.2c-0.4-0.3-0.5-0.8-0.5-1.5c0-1.9-0.5-2.2-0.8-2.3c-0.4-0.1-0.6-0.1-0.7-0.2c0-0.1,0.9-0.2,1.3,0.1
				c0.5,0.4,0.8,1.1,0.8,2.3c0,0.5,0.1,0.9,0.3,1c0.4,0.3,1.2,0.2,2,0.1c0.4-0.1,0.8-0.1,1.1-0.2c1-0.1,2,0,2.7,1.1
				C173.5,156.4,173.4,157.6,173.4,157.6z"/>
		</g>
		<g id="XMLID_1671_">
			<path id="XMLID_1672_" class="st2" d="M138.7,153.9c-0.5-0.2-0.8-0.4-1.4-0.4c-0.5,0-0.9,0.2-1.4,0.4c-0.6,0.2-1.1,0.5-1.7,0.3
				c-0.5-0.1-0.9-0.3-1.3-0.6c-0.5-0.2-1.1-0.6-1.4-0.5c-0.5,0.1-1.8,1.3-1.9,1.2c-0.1-0.1,1.2-1.6,2-1.7c0.5-0.1,1,0.2,1.6,0.5
				c0.4,0.2,0.8,0.4,1.2,0.5c0.4,0.1,0.9-0.1,1.4-0.3c0.5-0.2,1-0.4,1.6-0.4c0.7,0,1.2,0.4,1.7,0.7c0.4,0.2,1.2,0.5,1.5,0.7
				C140.6,154.3,139.1,154.1,138.7,153.9z"/>
		</g>
		<g id="XMLID_1669_">
			<path id="XMLID_1670_" class="st2" d="M103.9,176.5c-0.2,0,0.4-3.5,1.6-4.1c0.6-0.3,1.2-0.1,1.8,0c0.5,0.1,0.9,0.2,1.3,0.1
				c0.9-0.3,1.7-1.7,1.9-1.7c0.2,0-0.7,1.9-1.7,2.2c-0.5,0.2-1.1,0-1.7-0.1c-0.5-0.1-1-0.3-1.4-0.1
				C104.3,173.9,103.9,176.5,103.9,176.5z"/>
		</g>
		<g id="XMLID_1667_">
			<path id="XMLID_1668_" class="st2" d="M98.9,189.7c-0.1-0.1,0.9-1.3,1.3-3.2c0.2-0.9,0.9-1.1,1.6-1.3c0.3-0.1,0.7-0.2,1-0.3
				c0.4-0.2,0.5-0.9,0.6-1.5c0.1-0.6,0.2-1.1,0.5-1.5c0.7-0.8,2-1.2,2.1-1.1c0.1,0.2-1.1,0.7-1.6,1.5c-0.2,0.3-0.3,0.7-0.4,1.2
				c-0.1,0.7-0.2,1.6-0.9,2c-0.4,0.2-0.8,0.3-1.1,0.4c-0.7,0.2-1.1,0.3-1.1,0.8C100.5,187.8,98.9,189.8,98.9,189.7z"/>
		</g>
		<g id="XMLID_1665_">
			<path id="XMLID_1666_" class="st2" d="M96.3,210.3c0-0.2,2.1-0.7,2.2-2.4c0-0.4-0.2-0.9-0.4-1.4c-0.3-0.7-0.5-1.4-0.4-2
				c0.1-0.6,0.6-0.9,1-1.2c0.5-0.3,1-0.7,1.4-1.5c0.8-1.5,0.5-2,0.1-2.8c-0.3-0.5-0.6-1-0.3-1.6c0.4-1,1.9-1.5,2-1.3
				s-1.1,0.5-1.4,1.5c-0.1,0.3,0,0.6,0.3,1.2c0.5,0.9,0.8,1.7-0.1,3.4c-0.5,0.9-1.1,1.4-1.6,1.7c-0.4,0.3-0.7,0.5-0.8,0.8
				c-0.1,0.5,0.1,1.1,0.4,1.6c0.2,0.5,0.4,1.1,0.4,1.6c0,0.4-0.2,0.8-0.5,1.2C98.1,209.8,96.3,210.4,96.3,210.3z"/>
		</g>
		<g id="XMLID_1664_">
			<path id="XMLID_1694_" class="st2" d="M95.1,231.5c-0.1-0.1,1.8-1,1.6-2.4c-0.1-0.3-0.2-0.7-0.4-1c-0.3-0.6-0.7-1.3-0.4-2.2
				c0.2-0.8,0.7-1.1,1.1-1.4c0.4-0.3,0.7-0.5,0.8-1.1c0.1-0.5-0.1-1-0.4-1.4c-0.3-0.6-0.7-1.2-0.6-2.1c0.2-1.7,2.9-3.1,3-2.9
				c0.1,0.1-2.2,1.6-2.4,3c-0.1,0.7,0.2,1.2,0.5,1.8c0.3,0.5,0.6,1.1,0.5,1.9c-0.1,0.8-0.6,1.2-1.1,1.5c-0.4,0.3-0.7,0.5-0.9,1.1
				c-0.2,0.7,0.1,1.2,0.4,1.8c0.2,0.4,0.4,0.7,0.5,1.2C97.5,230.3,95.2,231.6,95.1,231.5z"/>
		</g>
	</g>
</g>
</svg>
