<?xml version="1.0" encoding="utf-8"?>
<!-- Generator: Adobe Illustrator 19.0.0, SVG Export Plug-In . SVG Version: 6.00 Build 0)  -->
<svg version="1.1" id="Camada_1" xmlns="http://www.w3.org/2000/svg" xmlns:xlink="http://www.w3.org/1999/xlink" x="0px" y="0px"
	 viewBox="0 0 297.6 425.2" style="enable-background:new 0 0 297.6 425.2;" xml:space="preserve">
<style type="text/css">
	.st0{fill:#714F38;}
	.st1{fill:#8C674E;}
</style>
<g id="XMLID_552_">
	<g id="XMLID_927_">
		<path id="XMLID_954_" class="st0" d="M119.9,224.7c0,0,0.8-3.6,4.8-5.1c4-1.6,6.6-0.1,8.2,1.1l0.9,3.6c0,0-2.6-3-5.8-3
			C124.8,221.2,122.3,221.8,119.9,224.7z"/>
		<path id="XMLID_928_" class="st0" d="M147.3,224.3l1.8-4.2c0,0,9.4-6.8,20.6,4.2C169.6,224.2,157.2,217.3,147.3,224.3z"/>
	</g>
	<g id="XMLID_553_">
		<path id="XMLID_926_" class="st1" d="M174.5,203.1c0,0,3.4-0.5,7.5,4.3s6.6,11.2,5.1,21.8c0,0-6.2-1.6-10,9.1
			c0,0,1.9-9.5-0.8-16.1c0,0,0.5,5.9-0.7,8.2c0,0-8.6-7.1-5.5-19.5c0,0-9.3,11.6-29.6,12.7c0,0,11.2-4.6,15.6-8.4
			c0,0-2.4,1.7-13.2,2.7s-18.2,2.9-24.2,9.8c0,0,1.8-6.8,8.1-11.9s11.2-7.1,16.9-8.2c0,0-25.8,2-29,20.7c0,0-5.5-6.5-3.6-13.8
			c1.9-7.3,10.1-18.1,27.8-22.5S174.4,193.8,174.5,203.1z"/>
		<g id="XMLID_554_">
			<g id="XMLID_565_">
				<path id="XMLID_637_" class="st0" d="M115.7,215.2c0,0-0.1,0-0.1,0c-0.1,0,1.5-9,12.4-15c4.1-2.3,12-3.9,12.1-3.7
					s-8.7,2.2-14.1,5.7C117.7,207.7,115.8,215.2,115.7,215.2z"/>
			</g>
			<g id="XMLID_563_">
				<path id="XMLID_564_" class="st0" d="M170.6,207.7c-0.2,0-0.1-2.6-3-5.3c-2.9-2.8-8-3.9-7.9-4.1c0-0.2,5.4,0.9,8.6,3.6
					C170.7,204,170.8,207.7,170.6,207.7C170.6,207.7,170.6,207.7,170.6,207.7z"/>
			</g>
			<g id="XMLID_561_">
				<path id="XMLID_562_" class="st0" d="M170.9,209.4c0.3-0.5,1.7-2,2.5-3.7c1-2,0.8-2.8,1.1-2.8c0.2,0-0.1,2.1-0.6,3.3
					C172.7,208.6,170.9,209.5,170.9,209.4z"/>
			</g>
			<g id="XMLID_559_">
				<path id="XMLID_560_" class="st0" d="M179.2,212.8c-3.1-5.2-6.2-5.4-6.2-5.4c-0.2,0,0.3-0.2,0.3-0.4c0-0.2,0-0.3,0.2-0.3
					C173.6,206.7,177.9,208,179.2,212.8C179.2,212.8,179.2,212.8,179.2,212.8z"/>
			</g>
			<g id="XMLID_557_">
				<path id="XMLID_558_" class="st0" d="M182,230.7c0.7-1.8,1-3.8,0.8-5.5c-0.3-4.2-1.3-5.4-1.1-5.5c0.2-0.1,1.4,2.4,1.7,5
					c0.2,1.8,0.2,3.3-0.5,5.3C182.8,230.1,182.5,230.3,182,230.7z"/>
			</g>
			<g id="XMLID_555_">
				<path id="XMLID_556_" class="st0" d="M155.5,215.7c-0.1-0.2,1.4-1,3.8-3c2.1-1.8,4.2-4.5,4.4-4.4c0.2,0.1-2.4,3.5-4.2,5.1
					C157.4,215.2,155.6,215.8,155.5,215.7z"/>
			</g>
		</g>
	</g>
</g>
</svg>
