<?xml version="1.0" encoding="utf-8"?>
<!-- Generator: Adobe Illustrator 19.0.0, SVG Export Plug-In . SVG Version: 6.00 Build 0)  -->
<svg version="1.1" id="Camada_1" xmlns="http://www.w3.org/2000/svg" xmlns:xlink="http://www.w3.org/1999/xlink" x="0px" y="0px"
	 viewBox="0 0 297.6 425.2" style="enable-background:new 0 0 297.6 425.2;" xml:space="preserve">
<style type="text/css">
	.st0{fill:#302727;}
</style>
<g id="XMLID_2151_">
	<g id="XMLID_2175_">
		<g id="XMLID_2176_">
			<path id="XMLID_2178_" d="M116.8,205.8c0,0,0.8-3.6,4.8-5.1s6.6,0.2,8.2,1.4l0.9,3.3c0,0-2.6-3-5.7-3
				C121.7,202.4,119.2,203,116.8,205.8z"/>
			<path id="XMLID_2177_" d="M144.2,205.5l1.4-3.2c0,0,9.8-7.8,20.9,3.1C166.5,205.4,154,198.5,144.2,205.5z"/>
		</g>
	</g>
	<path id="XMLID_2174_" d="M114.3,192.9l4.1-1.2c0,0,7.2-2.2,20.1,1.8c0,0,12.8-5.9,25.1-0.9l-7.1-8.1l-3.6-0.8l-29.9,0.8
		L114.3,192.9z"/>
	<g id="XMLID_2171_">
		<path id="XMLID_2173_" d="M170.1,238c-2.8,2.1-7.4,4.5-11.9,6.6c3.6,0.9,8.6,2.5,13.2,5.4l2.8-16.4C173.3,235,172,236.5,170.1,238
			z"/>
		<path id="XMLID_2172_" d="M113.8,228.7l-0.8-0.6l-2.2,24.1c0,0,4.6-5.7,17.5-7.9c-2.2-1.4-4.4-3.1-6.2-4.7
			C118.8,236.6,115,232.2,113.8,228.7z"/>
	</g>
	<path id="XMLID_2170_" class="st0" d="M139,193.2c0,0,2.7-9.4,14.4-6.3c9.5,2.5,14.7,13.2,16.3,23.9c2.1,13.9,3,30.1-1.6,46.6
		c0,0,13.9-6.2,22.5-21c0,0,0.9-28-8.2-47.2s-24.6-16.5-29.8-15.2c0,0-3.2-4.9-12.9-3.9s-25.8,10.2-29.9,20.8s-0.5,20.5,0.2,33.6
		s0.4,24-2.2,33.5c0,0,6.1-2,7.2-16.6s-0.8-25.9-1.1-29.4c-0.3-3.1,0.1-10.9,2.8-17.3c0.4-0.9,2.5-6.2,8.8-7.6
		c3.3-0.8,7.3,0,11.2,5.2C136.8,192.4,138,193.4,139,193.2z"/>
	<g id="XMLID_2157_">
		<g id="XMLID_2168_">
			<path id="XMLID_2169_" d="M137.4,185.1c0.5-1.3,1.3-2.7,2.5-4.1c2.4-2.8,5-4.6,7.4-5.7c3.4-1.5,5.3-1.4,5-1.3
				c-3.4,0.9-7.6,3-11.7,7.7c-4.7,5.3-3,9.9-3.3,10C137.4,191.6,136.2,188.4,137.4,185.1z"/>
		</g>
		<g id="XMLID_2166_">
			<path id="XMLID_2167_" d="M178.4,204.6c0,0.8-0.7-3-3.5-10.3c-1.9-5-5.1-10-10.9-13.4c-9.4-5.6-15.3-1.1-15.1-1.5
				c0.1-0.3,2.5-2.1,5.9-2.2c2.5-0.1,5.7,0.6,9.7,2.8c6.5,3.8,9.7,9.7,11.7,15.1C177.8,198.9,178.5,202.8,178.4,204.6z"/>
		</g>
		<g id="XMLID_2164_">
			<path id="XMLID_2165_" d="M138.4,184.4c-0.2,0-0.3-0.1-0.4-0.2c-1.5-2.2-4.6-4.7-8.8-5.7c-4.2-1-8.5,1.5-8.3,1.4
				c0.6-0.5,4.6-3,8.9-2.2c4.5,0.9,7.4,3.6,9,5.9c0.2,0.2,0.1,0.5-0.1,0.7C138.6,184.4,138.5,184.4,138.4,184.4z"/>
		</g>
		<g id="XMLID_2162_">
			<path id="XMLID_2163_" d="M142.6,177.3c-0.2,0-0.9-1.1-1.2-1.5c-2.1-2.8-5.1-2.9-5.2-2.9c-0.3,0-2.6,0-3.5-0.1
				c-0.3,0,3.4-0.7,5.1-0.3c1.5,0.3,2.4,0.8,3.2,1.7C142.4,175.5,142.6,177.3,142.6,177.3z"/>
		</g>
		<g id="XMLID_2160_">
			<path id="XMLID_2161_" d="M174.9,253.2c3.4-10.3,3.5-31.5,3.8-31.6c0.3,0,1,20.2-2.5,30.6C176,252.5,175.3,253,174.9,253.2z"/>
		</g>
		<g id="XMLID_2158_">
			<path id="XMLID_2159_" d="M183.5,245.7c1.6-6.8,1.3-16.9,1.4-16.6c0.3,0.6,1.1,9.6-0.3,15.5C184.5,244.8,183.7,245.5,183.5,245.7
				z"/>
		</g>
	</g>
</g>
</svg>
