<?xml version="1.0" encoding="utf-8"?>
<!-- Generator: Adobe Illustrator 19.0.0, SVG Export Plug-In . SVG Version: 6.00 Build 0)  -->
<svg version="1.1" id="Camada_1" xmlns="http://www.w3.org/2000/svg" xmlns:xlink="http://www.w3.org/1999/xlink" x="0px" y="0px"
	 viewBox="0 0 297.6 425.2" style="enable-background:new 0 0 297.6 425.2;" xml:space="preserve">
<style type="text/css">
	.st0{fill:#836C4D;}
	.st1{fill:#BB9B6A;}
	.st2{fill:#E4C388;}
	.st3{fill:#875632;}
	.st4{fill:#A96537;}
	.st5{fill:#CB804D;}
	.st6{fill:#714F38;}
	.st7{fill:#8B684E;}
	.st8{fill:#42200E;}
	.st9{fill:#593421;}
	.st10{fill:#302727;}
</style>
<g id="XMLID_266_">
	<g id="XMLID_287_">
		<g id="XMLID_288_">
			<path id="XMLID_290_" class="st0" d="M129.4-492.6c0,0,0.8-3.6,4.8-5.1s6.6,0.2,8.2,1.4l0.9,3.3c0,0-2.6-3-5.8-3
				S131.8-495.4,129.4-492.6z"/>
			<path id="XMLID_289_" class="st0" d="M156.8-492.9l1.4-3.2c0,0,9.8-7.8,20.9,3.1C179.1-493,166.6-499.9,156.8-492.9z"/>
		</g>
	</g>
	<g id="XMLID_267_">
		<path id="XMLID_286_" class="st1" d="M126.9-505.5l4.1-1.2c0,0,7.2-2.2,20.1,1.8c0,0,12.8-5.9,25.1-0.9L169-514l-3.6-0.8
			l-29.9,0.8L126.9-505.5z"/>
		<g id="XMLID_283_">
			<path id="XMLID_285_" class="st1" d="M182.7-460.4c-2.8,2.1-7.4,4.5-11.9,6.6c3.6,0.9,8.6,2.5,13.2,5.4l2.8-16.4
				C185.9-463.4,184.6-461.9,182.7-460.4z"/>
			<path id="XMLID_284_" class="st1" d="M126.5-469.7l-0.8-0.6l-2.2,24.1c0,0,4.6-5.7,17.5-7.9c-2.2-1.4-4.4-3.1-6.2-4.7
				C131.4-461.8,127.7-466.2,126.5-469.7z"/>
		</g>
		<g id="XMLID_268_">
			<path id="XMLID_282_" class="st2" d="M151.6-505.2c0,0,2.7-9.4,14.4-6.3c9.5,2.5,14.7,13.2,16.3,23.9c2.1,13.9,3,30.1-1.6,46.6
				c0,0,13.9-6.2,22.5-21c0,0,0.9-28-8.2-47.2s-24.6-16.5-29.8-15.2c0,0-3.2-4.9-12.9-3.9s-25.8,10.2-29.9,20.8s-0.5,20.5,0.2,33.6
				s0.4,24-2.2,33.5c0,0,6.1-2,7.2-16.6s-0.8-25.9-1.1-29.4c-0.3-3.1,0.1-10.9,2.8-17.3c0.4-0.9,2.5-6.2,8.8-7.6
				c3.2-0.8,7.3,0,11.2,5.2C149.5-506,150.6-505,151.6-505.2z"/>
			<g id="XMLID_269_">
				<g id="XMLID_280_">
					<path id="XMLID_281_" class="st1" d="M150-513.3c0.5-1.3,1.3-2.7,2.5-4.1c2.4-2.8,5-4.6,7.4-5.7c3.4-1.5,5.3-1.4,5-1.3
						c-3.4,0.9-7.6,3-11.7,7.7c-4.7,5.3-3,9.9-3.3,10C150-506.8,148.8-510,150-513.3z"/>
				</g>
				<g id="XMLID_278_">
					<path id="XMLID_279_" class="st1" d="M191-493.8c0,0.8-0.7-3-3.5-10.3c-1.9-5-5.1-10-10.9-13.4c-9.4-5.6-15.3-1.1-15.1-1.5
						c0.1-0.3,2.5-2.1,5.9-2.2c2.5-0.1,5.7,0.6,9.7,2.8c6.5,3.8,9.7,9.7,11.7,15.1C190.4-499.5,191.1-495.7,191-493.8z"/>
				</g>
				<g id="XMLID_276_">
					<path id="XMLID_277_" class="st1" d="M151-514c-0.2,0-0.3-0.1-0.4-0.2c-1.5-2.2-4.6-4.7-8.8-5.7c-4.2-1-8.5,1.5-8.3,1.4
						c0.6-0.5,4.6-3,8.9-2.2c4.5,0.9,7.4,3.6,9,5.9c0.2,0.2,0.1,0.5-0.1,0.7C151.2-514,151.1-514,151-514z"/>
				</g>
				<g id="XMLID_274_">
					<path id="XMLID_275_" class="st1" d="M155.2-521.1c-0.2,0-0.9-1.1-1.2-1.5c-2.1-2.8-5.1-2.9-5.2-2.9c-0.3,0-2.6,0-3.5-0.1
						c-0.3,0,3.4-0.7,5.1-0.3c1.5,0.3,2.4,0.8,3.2,1.7C155-522.9,155.2-521.1,155.2-521.1z"/>
				</g>
				<g id="XMLID_272_">
					<path id="XMLID_273_" class="st1" d="M187.6-445.2c3.4-10.3,3.5-31.5,3.8-31.6c0.3,0,1,20.2-2.5,30.6
						C188.6-445.9,187.9-445.4,187.6-445.2z"/>
				</g>
				<g id="XMLID_270_">
					<path id="XMLID_271_" class="st1" d="M196.1-452.7c1.6-6.8,1.3-16.9,1.4-16.6c0.3,0.6,1.1,9.6-0.3,15.5
						C197.1-453.7,196.4-452.9,196.1-452.7z"/>
				</g>
			</g>
		</g>
	</g>
</g>
<g id="XMLID_241_">
	<g id="XMLID_262_">
		<g id="XMLID_263_">
			<path id="XMLID_265_" class="st3" d="M129.4-339.3c0,0,0.8-3.6,4.8-5.1s6.6,0.2,8.2,1.4l0.9,3.3c0,0-2.6-3-5.8-3
				S131.8-342.2,129.4-339.3z"/>
			<path id="XMLID_264_" class="st3" d="M156.8-339.7l1.4-3.2c0,0,9.8-7.8,20.9,3.1C179.1-339.7,166.6-346.6,156.8-339.7z"/>
		</g>
	</g>
	<g id="XMLID_242_">
		<path id="XMLID_261_" class="st4" d="M126.9-352.2l4.1-1.2c0,0,7.2-2.2,20.1,1.8c0,0,12.8-5.9,25.1-0.9l-7.1-8.1l-3.6-0.8
			l-29.9,0.8L126.9-352.2z"/>
		<g id="XMLID_258_">
			<path id="XMLID_260_" class="st4" d="M182.7-307.2c-2.8,2.1-7.4,4.5-11.9,6.6c3.6,0.9,8.6,2.5,13.2,5.4l2.8-16.4
				C185.9-310.2,184.6-308.7,182.7-307.2z"/>
			<path id="XMLID_259_" class="st4" d="M126.5-316.5l-0.8-0.6l-2.2,24.1c0,0,4.6-5.7,17.5-7.9c-2.2-1.4-4.4-3.1-6.2-4.7
				C131.4-308.5,127.7-312.9,126.5-316.5z"/>
		</g>
		<g id="XMLID_243_">
			<path id="XMLID_257_" class="st5" d="M151.6-352c0,0,2.7-9.4,14.4-6.3c9.5,2.5,14.7,13.2,16.3,23.9c2.1,13.9,3,30.1-1.6,46.6
				c0,0,13.9-6.2,22.5-21c0,0,0.9-28-8.2-47.2s-24.6-16.5-29.8-15.2c0,0-3.2-4.9-12.9-3.9s-25.8,10.2-29.9,20.8s-0.5,20.5,0.2,33.6
				s0.4,24-2.2,33.5c0,0,6.1-2,7.2-16.6s-0.8-25.9-1.1-29.4c-0.3-3.1,0.1-10.9,2.8-17.3c0.4-0.9,2.5-6.2,8.8-7.6
				c3.2-0.8,7.3,0,11.2,5.2C149.5-352.7,150.6-351.8,151.6-352z"/>
			<g id="XMLID_244_">
				<g id="XMLID_255_">
					<path id="XMLID_256_" class="st4" d="M150-360c0.5-1.3,1.3-2.7,2.5-4.1c2.4-2.8,5-4.6,7.4-5.7c3.4-1.5,5.3-1.4,5-1.3
						c-3.4,0.9-7.6,3-11.7,7.7c-4.7,5.3-3,9.9-3.3,10C150-353.5,148.8-356.7,150-360z"/>
				</g>
				<g id="XMLID_253_">
					<path id="XMLID_254_" class="st4" d="M191-340.6c0,0.8-0.7-3-3.5-10.3c-1.9-5-5.1-10-10.9-13.4c-9.4-5.6-15.3-1.1-15.1-1.5
						c0.1-0.3,2.5-2.1,5.9-2.2c2.5-0.1,5.7,0.6,9.7,2.8c6.5,3.8,9.7,9.7,11.7,15.1C190.4-346.2,191.1-342.4,191-340.6z"/>
				</g>
				<g id="XMLID_251_">
					<path id="XMLID_252_" class="st4" d="M151-360.7c-0.2,0-0.3-0.1-0.4-0.2c-1.5-2.2-4.6-4.7-8.8-5.7c-4.2-1-8.5,1.5-8.3,1.4
						c0.6-0.5,4.6-3,8.9-2.2c4.5,0.9,7.4,3.6,9,5.9c0.2,0.2,0.1,0.5-0.1,0.7C151.2-360.7,151.1-360.7,151-360.7z"/>
				</g>
				<g id="XMLID_249_">
					<path id="XMLID_250_" class="st4" d="M155.2-367.8c-0.2,0-0.9-1.1-1.2-1.5c-2.1-2.8-5.1-2.9-5.2-2.9c-0.3,0-2.6,0-3.5-0.1
						c-0.3,0,3.4-0.7,5.1-0.3c1.5,0.3,2.4,0.8,3.2,1.7C155-369.6,155.2-367.8,155.2-367.8z"/>
				</g>
				<g id="XMLID_247_">
					<path id="XMLID_248_" class="st4" d="M187.6-291.9c3.4-10.3,3.5-31.5,3.8-31.6c0.3,0,1,20.2-2.5,30.6
						C188.6-292.6,187.9-292.2,187.6-291.9z"/>
				</g>
				<g id="XMLID_245_">
					<path id="XMLID_246_" class="st4" d="M196.1-299.5c1.6-6.8,1.3-16.9,1.4-16.6c0.3,0.6,1.1,9.6-0.3,15.5
						C197.1-300.4,196.4-299.7,196.1-299.5z"/>
				</g>
			</g>
		</g>
	</g>
</g>
<g id="XMLID_216_">
	<g id="XMLID_237_">
		<g id="XMLID_238_">
			<path id="XMLID_240_" class="st6" d="M129.4-186c0,0,0.8-3.6,4.8-5.1s6.6,0.2,8.2,1.4l0.9,3.3c0,0-2.6-3-5.8-3
				S131.8-188.9,129.4-186z"/>
			<path id="XMLID_239_" class="st6" d="M156.8-186.4l1.4-3.2c0,0,9.8-7.8,20.9,3.1C179.1-186.5,166.6-193.3,156.8-186.4z"/>
		</g>
	</g>
	<g id="XMLID_217_">
		<path id="XMLID_236_" class="st6" d="M126.9-198.9l4.1-1.2c0,0,7.2-2.2,20.1,1.8c0,0,12.8-5.9,25.1-0.9l-7.1-8.1l-3.6-0.8
			l-29.9,0.8L126.9-198.9z"/>
		<g id="XMLID_233_">
			<path id="XMLID_235_" class="st6" d="M182.7-153.9c-2.8,2.1-7.4,4.5-11.9,6.6c3.6,0.9,8.6,2.5,13.2,5.4l2.8-16.4
				C185.9-156.9,184.6-155.4,182.7-153.9z"/>
			<path id="XMLID_234_" class="st6" d="M126.5-163.2l-0.8-0.6l-2.2,24.1c0,0,4.6-5.7,17.5-7.9c-2.2-1.4-4.4-3.1-6.2-4.7
				C131.4-155.2,127.7-159.7,126.5-163.2z"/>
		</g>
		<g id="XMLID_218_">
			<path id="XMLID_232_" class="st7" d="M151.6-198.7c0,0,2.7-9.4,14.4-6.3c9.5,2.5,14.7,13.2,16.3,23.9c2.1,13.9,3,30.1-1.6,46.6
				c0,0,13.9-6.2,22.5-21c0,0,0.9-28-8.2-47.2s-24.6-16.5-29.8-15.2c0,0-3.2-4.9-12.9-3.9s-25.8,10.2-29.9,20.8s-0.5,20.5,0.2,33.6
				s0.4,24-2.2,33.5c0,0,6.1-2,7.2-16.6s-0.8-25.9-1.1-29.4c-0.3-3.1,0.1-10.9,2.8-17.3c0.4-0.9,2.5-6.2,8.8-7.6
				c3.2-0.8,7.3,0,11.2,5.2C149.5-199.5,150.6-198.5,151.6-198.7z"/>
			<g id="XMLID_219_">
				<g id="XMLID_230_">
					<path id="XMLID_231_" class="st6" d="M150-206.7c0.5-1.3,1.3-2.7,2.5-4.1c2.4-2.8,5-4.6,7.4-5.7c3.4-1.5,5.3-1.4,5-1.3
						c-3.4,0.9-7.6,3-11.7,7.7c-4.7,5.3-3,9.9-3.3,10C150-200.3,148.8-203.4,150-206.7z"/>
				</g>
				<g id="XMLID_228_">
					<path id="XMLID_229_" class="st6" d="M191-187.3c0,0.8-0.7-3-3.5-10.3c-1.9-5-5.1-10-10.9-13.4c-9.4-5.6-15.3-1.1-15.1-1.5
						c0.1-0.3,2.5-2.1,5.9-2.2c2.5-0.1,5.7,0.6,9.7,2.8c6.5,3.8,9.7,9.7,11.7,15.1C190.4-193,191.1-189.1,191-187.3z"/>
				</g>
				<g id="XMLID_226_">
					<path id="XMLID_227_" class="st6" d="M151-207.4c-0.2,0-0.3-0.1-0.4-0.2c-1.5-2.2-4.6-4.7-8.8-5.7c-4.2-1-8.5,1.5-8.3,1.4
						c0.6-0.5,4.6-3,8.9-2.2c4.5,0.9,7.4,3.6,9,5.9c0.2,0.2,0.1,0.5-0.1,0.7C151.2-207.5,151.1-207.4,151-207.4z"/>
				</g>
				<g id="XMLID_224_">
					<path id="XMLID_225_" class="st6" d="M155.2-214.6c-0.2,0-0.9-1.1-1.2-1.5c-2.1-2.8-5.1-2.9-5.2-2.9c-0.3,0-2.6,0-3.5-0.1
						c-0.3,0,3.4-0.7,5.1-0.3c1.5,0.3,2.4,0.8,3.2,1.7C155-216.3,155.2-214.6,155.2-214.6z"/>
				</g>
				<g id="XMLID_222_">
					<path id="XMLID_223_" class="st6" d="M187.6-138.7c3.4-10.3,3.5-31.5,3.8-31.6c0.3,0,1,20.2-2.5,30.6
						C188.6-139.4,187.9-138.9,187.6-138.7z"/>
				</g>
				<g id="XMLID_220_">
					<path id="XMLID_221_" class="st6" d="M196.1-146.2c1.6-6.8,1.3-16.9,1.4-16.6c0.3,0.6,1.1,9.6-0.3,15.5
						C197.1-147.1,196.4-146.4,196.1-146.2z"/>
				</g>
			</g>
		</g>
	</g>
</g>
<g id="XMLID_191_">
	<g id="XMLID_212_">
		<g id="XMLID_213_">
			<path id="XMLID_215_" class="st8" d="M129.4,120.5c0,0,0.8-3.6,4.8-5.1s6.6,0.2,8.2,1.4l0.9,3.3c0,0-2.6-3-5.8-3
				S131.8,117.6,129.4,120.5z"/>
			<path id="XMLID_214_" class="st8" d="M156.8,120.1l1.4-3.2c0,0,9.8-7.8,20.9,3.1C179.1,120.1,166.6,113.2,156.8,120.1z"/>
		</g>
	</g>
	<g id="XMLID_192_">
		<path id="XMLID_211_" class="st8" d="M126.9,107.6l4.1-1.2c0,0,7.2-2.2,20.1,1.8c0,0,12.8-5.9,25.1-0.9l-7.1-8.1l-3.6-0.8
			l-29.9,0.8L126.9,107.6z"/>
		<g id="XMLID_208_">
			<path id="XMLID_210_" class="st8" d="M182.7,152.6c-2.8,2.1-7.4,4.5-11.9,6.6c3.6,0.9,8.6,2.5,13.2,5.4l2.8-16.4
				C185.9,149.6,184.6,151.1,182.7,152.6z"/>
			<path id="XMLID_209_" class="st8" d="M126.5,143.3l-0.8-0.6l-2.2,24.1c0,0,4.6-5.7,17.5-7.9c-2.2-1.4-4.4-3.1-6.2-4.7
				C131.4,151.3,127.7,146.9,126.5,143.3z"/>
		</g>
		<g id="XMLID_193_">
			<path id="XMLID_207_" class="st9" d="M151.6,107.8c0,0,2.7-9.4,14.4-6.3c9.5,2.5,14.7,13.2,16.3,23.9c2.1,13.9,3,30.1-1.6,46.6
				c0,0,13.9-6.2,22.5-21c0,0,0.9-28-8.2-47.2s-24.6-16.5-29.8-15.2c0,0-3.2-4.9-12.9-3.9s-25.8,10.2-29.9,20.8s-0.5,20.5,0.2,33.6
				s0.4,24-2.2,33.5c0,0,6.1-2,7.2-16.6s-0.8-25.9-1.1-29.4c-0.3-3.1,0.1-10.9,2.8-17.3c0.4-0.9,2.5-6.2,8.8-7.6
				c3.2-0.8,7.3,0,11.2,5.2C149.5,107.1,150.6,108,151.6,107.8z"/>
			<g id="XMLID_194_">
				<g id="XMLID_205_">
					<path id="XMLID_206_" class="st8" d="M150,99.8c0.5-1.3,1.3-2.7,2.5-4.1c2.4-2.8,5-4.6,7.4-5.7c3.4-1.5,5.3-1.4,5-1.3
						c-3.4,0.9-7.6,3-11.7,7.7c-4.7,5.3-3,9.9-3.3,10C150,106.3,148.8,103.1,150,99.8z"/>
				</g>
				<g id="XMLID_203_">
					<path id="XMLID_204_" class="st8" d="M191,119.2c0,0.8-0.7-3-3.5-10.3c-1.9-5-5.1-10-10.9-13.4c-9.4-5.6-15.3-1.1-15.1-1.5
						c0.1-0.3,2.5-2.1,5.9-2.2c2.5-0.1,5.7,0.6,9.7,2.8c6.5,3.8,9.7,9.7,11.7,15.1C190.4,113.6,191.1,117.4,191,119.2z"/>
				</g>
				<g id="XMLID_201_">
					<path id="XMLID_202_" class="st8" d="M151,99.1c-0.2,0-0.3-0.1-0.4-0.2c-1.5-2.2-4.6-4.7-8.8-5.7c-4.2-1-8.5,1.5-8.3,1.4
						c0.6-0.5,4.6-3,8.9-2.2c4.5,0.9,7.4,3.6,9,5.9c0.2,0.2,0.1,0.5-0.1,0.7C151.2,99.1,151.1,99.1,151,99.1z"/>
				</g>
				<g id="XMLID_199_">
					<path id="XMLID_200_" class="st8" d="M155.2,92c-0.2,0-0.9-1.1-1.2-1.5c-2.1-2.8-5.1-2.9-5.2-2.9c-0.3,0-2.6,0-3.5-0.1
						c-0.3,0,3.4-0.7,5.1-0.3c1.5,0.3,2.4,0.8,3.2,1.7C155,90.2,155.2,92,155.2,92z"/>
				</g>
				<g id="XMLID_197_">
					<path id="XMLID_198_" class="st8" d="M187.6,167.9c3.4-10.3,3.5-31.5,3.8-31.6c0.3,0,1,20.2-2.5,30.6
						C188.6,167.2,187.9,167.6,187.6,167.9z"/>
				</g>
				<g id="XMLID_195_">
					<path id="XMLID_196_" class="st8" d="M196.1,160.3c1.6-6.8,1.3-16.9,1.4-16.6c0.3,0.6,1.1,9.6-0.3,15.5
						C197.1,159.4,196.4,160.1,196.1,160.3z"/>
				</g>
			</g>
		</g>
	</g>
</g>
<g id="XMLID_142_">
	<g id="XMLID_164_">
		<g id="XMLID_165_">
			<path id="XMLID_167_" class="st6" d="M2009.7-185.5c0,0,0.8-3.6,4.8-5.1s6.6,0.2,8.2,1.4l0.9,3.3c0,0-2.6-3-5.8-3
				S2012.1-188.4,2009.7-185.5z"/>
			<path id="XMLID_166_" class="st6" d="M2037-185.9l1.4-3.2c0,0,9.8-7.8,20.9,3.1C2059.4-185.9,2046.9-192.8,2037-185.9z"/>
		</g>
	</g>
	<g id="XMLID_160_">
		<path id="XMLID_163_" class="st7" d="M2080.9-148.7c-2.3-9-1.2-16,0.2-26.2c1.3-10.2-0.2-23.7-8-32c-6.5-6.9-11.2-7.5-12.7-7.5
			c-2.6-3-7.5-7.2-14.6-8.7c-11.5-2.4-30.2,2.1-38.4,16s-2.3,25.1-2.3,25.1c2.6-11.3,19.9-12.5,30.9-14.1s12.1-9.2,12.1-9.2
			s0.9,3.6,5.1,7.9s11.4,15.9,12.5,25.9c0.6,5.2-3.7,17.1-4.6,19.3c-3.9,2.5-9.6,5.3-14.6,7.4l0.2,8.9c0,0,8.7,2.6,12.6,4.1
			c3.9,1.5,4.8,3.8,5.6,6.2c0.4,1.2,2.3,7.4,4,13C2085.4-121.1,2083.1-140.3,2080.9-148.7z"/>
		<path id="XMLID_162_" class="st7" d="M2049.7-107c2.6-0.5,5.2-1.1,8-1.8c-2.3-4.8-4.2-8.9-4.2-8.9
			C2051.8-113.9,2050.6-110.3,2049.7-107z"/>
		<path id="XMLID_161_" class="st7" d="M2015-151.7c-3.3-2.9-7-7.2-8.3-10.6c-1.4,10.2-6,18.4-6.6,23.8c-0.6,6,1,18.5,12.5,25.7
			c-0.2-10.4,1.1-14.9,1.9-15.9c0.8-1.2,7.3-4.3,10.5-5.2c3.2-0.9,8.5-2.5,8.5-2.5l0.3-4.7c-2-0.1-3.6-0.9-5.7-1.9
			C2024.7-144.6,2019-148.2,2015-151.7z"/>
	</g>
	<g id="XMLID_149_">
		<g id="XMLID_158_">
			<path id="XMLID_159_" class="st6" d="M2049.4-211.5c-0.2,0.2,1.2-2.1,4.4-3.1c1.1-0.4,2.1-0.5,3.7-0.5c2,0.1,2.6,0.8,2.4,0.8
				C2054.1-215.1,2050.1-212.3,2049.4-211.5z"/>
		</g>
		<g id="XMLID_156_">
			<path id="XMLID_157_" class="st6" d="M2006.7-193.8C2006.7-193.8,2006.7-193.8,2006.7-193.8c-0.3,0,1-9.7,11.8-16.2
				c3.5-2.1,6.1-3.3,8.7-4c5.8-1.7,9.8-1,9.7-0.7c0,0.3-7.6-0.9-18,5.4c-3.9,2.4-6.5,5.1-8.3,7.5
				C2007.3-197.2,2006.9-193.8,2006.7-193.8z"/>
		</g>
		<g id="XMLID_154_">
			<path id="XMLID_155_" class="st6" d="M2069.3-192.1c-1.6-3.8-3.9-8.1-7.1-11.3c-2-2-3.8-3.2-5.2-3.9c-2.6-1.2-5-0.9-4.7-1
				c1-0.3,5-1.8,10.6,4.2c7.8,8.4,9.7,20.5,9.4,20.6C2072.3-183.5,2071.1-188,2069.3-192.1z"/>
		</g>
		<g id="XMLID_152_">
			<path id="XMLID_153_" class="st6" d="M2067.5-129.1c-0.2,0.1,1.2-2,1.9-3.6c1.4-3.2,1.5-7.5,0.9-12.2c-0.8-5.9,0.1-13.3,0.2-13.5
				c0.2-0.8-0.6,4.5,0.5,12.4c0.7,5.2,0.8,9.9-0.6,13C2069.4-131.1,2067.6-129.1,2067.5-129.1z"/>
		</g>
		<g id="XMLID_150_">
			<path id="XMLID_151_" class="st6" d="M2010.2-129c-0.3,0-0.8-12.4,3.8-21.1c1-1.8-1.1,4.6-1.7,6.7
				C2010.1-135.9,2010.5-129,2010.2-129C2010.3-129,2010.3-129,2010.2-129z"/>
		</g>
	</g>
	<path id="XMLID_148_" class="st7" d="M2067.4-157.7c-0.6-4.5,1-4.5-2.6-6.2c-1.8,4.8-6.3,7.9-12.9,12.9c-9.6,7.1-16.6,20-9.9,37.1
		c0,0-0.5-9.9,4.5-14s10.5-2.6,16.2-10.4c3-4,0-10.1,2.5-15.4C2065.3-154.1,2067.5-157.3,2067.4-157.7z"/>
	<g id="XMLID_143_">
		<g id="XMLID_146_">
			<path id="XMLID_147_" class="st6" d="M2047.3-128.5c-0.3,0.1,1-1,3.6-2.2c2-0.9,4.8-2.2,6.7-3.6c2.4-1.8,4.5-3.8,5.3-6.9
				c1-3.7,0.8-4.2,0.8-4.8c0,0,0,0,0,0c0.3,0,0.1,4.5-0.4,6c-1,2.9-2.8,4.8-5.2,6.5c-2,1.5-4.1,2.1-6.1,2.9
				C2049.4-129.7,2047.9-128.9,2047.3-128.5z"/>
		</g>
		<g id="XMLID_144_">
			<path id="XMLID_145_" class="st6" d="M2039.4-124.9c0.4-1.7,1-3.7,2.4-5.7c0.5-0.8,2.2-2.7,2.8-3.2c0.2-0.2-0.7,1-0.9,1.2
				c-4.5,5.7-3.8,11.2-3.8,11.2C2039.9-121,2039.6-122.4,2039.4-124.9z"/>
		</g>
	</g>
</g>
<g id="XMLID_116_">
	<g id="XMLID_138_">
		<g id="XMLID_139_">
			<path id="XMLID_141_" class="st3" d="M2009.7-344.8c0,0,0.8-3.6,4.8-5.1s6.6,0.2,8.2,1.4l0.9,3.3c0,0-2.6-3-5.8-3
				S2012.1-347.7,2009.7-344.8z"/>
			<path id="XMLID_140_" class="st3" d="M2037-345.2l1.4-3.2c0,0,9.8-7.8,20.9,3.1C2059.4-345.3,2046.9-352.1,2037-345.2z"/>
		</g>
	</g>
	<g id="XMLID_134_">
		<path id="XMLID_137_" class="st5" d="M2080.9-308c-2.3-9-1.2-16,0.2-26.2c1.3-10.2-0.2-23.7-8-32c-6.5-6.9-11.2-7.5-12.7-7.5
			c-2.6-3-7.5-7.2-14.6-8.7c-11.5-2.4-30.2,2.1-38.4,16s-2.3,25.1-2.3,25.1c2.6-11.3,19.9-12.5,30.9-14.1s12.1-9.2,12.1-9.2
			s0.9,3.6,5.1,7.9s11.4,15.9,12.5,25.9c0.6,5.2-3.7,17.1-4.6,19.3c-3.9,2.5-9.6,5.3-14.6,7.4l0.2,8.9c0,0,8.7,2.6,12.6,4.1
			c3.9,1.5,4.8,3.8,5.6,6.2c0.4,1.2,2.3,7.4,4,13C2085.4-280.4,2083.1-299.7,2080.9-308z"/>
		<path id="XMLID_136_" class="st5" d="M2049.7-266.4c2.6-0.5,5.2-1.1,8-1.8c-2.3-4.8-4.2-8.9-4.2-8.9
			C2051.8-273.3,2050.6-269.6,2049.7-266.4z"/>
		<path id="XMLID_135_" class="st5" d="M2015-311c-3.3-2.9-7-7.2-8.3-10.6c-1.4,10.2-6,18.4-6.6,23.8c-0.6,6,1,18.5,12.5,25.7
			c-0.2-10.4,1.1-14.9,1.9-15.9c0.8-1.2,7.3-4.3,10.5-5.2c3.2-0.9,8.5-2.5,8.5-2.5l0.3-4.7c-2-0.1-3.6-0.9-5.7-1.9
			C2024.7-304,2019-307.5,2015-311z"/>
	</g>
	<g id="XMLID_123_">
		<g id="XMLID_132_">
			<path id="XMLID_133_" class="st4" d="M2049.4-370.9c-0.2,0.2,1.2-2.1,4.4-3.1c1.1-0.4,2.1-0.5,3.7-0.5c2,0.1,2.6,0.8,2.4,0.8
				C2054.1-374.5,2050.1-371.6,2049.4-370.9z"/>
		</g>
		<g id="XMLID_130_">
			<path id="XMLID_131_" class="st4" d="M2006.7-353.2C2006.7-353.2,2006.7-353.2,2006.7-353.2c-0.3,0,1-9.7,11.8-16.2
				c3.5-2.1,6.1-3.3,8.7-4c5.8-1.7,9.8-1,9.7-0.7c0,0.3-7.6-0.9-18,5.4c-3.9,2.4-6.5,5.1-8.3,7.5
				C2007.3-356.6,2006.9-353.2,2006.7-353.2z"/>
		</g>
		<g id="XMLID_128_">
			<path id="XMLID_129_" class="st4" d="M2069.3-351.5c-1.6-3.8-3.9-8.1-7.1-11.3c-2-2-3.8-3.2-5.2-3.9c-2.6-1.2-5-0.9-4.7-1
				c1-0.3,5-1.8,10.6,4.2c7.8,8.4,9.7,20.5,9.4,20.6C2072.3-342.9,2071.1-347.4,2069.3-351.5z"/>
		</g>
		<g id="XMLID_126_">
			<path id="XMLID_127_" class="st4" d="M2067.5-288.4c-0.2,0.1,1.2-2,1.9-3.6c1.4-3.2,1.5-7.5,0.9-12.2c-0.8-5.9,0.1-13.3,0.2-13.5
				c0.2-0.8-0.6,4.5,0.5,12.4c0.7,5.2,0.8,9.9-0.6,13C2069.4-290.5,2067.6-288.5,2067.5-288.4z"/>
		</g>
		<g id="XMLID_124_">
			<path id="XMLID_125_" class="st4" d="M2010.2-288.3c-0.3,0-0.8-12.4,3.8-21.1c1-1.8-1.1,4.6-1.7,6.7
				C2010.1-295.2,2010.5-288.3,2010.2-288.3C2010.3-288.3,2010.3-288.3,2010.2-288.3z"/>
		</g>
	</g>
	<path id="XMLID_122_" class="st5" d="M2067.4-317.1c-0.6-4.5,1-4.5-2.6-6.2c-1.8,4.8-6.3,7.9-12.9,12.9c-9.6,7.1-16.6,20-9.9,37.1
		c0,0-0.5-9.9,4.5-14s10.5-2.6,16.2-10.4c3-4,0-10.1,2.5-15.4C2065.3-313.5,2067.5-316.6,2067.4-317.1z"/>
	<g id="XMLID_117_">
		<g id="XMLID_120_">
			<path id="XMLID_121_" class="st4" d="M2047.3-287.9c-0.3,0.1,1-1,3.6-2.2c2-0.9,4.8-2.2,6.7-3.6c2.4-1.8,4.5-3.8,5.3-6.9
				c1-3.7,0.8-4.2,0.8-4.8c0,0,0,0,0,0c0.3,0,0.1,4.5-0.4,6c-1,2.9-2.8,4.8-5.2,6.5c-2,1.5-4.1,2.1-6.1,2.9
				C2049.4-289.1,2047.9-288.2,2047.3-287.9z"/>
		</g>
		<g id="XMLID_118_">
			<path id="XMLID_119_" class="st4" d="M2039.4-284.3c0.4-1.7,1-3.7,2.4-5.7c0.5-0.8,2.2-2.7,2.8-3.2c0.2-0.2-0.7,1-0.9,1.2
				c-4.5,5.7-3.8,11.2-3.8,11.2C2039.9-280.3,2039.6-281.7,2039.4-284.3z"/>
		</g>
	</g>
</g>
<g id="XMLID_90_">
	<g id="XMLID_112_">
		<g id="XMLID_113_">
			<path id="XMLID_115_" class="st0" d="M2009.7-495.2c0,0,0.8-3.6,4.8-5.1s6.6,0.2,8.2,1.4l0.9,3.3c0,0-2.6-3-5.8-3
				S2012.1-498,2009.7-495.2z"/>
			<path id="XMLID_114_" class="st0" d="M2037-495.5l1.4-3.2c0,0,9.8-7.8,20.9,3.1C2059.4-495.6,2046.9-502.5,2037-495.5z"/>
		</g>
	</g>
	<g id="XMLID_108_">
		<path id="XMLID_111_" class="st2" d="M2080.9-458.3c-2.3-9-1.2-16,0.2-26.2c1.3-10.2-0.2-23.7-8-32c-6.5-6.9-11.2-7.5-12.7-7.5
			c-2.6-3-7.5-7.2-14.6-8.7c-11.5-2.4-30.2,2.1-38.4,16c-8.1,13.9-2.3,25.1-2.3,25.1c2.6-11.3,19.9-12.5,30.9-14.1
			s12.1-9.2,12.1-9.2s0.9,3.6,5.1,7.9s11.4,15.9,12.5,25.9c0.6,5.2-3.7,17.1-4.6,19.3c-3.9,2.5-9.6,5.3-14.6,7.4l0.2,8.9
			c0,0,8.7,2.6,12.6,4.1c3.9,1.5,4.8,3.8,5.6,6.2c0.4,1.2,2.3,7.4,4,13C2085.4-430.7,2083.1-450,2080.9-458.3z"/>
		<path id="XMLID_110_" class="st2" d="M2049.7-416.7c2.6-0.5,5.2-1.1,8-1.8c-2.3-4.8-4.2-8.9-4.2-8.9
			C2051.8-423.6,2050.6-420,2049.7-416.7z"/>
		<path id="XMLID_109_" class="st2" d="M2015-461.4c-3.3-2.9-7-7.2-8.3-10.6c-1.4,10.2-6,18.4-6.6,23.8c-0.6,6,1,18.5,12.5,25.7
			c-0.2-10.4,1.1-14.9,1.9-15.9c0.8-1.2,7.3-4.3,10.5-5.2c3.2-0.9,8.5-2.5,8.5-2.5l0.3-4.7c-2-0.1-3.6-0.9-5.7-1.9
			C2024.7-454.3,2019-457.9,2015-461.4z"/>
	</g>
	<g id="XMLID_97_">
		<g id="XMLID_106_">
			<path id="XMLID_107_" class="st1" d="M2049.4-521.2c-0.2,0.2,1.2-2.1,4.4-3.1c1.1-0.4,2.1-0.5,3.7-0.5c2,0.1,2.6,0.8,2.4,0.8
				C2054.1-524.8,2050.1-521.9,2049.4-521.2z"/>
		</g>
		<g id="XMLID_104_">
			<path id="XMLID_105_" class="st1" d="M2006.7-503.5C2006.7-503.5,2006.7-503.5,2006.7-503.5c-0.3,0,1-9.7,11.8-16.2
				c3.5-2.1,6.1-3.3,8.7-4c5.8-1.7,9.8-1,9.7-0.7c0,0.3-7.6-0.9-18,5.4c-3.9,2.4-6.5,5.1-8.3,7.5
				C2007.3-506.9,2006.9-503.5,2006.7-503.5z"/>
		</g>
		<g id="XMLID_102_">
			<path id="XMLID_103_" class="st1" d="M2069.3-501.8c-1.6-3.8-3.9-8.1-7.1-11.3c-2-2-3.8-3.2-5.2-3.9c-2.6-1.2-5-0.9-4.7-1
				c1-0.3,5-1.8,10.6,4.2c7.8,8.4,9.7,20.5,9.4,20.6C2072.3-493.2,2071.1-497.7,2069.3-501.8z"/>
		</g>
		<g id="XMLID_100_">
			<path id="XMLID_101_" class="st1" d="M2067.5-438.7c-0.2,0.1,1.2-2,1.9-3.6c1.4-3.2,1.5-7.5,0.9-12.2c-0.8-5.9,0.1-13.3,0.2-13.5
				c0.2-0.8-0.6,4.5,0.5,12.4c0.7,5.2,0.8,9.9-0.6,13C2069.4-440.8,2067.6-438.8,2067.5-438.7z"/>
		</g>
		<g id="XMLID_98_">
			<path id="XMLID_99_" class="st1" d="M2010.2-438.7c-0.3,0-0.8-12.4,3.8-21.1c1-1.8-1.1,4.6-1.7,6.7
				C2010.1-445.6,2010.5-438.7,2010.2-438.7C2010.3-438.7,2010.3-438.7,2010.2-438.7z"/>
		</g>
	</g>
	<path id="XMLID_96_" class="st2" d="M2067.4-467.4c-0.6-4.5,1-4.5-2.6-6.2c-1.8,4.8-6.3,7.9-12.9,12.9c-9.6,7.1-16.6,20-9.9,37.1
		c0,0-0.5-9.9,4.5-14s10.5-2.6,16.2-10.4c3-4,0-10.1,2.5-15.4C2065.3-463.8,2067.5-467,2067.4-467.4z"/>
	<g id="XMLID_91_">
		<g id="XMLID_94_">
			<path id="XMLID_95_" class="st1" d="M2047.3-438.2c-0.3,0.1,1-1,3.6-2.2c2-0.9,4.8-2.2,6.7-3.6c2.4-1.8,4.5-3.8,5.3-6.9
				c1-3.7,0.8-4.2,0.8-4.8c0,0,0,0,0,0c0.3,0,0.1,4.5-0.4,6c-1,2.9-2.8,4.8-5.2,6.5c-2,1.5-4.1,2.1-6.1,2.9
				C2049.4-439.4,2047.9-438.5,2047.3-438.2z"/>
		</g>
		<g id="XMLID_92_">
			<path id="XMLID_93_" class="st1" d="M2039.4-434.6c0.4-1.7,1-3.7,2.4-5.7c0.5-0.8,2.2-2.7,2.8-3.2c0.2-0.2-0.7,1-0.9,1.2
				c-4.5,5.7-3.8,11.2-3.8,11.2C2039.9-430.7,2039.6-432,2039.4-434.6z"/>
		</g>
	</g>
</g>
<g id="XMLID_60_">
	<g id="XMLID_85_">
		<g id="XMLID_86_">
			<path id="XMLID_89_" class="st8" d="M2009.7-30.2c0,0,0.8-3.6,4.8-5.1s6.6,0.2,8.2,1.4l0.9,3.3c0,0-2.6-3-5.8-3
				S2012.1-33,2009.7-30.2z"/>
			<path id="XMLID_87_" class="st8" d="M2037-30.5l1.4-3.2c0,0,9.8-7.8,20.9,3.1C2059.4-30.6,2046.9-37.5,2037-30.5z"/>
		</g>
	</g>
	<g id="XMLID_81_">
		<path id="XMLID_84_" class="st9" d="M2080.9,6.7c-2.3-9-1.2-16,0.2-26.2c1.3-10.2-0.2-23.7-8-32c-6.5-6.9-11.2-7.5-12.7-7.5
			c-2.6-3-7.5-7.2-14.6-8.7c-11.5-2.4-30.2,2.1-38.4,16s-2.3,25.1-2.3,25.1c2.6-11.3,19.9-12.5,30.9-14.1s12.1-9.2,12.1-9.2
			s0.9,3.6,5.1,7.9s11.4,15.9,12.5,25.9c0.6,5.2-3.7,17.1-4.6,19.3c-3.9,2.5-9.6,5.3-14.6,7.4l0.2,8.9c0,0,8.7,2.6,12.6,4.1
			c3.9,1.5,4.8,3.8,5.6,6.2c0.4,1.2,2.3,7.4,4,13C2085.4,34.3,2083.1,15,2080.9,6.7z"/>
		<path id="XMLID_83_" class="st9" d="M2049.7,48.3c2.6-0.5,5.2-1.1,8-1.8c-2.3-4.8-4.2-8.9-4.2-8.9
			C2051.8,41.4,2050.6,45,2049.7,48.3z"/>
		<path id="XMLID_82_" class="st9" d="M2015,3.6c-3.3-2.9-7-7.2-8.3-10.6c-1.4,10.2-6,18.4-6.6,23.8c-0.6,6,1,18.5,12.5,25.7
			c-0.2-10.4,1.1-14.9,1.9-15.9c0.8-1.2,7.3-4.3,10.5-5.2c3.2-0.9,8.5-2.5,8.5-2.5l0.3-4.7c-2-0.1-3.6-0.9-5.7-1.9
			C2024.7,10.7,2019,7.1,2015,3.6z"/>
	</g>
	<g id="XMLID_70_">
		<g id="XMLID_79_">
			<path id="XMLID_80_" class="st8" d="M2049.4-56.2c-0.2,0.2,1.2-2.1,4.4-3.1c1.1-0.4,2.1-0.5,3.7-0.5c2,0.1,2.6,0.8,2.4,0.8
				C2054.1-59.8,2050.1-56.9,2049.4-56.2z"/>
		</g>
		<g id="XMLID_77_">
			<path id="XMLID_78_" class="st8" d="M2006.7-38.5C2006.7-38.5,2006.7-38.5,2006.7-38.5c-0.3,0,1-9.7,11.8-16.2
				c3.5-2.1,6.1-3.3,8.7-4c5.8-1.7,9.8-1,9.7-0.7c0,0.3-7.6-0.9-18,5.4c-3.9,2.4-6.5,5.1-8.3,7.5
				C2007.3-41.9,2006.9-38.5,2006.7-38.5z"/>
		</g>
		<g id="XMLID_75_">
			<path id="XMLID_76_" class="st8" d="M2069.3-36.8c-1.6-3.8-3.9-8.1-7.1-11.3c-2-2-3.8-3.2-5.2-3.9c-2.6-1.2-5-0.9-4.7-1
				c1-0.3,5-1.8,10.6,4.2c7.8,8.4,9.7,20.5,9.4,20.6C2072.3-28.2,2071.1-32.7,2069.3-36.8z"/>
		</g>
		<g id="XMLID_73_">
			<path id="XMLID_74_" class="st8" d="M2067.5,26.3c-0.2,0.1,1.2-2,1.9-3.6c1.4-3.2,1.5-7.5,0.9-12.2c-0.8-5.9,0.1-13.3,0.2-13.5
				c0.2-0.8-0.6,4.5,0.5,12.4c0.7,5.2,0.8,9.9-0.6,13C2069.4,24.2,2067.6,26.2,2067.5,26.3z"/>
		</g>
		<g id="XMLID_71_">
			<path id="XMLID_72_" class="st8" d="M2010.2,26.3c-0.3,0-0.8-12.4,3.8-21.1c1-1.8-1.1,4.6-1.7,6.7
				C2010.1,19.4,2010.5,26.3,2010.2,26.3C2010.3,26.3,2010.3,26.3,2010.2,26.3z"/>
		</g>
	</g>
	<path id="XMLID_69_" class="st9" d="M2070.4-4.5c-0.6-4.5-2-2.4-5.6-4.1c-1.8,4.8-6.3,7.9-12.9,12.9c-9.6,7.1-16.6,20-9.9,37.1
		c0,0-0.5-9.9,4.5-14s10.5-2.6,16.2-10.4c3-4,1.7-11.1,4.2-16.5C2066.9,0.1,2070.5-4.1,2070.4-4.5z"/>
	<g id="XMLID_61_">
		<g id="XMLID_67_">
			<path id="XMLID_68_" class="st8" d="M2047.3,26.8c-0.3,0.1,1-1,3.6-2.2c2-0.9,4.8-2.2,6.7-3.6c2.4-1.8,4.5-3.8,5.3-6.9
				c1-3.7,0.8-4.2,0.8-4.8c0,0,0,0,0,0c0.3,0,0.1,4.5-0.4,6c-1,2.9-2.8,4.8-5.2,6.5c-2,1.5-4.1,2.1-6.1,2.9
				C2049.4,25.6,2047.9,26.5,2047.3,26.8z"/>
		</g>
		<g id="XMLID_62_">
			<path id="XMLID_66_" class="st8" d="M2039.4,30.4c0.4-1.7,1-3.7,2.4-5.7c0.5-0.8,2.2-2.7,2.8-3.2c0.2-0.2-0.7,1-0.9,1.2
				c-4.5,5.7-3.8,11.2-3.8,11.2C2039.9,34.3,2039.6,33,2039.4,30.4z"/>
		</g>
	</g>
</g>
<g id="XMLID_1_">
	<g id="XMLID_42_">
		<g id="XMLID_43_">
			<path id="XMLID_57_" d="M2008.3,120.5c0,0,0.8-3.6,4.8-5.1s6.6,0.2,8.2,1.4l0.9,3.3c0,0-2.6-3-5.8-3S2010.7,117.6,2008.3,120.5z"
				/>
			<path id="XMLID_56_" d="M2035.7,120.1l1.4-3.2c0,0,9.8-7.8,20.9,3.1C2058,120.1,2045.6,113.2,2035.7,120.1z"/>
		</g>
	</g>
	<g id="XMLID_38_">
		<path id="XMLID_41_" class="st10" d="M2079.6,157.3c-2.3-9-1.2-16,0.2-26.2c1.3-10.2-0.2-23.7-8-32c-6.5-6.9-11.2-7.5-12.7-7.5
			c-2.6-3-7.5-7.2-14.6-8.7c-11.5-2.4-30.2,2.1-38.4,16s-2.3,25.1-2.3,25.1c2.6-11.3,19.9-12.5,30.9-14.1s12.1-9.2,12.1-9.2
			s0.9,3.6,5.1,7.9s11.4,15.9,12.5,25.9c0.6,5.2-3.7,17.1-4.6,19.3c-3.9,2.5-9.6,5.3-14.6,7.4l0.2,8.9c0,0,8.7,2.6,12.6,4.1
			c3.9,1.5,4.8,3.8,5.6,6.2c0.4,1.2,2.3,7.4,4,13C2084,184.9,2081.7,165.6,2079.6,157.3z"/>
		<path id="XMLID_40_" class="st10" d="M2048.4,198.9c2.6-0.5,5.2-1.1,8-1.8c-2.3-4.8-4.2-8.9-4.2-8.9
			C2050.4,192,2049.2,195.7,2048.4,198.9z"/>
		<path id="XMLID_39_" class="st10" d="M2013.6,154.3c-3.3-2.9-7-7.2-8.3-10.6c-1.4,10.2-6,18.4-6.6,23.8c-0.6,6,1,18.5,12.5,25.7
			c-0.2-10.4,1.1-14.9,1.9-15.9c0.8-1.2,7.3-4.3,10.5-5.2c3.2-0.9,8.5-2.5,8.5-2.5l0.3-4.7c-2-0.1-3.6-0.9-5.7-1.9
			C2023.4,161.4,2017.6,157.8,2013.6,154.3z"/>
	</g>
	<g id="XMLID_26_">
		<g id="XMLID_36_">
			<path id="XMLID_37_" d="M2048,94.5c-0.2,0.2,1.2-2.1,4.4-3.1c1.1-0.4,2.1-0.5,3.7-0.5c2,0.1,2.6,0.8,2.4,0.8
				C2052.7,90.9,2048.8,93.7,2048,94.5z"/>
		</g>
		<g id="XMLID_34_">
			<path id="XMLID_35_" d="M2005.4,112.1C2005.4,112.1,2005.3,112.1,2005.4,112.1c-0.3,0,1-9.7,11.8-16.2c3.5-2.1,6.1-3.3,8.7-4
				c5.8-1.7,9.8-1,9.7-0.7c0,0.3-7.6-0.9-18,5.4c-3.9,2.4-6.5,5.1-8.3,7.5C2006,108.7,2005.6,112.1,2005.4,112.1z"/>
		</g>
		<g id="XMLID_32_">
			<path id="XMLID_33_" d="M2067.9,113.8c-1.6-3.8-3.9-8.1-7.1-11.3c-2-2-3.8-3.2-5.2-3.9c-2.6-1.2-5-0.9-4.7-1
				c1-0.3,5-1.8,10.6,4.2c7.8,8.4,9.7,20.5,9.4,20.6C2070.9,122.4,2069.7,118,2067.9,113.8z"/>
		</g>
		<g id="XMLID_30_">
			<path id="XMLID_31_" d="M2066.1,176.9c-0.2,0.1,1.2-2,1.9-3.6c1.4-3.2,1.5-7.5,0.9-12.2c-0.8-5.9,0.1-13.3,0.2-13.5
				c0.2-0.8-0.6,4.5,0.5,12.4c0.7,5.2,0.8,9.9-0.6,13C2068,174.9,2066.2,176.8,2066.1,176.9z"/>
		</g>
		<g id="XMLID_28_">
			<path id="XMLID_29_" d="M2008.9,177c-0.3,0-0.8-12.4,3.8-21.1c1-1.8-1.1,4.6-1.7,6.7C2008.7,170.1,2009.1,177,2008.9,177
				C2008.9,177,2008.9,177,2008.9,177z"/>
		</g>
	</g>
	<path id="XMLID_24_" class="st10" d="M2063.8,150.5c-0.6-4.5,3.2-6.8-0.3-8.5c-1.8,4.8-6.3,7.9-12.9,12.9
		c-9.6,7.1-16.6,20-9.9,37.1c0,0-0.5-9.9,4.5-14s10.5-2.6,16.2-10.4c3-4,0-10.5,2.5-15.9C2063.9,151.4,2063.9,150.9,2063.8,150.5z"
		/>
	<g id="XMLID_2_">
		<g id="XMLID_22_">
			<path id="XMLID_23_" d="M2045.9,177.4c-0.3,0.1,1-1,3.6-2.2c2-0.9,4.8-2.2,6.7-3.6c2.4-1.8,4.5-3.8,5.3-6.9
				c1-3.7,0.8-4.2,0.8-4.8c0,0,0,0,0,0c0.3,0,0.1,4.5-0.4,6c-1,2.9-2.8,4.8-5.2,6.5c-2,1.5-4.1,2.1-6.1,2.9
				C2048.1,176.2,2046.6,177.1,2045.9,177.4z"/>
		</g>
		<g id="XMLID_20_">
			<path id="XMLID_21_" d="M2038,181c0.4-1.7,1-3.7,2.4-5.7c0.5-0.8,2.2-2.7,2.8-3.2c0.2-0.2-0.7,1-0.9,1.2
				c-4.5,5.7-3.8,11.2-3.8,11.2C2038.6,185,2038.3,183.6,2038,181z"/>
		</g>
	</g>
</g>
</svg>
