<?xml version="1.0" encoding="utf-8"?>
<!-- Generator: Adobe Illustrator 19.0.0, SVG Export Plug-In . SVG Version: 6.00 Build 0)  -->
<svg version="1.1" id="Camada_1" xmlns="http://www.w3.org/2000/svg" xmlns:xlink="http://www.w3.org/1999/xlink" x="0px" y="0px"
	 viewBox="0 0 297.6 425.2" style="enable-background:new 0 0 297.6 425.2;" xml:space="preserve">
<style type="text/css">
	.st0{fill:#302727;}
</style>
<g id="XMLID_776_">
	<g id="XMLID_779_">
		<path id="XMLID_805_" class="st0" d="M189,236.4c0,0,2.1-8.9,2-11.8c-0.1-2.8-2.8-6.3-4.6-8.4s-3.1-3.2-3.8-3.5s-1.9,0.1-1.9,0.1
			s0.5-3.2,0.2-4.6s-9.6-10.6-13.4-13.5c-3.8-2.9-12-7.2-14.5-8.3c0,0,7.2,5.9,8.2,10.5c0,0-2.9-3.9-5.7-5.2
			c-2.8-1.3-9.2-3.9-11.1-4.8c-1.8-0.9-7.2-4.3-8.2-5.3c0,0,0.5,5.2,4.9,9.6c0,0-4.9-1.8-7.7-2.8s-8.4-3.1-12.3-6.4
			c0,0,1.7,8.4,8.3,13.8c0,0-5.8-1.4-10.4-4.2c-4.7-2.8-8.9-8.2-8.9-8.2s-0.1,5.4,3.8,11.2s6.8,8.3,6.8,8.3s-6.4-2-13.1-11.5
			c0,0-0.5,7.4,8.3,16.8c0,0-8.8-6.2-10-8.2c0,0,3.8,9.2,11.2,14c0,0-5.8-1.6-7-2.4c0,0,2.2,3.9,7.1,5.5c0,0-3.2,2.2-3.5,5.2
			c-0.3,2.9,1.4,11,2.7,14.4c0,0,0.4-11.4,5.8-18c1.2,0.2,2.9,0.2,4.5-0.2c0,0,5.8,1.6,11.6,0.8c0,0,8.6,2.3,14.8-0.1
			c0,0-2,2-7.9,4.5c0,0,5.4,0.4,11.4-2.2s8.2-3.9,10.3-4c0,0-3.6,2.7-4.4,5.9c0,0,4.4-4.4,10.1-5.4c0,0-1.3,5.1-0.9,7.1
			c0,0,7.9,6.6,7.2,20.2C179.1,245,181.8,235.8,189,236.4z"/>
		<g id="XMLID_780_">
			<g id="XMLID_803_">
				<path id="XMLID_804_" d="M127.6,208.4c-3.6-2.2-6.1-5.2-6-5.4c0.2-0.1,2.8,2.5,6.3,4.6c1.7,1,6.4,3.2,6.4,3.4
					C134.3,211.3,129.3,209.5,127.6,208.4z"/>
			</g>
			<g id="XMLID_801_">
				<path id="XMLID_802_" d="M144,210.9c-6.8-2.7-9.9-5.8-9.8-5.9c0.1-0.2,4.3,2.8,10,5.2c2.9,1.2,10.3,3,10.3,3.2
					C154.6,213.6,147,212.1,144,210.9z"/>
			</g>
			<g id="XMLID_799_">
				<path id="XMLID_800_" d="M130.1,216.6c-5.7-3-8.1-6.4-8-6.6c0.2-0.1,5,5.9,16.2,8.5c0.2,0,0.4,0.3,0.3,0.5
					C138.6,219.2,132.7,217.9,130.1,216.6z"/>
			</g>
			<g id="XMLID_797_">
				<path id="XMLID_798_" d="M153.5,218.6c0.4-0.3,1.1-0.9,1.9-1.7c0.9-0.9,2-1.9,3.1-2.9c1.3-1,2.1-1.5,3.4-2.1
					c0.8-0.4,2.4-0.7,2.5-0.5c0.1,0.2-1.9,0.6-4.7,2.7c-1.4,1-2.2,1.5-3.3,2.5C155.6,217.6,153.4,218.8,153.5,218.6z"/>
			</g>
			<g id="XMLID_795_">
				<path id="XMLID_796_" d="M176.5,213.8c-0.8,0.1-0.3-0.2-0.1-0.3c0.1,0,3.2-1.1,6-0.9c0.2,0,0.6,0.1,0.6,0.3s-1.6,0.2-2.1,0.3
					C178.7,213.3,176.6,213.7,176.5,213.8z"/>
			</g>
			<g id="XMLID_793_">
				<path id="XMLID_794_" d="M184.9,237.4c0.3-0.2,0.6-0.4,0.9-0.5c0.4-2.3,0.2-4.4-0.2-6.1c-0.7-3.1-2.6-5.4-2.8-5.2
					c-0.2,0.1,1.6,1.7,2.4,6C185.4,233.2,185.3,235.3,184.9,237.4z"/>
			</g>
			<g id="XMLID_791_">
				<path id="XMLID_792_" d="M166,218.2c-0.2,0.1,1.8-2.1,3.8-3c1.4-0.6,4.2-0.8,4-0.7c-0.4,0.2-2.5,0.7-3.4,1.1
					C167.6,216.7,166.1,218.1,166,218.2z"/>
			</g>
			<g id="XMLID_789_">
				<path id="XMLID_790_" d="M116.3,212.9c0.1-0.1,3.5,2.3,6.5,3.5c2.6,1.1,4.2,1.7,4.1,1.7c-1.5,0-2.3,0-5.8-1.9
					C119.8,215.5,116.2,213,116.3,212.9z"/>
			</g>
			<g id="XMLID_787_">
				<path id="XMLID_788_" d="M122.4,218.2C122.3,218.2,122.3,218.2,122.4,218.2c-0.4,0.2-1.9,0-2.6-0.2c-2-0.6-2.2-1.2-2.2-1.2
					c-0.2-0.1,1,0.5,2.4,0.8C120.5,217.8,122.5,218.2,122.4,218.2z"/>
			</g>
			<path id="XMLID_781_" d="M126.9,218.4"/>
		</g>
	</g>
	<path id="XMLID_778_" d="M121.1,231.7c0,0,0.8-3.6,4.8-5.1s6.6-0.1,8.2,1.1l0.9,3.6c0,0-2.6-3-5.8-3S123.5,228.8,121.1,231.7z"/>
	<path id="XMLID_777_" d="M148.5,231.3l1.8-4.2c0,0,9.4-6.8,20.6,4.2C170.8,231.3,158.3,224.4,148.5,231.3z"/>
</g>
</svg>
