<?xml version="1.0" encoding="utf-8"?>
<!-- Generator: Adobe Illustrator 19.0.0, SVG Export Plug-In . SVG Version: 6.00 Build 0)  -->
<svg version="1.1" id="Camada_1" xmlns="http://www.w3.org/2000/svg" xmlns:xlink="http://www.w3.org/1999/xlink" x="0px" y="0px"
	 viewBox="0 0 297.6 425.2" style="enable-background:new 0 0 297.6 425.2;" xml:space="preserve">
<style type="text/css">
	.st0{fill:#885632;}
	.st1{fill:#CC814D;}
	.st2{fill:#A96537;}
</style>
<g id="XMLID_2263_">
	<g id="XMLID_2356_">
		<g id="XMLID_2357_">
			<path id="XMLID_2359_" class="st0" d="M116.1,193.5c0,0,0.8-3.6,4.8-5.1s6.6,0.2,8.2,1.4l0.9,3.3c0,0-2.6-3-5.8-3
				S118.6,190.7,116.1,193.5z"/>
			<path id="XMLID_2358_" class="st0" d="M143.5,193.2l1.4-3.2c0,0,9.8-7.8,20.9,3.1C165.8,193.1,153.4,186.2,143.5,193.2z"/>
		</g>
	</g>
	<g id="XMLID_2352_">
		<path id="XMLID_2355_" class="st1" d="M187.4,230.4c-2.3-9-1.2-16,0.2-26.2c1.3-10.2-0.2-23.7-8-32c-6.5-6.9-11.2-7.5-12.7-7.5
			c-2.6-3-7.5-7.2-14.6-8.7c-11.5-2.4-30.2,2.1-38.4,16s-2.3,25.1-2.3,25.1c2.6-11.3,19.9-12.5,30.9-14.1s12.1-9.2,12.1-9.2
			s0.9,3.6,5.1,7.9s11.4,15.9,12.5,25.9c0.6,5.2-3.7,17.1-4.6,19.3c-3.9,2.5-9.6,5.3-14.6,7.4l0.2,8.9c0,0,8.7,2.6,12.6,4.1
			c3.9,1.5,4.8,3.8,5.6,6.2c0.4,1.2,2.3,7.4,4,13C191.8,257.9,189.5,238.7,187.4,230.4z"/>
		<path id="XMLID_2354_" class="st1" d="M156.2,272c2.6-0.5,5.2-1.1,8-1.8c-2.3-4.8-4.2-8.9-4.2-8.9
			C158.3,265.1,157,268.7,156.2,272z"/>
		<path id="XMLID_2353_" class="st1" d="M121.4,227.3c-3.3-2.9-7-7.2-8.3-10.6c-1.4,10.2-6,18.4-6.6,23.8c-0.6,6,1,18.5,12.5,25.7
			c-0.2-10.4,1.1-14.9,1.9-15.9c0.8-1.2,7.3-4.3,10.5-5.2c3.2-0.9,8.5-2.5,8.5-2.5l0.3-4.7c-2-0.1-3.6-0.9-5.7-1.9
			C131.2,234.4,125.4,230.8,121.4,227.3z"/>
	</g>
	<g id="XMLID_2337_">
		<g id="XMLID_2350_">
			<path id="XMLID_2351_" class="st2" d="M155.9,167.5c-0.2,0.2,1.2-2.1,4.4-3.1c1.1-0.4,2.1-0.5,3.7-0.5c2,0.1,2.6,0.8,2.4,0.8
				C160.5,163.9,156.6,166.8,155.9,167.5z"/>
		</g>
		<g id="XMLID_2348_">
			<path id="XMLID_2349_" class="st2" d="M113.2,185.2C113.2,185.2,113.1,185.2,113.2,185.2c-0.3,0,1-9.7,11.8-16.2
				c3.5-2.1,6.1-3.3,8.7-4c5.8-1.7,9.8-1,9.7-0.7c0,0.3-7.6-0.9-18,5.4c-3.9,2.4-6.5,5.1-8.3,7.5
				C113.8,181.8,113.4,185.2,113.2,185.2z"/>
		</g>
		<g id="XMLID_2346_">
			<path id="XMLID_2347_" class="st2" d="M175.7,186.9c-1.6-3.8-3.9-8.1-7.1-11.3c-2-2-3.8-3.2-5.2-3.9c-2.6-1.2-5-0.9-4.7-1
				c1-0.3,5-1.8,10.6,4.2c7.8,8.4,9.7,20.5,9.4,20.6C178.7,195.5,177.5,191,175.7,186.9z"/>
		</g>
		<g id="XMLID_2344_">
			<path id="XMLID_2345_" class="st2" d="M173.9,249.9c-0.2,0.1,1.2-2,1.9-3.6c1.4-3.2,1.5-7.5,0.9-12.2c-0.8-5.9,0.1-13.3,0.2-13.5
				c0.2-0.8-0.6,4.5,0.5,12.4c0.7,5.2,0.8,9.9-0.6,13C175.8,247.9,174,249.9,173.9,249.9z"/>
		</g>
		<g id="XMLID_2338_">
			<path id="XMLID_2339_" class="st2" d="M116.7,250c-0.3,0-0.8-12.4,3.8-21.1c1-1.8-1.1,4.6-1.7,6.7
				C116.5,243.1,116.9,250,116.7,250C116.7,250,116.7,250,116.7,250z"/>
		</g>
	</g>
	<path id="XMLID_2336_" class="st1" d="M173.9,221.3c-0.6-4.5,1-4.5-2.6-6.2c-1.8,4.8-6.3,7.9-12.9,12.9c-9.6,7.1-16.6,20-9.9,37.1
		c0,0-0.5-9.9,4.5-14s10.5-2.6,16.2-10.4c3-4,0-10.1,2.5-15.4C171.7,224.9,173.9,221.7,173.9,221.3z"/>
	<g id="XMLID_2331_">
		<g id="XMLID_2334_">
			<path id="XMLID_2335_" class="st2" d="M153.7,250.5c-0.3,0.1,1-1,3.6-2.2c2-0.9,4.8-2.2,6.7-3.6c2.4-1.8,4.5-3.8,5.3-6.9
				c1-3.7,0.8-4.2,0.8-4.8c0,0,0,0,0,0c0.3,0,0.1,4.5-0.4,6c-1,2.9-2.8,4.8-5.2,6.5c-2,1.5-4.1,2.1-6.1,2.9
				C155.9,249.3,154.4,250.2,153.7,250.5z"/>
		</g>
		<g id="XMLID_2332_">
			<path id="XMLID_2333_" class="st2" d="M145.9,254.1c0.4-1.7,1-3.7,2.4-5.7c0.5-0.8,2.2-2.7,2.8-3.2c0.2-0.2-0.7,1-0.9,1.2
				c-4.5,5.7-3.8,11.2-3.8,11.2C146.4,258,146.1,256.6,145.9,254.1z"/>
		</g>
	</g>
</g>
</svg>
