<?xml version="1.0" encoding="utf-8"?>
<!-- Generator: Adobe Illustrator 19.0.0, SVG Export Plug-In . SVG Version: 6.00 Build 0)  -->
<svg version="1.1" id="Camada_1" xmlns="http://www.w3.org/2000/svg" xmlns:xlink="http://www.w3.org/1999/xlink" x="0px" y="0px"
	 viewBox="0 0 297.6 425.2" style="enable-background:new 0 0 297.6 425.2;" xml:space="preserve">
<style type="text/css">
	.st0{fill:#593422;}
	.st1{fill:#43200F;}
</style>
<g id="XMLID_516_">
	<path id="XMLID_519_" class="st0" d="M171.9,234.4c2.4-15.4-5.9-26.4-7.2-28.4c-7.1,1.8-33.5,4.5-49.5,1.2
		c5.6-8.2,17.1-15.2,32.1-15.3s36,13.9,33.9,33.8C181.1,225.6,175.5,225.1,171.9,234.4z"/>
	<g id="XMLID_517_">
		<path id="XMLID_518_" class="st1" d="M113.9,221.4c0,0,0.8-3.6,4.8-5.1s6.6-0.1,8.2,1.1l0.9,3.6c0,0-2.6-3-5.8-3
			S116.4,218.6,113.9,221.4z"/>
		<path id="XMLID_520_" class="st1" d="M141.3,221.1l1.8-4.2c0,0,9.4-6.8,20.6,4.2C163.6,221,151.2,214.1,141.3,221.1z"/>
	</g>
</g>
</svg>
