<?xml version="1.0" encoding="utf-8"?>
<!-- Generator: Adobe Illustrator 19.0.0, SVG Export Plug-In . SVG Version: 6.00 Build 0)  -->
<svg version="1.1" id="Camada_1" xmlns="http://www.w3.org/2000/svg" xmlns:xlink="http://www.w3.org/1999/xlink" x="0px" y="0px"
	 viewBox="0 0 297.6 425.2" style="enable-background:new 0 0 297.6 425.2;" xml:space="preserve">
<style type="text/css">
	.st0{fill:#E5C388;}
	.st1{fill:#846C4C;}
</style>
<g id="XMLID_348_">
	<path id="XMLID_344_" class="st0" d="M175.3,240.9c0,0,1.6-5.2,5.2-7.7c4.2-2.9,6.8,0.8,7.1,1.8c0,0,3.5-2.8,0.5-6.4
		c0,0,1.6-1.2,1.8-2.8c0.2-1.6-0.8-2.6-1.4-3.1c0,0,1.2-0.9,1-3s-1.8-2.5-1.8-2.5s1.5-1.3,1-3c-0.5-1.7-1.6-2.2-2.3-2.6
		c0,0,1.5-1.2,0.6-3.6s-2-3-3.5-2.8c0,0,0.4-2.5-1-4c-1.4-1.5-4-0.7-4-0.7s1.2-1.5,0-3.1c-1.3-1.6-4.1-1.5-4.1-1.5s0-2.5-2.2-3.8
		s-4.2,0-4.2,0s-0.8-3.3-4-4s-5.1,1.5-5.1,1.5s-1.7-3-4.8-3.1c-3.1-0.1-4.9,2-4.9,2s-2.4-2.8-5.7-1.9c-3.3,0.8-4.1,3.5-4.1,3.5
		s-2.5-2-6.1-0.7c-3.6,1.3-3.2,4.4-3.2,4.4s-2.2-2-5-0.5c-2.9,1.5-3.1,4-3.1,4s-3.4-1.5-5,0.8c-1.7,2.2-1.1,5.2-1.1,5.2
		s-2.4-0.2-3.5,2.3s-0.4,5.5-0.4,5.5s-3.3,1-3.6,4.3s1.1,5,1.1,5s-2.4,2-0.1,5.1c0,0-1,0.3,0,2.4c0,0-2.4,2.8,1.1,5.6
		c0,0-1.6,3.5,2.5,4.6c0,0-1.4-15,5.4-23.7l0.8-0.4c0,0-0.6,1.8,1.9,2.2c2.5,0.4,4.3-1.2,4.3-1.2s0.5,1.5,2.3,2
		c1.9,0.4,3.3-0.9,3.3-0.9s1,1.5,2.8,1.3c1.7-0.2,2.4-1.4,2.5-1.8c0,0,1.2,2.2,3.8,2.3c2.6,0.1,3.4-2.8,3.4-2.8s1.1,2,3.2,1.9
		c2.2,0,2.5-2,2.5-2s1.2,1.6,2.8,1.6s2.5-1.7,2.5-1.7s0.6,1.5,2,1.4s2.1-1.9,2.1-1.9s0.9,1.7,2.3,1.6c1.5-0.1,2.8-2.5,2.8-2.5
		s-0.2,1.9,1.6,2.9c1.8,1,3.9-0.4,3.9-0.4s-1.8,2.3-0.4,4.4c1.4,2.1,3.4,1.4,3.4,1.4s-2.5,2.6,1.5,4.8c0,0-1.2,1.6-0.9,3.6
		c0.3,2,1.9,2.4,1.9,2.4s-1.3,0.9-1.1,2.3s1.1,1.8,1.1,1.8S173.2,238.7,175.3,240.9z"/>
	<g id="XMLID_686_">
		<path id="XMLID_690_" class="st1" d="M117.4,227.9c0,0,0.8-3.6,4.8-5.1s6.6-0.1,8.2,1.1l0.9,3.6c0,0-2.6-3-5.8-3
			S119.9,225,117.4,227.9z"/>
		<path id="XMLID_689_" class="st1" d="M144.8,227.5l1.8-4.2c0,0,9.4-6.8,20.6,4.2C167.1,227.5,154.7,220.6,144.8,227.5z"/>
	</g>
</g>
</svg>
