<?xml version="1.0" encoding="utf-8"?>
<!-- Generator: Adobe Illustrator 19.0.0, SVG Export Plug-In . SVG Version: 6.00 Build 0)  -->
<svg version="1.1" id="Camada_1" xmlns="http://www.w3.org/2000/svg" xmlns:xlink="http://www.w3.org/1999/xlink" x="0px" y="0px"
	 viewBox="0 0 297.6 425.2" style="enable-background:new 0 0 297.6 425.2;" xml:space="preserve">
<style type="text/css">
	.st0{fill:#E5C388;}
	.st1{fill:#846C4C;}
</style>
<g id="XMLID_961_">
	<path id="XMLID_964_" class="st0" d="M171.9,233.9c2.4-15.4-5.9-26.4-7.2-28.4c-7.1,1.8-33.5,4.5-49.5,1.2
		c5.6-8.2,17.1-15.2,32.1-15.3s36,13.9,33.9,33.8C181.1,225.1,175.5,224.6,171.9,233.9z"/>
	<g id="XMLID_962_">
		<path id="XMLID_963_" class="st1" d="M113.9,220.9c0,0,0.8-3.6,4.8-5.1s6.6-0.1,8.2,1.1l0.9,3.6c0,0-2.6-3-5.8-3
			S116.4,218.1,113.9,220.9z"/>
		<path id="XMLID_1797_" class="st1" d="M141.3,220.6l1.8-4.2c0,0,9.4-6.8,20.6,4.2C163.6,220.5,151.2,213.6,141.3,220.6z"/>
	</g>
</g>
</svg>
