<?xml version="1.0" encoding="utf-8"?>
<!-- Generator: Adobe Illustrator 19.0.0, SVG Export Plug-In . SVG Version: 6.00 Build 0)  -->
<svg version="1.1" id="Camada_1" xmlns="http://www.w3.org/2000/svg" xmlns:xlink="http://www.w3.org/1999/xlink" x="0px" y="0px"
	 viewBox="0 0 297.6 425.2" style="enable-background:new 0 0 297.6 425.2;" xml:space="preserve">
<style type="text/css">
	.st0{fill:#714F38;}
	.st1{fill:#8C674E;}
</style>
<g id="XMLID_2202_">
	<g id="XMLID_2227_">
		<g id="XMLID_2228_">
			<path id="XMLID_2230_" class="st0" d="M116.8,205.3c0,0,0.8-3.6,4.8-5.1s6.6,0.2,8.2,1.4l0.9,3.3c0,0-2.6-3-5.8-3
				S119.2,202.4,116.8,205.3z"/>
			<path id="XMLID_2229_" class="st0" d="M144.2,204.9l1.4-3.2c0,0,9.8-7.8,20.9,3.1C166.5,204.9,154,198,144.2,204.9z"/>
		</g>
	</g>
	<g id="XMLID_2203_">
		<path id="XMLID_2226_" class="st0" d="M114.3,192.4l4.1-1.2c0,0,7.2-2.2,20.1,1.8c0,0,12.8-5.9,25.1-0.9l-7.1-8.1l-3.6-0.8
			l-29.9,0.8L114.3,192.4z"/>
		<g id="XMLID_2223_">
			<path id="XMLID_2225_" class="st0" d="M170.1,237.4c-2.8,2.1-7.4,4.5-11.9,6.6c3.6,0.9,8.6,2.5,13.2,5.4l2.8-16.4
				C173.3,234.4,172,235.9,170.1,237.4z"/>
			<path id="XMLID_2224_" class="st0" d="M113.8,228.2l-0.8-0.6l-2.2,24.1c0,0,4.6-5.7,17.5-7.9c-2.2-1.4-4.4-3.1-6.2-4.7
				C118.8,236.1,115,231.7,113.8,228.2z"/>
		</g>
		<g id="XMLID_2204_">
			<path id="XMLID_2222_" class="st1" d="M139,192.6c0,0,2.7-9.4,14.4-6.3c9.5,2.5,14.7,13.2,16.3,23.9c2.1,13.9,3,30.1-1.6,46.6
				c0,0,13.9-6.2,22.5-21c0,0,0.9-28-8.2-47.2s-24.6-16.5-29.8-15.2c0,0-3.2-4.9-12.9-3.9s-25.8,10.2-29.9,20.8s-0.5,20.5,0.2,33.6
				s0.4,24-2.2,33.5c0,0,6.1-2,7.2-16.6s-0.8-25.9-1.1-29.4c-0.3-3.1,0.1-10.9,2.8-17.3c0.4-0.9,2.5-6.2,8.8-7.6
				c3.2-0.8,7.3,0,11.2,5.2C136.8,191.9,138,192.8,139,192.6z"/>
			<g id="XMLID_2205_">
				<g id="XMLID_2220_">
					<path id="XMLID_2221_" class="st0" d="M137.4,184.6c0.5-1.3,1.3-2.7,2.5-4.1c2.4-2.8,5-4.6,7.4-5.7c3.4-1.5,5.3-1.4,5-1.3
						c-3.4,0.9-7.6,3-11.7,7.7c-4.7,5.3-3,9.9-3.3,10C137.4,191.1,136.2,187.9,137.4,184.6z"/>
				</g>
				<g id="XMLID_2214_">
					<path id="XMLID_2219_" class="st0" d="M178.4,204c0,0.8-0.7-3-3.5-10.3c-1.9-5-5.1-10-10.9-13.4c-9.4-5.6-15.3-1.1-15.1-1.5
						c0.1-0.3,2.5-2.1,5.9-2.2c2.5-0.1,5.7,0.6,9.7,2.8c6.5,3.8,9.7,9.7,11.7,15.1C177.8,198.4,178.5,202.2,178.4,204z"/>
				</g>
				<g id="XMLID_2212_">
					<path id="XMLID_2213_" class="st0" d="M138.4,183.9c-0.2,0-0.3-0.1-0.4-0.2c-1.5-2.2-4.6-4.7-8.8-5.7c-4.2-1-8.5,1.5-8.3,1.4
						c0.6-0.5,4.6-3,8.9-2.2c4.5,0.9,7.4,3.6,9,5.9c0.2,0.2,0.1,0.5-0.1,0.7C138.6,183.9,138.5,183.9,138.4,183.9z"/>
				</g>
				<g id="XMLID_2210_">
					<path id="XMLID_2211_" class="st0" d="M142.6,176.8c-0.2,0-0.9-1.1-1.2-1.5c-2.1-2.8-5.1-2.9-5.2-2.9c-0.3,0-2.6,0-3.5-0.1
						c-0.3,0,3.4-0.7,5.1-0.3c1.5,0.3,2.4,0.8,3.2,1.7C142.4,175,142.6,176.8,142.6,176.8z"/>
				</g>
				<g id="XMLID_2208_">
					<path id="XMLID_2209_" class="st0" d="M174.9,252.7c3.4-10.3,3.5-31.5,3.8-31.6c0.3,0,1,20.2-2.5,30.6
						C176,252,175.3,252.4,174.9,252.7z"/>
				</g>
				<g id="XMLID_2206_">
					<path id="XMLID_2207_" class="st0" d="M183.5,245.2c1.6-6.8,1.3-16.9,1.4-16.6c0.3,0.6,1.1,9.6-0.3,15.5
						C184.5,244.2,183.7,244.9,183.5,245.2z"/>
				</g>
			</g>
		</g>
	</g>
</g>
</svg>
