<?xml version="1.0" encoding="utf-8"?>
<!-- Generator: Adobe Illustrator 19.0.0, SVG Export Plug-In . SVG Version: 6.00 Build 0)  -->
<svg version="1.1" id="Camada_1" xmlns="http://www.w3.org/2000/svg" xmlns:xlink="http://www.w3.org/1999/xlink" x="0px" y="0px"
	 viewBox="0 0 297.6 425.2" style="enable-background:new 0 0 297.6 425.2;" xml:space="preserve">
<style type="text/css">
	.st0{fill:#CC814D;}
	.st1{fill:#A96537;}
	.st2{fill:#885632;}
</style>
<g id="XMLID_709_">
	<g id="XMLID_712_">
		<path id="XMLID_919_" class="st0" d="M189,235.9c0,0,2.1-8.9,2-11.8c-0.1-2.8-2.8-6.3-4.6-8.4c-1.8-2.1-3.1-3.2-3.8-3.5
			s-1.9,0.1-1.9,0.1s0.5-3.2,0.2-4.6c-0.3-1.3-9.6-10.6-13.4-13.5c-3.8-2.9-12-7.2-14.5-8.3c0,0,7.2,5.9,8.2,10.5
			c0,0-2.9-3.9-5.7-5.2s-9.2-3.9-11.1-4.8c-1.8-0.9-7.2-4.3-8.2-5.3c0,0,0.5,5.2,4.9,9.6c0,0-4.9-1.8-7.7-2.8s-8.4-3.1-12.3-6.4
			c0,0,1.7,8.4,8.3,13.8c0,0-5.8-1.4-10.4-4.2c-4.7-2.8-8.9-8.2-8.9-8.2s-0.1,5.4,3.8,11.2s6.8,8.3,6.8,8.3s-6.4-2-13.1-11.5
			c0,0-0.5,7.4,8.3,16.8c0,0-8.8-6.2-10-8.2c0,0,3.8,9.2,11.2,14c0,0-5.8-1.6-7-2.4c0,0,2.2,3.9,7.1,5.5c0,0-3.2,2.2-3.5,5.2
			c-0.3,2.9,1.4,11,2.7,14.4c0,0,0.4-11.4,5.8-18c1.2,0.2,2.9,0.2,4.5-0.2c0,0,5.8,1.6,11.6,0.8c0,0,8.6,2.3,14.8-0.1
			c0,0-2,2-7.9,4.5c0,0,5.4,0.4,11.4-2.2s8.2-3.9,10.3-4c0,0-3.6,2.7-4.4,5.9c0,0,4.4-4.4,10.1-5.4c0,0-1.3,5.1-0.9,7.1
			c0,0,7.9,6.6,7.2,20.2C179.1,244.5,181.8,235.3,189,235.9z"/>
		<g id="XMLID_713_">
			<g id="XMLID_917_">
				<path id="XMLID_918_" class="st1" d="M127.6,207.9c-3.6-2.2-6.1-5.2-6-5.4c0.2-0.1,2.8,2.5,6.3,4.6c1.7,1,6.4,3.2,6.4,3.4
					C134.3,210.8,129.3,209,127.6,207.9z"/>
			</g>
			<g id="XMLID_729_">
				<path id="XMLID_730_" class="st1" d="M144,210.4c-6.8-2.7-9.9-5.8-9.8-5.9c0.1-0.2,4.3,2.8,10,5.2c2.9,1.2,10.3,3,10.3,3.2
					C154.6,213.1,147,211.6,144,210.4z"/>
			</g>
			<g id="XMLID_727_">
				<path id="XMLID_728_" class="st1" d="M130.1,216.1c-5.7-3-8.1-6.4-8-6.6c0.2-0.1,5,5.9,16.2,8.5c0.2,0,0.4,0.3,0.3,0.5
					C138.6,218.7,132.7,217.4,130.1,216.1z"/>
			</g>
			<g id="XMLID_725_">
				<path id="XMLID_726_" class="st1" d="M153.5,218.1c0.4-0.3,1.1-0.9,1.9-1.7c0.9-0.9,2-1.9,3.1-2.9c1.3-1,2.1-1.5,3.4-2.1
					c0.8-0.4,2.4-0.7,2.5-0.5c0.1,0.2-1.9,0.6-4.7,2.7c-1.4,1-2.2,1.5-3.3,2.5C155.6,217.1,153.4,218.3,153.5,218.1z"/>
			</g>
			<g id="XMLID_723_">
				<path id="XMLID_724_" class="st1" d="M176.5,213.3c-0.8,0.1-0.3-0.2-0.1-0.3c0.1,0,3.2-1.1,6-0.9c0.2,0,0.6,0.1,0.6,0.3
					s-1.6,0.2-2.1,0.3C178.7,212.8,176.6,213.2,176.5,213.3z"/>
			</g>
			<g id="XMLID_721_">
				<path id="XMLID_722_" class="st1" d="M184.9,236.9c0.3-0.2,0.6-0.4,0.9-0.5c0.4-2.3,0.2-4.4-0.2-6.1c-0.7-3.1-2.6-5.4-2.8-5.2
					c-0.2,0.1,1.6,1.7,2.4,6C185.4,232.7,185.3,234.8,184.9,236.9z"/>
			</g>
			<g id="XMLID_719_">
				<path id="XMLID_720_" class="st1" d="M166,217.7c-0.2,0.1,1.8-2.1,3.8-3c1.4-0.6,4.2-0.8,4-0.7c-0.4,0.2-2.5,0.7-3.4,1.1
					C167.6,216.2,166.1,217.6,166,217.7z"/>
			</g>
			<g id="XMLID_717_">
				<path id="XMLID_718_" class="st1" d="M116.3,212.4c0.1-0.1,3.5,2.3,6.5,3.5c2.6,1.1,4.2,1.7,4.1,1.7c-1.5,0-2.3,0-5.8-1.9
					C119.8,215,116.2,212.5,116.3,212.4z"/>
			</g>
			<g id="XMLID_715_">
				<path id="XMLID_716_" class="st1" d="M122.4,217.7C122.3,217.7,122.3,217.7,122.4,217.7c-0.4,0.2-1.9,0-2.6-0.2
					c-2-0.6-2.2-1.2-2.2-1.2c-0.2-0.1,1,0.5,2.4,0.8C120.5,217.3,122.5,217.7,122.4,217.7z"/>
			</g>
			<path id="XMLID_714_" class="st1" d="M126.9,217.9"/>
		</g>
	</g>
	<path id="XMLID_711_" class="st2" d="M121.1,231.2c0,0,0.8-3.6,4.8-5.1s6.6-0.1,8.2,1.1l0.9,3.6c0,0-2.6-3-5.8-3
		S123.5,228.3,121.1,231.2z"/>
	<path id="XMLID_710_" class="st2" d="M148.5,230.8l1.8-4.2c0,0,9.4-6.8,20.6,4.2C170.8,230.8,158.3,223.9,148.5,230.8z"/>
</g>
</svg>
