<?xml version="1.0" encoding="utf-8"?>
<!-- Generator: Adobe Illustrator 19.0.0, SVG Export Plug-In . SVG Version: 6.00 Build 0)  -->
<svg version="1.1" id="Camada_1" xmlns="http://www.w3.org/2000/svg" xmlns:xlink="http://www.w3.org/1999/xlink" x="0px" y="0px"
	 viewBox="0 0 297.6 425.2" style="enable-background:new 0 0 297.6 425.2;" xml:space="preserve">
<style type="text/css">
	.st0{fill:#302727;}
</style>
<g id="XMLID_1975_">
	<g id="XMLID_1978_">
		<g id="XMLID_1979_">
			<path id="XMLID_1982_" d="M121,211.9c0,0,0.8-3.6,4.8-5.1c4-1.6,6.6,0.2,8.2,1.4l0.9,3.3c0,0-2.6-3-5.8-3
				C126,208.5,123.5,209,121,211.9z"/>
			<path id="XMLID_1981_" d="M148.4,211.5l1.4-3.2c0,0,9.8-7.8,20.9,3.1C170.7,211.5,158.3,204.6,148.4,211.5z"/>
		</g>
	</g>
	<path id="XMLID_1977_" class="st0" d="M209.6,229.3c-1.1-0.7-1.5-1.4-0.9-2.6c0.5-1,0.4-2.2-0.4-2.9c-0.7-0.6-1.7-0.9-2.8-1.4
		c0-0.9-0.7-1.6-2-1.8c0.6-0.4,1.2-0.7,1.7-1.2c0.8-0.8,1-2.3,0.3-2.9c-0.9-0.9-1.7-0.4-2.5,0.2c-0.7,0.6-1.4,0.4-2-0.2
		c0.8-2.3,0.3-3.3-1.9-3.9c-1-0.3-1.4-1-1.1-1.9c0.7-1.8,0.3-3.3-0.8-4.6c0.3-0.5,0.7-0.9,0.8-1.4c0.4-1.1,0.1-2.1-0.7-2.8
		c-0.8-0.8-1.7-0.8-2.6-0.2c-0.7,0.4-1.6,0.9-1.9-0.3c-0.5-1.8-1.4-3-3.6-3c0.4-1,0.6-1.9,1-2.7c0.6-1.4,0.3-2.5-0.7-3.5
		c-0.9-1-1.9-1.3-3.2-0.8c-0.3-1.5-1.1-2.4-2.6-2.5c0.1-0.2,0.1-0.3,0.1-0.4c0.4-1.3,0.3-2.7-0.5-3.1c-1.2-0.7-1.8,0.2-2.5,0.9
		c-0.3,0.3-1,0.5-1.4,0.3c-0.4-0.2-0.9-0.8-1-1.3c-0.4-2.5-2.3-3.8-4.7-3.1c-0.9,0.3-1.2,0-1.5-0.8c-0.1-0.4-0.2-0.8-0.3-1.2
		c-0.3-1.2-1.1-2.1-2.4-2.3c-1.2-0.1-2.4,0.1-3.7,0.3c0-0.2-0.1-0.7-0.2-1.1c-0.5-1.9-1.5-3.3-3.4-4.1c-1.6-0.7-2.6,0.2-3.8,1.1
		c-0.9,0.7-1.8,0.2-2-0.9c-0.1-0.7,0-1.4,0.1-2.2c0.1-1.4-0.3-2.3-1.3-2.5c-1.1-0.3-1.8,0.1-2.5,1.3c-0.1,0.1-0.2,0.2-0.3,0.4
		c-0.2-0.2-0.3-0.3-0.4-0.5c-2.2-2.3-4.5-2.3-6.7-0.2c-0.3,0.3-1,0.4-1.3,0.2c-0.5-0.2-0.9-0.8-1.2-1.3c-0.9-1.8-2.4-3.2-4.1-4
		c-1.1-0.6-2.5-0.9-3.8-0.9c-1.6-0.1-2.1,0.9-1.6,2.4c0.2,0.6,0.4,1.3,0.7,2.2c-0.7-0.3-1.1-0.5-1.4-0.7c-2.5-1.2-3.2-1-4.9,1.2
		c-1,1.4-1.2,1.4-2.4,0c-2.3-2.6-4.3-2.5-6.1,0.2c-1-0.6-1.9-1.4-2.9-1.8c-2.1-0.9-4.3-0.1-5.3,1.7c-0.6,1.1-0.4,1.6,0.7,2.2
		c0.7,0.4,1.4,0.8,2.3,1.4c-2.1,1.1-2.5,2.5-1.7,4.4c0.2,0.4-0.1,1.3-0.4,1.4c-0.4,0.2-1.1,0-1.6-0.2c-0.4-0.1-0.6-0.5-0.9-0.7
		c-0.9-0.8-2-1.3-3.3-1.2c-1.3,0.1-2,1-1.5,2.1c0.4,0.9,1.1,1.7,1.6,2.6c-2.9,1.4-3,1.6-1.6,4.8c0.5,1.2,0.2,2.8-0.8,3.8
		c-0.6,0.6-1.1,0.7-1.6-0.1c-0.7-1.1-1.7-2-3.1-2c-0.7,0-1.8,0.2-2,0.6c-0.3,0.6-0.1,1.6,0.1,2.3c0.2,0.6,0.7,1,1.2,1.5
		c-0.6,0.5-1.2,0.9-1.7,1.3c-2.2,2-2.3,3.1-0.3,5.2c1.2,1.3,0.8,3.4-0.7,4.2c-0.7,0.4-1.5,0.7-2.1,1.1c-1.6,1-1.7,1.9-0.5,3.3
		c1.1,1.2,1,2.4-0.4,3.4c-0.4,0.3-0.9,0.7-1.3,1.1c-1.6,1.6-1.8,3-0.9,4.7c-1,1-2,1.8-2.7,2.9c-0.8,1.1-0.3,2.1,0.9,2.8
		c0.3,0.2,0.6,0.6,0.6,1c0,1.2-0.8,2-2,2c-1.4,0-2,0.9-1.5,2.1c0.6,1.7,2.8,2.4,4.2,1.4c0.2-0.2,0.5-0.3,0.8-0.5
		c-0.2,3.2-0.1,3.5,2.2,4.5c-0.9,2.1-0.2,3.2,2.1,3.4c0.8,0.1,1.6,0.3,1.5,1.2c0,0.6-0.5,1.2-0.9,1.8c-0.1,0.2-0.5,0.3-0.7,0.4
		c-1.1,0.8-1.4,2.1-0.3,2.9c0.7,0.5,1.7,0.6,2.6,0.9c0.3,0.1,0.9-0.1,1.1,0.1c0.9,0.9,1.8,0.7,2.8,0.1c0.3-0.2,0.7-0.2,1.3-0.4
		c-0.4,1-0.7,1.7-0.9,2.4c-0.3,1.3,0.3,2.8,2.1,2.5c0.5-0.1,1.5,0.4,1.7,0.9c0.3,0.8,0.4,1.8,0.2,2.7c-0.2,1.5,0.2,2.2,1.7,2.3
		c1.2,0.1,2.1-0.5,2.6-1.6c0.3-0.6,0.3-1.3,0.6-1.9c0.2-0.3,0.6-0.5,0.9-0.8c0.2,0.3,0.6,0.6,0.7,1c0.2,0.8,0.2,1.7,0.4,2.5
		c0.4,1.7,2,2.2,3.6,1.7c0.9-0.3,2.1,0.2,3.1,0.5c0.1,0,0.2,0.8,0.1,1.1c-0.3,0.7-0.8,1.4-1.2,2c-0.8,1.1-0.7,1.7,0.6,2.2
		c0.5,0.2,1.2,0.5,1.6,0.3c1.6-0.6,3.2-0.9,4.8-1.4c0.3-0.1,0.7-0.3,1.2-0.5c0,0.9-0.1,1.5,0,2.1c0.1,0.9,0.6,1.7,1.6,1.9
		c0.9,0.2,1.4-0.4,1.9-1c0.2-0.3,0.6-0.5,1.1-0.9c0.2,0.7,0.3,1,0.4,1.4c0.4,1,1.6,1.5,2.5,0.8c0.9-0.7,1.4-0.5,1.9,0.4
		c0.1,0.2,0.3,0.4,0.5,0.6c0,0,0.1,0,0.1,0c3.2-0.9,8.5-2.5,8.5-2.5l0.3-4.7c-2-0.1-3.6-0.9-5.7-1.9c-3.3-1.6-9.1-5.2-13.1-8.7
		c-4-3.5-8.5-9-8.8-12.7c-0.1-1.8-0.8-8.6-1-13.1c0.5-0.3,0.9-0.7,1.3-1.1c2-1.9,0.9-3.9-0.1-5.4s-0.2-3.5,2.5-4.9s3.9-2.5,2.9-4.5
		s-1.1-2.6,1.6-4.1s3.2-3.4,3-4.2c0,0,1.5,1.9,1.4,3.5s-2.9,1.2-2.9,4.2c0,0-0.2,0.4,1.5,2.6c1.8,2.3-1.6,2.3-1.8,4.8
		c-0.2,2.5,0.9,3.5,3.8,3.4c0.6-0.1-0.2-0.9-0.1-2.2c0.1-1.3,1.2-2.6,2.3-3.8s-1.2-2.9-1.5-4.1s0.9-2,2.8-2.8
		c1.9-0.8,0.1-2.8-0.1-3.5s-0.8-2.2,1.3-2.9c2.1-0.7,3.1,0.7,3.1,0.7s-1.6,0.9-0.3,3.6s1.7,3.5-0.3,5.3c-2,1.8-1.1,4.3,0.4,5.5
		c1.5,1.3,1.5,2.7,0.4,3.8s-1.4,5.3,3.3,6c-0.1-1-1.8-2.6-0.5-4.2c1.3-1.6,2.3-1.1,3-2.7c0.7-1.6-0.1-2-1.8-3.4
		c-1.7-1.4-1.7-2.9,0.3-4.3c2-1.4,3.1-2.1,1.8-4.3c-1.3-2.1-0.7-2.7-0.1-3.7s0.5-2,0.5-2s3.7-0.9,2.6,1.8s-0.7,3.1,0.2,3.5
		c0.9,0.3,2.5,1.3,1.1,3.2c-1.4,1.9,0.5,2.5,2.2,3.4c1.7,0.9,0.4,2.8,0,5.2c-0.4,2.3,1,4.2,3.5,4.2c0.8-0.8-1.1-2.7-0.6-4.2
		s2-2.3,2.3-3.7c0.3-1.4-0.8-2.3-2.3-3.8s-0.6-2.1,0.3-3c0.9-0.8,1.8-2.1,1.2-3.1c0,0,1.7-0.2,2.1,1.4s-1.6,2.8-0.3,4.4
		c1.3,1.6,3.1,0.4,3,2.9c-0.1,2.5-2.2,4.2-1.3,6c0.9,1.8,3.9-2.1,4.5-4.5c0.6-2.5-0.4-3.3-2-4.9c-1.6-1.6-0.8-2.3,0.6-3.7
		c1.4-1.4,0.3-3.1-0.9-3.7s-2.5-0.7-1.4-3.5c0,0,4-0.7,5.4,2.5s-1.3,4.8,0.7,7.2c2.1,1.6,4-0.4,5.7,1.9c1.6,2.3-1,6.4,0.6,8.1
		s3.8,1.3,4.7,2.7c0.9,1.4-0.5,3.5,0.3,5c0.8,1.5,2.2,1.5,2.8,3c3.8-8.6,8.9-7.6,8.9-7.6s3.9,0.5,3.6,6.1
		c-0.3,5.6-3.8,10.2-6.4,12.4c-0.2,0.2-0.4,0.3-0.6,0.4c-0.1,0-0.1,0.1-0.2,0.1c-0.1,0.1-0.3,0.2-0.4,0.2c-0.1,0-0.1,0.1-0.2,0.1
		c-0.1,0.1-0.3,0.1-0.4,0.2c0,0-0.1,0-0.1,0.1c-0.2,0.1-0.3,0.1-0.5,0.1c0,0,0,0,0,0c-0.2,0-0.3,0-0.5,0.1c0,0-0.1,0-0.1,0
		c-0.1,0-0.2,0-0.3,0c0,0-0.1,0-0.1,0c-0.1,0-0.2,0-0.3,0c0,0-0.1,0-0.1,0c-0.1,0-0.3-0.1-0.4-0.1l0,0c-0.6-0.2-1-0.6-1-0.9
		c0,0,0.1,4.7-5.9,9.2c-3.7,2.8-10.5,6.1-16.2,8.5l0.2,8.9c0,0,3,0.9,6.2,1.9c1.9-1.3,2.3-3.9,2.8-4c-0.8,2,0.1,3,0.7,3.3
		c1,0.5,2.9-1.9,5.4-3.8c0.8-0.6,1.1-0.6,1.5,0.2c0.1,0.3,0.2,0.7,0.2,1c0,1.2,0.4,1.6,1.5,1.5c1.8-0.1,2.9-2.3,2.2-4.3
		c-0.2-0.5-0.4-1-0.7-1.8c0.7,0.1,1.1,0.3,1.6,0.3c1,0,2.1,0,3-0.3c1.1-0.5,0.4-1.9,1-2.6c0.6-0.8,1.9-1,1.8-2.3
		c0-0.3,0-0.6,0.1-0.8c0.1-0.2,0.2-0.5,0.3-0.6c0.7-0.6,2.3-0.5,3.1,0.3c0.9,0.8,0.7,1.6,0.1,2.4c-0.6,0.7-0.4,1.2,0.6,1.4
		c1.3,0.3,2.8-0.1,3.4-1.4c0.6-1.4,0.8-3,2.1-4c0.2-0.1,0.1-0.5,0.2-0.8c0.2-1.1,1.1-1.4,1.9-0.6c0.4,0.4,0.6,0.8,1,1.2
		c1.5,1.8,4.3,1.8,5.6,0c0.3-0.4,0.5-1.2,0.4-1.7c-0.1-0.4-0.9-0.6-1.4-0.8c-0.4-0.1-0.8,0.1-1.2-0.1c-0.4-0.1-0.6-0.5-0.9-0.8
		c0.2-0.2,0.4-0.6,0.7-0.7c0.7-0.3,1.4-0.4,2.1-0.7c1.5-0.5,1.9-1.3,1.6-2.9c-0.1-0.3,0-0.7,0.1-0.9c1.1-1.3,1.1-2,0.1-3.5
		c-0.7-1-0.5-2.1,0.5-2.6c0.9-0.5,2-0.2,2.5,0.8c0.3,0.7,0.8,1.3,1.5,1c0.6-0.3,1.3-0.8,1.5-1.4
		C211.6,231.6,211.1,230.2,209.6,229.3z"/>
</g>
</svg>
