<?xml version="1.0" encoding="utf-8"?>
<!-- Generator: Adobe Illustrator 19.0.0, SVG Export Plug-In . SVG Version: 6.00 Build 0)  -->
<svg version="1.1" id="Camada_1" xmlns="http://www.w3.org/2000/svg" xmlns:xlink="http://www.w3.org/1999/xlink" x="0px" y="0px"
	 viewBox="0 0 297.6 425.2" style="enable-background:new 0 0 297.6 425.2;" xml:space="preserve">
<style type="text/css">
	.st0{fill:#714F38;}
	.st1{fill:#8C674E;}
	.st2{fill:#686868;}
</style>
<g id="XMLID_2131_">
	<g id="XMLID_2073_">
		<g id="XMLID_2074_">
			<path id="XMLID_2076_" class="st0" d="M115.7,222.5c0,0,0.8-3.6,4.8-5.1s6.6,0.2,8.2,1.4l0.9,3.3c0,0-2.6-3-5.8-3
				S118.1,219.6,115.7,222.5z"/>
			<path id="XMLID_2075_" class="st0" d="M143.1,222.1l1.4-3.2c0,0,9.8-7.8,20.9,3.1C165.4,222.1,152.9,215.2,143.1,222.1z"/>
		</g>
	</g>
	<g id="XMLID_2053_">
		<path id="XMLID_2072_" class="st1" d="M123,203c0,0-2-8.8-6.4-11.9s-11.7-2.9-11.7-2.9s5.4,2,5.4,3.9c0,0-5.2-2.4-9.4,1
			s-5.6,15.4-6.8,18.7s-2.8,6.8-7.6,7.7s-9.2-5.2-9.2-5.2s-0.6,5,6,9.4s14.7,1.8,16.8-0.8c0,0-2.6,6.4-12.9,5.7c0,0,2.9,2.4,9.8,1.9
			s8.6-7.3,8.4-10.1s-0.5-10.3,4.3-12.8s8.1,0.2,8.1,0.2L123,203z"/>
		<g id="XMLID_2067_">
			<g id="XMLID_2070_">
				<path id="XMLID_2071_" class="st0" d="M106.5,204.8c-0.1-0.2,2.1-1.6,4.4-1.7c1.2,0,2.4,0.2,3.7,0.8c0.2,0.1,0.3,0.4,0.2,0.7
					c-0.1,0.2-0.4,0.3-0.7,0.2C110.8,203.2,106.5,205,106.5,204.8z"/>
			</g>
			<g id="XMLID_2068_">
				<path id="XMLID_2069_" class="st0" d="M117.1,200.8c-0.1,0-0.3-0.1-0.4-0.2c-5.2-5.9-13-2.9-13.1-3.2c-0.1-0.3,8.2-3.9,13.9,2.5
					c0.2,0.2,0.2,0.5,0,0.7C117.3,200.8,117.2,200.8,117.1,200.8z"/>
			</g>
		</g>
		<path id="XMLID_2066_" class="st2" d="M115,208.5c0,0-2.6-3.9,1.9-7.8s8.6-1.7,8.6-1.7L115,208.5z"/>
		<path id="XMLID_2065_" class="st1" d="M111.2,225.5c0,0-6.2-15,13.3-27.7c19.6-12.7,41.7-5.1,51.7,7.2c9.8,11.9,7.6,22,7.6,22
			s-4.7-2-9.1,5.9c0,0-0.7,3.9-3.8,7c0,0,3-12.9-3.9-18c-9.1-6.8-19.2-12.1-15.7-19c0,0-7.2,3-9,13.6c-1.8,10.6,2,12.8,2,12.8
			s-4.2-1.6-6.2-3.9c0,0-4.9-1.2-8-5.3c-4.9-6.5-6.1-12.2-5.5-16.6C124.8,203.5,113.3,210.4,111.2,225.5z"/>
		<path id="XMLID_2064_" class="st2" d="M175.1,200.6c-0.9-0.3-5.2-1.1-5.6,3.9s2.8,9.5,7.8,10.5c5.1,1.1,6.3-2.6,4-7.4
			S175.1,200.6,175.1,200.6z"/>
		<path id="XMLID_2063_" class="st1" d="M172.8,201.7c0.2-2.8,1.7-6.6,4.4-9.6c5.2-5.8,12.4-3.9,12.4-3.9s-5.1,0.5-7.4,4.5
			c0,0,7.7-3.8,14.8,0.3c7.1,4.1,8.4,7.3,10,19.2c1.6,11.9,10.4,12.7,14.2,7.2c0,0-0.8,7.2-7.8,7.3c-7,0.1-10.3-9.4-10.3-9.4
			s-0.1,7.5,5.8,11.7c5.8,4.2,10.6,1,10.6,1s-3.8,6.2-12.9,4c-9.2-2.2-12.5-8.9-13.1-15.9c0,0,0,4.8-2.8,7.2c0,0,2-4.5-0.8-8.9
			c-2.8-4.4-4.9-4.6-10-5.2c-1.2-0.2-2.1-0.4-2.8-0.8C174.5,209.1,172.7,204.4,172.8,201.7z"/>
		<g id="XMLID_2054_">
			<g id="XMLID_2061_">
				<path id="XMLID_2062_" class="st0" d="M174.5,232.8c0.1-1,0.3-3.9,0.4-5.7c0.1-4-0.8-7.2-1.8-9.6c-1.2-2.8-2.4-4.2-2.7-4.9
					c-0.1-0.3,2.3,1.2,4,5.5c0.7,1.7,1.1,3.8,1.2,6.3C175.7,226.9,174.5,232.8,174.5,232.8z"/>
			</g>
			<g id="XMLID_2059_">
				<path id="XMLID_2060_" class="st0" d="M134.5,221.5c-2.4-3.9-3.2-7.8-3.5-11.1c-0.3-4.5,1.1-8.2,1.3-8.1
					c0.3,0.1-0.6,3.6-0.4,7.7c0.1,2.9,0.7,6.3,2.6,9.8c2.2,4,3.7,5.3,3.5,5.5C137.9,225.3,135.8,223.8,134.5,221.5z"/>
			</g>
			<g id="XMLID_2055_">
				<g id="XMLID_2057_">
					<path id="XMLID_2058_" class="st0" d="M175,202.4c-0.2-0.2,1.6-2.9,4.8-4.5c1.3-0.6,2.7-1.2,4.5-1.4c3.8-0.4,7.6,1,7.5,1.2
						c-0.1,0.3-2.7-0.5-5.2-0.4c-2.5,0.1-4.7,0.5-6.3,1.2C177,199.9,175.1,202.4,175,202.4z"/>
				</g>
				<g id="XMLID_2056_">
					<path id="XMLID_2077_" class="st0" d="M183.5,206.6c-2.8-0.3-5.1,0.5-5.2,0.3c-0.1-0.2,2-1.2,5-1.1c2.8,0.2,5.1,1.3,5,1.6
						C188.2,207.6,184.7,206.7,183.5,206.6z"/>
				</g>
			</g>
		</g>
	</g>
</g>
</svg>
