<?xml version="1.0" encoding="utf-8"?>
<!-- Generator: Adobe Illustrator 19.0.0, SVG Export Plug-In . SVG Version: 6.00 Build 0)  -->
<svg version="1.1" id="Camada_1" xmlns="http://www.w3.org/2000/svg" xmlns:xlink="http://www.w3.org/1999/xlink" x="0px" y="0px"
	 viewBox="0 0 297.6 425.2" style="enable-background:new 0 0 297.6 425.2;" xml:space="preserve">
<style type="text/css">
	.st0{fill:#302727;}
</style>
<g id="XMLID_2258_">
	<g id="XMLID_2302_">
		<g id="XMLID_2303_">
			<path id="XMLID_2305_" d="M115.8,193.8c0,0,0.8-3.6,4.8-5.1s6.6,0.2,8.2,1.4l0.9,3.3c0,0-2.6-3-5.8-3S118.2,191,115.8,193.8z"/>
			<path id="XMLID_2304_" d="M143.1,193.5l1.4-3.2c0,0,9.8-7.8,20.9,3.1C165.5,193.4,153,186.5,143.1,193.5z"/>
		</g>
	</g>
	<g id="XMLID_2297_">
		<path id="XMLID_2300_" class="st0" d="M187,230.7c-2.3-9-1.2-16,0.2-26.2c1.3-10.2-0.2-23.7-8-32c-6.5-6.9-11.2-7.5-12.7-7.5
			c-2.6-3-7.5-7.2-14.6-8.7c-11.5-2.4-30.2,2.1-38.4,16s-2.3,25.1-2.3,25.1c2.6-11.3,19.9-12.5,30.9-14.1s12.1-9.2,12.1-9.2
			s0.9,3.6,5.1,7.9s11.4,15.9,12.5,25.9c0.6,5.2-3.7,17.1-4.6,19.3c-3.9,2.5-9.6,5.3-14.6,7.4l0.2,8.9c0,0,8.7,2.6,12.6,4.1
			c3.9,1.5,4.8,3.8,5.6,6.2c0.4,1.2,2.3,7.4,4,13C191.5,258.3,189.2,239,187,230.7z"/>
		<path id="XMLID_2299_" class="st0" d="M155.8,272.3c2.6-0.5,5.2-1.1,8-1.8c-2.3-4.8-4.2-8.9-4.2-8.9
			C157.9,265.4,156.7,269,155.8,272.3z"/>
		<path id="XMLID_2298_" class="st0" d="M121.1,227.6c-3.3-2.9-7-7.2-8.3-10.6c-1.4,10.2-6,18.4-6.6,23.8c-0.6,6,1,18.5,12.5,25.7
			c-0.2-10.4,1.1-14.9,1.9-15.9c0.8-1.2,7.3-4.3,10.5-5.2c3.2-0.9,8.5-2.5,8.5-2.5l0.3-4.7c-2-0.1-3.6-0.9-5.7-1.9
			C130.8,234.7,125.1,231.1,121.1,227.6z"/>
	</g>
	<g id="XMLID_2265_">
		<g id="XMLID_2290_">
			<path id="XMLID_2291_" d="M155.5,167.8c-0.2,0.2,1.2-2.1,4.4-3.1c1.1-0.4,2.1-0.5,3.7-0.5c2,0.1,2.6,0.8,2.4,0.8
				C160.2,164.2,156.2,167.1,155.5,167.8z"/>
		</g>
		<g id="XMLID_2288_">
			<path id="XMLID_2289_" d="M112.8,185.5C112.8,185.5,112.8,185.5,112.8,185.5c-0.3,0,1-9.7,11.8-16.2c3.5-2.1,6.1-3.3,8.7-4
				c5.8-1.7,9.8-1,9.7-0.7c0,0.3-7.6-0.9-18,5.4c-3.9,2.4-6.5,5.1-8.3,7.5C113.4,182.1,113,185.5,112.8,185.5z"/>
		</g>
		<g id="XMLID_2286_">
			<path id="XMLID_2287_" d="M175.4,187.2c-1.6-3.8-3.9-8.1-7.1-11.3c-2-2-3.8-3.2-5.2-3.9c-2.6-1.2-5-0.9-4.7-1
				c1-0.3,5-1.8,10.6,4.2c7.8,8.4,9.7,20.5,9.4,20.6C178.4,195.8,177.2,191.3,175.4,187.2z"/>
		</g>
		<g id="XMLID_2284_">
			<path id="XMLID_2285_" d="M173.6,250.3c-0.2,0.1,1.2-2,1.9-3.6c1.4-3.2,1.5-7.5,0.9-12.2c-0.8-5.9,0.1-13.3,0.2-13.5
				c0.2-0.8-0.6,4.5,0.5,12.4c0.7,5.2,0.8,9.9-0.6,13C175.5,248.2,173.7,250.2,173.6,250.3z"/>
		</g>
		<g id="XMLID_2266_">
			<path id="XMLID_2283_" d="M116.4,250.3c-0.3,0-0.8-12.4,3.8-21.1c1-1.8-1.1,4.6-1.7,6.7C116.2,243.4,116.6,250.3,116.4,250.3
				C116.4,250.3,116.4,250.3,116.4,250.3z"/>
		</g>
	</g>
	<path id="XMLID_2301_" class="st0" d="M171.3,223.9c-0.6-4.5,3.2-6.8-0.3-8.5c-1.8,4.8-6.3,7.9-12.9,12.9
		c-9.6,7.1-16.6,20-9.9,37.1c0,0-0.5-9.9,4.5-14s10.5-2.6,16.2-10.4c3-4,0-10.5,2.5-15.9C171.3,224.7,171.3,224.3,171.3,223.9z"/>
	<g id="XMLID_2292_">
		<g id="XMLID_2295_">
			<path id="XMLID_2296_" d="M153.4,250.8c-0.3,0.1,1-1,3.6-2.2c2-0.9,4.8-2.2,6.7-3.6c2.4-1.8,4.5-3.8,5.3-6.9
				c1-3.7,0.8-4.2,0.8-4.8c0,0,0,0,0,0c0.3,0,0.1,4.5-0.4,6c-1,2.9-2.8,4.8-5.2,6.5c-2,1.5-4.1,2.1-6.1,2.9
				C155.5,249.6,154,250.5,153.4,250.8z"/>
		</g>
		<g id="XMLID_2293_">
			<path id="XMLID_2294_" d="M145.5,254.4c0.4-1.7,1-3.7,2.4-5.7c0.5-0.8,2.2-2.7,2.8-3.2c0.2-0.2-0.7,1-0.9,1.2
				c-4.5,5.7-3.8,11.2-3.8,11.2C146,258.3,145.7,257,145.5,254.4z"/>
		</g>
	</g>
</g>
</svg>
