<?xml version="1.0" encoding="utf-8"?>
<!-- Generator: Adobe Illustrator 19.0.0, SVG Export Plug-In . SVG Version: 6.00 Build 0)  -->
<svg version="1.1" id="Camada_1" xmlns="http://www.w3.org/2000/svg" xmlns:xlink="http://www.w3.org/1999/xlink" x="0px" y="0px"
	 viewBox="0 0 297.6 425.2" style="enable-background:new 0 0 297.6 425.2;" xml:space="preserve">
<style type="text/css">
	.st0{fill:#84706A;}
	.st1{fill:#ECE6E4;}
	.st2{fill:none;stroke:#ECE6E4;stroke-width:0.5;stroke-linecap:round;stroke-miterlimit:10;}
</style>
<g id="XMLID_998_">
	<g id="XMLID_970_">
		<path id="XMLID_976_" class="st0" d="M111.2,223.5c4.3,0.1,8.9-0.8,13-1.9c4.5-1.1,8.6-2.8,12.4-5.5c1.9-1.3,3.7-3.3,5.6-4.6
			c-0.2-1.3-0.7-2.9-1.3-4.3c-0.9-2.2-1.2-5.2-2.2-6.4s-1.3-0.9-1.2-0.5s0.3,2.9,0.2,3.5c-0.1,0.7-1.6,2.3-2.7,1.9s-2.2-0.6-2.2-0.6
			c0.7-1.1,0.4-2.2-0.2-3s-2.2-2.4-5.4-2.1s-5.1,2.9-6.8,4.3s-9.7,6-14.5,7.1c-2.8,0.7-5.2,2.8-5.8,4.1c-0.4,0.9-0.7,2.5-0.8,3.7
			C103.4,221.2,106.7,223.3,111.2,223.5z"/>
		<path id="XMLID_975_" class="st0" d="M162.8,216c-0.1-0.3,2.6,1.4,3.2,1.7c1.7,0.8,3.4,1.6,5.2,2.3c3.8,1.6,7.7,3.4,11.8,4.1
			c4.6,0.8,8.8,0.2,13.2-1.4c0.7-0.3,1.4-0.6,2.2-0.9c0.1-0.9,0.1-2-0.1-3.3c-0.4-2.5-1.5-5.2-7.4-7.4c-5.9-2.2-9.3-5.9-11.1-7.9
			c-1.8-2-2.5-3.9-5.2-3.8c-2.7,0-4,1-5,2c-1.1,1.1-1,3.7-1,3.7c-0.3,0.4-3.7,1.9-4.2-0.2c-0.5-2.1,0.2-3.2-0.8-3
			c-1,0.2-1.3,1.8-1.4,2.7c-0.1,0.9-0.7,5-0.8,6.3c-0.1,0.7-0.2,1.7-0.3,2.5C161.7,214.1,162.4,214.9,162.8,216z"/>
	</g>
	<g id="XMLID_967_">
		<path id="XMLID_969_" class="st1" d="M99.6,220.3c-0.1-0.4-0.1-1.6,0.1-2.7c1.5,0.9,9.1,5.9,20.9,2.9c13.3-3.3,16.8-6,21.3-10.4
			c0.4,1.5,0.6,2.8,0.4,3.5c-0.3,1.1-1.4,4.1-8.3,6.6s-14.8,4.6-16.2,4.8s-9.3,0.6-13.7-1S99.6,220.3,99.6,220.3z"/>
		<path id="XMLID_968_" class="st1" d="M161,215.2c-0.3-0.5-0.1-1.8,0.1-3c3.1,3.4,11.8,8.4,20.3,9.8c6.7,1.2,14.6,0.3,16.8-3.5
			c0.4,2.5,0.2,4.4-0.7,5.5s-5.2,3.3-13,2.7c-7.8-0.6-11-3.5-14.5-4.9S162.9,218.7,161,215.2z"/>
	</g>
	<g id="XMLID_981_">
		<g id="XMLID_965_">
			<path id="XMLID_1001_" class="st1" d="M136.5,215.1c-0.1,0-0.2-0.1-0.2-0.2c0-0.3-0.4-6.9,3.5-10.5c0.1-0.1,0.2-0.2,0.3-0.2
				c0.1,0.1,0.2,0.5,0,0.6c-3.7,3.4-3.4,10-3.3,10.1C136.7,215,136.6,215.1,136.5,215.1C136.5,215.1,136.5,215.1,136.5,215.1z"/>
		</g>
		<g id="XMLID_966_">
			<path id="XMLID_1000_" class="st1" d="M118.3,216.6c0.2-0.2,1.4-0.7,3.2-1.6c3.3-1.6,8.8-4.6,13.5-9c0,0,0.2-0.2,0.2-0.2
				c0.1,0,0.8-0.1,0.9-0.2c0.1-0.1-0.7,0.7-0.8,0.8c-2.8,2.6-5.9,4.8-8.7,6.4C122.3,215.5,118.3,216.7,118.3,216.6z"/>
		</g>
		<line id="XMLID_971_" class="st2" x1="128.6" y1="218.4" x2="125.2" y2="213.4"/>
		<line id="XMLID_972_" class="st2" x1="127.9" y1="211.8" x2="131.8" y2="217.3"/>
		<g id="XMLID_973_">
			<path id="XMLID_999_" class="st1" d="M112.7,215.2c-0.1,0-0.3,0.1-0.3-0.1c0-0.1,0.1-0.2,0.2-0.2c0.1,0,5.2-1.5,9.3-4.3
				c3.2-2.1,4.7-3.3,5.5-3.9c0.3-0.2,0.5-0.3,0.6-0.4l0.3-0.2c1.1-0.8,2.9-2,5.3-1c0.1,0.1,0.5,0.2,0.6,0.3
				c-0.8-0.2-1.7-0.3-2.2-0.3c-1.4,0-2.6,0.8-3.3,1.4l-0.3,0.2c-0.1,0.1-0.3,0.2-0.6,0.4c-0.8,0.6-2.3,1.8-5.6,3.9
				C118,213.9,112.8,215.2,112.7,215.2C112.8,215.2,112.7,215.2,112.7,215.2z"/>
		</g>
		<g id="XMLID_977_">
			<path id="XMLID_1003_" class="st1" d="M164.9,215.8C164.9,215.8,164.9,215.8,164.9,215.8c-0.2,0-0.3-0.2-0.2-0.3
				c1.2-6.2-2.7-10-2.7-10c0,0,0-0.4,0.1-0.5c0-0.1,0.1,0,0.3,0.1c0,0,4.1,4,2.9,10.5C165.1,215.7,165,215.8,164.9,215.8z"/>
		</g>
		<g id="XMLID_978_">
			<path id="XMLID_1004_" class="st1" d="M178.3,216c-6.4-3.5-12.8-9.9-12.8-9.9c-0.1-0.1,0.6-0.1,0.7,0c0.1,0.1,5.7,5.7,11.8,9.2
				c0.7,0.4,3.2,1.9,3.4,2.2C181.4,217.5,180.8,217.3,178.3,216z"/>
		</g>
		<path id="XMLID_979_" class="st2" d="M168.5,217.4c0,0,0.9-4.4,3.4-5.8"/>
		<path id="XMLID_980_" class="st2" d="M172,218.9c0,0,1-3.8,2.6-5.5"/>
		<g id="XMLID_974_">
			<path id="XMLID_1002_" class="st1" d="M183.6,215.1c-4-1.8-8.1-4.7-11.9-8.5c-0.9-0.8-1.6-1.1-2.3-1.1c-1.5,0-2.3,0.4-2.5,0.4
				c-0.1,0,1.5-0.8,2.1-0.8c0.8,0,1.9,0.1,3,1.2c3.7,3.6,7.6,6.4,11.5,8.2c0.5,0.2,2.2,1.2,2.1,1.3
				C185.5,215.9,184,215.2,183.6,215.1z"/>
		</g>
	</g>
	<g id="XMLID_638_">
		<path id="XMLID_982_" class="st2" d="M106.2,211.5c0,0,4.6,0.6,7.6,3.2"/>
		<path id="XMLID_983_" class="st2" d="M108.5,210.8c0,0,4.8,0.4,7.7,3"/>
		<path id="XMLID_984_" class="st2" d="M111.6,209.5c0,0,4.4,0.4,7,3.3"/>
		<path id="XMLID_985_" class="st2" d="M114.1,208.2c0,0,4.2,0.8,6.3,3.4"/>
		<path id="XMLID_986_" class="st2" d="M116.2,207.1c0,0,4.2,0.7,6.5,3.1"/>
		<path id="XMLID_987_" class="st2" d="M118,206.1c0,0,4.8,0.2,6.9,2.8"/>
		<path id="XMLID_988_" class="st2" d="M119.9,204.9c0,0,4.9-0.1,7.4,2.3"/>
		<path id="XMLID_989_" class="st2" d="M121.6,203.4c0,0,4.7-0.1,7.8,2.4"/>
		<path id="XMLID_990_" class="st2" d="M171.8,206.2c0,0,3.9-3,8.6-2.3"/>
		<path id="XMLID_991_" class="st2" d="M173,207.5c0,0,4.3-2.6,8.8-2.2"/>
		<path id="XMLID_992_" class="st2" d="M174.6,208.9c0,0,4.5-2.7,8.3-2.3"/>
		<path id="XMLID_993_" class="st2" d="M176.3,210.2c0,0,4.1-2.8,8.3-2.3"/>
		<path id="XMLID_994_" class="st2" d="M178,211.5c0,0,3.7-2.7,8.4-2.4"/>
		<path id="XMLID_995_" class="st2" d="M180.3,212.9c0,0,2.8-2.8,8.2-2.7"/>
		<path id="XMLID_996_" class="st2" d="M182.2,214c0,0,3.5-3,8.8-2.8"/>
		<path id="XMLID_997_" class="st2" d="M183.9,214.9c0,0,4.1-3,9.6-2.4"/>
	</g>
</g>
</svg>
