<?xml version="1.0" encoding="utf-8"?>
<!-- Generator: Adobe Illustrator 19.0.0, SVG Export Plug-In . SVG Version: 6.00 Build 0)  -->
<svg version="1.1" id="Camada_1" xmlns="http://www.w3.org/2000/svg" xmlns:xlink="http://www.w3.org/1999/xlink" x="0px" y="0px"
	 viewBox="0 0 297.6 425.2" style="enable-background:new 0 0 297.6 425.2;" xml:space="preserve">
<style type="text/css">
	.st0{fill:#84706A;}
	.st1{fill:#ECE6E4;}
	.st2{fill:none;stroke:#ECE6E4;stroke-width:0.5;stroke-linecap:round;stroke-miterlimit:10;}
</style>
<g id="XMLID_2470_">
	<g id="XMLID_2494_">
		<g id="XMLID_2515_">
			<path id="XMLID_2516_" class="st0" d="M130.4,220.7c4.3,0.1,8.9-0.8,13-1.9c4.5-1.1,8.6-2.8,12.4-5.5c1.9-1.3,3.7-3.3,5.6-4.6
				c-0.2-1.3-0.7-2.9-1.3-4.3c-0.9-2.2-1.2-5.2-2.2-6.4s-1.3-0.9-1.2-0.5s0.3,2.9,0.2,3.5c-0.1,0.7-1.6,2.3-2.7,1.9
				s-2.2-0.6-2.2-0.6c0.7-1.1,0.4-2.2-0.2-3s-2.2-2.4-5.4-2.1s-5.1,2.9-6.8,4.3s-9.7,6-14.5,7.1c-2.8,0.7-5.2,2.8-5.8,4.1
				c-0.4,0.9-0.7,2.5-0.8,3.7C122.6,218.5,125.9,220.6,130.4,220.7z"/>
		</g>
		<g id="XMLID_2513_">
			<path id="XMLID_2514_" class="st1" d="M118.8,217.6c-0.1-0.4-0.1-1.6,0.1-2.7c1.5,0.9,9.1,5.9,20.9,2.9
				c13.3-3.3,16.8-6,21.3-10.4c0.4,1.5,0.6,2.8,0.4,3.5c-0.3,1.1-1.4,4.1-8.3,6.6s-14.8,4.6-16.2,4.8s-9.3,0.6-13.7-1
				S118.8,217.6,118.8,217.6z"/>
		</g>
		<g id="XMLID_2504_">
			<g id="XMLID_2511_">
				<path id="XMLID_2512_" class="st1" d="M155.7,212.4c-0.1,0-0.2-0.1-0.2-0.2c0-0.3-0.4-6.9,3.5-10.5c0.1-0.1,0.2-0.2,0.3-0.2
					c0.1,0.1,0.2,0.5,0,0.6c-3.7,3.4-3.4,10-3.3,10.1C156,212.3,155.9,212.4,155.7,212.4L155.7,212.4z"/>
			</g>
			<g id="XMLID_2509_">
				<path id="XMLID_2510_" class="st1" d="M137.6,213.9c0.2-0.2,1.4-0.7,3.2-1.6c3.3-1.6,8.8-4.6,13.5-9c0,0,0.2-0.2,0.2-0.2
					c0.1,0,0.8-0.1,0.9-0.2c0.1-0.1-0.7,0.7-0.8,0.8c-2.8,2.6-5.9,4.8-8.7,6.4C141.5,212.7,137.5,213.9,137.6,213.9z"/>
			</g>
			<line id="XMLID_2508_" class="st2" x1="147.8" y1="215.7" x2="144.4" y2="210.7"/>
			<line id="XMLID_2507_" class="st2" x1="147.2" y1="209" x2="151.1" y2="214.5"/>
			<g id="XMLID_2505_">
				<path id="XMLID_2506_" class="st1" d="M132,212.5c-0.1,0-0.3,0.1-0.3-0.1c0-0.1,0.1-0.2,0.2-0.2c0.1,0,5.2-1.5,9.3-4.3
					c3.2-2.1,4.7-3.3,5.5-3.9c0.3-0.2,0.5-0.3,0.6-0.4l0.3-0.2c1.1-0.8,2.9-2,5.3-1c0.1,0.1,0.5,0.2,0.6,0.3
					c-0.8-0.2-1.7-0.3-2.2-0.3c-1.4,0-2.6,0.8-3.3,1.4l-0.3,0.2c-0.1,0.1-0.3,0.2-0.6,0.4c-0.8,0.6-2.3,1.8-5.6,3.9
					C137.3,211.2,132.1,212.5,132,212.5C132,212.5,132,212.5,132,212.5z"/>
			</g>
		</g>
		<g id="XMLID_2495_">
			<path id="XMLID_2503_" class="st2" d="M125.5,208.7c0,0,4.6,0.6,7.6,3.2"/>
			<path id="XMLID_2502_" class="st2" d="M127.7,208c0,0,4.8,0.4,7.7,3"/>
			<path id="XMLID_2501_" class="st2" d="M130.8,206.7c0,0,4.4,0.4,7,3.3"/>
			<path id="XMLID_2500_" class="st2" d="M133.4,205.5c0,0,4.2,0.8,6.3,3.4"/>
			<path id="XMLID_2499_" class="st2" d="M135.5,204.4c0,0,4.2,0.7,6.5,3.1"/>
			<path id="XMLID_2498_" class="st2" d="M137.3,203.3c0,0,4.8,0.2,6.9,2.8"/>
			<path id="XMLID_2497_" class="st2" d="M139.1,202.1c0,0,4.9-0.1,7.4,2.3"/>
			<path id="XMLID_2496_" class="st2" d="M140.8,200.6c0,0,4.7-0.1,7.8,2.4"/>
		</g>
	</g>
	<g id="XMLID_2471_">
		<g id="XMLID_2492_">
			<path id="XMLID_2493_" class="st0" d="M146.7,226.2c4.3,0.1,8.9-0.8,13-1.9c4.5-1.1,8.6-2.8,12.4-5.5c1.9-1.3,3.7-3.3,5.6-4.6
				c-0.2-1.3-0.7-2.9-1.3-4.3c-0.9-2.2-1.2-5.2-2.2-6.4s-1.3-0.9-1.2-0.5s0.3,2.9,0.2,3.5c-0.1,0.7-1.6,2.3-2.7,1.9
				s-2.2-0.6-2.2-0.6c0.7-1.1,0.4-2.2-0.2-3s-2.2-2.4-5.4-2.1s-5.1,2.9-6.8,4.3s-9.7,6-14.5,7.1c-2.8,0.7-5.2,2.8-5.8,4.1
				c-0.4,0.9-0.7,2.5-0.8,3.7C138.9,224,142.2,226.1,146.7,226.2z"/>
		</g>
		<g id="XMLID_2490_">
			<path id="XMLID_2491_" class="st1" d="M135.1,223.1c-0.1-0.4-0.1-1.6,0.1-2.7c1.5,0.9,9.1,5.9,20.9,2.9
				c13.3-3.3,16.8-6,21.3-10.4c0.4,1.5,0.6,2.8,0.4,3.5c-0.3,1.1-1.4,4.1-8.3,6.6s-14.8,4.6-16.2,4.8s-9.3,0.6-13.7-1
				S135.1,223.1,135.1,223.1z"/>
		</g>
		<g id="XMLID_2481_">
			<g id="XMLID_2488_">
				<path id="XMLID_2489_" class="st1" d="M172,217.9c-0.1,0-0.2-0.1-0.2-0.2c0-0.3-0.4-6.9,3.5-10.5c0.1-0.1,0.2-0.2,0.3-0.2
					c0.1,0.1,0.2,0.5,0,0.6c-3.7,3.4-3.4,10-3.3,10.1C172.2,217.8,172.1,217.9,172,217.9L172,217.9z"/>
			</g>
			<g id="XMLID_2486_">
				<path id="XMLID_2487_" class="st1" d="M153.8,219.4c0.2-0.2,1.4-0.7,3.2-1.6c3.3-1.6,8.8-4.6,13.5-9c0,0,0.2-0.2,0.2-0.2
					c0.1,0,0.8-0.1,0.9-0.2c0.1-0.1-0.7,0.7-0.8,0.8c-2.8,2.6-5.9,4.8-8.7,6.4C157.8,218.2,153.8,219.4,153.8,219.4z"/>
			</g>
			<line id="XMLID_2485_" class="st2" x1="164.1" y1="221.2" x2="160.7" y2="216.2"/>
			<line id="XMLID_2484_" class="st2" x1="163.4" y1="214.5" x2="167.3" y2="220"/>
			<g id="XMLID_2482_">
				<path id="XMLID_2483_" class="st1" d="M148.2,218c-0.1,0-0.3,0.1-0.3-0.1c0-0.1,0.1-0.2,0.2-0.2c0.1,0,5.2-1.5,9.3-4.3
					c3.2-2.1,4.7-3.3,5.5-3.9c0.3-0.2,0.5-0.3,0.6-0.4l0.3-0.2c1.1-0.8,2.9-2,5.3-1c0.1,0.1,0.5,0.2,0.6,0.3
					c-0.8-0.2-1.7-0.3-2.2-0.3c-1.4,0-2.6,0.8-3.3,1.4l-0.3,0.2c-0.1,0.1-0.3,0.2-0.6,0.4c-0.8,0.6-2.3,1.8-5.6,3.9
					C153.5,216.7,148.3,218,148.2,218C148.3,218,148.2,218,148.2,218z"/>
			</g>
		</g>
		<g id="XMLID_2472_">
			<path id="XMLID_2480_" class="st2" d="M141.7,214.2c0,0,4.6,0.6,7.6,3.2"/>
			<path id="XMLID_2479_" class="st2" d="M144,213.5c0,0,4.8,0.4,7.7,3"/>
			<path id="XMLID_2478_" class="st2" d="M147.1,212.2c0,0,4.4,0.4,7,3.3"/>
			<path id="XMLID_2477_" class="st2" d="M149.7,211c0,0,4.2,0.8,6.3,3.4"/>
			<path id="XMLID_2476_" class="st2" d="M151.7,209.9c0,0,4.2,0.7,6.5,3.1"/>
			<path id="XMLID_2475_" class="st2" d="M153.5,208.8c0,0,4.8,0.2,6.9,2.8"/>
			<path id="XMLID_2474_" class="st2" d="M155.4,207.6c0,0,4.9-0.1,7.4,2.3"/>
			<path id="XMLID_2473_" class="st2" d="M157.1,206.1c0,0,4.7-0.1,7.8,2.4"/>
		</g>
	</g>
</g>
</svg>
