<?xml version="1.0" encoding="utf-8"?>
<!-- Generator: Adobe Illustrator 19.0.0, SVG Export Plug-In . SVG Version: 6.00 Build 0)  -->
<svg version="1.1" id="Camada_1" xmlns="http://www.w3.org/2000/svg" xmlns:xlink="http://www.w3.org/1999/xlink" x="0px" y="0px"
	 viewBox="0 0 297.6 425.2" style="enable-background:new 0 0 297.6 425.2;" xml:space="preserve">
<style type="text/css">
	.st0{fill:#C9A1CB;}
	.st1{fill:#EACDB0;}
</style>
<g id="XMLID_1140_">
	<g id="XMLID_1149_">
		<path id="XMLID_1151_" class="st0" d="M113.9,327.2c-0.4-0.9-0.9-4.1,0.6-6.2s4.2-4.2,8.5-4.2s7.1,2.8,10.7,3.3
			c3.6,0.6,14.1-1.1,19.1-7.8c0,0,3.8,4.8,2.5,9.4c0,0-5.1,7.3-20.8,9.5C118.7,333.3,114.6,328.8,113.9,327.2z"/>
		<path id="XMLID_1150_" class="st0" d="M178,311.9c-0.3-0.5-2,5.8-0.9,10.8c0,0,6.3,9.6,18.5,11.2c12.2,1.7,15.7-2.7,15.8-3.2
			s2.2-6-3.1-10.3c-5.3-4.3-12.5-2.1-16.2-0.3S183,319.8,178,311.9z"/>
	</g>
	<g id="XMLID_1145_">
		<path id="XMLID_1155_" class="st1" d="M134.4,331.1c15.8-2.2,20.8-9.5,20.8-9.5c0.3-1,0.3-2,0.2-3c-3.2,3.7-11.1,8.6-21.2,10
			c-10.2,1.4-16.9-1.1-20.7-3c0.1,0.7,0.2,1.2,0.3,1.5C114.5,328.8,118.6,333.3,134.4,331.1z"/>
		<path id="XMLID_1157_" class="st1" d="M195.5,333.9c12.2,1.7,15.7-2.7,15.8-3.2c0.1-0.2,0.4-1.2,0.5-2.6
			c-3.5,1.8-10.3,4.5-18.2,2.7c-10.2-2.4-15-8.3-17-11.6c0,1.2,0.1,2.3,0.4,3.4C177,322.7,183.4,332.3,195.5,333.9z"/>
	</g>
</g>
</svg>
