<?xml version="1.0" encoding="utf-8"?>
<!-- Generator: Adobe Illustrator 19.0.0, SVG Export Plug-In . SVG Version: 6.00 Build 0)  -->
<svg version="1.1" id="Camada_1" xmlns="http://www.w3.org/2000/svg" xmlns:xlink="http://www.w3.org/1999/xlink" x="0px" y="0px"
	 viewBox="0 0 297.6 425.2" style="enable-background:new 0 0 297.6 425.2;" xml:space="preserve">
<style type="text/css">
	.st0{fill:#C4C5C5;}
</style>
<g id="XMLID_2435_">
	<g id="XMLID_2453_">
		<g id="XMLID_2454_">
			<path id="XMLID_2469_" d="M143.2,201.8c0,0-1.6-2.6-1.6-4.8s0.4-2.7,1-2.9c0.6-0.2,5.1-1.4,9,2.1c0,0,0.9-1.6,3.5-0.9
				c2.6,0.7,2.4,2.4,2.3,2.8c-0.1,0.4-1,3.3-1,4.3c0,1,1.9,6.7,2.8,8.7c1,1.9,0.4,5.2-0.7,6.7s-3.3,4.9-14.7,8.1
				c-11.4,3.2-23.6,1.2-25.6-2.5c0,0-0.7-7.5,5-11.4c5.7-3.9,8-2.1,14.8-5.5C144,203.6,143.2,201.8,143.2,201.8z"/>
			<path id="XMLID_2468_" class="st0" d="M159.6,211.9c1,1.9,0.4,5.2-0.7,6.7c-1.1,1.5-3.4,4.9-15,8.1c-11.6,3.2-24,1.2-26-2.5
				c0,0-0.2-2.5,0.6-5.3c0,0,0.5-2.2,7.9-1.2c7.5,1,8,5.5,8,5.5s8.3-0.8,16.2-4.4C153.3,217.6,158,215.6,159.6,211.9z"/>
			<g id="XMLID_2466_">
				<path id="XMLID_2467_" class="st0" d="M134.4,223.6c-0.1,0-0.2-0.1-0.2-0.2c0-0.2-0.5-4,1.9-7.1c1.6-2.1,3.1-3.1,5-4.3
					c0.9-0.6,1.9-1.2,3-2.1c3.5-2.6,5.7-4.9,6.3-6.1c0,0,2-4.2,1.3-7.1c0-0.1-0.2-0.3,0-0.3c0.1,0,0.3,0.7,0.4,0.9
					c0.7,3.1-1.1,6.6-1.2,6.8c-0.6,1.2-2.7,3.5-6.5,6.3c-1.1,0.9-2.1,1.5-3,2.1c-1.9,1.3-3.3,2.2-4.9,4.2c-2.2,2.9-1.6,6.7-1.6,6.8
					C134.9,223.5,134.6,223.5,134.4,223.6C134.4,223.6,134.4,223.6,134.4,223.6z"/>
			</g>
			<g id="XMLID_2464_">
				<path id="XMLID_2465_" class="st0" d="M150.7,204c-0.1,0-0.1,0-0.2-0.1c-0.1-0.1-0.1-0.3,0-0.4c1.6-1.4,3.4-1.7,4.5-1.7
					c0.7,0,1.4,0.2,1.5,0.3c0,0.1-0.2,0.1-0.3,0.1c0,0-2.8-0.4-5.3,1.7C150.8,204,150.7,204,150.7,204z"/>
			</g>
			<g id="XMLID_2462_">
				<path id="XMLID_2463_" class="st0" d="M148.4,203.7C148.3,203.7,148.3,203.7,148.4,203.7c-0.2-0.1-0.3-0.2-0.2-0.3
					c0.7-1.9,0.5-3.8,0.5-4.3c-3.6-2.5-6.8-1.4-6.9-1.4c-0.1,0-0.1,0-0.2-0.1c0-0.1,0-0.3,0-0.4c0.1,0,3.6-1.2,7.4,1.6
					c0.1,0,0.1,0.1,0.1,0.2c0,0.1,0.4,2.4-0.5,4.6C148.6,203.7,148.5,203.7,148.4,203.7z"/>
			</g>
			<g id="XMLID_2460_">
				<path id="XMLID_2461_" class="st0" d="M148.4,220.5C148.4,220.5,148.3,220.5,148.4,220.5c-0.2-0.1-0.3-0.2-0.2-0.3
					c0,0,1.4-3.6,2.2-6l0.1-0.3c0.7-2.1,0.9-2.8,2.6-3.5c1.8-0.8,3.5-1.6,4.7-3.1c0-0.1,0.1,0,0.2,0.1c0.1,0.2,0.1,0.3,0,0.4
					c-1.3,1.5-2.9,2.2-4.7,3c-1.5,0.7-1.7,1.1-2.3,3.2l-0.1,0.3c-0.8,2.5-2.2,6-2.2,6.1C148.6,220.5,148.5,220.5,148.4,220.5z"/>
			</g>
			<g id="XMLID_2455_">
				<path id="XMLID_2459_" class="st0" d="M133.7,208.1c2.1,0.3,5.6,1.1,8,3.6c0.8-0.6,1.8-1.2,2.8-1.9c-2.7-2.4-6.8-2.8-7.8-2.8
					C135.7,207.5,134.7,207.8,133.7,208.1z"/>
				<path id="XMLID_2458_" class="st0" d="M140.4,205.1c-0.5,0.3-1.1,0.7-1.9,1.1c2,0.3,4.9,1,6.9,3.1c0.9-0.7,1.7-1.4,2.4-2
					C145.2,204.9,141.4,205,140.4,205.1z"/>
				<path id="XMLID_2457_" class="st0" d="M130.8,208.9c-2.1,0.5-3.9,0.8-5.5,1.9c8.2-0.4,13,3.3,13,3.3s1-0.7,2.6-1.8
					c-1.9-1.8-4.5-2.7-6.4-3C133.4,209.1,131.7,208.9,130.8,208.9z"/>
				<path id="XMLID_2456_" class="st0" d="M143,202.8c-0.1,0.3-0.5,0.7-1.1,1.2c1.8,0.1,4.5,0.5,6.6,2.4c1.2-1.3,1.7-2.3,1.7-2.3
					C147.8,201.7,143,202.8,143,202.8z"/>
			</g>
		</g>
	</g>
	<g id="XMLID_2436_">
		<g id="XMLID_2437_">
			<path id="XMLID_2452_" d="M162.5,205.3c0,0-1.6-2.6-1.6-4.8s0.4-2.7,1-2.9c0.6-0.2,5.1-1.4,9,2.1c0,0,0.9-1.6,3.5-0.9
				c2.6,0.7,2.4,2.4,2.3,2.8c-0.1,0.4-1,3.3-1,4.3c0,1,1.9,6.7,2.8,8.7c1,1.9,0.4,5.2-0.7,6.7s-3.3,4.9-14.7,8.1
				c-11.4,3.2-23.6,1.2-25.6-2.5c0,0-0.7-7.5,5-11.4c5.7-3.9,8-2.1,14.8-5.5C163.2,207.1,162.5,205.3,162.5,205.3z"/>
			<path id="XMLID_2451_" class="st0" d="M178.8,215.4c1,1.9,0.4,5.2-0.7,6.7c-1.1,1.5-3.4,4.9-15,8.1c-11.6,3.2-24,1.2-26-2.5
				c0,0-0.2-2.5,0.6-5.3c0,0,0.5-2.2,7.9-1.2c7.5,1,8,5.5,8,5.5s8.3-0.8,16.2-4.4C172.6,221.1,177.2,219.1,178.8,215.4z"/>
			<g id="XMLID_2449_">
				<path id="XMLID_2450_" class="st0" d="M153.7,227.1c-0.1,0-0.2-0.1-0.2-0.2c0-0.2-0.5-4,1.9-7.1c1.6-2.1,3.1-3.1,5-4.3
					c0.9-0.6,1.9-1.2,3-2.1c3.5-2.6,5.7-4.9,6.3-6.1c0,0,2-4.2,1.3-7.1c0-0.1-0.2-0.3,0-0.3c0.1,0,0.3,0.7,0.4,0.9
					c0.7,3.1-1.1,6.6-1.2,6.8c-0.6,1.2-2.7,3.5-6.5,6.3c-1.1,0.9-2.1,1.5-3,2.1c-1.9,1.3-3.3,2.2-4.9,4.2c-2.2,2.9-1.6,6.7-1.6,6.8
					C154.1,227,153.8,227,153.7,227.1C153.7,227.1,153.7,227.1,153.7,227.1z"/>
			</g>
			<g id="XMLID_2447_">
				<path id="XMLID_2448_" class="st0" d="M169.9,207.5c-0.1,0-0.1,0-0.2-0.1c-0.1-0.1-0.1-0.3,0-0.4c1.6-1.4,3.4-1.7,4.5-1.7
					c0.7,0,1.4,0.2,1.5,0.3c0,0.1-0.2,0.1-0.3,0.1c0,0-2.8-0.4-5.3,1.7C170,207.5,170,207.5,169.9,207.5z"/>
			</g>
			<g id="XMLID_2445_">
				<path id="XMLID_2446_" class="st0" d="M167.6,207.2C167.6,207.2,167.6,207.2,167.6,207.2c-0.2-0.1-0.3-0.2-0.2-0.3
					c0.7-1.9,0.5-3.8,0.5-4.3c-3.6-2.5-6.8-1.4-6.9-1.4c-0.1,0-0.1,0-0.2-0.1c0-0.1,0-0.3,0-0.4c0.1,0,3.6-1.2,7.4,1.6
					c0.1,0,0.1,0.1,0.1,0.2c0,0.1,0.4,2.4-0.5,4.6C167.8,207.2,167.7,207.2,167.6,207.2z"/>
			</g>
			<g id="XMLID_2443_">
				<path id="XMLID_2444_" class="st0" d="M167.6,224C167.6,224,167.6,224,167.6,224c-0.2-0.1-0.3-0.2-0.2-0.3c0,0,1.4-3.6,2.2-6
					l0.1-0.3c0.7-2.1,0.9-2.8,2.6-3.5c1.8-0.8,3.5-1.6,4.7-3.1c0-0.1,0.1,0,0.2,0.1c0.1,0.2,0.1,0.3,0,0.4c-1.3,1.5-2.9,2.2-4.7,3
					c-1.5,0.7-1.7,1.1-2.3,3.2l-0.1,0.3c-0.8,2.5-2.2,6-2.2,6.1C167.8,224,167.7,224,167.6,224z"/>
			</g>
			<g id="XMLID_2438_">
				<path id="XMLID_2442_" class="st0" d="M153,211.6c2.1,0.3,5.6,1.1,8,3.6c0.8-0.6,1.8-1.2,2.8-1.9c-2.7-2.4-6.8-2.8-7.8-2.8
					C155,211,153.9,211.3,153,211.6z"/>
				<path id="XMLID_2441_" class="st0" d="M159.7,208.6c-0.5,0.3-1.1,0.7-1.9,1.1c2,0.3,4.9,1,6.9,3.1c0.9-0.7,1.7-1.4,2.4-2
					C164.4,208.4,160.6,208.5,159.7,208.6z"/>
				<path id="XMLID_2440_" class="st0" d="M150,212.4c-2.1,0.5-3.9,0.8-5.5,1.9c8.2-0.4,13,3.3,13,3.3s1-0.7,2.6-1.8
					c-1.9-1.8-4.5-2.7-6.4-3C152.7,212.6,150.9,212.4,150,212.4z"/>
				<path id="XMLID_2439_" class="st0" d="M162.3,206.3c-0.1,0.3-0.5,0.7-1.1,1.2c1.8,0.1,4.5,0.5,6.6,2.4c1.2-1.3,1.7-2.3,1.7-2.3
					C167.1,205.2,162.3,206.3,162.3,206.3z"/>
			</g>
		</g>
	</g>
</g>
</svg>
