<?xml version="1.0" encoding="utf-8"?>
<!-- Generator: Adobe Illustrator 19.0.0, SVG Export Plug-In . SVG Version: 6.00 Build 0)  -->
<svg version="1.1" id="Camada_1" xmlns="http://www.w3.org/2000/svg" xmlns:xlink="http://www.w3.org/1999/xlink" x="0px" y="0px"
	 viewBox="0 0 297.6 425.2" style="enable-background:new 0 0 297.6 425.2;" xml:space="preserve">
<style type="text/css">
	.st0{fill:#ECE6E4;}
	.st1{fill:#CAA2CB;}
	.st2{fill:#B995BB;}
	.st3{fill:#AAA6A5;}
</style>
<g id="XMLID_1852_">
	<g id="XMLID_1834_">
		<path id="XMLID_1851_" class="st0" d="M122.1,211.3c-0.9,0.5-2.3,1.6-2.5,3.8c-0.2,2.2,1.3,4.5,5.5,5.5c4.2,1,11.7,2.2,22.8-1.8
			c11.1-4.1,11.3-6.5,11.2-8.3c-0.1-1.8-0.3-1.5-1-2.2C157.5,207.6,122.1,211.3,122.1,211.3z"/>
		<path id="XMLID_1850_" class="st1" d="M142.2,197.8c0,0-3.3,6.3-11.6,9.4c-8.3,3.1-10.3,4.1-9.4,6.2c0.9,2.1,5.8,5.8,16.2,4.2
			s18.1-5.1,21.2-8.8c0,0,0.5-3.6-1.5-10.3L142.2,197.8z"/>
		<g id="XMLID_1835_">
			<g id="XMLID_1848_">
				<path id="XMLID_1849_" class="st0" d="M152.3,213.6C152.3,213.6,152.3,213.6,152.3,213.6c-0.1,0-0.2-0.1-0.2-0.2
					c0-0.1,0-2.5-2-3.6c-2.6-1.4-4.3-1-6.5,0.1c-2.3,1.1-3.8,1.7-6.6-0.1c-2.6-1.7-5.2-2.5-6-2.4c-0.1,0-0.3-0.1-0.3-0.2
					c0-0.1,0.1-0.3,0.2-0.3c0.9-0.1,3.5,0.6,6.4,2.5c2.6,1.7,3.8,1.2,6.1,0.1c2.3-1.1,4.2-1.5,6.9-0.1c2.3,1.2,2.3,3.9,2.3,4
					C152.6,213.5,152.5,213.6,152.3,213.6z"/>
			</g>
			<g id="XMLID_1846_">
				<path id="XMLID_1847_" class="st0" d="M137.1,209.8c-0.1,0-0.2-0.1-0.2-0.2c0-0.1,0-0.3,0.2-0.3c6.3-2.2,10.6-8.9,10.6-8.9
					c0.1-0.1,0.2-0.1,0.3-0.1c0.1,0.1,0.1,0.2,0.1,0.3C148,200.7,143.7,207.5,137.1,209.8C137.2,209.8,137.1,209.8,137.1,209.8z"/>
			</g>
			<g id="XMLID_1844_">
				<path id="XMLID_1845_" class="st0" d="M139.1,208.8c-0.1,0-0.1,0-0.2-0.1c-2.2-2-5.4-2.5-5.5-2.5c-0.1,0-0.2-0.1-0.2-0.3
					c0-0.1,0.1-0.2,0.3-0.2c0.1,0,3.4,0.6,5.7,2.6c0.1,0.1,0.1,0.2,0,0.3C139.3,208.8,139.2,208.8,139.1,208.8z"/>
			</g>
			<g id="XMLID_1842_">
				<path id="XMLID_1843_" class="st0" d="M141.4,207.4c-0.1,0-0.1,0-0.2-0.1c-2.3-2.1-5.2-2.7-5.2-2.7c-0.1,0-0.2-0.2-0.2-0.3
					s0.2-0.2,0.3-0.2c0.1,0,3,0.6,5.5,2.8c0.1,0.1,0.1,0.2,0,0.3C141.5,207.4,141.4,207.4,141.4,207.4z"/>
			</g>
			<g id="XMLID_1840_">
				<path id="XMLID_1841_" class="st0" d="M143.1,206c-0.1,0-0.1,0-0.2-0.1c-2.1-2.2-5.2-2.6-5.2-2.6c-0.1,0-0.2-0.1-0.2-0.3
					c0-0.1,0.1-0.2,0.3-0.2c0.1,0,3.3,0.5,5.5,2.8c0.1,0.1,0.1,0.3,0,0.3C143.2,206,143.2,206,143.1,206z"/>
			</g>
			<g id="XMLID_1838_">
				<path id="XMLID_1839_" class="st0" d="M144.7,204.3c-0.1,0-0.1,0-0.2-0.1c-2.3-1.9-5.2-2.6-5.2-2.6c-0.1,0-0.2-0.2-0.2-0.3
					c0-0.1,0.2-0.2,0.3-0.2c0.1,0,3.1,0.7,5.5,2.7c0.1,0.1,0.1,0.2,0,0.3C144.8,204.3,144.8,204.3,144.7,204.3z"/>
			</g>
			<g id="XMLID_1836_">
				<path id="XMLID_1837_" class="st0" d="M146.2,202.8c-0.1,0-0.1,0-0.2-0.1c-2.4-2.2-5.3-2.6-5.3-2.6c-0.1,0-0.2-0.1-0.2-0.3
					c0-0.1,0.2-0.2,0.3-0.2c0.1,0,3.1,0.5,5.6,2.8c0.1,0.1,0.1,0.2,0,0.3C146.3,202.7,146.3,202.8,146.2,202.8z"/>
			</g>
		</g>
	</g>
	<g id="XMLID_1825_">
		<path id="XMLID_1816_" class="st0" d="M139.9,216.9c-0.9,0.5-2.4,1.6-2.6,3.9s1.4,4.6,5.7,5.7s12.1,2.3,23.4-1.9
			s11.6-6.7,11.5-8.5s-0.3-1.6-1-2.3S139.9,216.9,139.9,216.9z"/>
		<path id="XMLID_1815_" class="st1" d="M160.6,203.1c0,0-3.4,6.5-11.9,9.7s-10.6,4.2-9.7,6.4s6,5.9,16.6,4.3s18.6-5.2,21.8-9
			c0,0,0.5-3.7-1.5-10.6L160.6,203.1z"/>
		<g id="XMLID_1818_">
			<g id="XMLID_1817_">
				<path id="XMLID_1832_" class="st0" d="M171,219.3C171,219.3,171,219.3,171,219.3c-0.1,0-0.3-0.1-0.2-0.3c0-0.1,0-2.6-2.1-3.7
					c-2.6-1.4-4.5-1-6.7,0.1c-2.4,1.2-3.9,1.7-6.8-0.1c-2.7-1.8-5.4-2.6-6.2-2.4c-0.1,0-0.3-0.1-0.3-0.2c0-0.1,0.1-0.3,0.2-0.3
					c0.9-0.1,3.6,0.6,6.6,2.5c2.6,1.7,3.9,1.3,6.3,0.1c2.3-1.1,4.3-1.5,7.1-0.1c2.4,1.2,2.4,4,2.4,4.1
					C171.3,219.2,171.1,219.3,171,219.3z"/>
			</g>
			<g id="XMLID_1819_">
				<path id="XMLID_1831_" class="st0" d="M155.4,215.4c-0.1,0-0.2-0.1-0.2-0.2c0-0.1,0-0.3,0.2-0.3c6.5-2.2,10.9-9.1,10.9-9.2
					c0.1-0.1,0.2-0.1,0.3-0.1c0.1,0.1,0.2,0.2,0.1,0.3C166.6,206,162.1,213,155.4,215.4C155.4,215.4,155.4,215.4,155.4,215.4z"/>
			</g>
			<g id="XMLID_1820_">
				<path id="XMLID_1830_" class="st0" d="M157.4,214.4c-0.1,0-0.1,0-0.2-0.1c-2.3-2.1-5.6-2.6-5.6-2.6c-0.1,0-0.2-0.1-0.2-0.3
					c0-0.1,0.1-0.2,0.3-0.2c0.1,0,3.5,0.6,5.9,2.7c0.1,0.1,0.1,0.2,0,0.4C157.6,214.3,157.5,214.4,157.4,214.4z"/>
			</g>
			<g id="XMLID_1821_">
				<path id="XMLID_1829_" class="st0" d="M159.7,212.9c-0.1,0-0.1,0-0.2-0.1c-2.4-2.2-5.3-2.8-5.4-2.8c-0.1,0-0.2-0.2-0.2-0.3
					s0.2-0.2,0.3-0.2c0.1,0,3.1,0.6,5.6,2.9c0.1,0.1,0.1,0.3,0,0.4C159.9,212.9,159.8,212.9,159.7,212.9z"/>
			</g>
			<g id="XMLID_1822_">
				<path id="XMLID_1828_" class="st0" d="M161.5,211.5c-0.1,0-0.1,0-0.2-0.1c-2.2-2.2-5.3-2.7-5.4-2.7c-0.1,0-0.2-0.1-0.2-0.3
					c0-0.1,0.1-0.2,0.3-0.2c0.1,0,3.4,0.5,5.6,2.9c0.1,0.1,0.1,0.3,0,0.4C161.6,211.4,161.6,211.5,161.5,211.5z"/>
			</g>
			<g id="XMLID_1823_">
				<path id="XMLID_1827_" class="st0" d="M163.2,209.8c-0.1,0-0.1,0-0.2-0.1c-2.3-2-5.4-2.7-5.4-2.7c-0.1,0-0.2-0.2-0.2-0.3
					c0-0.1,0.2-0.2,0.3-0.2c0.1,0,3.2,0.7,5.6,2.8c0.1,0.1,0.1,0.2,0,0.4C163.3,209.7,163.2,209.8,163.2,209.8z"/>
			</g>
			<g id="XMLID_1824_">
				<path id="XMLID_1826_" class="st0" d="M164.7,208.2c-0.1,0-0.1,0-0.2-0.1c-2.5-2.2-5.5-2.7-5.5-2.7c-0.1,0-0.2-0.1-0.2-0.3
					s0.2-0.2,0.3-0.2c0.1,0,3.2,0.5,5.7,2.8c0.1,0.1,0.1,0.3,0,0.4C164.8,208.1,164.8,208.2,164.7,208.2z"/>
			</g>
		</g>
	</g>
	<g id="XMLID_1833_">
		<path id="XMLID_1854_" class="st2" d="M139.1,217.5c0,0-0.1,0-0.1,0c-0.1-0.1-0.1-0.2-0.1-0.3c0,0,0.8-1.3,4.9-2.7
			c4-1.4,4.5-1.5,5-1.5c0.1,0-0.9,0.6-4.8,2c-3.8,1.4-4.6,2.5-4.6,2.5C139.2,217.4,139.2,217.5,139.1,217.5z"/>
	</g>
	<g id="XMLID_1856_">
		<path id="XMLID_1858_" class="st3" d="M137,221.5c0-0.1-0.2-2.6,1.3-3.9c0.1-0.1,0.6-0.3,0.7-0.2c0.1,0.1,0.2,0.1,0,0.2
			c-0.3,0.2-0.7,0.7-0.9,1c-0.8,1.2-0.8,2.7-0.8,2.8c0,0.1,0.1,0.1-0.1,0.1C137.2,221.5,137,221.5,137,221.5z"/>
	</g>
</g>
</svg>
