<?xml version="1.0" encoding="utf-8"?>
<!-- Generator: Adobe Illustrator 19.0.0, SVG Export Plug-In . SVG Version: 6.00 Build 0)  -->
<svg version="1.1" id="Camada_1" xmlns="http://www.w3.org/2000/svg" xmlns:xlink="http://www.w3.org/1999/xlink" x="0px" y="0px"
	 viewBox="0 0 297.6 425.2" style="enable-background:new 0 0 297.6 425.2;" xml:space="preserve">
<style type="text/css">
	.st0{fill:#231F20;}
	.st1{fill:#C4C4C5;}
</style>
<g id="XMLID_1011_">
	<path id="XMLID_1015_" class="st0" d="M175.9,307.1c0,0-0.7-0.3-1-1c-0.3-0.7-1.7-3.7-1.7-4.6c0-0.9,3.1-2.3,5.6-0.5
		c0,0-0.8-1.1,3.4-3.2c4.2-2.1,6.6,0.3,7,1.1c0.5,0.8,0.9,3.7,0.7,4.8s-1.1,2.4-1.1,2.4s3.9,6.1,9.9,9.1c6,2.9,9.7,3.4,12.3,7.1
		c2.5,3.7,1.4,7,1.4,7s-5.5,5.6-16.1,5.1c-10.5-0.5-16.5-6-17.6-7.3c-1.1-1.3-2.3-2.6-2.1-5.4c0.2-2.8,0.5-9.4,0.2-10.9
		C176.6,309.3,175.9,308.5,175.9,307.1z"/>
	<g id="XMLID_1012_">
		<path id="XMLID_1016_" class="st0" d="M138.8,307.9c0,0-1.6-2.6-1.6-4.8c0-2.1,0.4-2.7,1-2.9c0.6-0.2,5.1-1.4,9,2.1
			c0,0,0.9-1.6,3.5-0.9c2.6,0.7,2.4,2.4,2.3,2.8c-0.1,0.4-1,3.3-1,4.3s1.9,6.7,2.8,8.7c1,1.9,0.4,5.2-0.7,6.7s-3.3,4.9-14.7,8.1
			c-11.4,3.2-23.6,1.2-25.6-2.5c0,0-0.7-7.5,5-11.4c5.7-3.9,8-2.1,14.8-5.5C139.6,309.7,138.8,307.9,138.8,307.9z"/>
		<path id="XMLID_1014_" class="st1" d="M155.2,318c1,1.9,0.4,5.2-0.7,6.7c-1.1,1.5-3.4,4.9-15,8.1c-11.6,3.2-24,1.2-26-2.5
			c0,0-0.2-2.5,0.6-5.3c0,0,0.5-2.2,7.9-1.2c7.5,1,8,5.5,8,5.5s8.3-0.8,16.2-4.4C148.9,323.7,153.6,321.7,155.2,318z"/>
		<path id="XMLID_1017_" class="st1" d="M176.7,322.1c1,1.5,3.8,4.1,9.3,6.6c5.4,2.5,9.4,1.9,9.4,1.9c0.7-3.7,7.9-5.1,7.9-5.1
			c8-1.6,9.1-0.2,9.4,0.7c0.6,2.2,0,3.9,0,3.9s-5.6,5.6-16.3,5.1c-10.7-0.5-16.7-6-17.8-7.3c-1.1-1.3-2.3-2.6-2.1-5.4
			C176.5,322.3,176.7,322.1,176.7,322.1z"/>
		<g id="XMLID_1018_">
			<path id="XMLID_1027_" class="st1" d="M195.1,331.1C195.1,331.1,195,331.1,195.1,331.1c-0.2,0-0.1-0.3-0.2-0.3
				c-0.2,0,0.2-2.4-0.3-4.4c-0.5-2-2.2-3.6-7-7.7c-4.6-3.9-6.5-9.6-6.7-10.2c-1.5-1.8-2-4-2.1-5.5c-0.1-1.8,0.2-2,0.2-1.9
				c0,0-0.2,4.1,2.4,7.1c0,0,0,0.1,0,0.1c0,0.1,1.9,6,6.6,10c4.9,4.1,6.6,5.9,7.2,8c0.5,2.1,0.4,4.5,0.4,4.6
				C195.3,331,195.2,331.1,195.1,331.1z"/>
		</g>
		<g id="XMLID_1019_">
			<path id="XMLID_1028_" class="st1" d="M184.2,328.4c-0.1,0-0.2-0.1-0.2-0.2c-0.8-2.2-1.1-5.9-1.2-7.9c0-0.6-0.6-1.2-0.8-1.2
				c-3.2-1.3-4.9-3.2-4.9-3.3c0-0.1-0.1-0.1-0.1-0.3c0-0.2,0-0.3,0.1-0.2c0,0,2,2,5.1,3.3c0.4,0.1,1.1,0.9,1.1,1.7
				c0.1,2,0.4,5.6,1.2,7.8C184.5,328.2,184.4,328.3,184.2,328.4C184.3,328.4,184.2,328.4,184.2,328.4z"/>
		</g>
		<g id="XMLID_1020_">
			<path id="XMLID_1026_" class="st1" d="M181,308.7c0,0-0.1,0-0.1,0c-2.9-1.6-4.6-1.5-4.6-1.5c-0.1,0-0.3,0.1-0.3,0
				c0-0.1,1-0.5,2.3-0.2c0.8,0.2,1.7,0.5,2.9,1.2c0.1,0.1,0.2,0.2,0.1,0.3C181.1,308.6,181,308.7,181,308.7z"/>
		</g>
		<g id="XMLID_1021_">
			<path id="XMLID_1033_" class="st1" d="M183,307.6c-0.1,0-0.2-0.1-0.2-0.1c-0.1-0.1-1.5-3.2-1.1-5c0,0,0-0.1,0.1-0.1
				c0,0,3.4-3.2,6.7-0.9c0,0,0.1,0.1,0.1,0.1c0,0.1,0.7,1.8-0.8,4.8c-0.1,0.1-0.2,0.2-0.3,0.1c-0.1-0.1-0.2-0.2-0.1-0.3
				c1.2-2.5,0.9-4,0.8-4.4c-2.8-1.9-5.6,0.4-6,0.8c-0.4,1.7,1,4.6,1,4.6c0.1,0.1,0,0.3-0.1,0.3C183,307.6,183,307.6,183,307.6z"/>
		</g>
		<g id="XMLID_1022_">
			<path id="XMLID_1029_" class="st1" d="M130.1,329.6c-0.1,0-0.2-0.1-0.2-0.2c0-0.2-0.5-4,1.9-7.1c1.6-2.1,3.1-3.1,5-4.3
				c0.9-0.6,1.9-1.2,3-2.1c3.5-2.6,5.7-4.9,6.3-6.1c0,0,2-4.2,1.3-7.1c0-0.1-0.2-0.3,0-0.3c0.1,0,0.3,0.7,0.4,0.9
				c0.7,3.1-1.1,6.6-1.2,6.8c-0.6,1.2-2.7,3.5-6.5,6.3c-1.1,0.9-2.1,1.5-3,2.1c-1.9,1.3-3.3,2.2-4.9,4.2c-2.2,2.9-1.6,6.7-1.6,6.8
				C130.5,329.6,130.2,329.6,130.1,329.6C130.1,329.6,130.1,329.6,130.1,329.6z"/>
		</g>
		<g id="XMLID_1023_">
			<path id="XMLID_1030_" class="st1" d="M146.3,310.1c-0.1,0-0.1,0-0.2-0.1c-0.1-0.1-0.1-0.3,0-0.4c1.6-1.4,3.4-1.7,4.5-1.7
				c0.7,0,1.4,0.2,1.5,0.3c0,0.1-0.2,0.1-0.3,0.1c0,0-2.8-0.4-5.3,1.7C146.4,310.1,146.4,310.1,146.3,310.1z"/>
		</g>
		<g id="XMLID_1024_">
			<path id="XMLID_1032_" class="st1" d="M144,309.8C144,309.8,143.9,309.8,144,309.8c-0.2-0.1-0.3-0.2-0.2-0.3
				c0.7-1.9,0.5-3.8,0.5-4.3c-3.6-2.5-6.8-1.4-6.9-1.4c-0.1,0-0.1,0-0.2-0.1c0-0.1,0-0.3,0-0.4c0.1,0,3.6-1.2,7.4,1.6
				c0.1,0,0.1,0.1,0.1,0.2c0,0.1,0.4,2.4-0.5,4.6C144.2,309.8,144.1,309.8,144,309.8z"/>
		</g>
		<g id="XMLID_1025_">
			<path id="XMLID_1031_" class="st1" d="M144,326.6C144,326.6,144,326.6,144,326.6c-0.2-0.1-0.3-0.2-0.2-0.3c0,0,1.4-3.6,2.2-6
				l0.1-0.3c0.7-2.1,0.9-2.8,2.6-3.5c1.8-0.8,3.5-1.6,4.7-3.1c0-0.1,0.1,0,0.2,0.1c0.1,0.2,0.1,0.3,0,0.4c-1.3,1.5-2.9,2.2-4.7,3
				c-1.5,0.7-1.7,1.1-2.3,3.2l-0.1,0.3c-0.8,2.5-2.2,6-2.2,6.1C144.2,326.5,144.1,326.6,144,326.6z"/>
		</g>
		<g id="XMLID_1034_">
			<path id="XMLID_1054_" class="st1" d="M129.4,314.2c2.1,0.3,5.6,1.1,8,3.6c0.8-0.6,1.8-1.2,2.8-1.9c-2.7-2.4-6.8-2.8-7.8-2.8
				C131.3,313.6,130.3,313.9,129.4,314.2z"/>
			<path id="XMLID_1055_" class="st1" d="M136,311.2c-0.5,0.3-1.1,0.7-1.9,1.1c2,0.3,4.9,1,6.9,3.1c0.9-0.7,1.7-1.4,2.4-2
				C140.8,311,137,311.1,136,311.2z"/>
			<path id="XMLID_1056_" class="st1" d="M126.4,314.9c-2.1,0.5-3.9,0.8-5.5,1.9c8.2-0.4,13,3.3,13,3.3s1-0.7,2.6-1.8
				c-1.9-1.8-4.5-2.7-6.4-3C129.1,315.1,127.3,315,126.4,314.9z"/>
			<path id="XMLID_1057_" class="st1" d="M138.6,308.9c-0.1,0.3-0.5,0.7-1.1,1.2c1.8,0.1,4.5,0.5,6.6,2.4c1.2-1.3,1.7-2.3,1.7-2.3
				C143.5,307.8,138.6,308.9,138.6,308.9z"/>
			<path id="XMLID_1058_" class="st1" d="M196.2,313.5c-0.7-0.5-1.3-1-1.9-1.5c-5.5-0.4-9.5,2.5-10.1,3c0.5,0.7,1.1,1.5,1.8,2.2
				C186.7,316.6,191,313.5,196.2,313.5z"/>
			<path id="XMLID_1059_" class="st1" d="M190.8,308.5c-1.2-1.4-1.9-2.4-1.9-2.4s-5.6,0.2-7.9,2.3c0,0,0.3,1.1,1,2.7
				C182.9,310.4,186.2,308.3,190.8,308.5z"/>
			<path id="XMLID_1060_" class="st1" d="M202.2,316.7c0-0.1-2-0.9-3.1-1.4c-0.5-0.2-1-0.5-1.5-0.8c-0.8,0-2,0-2.5,0.1
				c-4.2,0.3-7.6,2.7-8.4,3.3c3.6,3.4,3.5,2.6,3.5,2.6S196.3,316,202.2,316.7z"/>
			<path id="XMLID_1061_" class="st1" d="M193.3,311.1c-0.6-0.6-1.2-1.2-1.7-1.7c-4.8-0.3-8.6,2.1-9.2,2.5c0.4,0.7,0.8,1.5,1.3,2.2
				C184.5,313.5,188.1,311,193.3,311.1z"/>
		</g>
	</g>
</g>
</svg>
