<?xml version="1.0" encoding="utf-8"?>
<!-- Generator: Adobe Illustrator 19.0.0, SVG Export Plug-In . SVG Version: 6.00 Build 0)  -->
<svg version="1.1" id="Camada_1" xmlns="http://www.w3.org/2000/svg" xmlns:xlink="http://www.w3.org/1999/xlink" x="0px" y="0px"
	 viewBox="0 0 297.6 425.2" style="enable-background:new 0 0 297.6 425.2;" xml:space="preserve">
<style type="text/css">
	.st0{fill:#ABB9DE;}
	.st1{fill:#38457C;}
</style>
<g id="XMLID_1_">
	<g id="XMLID_698_">
		<path id="XMLID_1005_" class="st0" d="M211.2,327.1c-0.3,2.2-2.3,1.9-2.3,1.9c-1.4,2.3-4.2,1.5-4.2,1.5c-1.8,1.7-4.2,0.7-4.2,0.7
			c-2.6,1.4-4.4-0.1-4.4-0.1s-2.8,1.8-7.9-0.7s-8.4-5.2-9.8-8.3c-0.4-1-0.6-2.5-0.6-4.1c-1.6,1.1-0.9,5.1-0.9,5.1s0.2,1.5,0.2,1.6
			s3.9,4.1,3.9,4.1l7.2,4l4,1.5l4.7,0.2l3.2-0.1l4.2-1.3l4.4-1.8l2.3-2.2l0.2-2.5l0-0.1C211.2,326.7,211.2,326.9,211.2,327.1z"/>
		<path id="XMLID_1013_" class="st0" d="M152.4,323.2c-2.2,1.6-9.8,5.1-16.5,6.4c-6.8,1.3-9.2-0.7-9.2-0.7c-2.4,1.2-4-0.4-4-0.4
			c-2.5,0.8-3.4-0.7-3.4-0.7c-2.6,0.1-2.7-1.8-2.7-1.8s-1-0.4-1.1-2.2c-1.1,1.2-0.4,3.7-0.4,3.7l6.1,3.4l5.1,1.1l3.8,0.2l5.5-0.5
			l4.4-0.8l7.1-2.3l6.9-4.7c0,0,1.7-2.2,1.5-4.4c0-0.5-0.3-0.9-0.7-1.1C154.9,320.4,154,322,152.4,323.2z"/>
	</g>
	<path id="XMLID_1006_" class="st1" d="M122.3,317.1c0,0,2.6,1,4,4.4c0,0,0,1.4,0.1,2.2c0.8-0.6,1.7-1,2.7-1.5
		c1.4-0.8,6.2-1.6,10.8,0.4s5.6,4.6,6.2,5.5c0,0,2-0.2,3.5-1.5c0,0-0.7-5.4-7.9-7.5c-6.3-1.9-11.4-0.4-13.2,0.7c0,0-0.3-3-1.9-4.1
		S122.3,317.1,122.3,317.1z"/>
	<path id="XMLID_1007_" class="st1" d="M179,326c-0.4-0.6-0.3-3.4,2.1-5.4c2.4-2,6.2-3.5,12.5-0.7c0,0,2-3,5.6-3.3
		c3.6-0.3,5.6,1.9,5.8,3c0,0-2.2-1.5-5.9,0.1c-2.4,1.1-3,1.8-3.1,2.1c-0.1,0.2,0,2.4,0,2.4s-0.7-0.5-1.9-1c-0.3-0.3-2.3-2.3-5.7-2
		c-3.4,0.2-7.7,2.9-7.2,6.8C181.1,327.9,179.6,327,179,326z"/>
	<path id="XMLID_1008_" class="st1" d="M115.5,323.9c0,0-1.2,0.6-1,3.4c0.2,2.8,1.1,3.2,1.1,3.2s4.9,4.4,17.8,3.7
		c14.8-0.7,22-9.4,22-9.4s0.8-2.6-0.2-5.7c0,0,1,4.9-10.7,9.3c-11.7,4.4-22.7,1.7-24.7,0.9C118,328.4,113.9,326.6,115.5,323.9z"/>
	<path id="XMLID_1009_" class="st1" d="M177.1,318.7c-0.7,0.7-1.1,5.3-0.9,7.3c0.2,2,6.3,9.2,18,10.6c11.7,1.4,17-4.7,17-4.7
		s0.9-2.5-0.1-5.6c0,0,0.3,2.3-2.8,4.3c-2.9,1.9-8.1,3.5-16.4,1.9C182.1,330.5,176.8,325.5,177.1,318.7z"/>
</g>
</svg>
