<?xml version="1.0" encoding="utf-8"?>
<!-- Generator: Adobe Illustrator 19.0.0, SVG Export Plug-In . SVG Version: 6.00 Build 0)  -->
<svg version="1.1" id="Camada_1" xmlns="http://www.w3.org/2000/svg" xmlns:xlink="http://www.w3.org/1999/xlink" x="0px" y="0px"
	 viewBox="0 0 297.6 425.2" style="enable-background:new 0 0 297.6 425.2;" xml:space="preserve">
<style type="text/css">
	.st0{fill:#CAA2CB;}
	.st1{fill:#EACEB1;}
</style>
<g id="XMLID_1140_">
	<g id="XMLID_1149_">
		<path id="XMLID_1151_" class="st0" d="M98.8,216.4c-0.4-0.9-0.9-4.1,0.6-6.2s4.2-4.2,8.5-4.2s7.1,2.8,10.7,3.3
			c3.6,0.6,14.1-1.1,19.1-7.8c0,0,3.8,4.8,2.5,9.4c0,0-5.1,7.3-20.8,9.5C103.5,222.4,99.5,218,98.8,216.4z"/>
		<path id="XMLID_1150_" class="st0" d="M162.9,201.1c-0.3-0.5-2,5.8-0.9,10.8c0,0,6.3,9.6,18.5,11.2c12.2,1.7,15.7-2.7,15.8-3.2
			s2.2-6-3.1-10.3c-5.3-4.3-12.5-2.1-16.2-0.3S167.9,208.9,162.9,201.1z"/>
	</g>
	<g id="XMLID_1145_">
		<path id="XMLID_1155_" class="st1" d="M119.3,220.3c15.8-2.2,20.8-9.5,20.8-9.5c0.3-1,0.3-2,0.2-3c-3.2,3.7-11.1,8.6-21.2,10
			c-10.2,1.4-16.9-1.1-20.7-3c0.1,0.7,0.2,1.2,0.3,1.5C99.4,218,103.5,222.4,119.3,220.3z"/>
		<path id="XMLID_1157_" class="st1" d="M180.4,223.1c12.2,1.7,15.7-2.7,15.8-3.2c0.1-0.2,0.4-1.2,0.5-2.6
			c-3.5,1.8-10.3,4.5-18.2,2.7c-10.2-2.4-15-8.3-17-11.6c0,1.2,0.1,2.3,0.4,3.4C161.9,211.9,168.3,221.4,180.4,223.1z"/>
	</g>
</g>
</svg>
