<?xml version="1.0" encoding="utf-8"?>
<!-- Generator: Adobe Illustrator 19.0.0, SVG Export Plug-In . SVG Version: 6.00 Build 0)  -->
<svg version="1.1" id="Camada_1" xmlns="http://www.w3.org/2000/svg" xmlns:xlink="http://www.w3.org/1999/xlink" x="0px" y="0px"
	 viewBox="0 0 297.6 425.2" style="enable-background:new 0 0 297.6 425.2;" xml:space="preserve">
<style type="text/css">
	.st0{fill:#FBDCB3;}
	.st1{fill:#DC9D5A;}
</style>
<g id="XMLID_1116_">
	<g id="XMLID_1141_">
		<path id="XMLID_1142_" class="st0" d="M152.4,323.1c-2.2,1.6-9.8,5.1-16.5,6.4c-6.8,1.3-9.2-0.7-9.2-0.7c-2.4,1.2-4-0.4-4-0.4
			c-2.5,0.8-3.4-0.7-3.4-0.7c-2.6,0.1-2.7-1.8-2.7-1.8s-0.6-0.3-0.9-1.2c-1,0.6-0.7,1-0.7,1.4c0,0.5,0,0.9,0.2,2l1.2,1.7l6.6,3.1
			l6.8,0.5l7.3-0.4l8.1-2.2l8.5-5l0.6-3.7l-1,0.1C153,322.7,152.7,322.9,152.4,323.1z"/>
		<path id="XMLID_1146_" class="st0" d="M211.2,325.6c0,0.5,0,1,0,1.5c-0.3,2.2-2.3,1.9-2.3,1.9c-1.4,2.3-4.2,1.5-4.2,1.5
			c-1.8,1.7-4.2,0.7-4.2,0.7c-2.6,1.4-4.4-0.1-4.4-0.1s-2.8,1.8-7.9-0.7c-4.9-2.3-8-4.8-9.5-7.8l-0.4,0l0.2,3.6l2,2.2l4.2,3.1
			l6.7,2.9l5,0.6l4.9,1.1l5.9-2c0,0,4.9-3.3,5.4-5.6C212.6,326.8,211.7,325.9,211.2,325.6z"/>
	</g>
	<path id="XMLID_1123_" class="st1" d="M183.5,307.6c0,0,3.4,9,9.7,11.9l4.7-1.5c0,0-7.4-4.8-10.6-11.5
		C187.3,306.6,184.7,305.8,183.5,307.6z"/>
	<path id="XMLID_1133_" class="st1" d="M115,325.4c0-0.5-0.7,2.8,0.2,5.2c0,0,3.1,4.6,16.7,4.5s23.5-7.9,24.4-9.4
		c0,0,1.2-2.8,0.1-5.3c0,0-0.2,3.8-7,6.7c-3.3,1.4-5.6,2.4-8.2,3.1c-2.7,0.7-9.1,1.8-15.3,1C118.4,330.3,114.9,327.1,115,325.4z"/>
	<path id="XMLID_1136_" class="st1" d="M141.4,304.1c0,0,4.5,2.4,10.1,0.4c0,0,1.6,0.8,0.6,3.3c0,0-1.3,0.9-6.8,0.5s-5-1.9-5-1.9
		S140.3,304.9,141.4,304.1z"/>
	<path id="XMLID_1135_" class="st1" d="M120.4,318.5c0,0-0.2-1.2,1.4-1.8s4.6-1.7,4.6-1.7s5.4-0.8,11,3.8s4.7,11.1,4.7,11.1
		l-3.7,2.4c0,0,0.8-5-1.6-8.2s-5.3-5.2-9.2-6C123.7,317.4,122.3,317.8,120.4,318.5z"/>
	<path id="XMLID_1138_" class="st1" d="M151.4,307.6c0,0,2.6,9.3-1.6,19.6c0,0,5.4-0.8,6.3-5.6c0,0,0.6-2.5-0.8-6.7
		s-3.5-6.6-3.6-7.7S151.4,307.6,151.4,307.6z"/>
	<path id="XMLID_1137_" class="st1" d="M128,315.1c0,0,7.8-1.3,12.7-8.2l3.1,0.8c0,0-1.9,6.2-10.1,9.6
		C133.7,317.4,127.4,316.8,128,315.1z"/>
	<path id="XMLID_1124_" class="st1" d="M182,328.8c0,0,0.7-5,5.6-8.3s9.2-3.8,13.2-3.5s8.3,3,7.3,4.3c0,0-5.3-3.4-14-0.6
		s-9.1,10-9.1,10S183.1,330.3,182,328.8z"/>
	<path id="XMLID_1134_" class="st1" d="M177.1,321.7l-0.5,0.8l0.1,4.3c0,0,2.9,7,14.4,9.7s18-0.9,21.1-4c0,0,1.1-1.2,0.2-5
		c0,0-0.3,4.1-9.8,6.1s-18.9-3.2-22.8-7.1c0,0-2.6-3.6-2.6-5.1"/>
	<path id="XMLID_1132_" class="st1" d="M177.8,308.2c-0.2,1.2-0.8,6.4-1,8.6s-1.1,6.6,3.9,10.8c0,0-1.6-4.3-1.7-9.4
		s-0.1-10.1-0.1-10.1S178.1,306.5,177.8,308.2z"/>
	<path id="XMLID_1139_" class="st1" d="M176.7,305.7c-0.4,0,0.1,2.3,0.4,2.9s5.4,0.1,8.4-0.8s4.2-1.7,4.4-2.1s-0.6-2-1.6-2.6
		C188.4,303.1,184.9,305.9,176.7,305.7z"/>
</g>
</svg>
