<?xml version="1.0" encoding="utf-8"?>
<!-- Generator: Adobe Illustrator 19.0.0, SVG Export Plug-In . SVG Version: 6.00 Build 0)  -->
<svg version="1.1" id="Camada_1" xmlns="http://www.w3.org/2000/svg" xmlns:xlink="http://www.w3.org/1999/xlink" x="0px" y="0px"
	 viewBox="0 0 297.6 425.2" style="enable-background:new 0 0 297.6 425.2;" xml:space="preserve">
<style type="text/css">
	.st0{fill:#FBDCB4;}
	.st1{fill:#DC9E5A;}
</style>
<g id="XMLID_1116_">
	<g id="XMLID_1141_">
		<path id="XMLID_1142_" class="st0" d="M137.2,215.4c-2.2,1.6-9.7,5.1-16.5,6.4c-6.8,1.3-9.2-0.7-9.2-0.7c-2.4,1.2-4-0.4-4-0.4
			c-2.5,0.8-3.4-0.7-3.4-0.7c-2.6,0.1-2.7-1.8-2.7-1.8s-0.6-0.3-0.9-1.2c-1,0.6-0.7,1-0.7,1.4c0,0.5,0,0.9,0.2,2l1.2,1.7l6.6,3.1
			l6.8,0.5l7.3-0.4l8.1-2.2l8.5-5l0.6-3.7l-1,0.1C137.8,214.9,137.5,215.2,137.2,215.4z"/>
		<path id="XMLID_1146_" class="st0" d="M196,217.8c0,0.5,0,1,0,1.5c-0.3,2.2-2.3,1.9-2.3,1.9c-1.4,2.3-4.2,1.5-4.2,1.5
			c-1.8,1.7-4.2,0.7-4.2,0.7c-2.6,1.4-4.4-0.1-4.4-0.1s-2.8,1.8-7.9-0.7c-4.9-2.3-8-4.8-9.5-7.8l-0.4,0l0.2,3.6l2,2.2l4.2,3.1
			l6.7,2.9l5,0.6l4.9,1.1l5.9-2c0,0,4.9-3.3,5.4-5.6C197.5,219,196.6,218.2,196,217.8z"/>
	</g>
	<path id="XMLID_1123_" class="st1" d="M168.4,199.9c0,0,3.4,9,9.7,11.9l4.7-1.5c0,0-7.4-4.8-10.6-11.5
		C172.1,198.8,169.6,198,168.4,199.9z"/>
	<path id="XMLID_1133_" class="st1" d="M99.8,217.7c0-0.5-0.7,2.8,0.2,5.2c0,0,3.1,4.6,16.7,4.5s23.5-7.9,24.4-9.4
		c0,0,1.2-2.8,0.1-5.3c0,0-0.2,3.8-7,6.7c-3.3,1.4-5.6,2.4-8.2,3.1c-2.7,0.7-9.1,1.8-15.3,1C103.3,222.5,99.8,219.4,99.8,217.7z"/>
	<path id="XMLID_1136_" class="st1" d="M126.3,196.3c0,0,4.5,2.4,10.1,0.4c0,0,1.6,0.8,0.6,3.3c0,0-1.3,0.9-6.8,0.5
		c-5.5-0.3-5-1.9-5-1.9S125.2,197.2,126.3,196.3z"/>
	<path id="XMLID_1135_" class="st1" d="M105.2,210.8c0,0-0.2-1.2,1.4-1.8s4.6-1.7,4.6-1.7s5.4-0.8,11,3.8s4.7,11.1,4.7,11.1
		l-3.7,2.4c0,0,0.8-5-1.6-8.2s-5.3-5.2-9.2-6S107.1,210,105.2,210.8z"/>
	<path id="XMLID_1138_" class="st1" d="M136.3,199.8c0,0,2.6,9.3-1.6,19.6c0,0,5.4-0.8,6.3-5.6c0,0,0.6-2.5-0.8-6.7
		s-3.5-6.6-3.6-7.7S136.3,199.8,136.3,199.8z"/>
	<path id="XMLID_1137_" class="st1" d="M112.8,207.4c0,0,7.8-1.3,12.8-8.2l3.1,0.8c0,0-1.9,6.2-10.1,9.6
		C118.6,209.6,112.3,209,112.8,207.4z"/>
	<path id="XMLID_1124_" class="st1" d="M166.9,221c0,0,0.7-5,5.6-8.3s9.2-3.8,13.2-3.5s8.3,3,7.3,4.3c0,0-5.3-3.4-14-0.6
		s-9.1,10-9.1,10S167.9,222.6,166.9,221z"/>
	<path id="XMLID_1134_" class="st1" d="M162,213.9l-0.5,0.8l0.1,4.3c0,0,2.9,7,14.4,9.7s18-0.9,21.1-4c0,0,1.1-1.2,0.2-5
		c0,0-0.3,4.1-9.8,6.1s-18.9-3.2-22.8-7.1c0,0-2.6-3.6-2.6-5.1"/>
	<path id="XMLID_1132_" class="st1" d="M162.7,200.4c-0.2,1.2-0.8,6.4-1,8.6s-1.1,6.6,3.9,10.8c0,0-1.6-4.3-1.7-9.4
		s-0.1-10.1-0.1-10.1S162.9,198.8,162.7,200.4z"/>
	<path id="XMLID_1139_" class="st1" d="M161.6,197.9c-0.4,0,0.1,2.3,0.4,2.9s5.4,0.1,8.4-0.8s4.2-1.7,4.4-2.1s-0.6-2-1.6-2.6
		C173.3,195.3,169.8,198.2,161.6,197.9z"/>
</g>
</svg>
