<?xml version="1.0" encoding="utf-8"?>
<!-- Generator: Adobe Illustrator 19.0.0, SVG Export Plug-In . SVG Version: 6.00 Build 0)  -->
<svg version="1.1" id="Camada_1" xmlns="http://www.w3.org/2000/svg" xmlns:xlink="http://www.w3.org/1999/xlink" x="0px" y="0px"
	 viewBox="0 0 297.6 425.2" style="enable-background:new 0 0 297.6 425.2;" xml:space="preserve">
<style type="text/css">
	.st0{fill:#ACBADF;}
	.st1{fill:#38457C;}
</style>
<g id="XMLID_1_">
	<g id="XMLID_698_">
		<path id="XMLID_1005_" class="st0" d="M196.6,214.3c-0.3,2.2-2.3,1.9-2.3,1.9c-1.4,2.3-4.2,1.5-4.2,1.5c-1.8,1.7-4.2,0.7-4.2,0.7
			c-2.6,1.4-4.4-0.1-4.4-0.1s-2.8,1.8-7.9-0.7s-8.4-5.2-9.8-8.3c-0.4-1-0.6-2.5-0.6-4.1c-1.6,1.1-0.9,5.1-0.9,5.1s0.2,1.5,0.2,1.6
			s3.9,4.1,3.9,4.1l7.2,4l4,1.5l4.7,0.2l3.2-0.1l4.2-1.3l4.4-1.8l2.3-2.2l0.2-2.5l0-0.1C196.6,213.9,196.6,214.1,196.6,214.3z"/>
		<path id="XMLID_1013_" class="st0" d="M137.8,210.4c-2.2,1.6-9.8,5.1-16.5,6.4c-6.8,1.3-9.2-0.7-9.2-0.7c-2.4,1.2-4-0.4-4-0.4
			c-2.5,0.8-3.4-0.7-3.4-0.7c-2.6,0.1-2.7-1.8-2.7-1.8s-1-0.4-1.1-2.2c-1.1,1.2-0.4,3.7-0.4,3.7l6.1,3.4l5.1,1.1l3.8,0.2l5.5-0.5
			l4.4-0.8l7.1-2.3l6.9-4.7c0,0,1.7-2.2,1.5-4.4c0-0.5-0.3-0.9-0.7-1.1C140.4,207.6,139.4,209.2,137.8,210.4z"/>
	</g>
	<path id="XMLID_1006_" class="st1" d="M107.7,204.3c0,0,2.6,1,4,4.4c0,0,0,1.4,0.1,2.2c0.8-0.6,1.7-1,2.7-1.5
		c1.4-0.8,6.2-1.6,10.8,0.4c4.6,2,5.6,4.6,6.2,5.5c0,0,2-0.2,3.5-1.5c0,0-0.7-5.4-7.9-7.5c-6.3-1.9-11.4-0.4-13.2,0.7
		c0,0-0.3-3-1.9-4.1C110.5,201.8,107.7,204.3,107.7,204.3z"/>
	<path id="XMLID_1007_" class="st1" d="M164.4,213.2c-0.4-0.6-0.3-3.4,2.1-5.4c2.4-2,6.2-3.5,12.5-0.7c0,0,2-3,5.6-3.3
		c3.6-0.3,5.6,1.9,5.8,3c0,0-2.2-1.5-5.9,0.1c-2.4,1.1-3,1.8-3.1,2.1c-0.1,0.2,0,2.4,0,2.4s-0.7-0.5-1.9-1c-0.3-0.3-2.3-2.3-5.7-2
		c-3.4,0.2-7.7,2.9-7.2,6.8C166.5,215.1,165.1,214.2,164.4,213.2z"/>
	<path id="XMLID_1008_" class="st1" d="M100.9,211.1c0,0-1.2,0.6-1,3.4c0.2,2.8,1.1,3.2,1.1,3.2s4.9,4.4,17.8,3.7
		c14.8-0.7,22-9.4,22-9.4s0.8-2.6-0.2-5.7c0,0,1,4.9-10.7,9.3c-11.7,4.4-22.7,1.7-24.7,0.9C103.4,215.6,99.4,213.8,100.9,211.1z"/>
	<path id="XMLID_1009_" class="st1" d="M162.5,205.9c-0.7,0.7-1.1,5.3-0.9,7.3c0.2,2,6.3,9.2,18,10.6c11.7,1.4,17-4.7,17-4.7
		s0.9-2.5-0.1-5.6c0,0,0.3,2.3-2.8,4.3c-2.9,1.9-8.1,3.5-16.4,1.9C167.5,217.7,162.3,212.7,162.5,205.9z"/>
</g>
</svg>
