<?xml version="1.0" encoding="utf-8"?>
<!-- Generator: Adobe Illustrator 19.0.0, SVG Export Plug-In . SVG Version: 6.00 Build 0)  -->
<svg version="1.1" id="Camada_1" xmlns="http://www.w3.org/2000/svg" xmlns:xlink="http://www.w3.org/1999/xlink" x="0px" y="0px"
	 viewBox="0 0 297.6 425.2" style="enable-background:new 0 0 297.6 425.2;" xml:space="preserve">
<style type="text/css">
	.st0{fill:#765D54;}
</style>
<g id="XMLID_2_">
	<path id="XMLID_34_" class="st0" d="M146.4,211.4c0.4-0.5,1.3-2,1.4-2.1c0.1-0.1,0.3,0-0.4,1.2c-0.6,1.2-1.7,3-1.8,3.1
		s-0.2,1.6,3.4,3.5c0,0-0.4,0.3-2-0.7c-1.7-0.9-2.4-1.9-2.3-2.6C144.7,213.9,144.7,213.7,146.4,211.4z"/>
	<path id="XMLID_35_" class="st0" d="M151.3,216.8c0,0,0.4-1.1,1.3-1.4c0.8-0.4,0.8,0.5,0.8,0.5S152.3,216,151.3,216.8z"/>
</g>
</svg>
