<?xml version="1.0" encoding="utf-8"?>
<!-- Generator: Adobe Illustrator 19.0.0, SVG Export Plug-In . SVG Version: 6.00 Build 0)  -->
<svg version="1.1" id="Camada_1" xmlns="http://www.w3.org/2000/svg" xmlns:xlink="http://www.w3.org/1999/xlink" x="0px" y="0px"
	 viewBox="0 0 297.6 425.2" style="enable-background:new 0 0 297.6 425.2;" xml:space="preserve">
<style type="text/css">
	.st0{fill:#765D54;}
</style>
<g id="XMLID_325_">
	<path id="XMLID_326_" class="st0" d="M148.3,216.9c-0.5,0-0.9,0-1.4-0.1c-2-0.3-3.6-1.5-4-2.8c-0.2-0.7-0.1-1.4,0.5-1.8
		c1.9-1.3,2.5-2.9,2.7-2.8c0.1,0.1,0,0.5-0.1,0.8c0,0.1-0.6,1.3-2.1,2.7c-0.3,0.2-0.3,0.6-0.2,0.9c0.2,0.9,1.7,2,3.5,2.2
		c2.4,0.4,5.3-0.5,6-1.5c0.1-0.2,0.2-0.2,0.2,0.1C153.2,216,150.5,216.9,148.3,216.9z"/>
</g>
</svg>
