<?xml version="1.0" encoding="utf-8"?>
<!-- Generator: Adobe Illustrator 19.0.0, SVG Export Plug-In . SVG Version: 6.00 Build 0)  -->
<svg version="1.1" id="Camada_1" xmlns="http://www.w3.org/2000/svg" xmlns:xlink="http://www.w3.org/1999/xlink" x="0px" y="0px"
	 viewBox="0 0 297.6 425.2" style="enable-background:new 0 0 297.6 425.2;" xml:space="preserve">
<style type="text/css">
	.st0{fill:#DCB79D;}
	.st1{fill:#B18D7F;}
</style>
<g id="XMLID_8592_">
	<path id="XMLID_245_" class="st0" d="M208.1,321.4c-2.5-1.4-10.8-5.6-13.7-8.3s-7.4-8.4-10.2-18.8c-2.8-10.3-4.4-22.2-5.4-29.6
		s-3.3-26.5-4.2-30.4c-0.8-3.9-4.2-18.1-7.1-21.7c0,0-0.2-11.1,5.8-24.2c0,0,4.7,10.1,8,16.9h7.7c0.7-0.4,1.3-0.9,1.9-1.4
		c0.1-0.1,0.2-0.1,0.3-0.2c-0.2,0.1-0.2,0.1-0.1,0.1c0.1-0.1,0.1-0.1,0.2-0.2c0.1-0.1,0.2-0.1,0.3-0.2c0-0.1-0.1-0.2-0.1-0.2
		s-6-20.3-6.8-22.7s-1.7-4.7-5.6-6.2c-3.9-1.5-12.6-4.1-12.6-4.1l-0.2-9.8l-12.8,3.7l-0.3,5.7c0,0-5.3,1.6-8.5,2.5
		c-3.2,0.9-9.7,4.1-10.5,5.2c-0.8,1.2-2.3,6.3-1.8,18.7c0.5,12.3-0.2,17-0.2,17l-1.8,15.6c0,0-2.1,6-1.2,13.1
		c0.9,7.1,1.4,8.9,2.3,10.2s1.2,2,2.8,3.6c0,0,2.2,15.2,3.8,23.4c1.7,8.2,3.4,17.8,3.7,19.4c0.2,1.7,1,7.7-3.8,11.8
		c-4.8,4.1-15,7.4-16.1,7.8c-1.1,0.4-6.3,2.3-6.6,5s1.1,3.2,1.1,3.2s0.1,1.8,2.7,1.8c0,0,0.9,1.5,3.4,0.7c0,0,1.6,1.6,4,0.4
		c0,0,2.4,2,9.2,0.7c6.8-1.3,14.3-4.8,16.5-6.4c2.2-1.6,3.2-4.1,1.6-6.8c-1.6-2.8-3.1-12.5-3.2-15.8c-0.2-3.2,0.5-21.2,1.2-29.9
		s2.3-24.2,2.3-24.2s8.4,17.6,9,18.8s9.8,23.3,11.7,30.9c1.9,7.6,3.2,15.3,3.2,15.3s-1.2,7.3,0.2,10.5c1.3,3.2,4.6,5.9,9.8,8.3
		s7.9,0.7,7.9,0.7s1.8,1.5,4.4,0.1c0,0,2.4,1,4.2-0.7c0,0,2.8,0.8,4.2-1.5c0,0,2,0.2,2.3-1.9C211.4,324.9,210.6,322.8,208.1,321.4z"
		/>
	<path id="XMLID_244_" class="st0" d="M125.8,140c-0.3-0.4-1.7-2.6-2.8-5.3s-1.6-4-1.5-6.1s0.7-4.5,1.9-5s4.1,4,4.1,4L125.8,140z"/>
	<path id="XMLID_243_" class="st1" d="M166.5,162.1l-0.1-1.7l-12.8,3.7l-0.1,1.8C157.8,167.1,161.9,164.8,166.5,162.1z"/>
	<g id="XMLID_239_">
		<path id="XMLID_242_" class="st1" d="M124.9,124.2c-0.2,1.5,0,4.9,0,7.6c0,2.2,0,4.4-0.1,6.6c0.5,0.8,0.8,1.4,1,1.6l1.7-12.5
			C127.5,127.5,125.4,124.8,124.9,124.2z"/>
		<g id="XMLID_240_">
			<path id="XMLID_241_" class="st1" d="M125.5,131.2c-0.6-0.9-1.3-1.8-2.1-2.8c-0.2-0.2-0.4-0.4-0.7-0.4c-0.2,0,0.2,0.4,0.3,0.6
				c1.1,1.3,1.9,2.7,2.6,4C125.5,132.2,125.5,131.7,125.5,131.2z"/>
		</g>
	</g>
	<path id="XMLID_238_" class="st0" d="M126,141.8c-0.2-2.4-1.2-13.8-1.2-16.8c0.1-2.9,0.3-10.4,5.9-18.7C136.4,98.1,148,91.1,163,91
		c15-0.1,35.8,14,33.7,33.8c0,0,3.9,0.5,3.6,6.1c-0.3,5.6-3.8,10.2-6.4,12.4s-5.1,1.1-5.2,0.2c0,0,0.1,4.7-5.9,9.2
		c-6,4.6-20.2,10.3-24.8,11.7c-4.6,1.3-6.7,0.2-10-1.3c-3.3-1.6-9.1-5.2-13.1-8.7S126.3,145.4,126,141.8z"/>
	<g id="XMLID_236_">
		<path id="XMLID_237_" class="st1" d="M191.2,139.6C191.2,139.6,191.1,139.6,191.2,139.6c-0.4-0.1-0.5-0.3-0.5-0.6
			c0-0.2,1.2-5.9,5.6-10.8c0.2-0.2,0.4-0.4,0.7-0.4c0.2,0-0.2,0.4-0.3,0.6c-4.1,5.1-5,10.7-5,10.7
			C191.7,139.4,191.4,139.6,191.2,139.6z"/>
	</g>
	<g id="XMLID_234_">
		<path id="XMLID_235_" class="st1" d="M187.2,134.6c-0.1,0,0-0.4,0.1-0.7c0.1-0.4,2.2-7.4,7.5-9.3c0.4-0.1,1.3-0.3,1.7-0.1
			c0.3,0.2,0.2,0.4,0.1,0.4c-5.8,0.8-9,9.2-9.1,9.3C187.4,134.3,187.4,134.6,187.2,134.6z"/>
	</g>
	<g id="XMLID_215_">
		<g id="XMLID_225_">
			<g id="XMLID_232_">
				<path id="XMLID_233_" class="st1" d="M126.1,329.1c-0.4-0.4-1.2-1.4-1.3-2.7c0-1.7,1.3-2.8,4.4-4.3c0.1-0.1,0.4-0.2,0.4-0.1
					c0.1,0.1,0,0.2-0.2,0.2c-2.8,1.3-4.2,2.6-4.1,4.1c0,1.5,1.2,2.5,1.3,2.5C126.6,329,126.2,329.1,126.1,329.1z"/>
			</g>
			<g id="XMLID_230_">
				<path id="XMLID_231_" class="st1" d="M122.1,328.7c-0.4-0.7-0.9-2.4-0.2-3.7c0.7-1.3,1.7-2,3.8-2.9c0.2-0.1,0.4-0.1,0.6-0.2
					c0.4-0.2,1-0.1,0,0.3c-2.5,1-3.2,1.7-3.9,3c-0.6,1.3,0,3,0.3,3.3C122.6,328.5,122.2,328.6,122.1,328.7z"/>
			</g>
			<g id="XMLID_228_">
				<path id="XMLID_229_" class="st1" d="M118.7,327.8c-0.2-0.6-0.6-2.1,0.1-3.5c0.9-1.8,4-2.8,4.1-2.9c0.1-0.1,0.3,0,0.3,0
					c0.1,0.1-0.1,0.2-0.3,0.2c0,0-3,1.3-3.8,2.9c-0.8,1.6,0,3.2,0,3.2C119.2,327.9,118.7,327.9,118.7,327.8z"/>
			</g>
			<g id="XMLID_226_">
				<path id="XMLID_227_" class="st1" d="M116,325.7c0-2.1,1.6-3.8,4.6-5c0.1,0,0.4-0.1,0.4,0c0,0.1-0.1,0.1-0.3,0.2
					c-2,0.8-4.5,2.5-4.2,5.1l0,0.1C116.5,326.1,116.2,325.9,116,325.7z"/>
			</g>
		</g>
		<g id="XMLID_216_">
			<g id="XMLID_223_">
				<path id="XMLID_224_" class="st1" d="M195.9,331.1c1-0.9,1.8-2.8,0.9-5.1c-0.9-2.3-4.8-3.2-4.9-3.2c-0.1,0-0.3-0.1-0.3-0.2
					c0-0.1,0.2-0.1,0.4-0.1c0.2,0,4.2,0.7,5.3,3.2c1,2.5,0.1,4.5-0.9,5.6C196.2,331.3,196,331.2,195.9,331.1z"/>
			</g>
			<g id="XMLID_221_">
				<path id="XMLID_222_" class="st1" d="M200.3,331.2c0.1-0.1,1.6-1.7,1.3-3.9c-0.3-2.2-3.6-3.8-3.6-3.8c-0.1-0.1-0.3-0.1-0.3-0.2
					c0-0.1,0.3,0,0.4,0c0.1,0.1,3.7,1.5,4.1,4c0.2,2-0.9,3.5-1.3,4.1C200.7,331.3,200.4,331.2,200.3,331.2z"/>
			</g>
			<g id="XMLID_219_">
				<path id="XMLID_220_" class="st1" d="M204.5,330.5c0.1-0.1,1.6-2.2,0.8-4.3c-0.8-2.2-3.8-3.3-3.9-3.3c-0.1,0-0.4-0.1-0.5-0.2
					c-0.1-0.1,0.4,0,0.5,0c0.1,0,3.4,0.9,4.3,3.3c0.8,2-0.3,3.9-0.7,4.6C205,330.6,204.7,330.6,204.5,330.5z"/>
			</g>
			<g id="XMLID_217_">
				<path id="XMLID_218_" class="st1" d="M208.7,329c0,0,0.7-1.5,0-3.4c-0.8-1.9-4.2-3.2-4.2-3.2c-0.1,0-0.3-0.1-0.4-0.2
					c0-0.1,0.3,0,0.4,0c0.1,0.1,3.8,1.1,4.6,3.2c0.7,1.6,0.3,3,0.1,3.5C209.1,329,208.8,329,208.7,329z"/>
			</g>
		</g>
	</g>
	<g id="XMLID_208_">
		<g id="XMLID_213_">
			<path id="XMLID_214_" class="st1" d="M134.5,255.5c-0.1,0-1.3-11.8-1.1-20.7c0.2-8.6,3.6-19.8,3.8-20.6
				c-0.1-0.7-1.3-9.2-1.5-15.5c-0.2-4.6,0.2-8,0.5-10.2c0.1-1,0.2-1.8,0.2-2.3c0-1.6-0.7-2.1-0.7-2.1c-0.1-0.1,1.6,0.1,1.5,2.2
				c0,0.6-0.1,1.4-0.2,2.4c-0.3,2.2-0.7,5.6-0.5,10.1c0.2,6.5,1.2,15.3,1.2,15.4l0,0.1l0,0c0,0.1-3.6,11.7-3.8,20.5
				C133.6,243.7,134.6,255.5,134.5,255.5C134.5,255.5,134.5,255.5,134.5,255.5z"/>
		</g>
		<g id="XMLID_211_">
			<path id="XMLID_212_" class="st1" d="M151,241.5c-2.8-2.4-11.5-4.5-11.6-4.5c-0.1,0-0.1-0.2-0.1-0.2c0.1,0,9,1.6,12,4.1
				c0.1,0.1,1.2,1.8,2.9,5.6c0,0-0.1,0.6-0.1,0.6S151,241.5,151,241.5z"/>
		</g>
		<g id="XMLID_209_">
			<path id="XMLID_210_" class="st1" d="M133.5,249.1c-0.3,0-0.6-0.1-0.8-0.2c-0.7-0.5-0.9-1.6-1-2.2l0-0.1c0-0.2-0.1-0.4-0.1-0.7
				c-0.1-1-0.4-2.7-0.7-3.5c-0.5-1.1-1.2-4-1.1-5.1c0-0.1,0-0.3,0.1-0.3c0.1,0,0.1,0.2,0.1,0.4c0.2,2.4,0.9,3.8,1.3,4.9
				c0.4,0.9,0.6,2.5,0.7,3.6c0,0.3,0.1,0.5,0.1,0.7l0,0.1c0.1,0.5,0.2,1.5,0.8,1.8c0.2,0.2,0.6,0.2,0.9,0.1c0.1,0,0.3,0.1,0.3,0.2
				c0,0.1-0.1,0.3-0.2,0.3C133.8,249.1,133.6,249.1,133.5,249.1z"/>
		</g>
	</g>
</g>
</svg>
