<?xml version="1.0" encoding="utf-8"?>
<!-- Generator: Adobe Illustrator 19.0.0, SVG Export Plug-In . SVG Version: 6.00 Build 0)  -->
<svg version="1.1" id="Camada_1" xmlns="http://www.w3.org/2000/svg" xmlns:xlink="http://www.w3.org/1999/xlink" x="0px" y="0px"
	 viewBox="0 0 297.6 425.2" style="enable-background:new 0 0 297.6 425.2;" xml:space="preserve">
<style type="text/css">
	.st0{fill:#3F3B37;}
	.st1{fill:#5E5A58;}
	.st2{fill:#56524D;}
	.st3{fill:#2D2B29;}
	.st4{fill:#2B2927;}
	.st5{fill:#6B6661;}
	.st6{fill:#232120;}
	.st7{fill:#4A4642;}
	.st8{fill:#FDE9DB;}
	.st9{fill:#D6B9A3;}
	.st10{fill:#84716B;}
	.st11{fill:#ECE5E3;}
	.st12{fill:none;stroke:#ECE5E3;stroke-width:0.5;stroke-linecap:round;stroke-miterlimit:10;}
	.st13{fill:#8EC2E9;}
	.st14{fill:#494789;}
	.st15{fill:#9CCCEB;}
</style>
<g id="XMLID_3857_">
	<g id="XMLID_8731_">
		<g id="XMLID_8786_">
			<g id="XMLID_8789_">
				<path id="XMLID_8790_" class="st0" d="M197.9,176.7c-0.9,0-1.6-0.2-2.3-0.7c-4.6-3.1-7.7-4.4-7.7-4.4c-2.1-0.7-3.2-3-2.5-5.1
					c0.7-2.1,3-3.2,5.1-2.5c0.2,0.1,5.4,1.9,10.9,6.1c1.4,1.1,1.3,3.7-0.2,5.2C200.2,176.1,199.1,176.7,197.9,176.7z"/>
			</g>
			<g id="XMLID_8787_">
				<path id="XMLID_8788_" class="st1" d="M183.1,236.9c-0.1,0-0.1,0-0.2,0c-1.9-0.1-3.4-1.8-3.3-3.7l3-56.5
					c-0.1-1.8-0.1-8.6,3.9-11.6c1.5-1.2,3.7-0.9,4.9,0.7c1.2,1.5,0.9,3.7-0.7,4.9c-0.6,0.5-1.2,3.3-1.1,5.9l0,0.2l0,0.2l-3,56.7
					C186.5,235.4,184.9,236.9,183.1,236.9z"/>
			</g>
		</g>
		<g id="XMLID_8762_">
			<g id="XMLID_8780_">
				<path id="XMLID_8785_" class="st2" d="M91.9,227.5c-7.4,6.2-12.7,19.5-12.9,34.9c-0.3,21.4,9.3,38.9,21.3,38.9
					c0.4,0,6.1,0.2,8.6-1.3c-0.1-0.5-2.3-2.5-2.2-3l-0.7,0.5c-1-0.3-4.2,0.3-4.1-0.4c-0.1-0.3-0.1-0.7-0.2-1
					c-9.4-0.3-16.9-15.4-16.6-33.9c0.3-18.7,8.2-33.8,17.8-33.8c0.3,0,1.1-0.1,1.1-0.2c0.4-1.3,4-2.9,4.7-4.1
					C101.4,221.4,95.3,224.7,91.9,227.5z"/>
				<polygon id="XMLID_8784_" class="st3" points="106.5,226.1 110.4,226.7 116.8,231.7 121.5,237.9 125.4,251.3 124.8,264.8 
					124.1,272.9 121.2,284.6 116.8,290.4 111.7,296 107.1,297.7 99.3,296.6 95.6,293.4 91.8,288 89.3,282.2 86.9,274 86.3,265.9 
					85.7,253.8 87.5,247.1 91.1,238.1 93.8,233.8 97.5,229.6 				"/>
				<path id="XMLID_8781_" class="st0" d="M104.8,223.5c-12.1-0.1-22.1,17.3-22.4,38.7c-0.3,21.4,9.3,38.9,21.3,38.9
					c12.1,0.1,22.1-17.3,22.4-38.7C126.4,240.9,116.8,223.5,104.8,223.5z M123.2,262.1c-0.3,18.7-8.2,33.8-17.8,33.8
					S88.3,280.6,88.5,262c0.3-18.7,8.2-33.8,17.8-33.8S123.4,243.4,123.2,262.1z"/>
			</g>
			<g id="XMLID_8763_">
				<g id="XMLID_8775_">
					<g id="XMLID_8778_">
						<path id="XMLID_8779_" class="st0" d="M138.7,176.5c-0.9,0-9.9-4.6-9.9-4.6c-2.1-0.7-3.2-3-2.5-5.1c0.7-2.1,3-3.2,5.1-2.5
							c0.2,0.1,5.3,1.4,10.7,5.6c1.4,1.1,1.3,3.7-0.2,5.2C140.9,175.9,139.9,176.5,138.7,176.5z"/>
					</g>
					<g id="XMLID_8776_">
						<path id="XMLID_8777_" class="st1" d="M125.2,229.9c-0.1,0-0.1,0-0.2,0c-1.9-0.1-3.4-1.8-3.3-3.7l1.8-49.2
							c-0.1-1.8-0.1-8.6,3.9-11.6c1.5-1.2,3.7-0.9,4.9,0.7c1.2,1.5,0.9,3.7-0.7,4.9c-0.6,0.5-1.2,3.3-1.1,5.9l0,0.2l0,0.2l-1.8,49.3
							C128.6,228.4,127,229.9,125.2,229.9z"/>
					</g>
				</g>
				<g id="XMLID_8764_">
					<g id="XMLID_8772_">
						<path id="XMLID_8774_" class="st0" d="M116.5,211.8c1.1,0.9,2,2.5,2,4.2c0,1.9-0.8,3.5-2,4.5c-0.7,0.6-19.5,6-19.5,6l-1.6-11
							l16.1-4C111.5,211.5,114.6,210.2,116.5,211.8z"/>
						<ellipse id="XMLID_8773_" class="st4" cx="96.5" cy="220.9" rx="4.6" ry="5.6"/>
					</g>
					<g id="XMLID_8770_">
						<path id="XMLID_8771_" class="st5" d="M88.3,304.2c-1.4,0-2.5-1.1-2.5-2.5v-57.8c0-0.7,0-1.4,0-2.2
							c-0.1-7.4-0.2-16.7,8.8-22.9c1.1-0.8,2.7-0.5,3.5,0.6c0.8,1.1,0.5,2.7-0.6,3.5c-6.8,4.7-6.7,11.5-6.6,18.7c0,0.8,0,1.5,0,2.2
							v57.8C90.8,303.1,89.7,304.2,88.3,304.2z"/>
					</g>
					<g id="XMLID_8765_">
						<g id="XMLID_8767_">
							<ellipse id="XMLID_8769_" class="st2" cx="85.4" cy="305" rx="8.6" ry="10.2"/>
							<ellipse id="XMLID_8768_" class="st0" cx="87.5" cy="305" rx="6.4" ry="8.4"/>
						</g>
						<ellipse id="XMLID_8766_" class="st5" cx="87.9" cy="305" rx="3.5" ry="4.5"/>
					</g>
				</g>
			</g>
		</g>
		<g id="XMLID_8760_">
			<path id="XMLID_8761_" class="st1" d="M152.7,305.9c-0.5,0-1-0.3-1.3-0.8c-0.4-0.7-0.2-1.6,0.6-2l17.4-10l-1.5-7.1l-41-6.5
				c-0.8-0.1-1.4-0.9-1.2-1.7c0.1-0.8,0.9-1.4,1.7-1.2l43,6.8l2.5,11.2l-19.3,11C153.2,305.8,152.9,305.9,152.7,305.9z"/>
		</g>
		<g id="XMLID_8756_">
			<path id="XMLID_8759_" class="st6" d="M121.7,210.4c0,0,0.3-27.7,1-30.5c0.7-2.8,1.7-4,5.7-4c4,0,48-0.8,54.2,0s8,2.3,8.3,3.8
				c0.3,1.5-3.5,29.2-3.7,32.7l-3.3,1.8C183.8,214.2,143.2,213.7,121.7,210.4z"/>
			<path id="XMLID_8758_" class="st3" d="M172.7,245.7l-22.8,9.5c0,0-33.6,0.2-60.4-7.4l0.1-3.9l38.7-6.8c0,0,37.8,3,49.5,0.8
				C177.7,237.9,180,241.5,172.7,245.7z"/>
			<path id="XMLID_8757_" class="st6" d="M173.7,241.7l-22.8,9.5c0,0-34.5,0.2-61.3-7.5c0,0,6.7-1.5,13.2-3.8s26.5-6.8,26.5-6.8
				s37.3,5.5,49,3.3C178.2,236.4,181,237.5,173.7,241.7z"/>
		</g>
		<g id="XMLID_8736_">
			<path id="XMLID_8755_" class="st2" d="M182.7,228.7c-8.5,6.6-15.2,21.5-16.6,39.3c-1.9,24.7,7.2,45.5,20.3,46.5
				c0.4,0,6.6,0.7,9.5-0.8c-0.1-0.6-2.3-3-2.2-3.7l-0.8,0.5c-1-0.4-4.5,0.1-4.4-0.8c0-0.4-0.1-0.8-0.1-1.2
				c-10.3-1.1-17.2-19.1-15.5-40.4c1.7-21.5,11.4-38.3,21.8-37.5c0.4,0,1.2,0,1.2-0.1c0.6-1.5,4.6-3,5.4-4.4
				C193.4,222.4,186.6,225.7,182.7,228.7z"/>
			<polygon id="XMLID_8754_" class="st6" points="198.6,228.2 202.9,229.2 209.5,235.6 214.1,243.1 217.4,258.8 215.8,274.3 
				214.4,283.6 210.4,296.8 205.1,303.2 199.1,309.2 194,310.8 185.6,308.9 181.9,304.9 178.1,298.4 175.8,291.6 173.8,281.9 
				173.8,272.6 174,258.6 176.5,250.9 181,240.8 184.3,236.1 188.6,231.6 			"/>
			<path id="XMLID_8751_" class="st0" d="M197,225.1c-13.1-1-25.3,18.2-27.2,42.9c-1.9,24.7,7.2,45.5,20.3,46.5
				c13.1,1,25.3-18.2,27.2-42.9S210.1,226.1,197,225.1z M214.1,271.1c-1.7,21.5-11.4,38.3-21.8,37.5s-17.5-18.9-15.8-40.4
				s11.4-38.3,21.8-37.5S215.8,249.6,214.1,271.1z"/>
			<g id="XMLID_8742_">
				<g id="XMLID_8749_">
					<path id="XMLID_8750_" class="st2" d="M184.4,272.8h-4.2c-1.1,0-2-0.9-2-2s0.9-2,2-2h4.2c1.1,0,2,0.9,2,2
						S185.5,272.8,184.4,272.8z"/>
				</g>
				<g id="XMLID_8747_">
					<path id="XMLID_8748_" class="st2" d="M217.1,271.3h-4.2c-1.1,0-2-0.9-2-2s0.9-2,2-2h4.2c1.1,0,2,0.9,2,2
						S218.2,271.3,217.1,271.3z"/>
				</g>
				<g id="XMLID_8745_">
					<path id="XMLID_8746_" class="st2" d="M201.1,236.1h-6.9c-1.1,0-2-0.9-2-2s0.9-2,2-2h6.9c1.1,0,2,0.9,2,2
						S202.2,236.1,201.1,236.1z"/>
				</g>
				<g id="XMLID_8743_">
					<path id="XMLID_8744_" class="st2" d="M197.9,307.2h-6.4c-1.1,0-2-0.9-2-2s0.9-2,2-2h6.4c1.1,0,2,0.9,2,2
						S199,307.2,197.9,307.2z"/>
				</g>
			</g>
			<path id="XMLID_8739_" class="st5" d="M204.6,231.4c-9.9-0.8-19.3,15.7-20.9,36.8c-1.6,21.1,5.1,38.8,15,39.6
				c9.9,0.8,19.3-15.7,20.9-36.8C221.2,249.9,214.5,232.2,204.6,231.4z M216.1,270.4c-1.3,18.6-8.6,33.2-16.3,32.6
				c-7.7-0.5-12.9-16-11.6-34.6c1.3-18.6,8.6-33.2,16.3-32.6C212.1,236.4,217.4,251.8,216.1,270.4z"/>
			<path id="XMLID_8738_" class="st2" d="M201.9,269.5c-0.3,3.7,0,9.5-2.2,9.9c-3.1,0.6-4.3-0.2-4.8-0.6c-1.8-1.5-2.9-5.4-2.6-9.9
				c0.3-4.8,2.1-8.7,4.3-9.7c0.4-0.2,1.9-0.8,4.1-0.2C203,259.5,202.2,265.8,201.9,269.5z"/>
			
				<ellipse id="XMLID_8737_" transform="matrix(0.9977 6.804553e-02 -6.804553e-02 0.9977 18.7792 -12.9939)" class="st5" cx="200.1" cy="269.2" rx="4.8" ry="10.3"/>
		</g>
		<g id="XMLID_8732_">
			<polygon id="XMLID_8735_" class="st3" points="137.6,305.4 136,316.1 72.5,301.4 72.5,297.2 			"/>
			<polygon id="XMLID_8734_" class="st0" points="151.2,307.1 136,316.1 136,311.8 145.8,303.3 151.2,302.9 			"/>
			<polygon id="XMLID_8733_" class="st7" points="151.2,302.9 136,311.9 72.5,297.2 91.3,289.7 			"/>
		</g>
	</g>
	<g id="XMLID_8703_">
		<g id="XMLID_8716_">
			<g id="XMLID_8722_">
				<path id="XMLID_8730_" class="st8" d="M114,209.4c-7.8-0.4-13,0.9-14.8,2c-5.8,3.6-5.9,7.4-5.9,8.9c-0.8,3.8,1.1,3.8,1.1,3.8
					s0.2,2,2.3,1.5c0,0.7,1.2,1.7,3.4,0.7c2.5-1.2,3.1-5.8,8.6-6.7c2.1-0.3,2.5,0.4,2.5,0.4c-0.2,1.1-2.2,1.2-3.7,2.1
					c-1,0.6-2,2.5-1.5,3.9c0.5,1.3,2.4,1.4,2.9,0.5c0.5-0.9,3.2-2,3.8-2.1c0.6,0,2.7-0.3,3.6-1.3c2.7-3,2-6.8,2-6.8
					s13.7-0.4,16.6-1.2c0,0,3.7,0.2,3.6-4.2c0-2.3,0.3-7.4-7.8-4.8S114,209.4,114,209.4z"/>
				<g id="XMLID_8723_">
					<g id="XMLID_8728_">
						<path id="XMLID_8729_" class="st9" d="M96.7,225.5c0,0-0.1-3,2-5.7c1.1-1.3,2.1-2.2,3.3-2.9c1.4-0.8,4.2-1.3,4.2-1.1
							c0.1,0.2-2.4,0.7-4.5,2.2c-0.8,0.6-1.6,1.3-2.4,2.3C97.4,222.8,97,224.3,96.7,225.5z"/>
					</g>
					<g id="XMLID_8726_">
						<path id="XMLID_8727_" class="st9" d="M94.4,224C94.4,224,94.4,224,94.4,224c-0.2,0-0.3-3.3,2.7-6.5c0.9-1,1.4-1.4,2.2-1.9
							c1.8-1.2,4.1-1.7,4.2-1.5c0,0.2-3.1,0.9-5.8,3.9C94.6,221.5,94.4,223.9,94.4,224z"/>
					</g>
					<g id="XMLID_8724_">
						<path id="XMLID_8725_" class="st9" d="M93.3,219.5c0.1-0.2,0.8-2.6,4.1-5.2c0.8-0.6,2.6-1.5,3.2-1.5c0.2,0-2,1.4-2.9,2
							c-2.9,2.2-4.4,5.5-4.4,5.6C93.3,220.5,93.3,219.7,93.3,219.5z"/>
					</g>
				</g>
			</g>
			<g id="XMLID_8717_">
				<path id="XMLID_8721_" class="st8" d="M136.1,218.6c-0.5,2.5-0.9,4.5-1.2,6.4c8.6,3.2,14.9,3,22.4,2.2
					c2.7-0.3,11.4-6.3,10.4-14.7c0,0-0.2-11.1,5.8-24.2c0,0,4.7,10.1,8,16.9h7.7c0.7-0.4,1.3-0.9,1.9-1.4c0.1-0.1,0.2-0.1,0.3-0.2
					c-0.2,0.1-0.2,0.1-0.1,0.1c0.1-0.1,0.1-0.1,0.2-0.2c0.1-0.1,0.2-0.1,0.3-0.2c0-0.1-0.1-0.2-0.1-0.2s-6-20.3-6.8-22.7
					c-0.8-2.3-1.7-4.7-5.6-6.2c-3.9-1.5-12.6-4.1-12.6-4.1l-0.2-9.8l-12.8,3.7l-0.3,5.7c0,0-5.3,1.6-8.5,2.5s-9.7,4.1-10.5,5.2
					s-2.3,6.3-1.8,18.7c0.4,10.1,0,15.1-0.1,16.5c0.3,0.1,3.9-1,4.5-0.2C138.1,213.7,136.4,217.4,136.1,218.6z"/>
				<g id="XMLID_8718_">
					<g id="XMLID_8719_">
						<path id="XMLID_8720_" class="st9" d="M135.1,225c1.1-5.9,2.6-10.8,2.7-10.9l0,0l0-0.1c0-0.1-0.9-8.9-1.2-15.4
							c-0.2-4.5,0.2-7.9,0.5-10.1c0.1-1,0.2-1.8,0.2-2.4c0.1-2.1-1.7-2.3-1.5-2.2c0,0,0.7,0.5,0.7,2.1c0,0.5-0.1,1.3-0.2,2.3
							c-0.3,2.2-0.7,5.7-0.5,10.2c0.2,6.3,1.4,14.8,1.5,15.5c-0.2,0.5-1.6,5.2-2.6,10.8l0.2,0.1L135.1,225z"/>
					</g>
				</g>
			</g>
		</g>
		<g id="XMLID_8704_">
			<path id="XMLID_8715_" class="st9" d="M166.5,161.9l-0.1-1.7l-12.8,3.7l-0.1,1.8C157.8,167,161.9,164.7,166.5,161.9z"/>
			<path id="XMLID_8714_" class="st8" d="M125.9,139.9c-0.3-0.4-1.7-2.6-2.8-5.3s-1.6-4-1.5-6.1s0.7-4.5,1.9-5s4.1,4,4.1,4
				L125.9,139.9z"/>
			<g id="XMLID_8710_">
				<path id="XMLID_8713_" class="st9" d="M124.9,124c-0.2,1.5,0,4.9,0,7.6c0,2.2,0,4.4-0.1,6.6c0.5,0.8,0.8,1.4,1,1.6l1.7-12.5
					C127.5,127.4,125.4,124.7,124.9,124z"/>
				<g id="XMLID_8711_">
					<path id="XMLID_8712_" class="st9" d="M125.5,131.1c-0.6-0.9-1.3-1.8-2.1-2.8c-0.2-0.2-0.4-0.4-0.7-0.4c-0.2,0,0.2,0.4,0.3,0.6
						c1.1,1.3,1.9,2.7,2.6,4C125.6,132,125.5,131.5,125.5,131.1z"/>
				</g>
			</g>
			<path id="XMLID_8709_" class="st8" d="M126.1,141.6c-0.2-2.4-1.2-13.8-1.2-16.8c0.1-2.9,0.3-10.4,5.9-18.7
				C136.4,98,148,91,163,90.9s35.8,14,33.7,33.8c0,0,3.9,0.5,3.6,6.1c-0.3,5.6-3.8,10.2-6.4,12.4s-5.1,1.1-5.2,0.2
				c0,0,0.1,4.7-5.9,9.2c-6,4.6-20.2,10.3-24.8,11.7c-4.6,1.3-6.7,0.2-10-1.3c-3.3-1.6-9.1-5.2-13.1-8.7S126.3,145.3,126.1,141.6z"
				/>
			<g id="XMLID_8707_">
				<path id="XMLID_8708_" class="st9" d="M191.2,139.5C191.2,139.5,191.2,139.5,191.2,139.5c-0.4-0.1-0.5-0.3-0.5-0.6
					c0-0.2,1.2-5.9,5.6-10.8c0.2-0.2,0.4-0.4,0.7-0.4c0.2,0-0.2,0.4-0.3,0.6c-4.1,5.1-5,10.7-5,10.7
					C191.7,139.3,191.5,139.5,191.2,139.5z"/>
			</g>
			<g id="XMLID_8705_">
				<path id="XMLID_8706_" class="st9" d="M187.3,134.4c-0.1,0,0-0.4,0.1-0.7c0.1-0.4,2.2-7.4,7.5-9.3c0.4-0.1,1.3-0.3,1.7-0.1
					c0.3,0.2,0.2,0.4,0.1,0.4c-5.8,0.8-9,9.2-9.1,9.3C187.4,134.2,187.4,134.5,187.3,134.4z"/>
			</g>
		</g>
	</g>
	<g id="XMLID_8615_">
		<g id="XMLID_8656_">
			<g id="XMLID_8680_">
				<g id="XMLID_8701_">
					<path id="XMLID_8702_" class="st10" d="M91.9,304.4c4.3,0.1,8.9-0.8,13-1.9c4.5-1.1,8.6-2.8,12.4-5.5c1.9-1.3,3.7-3.3,5.6-4.6
						c-0.2-1.3-0.7-2.9-1.3-4.3c-0.9-2.2-1.2-5.2-2.2-6.4s-1.3-0.9-1.2-0.5s0.3,2.9,0.2,3.5c-0.1,0.7-1.6,2.3-2.7,1.9
						s-2.2-0.6-2.2-0.6c0.7-1.1,0.4-2.2-0.2-3s-2.2-2.4-5.4-2.1s-5.1,2.9-6.8,4.3s-9.7,6-14.5,7.1c-2.8,0.7-5.2,2.8-5.8,4.1
						c-0.4,0.9-0.7,2.5-0.8,3.7C84.1,302.2,87.4,304.3,91.9,304.4z"/>
				</g>
				<g id="XMLID_8699_">
					<path id="XMLID_8700_" class="st11" d="M80.3,301.2c-0.1-0.4-0.1-1.6,0.1-2.7c1.5,0.9,9.1,5.9,20.9,2.9
						c13.3-3.3,16.8-6,21.3-10.4c0.4,1.5,0.6,2.8,0.4,3.5c-0.3,1.1-1.4,4.1-8.3,6.6s-14.8,4.6-16.2,4.8s-9.3,0.6-13.7-1
						S80.3,301.2,80.3,301.2z"/>
				</g>
				<g id="XMLID_8690_">
					<g id="XMLID_8697_">
						<path id="XMLID_8698_" class="st11" d="M117.2,296.1c-0.1,0-0.2-0.1-0.2-0.2c0-0.3-0.4-6.9,3.5-10.5c0.1-0.1,0.2-0.2,0.3-0.2
							c0.1,0.1,0.2,0.5,0,0.6c-3.7,3.4-3.4,10-3.3,10.1C117.5,296,117.4,296.1,117.2,296.1L117.2,296.1z"/>
					</g>
					<g id="XMLID_8695_">
						<path id="XMLID_8696_" class="st11" d="M99.1,297.6c0.2-0.2,1.4-0.7,3.2-1.6c3.3-1.6,8.8-4.6,13.5-9c0,0,0.2-0.2,0.2-0.2
							c0.1,0,0.8-0.1,0.9-0.2c0.1-0.1-0.7,0.7-0.8,0.8c-2.8,2.6-5.9,4.8-8.7,6.4C103,296.4,99,297.6,99.1,297.6z"/>
					</g>
					<line id="XMLID_8694_" class="st12" x1="109.4" y1="299.3" x2="105.9" y2="294.4"/>
					<line id="XMLID_8693_" class="st12" x1="108.7" y1="292.7" x2="112.6" y2="298.2"/>
					<g id="XMLID_8691_">
						<path id="XMLID_8692_" class="st11" d="M93.5,296.2c-0.1,0-0.3,0.1-0.3-0.1c0-0.1,0.1-0.2,0.2-0.2c0.1,0,5.2-1.5,9.3-4.3
							c3.2-2.1,4.7-3.3,5.5-3.9c0.3-0.2,0.5-0.3,0.6-0.4l0.3-0.2c1.1-0.8,2.9-2,5.3-1c0.1,0.1,0.5,0.2,0.6,0.3
							c-0.8-0.2-1.7-0.3-2.2-0.3c-1.4,0-2.6,0.8-3.3,1.4l-0.3,0.2c-0.1,0.1-0.3,0.2-0.6,0.4c-0.8,0.6-2.3,1.8-5.6,3.9
							C98.8,294.9,93.6,296.2,93.5,296.2C93.5,296.2,93.5,296.2,93.5,296.2z"/>
					</g>
				</g>
				<g id="XMLID_8681_">
					<path id="XMLID_8689_" class="st12" d="M87,292.4c0,0,4.6,0.6,7.6,3.2"/>
					<path id="XMLID_8688_" class="st12" d="M89.2,291.7c0,0,4.8,0.4,7.7,3"/>
					<path id="XMLID_8687_" class="st12" d="M92.3,290.4c0,0,4.4,0.4,7,3.3"/>
					<path id="XMLID_8686_" class="st12" d="M94.9,289.1c0,0,4.2,0.8,6.3,3.4"/>
					<path id="XMLID_8685_" class="st12" d="M97,288.1c0,0,4.2,0.7,6.5,3.1"/>
					<path id="XMLID_8684_" class="st12" d="M98.8,287c0,0,4.8,0.2,6.9,2.8"/>
					<path id="XMLID_8683_" class="st12" d="M100.6,285.8c0,0,4.9-0.1,7.4,2.3"/>
					<path id="XMLID_8682_" class="st12" d="M102.3,284.3c0,0,4.7-0.1,7.8,2.4"/>
				</g>
			</g>
			<g id="XMLID_8657_">
				<g id="XMLID_8678_">
					<path id="XMLID_8679_" class="st10" d="M108.2,309.9c4.3,0.1,8.9-0.8,13-1.9c4.5-1.1,8.6-2.8,12.4-5.5c1.9-1.3,3.7-3.3,5.6-4.6
						c-0.2-1.3-0.7-2.9-1.3-4.3c-0.9-2.2-1.2-5.2-2.2-6.4s-1.3-0.9-1.2-0.5s0.3,2.9,0.2,3.5c-0.1,0.7-1.6,2.3-2.7,1.9
						s-2.2-0.6-2.2-0.6c0.7-1.1,0.4-2.2-0.2-3s-2.2-2.4-5.4-2.1s-5.1,2.9-6.8,4.3s-9.7,6-14.5,7.1c-2.8,0.7-5.2,2.8-5.8,4.1
						c-0.4,0.9-0.7,2.5-0.8,3.7C100.4,307.7,103.7,309.8,108.2,309.9z"/>
				</g>
				<g id="XMLID_8676_">
					<path id="XMLID_8677_" class="st11" d="M96.6,306.7c-0.1-0.4-0.1-1.6,0.1-2.7c1.5,0.9,9.1,5.9,20.9,2.9
						c13.3-3.3,16.8-6,21.3-10.4c0.4,1.5,0.6,2.8,0.4,3.5c-0.3,1.1-1.4,4.1-8.3,6.6s-14.8,4.6-16.2,4.8s-9.3,0.6-13.7-1
						S96.6,306.7,96.6,306.7z"/>
				</g>
				<g id="XMLID_8667_">
					<g id="XMLID_8674_">
						<path id="XMLID_8675_" class="st11" d="M133.5,301.6c-0.1,0-0.2-0.1-0.2-0.2c0-0.3-0.4-6.9,3.5-10.5c0.1-0.1,0.2-0.2,0.3-0.2
							c0.1,0.1,0.2,0.5,0,0.6c-3.7,3.4-3.4,10-3.3,10.1C133.7,301.5,133.6,301.6,133.5,301.6L133.5,301.6z"/>
					</g>
					<g id="XMLID_8672_">
						<path id="XMLID_8673_" class="st11" d="M115.4,303.1c0.2-0.2,1.4-0.7,3.2-1.6c3.3-1.6,8.8-4.6,13.5-9c0,0,0.2-0.2,0.2-0.2
							c0.1,0,0.8-0.1,0.9-0.2c0.1-0.1-0.7,0.7-0.8,0.8c-2.8,2.6-5.9,4.8-8.7,6.4C119.3,301.9,115.3,303.1,115.4,303.1z"/>
					</g>
					<line id="XMLID_8671_" class="st12" x1="125.6" y1="304.8" x2="122.2" y2="299.9"/>
					<line id="XMLID_8670_" class="st12" x1="124.9" y1="298.2" x2="128.8" y2="303.7"/>
					<g id="XMLID_8668_">
						<path id="XMLID_8669_" class="st11" d="M109.7,301.7c-0.1,0-0.3,0.1-0.3-0.1c0-0.1,0.1-0.2,0.2-0.2c0.1,0,5.2-1.5,9.3-4.3
							c3.2-2.1,4.7-3.3,5.5-3.9c0.3-0.2,0.5-0.3,0.6-0.4l0.3-0.2c1.1-0.8,2.9-2,5.3-1c0.1,0.1,0.5,0.2,0.6,0.3
							c-0.8-0.2-1.7-0.3-2.2-0.3c-1.4,0-2.6,0.8-3.3,1.4l-0.3,0.2c-0.1,0.1-0.3,0.2-0.6,0.4c-0.8,0.6-2.3,1.8-5.6,3.9
							C115,300.4,109.8,301.7,109.7,301.7C109.8,301.7,109.7,301.7,109.7,301.7z"/>
					</g>
				</g>
				<g id="XMLID_8658_">
					<path id="XMLID_8666_" class="st12" d="M103.2,297.9c0,0,4.6,0.6,7.6,3.2"/>
					<path id="XMLID_8665_" class="st12" d="M105.5,297.2c0,0,4.8,0.4,7.7,3"/>
					<path id="XMLID_8664_" class="st12" d="M108.6,295.9c0,0,4.4,0.4,7,3.3"/>
					<path id="XMLID_8663_" class="st12" d="M111.2,294.6c0,0,4.2,0.8,6.3,3.4"/>
					<path id="XMLID_8662_" class="st12" d="M113.2,293.6c0,0,4.2,0.7,6.5,3.1"/>
					<path id="XMLID_8661_" class="st12" d="M115.1,292.5c0,0,4.8,0.2,6.9,2.8"/>
					<path id="XMLID_8660_" class="st12" d="M116.9,291.3c0,0,4.9-0.1,7.4,2.3"/>
					<path id="XMLID_8659_" class="st12" d="M118.6,289.8c0,0,4.7-0.1,7.8,2.4"/>
				</g>
			</g>
		</g>
		<g id="XMLID_8616_">
			<path id="XMLID_8655_" class="st13" d="M167.7,211.7c0,0,2.6,3.6,3.4,7.1s0.9,12.1-3.1,17.8s-13.9,9.4-18.2,11.2
				s-8.2,3.2-9.2,4.6s-1.4,3-2.4,3s-1.4,1.1-0.9,2s1.5,2.9,1.6,4.2s-2,5.4-2,6.4s0.5,5,1,7s0.6,5.1-0.2,6.8l-1,3.2l-11,0.6l-3.9-3.6
				c0,0-1.1-4.6-1.1-6s1.8-7.4,1.8-9.1s-1.2-13.9-1.5-14.9c0,0-1.6,0.5-1.9,0.9c0,0,1.1,3.1,1.4,5.6s-1.2,5.6-1.8,7.5
				s0.4,4.9,0.8,6.1s-0.6,4.4-1.8,6.6l-7.9,1.6l-6.4-2.5c0,0-1.9-5.2-2-7.2s1.2-6.6,1.4-8.1s0.4-10.2-0.2-17s0-9,3-11.1
				s17.2-10.8,22.9-13.2c5.6-2.5,7.1-3.6,7.2-4.6s0.5-3.8,0.5-3.8s6.2,2.1,12.8,2.2S163,214.3,167.7,211.7z"/>
			<g id="XMLID_8619_">
				<g id="XMLID_8653_">
					<path id="XMLID_8654_" class="st14" d="M120.7,251.9c-0.2,0-0.3-0.1-0.3-0.3c0-0.3-0.1-0.7-0.1-1.1c-0.3-2.1-0.8-5.7,0.1-7.7
						c1.3-2.8,6.7-6.6,9.9-8.7c2.1-1.4,5.5-3,8.8-4.4c3.3-1.4,8.9-3,8.9-2.8c0,0.2-4.1,1.6-6.5,2.6c-3.9,1.5-8.2,3.5-10.8,5.2
						c-5.3,3.4-8.8,6.5-9.6,8.4c-0.8,1.8-0.3,5.4-0.1,7.4c0.1,0.5,0.1,0.9,0.1,1.1C121.1,251.7,120.9,251.9,120.7,251.9
						C120.7,251.9,120.7,251.9,120.7,251.9z"/>
				</g>
				<g id="XMLID_8651_">
					<path id="XMLID_8652_" class="st14" d="M131.3,258.1c-0.1-0.1,0.6-1.7,2.5-2.5c0.9-0.3,2-0.5,3.4-0.4c0.1,0,0.2,0.1,0.2,0.3
						c0,0.1-0.1,0.3-0.3,0.2c-1.3-0.1-2.3,0.1-3.1,0.4C132.3,256.8,131.3,258.1,131.3,258.1z"/>
				</g>
				<g id="XMLID_8649_">
					<path id="XMLID_8650_" class="st14" d="M133.9,254.4c-0.1,0-0.2-0.1-0.2-0.2c0-0.1,0.1-0.3,0.2-0.3c0,0,1.6-0.2,2.1-1.5
						c0-0.1,0.1-0.3,0.1-0.4c0.5-1.5,1.4-4.1,5.8-6.1c2.1-0.9,5-1.9,7.8-2.9c3.6-1.2,6.9-2.4,8.6-3.4c2.1-1.3,7.2-5,8.6-11.5
						c1.3-5.9-0.8-11.8-0.8-11.8c0-0.1,0-0.3,0.2-0.3c0.1,0,0.3,0,0.3,0.2c0,0.1,2.1,6.1,0.8,12.1c-1.5,6.6-6.7,10.4-8.9,11.8
						c-1.7,1-5.1,2.2-8.7,3.5c-2.8,1-5.6,2-7.7,2.9c-4.2,1.9-5,4.2-5.5,5.8c-0.1,0.2-0.1,0.3-0.1,0.4
						C135.9,254.1,134,254.4,133.9,254.4C134,254.4,133.9,254.4,133.9,254.4z"/>
				</g>
				<g id="XMLID_8647_">
					<path id="XMLID_8648_" class="st14" d="M134.3,283.4c0,0-0.1,0-0.1,0c-0.1-0.1-0.2-0.2-0.1-0.3c1.4-2.6,1.4-6.2,0.1-10.4
						c-1.2-3.9-0.7-6.5,0.5-9.3c0.4-0.9,0.6-2.3,0.4-3.4c-0.2-1.5-0.9-2.8-0.8-2.8c0.1-0.1,1,1.9,1.1,2.6c0.3,1.4,0.2,2.7-0.3,3.8
						c-1.2,2.7-1.7,5.1-0.5,8.9c1.3,4.3,1.3,8-0.2,10.7C134.4,283.4,134.4,283.4,134.3,283.4z"/>
				</g>
				<g id="XMLID_8645_">
					<path id="XMLID_8646_" class="st14" d="M116,253.5c-0.1-1.5,0.5-3.1,1.4-3.9c1-0.8,2.2-1.9,2.5-2.4c0.1-0.1,0.2-0.2,0.3-0.1
						c0.1,0.1,0.2,0.2,0.1,0.3c-0.3,0.7-1.9,2.1-2.6,2.6C116.3,251,116,253.7,116,253.5z"/>
				</g>
				<g id="XMLID_8643_">
					<path id="XMLID_8644_" class="st14" d="M114.2,278.5c-0.1,0-0.1,0-0.2-0.1c-0.1-0.1-0.1-0.2,0-0.4c2.4-3.1,1.6-5.3,0.9-7.5
						c-0.3-1-0.7-1.9-0.7-2.9c0-2.1,0.5-2.9,1.2-3.9c0.4-0.5,0.8-1.1,1.1-2c0.3-0.8,0.5-1.8,0.5-2.5c0-1.5-0.7-2.8-0.5-2.8
						c0.1-0.1,0.9,1.4,0.9,2.9c0,0.8-0.1,1.7-0.5,2.7c-0.4,0.9-0.8,1.5-1.2,2.1c-0.7,1-1.2,1.7-1.1,3.6c0,0.9,0.3,1.8,0.7,2.8
						c0.8,2.2,1.6,4.6-1,7.9C114.3,278.4,114.2,278.5,114.2,278.5z"/>
				</g>
				<g id="XMLID_8638_">
					<g id="XMLID_8641_">
						<path id="XMLID_8642_" class="st14" d="M139.3,230.1c-0.1,0-0.2,0.1-0.2,0c-0.9-0.7-1.4-1.7-1.7-2.6c-0.4-1-0.5-2.2-0.3-2.2
							c0.1,0,0.7,3,2.4,4.3c0.1,0.1,0.1,0.2,0.1,0.3C139.5,230,139.4,230.1,139.3,230.1z"/>
					</g>
					<g id="XMLID_8639_">
						<path id="XMLID_8640_" class="st14" d="M136.9,231c-0.4-0.9-0.6-1.7-0.6-1.7c-0.1,0-0.1,0.9,0.2,1.8
							C136.5,231.2,137.1,231.4,136.9,231z"/>
					</g>
				</g>
				<g id="XMLID_8636_">
					<path id="XMLID_8637_" class="st14" d="M126.3,276.9c0-0.1,4.1-1.9,7.5-6c0.6-0.8,2-2.8,2.1-2.7c0.1,0.1-1.2,2.4-1.9,3.2
						c-0.6,0.8-1.3,1.5-2,2.1C129.3,276,126.4,277,126.3,276.9z"/>
				</g>
				<g id="XMLID_8634_">
					<path id="XMLID_8635_" class="st14" d="M115,257.4c-0.1,0,0-1.4,0.9-2.6c0.6-0.8,1.5-1.7,2.9-2.3c0.1-0.1,0.3,0,0.3,0.1
						c0.1,0.1,0,0.3-0.1,0.3c-1.2,0.5-2,1.3-2.6,1.9C115.2,256.3,115,257.4,115,257.4z"/>
				</g>
				<g id="XMLID_8632_">
					<path id="XMLID_8633_" class="st14" d="M152.5,219.3c-8.8,0-15.4-2.9-15.5-2.9c-0.1-0.1-0.2-0.2-0.1-0.3
						c0.1-0.1,0.2-0.2,0.3-0.1c0.1,0,7.3,3.2,16.7,2.8c9.4-0.3,14.1-2.9,14.2-2.9c0.1-0.1,0.3,0,0.3,0.1c0.1,0.1,0,0.3-0.1,0.3
						c-0.2,0.1-4.9,2.6-14.4,2.9C153.5,219.3,153,219.3,152.5,219.3z"/>
				</g>
				<g id="XMLID_8630_">
					<path id="XMLID_8631_" class="st14" d="M146.9,225.3L146.9,225.3c-0.1,0-0.2-5.7,1.3-10.1c0-0.1,0.2-0.2,0.3-0.2
						c0.1,0,0.2,0.2,0.2,0.3C147.2,219.7,147,225.3,146.9,225.3z"/>
				</g>
				<g id="XMLID_8628_">
					<path id="XMLID_8629_" class="st14" d="M142.8,227.3c-0.1,0-0.5-3.4-0.3-4.4c0-0.2,0.1-0.5,0.3-0.8c0.3-1,0.8-2.5,0.6-3.9
						c-0.4-1.9,0.2-3.3,0.3-3.4c0.1-0.1,0.2-0.2,0.3-0.1c0.1,0.1,0.2,0.2,0.1,0.3c0,0-0.6,1.3-0.2,3.1c0.3,1.5-0.3,3.1-0.6,4.1
						c-0.1,0.3-0.2,0.6-0.2,0.8C142.5,224.7,142.9,227.3,142.8,227.3C142.8,227.3,142.8,227.3,142.8,227.3z"/>
				</g>
				<g id="XMLID_8626_">
					<path id="XMLID_8627_" class="st14" d="M135.8,222.5c-0.3,0-0.9-0.2-1.2-0.4c-2.8-1.1-5.1-0.6-5.2-0.7s1.7-0.6,3.7-0.2
						c0.6,0.1,1.3,0.3,2,0.6c0.5,0.2,0.9,0.2,1.3,0c1.7-0.9,2.5-4.8,2.5-4.8c0-0.1,0.1-0.2,0.3-0.2c0.1,0,0.2,0.2,0.2,0.3
						c0,0.2-0.8,4.1-2.7,5.2C136.5,222.4,136.2,222.5,135.8,222.5z"/>
				</g>
				<g id="XMLID_8624_">
					<path id="XMLID_8625_" class="st14" d="M166.7,228.2C166.7,228.2,166.7,228.2,166.7,228.2c-9.8-3.3-9.2-9.2-9.1-9.5
						c0-0.1,0.1-0.2,0.3-0.2c0.1,0,0.2,0.1,0.2,0.3c0,0-0.2,1.5,0.8,3.3c0.9,1.7,3,4,7.9,5.7c0.1,0,0.2,0.2,0.2,0.3
						C166.9,228.2,166.8,228.2,166.7,228.2z"/>
				</g>
				<g id="XMLID_8622_">
					<path id="XMLID_8623_" class="st14" d="M166.5,235.2c-0.1,0-0.4-0.9-1.4-2.1c-1.5-2-3.7-3-3.7-3.1c0.1-0.1,2.9,1.2,4.1,3
						C166.1,233.8,166.5,235.2,166.5,235.2z"/>
				</g>
				<g id="XMLID_8620_">
					<path id="XMLID_8621_" class="st14" d="M168,231.7c-0.1,0-0.8-0.7-1.2-0.9c-1.1-0.6-2.4-0.9-2.4-1c0-0.1,1.2-0.1,2.2,0.3
						C167.7,230.6,168.1,231.7,168,231.7z"/>
				</g>
			</g>
			<path id="XMLID_8618_" class="st15" d="M100.3,284.3c-0.2-1,0.6-2.5,1-3.6c0.4-1.1-0.2-2.8,0-3.8c0.2-0.9,1.2-1.1,1.2-1.1
				s0.8,1.6,6.5,2.2c5.8,0.7,9.2-1.1,9.7-1.3c0.4-0.2,1.2,1,0.9,3.2c-0.3,2.2,0.6,3.2,0.2,4.4c-0.3,1.2-0.6,3.5-10.4,3.2
				C101.3,287.4,100.3,284.3,100.3,284.3z"/>
			<path id="XMLID_8617_" class="st15" d="M118.7,288.9c-0.2-1,0.6-2.5,1-3.6c0.4-1.1-0.2-2.8,0-3.8c0.2-0.9,1.2-1.1,1.2-1.1
				s0.8,1.6,6.5,2.2c5.8,0.7,10.1-1,10.5-1.2c0.4-0.2,1.2,1,0.9,3.2c-0.3,2.2,0.8,3.6,0.5,4.8c-0.3,1.2-1.9,3.3-11.5,2.8
				C119.8,291.9,118.7,288.9,118.7,288.9z"/>
		</g>
	</g>
	<g id="XMLID_8601_">
		<g id="XMLID_8613_">
			<path id="XMLID_8614_" class="st5" d="M179.5,217.4c-0.8,0-1.6-0.5-1.9-1.4c-0.4-1,0.2-2.2,1.2-2.5l9-3.1c1-0.4,2.2,0.2,2.5,1.2
				c0.4,1-0.2,2.2-1.2,2.5l-9,3.1C179.9,217.3,179.7,217.4,179.5,217.4z"/>
		</g>
		<g id="XMLID_8602_">
			<g id="XMLID_8610_">
				<path id="XMLID_8612_" class="st0" d="M180.7,211.9c1.1,0.9,2,2.5,2,4.2c0,1.9-0.8,3.5-2,4.5c-0.7,0.6-19.2,7.9-19.2,7.9
					l-1.6-11l15.8-6C175.8,211.5,178.9,210.2,180.7,211.9z"/>
				<ellipse id="XMLID_8611_" class="st4" cx="161" cy="222.9" rx="4.6" ry="5.6"/>
			</g>
			<g id="XMLID_8608_">
				<path id="XMLID_8609_" class="st5" d="M152.8,313c-1.4,0-2.5-1.1-2.5-2.5v-64.7c0-0.7,0-1.4,0-2.2c-0.1-7.4-0.2-16.7,8.8-22.9
					c1.1-0.8,2.7-0.5,3.5,0.6c0.8,1.1,0.5,2.7-0.6,3.5c-6.8,4.7-6.7,11.5-6.6,18.7c0,0.8,0,1.5,0,2.2v64.7
					C155.3,311.9,154.2,313,152.8,313z"/>
			</g>
			<g id="XMLID_8603_">
				<g id="XMLID_8605_">
					<ellipse id="XMLID_8607_" class="st2" cx="155.2" cy="320.4" rx="9.1" ry="12.6"/>
					<ellipse id="XMLID_8606_" class="st0" cx="157.5" cy="320.4" rx="6.8" ry="10.3"/>
				</g>
				<ellipse id="XMLID_8604_" class="st5" cx="157.8" cy="320.4" rx="3.7" ry="5.5"/>
			</g>
		</g>
	</g>
</g>
</svg>
