<?xml version="1.0" encoding="utf-8"?>
<!-- Generator: Adobe Illustrator 19.0.0, SVG Export Plug-In . SVG Version: 6.00 Build 0)  -->
<svg version="1.1" id="Camada_1" xmlns="http://www.w3.org/2000/svg" xmlns:xlink="http://www.w3.org/1999/xlink" x="0px" y="0px"
	 viewBox="0 0 297.6 425.2" style="enable-background:new 0 0 297.6 425.2;" xml:space="preserve">
<style type="text/css">
	.st0{fill:#FED7B6;}
	.st1{fill:#CEAB8F;}
</style>
<g id="XMLID_3273_">
	<g id="XMLID_3266_">
		<g id="XMLID_3361_">
			<path id="XMLID_3426_" class="st0" d="M116.3,262.7c-7.8-0.4-13,0.9-14.8,2c-5.8,3.6-5.9,7.4-5.9,8.9c-0.8,3.8,1.1,3.8,1.1,3.8
				s0.2,2,2.3,1.5c0,0.7,1.2,1.7,3.4,0.7c2.5-1.2,3.1-5.8,8.6-6.7c2.1-0.3,2.5,0.4,2.5,0.4c-0.2,1.1-2.2,1.2-3.7,2.1
				c-1,0.6-2,2.5-1.5,3.9c0.5,1.3,2.4,1.4,2.9,0.5c0.5-0.9,3.2-2,3.8-2.1s2.7-0.3,3.6-1.3c2.7-3,2-6.8,2-6.8s13.7-0.4,16.6-1.2
				c0,0,3.7,0.2,3.6-4.2c0-2.3,0.3-7.4-7.8-4.8S116.3,262.7,116.3,262.7z"/>
			<g id="XMLID_3362_">
				<g id="XMLID_3424_">
					<path id="XMLID_3425_" class="st1" d="M99.1,278.8c0,0-0.1-3,2-5.7c1.1-1.3,2.1-2.2,3.3-2.9c1.4-0.8,4.2-1.3,4.2-1.1
						c0.1,0.2-2.4,0.7-4.5,2.2c-0.8,0.6-1.6,1.3-2.4,2.3C99.8,276.1,99.4,277.6,99.1,278.8z"/>
				</g>
				<g id="XMLID_3377_">
					<path id="XMLID_3385_" class="st1" d="M96.8,277.3C96.8,277.3,96.8,277.3,96.8,277.3c-0.2,0-0.3-3.3,2.7-6.5
						c0.9-1,1.4-1.4,2.2-1.9c1.8-1.2,4.1-1.7,4.2-1.5c0,0.2-3.1,0.9-5.8,3.9C97,274.8,96.8,277.2,96.8,277.3z"/>
				</g>
				<g id="XMLID_3363_">
					<path id="XMLID_3365_" class="st1" d="M95.7,272.8c0.1-0.2,0.8-2.6,4.1-5.2c0.8-0.6,2.6-1.5,3.2-1.5c0.2,0-2,1.4-2.9,2
						c-2.9,2.2-4.4,5.5-4.4,5.6C95.7,273.8,95.7,273,95.7,272.8z"/>
				</g>
			</g>
		</g>
		<g id="XMLID_3315_">
			<path id="XMLID_3360_" class="st0" d="M138.4,271.9c-0.5,2.5-0.9,4.5-1.2,6.4c8.6,3.2,14.9,3,22.4,2.2
				c2.7-0.3,11.4-6.3,10.4-14.7c0,0-0.2-11.1,5.8-24.3c0,0,4.7,10.1,8,16.9h7.7c0.7-0.4,1.3-0.9,1.9-1.4c0.1-0.1,0.2-0.1,0.3-0.2
				c-0.2,0.1-0.2,0.1-0.1,0.1c0.1-0.1,0.1-0.1,0.2-0.2c0.1-0.1,0.2-0.1,0.3-0.2c0-0.1-0.1-0.2-0.1-0.2s-6-20.3-6.8-22.7
				c-0.8-2.3-1.7-4.7-5.6-6.2c-3.9-1.5-12.6-4.1-12.6-4.1l-0.2-9.8l-12.8,3.7l-0.3,5.7c0,0-5.3,1.6-8.5,2.5s-9.7,4.1-10.5,5.2
				s-2.3,6.3-1.8,18.7c0.4,10.1,0,15.1-0.1,16.5c0.3,0.1,3.9-1,4.5-0.2C140.4,267,138.7,270.7,138.4,271.9z"/>
			<g id="XMLID_3317_">
				<g id="XMLID_3320_">
					<path id="XMLID_3321_" class="st1" d="M137.4,278.4c1.1-5.9,2.6-10.8,2.7-10.9l0,0l0-0.1c0-0.1-0.9-8.9-1.2-15.4
						c-0.2-4.5,0.2-7.9,0.5-10.1c0.1-1,0.2-1.8,0.2-2.4c0.1-2.1-1.7-2.3-1.5-2.2c0,0,0.7,0.5,0.7,2.1c0,0.5-0.1,1.3-0.2,2.3
						c-0.3,2.2-0.7,5.7-0.5,10.2c0.2,6.3,1.4,14.8,1.5,15.5c-0.2,0.5-1.6,5.2-2.6,10.8l0.2,0.1L137.4,278.4z"/>
				</g>
			</g>
		</g>
	</g>
	<g id="XMLID_3268_">
		<path id="XMLID_3604_" class="st0" d="M128.2,193.2c-0.3-0.4-1.7-2.6-2.8-5.3s-1.6-4-1.5-6.1s0.7-4.5,1.9-5s4.1,4,4.1,4
			L128.2,193.2z"/>
		<path id="XMLID_3603_" class="st1" d="M168.9,215.3l-0.1-1.7l-12.8,3.7L156,219C160.2,220.3,164.3,218,168.9,215.3z"/>
		<g id="XMLID_3599_">
			<path id="XMLID_3602_" class="st1" d="M127.3,177.4c-0.2,1.5,0,4.9,0,7.6c0,2.2,0,4.4-0.1,6.6c0.5,0.8,0.8,1.4,1,1.6l1.7-12.5
				C129.9,180.7,127.8,178,127.3,177.4z"/>
			<g id="XMLID_3600_">
				<path id="XMLID_3601_" class="st1" d="M127.9,184.4c-0.6-0.9-1.3-1.8-2.1-2.8c-0.2-0.2-0.4-0.4-0.7-0.4c-0.2,0,0.2,0.4,0.3,0.6
					c1.1,1.3,1.9,2.7,2.6,4C127.9,185.3,127.9,184.9,127.9,184.4z"/>
			</g>
		</g>
		<path id="XMLID_3598_" class="st0" d="M128.5,195c-0.2-2.4-1.2-13.8-1.2-16.8c0.1-2.9,0.3-10.4,5.9-18.7s17.2-15.2,32.2-15.3
			c15-0.1,35.8,14,33.7,33.8c0,0,3.9,0.5,3.6,6.1c-0.3,5.6-3.8,10.2-6.4,12.4s-5.1,1.1-5.2,0.2c0,0,0.1,4.7-5.9,9.2
			c-6,4.6-20.2,10.3-24.8,11.7c-4.6,1.3-6.7,0.2-10-1.3c-3.3-1.6-9.1-5.2-13.1-8.7S128.7,198.6,128.5,195z"/>
		<g id="XMLID_3596_">
			<path id="XMLID_3597_" class="st1" d="M193.6,192.8C193.6,192.8,193.6,192.8,193.6,192.8c-0.4-0.1-0.5-0.3-0.5-0.6
				c0-0.2,1.2-5.9,5.6-10.8c0.2-0.2,0.4-0.4,0.7-0.4c0.2,0-0.2,0.4-0.3,0.6c-4.1,5.1-5,10.7-5,10.7
				C194.1,192.6,193.9,192.8,193.6,192.8z"/>
		</g>
		<g id="XMLID_3594_">
			<path id="XMLID_3595_" class="st1" d="M189.7,187.7c-0.1,0,0-0.4,0.1-0.7c0.1-0.4,2.2-7.4,7.5-9.3c0.4-0.1,1.3-0.3,1.7-0.1
				c0.3,0.2,0.2,0.4,0.1,0.4c-5.8,0.8-9,9.2-9.1,9.3C189.8,187.5,189.8,187.8,189.7,187.7z"/>
		</g>
	</g>
</g>
</svg>
