<?xml version="1.0" encoding="utf-8"?>
<!-- Generator: Adobe Illustrator 19.0.0, SVG Export Plug-In . SVG Version: 6.00 Build 0)  -->
<svg version="1.1" id="Camada_1" xmlns="http://www.w3.org/2000/svg" xmlns:xlink="http://www.w3.org/1999/xlink" x="0px" y="0px"
	 viewBox="0 0 297.6 425.2" style="enable-background:new 0 0 297.6 425.2;" xml:space="preserve">
<style type="text/css">
	.st0{fill:#3F3B37;}
	.st1{fill:#5E5A58;}
	.st2{fill:#56524D;}
	.st3{fill:#2D2B29;}
	.st4{fill:#2B2927;}
	.st5{fill:#6B6661;}
	.st6{fill:#232120;}
	.st7{fill:#4A4642;}
	.st8{fill:#FDE9DB;}
	.st9{fill:#D6B9A3;}
	.st10{fill:#ECE5E3;}
	.st11{fill:#C9A1CB;}
	.st12{fill:#B894BA;}
	.st13{fill:#A9A5A4;}
	.st14{fill:#9CCCEB;}
	.st15{fill:#4B92B7;}
	.st16{fill:#C0DBEA;}
</style>
<g id="XMLID_8591_">
	<g id="XMLID_7062_">
		<g id="XMLID_7117_">
			<g id="XMLID_7120_">
				<path id="XMLID_7121_" class="st0" d="M197.9,176.7c-0.9,0-1.6-0.2-2.3-0.7c-4.6-3.1-7.7-4.4-7.7-4.4c-2.1-0.7-3.2-3-2.5-5.1
					c0.7-2.1,3-3.2,5.1-2.5c0.2,0.1,5.4,1.9,10.9,6.1c1.4,1.1,1.3,3.7-0.2,5.2C200.2,176.1,199.1,176.7,197.9,176.7z"/>
			</g>
			<g id="XMLID_7118_">
				<path id="XMLID_7119_" class="st1" d="M183.1,236.9c-0.1,0-0.1,0-0.2,0c-1.9-0.1-3.4-1.8-3.3-3.7l3-56.5
					c-0.1-1.8-0.1-8.6,3.9-11.6c1.5-1.2,3.7-0.9,4.9,0.7c1.2,1.5,0.9,3.7-0.7,4.9c-0.6,0.5-1.2,3.3-1.1,5.9l0,0.2l0,0.2l-3,56.7
					C186.5,235.4,184.9,236.9,183.1,236.9z"/>
			</g>
		</g>
		<g id="XMLID_7093_">
			<g id="XMLID_7111_">
				<path id="XMLID_7116_" class="st2" d="M91.9,227.5c-7.4,6.2-12.7,19.5-12.9,34.9c-0.3,21.4,9.3,38.9,21.3,38.9
					c0.4,0,6.1,0.2,8.6-1.3c-0.1-0.5-2.3-2.5-2.2-3l-0.7,0.5c-1-0.3-4.2,0.3-4.1-0.4c-0.1-0.3-0.1-0.7-0.2-1
					c-9.4-0.3-16.9-15.4-16.6-33.9c0.3-18.7,8.2-33.8,17.8-33.8c0.3,0,1.1-0.1,1.1-0.2c0.4-1.3,4-2.9,4.7-4.1
					C101.4,221.4,95.3,224.7,91.9,227.5z"/>
				<polygon id="XMLID_7115_" class="st3" points="106.5,226.1 110.4,226.7 116.8,231.7 121.5,237.9 125.4,251.3 124.8,264.8 
					124.1,272.9 121.2,284.6 116.8,290.4 111.7,296 107.1,297.7 99.3,296.6 95.6,293.4 91.8,288 89.3,282.2 86.9,274 86.3,265.9 
					85.7,253.8 87.5,247.1 91.1,238.1 93.8,233.8 97.5,229.6 				"/>
				<path id="XMLID_7112_" class="st0" d="M104.8,223.5c-12.1-0.1-22.1,17.3-22.4,38.7c-0.3,21.4,9.3,38.9,21.3,38.9
					c12.1,0.1,22.1-17.3,22.4-38.7S116.8,223.5,104.8,223.5z M123.2,262.1c-0.3,18.7-8.2,33.8-17.8,33.8S88.3,280.6,88.5,262
					c0.3-18.7,8.2-33.8,17.8-33.8S123.4,243.4,123.2,262.1z"/>
			</g>
			<g id="XMLID_7094_">
				<g id="XMLID_7106_">
					<g id="XMLID_7109_">
						<path id="XMLID_7110_" class="st0" d="M138.7,176.5c-0.9,0-9.9-4.6-9.9-4.6c-2.1-0.7-3.2-3-2.5-5.1c0.7-2.1,3-3.2,5.1-2.5
							c0.2,0.1,5.3,1.4,10.7,5.6c1.4,1.1,1.3,3.7-0.2,5.2C140.9,175.9,139.9,176.5,138.7,176.5z"/>
					</g>
					<g id="XMLID_7107_">
						<path id="XMLID_7108_" class="st1" d="M125.2,229.9c-0.1,0-0.1,0-0.2,0c-1.9-0.1-3.4-1.8-3.3-3.7l1.8-49.2
							c-0.1-1.8-0.1-8.6,3.9-11.6c1.5-1.2,3.7-0.9,4.9,0.7c1.2,1.5,0.9,3.7-0.7,4.9c-0.6,0.5-1.2,3.3-1.1,5.9l0,0.2l0,0.2l-1.8,49.3
							C128.6,228.4,127,229.9,125.2,229.9z"/>
					</g>
				</g>
				<g id="XMLID_7095_">
					<g id="XMLID_7103_">
						<path id="XMLID_7105_" class="st0" d="M116.5,211.8c1.1,0.9,2,2.5,2,4.2c0,1.9-0.8,3.5-2,4.5c-0.7,0.6-19.5,6-19.5,6l-1.6-11
							l16.1-4C111.5,211.5,114.6,210.2,116.5,211.8z"/>
						<ellipse id="XMLID_7104_" class="st4" cx="96.5" cy="220.9" rx="4.6" ry="5.6"/>
					</g>
					<g id="XMLID_7101_">
						<path id="XMLID_7102_" class="st5" d="M88.3,304.2c-1.4,0-2.5-1.1-2.5-2.5v-57.8c0-0.7,0-1.4,0-2.2
							c-0.1-7.4-0.2-16.7,8.8-22.9c1.1-0.8,2.7-0.5,3.5,0.6c0.8,1.1,0.5,2.7-0.6,3.5c-6.8,4.7-6.7,11.5-6.6,18.7c0,0.8,0,1.5,0,2.2
							v57.8C90.8,303.1,89.7,304.2,88.3,304.2z"/>
					</g>
					<g id="XMLID_7096_">
						<g id="XMLID_7098_">
							<ellipse id="XMLID_7100_" class="st2" cx="85.4" cy="305" rx="8.6" ry="10.2"/>
							<ellipse id="XMLID_7099_" class="st0" cx="87.5" cy="305" rx="6.4" ry="8.4"/>
						</g>
						<ellipse id="XMLID_7097_" class="st5" cx="87.9" cy="305" rx="3.5" ry="4.5"/>
					</g>
				</g>
			</g>
		</g>
		<g id="XMLID_7091_">
			<path id="XMLID_7092_" class="st1" d="M152.7,305.9c-0.5,0-1-0.3-1.3-0.8c-0.4-0.7-0.2-1.6,0.6-2l17.4-10l-1.5-7.1l-41-6.5
				c-0.8-0.1-1.4-0.9-1.2-1.7c0.1-0.8,0.9-1.4,1.7-1.2l43,6.8l2.5,11.2l-19.3,11C153.2,305.8,152.9,305.9,152.7,305.9z"/>
		</g>
		<g id="XMLID_7087_">
			<path id="XMLID_7090_" class="st6" d="M121.7,210.4c0,0,0.3-27.7,1-30.5s1.7-4,5.7-4c4,0,48-0.8,54.2,0c6.2,0.8,8,2.3,8.3,3.8
				c0.3,1.5-3.5,29.2-3.7,32.7l-3.3,1.8C183.8,214.2,143.2,213.7,121.7,210.4z"/>
			<path id="XMLID_7089_" class="st3" d="M172.7,245.7l-22.8,9.5c0,0-33.6,0.2-60.4-7.4l0.1-3.9l38.7-6.8c0,0,37.8,3,49.5,0.8
				C177.7,237.9,180,241.5,172.7,245.7z"/>
			<path id="XMLID_7088_" class="st6" d="M173.7,241.7l-22.8,9.5c0,0-34.5,0.2-61.3-7.5c0,0,6.7-1.5,13.2-3.8s26.5-6.8,26.5-6.8
				s37.3,5.5,49,3.3C178.2,236.4,181,237.5,173.7,241.7z"/>
		</g>
		<g id="XMLID_7067_">
			<path id="XMLID_7086_" class="st2" d="M182.7,228.7c-8.5,6.6-15.2,21.5-16.6,39.3c-1.9,24.7,7.2,45.5,20.3,46.5
				c0.4,0,6.6,0.7,9.5-0.8c-0.1-0.6-2.3-3-2.2-3.7l-0.8,0.5c-1-0.4-4.5,0.1-4.4-0.8c0-0.4-0.1-0.8-0.1-1.2
				c-10.3-1.1-17.2-19.1-15.5-40.4c1.7-21.5,11.4-38.3,21.8-37.5c0.4,0,1.2,0,1.2-0.1c0.6-1.5,4.6-3,5.4-4.4
				C193.4,222.4,186.6,225.7,182.7,228.7z"/>
			<polygon id="XMLID_7085_" class="st6" points="198.6,228.2 202.9,229.2 209.5,235.6 214.1,243.1 217.4,258.8 215.8,274.3 
				214.4,283.6 210.4,296.8 205.1,303.2 199.1,309.2 194,310.8 185.6,308.9 181.9,304.9 178.1,298.4 175.8,291.6 173.8,281.9 
				173.8,272.6 174,258.6 176.5,250.9 181,240.8 184.3,236.1 188.6,231.6 			"/>
			<path id="XMLID_7082_" class="st0" d="M197,225.1c-13.1-1-25.3,18.2-27.2,42.9c-1.9,24.7,7.2,45.5,20.3,46.5
				c13.1,1,25.3-18.2,27.2-42.9S210.1,226.1,197,225.1z M214.1,271.1c-1.7,21.5-11.4,38.3-21.8,37.5s-17.5-18.9-15.8-40.4
				s11.4-38.3,21.8-37.5S215.8,249.6,214.1,271.1z"/>
			<g id="XMLID_7073_">
				<g id="XMLID_7080_">
					<path id="XMLID_7081_" class="st2" d="M184.4,272.8h-4.2c-1.1,0-2-0.9-2-2s0.9-2,2-2h4.2c1.1,0,2,0.9,2,2
						S185.5,272.8,184.4,272.8z"/>
				</g>
				<g id="XMLID_7078_">
					<path id="XMLID_7079_" class="st2" d="M217.1,271.3h-4.2c-1.1,0-2-0.9-2-2s0.9-2,2-2h4.2c1.1,0,2,0.9,2,2
						S218.2,271.3,217.1,271.3z"/>
				</g>
				<g id="XMLID_7076_">
					<path id="XMLID_7077_" class="st2" d="M201.1,236.1h-6.9c-1.1,0-2-0.9-2-2s0.9-2,2-2h6.9c1.1,0,2,0.9,2,2
						S202.2,236.1,201.1,236.1z"/>
				</g>
				<g id="XMLID_7074_">
					<path id="XMLID_7075_" class="st2" d="M197.9,307.2h-6.4c-1.1,0-2-0.9-2-2s0.9-2,2-2h6.4c1.1,0,2,0.9,2,2
						S199,307.2,197.9,307.2z"/>
				</g>
			</g>
			<path id="XMLID_7070_" class="st5" d="M204.6,231.4c-9.9-0.8-19.3,15.7-20.9,36.8c-1.6,21.1,5.1,38.8,15,39.6
				c9.9,0.8,19.3-15.7,20.9-36.8C221.2,249.9,214.5,232.2,204.6,231.4z M216.1,270.4c-1.3,18.6-8.6,33.2-16.3,32.6
				c-7.7-0.5-12.9-16-11.6-34.6c1.3-18.6,8.6-33.2,16.3-32.6C212.1,236.4,217.4,251.8,216.1,270.4z"/>
			<path id="XMLID_7069_" class="st2" d="M201.9,269.5c-0.3,3.7,0,9.5-2.2,9.9c-3.1,0.6-4.3-0.2-4.8-0.6c-1.8-1.5-2.9-5.4-2.6-9.9
				c0.3-4.8,2.1-8.7,4.3-9.7c0.4-0.2,1.9-0.8,4.1-0.2C203,259.5,202.2,265.8,201.9,269.5z"/>
			
				<ellipse id="XMLID_7068_" transform="matrix(0.9977 6.804553e-02 -6.804553e-02 0.9977 18.7792 -12.9939)" class="st5" cx="200.1" cy="269.2" rx="4.8" ry="10.3"/>
		</g>
		<g id="XMLID_7063_">
			<polygon id="XMLID_7066_" class="st3" points="137.6,305.4 136,316.1 72.5,301.4 72.5,297.2 			"/>
			<polygon id="XMLID_7065_" class="st0" points="151.2,307.1 136,316.1 136,311.8 145.8,303.3 151.2,302.9 			"/>
			<polygon id="XMLID_7064_" class="st7" points="151.2,302.9 136,311.9 72.5,297.2 91.3,289.7 			"/>
		</g>
	</g>
	<g id="XMLID_7034_">
		<g id="XMLID_7047_">
			<g id="XMLID_7053_">
				<path id="XMLID_7061_" class="st8" d="M114,209.4c-7.8-0.4-13,0.9-14.8,2c-5.8,3.6-5.9,7.4-5.9,8.9c-0.8,3.8,1.1,3.8,1.1,3.8
					s0.2,2,2.3,1.5c0,0.7,1.2,1.7,3.4,0.7c2.5-1.2,3.1-5.8,8.6-6.7c2.1-0.3,2.5,0.4,2.5,0.4c-0.2,1.1-2.2,1.2-3.7,2.1
					c-1,0.6-2,2.5-1.5,3.9s2.4,1.4,2.9,0.5s3.2-2,3.8-2.1c0.6,0,2.7-0.3,3.6-1.3c2.7-3,2-6.8,2-6.8s13.7-0.4,16.6-1.2
					c0,0,3.7,0.2,3.6-4.2c0-2.3,0.3-7.4-7.8-4.8S114,209.4,114,209.4z"/>
				<g id="XMLID_7054_">
					<g id="XMLID_7059_">
						<path id="XMLID_7060_" class="st9" d="M96.7,225.5c0,0-0.1-3,2-5.7c1.1-1.3,2.1-2.2,3.3-2.9c1.4-0.8,4.2-1.3,4.2-1.1
							c0.1,0.2-2.4,0.7-4.5,2.2c-0.8,0.6-1.6,1.3-2.4,2.3C97.4,222.8,97,224.3,96.7,225.5z"/>
					</g>
					<g id="XMLID_7057_">
						<path id="XMLID_7058_" class="st9" d="M94.4,224C94.4,224,94.4,224,94.4,224c-0.2,0-0.3-3.3,2.7-6.5c0.9-1,1.4-1.4,2.2-1.9
							c1.8-1.2,4.1-1.7,4.2-1.5c0,0.2-3.1,0.9-5.8,3.9C94.6,221.5,94.4,223.9,94.4,224z"/>
					</g>
					<g id="XMLID_7055_">
						<path id="XMLID_7056_" class="st9" d="M93.3,219.5c0.1-0.2,0.8-2.6,4.1-5.2c0.8-0.6,2.6-1.5,3.2-1.5c0.2,0-2,1.4-2.9,2
							c-2.9,2.2-4.4,5.5-4.4,5.6C93.3,220.5,93.3,219.7,93.3,219.5z"/>
					</g>
				</g>
			</g>
			<g id="XMLID_7048_">
				<path id="XMLID_7052_" class="st8" d="M136.1,218.6c-0.5,2.5-0.9,4.5-1.2,6.4c8.6,3.2,14.9,3,22.4,2.2
					c2.7-0.3,11.4-6.3,10.4-14.7c0,0-0.2-11.1,5.8-24.2c0,0,4.7,10.1,8,16.9h7.7c0.7-0.4,1.3-0.9,1.9-1.4c0.1-0.1,0.2-0.1,0.3-0.2
					c-0.2,0.1-0.2,0.1-0.1,0.1c0.1-0.1,0.1-0.1,0.2-0.2c0.1-0.1,0.2-0.1,0.3-0.2c0-0.1-0.1-0.2-0.1-0.2s-6-20.3-6.8-22.7
					c-0.8-2.3-1.7-4.7-5.6-6.2c-3.9-1.5-12.6-4.1-12.6-4.1l-0.2-9.8l-12.8,3.7l-0.3,5.7c0,0-5.3,1.6-8.5,2.5s-9.7,4.1-10.5,5.2
					s-2.3,6.3-1.8,18.7c0.4,10.1,0,15.1-0.1,16.5c0.3,0.1,3.9-1,4.5-0.2C138.1,213.7,136.4,217.4,136.1,218.6z"/>
				<g id="XMLID_7049_">
					<g id="XMLID_7050_">
						<path id="XMLID_7051_" class="st9" d="M135.1,225c1.1-5.9,2.6-10.8,2.7-10.9l0,0l0-0.1c0-0.1-0.9-8.9-1.2-15.4
							c-0.2-4.5,0.2-7.9,0.5-10.1c0.1-1,0.2-1.8,0.2-2.4c0.1-2.1-1.7-2.3-1.5-2.2c0,0,0.7,0.5,0.7,2.1c0,0.5-0.1,1.3-0.2,2.3
							c-0.3,2.2-0.7,5.7-0.5,10.2c0.2,6.3,1.4,14.8,1.5,15.5c-0.2,0.5-1.6,5.2-2.6,10.8l0.2,0.1L135.1,225z"/>
					</g>
				</g>
			</g>
		</g>
		<g id="XMLID_7035_">
			<path id="XMLID_7046_" class="st9" d="M166.5,161.9l-0.1-1.7l-12.8,3.7l-0.1,1.8C157.8,167,161.9,164.7,166.5,161.9z"/>
			<path id="XMLID_7045_" class="st8" d="M125.9,139.9c-0.3-0.4-1.7-2.6-2.8-5.3s-1.6-4-1.5-6.1s0.7-4.5,1.9-5s4.1,4,4.1,4
				L125.9,139.9z"/>
			<g id="XMLID_7041_">
				<path id="XMLID_7044_" class="st9" d="M124.9,124c-0.2,1.5,0,4.9,0,7.6c0,2.2,0,4.4-0.1,6.6c0.5,0.8,0.8,1.4,1,1.6l1.7-12.5
					C127.5,127.4,125.4,124.7,124.9,124z"/>
				<g id="XMLID_7042_">
					<path id="XMLID_7043_" class="st9" d="M125.5,131.1c-0.6-0.9-1.3-1.8-2.1-2.8c-0.2-0.2-0.4-0.4-0.7-0.4c-0.2,0,0.2,0.4,0.3,0.6
						c1.1,1.3,1.9,2.7,2.6,4C125.6,132,125.5,131.5,125.5,131.1z"/>
				</g>
			</g>
			<path id="XMLID_7040_" class="st8" d="M126.1,141.6c-0.2-2.4-1.2-13.8-1.2-16.8c0.1-2.9,0.3-10.4,5.9-18.7
				C136.4,98,148,91,163,90.9c15-0.1,35.8,14,33.7,33.8c0,0,3.9,0.5,3.6,6.1c-0.3,5.6-3.8,10.2-6.4,12.4c-2.6,2.2-5.1,1.1-5.2,0.2
				c0,0,0.1,4.7-5.9,9.2c-6,4.6-20.2,10.3-24.8,11.7c-4.6,1.3-6.7,0.2-10-1.3s-9.1-5.2-13.1-8.7S126.3,145.3,126.1,141.6z"/>
			<g id="XMLID_7038_">
				<path id="XMLID_7039_" class="st9" d="M191.2,139.5C191.2,139.5,191.2,139.5,191.2,139.5c-0.4-0.1-0.5-0.3-0.5-0.6
					c0-0.2,1.2-5.9,5.6-10.8c0.2-0.2,0.4-0.4,0.7-0.4c0.2,0-0.2,0.4-0.3,0.6c-4.1,5.1-5,10.7-5,10.7
					C191.7,139.3,191.5,139.5,191.2,139.5z"/>
			</g>
			<g id="XMLID_7036_">
				<path id="XMLID_7037_" class="st9" d="M187.3,134.4c-0.1,0,0-0.4,0.1-0.7c0.1-0.4,2.2-7.4,7.5-9.3c0.4-0.1,1.3-0.3,1.7-0.1
					c0.3,0.2,0.2,0.4,0.1,0.4c-5.8,0.8-9,9.2-9.1,9.3C187.4,134.2,187.4,134.5,187.3,134.4z"/>
			</g>
		</g>
	</g>
	<g id="XMLID_6955_">
		<g id="XMLID_6993_">
			<g id="XMLID_7016_">
				<path id="XMLID_7033_" class="st10" d="M82.4,295c-0.9,0.5-2.3,1.6-2.5,3.8c-0.2,2.2,1.3,4.5,5.5,5.5c4.2,1,11.7,2.2,22.8-1.8
					c11.1-4.1,11.3-6.5,11.2-8.3c-0.1-1.8-0.3-1.5-1-2.2C117.7,291.3,82.4,295,82.4,295z"/>
				<path id="XMLID_7032_" class="st11" d="M102.5,281.5c0,0-3.3,6.3-11.6,9.4s-10.3,4.1-9.4,6.2c0.9,2.1,5.8,5.8,16.2,4.2
					c10.3-1.6,18.1-5.1,21.2-8.8c0,0,0.5-3.6-1.5-10.3L102.5,281.5z"/>
				<g id="XMLID_7017_">
					<g id="XMLID_7030_">
						<path id="XMLID_7031_" class="st10" d="M112.6,297.3L112.6,297.3c-0.1,0-0.2-0.1-0.2-0.2c0-0.1,0-2.5-2-3.6
							c-2.6-1.4-4.3-1-6.5,0.1c-2.3,1.1-3.8,1.7-6.6-0.1c-2.6-1.7-5.2-2.5-6-2.4c-0.1,0-0.3-0.1-0.3-0.2c0-0.1,0.1-0.3,0.2-0.3
							c0.9-0.1,3.5,0.6,6.4,2.5c2.6,1.7,3.8,1.2,6.1,0.1c2.3-1.1,4.2-1.5,6.9-0.1c2.3,1.2,2.3,3.9,2.3,4
							C112.9,297.2,112.8,297.3,112.6,297.3z"/>
					</g>
					<g id="XMLID_7028_">
						<path id="XMLID_7029_" class="st10" d="M97.4,293.5c-0.1,0-0.2-0.1-0.2-0.2c0-0.1,0-0.3,0.2-0.3c6.3-2.2,10.6-8.9,10.6-8.9
							c0.1-0.1,0.2-0.1,0.3-0.1c0.1,0.1,0.1,0.2,0.1,0.3C108.3,284.4,104,291.2,97.4,293.5C97.4,293.5,97.4,293.5,97.4,293.5z"/>
					</g>
					<g id="XMLID_7026_">
						<path id="XMLID_7027_" class="st10" d="M99.4,292.5c-0.1,0-0.1,0-0.2-0.1c-2.2-2-5.4-2.5-5.5-2.5c-0.1,0-0.2-0.1-0.2-0.3
							c0-0.1,0.1-0.2,0.3-0.2c0.1,0,3.4,0.6,5.7,2.6c0.1,0.1,0.1,0.2,0,0.3C99.5,292.5,99.5,292.5,99.4,292.5z"/>
					</g>
					<g id="XMLID_7024_">
						<path id="XMLID_7025_" class="st10" d="M101.6,291.1c-0.1,0-0.1,0-0.2-0.1c-2.3-2.1-5.2-2.7-5.2-2.7c-0.1,0-0.2-0.2-0.2-0.3
							s0.2-0.2,0.3-0.2c0.1,0,3,0.6,5.5,2.8c0.1,0.1,0.1,0.2,0,0.3C101.8,291.1,101.7,291.1,101.6,291.1z"/>
					</g>
					<g id="XMLID_7022_">
						<path id="XMLID_7023_" class="st10" d="M103.4,289.7c-0.1,0-0.1,0-0.2-0.1c-2.1-2.2-5.2-2.6-5.2-2.6c-0.1,0-0.2-0.1-0.2-0.3
							c0-0.1,0.1-0.2,0.3-0.2c0.1,0,3.3,0.5,5.5,2.8c0.1,0.1,0.1,0.3,0,0.3C103.5,289.7,103.4,289.7,103.4,289.7z"/>
					</g>
					<g id="XMLID_7020_">
						<path id="XMLID_7021_" class="st10" d="M105,288c-0.1,0-0.1,0-0.2-0.1c-2.3-1.9-5.2-2.6-5.2-2.6c-0.1,0-0.2-0.2-0.2-0.3
							c0-0.1,0.2-0.2,0.3-0.2c0.1,0,3.1,0.7,5.5,2.7c0.1,0.1,0.1,0.2,0,0.3C105.1,288,105.1,288,105,288z"/>
					</g>
					<g id="XMLID_7018_">
						<path id="XMLID_7019_" class="st10" d="M106.5,286.5c-0.1,0-0.1,0-0.2-0.1c-2.4-2.2-5.3-2.6-5.3-2.6c-0.1,0-0.2-0.1-0.2-0.3
							c0-0.1,0.2-0.2,0.3-0.2c0.1,0,3.1,0.5,5.6,2.8c0.1,0.1,0.1,0.2,0,0.3C106.6,286.4,106.5,286.5,106.5,286.5z"/>
					</g>
				</g>
			</g>
			<g id="XMLID_6998_">
				<path id="XMLID_7015_" class="st10" d="M100.2,300.6c-0.9,0.5-2.4,1.6-2.6,3.9s1.4,4.6,5.7,5.7s12.1,2.3,23.4-1.9
					s11.6-6.7,11.5-8.5s-0.3-1.6-1-2.3S100.2,300.6,100.2,300.6z"/>
				<path id="XMLID_7014_" class="st11" d="M120.9,286.7c0,0-3.4,6.5-11.9,9.7s-10.6,4.2-9.7,6.4s6,5.9,16.6,4.3s18.6-5.2,21.8-9
					c0,0,0.5-3.7-1.5-10.6L120.9,286.7z"/>
				<g id="XMLID_6999_">
					<g id="XMLID_7012_">
						<path id="XMLID_7013_" class="st10" d="M131.3,303C131.3,303,131.3,303,131.3,303c-0.1,0-0.3-0.1-0.2-0.3c0-0.1,0-2.6-2.1-3.7
							c-2.6-1.4-4.5-1-6.7,0.1c-2.4,1.2-3.9,1.7-6.8-0.1c-2.7-1.8-5.4-2.6-6.2-2.4c-0.1,0-0.3-0.1-0.3-0.2c0-0.1,0.1-0.3,0.2-0.3
							c0.9-0.1,3.6,0.6,6.6,2.5c2.6,1.7,3.9,1.3,6.3,0.1c2.3-1.1,4.3-1.5,7.1-0.1c2.4,1.2,2.4,4,2.4,4.1
							C131.5,302.9,131.4,303,131.3,303z"/>
					</g>
					<g id="XMLID_7010_">
						<path id="XMLID_7011_" class="st10" d="M115.6,299.1c-0.1,0-0.2-0.1-0.2-0.2c0-0.1,0-0.3,0.2-0.3c6.5-2.2,10.9-9.1,10.9-9.2
							c0.1-0.1,0.2-0.1,0.3-0.1c0.1,0.1,0.2,0.2,0.1,0.3C126.9,289.7,122.4,296.7,115.6,299.1C115.7,299.1,115.7,299.1,115.6,299.1z
							"/>
					</g>
					<g id="XMLID_7008_">
						<path id="XMLID_7009_" class="st10" d="M117.7,298c-0.1,0-0.1,0-0.2-0.1c-2.3-2.1-5.6-2.6-5.6-2.6c-0.1,0-0.2-0.1-0.2-0.3
							c0-0.1,0.1-0.2,0.3-0.2c0.1,0,3.5,0.6,5.9,2.7c0.1,0.1,0.1,0.2,0,0.4C117.8,298,117.8,298,117.7,298z"/>
					</g>
					<g id="XMLID_7006_">
						<path id="XMLID_7007_" class="st10" d="M120,296.6c-0.1,0-0.1,0-0.2-0.1c-2.4-2.2-5.3-2.8-5.4-2.8c-0.1,0-0.2-0.2-0.2-0.3
							s0.2-0.2,0.3-0.2c0.1,0,3.1,0.6,5.6,2.9c0.1,0.1,0.1,0.3,0,0.4C120.1,296.6,120.1,296.6,120,296.6z"/>
					</g>
					<g id="XMLID_7004_">
						<path id="XMLID_7005_" class="st10" d="M121.8,295.2c-0.1,0-0.1,0-0.2-0.1c-2.2-2.2-5.3-2.7-5.4-2.7c-0.1,0-0.2-0.1-0.2-0.3
							c0-0.1,0.1-0.2,0.3-0.2c0.1,0,3.4,0.5,5.6,2.9c0.1,0.1,0.1,0.3,0,0.4C121.9,295.1,121.8,295.2,121.8,295.2z"/>
					</g>
					<g id="XMLID_7002_">
						<path id="XMLID_7003_" class="st10" d="M123.4,293.4c-0.1,0-0.1,0-0.2-0.1c-2.3-2-5.4-2.7-5.4-2.7c-0.1,0-0.2-0.2-0.2-0.3
							c0-0.1,0.2-0.2,0.3-0.2c0.1,0,3.2,0.7,5.6,2.8c0.1,0.1,0.1,0.2,0,0.4C123.6,293.4,123.5,293.4,123.4,293.4z"/>
					</g>
					<g id="XMLID_7000_">
						<path id="XMLID_7001_" class="st10" d="M125,291.8c-0.1,0-0.1,0-0.2-0.1c-2.5-2.2-5.5-2.7-5.5-2.7c-0.1,0-0.2-0.1-0.2-0.3
							s0.2-0.2,0.3-0.2c0.1,0,3.2,0.5,5.7,2.8c0.1,0.1,0.1,0.3,0,0.4C125.1,291.8,125,291.8,125,291.8z"/>
					</g>
				</g>
			</g>
			<g id="XMLID_6996_">
				<path id="XMLID_6997_" class="st12" d="M99.4,301.2c0,0-0.1,0-0.1,0c-0.1-0.1-0.1-0.2-0.1-0.3c0,0,0.8-1.3,4.9-2.7
					c4-1.4,4.5-1.5,5-1.5c0.1,0-0.9,0.6-4.8,2c-3.8,1.4-4.6,2.5-4.6,2.5C99.5,301.1,99.5,301.2,99.4,301.2z"/>
			</g>
			<g id="XMLID_6994_">
				<path id="XMLID_6995_" class="st13" d="M97.2,305.2c0-0.1-0.2-2.6,1.3-3.9c0.1-0.1,0.6-0.3,0.7-0.2c0.1,0.1,0.2,0.1,0,0.2
					c-0.3,0.2-0.7,0.7-0.9,1c-0.8,1.2-0.8,2.7-0.8,2.8c0,0.1,0.1,0.1-0.1,0.1C97.5,305.1,97.3,305.2,97.2,305.2z"/>
			</g>
		</g>
		<g id="XMLID_6956_">
			<path id="XMLID_6992_" class="st14" d="M167.9,211.7c0,0,2.6,3.6,3.4,7.1s0.9,12.1-3.1,17.8s-13.4,9.1-18.2,10.9
				c-4.5,1.6-11.4,3.1-12.5,4.3c-0.5,0.5,0.9,0.4,0.5,1.7c-0.2,1-0.9,0.9-0.4,1.8s0.7,4.6,0.8,5.9c0.2,2.5-1.4,5.8-1.4,6.8
				s0.2,4.8,0.3,6.8c0.1,2.2-1.2,4.6-2.1,6.2l1.6,3.9l-11,0.6c0,0-2.6-4.5-3.1-6.1c0.5-13.5-2.3-31.9-2.3-33.8c0,0-0.9,0.6-1.5,0.8
				c0,0,0.5,0.8-0.2,2.3c0.4,2.8,1,5,1,7c-0.1,2.5-0.9,4.1-1.4,6s0.3,5.1,0.2,6.7c-0.1,1.3-0.5,4.8-2.7,8.3c0,0-11.2,0.6-11.5-4.1
				c0.3-9.1-1.3-20.8-1.9-27.5s-0.1-8.3,2.9-10.5s17.6-11,23.2-13.5s7.1-3.6,7.2-4.6s0.5-3.8,0.5-3.8s6.2,2.1,12.8,2.2
				S163.1,214.3,167.9,211.7z"/>
			<g id="XMLID_6959_">
				<g id="XMLID_6964_">
					<g id="XMLID_6990_">
						<path id="XMLID_6991_" class="st15" d="M139.1,229.7c-3.3,1.4-6.7,3-8.8,4.4c-3.1,2.1-8.6,5.9-9.9,8.7c-0.5,1-0.4,1.7-0.4,3.1
							c0.2-0.6,0.2-1.7,0.7-2.7c0.9-1.9,4.7-5.1,10-8.5c2.5-1.7,6.9-3.6,10.8-5.2c2.5-1,6.6-2.4,6.5-2.6
							C147.9,226.7,142.3,228.3,139.1,229.7z"/>
					</g>
					<g id="XMLID_6988_">
						<path id="XMLID_6989_" class="st15" d="M142,245.9c2.1-0.9,5-1.9,7.8-2.9c3.6-1.2,6.9-2.4,8.6-3.4c2.1-1.3,7.2-5,8.6-11.5
							c1.3-5.9-0.8-11.8-0.8-11.8c0-0.1,0-0.3,0.2-0.3c0.1,0,0.3,0,0.3,0.2c0,0.1,2.1,6.1,0.8,12.1c-1.5,6.6-6.7,10.4-8.9,11.8
							c-1.7,1-5.1,2.2-8.7,3.5c-2.8,1-5.6,2.1-7.7,2.9c-3.1,1.2-7.1,3.7-6.7,3.2C135.7,249.3,138.4,247.3,142,245.9z"/>
					</g>
					<g id="XMLID_6986_">
						<path id="XMLID_6987_" class="st15" d="M121.8,241.4c-1.6,0.2-3.3,1-4.2,2.1c-0.1,0.1,1.6-1.2,3.7-1.6
							C121.7,241.9,122,241.4,121.8,241.4z"/>
					</g>
					<g id="XMLID_6981_">
						<g id="XMLID_6984_">
							<path id="XMLID_6985_" class="st15" d="M139.4,230.1c-0.1,0-0.2,0.1-0.2,0c-0.9-0.7-1.4-1.7-1.7-2.6c-0.4-1-0.5-2.2-0.3-2.2
								c0.1,0,0.7,3,2.4,4.3c0.1,0.1,0.1,0.2,0.1,0.3C139.6,230,139.5,230.1,139.4,230.1z"/>
						</g>
						<g id="XMLID_6982_">
							<path id="XMLID_6983_" class="st15" d="M137,231c-0.4-0.9-0.6-1.7-0.6-1.7c-0.1,0-0.1,0.9,0.2,1.8
								C136.6,231.2,137.2,231.4,137,231z"/>
						</g>
					</g>
					<g id="XMLID_6979_">
						<path id="XMLID_6980_" class="st15" d="M126.4,276.9c0-0.1,4.1-1.9,7.5-6c0.6-0.8,2-2.8,2.1-2.7c0.1,0.1-1.2,2.4-1.9,3.2
							c-0.6,0.8-1.3,1.5-2,2.1C129.4,276,126.5,277,126.4,276.9z"/>
					</g>
					<g id="XMLID_6977_">
						<path id="XMLID_6978_" class="st15" d="M152.6,219.3c-8.8,0-15.4-2.9-15.5-2.9c-0.1-0.1-0.2-0.2-0.1-0.3
							c0.1-0.1,0.2-0.2,0.3-0.1c0.1,0,7.3,3.2,16.7,2.8c9.4-0.3,14.1-2.9,14.2-2.9c0.1-0.1,0.3,0,0.3,0.1c0.1,0.1,0,0.3-0.1,0.3
							c-0.2,0.1-4.9,2.6-14.4,2.9C153.6,219.3,153.1,219.3,152.6,219.3z"/>
					</g>
					<g id="XMLID_6975_">
						<path id="XMLID_6976_" class="st15" d="M147,225.3C147,225.3,147,225.3,147,225.3c-0.1,0-0.2-5.7,1.3-10.1
							c0-0.1,0.2-0.2,0.3-0.2c0.1,0,0.2,0.2,0.2,0.3C147.3,219.7,147.1,225.3,147,225.3z"/>
					</g>
					<g id="XMLID_6973_">
						<path id="XMLID_6974_" class="st15" d="M142.9,227.3c-0.1,0-0.5-3.4-0.3-4.4c0-0.2,0.1-0.5,0.3-0.8c0.3-1,0.8-2.5,0.6-3.9
							c-0.4-1.9,0.2-3.3,0.3-3.4c0.1-0.1,0.2-0.2,0.3-0.1c0.1,0.1,0.2,0.2,0.1,0.3c0,0-0.6,1.3-0.2,3.1c0.3,1.5-0.3,3.1-0.6,4.1
							c-0.1,0.3-0.2,0.6-0.2,0.8C142.6,224.7,143,227.3,142.9,227.3C142.9,227.3,142.9,227.3,142.9,227.3z"/>
					</g>
					<g id="XMLID_6971_">
						<path id="XMLID_6972_" class="st15" d="M135.9,222.5c-0.3,0-0.9-0.2-1.2-0.4c-2.8-1.1-5.1-0.6-5.2-0.7s1.7-0.6,3.7-0.2
							c0.6,0.1,1.3,0.3,2,0.6c0.5,0.2,0.9,0.2,1.3,0c1.7-0.9,2.5-4.8,2.5-4.8c0-0.1,0.1-0.2,0.3-0.2c0.1,0,0.2,0.2,0.2,0.3
							c0,0.2-0.8,4.1-2.7,5.2C136.6,222.4,136.3,222.5,135.9,222.5z"/>
					</g>
					<g id="XMLID_6969_">
						<path id="XMLID_6970_" class="st15" d="M166.8,228.2C166.8,228.2,166.8,228.2,166.8,228.2c-9.8-3.3-9.2-9.2-9.1-9.5
							c0-0.1,0.1-0.2,0.3-0.2c0.1,0,0.2,0.1,0.2,0.3c0,0-0.2,1.5,0.8,3.3c0.9,1.7,3,4,7.9,5.7c0.1,0,0.2,0.2,0.2,0.3
							C167,228.2,166.9,228.2,166.8,228.2z"/>
					</g>
					<g id="XMLID_6967_">
						<path id="XMLID_6968_" class="st15" d="M166.6,235.2c-0.1,0-0.4-0.9-1.4-2.1c-1.5-2-3.7-3-3.7-3.1c0.1-0.1,2.9,1.2,4.1,3
							C166.2,233.8,166.6,235.2,166.6,235.2z"/>
					</g>
					<g id="XMLID_6965_">
						<path id="XMLID_6966_" class="st15" d="M168.1,231.7c-0.1,0-0.8-0.7-1.2-0.9c-1.1-0.6-2.4-0.9-2.4-1c0-0.1,1.2-0.1,2.2,0.3
							C167.8,230.6,168.2,231.7,168.1,231.7z"/>
					</g>
				</g>
				<g id="XMLID_6962_">
					<path id="XMLID_6963_" class="st15" d="M131.7,282.9c-0.1-0.9,0.5-2.4,1.4-4.5c0.2-0.4,0.4-0.9,0.5-1.3
						c0.9-2.2,0.6-3.9,0.2-5.8c-0.1-0.4-0.2-0.9-0.2-1.3c-0.4-2.7,0.4-5.1,1-6.6c0.7-1.7,0.8-6.1-0.1-8.2c-0.5-1.1-0.6-1.9-0.6-2.5
						c0.1-1.4,0.8-1.9,0.8-1.9c-0.3,0.7-0.9,1.7,0,3.8c1.4,3,1.1,7.1,0.4,9c-0.6,1.5-1.4,3.7-1,6.3c0.1,0.4,0.1,0.9,0.2,1.3
						c0.3,1.9,0.7,3.8-0.2,6.1c-0.2,0.5-0.4,0.9-0.5,1.3c-0.8,2-1.4,3.6-1.4,4.3L131.7,282.9z"/>
				</g>
				<g id="XMLID_6960_">
					<path id="XMLID_6961_" class="st15" d="M113.3,277.9c-0.1,0-0.2-0.1-0.2-0.2c-0.1-2.3,0.4-3.3,1.2-5.1c0.2-0.5,0.5-1,0.7-1.7
						c1.1-2.6,0.7-4.5,0.2-6.7l-0.1-0.6c-0.5-2.5,0.1-4.4,1.1-6.9c0.3-0.9,0.5-2.5,0.5-3.8c-0.1-2.5-0.3-3.4-0.3-3.7
						c0-0.1,0.6,2,0.7,3.6c0.1,1.4,0,3-0.4,4c-1,2.4-1.6,4.3-1.1,6.6l0.1,0.6c0.5,2.2,0.9,4.2-0.2,7c-0.3,0.7-0.5,1.2-0.7,1.7
						c-0.8,1.7-1.2,2.7-1.1,4.8C113.6,277.8,113.5,277.9,113.3,277.9C113.3,277.9,113.3,277.9,113.3,277.9z"/>
				</g>
			</g>
			<path id="XMLID_6958_" class="st16" d="M122.6,278.5c-0.5-0.1-1.6,0.4-1.4,2.9s-0.6,4-0.9,4.7s-0.5,1.4,2.8,3.1s7.2,1.9,9.6,1.8
				s5.1-1.4,5-3.9s-0.8-1.7-0.8-4.1s0.5-3.1-0.7-3.8c0,0-0.2,3.3-6.7,2.3S122.6,278.5,122.6,278.5z"/>
			<path id="XMLID_6957_" class="st16" d="M104.2,272.5c0,0-1.2-0.1-1.1,2.8s-0.9,3.5-1.1,5s3.1,4.1,9,4.7s7.9-2,8.2-3.3
				s-0.8-2.9-0.9-3.8s1.3-3.3-0.7-4.8c0,0,0,3.2-6,2.5S104.2,272.5,104.2,272.5z"/>
		</g>
	</g>
	<g id="XMLID_6941_">
		<g id="XMLID_6953_">
			<path id="XMLID_6954_" class="st5" d="M179.5,217.4c-0.8,0-1.6-0.5-1.9-1.4c-0.4-1,0.2-2.2,1.2-2.5l9-3.1c1-0.4,2.2,0.2,2.5,1.2
				c0.4,1-0.2,2.2-1.2,2.5l-9,3.1C179.9,217.3,179.7,217.4,179.5,217.4z"/>
		</g>
		<g id="XMLID_6942_">
			<g id="XMLID_6950_">
				<path id="XMLID_6952_" class="st0" d="M180.7,211.9c1.1,0.9,2,2.5,2,4.2c0,1.9-0.8,3.5-2,4.5c-0.7,0.6-19.2,7.9-19.2,7.9
					l-1.6-11l15.8-6C175.8,211.5,178.9,210.2,180.7,211.9z"/>
				<ellipse id="XMLID_6951_" class="st4" cx="161" cy="222.9" rx="4.6" ry="5.6"/>
			</g>
			<g id="XMLID_6948_">
				<path id="XMLID_6949_" class="st5" d="M152.8,313c-1.4,0-2.5-1.1-2.5-2.5v-64.7c0-0.7,0-1.4,0-2.2c-0.1-7.4-0.2-16.7,8.8-22.9
					c1.1-0.8,2.7-0.5,3.5,0.6c0.8,1.1,0.5,2.7-0.6,3.5c-6.8,4.7-6.7,11.5-6.6,18.7c0,0.8,0,1.5,0,2.2v64.7
					C155.3,311.9,154.2,313,152.8,313z"/>
			</g>
			<g id="XMLID_6943_">
				<g id="XMLID_6945_">
					<ellipse id="XMLID_6947_" class="st2" cx="155.2" cy="320.4" rx="9.1" ry="12.6"/>
					<ellipse id="XMLID_6946_" class="st0" cx="157.5" cy="320.4" rx="6.8" ry="10.3"/>
				</g>
				<ellipse id="XMLID_6944_" class="st5" cx="157.8" cy="320.4" rx="3.7" ry="5.5"/>
			</g>
		</g>
	</g>
</g>
</svg>
