<?xml version="1.0" encoding="utf-8"?>
<!-- Generator: Adobe Illustrator 19.0.0, SVG Export Plug-In . SVG Version: 6.00 Build 0)  -->
<svg version="1.1" id="Camada_1" xmlns="http://www.w3.org/2000/svg" xmlns:xlink="http://www.w3.org/1999/xlink" x="0px" y="0px"
	 viewBox="0 0 297.6 425.2" style="enable-background:new 0 0 297.6 425.2;" xml:space="preserve">
<style type="text/css">
	.st0{fill:#FED7B6;}
	.st1{fill:#CEAB8F;}
	.st2{fill:#3A2A25;}
	.st3{fill:none;stroke:#323472;stroke-width:0.4;stroke-miterlimit:10;}
</style>
<path id="XMLID_168_" class="st0" d="M193.5,322.5c-2.5-1.4-10.8-5.6-13.7-8.3s-7.4-8.4-10.2-18.8c-2.8-10.3-4.4-22.2-5.4-29.6
	s-3.3-26.5-4.2-30.4c-0.8-3.9-4.2-18.1-7.1-21.7c0,0-0.2-11.1,5.8-24.2c0,0,4.7,10.1,8,16.9h7.7c0.7-0.4,1.3-0.9,1.9-1.4
	c0.1-0.1,0.2-0.1,0.3-0.2c-0.2,0.1-0.2,0.1-0.1,0.1c0.1-0.1,0.1-0.1,0.2-0.2c0.1-0.1,0.2-0.1,0.3-0.2c0-0.1-0.1-0.2-0.1-0.2
	s-6-20.3-6.8-22.7s-1.7-4.7-5.6-6.2c-3.9-1.5-12.6-4.1-12.6-4.1l-0.2-9.8l-12.8,3.7l-0.3,5.7c0,0-5.3,1.6-8.5,2.5
	c-3.2,0.9-9.7,4.1-10.5,5.2c-0.8,1.2-2.3,6.3-1.8,18.7c0.5,12.3-0.2,17-0.2,17l-1.8,15.6c0,0-2.1,6-1.2,13.1
	c0.9,7.1,1.4,8.9,2.3,10.2s1.2,2,2.8,3.6c0,0,2.2,15.2,3.8,23.4c1.7,8.2,3.4,17.8,3.7,19.4c0.2,1.7,1,7.7-3.8,11.8
	c-4.8,4.1-15,7.4-16.1,7.8c-1.1,0.4-6.3,2.3-6.6,5s1.1,3.2,1.1,3.2s0.1,1.8,2.7,1.8c0,0,0.9,1.5,3.4,0.7c0,0,1.6,1.6,4,0.4
	c0,0,2.4,2,9.2,0.7c6.8-1.3,14.3-4.8,16.5-6.4c2.2-1.6,3.2-4.1,1.6-6.8c-1.6-2.8-3.1-12.5-3.2-15.8c-0.2-3.2,0.5-21.2,1.2-29.9
	s2.3-24.2,2.3-24.2s8.4,17.6,9,18.8s9.8,23.3,11.7,30.9c1.9,7.6,3.2,15.3,3.2,15.3s-1.2,7.3,0.2,10.5c1.3,3.2,4.6,5.9,9.8,8.3
	s7.9,0.7,7.9,0.7s1.8,1.5,4.4,0.1c0,0,2.4,1,4.2-0.7c0,0,2.8,0.8,4.2-1.5c0,0,2,0.2,2.3-1.9C196.8,326.1,196,324,193.5,322.5z"/>
<path id="XMLID_167_" class="st0" d="M111.2,141.2c-0.3-0.4-1.7-2.6-2.8-5.3s-1.6-4-1.5-6.1s0.7-4.5,1.9-5s4.1,4,4.1,4L111.2,141.2z
	"/>
<path id="XMLID_166_" class="st1" d="M151.9,163.3l-0.1-1.7l-12.8,3.7L139,167C143.2,168.3,147.3,166,151.9,163.3z"/>
<g id="XMLID_162_">
	<path id="XMLID_165_" class="st1" d="M110.3,125.4c-0.2,1.5,0,4.9,0,7.6c0,2.2,0,4.4-0.1,6.6c0.5,0.8,0.8,1.4,1,1.6l1.7-12.5
		C112.9,128.7,110.8,126,110.3,125.4z"/>
	<g id="XMLID_163_">
		<path id="XMLID_164_" class="st1" d="M110.9,132.4c-0.6-0.9-1.3-1.8-2.1-2.8c-0.2-0.2-0.4-0.4-0.7-0.4c-0.2,0,0.2,0.4,0.3,0.6
			c1.1,1.3,1.9,2.7,2.6,4C110.9,133.3,110.9,132.9,110.9,132.4z"/>
	</g>
</g>
<path id="XMLID_161_" class="st0" d="M111.5,143c-0.2-2.4-1.2-13.8-1.2-16.8s0.3-10.4,5.9-18.7c5.6-8.2,17.2-15.2,32.2-15.3
	c15-0.1,35.8,14,33.7,33.8c0,0,3.9,0.5,3.6,6.1c-0.3,5.6-3.8,10.2-6.4,12.4s-5.1,1.1-5.2,0.2c0,0,0.1,4.7-5.9,9.2
	c-6,4.6-20.2,10.3-24.8,11.7c-4.6,1.3-6.7,0.2-10-1.3c-3.3-1.6-9.1-5.2-13.1-8.7S111.7,146.6,111.5,143z"/>
<g id="XMLID_159_">
	<path id="XMLID_160_" class="st1" d="M176.6,140.8C176.6,140.8,176.6,140.8,176.6,140.8c-0.4-0.1-0.5-0.3-0.5-0.6
		c0-0.2,1.2-5.9,5.6-10.8c0.2-0.2,0.4-0.4,0.7-0.4c0.2,0-0.2,0.4-0.3,0.6c-4.1,5.1-5,10.7-5,10.7
		C177.1,140.6,176.9,140.8,176.6,140.8z"/>
</g>
<g id="XMLID_157_">
	<path id="XMLID_158_" class="st1" d="M172.7,135.7c-0.1,0,0-0.4,0.1-0.7c0.1-0.4,2.2-7.4,7.5-9.3c0.4-0.1,1.3-0.3,1.7-0.1
		c0.3,0.2,0.2,0.4,0.1,0.4c-5.8,0.8-9,9.2-9.1,9.3C172.8,135.5,172.8,135.8,172.7,135.7z"/>
</g>
<g id="XMLID_138_">
	<g id="XMLID_148_">
		<g id="XMLID_155_">
			<path id="XMLID_156_" class="st1" d="M111.5,330.3c-0.4-0.4-1.2-1.4-1.3-2.7c0-1.7,1.3-2.8,4.4-4.3c0.1-0.1,0.4-0.2,0.4-0.1
				c0.1,0.1,0,0.2-0.2,0.2c-2.8,1.3-4.2,2.6-4.1,4.1c0,1.5,1.2,2.5,1.3,2.5C112,330.2,111.6,330.3,111.5,330.3z"/>
		</g>
		<g id="XMLID_153_">
			<path id="XMLID_154_" class="st1" d="M107.5,329.9c-0.4-0.7-0.9-2.4-0.2-3.7c0.7-1.3,1.7-2,3.8-2.9c0.2-0.1,0.4-0.1,0.6-0.2
				c0.4-0.2,1-0.1,0,0.3c-2.5,1-3.2,1.7-3.9,3c-0.6,1.3,0,3,0.3,3.3C108,329.7,107.6,329.8,107.5,329.9z"/>
		</g>
		<g id="XMLID_151_">
			<path id="XMLID_152_" class="st1" d="M104.1,329c-0.2-0.6-0.6-2.1,0.1-3.5c0.9-1.8,4-2.8,4.1-2.9c0.1-0.1,0.3,0,0.3,0
				c0.1,0.1-0.1,0.2-0.3,0.2c0,0-3,1.3-3.8,2.9c-0.8,1.6,0,3.2,0,3.2C104.6,329,104.1,329,104.1,329z"/>
		</g>
		<g id="XMLID_149_">
			<path id="XMLID_150_" class="st1" d="M101.4,326.8c0-2.1,1.6-3.8,4.6-5c0.1,0,0.4-0.1,0.4,0c0,0.1-0.1,0.1-0.3,0.2
				c-2,0.8-4.5,2.5-4.2,5.1l0,0.1C101.9,327.3,101.6,327.1,101.4,326.8z"/>
		</g>
	</g>
	<g id="XMLID_139_">
		<g id="XMLID_146_">
			<path id="XMLID_147_" class="st1" d="M181.3,332.3c1-0.9,1.8-2.8,0.9-5.1c-0.9-2.3-4.8-3.2-4.9-3.2c-0.1,0-0.3-0.1-0.3-0.2
				c0-0.1,0.2-0.1,0.4-0.1c0.2,0,4.2,0.7,5.3,3.2c1,2.5,0.1,4.5-0.9,5.6C181.6,332.5,181.4,332.4,181.3,332.3z"/>
		</g>
		<g id="XMLID_144_">
			<path id="XMLID_145_" class="st1" d="M185.7,332.4c0.1-0.1,1.6-1.7,1.3-3.9c-0.3-2.2-3.6-3.8-3.6-3.8c-0.1-0.1-0.3-0.1-0.3-0.2
				c0-0.1,0.3,0,0.4,0c0.1,0.1,3.7,1.5,4.1,4c0.2,2-0.9,3.5-1.3,4.1C186.1,332.5,185.8,332.4,185.7,332.4z"/>
		</g>
		<g id="XMLID_142_">
			<path id="XMLID_143_" class="st1" d="M190,331.7c0.1-0.1,1.6-2.2,0.8-4.3c-0.8-2.2-3.8-3.3-3.9-3.3c-0.1,0-0.4-0.1-0.5-0.2
				c-0.1-0.1,0.4,0,0.5,0c0.1,0,3.4,0.9,4.3,3.3c0.8,2-0.3,3.9-0.7,4.6C190.4,331.8,190.1,331.7,190,331.7z"/>
		</g>
		<g id="XMLID_140_">
			<path id="XMLID_141_" class="st1" d="M194.1,330.2c0,0,0.7-1.5,0-3.4c-0.8-1.9-4.2-3.2-4.2-3.2c-0.1,0-0.3-0.1-0.4-0.2
				c0-0.1,0.3,0,0.4,0c0.1,0.1,3.8,1.1,4.6,3.2c0.7,1.6,0.3,3,0.1,3.5C194.5,330.2,194.2,330.2,194.1,330.2z"/>
		</g>
	</g>
</g>
<g id="XMLID_131_">
	<g id="XMLID_136_">
		<path id="XMLID_137_" class="st1" d="M119.9,256.7c-0.1,0-1.3-11.8-1.1-20.7c0.2-8.6,3.6-19.8,3.8-20.6c-0.1-0.7-1.3-9.2-1.5-15.5
			c-0.2-4.6,0.2-8,0.5-10.2c0.1-1,0.2-1.8,0.2-2.3c0-1.6-0.7-2.1-0.7-2.1c-0.1-0.1,1.6,0.1,1.5,2.2c0,0.6-0.1,1.4-0.2,2.4
			c-0.3,2.2-0.7,5.6-0.5,10.1c0.2,6.5,1.2,15.3,1.2,15.4l0,0.1l0,0c0,0.1-3.6,11.7-3.8,20.5C119,244.9,120.1,256.7,119.9,256.7
			C119.9,256.7,119.9,256.7,119.9,256.7z"/>
	</g>
	<g id="XMLID_134_">
		<path id="XMLID_135_" class="st1" d="M136.4,242.7c-2.8-2.4-11.5-4.5-11.6-4.5c-0.1,0-0.1-0.2-0.1-0.2c0.1,0,9,1.6,12,4.1
			c0.1,0.1,1.2,1.8,2.9,5.6c0,0-0.1,0.6-0.1,0.6S136.4,242.7,136.4,242.7z"/>
	</g>
	<g id="XMLID_132_">
		<path id="XMLID_133_" class="st1" d="M118.9,250.3c-0.3,0-0.6-0.1-0.8-0.2c-0.7-0.5-0.9-1.6-1-2.2l0-0.1c0-0.2-0.1-0.4-0.1-0.7
			c-0.1-1-0.4-2.7-0.7-3.5c-0.5-1.1-1.2-4-1.1-5.1c0-0.1,0-0.3,0.1-0.3c0.1,0,0.1,0.2,0.1,0.4c0.2,2.4,0.9,3.8,1.3,4.9
			c0.4,0.9,0.6,2.5,0.7,3.6c0,0.3,0.1,0.5,0.1,0.7l0,0.1c0.1,0.5,0.2,1.5,0.8,1.8c0.2,0.2,0.6,0.2,0.9,0.1c0.1,0,0.3,0.1,0.3,0.2
			c0,0.1-0.1,0.3-0.2,0.3C119.2,250.3,119,250.3,118.9,250.3z"/>
	</g>
</g>
<path id="XMLID_1042_" class="st2" d="M157.4,211.7"/>
<path id="XMLID_1051_" class="st3" d="M169.8,265.6"/>
</svg>
