<?xml version="1.0" encoding="utf-8"?>
<!-- Generator: Adobe Illustrator 19.0.0, SVG Export Plug-In . SVG Version: 6.00 Build 0)  -->
<svg version="1.1" id="Camada_1" xmlns="http://www.w3.org/2000/svg" xmlns:xlink="http://www.w3.org/1999/xlink" x="0px" y="0px"
	 viewBox="0 0 297.6 425.2" style="enable-background:new 0 0 297.6 425.2;" xml:space="preserve">
<style type="text/css">
	.st0{fill:#A38274;}
	.st1{fill:#765D54;}
</style>
<g id="XMLID_3271_">
	<g id="XMLID_3265_">
		<g id="XMLID_3502_">
			<path id="XMLID_3576_" class="st0" d="M115.6,262.7c-7.8-0.4-13,0.9-14.8,2c-5.8,3.6-5.9,7.4-5.9,8.9c-0.8,3.8,1.1,3.8,1.1,3.8
				s0.2,2,2.3,1.5c0,0.7,1.2,1.7,3.4,0.7c2.5-1.2,3.1-5.8,8.6-6.7c2.1-0.3,2.5,0.4,2.5,0.4c-0.2,1.1-2.2,1.2-3.7,2.1
				c-1,0.6-2,2.5-1.5,3.9c0.5,1.3,2.4,1.4,2.9,0.5c0.5-0.9,3.2-2,3.8-2.1s2.7-0.3,3.6-1.3c2.7-3,2-6.8,2-6.8s13.7-0.4,16.6-1.2
				c0,0,3.7,0.2,3.6-4.2c0-2.3,0.3-7.4-7.8-4.8S115.6,262.7,115.6,262.7z"/>
			<g id="XMLID_3503_">
				<g id="XMLID_3508_">
					<path id="XMLID_3529_" class="st1" d="M98.3,278.8c0,0-0.1-3,2-5.7c1.1-1.3,2.1-2.2,3.3-2.9c1.4-0.8,4.2-1.3,4.2-1.1
						c0.1,0.2-2.4,0.7-4.5,2.2c-0.8,0.6-1.6,1.3-2.4,2.3C99.1,276.1,98.7,277.6,98.3,278.8z"/>
				</g>
				<g id="XMLID_3506_">
					<path id="XMLID_3507_" class="st1" d="M96.1,277.3C96.1,277.3,96.1,277.3,96.1,277.3c-0.2,0-0.3-3.3,2.7-6.5
						c0.9-1,1.4-1.4,2.2-1.9c1.8-1.2,4.1-1.7,4.2-1.5c0,0.2-3.1,0.9-5.8,3.9C96.2,274.8,96.1,277.2,96.1,277.3z"/>
				</g>
				<g id="XMLID_3504_">
					<path id="XMLID_3505_" class="st1" d="M95,272.8c0.1-0.2,0.8-2.6,4.1-5.2c0.8-0.6,2.6-1.5,3.2-1.5c0.2,0-2,1.4-2.9,2
						c-2.9,2.2-4.4,5.5-4.4,5.6C95,273.8,94.9,273,95,272.8z"/>
				</g>
			</g>
		</g>
		<g id="XMLID_3307_">
			<path id="XMLID_3312_" class="st0" d="M137.7,271.9c-0.5,2.5-0.9,4.5-1.2,6.4c8.6,3.2,14.9,3,22.4,2.2
				c2.7-0.3,11.4-6.3,10.4-14.7c0,0-0.2-11.1,5.8-24.3c0,0,4.7,10.1,8,16.9h7.7c0.7-0.4,1.3-0.9,1.9-1.4c0.1-0.1,0.2-0.1,0.3-0.2
				c-0.2,0.1-0.2,0.1-0.1,0.1c0.1-0.1,0.1-0.1,0.2-0.2c0.1-0.1,0.2-0.1,0.3-0.2c0-0.1-0.1-0.2-0.1-0.2s-6-20.3-6.8-22.7
				c-0.8-2.3-1.7-4.7-5.6-6.2c-3.9-1.5-12.6-4.1-12.6-4.1l-0.2-9.8l-12.8,3.7l-0.3,5.7c0,0-5.3,1.6-8.5,2.5s-9.7,4.1-10.5,5.2
				s-2.3,6.3-1.8,18.7c0.4,10.1,0,15.1-0.1,16.5c0.3,0.1,3.9-1,4.5-0.2C139.7,267,137.9,270.7,137.7,271.9z"/>
			<g id="XMLID_3308_">
				<g id="XMLID_3309_">
					<path id="XMLID_3310_" class="st1" d="M136.6,278.4c1.1-5.9,2.6-10.8,2.7-10.9l0,0l0-0.1c0-0.1-0.9-8.9-1.2-15.4
						c-0.2-4.5,0.2-7.9,0.5-10.1c0.1-1,0.2-1.8,0.2-2.4c0.1-2.1-1.7-2.3-1.5-2.2c0,0,0.7,0.5,0.7,2.1c0,0.5-0.1,1.3-0.2,2.3
						c-0.3,2.2-0.7,5.7-0.5,10.2c0.2,6.3,1.4,14.8,1.5,15.5c-0.2,0.5-1.6,5.2-2.6,10.8l0.2,0.1L136.6,278.4z"/>
				</g>
			</g>
		</g>
	</g>
	<g id="XMLID_3270_">
		<path id="XMLID_3452_" class="st0" d="M127.5,193.2c-0.3-0.4-1.7-2.6-2.8-5.3s-1.6-4-1.5-6.1s0.7-4.5,1.9-5s4.1,4,4.1,4
			L127.5,193.2z"/>
		<path id="XMLID_3451_" class="st1" d="M168.1,215.3l-0.1-1.7l-12.8,3.7l-0.1,1.8C159.5,220.3,163.5,218,168.1,215.3z"/>
		<g id="XMLID_3447_">
			<path id="XMLID_3450_" class="st1" d="M126.6,177.4c-0.2,1.5,0,4.9,0,7.6c0,2.2,0,4.4-0.1,6.6c0.5,0.8,0.8,1.4,1,1.6l1.7-12.5
				C129.2,180.7,127.1,178,126.6,177.4z"/>
			<g id="XMLID_3448_">
				<path id="XMLID_3449_" class="st1" d="M127.2,184.4c-0.6-0.9-1.3-1.8-2.1-2.8c-0.2-0.2-0.4-0.4-0.7-0.4c-0.2,0,0.2,0.4,0.3,0.6
					c1.1,1.3,1.9,2.7,2.6,4C127.2,185.3,127.2,184.9,127.2,184.4z"/>
			</g>
		</g>
		<path id="XMLID_3446_" class="st0" d="M127.7,195c-0.2-2.4-1.2-13.8-1.2-16.8c0.1-2.9,0.3-10.4,5.9-18.7
			c5.6-8.2,17.2-15.2,32.2-15.3c15-0.1,35.8,14,33.7,33.8c0,0,3.9,0.5,3.6,6.1c-0.3,5.6-3.8,10.2-6.4,12.4c-2.6,2.2-5.1,1.1-5.2,0.2
			c0,0,0.1,4.7-5.9,9.2c-6,4.6-20.2,10.3-24.8,11.7c-4.6,1.3-6.7,0.2-10-1.3s-9.1-5.2-13.1-8.7S128,198.6,127.7,195z"/>
		<g id="XMLID_3444_">
			<path id="XMLID_3445_" class="st1" d="M192.9,192.8C192.8,192.8,192.8,192.8,192.9,192.8c-0.4-0.1-0.5-0.3-0.5-0.6
				c0-0.2,1.2-5.9,5.6-10.8c0.2-0.2,0.4-0.4,0.7-0.4c0.2,0-0.2,0.4-0.3,0.6c-4.1,5.1-5,10.7-5,10.7
				C193.3,192.6,193.1,192.8,192.9,192.8z"/>
		</g>
		<g id="XMLID_3442_">
			<path id="XMLID_3443_" class="st1" d="M188.9,187.7c-0.1,0,0-0.4,0.1-0.7c0.1-0.4,2.2-7.4,7.5-9.3c0.4-0.1,1.3-0.3,1.7-0.1
				c0.3,0.2,0.2,0.4,0.1,0.4c-5.8,0.8-9,9.2-9.1,9.3C189.1,187.5,189,187.8,188.9,187.7z"/>
		</g>
	</g>
</g>
</svg>
