<?xml version="1.0" encoding="utf-8"?>
<!-- Generator: Adobe Illustrator 19.0.0, SVG Export Plug-In . SVG Version: 6.00 Build 0)  -->
<svg version="1.1" id="Camada_1" xmlns="http://www.w3.org/2000/svg" xmlns:xlink="http://www.w3.org/1999/xlink" x="0px" y="0px"
	 viewBox="0 0 297.6 425.2" style="enable-background:new 0 0 297.6 425.2;" xml:space="preserve">
<style type="text/css">
	.st0{fill:#FED7B6;}
	.st1{fill:#CEAB8F;}
	.st2{fill:#3A2A25;}
	.st3{fill:none;stroke:#323472;stroke-width:0.4;stroke-miterlimit:10;}
</style>
<g>
	<path id="XMLID_168_" class="st0" d="M208.2,321.2c-2.5-1.4-10.8-5.6-13.7-8.3s-7.4-8.4-10.2-18.8c-2.8-10.3-4.4-22.2-5.4-29.6
		s-3.3-26.5-4.2-30.4c-0.8-3.9-4.2-18.1-7.1-21.7c0,0-0.2-11.1,5.8-24.2c0,0,4.7,10.1,8,16.9h7.7c0.7-0.4,1.3-0.9,1.9-1.4
		c0.1-0.1,0.2-0.1,0.3-0.2c-0.2,0.1-0.2,0.1-0.1,0.1c0.1-0.1,0.1-0.1,0.2-0.2c0.1-0.1,0.2-0.1,0.3-0.2c0-0.1-0.1-0.2-0.1-0.2
		s-6-20.3-6.8-22.7s-1.7-4.7-5.6-6.2c-3.9-1.5-12.6-4.1-12.6-4.1l-0.2-9.8l-12.8,3.7l-0.3,5.7c0,0-5.3,1.6-8.5,2.5
		s-9.7,4.1-10.5,5.2c-0.8,1.2-2.3,6.3-1.8,18.7c0.5,12.3-0.2,17-0.2,17l-1.8,15.6c0,0-2.1,6-1.2,13.1s1.4,8.9,2.3,10.2
		s1.2,2,2.8,3.6c0,0,2.2,15.2,3.8,23.4c1.7,8.2,3.4,17.8,3.7,19.4c0.2,1.7,1,7.7-3.8,11.8c-4.8,4.1-15,7.4-16.1,7.8s-6.3,2.3-6.6,5
		s1.1,3.2,1.1,3.2s0.1,1.8,2.7,1.8c0,0,0.9,1.5,3.4,0.7c0,0,1.6,1.6,4,0.4c0,0,2.4,2,9.2,0.7s14.3-4.8,16.5-6.4s3.2-4.1,1.6-6.8
		c-1.6-2.8-3.1-12.5-3.2-15.8c-0.2-3.2,0.5-21.2,1.2-29.9s2.3-24.2,2.3-24.2s8.4,17.6,9,18.8s9.8,23.3,11.7,30.9s3.2,15.3,3.2,15.3
		s-1.2,7.3,0.2,10.5c1.3,3.2,4.6,5.9,9.8,8.3s7.9,0.7,7.9,0.7s1.8,1.5,4.4,0.1c0,0,2.4,1,4.2-0.7c0,0,2.8,0.8,4.2-1.5
		c0,0,2,0.2,2.3-1.9C211.5,324.8,210.7,322.7,208.2,321.2z"/>
	<path id="XMLID_167_" class="st0" d="M125.9,139.9c-0.3-0.4-1.7-2.6-2.8-5.3s-1.6-4-1.5-6.1s0.7-4.5,1.9-5s4.1,4,4.1,4L125.9,139.9
		z"/>
	<path id="XMLID_166_" class="st1" d="M166.6,162l-0.1-1.7l-12.8,3.7l0,1.7C157.9,167,162,164.7,166.6,162z"/>
	<g id="XMLID_162_">
		<path id="XMLID_165_" class="st1" d="M125,124.1c-0.2,1.5,0,4.9,0,7.6c0,2.2,0,4.4-0.1,6.6c0.5,0.8,0.8,1.4,1,1.6l1.7-12.5
			C127.6,127.4,125.5,124.7,125,124.1z"/>
		<g id="XMLID_163_">
			<path id="XMLID_164_" class="st1" d="M125.6,131.1c-0.6-0.9-1.3-1.8-2.1-2.8c-0.2-0.2-0.4-0.4-0.7-0.4c-0.2,0,0.2,0.4,0.3,0.6
				c1.1,1.3,1.9,2.7,2.6,4C125.6,132,125.6,131.6,125.6,131.1z"/>
		</g>
	</g>
	<path id="XMLID_161_" class="st0" d="M126.2,141.7c-0.2-2.4-1.2-13.8-1.2-16.8s0.3-10.4,5.9-18.7c5.6-8.2,17.2-15.2,32.2-15.3
		c15-0.1,35.8,14,33.7,33.8c0,0,3.9,0.5,3.6,6.1c-0.3,5.6-3.8,10.2-6.4,12.4s-5.1,1.1-5.2,0.2c0,0,0.1,4.7-5.9,9.2
		c-6,4.6-20.2,10.3-24.8,11.7c-4.6,1.3-6.7,0.2-10-1.3c-3.3-1.6-9.1-5.2-13.1-8.7S126.4,145.3,126.2,141.7z"/>
	<g id="XMLID_159_">
		<path id="XMLID_160_" class="st1" d="M191.3,139.5L191.3,139.5c-0.4-0.1-0.5-0.3-0.5-0.6c0-0.2,1.2-5.9,5.6-10.8
			c0.2-0.2,0.4-0.4,0.7-0.4c0.2,0-0.2,0.4-0.3,0.6c-4.1,5.1-5,10.7-5,10.7C191.8,139.3,191.6,139.5,191.3,139.5z"/>
	</g>
	<g id="XMLID_157_">
		<path id="XMLID_158_" class="st1" d="M187.4,134.4c-0.1,0,0-0.4,0.1-0.7c0.1-0.4,2.2-7.4,7.5-9.3c0.4-0.1,1.3-0.3,1.7-0.1
			c0.3,0.2,0.2,0.4,0.1,0.4c-5.8,0.8-9,9.2-9.1,9.3C187.5,134.2,187.5,134.5,187.4,134.4z"/>
	</g>
	<g id="XMLID_138_">
		<g id="XMLID_148_">
			<g id="XMLID_155_">
				<path id="XMLID_156_" class="st1" d="M126.2,329c-0.4-0.4-1.2-1.4-1.3-2.7c0-1.7,1.3-2.8,4.4-4.3c0.1-0.1,0.4-0.2,0.4-0.1
					c0.1,0.1,0,0.2-0.2,0.2c-2.8,1.3-4.2,2.6-4.1,4.1c0,1.5,1.2,2.5,1.3,2.5C126.7,328.9,126.3,329,126.2,329z"/>
			</g>
			<g id="XMLID_153_">
				<path id="XMLID_154_" class="st1" d="M122.2,328.6c-0.4-0.7-0.9-2.4-0.2-3.7c0.7-1.3,1.7-2,3.8-2.9c0.2-0.1,0.4-0.1,0.6-0.2
					c0.4-0.2,1-0.1,0,0.3c-2.5,1-3.2,1.7-3.9,3c-0.6,1.3,0,3,0.3,3.3C122.7,328.4,122.3,328.5,122.2,328.6z"/>
			</g>
			<g id="XMLID_151_">
				<path id="XMLID_152_" class="st1" d="M118.8,327.7c-0.2-0.6-0.6-2.1,0.1-3.5c0.9-1.8,4-2.8,4.1-2.9s0.3,0,0.3,0
					c0.1,0.1-0.1,0.2-0.3,0.2c0,0-3,1.3-3.8,2.9s0,3.2,0,3.2C119.3,327.7,118.8,327.7,118.8,327.7z"/>
			</g>
			<g id="XMLID_149_">
				<path id="XMLID_150_" class="st1" d="M116.1,325.5c0-2.1,1.6-3.8,4.6-5c0.1,0,0.4-0.1,0.4,0s-0.1,0.1-0.3,0.2
					c-2,0.8-4.5,2.5-4.2,5.1v0.1C116.6,326,116.3,325.8,116.1,325.5z"/>
			</g>
		</g>
		<g id="XMLID_139_">
			<g id="XMLID_146_">
				<path id="XMLID_147_" class="st1" d="M196,331c1-0.9,1.8-2.8,0.9-5.1c-0.9-2.3-4.8-3.2-4.9-3.2c-0.1,0-0.3-0.1-0.3-0.2
					s0.2-0.1,0.4-0.1s4.2,0.7,5.3,3.2c1,2.5,0.1,4.5-0.9,5.6C196.3,331.2,196.1,331.1,196,331z"/>
			</g>
			<g id="XMLID_144_">
				<path id="XMLID_145_" class="st1" d="M200.4,331.1c0.1-0.1,1.6-1.7,1.3-3.9c-0.3-2.2-3.6-3.8-3.6-3.8c-0.1-0.1-0.3-0.1-0.3-0.2
					s0.3,0,0.4,0c0.1,0.1,3.7,1.5,4.1,4c0.2,2-0.9,3.5-1.3,4.1C200.8,331.2,200.5,331.1,200.4,331.1z"/>
			</g>
			<g id="XMLID_142_">
				<path id="XMLID_143_" class="st1" d="M204.7,330.4c0.1-0.1,1.6-2.2,0.8-4.3c-0.8-2.2-3.8-3.3-3.9-3.3c-0.1,0-0.4-0.1-0.5-0.2
					s0.4,0,0.5,0s3.4,0.9,4.3,3.3c0.8,2-0.3,3.9-0.7,4.6C205.1,330.5,204.8,330.4,204.7,330.4z"/>
			</g>
			<g id="XMLID_140_">
				<path id="XMLID_141_" class="st1" d="M208.8,328.9c0,0,0.7-1.5,0-3.4c-0.8-1.9-4.2-3.2-4.2-3.2c-0.1,0-0.3-0.1-0.4-0.2
					c0-0.1,0.3,0,0.4,0c0.1,0.1,3.8,1.1,4.6,3.2c0.7,1.6,0.3,3,0.1,3.5C209.2,328.9,208.9,328.9,208.8,328.9z"/>
			</g>
		</g>
	</g>
	<g id="XMLID_131_">
		<g id="XMLID_136_">
			<path id="XMLID_137_" class="st1" d="M134.6,255.4c-0.1,0-1.3-11.8-1.1-20.7c0.2-8.6,3.6-19.8,3.8-20.6
				c-0.1-0.7-1.3-9.2-1.5-15.5c-0.2-4.6,0.2-8,0.5-10.2c0.1-1,0.2-1.8,0.2-2.3c0-1.6-0.7-2.1-0.7-2.1c-0.1-0.1,1.6,0.1,1.5,2.2
				c0,0.6-0.1,1.4-0.2,2.4c-0.3,2.2-0.7,5.6-0.5,10.1c0.2,6.5,1.2,15.3,1.2,15.4v0.1l0,0c0,0.1-3.6,11.7-3.8,20.5
				C133.7,243.6,134.8,255.4,134.6,255.4L134.6,255.4z"/>
		</g>
		<g id="XMLID_134_">
			<path id="XMLID_135_" class="st1" d="M151.1,241.4c-2.8-2.4-11.5-4.5-11.6-4.5c-0.1,0-0.1-0.2-0.1-0.2c0.1,0,9,1.6,12,4.1
				c0.1,0.1,1.2,1.8,2.9,5.6l-0.1,0.6L151.1,241.4z"/>
		</g>
		<g id="XMLID_132_">
			<path id="XMLID_133_" class="st1" d="M133.6,249c-0.3,0-0.6-0.1-0.8-0.2c-0.7-0.5-0.9-1.6-1-2.2v-0.1c0-0.2-0.1-0.4-0.1-0.7
				c-0.1-1-0.4-2.7-0.7-3.5c-0.5-1.1-1.2-4-1.1-5.1c0-0.1,0-0.3,0.1-0.3s0.1,0.2,0.1,0.4c0.2,2.4,0.9,3.8,1.3,4.9
				c0.4,0.9,0.6,2.5,0.7,3.6c0,0.3,0.1,0.5,0.1,0.7v0.1c0.1,0.5,0.2,1.5,0.8,1.8c0.2,0.2,0.6,0.2,0.9,0.1c0.1,0,0.3,0.1,0.3,0.2
				c0,0.1-0.1,0.3-0.2,0.3S133.7,249,133.6,249z"/>
		</g>
	</g>
	<path id="XMLID_1042_" class="st2" d="M172.1,210.4"/>
	<path id="XMLID_1051_" class="st3" d="M184.5,264.3"/>
</g>
</svg>
