<?xml version="1.0" encoding="utf-8"?>
<!-- Generator: Adobe Illustrator 19.0.0, SVG Export Plug-In . SVG Version: 6.00 Build 0)  -->
<svg version="1.1" id="Camada_1" xmlns="http://www.w3.org/2000/svg" xmlns:xlink="http://www.w3.org/1999/xlink" x="0px" y="0px"
	 viewBox="0 0 297.6 425.2" style="enable-background:new 0 0 297.6 425.2;" xml:space="preserve">
<style type="text/css">
	.st0{fill:#231F20;}
</style>
<g id="XMLID_1115_">
	<path id="XMLID_1117_" d="M336.7,125.6c0,0,3.2-2.2,8.1-0.1l-0.4,3.4c0,0-3-3.2-6.9-0.2L336.7,125.6z"/>
	<polygon id="XMLID_1118_" points="375.8,121.5 384.6,125.1 381.4,127.1 374.1,124.3 	"/>
	<g id="XMLID_1125_">
		<path id="XMLID_1128_" d="M323.1,119.5c-5.5,0.7-7,1.4-9.2,2.2s-3.2,0.2-3.8,0.9s-0.2,2.4-0.1,2.6c0.6,0.8,1,0.3,2.2,2.3
			s0.4,4.6,2.9,9.2s7.2,6.3,10.2,6.2s9-1.6,11.8-7.5s1.9-9.9-1.1-12.7S328.6,118.8,323.1,119.5z M336.1,132.6
			c-1,3.2-4.5,7.6-9.9,8.1c-5.4,0.5-8.9-4.1-9.6-5.2c-0.8-1.3-2-3.7-1.8-6.7c0.2-3,2.8-5.9,6.4-7c3.7-1.1,8.1-0.9,11.7,1.3
			C336.5,125.4,337.2,129.4,336.1,132.6z"/>
		<path id="XMLID_1131_" d="M375.7,121.3c-1-0.1-1.9-0.5-7.9-2.1s-13.8-2.2-19.3,0.9s-5.5,8.6-5.2,10.4c0.4,2.6,1.2,6.2,5.3,9.5
			s10.3,4.8,17,0.8s6.8-9.2,7.6-12.5s2.4-3.1,2.7-3.5S376.7,121.4,375.7,121.3z M368.7,134.6c-2.4,3.9-6.3,6.3-11,6.5
			c-5.4,0.2-11-4.8-12-9.1c-0.3-1.5-0.7-4,0.2-6c0.9-2.1,3.5-4.8,7.7-5.5s7.5-1,12.5,1.5S371.1,130.7,368.7,134.6z"/>
	</g>
</g>
<path id="XMLID_1121_" class="st0" d="M194.8,125c0,0-5.9-2.3-13.8-5c-7.8-2.7-19.4-2.2-23.8-0.2c-4.3,2-3.8,5.1-3.8,5.1
	c-1.9-0.8-4.4-0.2-4.4-0.2c0.2-1.9-0.9-2.9-0.9-2.9s-3.6-3.5-14-2.6s-11.4,2.9-12,3.4c-0.6,0.5,0.4,3.2,0.4,3.2s0.5,5.8,1.4,9.2
	c0.9,3.4,2.1,5,5.9,6.1c4.1,1.2,11.3,1.3,15.2-2.4c3.9-3.7,3.5-10.8,3.5-10.8c2.5-1.1,5,0,5,0c0.2,5.5,1.8,8,2,8.5s2.1,5.3,13.4,5.1
	c9.9-0.2,10.9-4.2,11.9-6.9c1.1-3.3,1.4-9.6,1.4-9.6s8.8,2.6,8.9,2.6C192.8,125.7,194.8,125,194.8,125z M144.6,136.4
	c-1.2,1.8-4.1,3.7-7.2,3.9s-9.7,0.1-11.3-4.1s-1.7-9.6-1.6-10.4c0.2-1.4,1.2-2.7,4.4-3.6c3.8-1.1,9.7-0.8,12.2-0.5
	c3.8,0.4,5.1,2.2,5.3,3.8C146.7,132.1,145.6,134.9,144.6,136.4z M179.9,125.2c-0.2,4.1-0.9,9.3-1.8,10.7c-1.9,2.8-4.1,3.9-9.1,4.2
	s-9.9-1.1-11.6-4.2s-1.9-9.6-1.8-10.3c0.1-1.6,1-2.5,2.7-3.5s4.9-1.9,12.9-1.4c3.4,0.2,5.5,0.7,6.8,1.1
	C180.3,122.6,179.9,124.4,179.9,125.2z"/>
</svg>
