<?xml version="1.0" encoding="utf-8"?>
<!-- Generator: Adobe Illustrator 19.0.0, SVG Export Plug-In . SVG Version: 6.00 Build 0)  -->
<svg version="1.1" id="Camada_1" xmlns="http://www.w3.org/2000/svg" xmlns:xlink="http://www.w3.org/1999/xlink" x="0px" y="0px"
	 viewBox="0 0 297.6 425.2" style="enable-background:new 0 0 297.6 425.2;" xml:space="preserve">
<g id="XMLID_1115_">
	<path id="XMLID_1117_" d="M138.3,207.6c0,0,3.2-2.2,8.1-0.1l-0.4,3.4c0,0-3-3.2-6.9-0.2L138.3,207.6z"/>
	<polygon id="XMLID_1118_" points="177.4,203.5 186.2,207.1 183,209.1 175.8,206.3 	"/>
	<g id="XMLID_1125_">
		<path id="XMLID_1128_" d="M124.7,201.4c-5.5,0.7-7,1.4-9.2,2.2s-3.2,0.2-3.8,0.9s-0.2,2.4-0.1,2.6c0.6,0.8,1,0.3,2.2,2.3
			s0.4,4.6,2.9,9.2s7.2,6.3,10.2,6.2s9-1.6,11.8-7.5s1.9-9.9-1.1-12.7S130.2,200.8,124.7,201.4z M137.8,214.6
			c-1,3.2-4.5,7.6-9.9,8.1c-5.4,0.5-8.9-4.1-9.6-5.2c-0.8-1.3-2-3.7-1.8-6.7c0.2-3,2.8-5.9,6.4-7c3.7-1.1,8.1-0.9,11.7,1.3
			C138.2,207.3,138.8,211.4,137.8,214.6z"/>
		<path id="XMLID_1131_" d="M177.4,203.2c-1-0.1-1.9-0.5-7.9-2.1s-13.8-2.2-19.3,0.9s-5.5,8.6-5.2,10.4c0.4,2.6,1.2,6.2,5.3,9.5
			s10.3,4.8,17,0.8s6.8-9.2,7.6-12.5s2.4-3.1,2.7-3.5S178.4,203.4,177.4,203.2z M170.3,216.6c-2.4,3.9-6.3,6.3-11,6.5
			c-5.4,0.2-11-4.8-12-9.1c-0.3-1.5-0.7-4,0.2-6c0.9-2.1,3.5-4.8,7.7-5.5s7.5-1,12.5,1.5S172.8,212.7,170.3,216.6z"/>
	</g>
</g>
</svg>
