<?xml version="1.0" encoding="utf-8"?>
<!-- Generator: Adobe Illustrator 19.0.0, SVG Export Plug-In . SVG Version: 6.00 Build 0)  -->
<svg version="1.1" id="Camada_1" xmlns="http://www.w3.org/2000/svg" xmlns:xlink="http://www.w3.org/1999/xlink" x="0px" y="0px"
	 viewBox="0 0 297.6 425.2" style="enable-background:new 0 0 297.6 425.2;" xml:space="preserve">
<path id="XMLID_1121_" d="M184.9,207.8c0,0-5.9-2.3-13.8-5c-7.8-2.7-19.4-2.2-23.8-0.2c-4.3,2-3.8,5.1-3.8,5.1
	c-1.9-0.8-4.4-0.2-4.4-0.2c0.2-1.9-0.9-2.9-0.9-2.9s-3.6-3.5-14-2.6s-11.4,2.9-12,3.4c-0.6,0.5,0.4,3.2,0.4,3.2s0.5,5.8,1.4,9.2
	c0.9,3.4,2.1,5,5.9,6.1c4.1,1.2,11.3,1.3,15.2-2.4c3.9-3.7,3.5-10.8,3.5-10.8c2.5-1.1,5,0,5,0c0.2,5.5,1.8,8,2,8.5s2.1,5.3,13.4,5.1
	c9.9-0.2,10.9-4.2,11.9-6.9c1.1-3.3,1.4-9.6,1.4-9.6s8.8,2.6,8.9,2.6C182.8,208.5,184.9,207.8,184.9,207.8z M134.7,219.2
	c-1.2,1.8-4.1,3.7-7.2,3.9c-3.1,0.2-9.8,0.1-11.3-4.1s-1.7-9.6-1.6-10.4c0.2-1.4,1.2-2.7,4.4-3.6c3.8-1.1,9.7-0.8,12.2-0.5
	c3.8,0.4,5.1,2.2,5.3,3.8C136.8,214.9,135.7,217.8,134.7,219.2z M169.9,208.1c-0.2,4.1-0.9,9.3-1.8,10.7c-1.9,2.8-4.1,3.9-9.1,4.2
	s-9.9-1.1-11.6-4.2s-1.9-9.6-1.8-10.3c0.1-1.6,1-2.5,2.7-3.5s4.9-1.9,12.9-1.4c3.4,0.2,5.5,0.7,6.8,1.1
	C170.4,205.4,170,207.3,169.9,208.1z"/>
</svg>
